<svg id="icons" xmlns="http://www.w3.org/2000/svg" xmlns:xlink="http://www.w3.org/1999/xlink" viewBox="0 0 64 64"><defs><style>.Graphic-Style{fill:url(#linear-gradient);}.cls-1{opacity:0.95;fill:url(#linear-gradient-2);}</style><linearGradient id="linear-gradient" x1="41.64" y1="10.61" x2="38.9" y2="46.95" gradientUnits="userSpaceOnUse"><stop offset="0.12" stop-color="#f3f8ff"/><stop offset="0.39" stop-color="#c3d8fa"/><stop offset="0.65" stop-color="#99bdf6"/><stop offset="0.79" stop-color="#89b2f4"/></linearGradient><linearGradient id="linear-gradient-2" x1="33.8" y1="17.68" x2="29.93" y2="69" xlink:href="#linear-gradient"/></defs><title>clouds</title><g id="clouds"><path class="Graphic-Style" d="M52,38.14a6.36,6.36,0,1,0,0-12.71h0a8,8,0,0,0,.23-1.91,7.83,7.83,0,0,0-15.46-1.78,6.45,6.45,0,0,0-3.35-.92,6.6,6.6,0,0,0-6.31,4.69,6.35,6.35,0,0,0,1,12.63Z"/><path class="cls-1" d="M14.2,56.52a9.23,9.23,0,0,1,0-18.46h0A11.38,11.38,0,1,1,36.34,32.7a9.42,9.42,0,0,1,4.86-1.33,9.56,9.56,0,0,1,9.16,6.81,9.23,9.23,0,0,1-1.44,18.34Z"/></g></svg>