<?xml version="1.0" encoding="UTF-8"?>
<svg width="700" height="700" version="1.1" viewBox="0 0 700 700" xmlns="http://www.w3.org/2000/svg" xmlns:xlink="http://www.w3.org/1999/xlink">
 <defs>
  <symbol id="d" overflow="visible">
   <path d="m30.891-1.8438c-1.5938 0.82422-3.2578 1.4453-4.9844 1.8594-1.7188 0.42578-3.5156 0.64062-5.3906 0.64062-5.6055 0-10.043-1.5625-13.312-4.6875-3.2734-3.1328-4.9062-7.3789-4.9062-12.734 0-5.375 1.6328-9.625 4.9062-12.75 3.2695-3.1328 7.707-4.7031 13.312-4.7031 1.875 0 3.6719 0.21094 5.3906 0.625 1.7266 0.41797 3.3906 1.043 4.9844 1.875v6.9531c-1.6055-1.0938-3.1875-1.8945-4.75-2.4062-1.5625-0.50781-3.2109-0.76562-4.9375-0.76562-3.0859 0-5.5156 0.99219-7.2969 2.9688-1.7734 1.9805-2.6562 4.7148-2.6562 8.2031 0 3.4609 0.88281 6.1836 2.6562 8.1719 1.7812 1.9805 4.2109 2.9688 7.2969 2.9688 1.7266 0 3.375-0.25391 4.9375-0.76562 1.5625-0.50781 3.1445-1.3125 4.75-2.4062z"/>
  </symbol>
  <symbol id="i" overflow="visible">
   <path d="m22.609-18.344c-0.71094-0.33203-1.4141-0.57812-2.1094-0.73438-0.69922-0.15625-1.4023-0.23438-2.1094-0.23438-2.0742 0-3.668 0.66797-4.7812 2-1.1172 1.3242-1.6719 3.2188-1.6719 5.6875v11.625h-8.0625v-25.219h8.0625v4.1406c1.0312-1.6445 2.2188-2.8477 3.5625-3.6094 1.3438-0.75781 2.9531-1.1406 4.8281-1.1406 0.26953 0 0.5625 0.015625 0.875 0.046875 0.32031 0.023438 0.78125 0.070312 1.375 0.14062z"/>
  </symbol>
  <symbol id="a" overflow="visible">
   <path d="m29.047-12.672v2.2969h-18.844c0.1875 1.8867 0.86328 3.3047 2.0312 4.25 1.1758 0.94922 2.8164 1.4219 4.9219 1.4219 1.6953 0 3.4297-0.25 5.2031-0.75 1.7812-0.50781 3.6094-1.2734 5.4844-2.2969v6.2188c-1.9062 0.71875-3.8125 1.2617-5.7188 1.625-1.9062 0.375-3.8125 0.5625-5.7188 0.5625-4.5625 0-8.1094-1.1562-10.641-3.4688-2.5234-2.3203-3.7812-5.5781-3.7812-9.7656 0-4.1133 1.2383-7.3477 3.7188-9.7031 2.4883-2.3633 5.9102-3.5469 10.266-3.5469 3.957 0 7.125 1.1953 9.5 3.5781 2.3828 2.3867 3.5781 5.5781 3.5781 9.5781zm-8.2812-2.6875c0-1.5312-0.44922-2.7656-1.3438-3.7031-0.89844-0.9375-2.0625-1.4062-3.5-1.4062-1.5625 0-2.8359 0.44531-3.8125 1.3281-0.96875 0.875-1.5781 2.1367-1.8281 3.7812z"/>
  </symbol>
  <symbol id="c" overflow="visible">
   <path d="m15.172-11.344c-1.6797 0-2.9453 0.28906-3.7969 0.85938-0.84375 0.5625-1.2656 1.4023-1.2656 2.5156 0 1.0234 0.33594 1.8242 1.0156 2.4062 0.6875 0.57422 1.6406 0.85938 2.8594 0.85938 1.5078 0 2.7812-0.53906 3.8125-1.625 1.0391-1.0938 1.5625-2.457 1.5625-4.0938v-0.92188zm12.312-3.0469v14.391h-8.125v-3.7344c-1.0859 1.5312-2.3047 2.6484-3.6562 3.3438-1.3438 0.69531-2.9844 1.0469-4.9219 1.0469-2.6172 0-4.7344-0.75781-6.3594-2.2812-1.625-1.5312-2.4375-3.5078-2.4375-5.9375 0-2.957 1.0156-5.125 3.0469-6.5 2.0312-1.3828 5.2227-2.0781 9.5781-2.0781h4.75v-0.625c0-1.2812-0.50781-2.2188-1.5156-2.8125-1-0.59375-2.5703-0.89062-4.7031-0.89062-1.7188 0-3.3242 0.17188-4.8125 0.51562-1.4922 0.34375-2.8711 0.86719-4.1406 1.5625v-6.1562c1.7266-0.41406 3.4609-0.73438 5.2031-0.95312 1.7383-0.21875 3.4766-0.32812 5.2188-0.32812 4.5508 0 7.832 0.90234 9.8438 2.7031 2.0195 1.793 3.0312 4.7031 3.0312 8.7344z"/>
  </symbol>
  <symbol id="b" overflow="visible">
   <path d="m12.672-32.375v7.1562h8.3125v5.7656h-8.3125v10.688c0 1.1797 0.23438 1.9766 0.70312 2.3906 0.46875 0.40625 1.3906 0.60938 2.7656 0.60938h4.1406v5.7656h-6.9062c-3.1875 0-5.4492-0.66016-6.7812-1.9844-1.3242-1.332-1.9844-3.5938-1.9844-6.7812v-10.688h-4v-5.7656h4v-7.1562z"/>
  </symbol>
  <symbol id="h" overflow="visible">
   <path d="m21.031-21.531v-13.5h8.1094v35.031h-8.1094v-3.6406c-1.1172 1.4805-2.3398 2.5703-3.6719 3.2656-1.3359 0.6875-2.8828 1.0312-4.6406 1.0312-3.1055 0-5.6562-1.2344-7.6562-3.7031-1.9922-2.4688-2.9844-5.6445-2.9844-9.5312 0-3.8945 0.99219-7.0781 2.9844-9.5469 2-2.4688 4.5508-3.7031 7.6562-3.7031 1.7383 0 3.2812 0.35156 4.625 1.0469 1.3438 0.69922 2.5703 1.7812 3.6875 3.25zm-5.3125 16.328c1.7188 0 3.0312-0.62891 3.9375-1.8906 0.91406-1.2578 1.375-3.0859 1.375-5.4844 0-2.4062-0.46094-4.2383-1.375-5.5-0.90625-1.2578-2.2188-1.8906-3.9375-1.8906s-3.0312 0.63281-3.9375 1.8906c-0.90625 1.2617-1.3594 3.0938-1.3594 5.5 0 2.3984 0.45312 4.2266 1.3594 5.4844 0.90625 1.2617 2.2188 1.8906 3.9375 1.8906z"/>
  </symbol>
  <symbol id="g" overflow="visible">
   <path d="m17.297-5.2031c1.7188 0 3.0312-0.62891 3.9375-1.8906 0.91406-1.2578 1.375-3.0859 1.375-5.4844 0-2.4062-0.46094-4.2383-1.375-5.5-0.90625-1.2578-2.2188-1.8906-3.9375-1.8906-1.7305 0-3.0586 0.63672-3.9844 1.9062-0.91797 1.2617-1.375 3.0898-1.375 5.4844 0 2.3867 0.45703 4.2148 1.375 5.4844 0.92578 1.2617 2.2539 1.8906 3.9844 1.8906zm-5.3594-16.328c1.1016-1.4688 2.332-2.5508 3.6875-3.25 1.3516-0.69531 2.9062-1.0469 4.6562-1.0469 3.1133 0 5.6641 1.2344 7.6562 3.7031 2 2.4688 3 5.6523 3 9.5469 0 3.8867-1 7.0625-3 9.5312-1.9922 2.4688-4.543 3.7031-7.6562 3.7031-1.75 0-3.3047-0.35156-4.6562-1.0469-1.3555-0.69531-2.5859-1.7812-3.6875-3.25v3.6406h-8.0625v-35.031h8.0625z"/>
  </symbol>
  <symbol id="f" overflow="visible">
   <path d="m0.5625-25.219h8.0625l6.7812 17.109 5.75-17.109h8.0625l-10.594 27.609c-1.0742 2.8008-2.3203 4.7578-3.7344 5.875-1.418 1.125-3.2891 1.6875-5.6094 1.6875h-4.6719v-5.2969h2.5312c1.3633 0 2.3516-0.21875 2.9688-0.65625 0.625-0.42969 1.1133-1.2031 1.4688-2.3281l0.21875-0.70312z"/>
  </symbol>
  <symbol id="e" overflow="visible">
   <path d="m4.2344-33.609h8.6719v30.344c0 4.1875-1.1406 7.3164-3.4219 9.3906-2.2734 2.0703-5.7109 3.1094-10.312 3.1094h-1.7656v-6.5625h1.3594c1.8008 0 3.1602-0.50781 4.0781-1.5156 0.92578-1 1.3906-2.4727 1.3906-4.4219z"/>
  </symbol>
  <symbol id="l" overflow="visible">
   <path d="m27.25-21.031c1.0078-1.5625 2.2188-2.75 3.625-3.5625 1.4062-0.82031 2.9453-1.2344 4.625-1.2344 2.8945 0 5.0977 0.89844 6.6094 2.6875 1.5195 1.7812 2.2812 4.375 2.2812 7.7812v15.359h-8.0938v-13.141c0.007813-0.19531 0.019531-0.39844 0.03125-0.60938 0.007813-0.21875 0.015625-0.51953 0.015625-0.90625 0-1.7891-0.26562-3.0859-0.79688-3.8906-0.52344-0.80078-1.3711-1.2031-2.5469-1.2031-1.5312 0-2.7148 0.63281-3.5469 1.8906-0.83594 1.2617-1.2617 3.0859-1.2812 5.4688v12.391h-8.1094v-13.141c0-2.8008-0.24219-4.6016-0.71875-5.4062-0.48047-0.80078-1.3398-1.2031-2.5781-1.2031-1.543 0-2.7344 0.63672-3.5781 1.9062-0.83594 1.2734-1.25 3.0859-1.25 5.4375v12.406h-8.1094v-25.219h8.1094v3.6875c0.98828-1.4141 2.125-2.4844 3.4062-3.2031 1.2812-0.72656 2.6953-1.0938 4.25-1.0938 1.7383 0 3.2734 0.42188 4.6094 1.2656 1.332 0.84375 2.3477 2.0234 3.0469 3.5312z"/>
  </symbol>
  <symbol id="k" overflow="visible">
   <path d="m23.578-24.422v6.125c-1.7305-0.72656-3.3984-1.2695-5-1.625-1.6055-0.36328-3.1211-0.54688-4.5469-0.54688-1.5312 0-2.6719 0.19531-3.4219 0.57812-0.74219 0.38672-1.1094 0.97656-1.1094 1.7656 0 0.64844 0.28125 1.1406 0.84375 1.4844s1.5703 0.60156 3.0312 0.76562l1.4219 0.20312c4.125 0.53125 6.8984 1.3984 8.3281 2.5938 1.4258 1.1992 2.1406 3.0781 2.1406 5.6406 0 2.6875-0.99609 4.7109-2.9844 6.0625-1.9805 1.3555-4.9336 2.0312-8.8594 2.0312-1.668 0-3.3906-0.13672-5.1719-0.40625-1.7812-0.25781-3.6094-0.64844-5.4844-1.1719v-6.125c1.6016 0.78125 3.25 1.3711 4.9375 1.7656 1.6953 0.38672 3.4141 0.57812 5.1562 0.57812 1.5703 0 2.7539-0.21875 3.5469-0.65625 0.80078-0.4375 1.2031-1.082 1.2031-1.9375 0-0.71875-0.27734-1.2539-0.82812-1.6094-0.54297-0.35156-1.6328-0.625-3.2656-0.8125l-1.4219-0.1875c-3.5938-0.44531-6.1094-1.2812-7.5469-2.5s-2.1562-3.0625-2.1562-5.5312c0-2.6758 0.91016-4.6602 2.7344-5.9531 1.832-1.2891 4.6406-1.9375 8.4219-1.9375 1.4883 0 3.0508 0.11719 4.6875 0.34375 1.6328 0.21875 3.4141 0.57422 5.3438 1.0625z"/>
  </symbol>
  <symbol id="j" overflow="visible">
   <path d="m15.875-20.062c-1.793 0-3.1562 0.64844-4.0938 1.9375-0.9375 1.2812-1.4062 3.1328-1.4062 5.5469 0 2.418 0.46875 4.2656 1.4062 5.5469s2.3008 1.9219 4.0938 1.9219c1.75 0 3.0859-0.64062 4.0156-1.9219 0.9375-1.2812 1.4062-3.1289 1.4062-5.5469 0-2.4141-0.46875-4.2656-1.4062-5.5469-0.92969-1.2891-2.2656-1.9375-4.0156-1.9375zm0-5.7656c4.332 0 7.7188 1.1719 10.156 3.5156 2.4453 2.3438 3.6719 5.5898 3.6719 9.7344 0 4.1367-1.2266 7.375-3.6719 9.7188-2.4375 2.3438-5.8242 3.5156-10.156 3.5156-4.3555 0-7.7617-1.1719-10.219-3.5156-2.4492-2.3438-3.6719-5.582-3.6719-9.7188 0-4.1445 1.2227-7.3906 3.6719-9.7344 2.457-2.3438 5.8633-3.5156 10.219-3.5156z"/>
  </symbol>
 </defs>
 <g>
  <path d="m380.66 18.832c18.887 33.93 0.10156 105.54 14.156 144.32 35.527 5.1836 87.891-4.9414 124.5 8.4844-5.2031 27.934-0.12109 41.418-2.0469 72.629-27.715-4.9609-85.105 2.5625-119.64-1.8906-7.582 105.2 1.3281 210.55-2.8125 299.95-18.668 4.5-52.07 2.2148-82.062 2.8125-11.379-88.281-6.2891-189.29-8.4922-294.27-30.555-6.125-81.418 6.6211-116.01-8.4922-1.5234-23.094-1.3633-42.082 2.832-65.086 28.656-11.344 83.328-7.0352 116.01-2.8203 2.6562-41.824-0.82812-92.336 0-149.98 15.258-13.836 49.863-7.418 73.574-5.6562zm-56.59 11.324c1.2461 46.215 7.6836 116.01 0 155.63-38.008 4.3711-79.547-4.8242-118.84 2.832 1.957 16.113-4.7969 23.5-2.832 39.613 40.102 8.1719 81.281 10.652 113.18 2.832 14.887 90.891 3.2461 210.26 14.148 297.11 17.191 4.5547 25.352-0.19531 45.266 2.832 4.1133-92.043-6.7227-205.11 8.4922-294.28 29.789-15.105 85.098 2.4453 119.04-7.1953 6.8984-13.863-0.8125-32.094 2.6289-49.398-44.648-1.1445-76.371 0.027343-127.33 0-11.641-48.66-7.2109-93.785-8.4922-152.8-16.258-0.25-32.656-0.62891-45.254 2.8203z" fill-rule="evenodd"/>
  <use x="157.429688" y="698.339844" xlink:href="#d"/>
  <use x="191.273438" y="698.339844" xlink:href="#i"/>
  <use x="214.015625" y="698.339844" xlink:href="#a"/>
  <use x="245.289062" y="698.339844" xlink:href="#c"/>
  <use x="276.40625" y="698.339844" xlink:href="#b"/>
  <use x="298.449219" y="698.339844" xlink:href="#a"/>
  <use x="329.726562" y="698.339844" xlink:href="#h"/>
  <use x="378.789062" y="698.339844" xlink:href="#g"/>
  <use x="411.796875" y="698.339844" xlink:href="#f"/>
  <use x="457.910156" y="698.339844" xlink:href="#e"/>
  <use x="475.066406" y="698.339844" xlink:href="#c"/>
  <use x="506.183594" y="698.339844" xlink:href="#l"/>
  <use x="554.234375" y="698.339844" xlink:href="#a"/>
  <use x="585.511719" y="698.339844" xlink:href="#k"/>
  <use x="629.011719" y="698.339844" xlink:href="#d"/>
  <use x="662.851562" y="698.339844" xlink:href="#j"/>
  <use x="694.535156" y="698.339844" xlink:href="#b"/>
 </g>
</svg>
