<?xml version="1.0" encoding="UTF-8"?>
<svg width="700" height="700" version="1.1" viewBox="0 0 700 700" xmlns="http://www.w3.org/2000/svg" xmlns:xlink="http://www.w3.org/1999/xlink">
 <defs>
  <symbol id="t" overflow="visible">
   <path d="m27.188-1.625c-1.4062 0.73047-2.8711 1.2773-4.3906 1.6406-1.5117 0.375-3.0938 0.5625-4.75 0.5625-4.9297 0-8.8359-1.375-11.719-4.125-2.875-2.7578-4.3125-6.5-4.3125-11.219 0-4.7266 1.4375-8.4688 4.3125-11.219 2.8828-2.75 6.7891-4.125 11.719-4.125 1.6562 0 3.2383 0.1875 4.75 0.5625 1.5195 0.36719 2.9844 0.90625 4.3906 1.625v6.125c-1.418-0.95703-2.8125-1.6602-4.1875-2.1094-1.375-0.45703-2.8203-0.6875-4.3281-0.6875-2.7305 0-4.875 0.875-6.4375 2.625-1.5547 1.7422-2.3281 4.1406-2.3281 7.2031 0 3.0547 0.77344 5.4531 2.3281 7.2031 1.5625 1.7422 3.707 2.6094 6.4375 2.6094 1.5078 0 2.9531-0.22266 4.3281-0.67188 1.375-0.44531 2.7695-1.1562 4.1875-2.125z"/>
  </symbol>
  <symbol id="d" overflow="visible">
   <path d="m19.891-16.141c-0.61719-0.28906-1.2305-0.50391-1.8438-0.64062-0.61719-0.14453-1.2344-0.21875-1.8594-0.21875-1.8242 0-3.2305 0.58594-4.2188 1.75-0.98047 1.168-1.4688 2.8438-1.4688 5.0312v10.219h-7.0938v-22.188h7.0938v3.6406c0.91406-1.4453 1.9609-2.5039 3.1406-3.1719 1.1875-0.66406 2.6016-1 4.25-1 0.23828 0 0.49219 0.011719 0.76562 0.03125 0.28125 0.011719 0.6875 0.054688 1.2188 0.125z"/>
  </symbol>
  <symbol id="b" overflow="visible">
   <path d="m25.562-11.156v2.0156h-16.594c0.17578 1.668 0.78125 2.918 1.8125 3.75 1.0312 0.83594 2.4688 1.25 4.3125 1.25 1.5 0 3.0312-0.21875 4.5938-0.65625 1.5625-0.44531 3.1719-1.1172 4.8281-2.0156v5.4688c-1.6797 0.63672-3.3594 1.1172-5.0469 1.4375-1.6797 0.32031-3.3555 0.48438-5.0312 0.48438-4.0117 0-7.1328-1.0195-9.3594-3.0625-2.2188-2.0391-3.3281-4.9062-3.3281-8.5938 0-3.6133 1.0859-6.457 3.2656-8.5312 2.1875-2.0703 5.1953-3.1094 9.0312-3.1094 3.4883 0 6.2812 1.0547 8.375 3.1562 2.0938 2.0938 3.1406 4.8984 3.1406 8.4062zm-7.2969-2.3594c0-1.3438-0.39844-2.4258-1.1875-3.25-0.78125-0.83203-1.8047-1.25-3.0625-1.25-1.375 0-2.4961 0.39062-3.3594 1.1719-0.85547 0.77344-1.3867 1.8828-1.5938 3.3281z"/>
  </symbol>
  <symbol id="l" overflow="visible">
   <path d="m13.359-9.9844c-1.4805 0-2.5938 0.25-3.3438 0.75s-1.125 1.2422-1.125 2.2188c0 0.89844 0.30078 1.6016 0.90625 2.1094 0.60156 0.51172 1.4375 0.76562 2.5 0.76562 1.3438 0 2.4688-0.47656 3.375-1.4375 0.91406-0.95703 1.375-2.1562 1.375-3.5938v-0.8125zm10.828-2.6719v12.656h-7.1406v-3.2812c-0.96094 1.3438-2.0312 2.3242-3.2188 2.9375s-2.6367 0.92188-4.3438 0.92188c-2.293 0-4.1562-0.67188-5.5938-2.0156-1.4297-1.3438-2.1406-3.082-2.1406-5.2188 0-2.6016 0.89062-4.5078 2.6719-5.7188 1.7891-1.2188 4.6016-1.8281 8.4375-1.8281h4.1875v-0.5625c0-1.1133-0.44531-1.9297-1.3281-2.4531-0.88672-0.53125-2.2656-0.79688-4.1406-0.79688-1.5234 0-2.9375 0.15625-4.25 0.46875-1.3047 0.30469-2.5156 0.75781-3.6406 1.3594v-5.4062c1.5195-0.375 3.0469-0.65625 4.5781-0.84375s3.0625-0.28125 4.5938-0.28125c4 0 6.8828 0.79297 8.6562 2.375 1.7812 1.5742 2.6719 4.1367 2.6719 7.6875z"/>
  </symbol>
  <symbol id="a" overflow="visible">
   <path d="m11.156-28.484v6.2969h7.3125v5.0625h-7.3125v9.4219c0 1.0312 0.20312 1.7305 0.60938 2.0938 0.41406 0.35547 1.2266 0.53125 2.4375 0.53125h3.6562v5.0781h-6.0938c-2.8047 0-4.7891-0.58203-5.9531-1.75-1.168-1.1641-1.75-3.1484-1.75-5.9531v-9.4219h-3.5312v-5.0625h3.5312v-6.2969z"/>
  </symbol>
  <symbol id="k" overflow="visible">
   <path d="m18.5-18.938v-11.891h7.1406v30.828h-7.1406v-3.2031c-0.96875 1.3047-2.043 2.2617-3.2188 2.875-1.1797 0.60156-2.543 0.90625-4.0938 0.90625-2.7305 0-4.9766-1.082-6.7344-3.25-1.75-2.1758-2.625-4.9766-2.625-8.4062 0-3.4141 0.875-6.207 2.625-8.375 1.7578-2.1758 4.0039-3.2656 6.7344-3.2656 1.5391 0 2.8984 0.30859 4.0781 0.92188 1.1875 0.60547 2.2656 1.5586 3.2344 2.8594zm-4.6719 14.359c1.5195 0 2.6758-0.55078 3.4688-1.6562 0.80078-1.1133 1.2031-2.7266 1.2031-4.8438 0-2.1133-0.40234-3.7227-1.2031-4.8281-0.79297-1.1133-1.9492-1.6719-3.4688-1.6719-1.5 0-2.6523 0.55859-3.4531 1.6719-0.80469 1.1055-1.2031 2.7148-1.2031 4.8281 0 2.1172 0.39844 3.7305 1.2031 4.8438 0.80078 1.1055 1.9531 1.6562 3.4531 1.6562z"/>
  </symbol>
  <symbol id="j" overflow="visible">
   <path d="m15.219-4.5781c1.5195 0 2.6758-0.55078 3.4688-1.6562 0.80078-1.1133 1.2031-2.7266 1.2031-4.8438 0-2.1133-0.40234-3.7227-1.2031-4.8281-0.79297-1.1133-1.9492-1.6719-3.4688-1.6719-1.5234 0-2.6875 0.5625-3.5 1.6875-0.8125 1.1172-1.2188 2.7188-1.2188 4.8125 0 2.1055 0.40625 3.7148 1.2188 4.8281 0.8125 1.1172 1.9766 1.6719 3.5 1.6719zm-4.7188-14.359c0.97656-1.3008 2.0625-2.2539 3.25-2.8594 1.1875-0.61328 2.5547-0.92188 4.1094-0.92188 2.7266 0 4.9688 1.0898 6.7188 3.2656 1.7578 2.168 2.6406 4.9609 2.6406 8.375 0 3.4297-0.88281 6.2305-2.6406 8.4062-1.75 2.168-3.9922 3.25-6.7188 3.25-1.5547 0-2.9219-0.30859-4.1094-0.92188s-2.2734-1.5664-3.25-2.8594v3.2031h-7.0938v-30.828h7.0938z"/>
  </symbol>
  <symbol id="i" overflow="visible">
   <path d="m0.5-22.188h7.0938l5.9531 15.047 5.0781-15.047h7.0938l-9.3281 24.281c-0.9375 2.4766-2.0312 4.207-3.2812 5.1875-1.25 0.97656-2.9023 1.4688-4.9531 1.4688h-4.0938v-4.6562h2.2188c1.1953 0 2.0703-0.19531 2.625-0.57812 0.55078-0.375 0.97656-1.0586 1.2812-2.0469l0.1875-0.60938z"/>
  </symbol>
  <symbol id="h" overflow="visible">
   <path d="m0.20312-29.578h7.6562l7.8594 21.828 7.8125-21.828h7.6719l-10.953 29.578h-9.0938z"/>
  </symbol>
  <symbol id="g" overflow="visible">
   <path d="m21.344-21.5v5.7812c-0.96875-0.65625-1.9375-1.1406-2.9062-1.4531-0.96875-0.32031-1.9766-0.48438-3.0156-0.48438-1.9922 0-3.5391 0.57812-4.6406 1.7344-1.0938 1.1562-1.6406 2.7734-1.6406 4.8438 0 2.0742 0.54688 3.6875 1.6406 4.8438 1.1016 1.1562 2.6484 1.7344 4.6406 1.7344 1.1016 0 2.1562-0.16016 3.1562-0.48438 1-0.33203 1.9219-0.82031 2.7656-1.4688v5.7969c-1.1172 0.40625-2.2461 0.71094-3.3906 0.92188-1.1367 0.20703-2.2812 0.3125-3.4375 0.3125-4 0-7.1328-1.0234-9.3906-3.0781-2.25-2.0625-3.375-4.9219-3.375-8.5781s1.125-6.5078 3.375-8.5625c2.2578-2.0508 5.3906-3.0781 9.3906-3.0781 1.1641 0 2.3125 0.10547 3.4375 0.3125 1.1328 0.19922 2.2656 0.5 3.3906 0.90625z"/>
  </symbol>
  <symbol id="c" overflow="visible">
   <path d="m13.969-17.656c-1.5742 0-2.7734 0.57031-3.5938 1.7031-0.82422 1.125-1.2344 2.75-1.2344 4.875s0.41016 3.7578 1.2344 4.8906c0.82031 1.125 2.0195 1.6875 3.5938 1.6875 1.5391 0 2.7227-0.5625 3.5469-1.6875 0.82031-1.1328 1.2344-2.7656 1.2344-4.8906s-0.41406-3.75-1.2344-4.875c-0.82422-1.1328-2.0078-1.7031-3.5469-1.7031zm0-5.0625c3.8125 0 6.7891 1.0312 8.9375 3.0938 2.1562 2.0547 3.2344 4.9023 3.2344 8.5469 0 3.6484-1.0781 6.5-3.2344 8.5625-2.1484 2.0625-5.125 3.0938-8.9375 3.0938-3.8359 0-6.8281-1.0312-8.9844-3.0938s-3.2344-4.9141-3.2344-8.5625c0-3.6445 1.0781-6.4922 3.2344-8.5469 2.1562-2.0625 5.1484-3.0938 8.9844-3.0938z"/>
  </symbol>
  <symbol id="s" overflow="visible">
   <path d="m20.75-21.5v5.3906c-1.5234-0.63281-2.9922-1.1094-4.4062-1.4219-1.418-0.32031-2.75-0.48438-4-0.48438-1.3438 0-2.3438 0.17188-3 0.51562-0.65625 0.33594-0.98438 0.85156-0.98438 1.5469 0 0.57422 0.24219 1.0117 0.73438 1.3125 0.5 0.30469 1.3906 0.52734 2.6719 0.67188l1.25 0.17188c3.6328 0.46875 6.0781 1.2344 7.3281 2.2969 1.2578 1.0547 1.8906 2.7109 1.8906 4.9688 0 2.3672-0.875 4.1406-2.625 5.3281-1.7422 1.1875-4.3398 1.7812-7.7969 1.7812-1.4688 0-2.9922-0.12109-4.5625-0.35938-1.5625-0.22656-3.168-0.57031-4.8125-1.0312v-5.3906c1.4141 0.6875 2.8633 1.2031 4.3438 1.5469 1.4883 0.34375 3 0.51562 4.5312 0.51562 1.3828 0 2.4258-0.19141 3.125-0.57812 0.70703-0.38281 1.0625-0.95312 1.0625-1.7031 0-0.63281-0.24609-1.1016-0.73438-1.4062-0.48047-0.3125-1.4375-0.55469-2.875-0.73438l-1.25-0.15625c-3.1562-0.39453-5.3711-1.125-6.6406-2.1875-1.2734-1.0703-1.9062-2.7031-1.9062-4.8906 0-2.3438 0.80469-4.082 2.4219-5.2188 1.6133-1.1328 4.082-1.7031 7.4062-1.7031 1.3125 0 2.6875 0.10156 4.125 0.29688 1.4375 0.19922 3.0039 0.50781 4.7031 0.92188z"/>
  </symbol>
  <symbol id="f" overflow="visible">
   <path d="m3.7188-29.578h12.672c3.7578 0 6.6445 0.83984 8.6562 2.5156 2.0195 1.668 3.0312 4.043 3.0312 7.125 0 3.1055-1.0117 5.4961-3.0312 7.1719-2.0117 1.668-4.8984 2.5-8.6562 2.5h-5.0312v10.266h-7.6406zm7.6406 5.5312v8.25h4.2188c1.4766 0 2.6172-0.35938 3.4219-1.0781 0.80078-0.71875 1.2031-1.7383 1.2031-3.0625 0-1.3125-0.40234-2.3203-1.2031-3.0312-0.80469-0.71875-1.9453-1.0781-3.4219-1.0781z"/>
  </symbol>
  <symbol id="r" overflow="visible">
   <path d="m3.4062-22.188h7.0938v22.188h-7.0938zm0-8.6406h7.0938v5.7812h-7.0938z"/>
  </symbol>
  <symbol id="e" overflow="visible">
   <path d="m25.719-13.516v13.516h-7.1406v-10.344c0-1.9141-0.042969-3.2344-0.125-3.9531-0.085937-0.72656-0.23047-1.2656-0.4375-1.6094-0.28125-0.46875-0.66406-0.82812-1.1406-1.0781-0.46875-0.25781-1.0117-0.39062-1.625-0.39062-1.4805 0-2.6406 0.57422-3.4844 1.7188-0.84375 1.1367-1.2656 2.7148-1.2656 4.7344v10.922h-7.0938v-22.188h7.0938v3.25c1.0703-1.3008 2.207-2.2539 3.4062-2.8594 1.207-0.61328 2.5352-0.92188 3.9844-0.92188 2.5625 0 4.5039 0.78906 5.8281 2.3594 1.332 1.5625 2 3.8438 2 6.8438z"/>
  </symbol>
  <symbol id="q" overflow="visible">
   <path d="m18.016-30.828v4.6562h-3.9219c-1.0117 0-1.7148 0.18359-2.1094 0.54688-0.39844 0.36719-0.59375 0.99609-0.59375 1.8906v1.5469h6.0625v5.0625h-6.0625v17.125h-7.0938v-17.125h-3.5312v-5.0625h3.5312v-1.5469c0-2.4141 0.67188-4.2031 2.0156-5.3594 1.3516-1.1562 3.4414-1.7344 6.2656-1.7344z"/>
  </symbol>
  <symbol id="p" overflow="visible">
   <path d="m23.969-18.5c0.90625-1.375 1.9727-2.4219 3.2031-3.1406 1.2383-0.71875 2.5977-1.0781 4.0781-1.0781 2.5391 0 4.4766 0.78906 5.8125 2.3594 1.3438 1.5625 2.0156 3.8438 2.0156 6.8438v13.516h-7.1406v-11.578c0.007812-0.16406 0.019531-0.34375 0.03125-0.53125 0.007812-0.1875 0.015625-0.45312 0.015625-0.79688 0-1.5625-0.23438-2.6953-0.70312-3.4062-0.46094-0.70703-1.2031-1.0625-2.2344-1.0625-1.3438 0-2.3867 0.55859-3.125 1.6719-0.73047 1.1055-1.1094 2.7109-1.1406 4.8125v10.891h-7.125v-11.578c0-2.4453-0.21484-4.0234-0.64062-4.7344-0.41797-0.70703-1.168-1.0625-2.25-1.0625-1.3672 0-2.418 0.55859-3.1562 1.6719-0.74219 1.1172-1.1094 2.7109-1.1094 4.7812v10.922h-7.125v-22.188h7.125v3.25c0.875-1.2578 1.875-2.2031 3-2.8281 1.1328-0.63281 2.3789-0.95312 3.7344-0.95312 1.5312 0 2.8828 0.37109 4.0625 1.1094 1.1758 0.74219 2.0664 1.7773 2.6719 3.1094z"/>
  </symbol>
  <symbol id="o" overflow="visible">
   <path d="m25.719-13.516v13.516h-7.1406v-10.297c0-1.9453-0.042969-3.2812-0.125-4-0.085937-0.72656-0.23047-1.2656-0.4375-1.6094-0.28125-0.46875-0.66406-0.82812-1.1406-1.0781-0.46875-0.25781-1.0117-0.39062-1.625-0.39062-1.4805 0-2.6406 0.57422-3.4844 1.7188-0.84375 1.1367-1.2656 2.7148-1.2656 4.7344v10.922h-7.0938v-30.828h7.0938v11.891c1.0703-1.3008 2.207-2.2539 3.4062-2.8594 1.207-0.61328 2.5352-0.92188 3.9844-0.92188 2.5625 0 4.5039 0.78906 5.8281 2.3594 1.332 1.5625 2 3.8438 2 6.8438z"/>
  </symbol>
  <symbol id="n" overflow="visible">
   <path d="m3.7188-29.578h8.5312l10.75 20.281v-20.281h7.2344v29.578h-8.5156l-10.766-20.297v20.297h-7.2344z"/>
  </symbol>
  <symbol id="m" overflow="visible">
   <path d="m3.4062-22.188h7.0938v21.797c0 2.9688-0.71484 5.2344-2.1406 6.7969-1.4297 1.5625-3.4961 2.3438-6.2031 2.3438h-3.5v-4.6562h1.2188c1.3516 0 2.2812-0.30469 2.7812-0.90625 0.5-0.60547 0.75-1.7969 0.75-3.5781zm0-8.6406h7.0938v5.7812h-7.0938z"/>
  </symbol>
 </defs>
 <g>
  <path d="m601.05 500.25h-76.02c23.332 0 42.312-17.137 42.312-38.195 0-10.93-5.1758-21.297-14.203-28.441-2.5195-1.9883-3.7266-5.207-3.1445-8.3711 0.58203-3.1523 2.8672-5.7227 5.9336-6.6797 30.555-9.543 51.891-39.582 51.891-73.07 0-42.066-32.719-76.301-72.926-76.301-4.7695 0-8.6406-3.8633-8.6562-8.6328-0.10156-33.723-24.109-62.148-57.082-67.574-0.42188-0.070313-0.80469-0.24609-1.2031-0.375-11.789-3.8203-25.785-5-36.434 1.2383-9.6367 5.6562-15.777 17.043-18.234 33.859-0.625 4.3125-4.3281 7.4062-8.5508 7.4062-0.41797 0-0.83984-0.027343-1.2656-0.09375-4.7344-0.69141-8.0078-5.0898-7.3125-9.8164 3.2656-22.344 12.266-37.941 26.742-46.371 16.602-9.6484 35.508-6.7109 44.891-4.2773 35.258-40.934-23.789-94.223-61.773-57.234-5.3516 5.1758-14.094 1.6836-14.668-5.5117-3.1953-39.547-34.449-69.375-72.703-69.375-40.211 0-72.926 34.172-72.926 76.172 0 4.8789 0.45312 9.6641 1.3398 14.203 0.57812 2.9609-0.42188 6.0039-2.6367 8.0391-2.2188 2.0469-5.3359 2.7656-8.2344 1.9531-63.23-18.043-114.64 52.633-82.773 111.05 18.012-0.92578 71.859 0.54297 96.344 48.07 2.1914 4.2539 0.51562 9.4688-3.7344 11.66-1.2695 0.66016-2.625 0.96484-3.957 0.96484-3.1406 0-6.168-1.707-7.707-4.6914-22.57-43.828-79.301-38.914-84.277-38.398-33.578 8.2148-57.906 40.527-57.906 77.035 0 28.77 14.816 55.25 38.664 69.098 2.5508 1.4805 4.168 4.1602 4.3047 7.1016 0.13281 2.9414-1.2383 5.75-3.6445 7.457-10.223 7.2383-16.086 18.145-16.086 29.91 0 21.059 18.98 38.195 42.312 38.195h-58.785c-4.7773 0-8.6562 3.8711-8.6562 8.6562s3.875 8.6562 8.6562 8.6562h502.11c4.7852 0 8.6562-3.8711 8.6562-8.6562 0.003907-4.7852-3.8672-8.6562-8.6523-8.6562zm-332.25 0-36.277-39.918-68.344 5.8789c-0.25391 0.027343-0.50781 0.035156-0.75391 0.035156-4.4453 0-8.2305-3.4062-8.6133-7.9141-0.41016-4.7695 3.1211-8.9609 7.8789-9.3672l57.594-4.957-52.996-75.129c-2.7578-3.9062-1.8203-9.3086 2.0898-12.062 3.8945-2.7383 9.3086-1.8242 12.062 2.0898l50.016 70.906 14.059-71.598c0.92187-4.6992 5.4648-7.7539 10.168-6.832 4.6914 0.92188 7.75 5.4688 6.8281 10.16l-17.121 87.195 46.816 51.512zm99.281-244.12c0 1.5312-0.40625 3.0352-1.1797 4.3633l-34.078 58.422 17.246 11.145c2.4648 1.5977 3.957 4.3281 3.957 7.2695v162.91h-17.312l-0.003906-158.2-60.07-38.82c-1.8047-1.168-3.1094-2.9688-3.6641-5.0469l-22.645-85.109c-1.2305-4.6172 1.5156-9.3594 6.1367-10.594 4.6406-1.207 9.3633 1.5234 10.594 6.1445l21.785 81.879 29.418 19.012 32.5-55.719v-67.938c0-4.7852 3.875-8.6562 8.6562-8.6562s8.6562 3.8711 8.6562 8.6562zm80.023 186-33.168 58.117h-19.938l37.102-65.008-28.699-102.6c-1.2891-4.6094 1.3984-9.3828 6.0039-10.668 4.5742-1.2578 9.3945 1.3945 10.668 6.0039l21.035 75.195 27.848-107.06c1.207-4.6328 5.9258-7.4219 10.559-6.1953 4.625 1.1992 7.3984 5.9258 6.1953 10.559l-29.387 112.97 56.996-45.398c3.7617-2.9922 9.1992-2.3672 12.164 1.3789 2.9766 3.7383 2.3594 9.1914-1.3789 12.164z"/>
  <use x="70" y="681.738281" xlink:href="#t"/>
  <use x="99.78125" y="681.738281" xlink:href="#d"/>
  <use x="119.792969" y="681.738281" xlink:href="#b"/>
  <use x="147.316406" y="681.738281" xlink:href="#l"/>
  <use x="174.699219" y="681.738281" xlink:href="#a"/>
  <use x="194.097656" y="681.738281" xlink:href="#b"/>
  <use x="221.617188" y="681.738281" xlink:href="#k"/>
  <use x="264.792969" y="681.738281" xlink:href="#j"/>
  <use x="293.84375" y="681.738281" xlink:href="#i"/>
  <use x="334.421875" y="681.738281" xlink:href="#h"/>
  <use x="365.828125" y="681.738281" xlink:href="#b"/>
  <use x="393.351562" y="681.738281" xlink:href="#g"/>
  <use x="417.40625" y="681.738281" xlink:href="#a"/>
  <use x="436.800781" y="681.738281" xlink:href="#c"/>
  <use x="464.679688" y="681.738281" xlink:href="#d"/>
  <use x="484.695312" y="681.738281" xlink:href="#s"/>
  <use x="522.976562" y="681.738281" xlink:href="#f"/>
  <use x="552.714844" y="681.738281" xlink:href="#c"/>
  <use x="580.59375" y="681.738281" xlink:href="#r"/>
  <use x="594.503906" y="681.738281" xlink:href="#e"/>
  <use x="623.394531" y="681.738281" xlink:href="#a"/>
  <use x="70" y="722.320312" xlink:href="#q"/>
  <use x="87.65625" y="722.320312" xlink:href="#d"/>
  <use x="107.667969" y="722.320312" xlink:href="#c"/>
  <use x="135.546875" y="722.320312" xlink:href="#p"/>
  <use x="191.957031" y="722.320312" xlink:href="#a"/>
  <use x="211.355469" y="722.320312" xlink:href="#o"/>
  <use x="240.246094" y="722.320312" xlink:href="#b"/>
  <use x="281.894531" y="722.320312" xlink:href="#n"/>
  <use x="315.855469" y="722.320312" xlink:href="#c"/>
  <use x="372.625" y="722.320312" xlink:href="#e"/>
  <use x="415.640625" y="722.320312" xlink:href="#f"/>
  <use x="445.382812" y="722.320312" xlink:href="#d"/>
  <use x="465.394531" y="722.320312" xlink:href="#c"/>
  <use x="493.273438" y="722.320312" xlink:href="#m"/>
  <use x="507.183594" y="722.320312" xlink:href="#b"/>
  <use x="534.703125" y="722.320312" xlink:href="#g"/>
  <use x="558.757812" y="722.320312" xlink:href="#a"/>
 </g>
</svg>
