<svg id="icons" xmlns="http://www.w3.org/2000/svg" xmlns:xlink="http://www.w3.org/1999/xlink" viewBox="0 0 64 64"><defs><style>.cls-1{fill:url(#linear-gradient);}.cls-2{fill:url(#linear-gradient-2);}.cls-3{fill:url(#linear-gradient-3);}.cls-4{fill:url(#linear-gradient-4);}.cls-5{fill:url(#linear-gradient-5);}.cls-6{fill:url(#linear-gradient-6);}.cls-7{fill:url(#linear-gradient-7);}.cls-8{fill:url(#linear-gradient-8);}.cls-9{fill:url(#linear-gradient-9);}.cls-10{fill:url(#linear-gradient-10);}.cls-11{fill:#ef1414;}</style><linearGradient id="linear-gradient" x1="1.05" y1="47.4" x2="62.17" y2="47.4" gradientUnits="userSpaceOnUse"><stop offset="0" stop-color="#9de6ff"/><stop offset="1" stop-color="#2a91ff"/></linearGradient><linearGradient id="linear-gradient-2" x1="3.37" y1="53.81" x2="27.67" y2="53.81" xlink:href="#linear-gradient"/><linearGradient id="linear-gradient-3" x1="35.89" y1="53.9" x2="59.97" y2="53.9" xlink:href="#linear-gradient"/><linearGradient id="linear-gradient-4" x1="20.75" y1="59.61" x2="42.54" y2="59.61" xlink:href="#linear-gradient"/><linearGradient id="linear-gradient-5" x1="31.06" y1="53.11" x2="32.74" y2="16.39" gradientUnits="userSpaceOnUse"><stop offset="0.26" stop-color="#ffa550"/><stop offset="0.74" stop-color="#ffe14b"/></linearGradient><linearGradient id="linear-gradient-6" x1="31.47" y1="44.27" x2="31.86" y2="17.5" xlink:href="#linear-gradient-5"/><linearGradient id="linear-gradient-7" x1="7.13" y1="43.92" x2="7.52" y2="17.15" xlink:href="#linear-gradient-5"/><linearGradient id="linear-gradient-8" x1="56.53" y1="44.64" x2="56.92" y2="17.86" xlink:href="#linear-gradient-5"/><linearGradient id="linear-gradient-9" x1="48.96" y1="44.53" x2="49.35" y2="17.75" xlink:href="#linear-gradient-5"/><linearGradient id="linear-gradient-10" x1="14.19" y1="44.02" x2="14.58" y2="17.25" xlink:href="#linear-gradient-5"/></defs><title>sunset</title><g id="sunset"><path class="cls-1" d="M62.17,47.4c-5.09.62-10.18,1-15.28,1.17-2.54.14-5.09.17-7.64.25l-7.64.08L24,48.82c-2.55-.08-5.09-.11-7.64-.25C11.24,48.35,6.14,48,1.05,47.4c5.09-.62,10.19-.95,15.28-1.17,2.55-.14,5.09-.16,7.64-.25l7.64-.08,7.64.09c2.55.08,5.1.11,7.64.25C52,46.46,57.08,46.78,62.17,47.4Z"/><path class="cls-2" d="M3.37,53.81a33.33,33.33,0,0,1,6.07-1.17,57,57,0,0,1,12.16,0,33.36,33.36,0,0,1,6.07,1.18A32.53,32.53,0,0,1,21.6,55a56.28,56.28,0,0,1-6.08.32A56.28,56.28,0,0,1,9.44,55,33.36,33.36,0,0,1,3.37,53.81Z"/><path class="cls-3" d="M60,53.9a33.71,33.71,0,0,1-6,1.18,56.79,56.79,0,0,1-12,0,32.18,32.18,0,0,1-6-1.18,33,33,0,0,1,6-1.18,55.92,55.92,0,0,1,12,0A32.82,32.82,0,0,1,60,53.9Z"/><path class="cls-4" d="M20.75,59.61a28,28,0,0,1,5.45-1.18,46.49,46.49,0,0,1,10.89,0,27.26,27.26,0,0,1,5.45,1.18,27.26,27.26,0,0,1-5.45,1.18,46.49,46.49,0,0,1-10.89,0A28,28,0,0,1,20.75,59.61Z"/><circle class="cls-5" cx="32" cy="32.51" r="12.79"/><path class="cls-6" d="M32,14.61a9.55,9.55,0,0,1-1.57-3.3A12.87,12.87,0,0,1,30,8a12.46,12.46,0,0,1,.43-3.3A9.55,9.55,0,0,1,32,1.42a9.55,9.55,0,0,1,1.57,3.3A12.46,12.46,0,0,1,34,8a12.87,12.87,0,0,1-.43,3.29A9.55,9.55,0,0,1,32,14.61Z"/><path class="cls-7" d="M13.68,32.57a9,9,0,0,1-3.19,1.57,12.08,12.08,0,0,1-6.39,0A9.1,9.1,0,0,1,.91,32.57,9.1,9.1,0,0,1,4.1,31a11.74,11.74,0,0,1,3.2-.43,12.07,12.07,0,0,1,3.19.43A9,9,0,0,1,13.68,32.57Z"/><path class="cls-8" d="M50.32,32.57A9,9,0,0,1,53.51,31a12.07,12.07,0,0,1,3.19-.43,11.74,11.74,0,0,1,3.2.43,9.1,9.1,0,0,1,3.19,1.57,9.1,9.1,0,0,1-3.19,1.57,12.08,12.08,0,0,1-6.39,0A9,9,0,0,1,50.32,32.57Z"/><path class="cls-9" d="M44.79,19.72a8.72,8.72,0,0,1,.91-3.66,10.23,10.23,0,0,1,1.92-2.67,10.08,10.08,0,0,1,2.68-1.91,8.68,8.68,0,0,1,3.69-.9,8.58,8.58,0,0,1-.91,3.67,10,10,0,0,1-4.6,4.56A8.87,8.87,0,0,1,44.79,19.72Z"/><path class="cls-10" d="M19.21,19.72a8.87,8.87,0,0,1-3.69-.91,10,10,0,0,1-4.6-4.56A8.58,8.58,0,0,1,10,10.58a8.68,8.68,0,0,1,3.69.9,10.08,10.08,0,0,1,2.68,1.91,10.23,10.23,0,0,1,1.92,2.67A8.72,8.72,0,0,1,19.21,19.72Z"/><path class="cls-11" d="M26.77,35.55l5.09,5.09,5.08-5.09V31.23l-3.68,3.7a26.23,26.23,0,0,0,0-3.76,21,21,0,0,0-.43-3,13.93,13.93,0,0,0-1-3,13.93,13.93,0,0,0-1,3,19.74,19.74,0,0,0-.43,3,24.86,24.86,0,0,0,0,3.76l-3.69-3.7Z"/></g></svg>