<?xml version="1.0" encoding="UTF-8"?>
<svg   viewBox="0 0 16 16" version="1.1" xmlns="http://www.w3.org/2000/svg" xmlns:xlink="http://www.w3.org/1999/xlink">
    <!-- Generator: Sketch 53.2 (72643) - https://sketchapp.com -->
    <title>icon/normal/finish</title>
    <desc>Created with Sketch.</desc>
    <g id="icon/normal/finish" stroke="none" stroke-width="1" fill="none" fill-rule="evenodd">
        <path d="M1.3248,3.59883852 L4.30875862,15.1084527 C4.39778974,15.4597416 4.18512011,15.8168142 3.83387862,15.9057979 C3.77973937,15.9194986 3.72550529,15.9260883 3.67207714,15.9260883 C3.37886233,15.9260883 3.11172159,15.7281624 3.03639122,15.4308705 L0.0525274074,3.92135111 C-0.0365037037,3.56996741 0.176071111,3.21298963 0.527502222,3.12391111 C0.878791111,3.03502222 1.2358163,3.24754963 1.3248,3.59883852 Z M15.5960889,8.36356741 C15.6717985,8.64289185 15.4725926,8.80431407 15.1625481,8.76619852 C11.2329481,8.48156444 8.65265778,12.3948089 4.7232,12.1101748 C4.41301333,12.071917 4.12842667,11.9151881 4.01536,11.5013689 C3.31083852,8.92292741 2.61731556,6.34135704 1.91838815,3.76135111 C1.84267852,3.48207407 2.04197926,3.32060444 2.35207111,3.35881481 C6.2816237,3.64344889 8.86181926,-0.269795556 12.7913244,0.0147911111 C13.2905244,0.0447525926 13.4233126,0.34432 13.4990696,0.623597037 C14.1979496,3.20365037 14.8973511,5.78351407 15.5960889,8.36356741 Z M12.5124267,0.988776296 C11.6858311,1.01594074 10.9562785,1.18286222 10.1833007,1.47247407 C10.3760119,2.18424889 10.5690548,2.89607111 10.7617659,3.60789333 C11.5348385,3.31818667 12.2643911,3.15140741 13.0909867,3.12419556 C12.8982281,2.41237333 12.7051852,1.70059852 12.5124267,0.988776296 Z M4.41505185,8.96933926 C5.28388741,8.94411852 6.05477926,8.7558163 6.86127407,8.4370963 C6.64215704,7.62832593 6.42308741,6.81946074 6.20392296,6.01069037 C6.99221333,5.65835852 7.73584593,5.23633778 8.48056889,4.8006637 C8.28776296,4.08884148 8.09472,3.37701926 7.90196148,2.66524444 C7.15728593,3.10096593 6.41370074,3.52284444 5.62536296,3.8752237 C5.81812148,4.58704593 6.01097481,5.29886815 6.20392296,6.01069037 C5.39747556,6.32945778 4.62648889,6.51776 3.75760593,6.54293333 C3.97672296,7.3517037 4.19569778,8.1606163 4.41505185,8.96933926 Z M7.44836741,10.6038044 C8.23115852,10.25408 8.9695763,9.83585185 9.70884741,9.40316444 C9.51319704,8.68086519 9.31749926,7.95861333 9.12180148,7.23631407 C8.38243556,7.66895407 7.64411259,8.08727704 6.86127407,8.43700148 C7.05697185,9.15930074 7.25262222,9.8816 7.44836741,10.6038044 Z M9.13777778,7.22702222 C9.88245333,6.79224889 10.6268444,6.3762963 11.4191644,6.03429926 C11.2000948,5.22552889 10.9809778,4.41671111 10.7617659,3.60794074 C9.9693037,3.94984296 9.22514963,4.36584296 8.48056889,4.80056889 C8.69963852,5.60938667 8.91880296,6.41820444 9.13777778,7.22702222 Z M12.0199111,8.19560296 C12.7883378,7.90897778 13.51424,7.74423704 14.3354785,7.71740444 C14.1397333,6.9952 13.9440356,6.27294815 13.7482904,5.55064889 C12.9270993,5.57743407 12.2012919,5.74222222 11.4327704,6.0288 C11.6285156,6.75109926 11.8241659,7.47339852 12.0199111,8.19560296 Z" id="icon"  fill-rule="nonzero"></path>
    </g>
</svg>
