<?xml version="1.0" encoding="UTF-8"?>
<svg   viewBox="0 0 16 16" version="1.1" xmlns="http://www.w3.org/2000/svg" xmlns:xlink="http://www.w3.org/1999/xlink">
    <!-- Generator: Sketch 53.2 (72643) - https://sketchapp.com -->
    <title>icon/normal/sight</title>
    <desc>Created with Sketch.</desc>
    <g id="icon/normal/sight" stroke="none" stroke-width="1" fill="none" fill-rule="evenodd">
        <path d="M15.5594074,10.3466667 L13.8121481,3.18251852 C13.5398519,2.06696296 12.5851852,1.25333333 11.4906667,1.20414815 C10.0672593,1.13748148 8.88888889,2.27881481 8.88888889,3.6882963 L8.88888889,4.94666667 L7.11111111,4.94666667 L7.11111111,3.6882963 C7.11111111,2.27881481 5.92888889,1.13659259 4.50933333,1.20414815 C3.41451852,1.25333333 2.45985185,2.06696296 2.18785185,3.18251852 L0.440296296,10.3472593 C0.160296296,10.8551111 0,11.4379259 0,12.0577778 C0,14.0183704 1.59496296,15.6133333 3.55555556,15.6133333 C5.45718519,15.6133333 7.01066667,14.1114074 7.10222222,12.232 C7.10459259,12.2171852 7.11111111,12.2038519 7.11111111,12.1884444 L7.11111111,12.0580741 L7.11111111,9.39140741 L8.88888889,9.39140741 L8.88888889,12.0580741 L8.88888889,12.1884444 C8.88888889,12.2038519 8.89540741,12.2171852 8.89777778,12.232 C8.98933333,14.1114074 10.5428148,15.6133333 12.4444444,15.6133333 C14.405037,15.6133333 16,14.0183704 16,12.0577778 C16,11.4376296 15.8397037,10.8548148 15.5594074,10.3466667 Z M3.55555556,14.0576296 C2.45275556,14.0576296 1.55555556,13.1604745 1.55555556,12.0577296 C1.55555556,11.6935478 1.65495556,11.3527649 1.82595556,11.0581796 C1.86275556,10.9947828 1.90295556,10.9341858 1.94595556,10.8757887 C1.95655556,10.8613894 1.96695556,10.8469902 1.97795556,10.8329909 C2.07855556,10.7037973 2.19335556,10.5880031 2.31995556,10.4882081 C2.33135556,10.4792086 2.34315556,10.471009 2.35455556,10.4622094 C2.41055556,10.4200115 2.46875556,10.3806135 2.52875556,10.3446153 C2.53955556,10.3380156 2.55015556,10.331216 2.56115556,10.3248163 C2.70255556,10.2434203 2.85395556,10.1796235 3.01195556,10.1346258 C3.02795556,10.130026 3.04415556,10.1262262 3.06035556,10.1222264 C3.12315556,10.1060272 3.18695556,10.0932278 3.25135556,10.0832283 C3.27135556,10.0800285 3.29115556,10.0764287 3.31135556,10.0740288 C3.39195556,10.0640293 3.47335556,10.0576296 3.55555556,10.0576296 C4.65835556,10.0576296 5.55555556,10.9547848 5.55555556,12.0575296 C5.55555556,12.0735288 5.55355556,12.0887281 5.55315556,12.1045273 L5.55115556,12.1375256 C5.55115556,12.1379256 5.55135556,12.1383256 5.55135556,12.1387256 C5.50835556,13.2038723 4.63095556,14.0576296 3.55555556,14.0576296 Z M12.4444444,14.0577778 C11.3766444,14.0577778 10.5044444,13.2161778 10.4496444,12.1617778 C10.4500444,12.1561778 10.4528444,12.1513778 10.4528444,12.1457778 C10.4528444,12.1281778 10.4504444,12.1113778 10.4462444,12.0949778 C10.4460444,12.0825778 10.4444444,12.0703778 10.4444444,12.0577778 C10.4444444,10.9549778 11.3416444,10.0577778 12.4444444,10.0577778 C12.5266444,10.0577778 12.6080444,10.0641778 12.6886444,10.0743778 C12.7088444,10.0767778 12.7286444,10.0803778 12.7486444,10.0835778 C12.8132444,10.0935778 12.8770444,10.1063778 12.9398444,10.1225778 C12.9558444,10.1267778 12.9720444,10.1303778 12.9878444,10.1349778 C13.1458444,10.1799778 13.2974444,10.2437778 13.4390444,10.3253778 C13.4496444,10.3315778 13.4598444,10.3381778 13.4704444,10.3443778 C13.5310444,10.3807778 13.5896444,10.4203778 13.6462444,10.4631778 C13.6572444,10.4715778 13.6686444,10.4793778 13.6794444,10.4879778 C13.8066444,10.5879778 13.9218444,10.7041778 14.0226444,10.8339778 C14.0330444,10.8473778 14.0432444,10.8611778 14.0534444,10.8749778 C14.0970444,10.9339778 14.1378444,10.9955778 14.1750444,11.0599778 C14.3452444,11.3539778 14.4444444,11.6941778 14.4444444,12.0577778 C14.4444444,13.1605778 13.5472444,14.0577778 12.4444444,14.0577778 Z" id="icon"  fill-rule="nonzero"></path>
    </g>
</svg>
