<?xml version="1.0" encoding="UTF-8"?>
<svg   viewBox="0 0 16 16" version="1.1" xmlns="http://www.w3.org/2000/svg" xmlns:xlink="http://www.w3.org/1999/xlink">
    <!-- Generator: Sketch 53.2 (72643) - https://sketchapp.com -->
    <title>icon/normal/start-finish</title>
    <desc>Created with Sketch.</desc>
    <g id="icon/normal/start-finish" stroke="none" stroke-width="1" fill="none" fill-rule="evenodd">
        <path d="M8,16 C3.581722,16 0,12.418278 0,8 C0,3.581722 3.581722,0 8,0 C12.418278,0 16,3.581722 16,8 C16,12.418278 12.418278,16 8,16 Z M8,14 C11.3137085,14 14,11.3137085 14,8 C14,4.6862915 11.3137085,2 8,2 C4.6862915,2 2,4.6862915 2,8 C2,11.3137085 4.6862915,14 8,14 Z M7,12.8999819 C6.26112238,12.7499976 5.58141064,12.4370807 5,12.0003662 L5,11 L3.99963381,11 C3.56291933,10.4185894 3.25000236,9.73887762 3.10001812,9 L5,9 L5,7 L3.10001812,7 C3.25000236,6.26112238 3.56291933,5.58141064 3.99963381,5 L5,5 L5,3.99963381 C5.58141064,3.56291933 6.26112238,3.25000236 7,3.10001812 L7,5 L9,5 L9,3.10001812 C9.73887762,3.25000236 10.4185894,3.56291933 11,3.99963381 L11,5 L12.0003662,5 C12.4370807,5.58141064 12.7499976,6.26112238 12.8999819,7 L11,7 L11,9 L12.8999819,9 C12.7499976,9.73887762 12.4370807,10.4185894 12.0003662,11 L11,11 L11,12.0003662 C10.4185894,12.4370807 9.73887762,12.7499976 9,12.8999819 L9,11 L7,11 L7,12.8999819 Z M5,5 L5,7 L7,7 L7,5 L5,5 Z M9,5 L9,7 L11,7 L11,5 L9,5 Z M7,7 L7,9 L9,9 L9,7 L7,7 Z M5,9 L5,11 L7,11 L7,9 L5,9 Z M9,9 L9,11 L11,11 L11,9 L9,9 Z" id="icon"  fill-rule="nonzero"></path>
    </g>
</svg>
