<?xml version="1.0" encoding="UTF-8"?><svg xmlns="http://www.w3.org/2000/svg" viewBox="0 0 64 64"><g id="a"/><g id="b"/><g id="c"/><g id="d"/><g id="e"/><g id="f"/><g id="g"/><g id="h"/><g id="i"/><g id="j"/><g id="k"/><g id="l"/><g id="m"/><g id="n"/><g id="o"/><g id="p"/><g id="q"/><g id="r"/><g id="s"/><g id="t"/><g id="u"/><g id="v"/><g id="w"/><g id="x"><g><path d="M25,62h-.717c.42-.713,1.157-1.103,1.164-1.105,.393-.196,.611-.626,.539-1.059l-.833-5c-.091-.545-.604-.917-1.15-.822-.545,.091-.913,.605-.822,1.15l.726,4.353c-.758,.563-1.906,1.71-1.906,3.482,0,.553,.447,1,1,1h2c.553,0,1-.447,1-1s-.447-1-1-1Z"/><path d="M45.053,50.106c-.494,.247-.694,.848-.447,1.342l2.5,5c.176,.351,.528,.553,.896,.553,.15,0,.303-.034,.446-.105,.494-.247,.694-.848,.447-1.342l-2.5-5c-.247-.494-.848-.692-1.342-.447Z"/><path d="M46.922,58.844c-.215-.511-.801-.746-1.31-.534-.976,.41-2.612,1.565-2.612,4.69,0,.553,.447,1,1,1s1-.447,1-1c0-1.502,.467-2.46,1.388-2.847,.509-.214,.748-.801,.534-1.31Z"/><path d="M24.456,36.111c1.746,0,3.047-.5,3.877-1.495,1.597-1.913,.656-4.81,.615-4.933-.159-.479-.647-.766-1.145-.664-4.591,.918-5.804,4.313-5.804,5.98,0,.498,.366,.92,.858,.99,.568,.081,1.102,.121,1.598,.121Zm2.78-4.876c.073,.688,.026,1.546-.442,2.104-.549,.652-1.599,.797-2.621,.768,.287-.88,1.048-2.188,3.063-2.871Z"/><rect x="15" y="36" width="2" height="2"/><path d="M13,44.999c-.553,0-1,.447-1,1,0,3.196-1.928,4.964-3.779,5.924,1.752-2.833,1.779-5.759,1.779-5.924,0-.551-.446-.997-.997-.999h-.003c-.55,0-.997,.446-1,.996,0,.045-.066,4.553-3.6,7.203-.363,.271-.497,.754-.327,1.175,.153,.381,.523,.625,.926,.625,.042,0,.083-.003,.125-.008,3.07-.384,8.876-2.757,8.876-8.992,0-.553-.447-1-1-1Z"/><path d="M25.946,50.943c-.673,.036-1.325,.057-1.946,.057-2.469,0-5.421-.393-8.775-1.167-.535-.123-1.074,.212-1.199,.75-.124,.538,.212,1.075,.75,1.199,3.501,.808,6.605,1.218,9.225,1.218,.656,0,1.344-.021,2.054-.059,.552-.03,.975-.501,.945-1.053-.03-.552-.512-.981-1.053-.945Z"/><path d="M44.974,48.759c-.125-.538-.666-.87-1.2-.747-2.405,.561-4.747,1.056-6.959,1.474-.543,.103-.899,.625-.797,1.168,.09,.479,.51,.814,.981,.814,.062,0,.124-.006,.187-.018,2.239-.422,4.608-.924,7.041-1.491,.538-.125,.873-.663,.747-1.2Z"/><path d="M34,46c-.553,0-1,.447-1,1v15h-3.717c.42-.713,1.157-1.103,1.164-1.105,.393-.196,.611-.626,.539-1.059l-2-12c-.091-.545-.605-.917-1.15-.822-.545,.091-.913,.606-.822,1.15l1.892,11.353c-.757,.563-1.905,1.71-1.905,3.482,0,.553,.447,1,1,1h6c.553,0,1-.447,1-1v-16c0-.553-.447-1-1-1Z"/><path d="M40,31c.553,0,1-.447,1-1s-.447-1-1-1h-2c-.553,0-1,.447-1,1s.447,1,1,1h2Z"/><path d="M48,31h2c.553,0,1-.447,1-1s-.447-1-1-1h-2c-.553,0-1,.447-1,1s.447,1,1,1Z"/><path d="M46,33h-2c-.553,0-1,.447-1,1s.447,1,1,1h2c.553,0,1-.447,1-1s-.447-1-1-1Z"/><path d="M62.122,48.222l.869-6.08c.032-.228-.015-.459-.133-.656l-2.865-4.776c.002-.239,.008-.463,.008-.71,0-3.011-1.082-5.481-3.216-7.344-5.244-4.579-15.371-4.089-18.784-3.771v-.885c0-.321-.154-.623-.415-.812-.262-.188-.598-.24-.901-.137l-4.684,1.561v-1.612c0-.347-.18-.668-.475-.851-.295-.184-.663-.198-.973-.044l-5.841,2.921,.236-.71c.118-.353,.03-.74-.226-1.008-.257-.269-.645-.369-.997-.271-5.897,1.685-11.646,8.584-14.733,12.29-.744,.892-1.331,1.597-1.699,1.965-1.461,1.461-5.18,2.464-6.489,2.727-.281,.057-.524,.23-.669,.479-.144,.248-.174,.546-.083,.818l2,6c.091,.274,.297,.495,.563,.606,.048,.021,1.193,.496,3.049,1.158,.521,.183,1.092-.087,1.278-.606,.185-.521-.087-1.093-.606-1.278-1.162-.413-2.048-.757-2.533-.95l-1.508-4.523c1.672-.435,4.816-1.42,6.412-3.016,.433-.432,1.045-1.168,1.821-2.099,2.6-3.119,7.172-8.606,11.85-10.904l-.326,.979c-.128,.384-.013,.807,.293,1.072,.306,.265,.741,.317,1.103,.139l6.553-3.276v1.382c0,.321,.154,.623,.415,.812,.262,.187,.596,.239,.901,.137l4.684-1.561v.612c0,.289,.125,.563,.343,.753,.217,.189,.506,.274,.792,.238,.127-.019,12.791-1.671,18.336,3.173,1.702,1.486,2.529,3.395,2.529,5.836,0,11.895-2.562,14.168-2.555,14.168-.352,.234-.518,.665-.415,1.074l.938,3.758-1.75,7h-5.134c.345-1.848,1.636-1.991,1.915-2,.431,0,.813-.275,.948-.684l1-3c.084-.252,.064-.526-.054-.764l-3.786-7.572c.362-.642,1.415-1.98,3.892-1.98,.553,0,1-.447,1-1s-.447-1-1-1c-4.667,0-5.898,3.533-5.948,3.684-.084,.252-.064,.526,.054,.764l3.814,7.63-.671,2.013c-1.409,.323-3.249,1.594-3.249,4.91,0,.553,.447,1,1,1h7c.459,0,.858-.312,.97-.758l2-8c.04-.159,.04-.325,0-.484l-.862-3.451c.864-1.041,2.323-3.837,2.761-10.916l1.091,1.819-.849,5.94c-1.219,.382-2.111,1.507-2.111,2.85,0,1.278,1.522,3.62,2.177,4.568,.188,.271,.495,.432,.823,.432s.636-.161,.823-.432c.654-.948,2.177-3.29,2.177-4.568,0-1.257-.779-2.332-1.878-2.778Zm-1.122,4.924c-.576-.971-.992-1.842-1-2.146,0-.552,.448-1,1-1s1,.448,1,.999c-.009,.307-.425,1.177-1,2.147Z"/></g></g><g id="y"/><g id="a`"/><g id="aa"/><g id="ab"/><g id="ac"/><g id="ad"/></svg>