<?xml version="1.0" encoding="UTF-8"?>
<svg width="700" height="700" version="1.1" viewBox="0 0 700 700" xmlns="http://www.w3.org/2000/svg" xmlns:xlink="http://www.w3.org/1999/xlink">
 <defs>
  <symbol id="h" overflow="visible">
   <path d="m24.25-1.4531c-1.25 0.64844-2.5547 1.1367-3.9062 1.4688-1.3555 0.33203-2.7734 0.5-4.25 0.5-4.3984 0-7.8828-1.2266-10.453-3.6875-2.5625-2.457-3.8438-5.7852-3.8438-9.9844 0-4.2188 1.2812-7.5547 3.8438-10.016 2.5703-2.457 6.0547-3.6875 10.453-3.6875 1.4766 0 2.8945 0.16797 4.25 0.5 1.3516 0.32422 2.6562 0.8125 3.9062 1.4688v5.4531c-1.2617-0.85156-2.5078-1.4766-3.7344-1.875-1.2305-0.40625-2.5234-0.60938-3.875-0.60938-2.4297 0-4.3398 0.77734-5.7344 2.3281-1.3867 1.5547-2.0781 3.6992-2.0781 6.4375 0 2.7188 0.69141 4.8555 2.0781 6.4062 1.3945 1.5547 3.3047 2.3281 5.7344 2.3281 1.3516 0 2.6445-0.19531 3.875-0.59375 1.2266-0.40625 2.4727-1.0352 3.7344-1.8906z"/>
  </symbol>
  <symbol id="d" overflow="visible">
   <path d="m17.734-14.406c-0.55469-0.25781-1.1055-0.44531-1.6562-0.5625-0.54297-0.125-1.0898-0.1875-1.6406-0.1875-1.625 0-2.8828 0.52344-3.7656 1.5625-0.875 1.043-1.3125 2.5312-1.3125 4.4688v9.125h-6.3125v-19.797h6.3125v3.2656c0.8125-1.3008 1.7422-2.25 2.7969-2.8438 1.0625-0.59375 2.3281-0.89062 3.7969-0.89062 0.21875 0 0.44531 0.011719 0.6875 0.03125 0.25 0.011719 0.60938 0.046875 1.0781 0.10938z"/>
  </symbol>
  <symbol id="a" overflow="visible">
   <path d="m22.797-9.9531v1.8125h-14.797c0.15625 1.4805 0.69141 2.5938 1.6094 3.3438 0.91406 0.74219 2.2031 1.1094 3.8594 1.1094 1.332 0 2.6953-0.19531 4.0938-0.59375 1.3945-0.39453 2.8281-0.99219 4.2969-1.7969v4.875c-1.5 0.5625-3 0.99219-4.5 1.2812-1.4922 0.28906-2.9844 0.4375-4.4844 0.4375-3.5742 0-6.3555-0.91016-8.3438-2.7344-1.9805-1.8203-2.9688-4.375-2.9688-7.6562 0-3.2266 0.97266-5.7656 2.9219-7.6094 1.9453-1.8516 4.6289-2.7812 8.0469-2.7812 3.1016 0 5.5859 0.9375 7.4531 2.8125 1.875 1.875 2.8125 4.375 2.8125 7.5zm-6.5-2.0938c0-1.207-0.35547-2.1758-1.0625-2.9062-0.69922-0.73828-1.6094-1.1094-2.7344-1.1094-1.2305 0-2.2305 0.34375-3 1.0312-0.76172 0.6875-1.2344 1.6836-1.4219 2.9844z"/>
  </symbol>
  <symbol id="e" overflow="visible">
   <path d="m11.906-8.9062c-1.3125 0-2.3047 0.22656-2.9688 0.67188-0.66797 0.44922-1 1.1094-1 1.9844 0 0.80469 0.26562 1.4336 0.79688 1.8906 0.53906 0.44922 1.2852 0.67188 2.2344 0.67188 1.1875 0 2.1875-0.42578 3-1.2812 0.82031-0.85156 1.2344-1.9258 1.2344-3.2188v-0.71875zm9.6719-2.3906v11.297h-6.375v-2.9375c-0.85547 1.2109-1.8125 2.0898-2.875 2.6406-1.0547 0.53906-2.3398 0.8125-3.8594 0.8125-2.0547 0-3.7188-0.59766-5-1.7969-1.2734-1.1953-1.9062-2.75-1.9062-4.6562 0-2.3203 0.79688-4.0234 2.3906-5.1094 1.5938-1.082 4.0977-1.625 7.5156-1.625h3.7344v-0.48438c0-1.0078-0.39844-1.7422-1.1875-2.2031-0.79297-0.46875-2.0273-0.70312-3.7031-0.70312-1.3555 0-2.6172 0.13672-3.7812 0.40625-1.168 0.27344-2.25 0.67969-3.25 1.2188v-4.8281c1.3516-0.32031 2.7109-0.56641 4.0781-0.73438 1.375-0.17578 2.7422-0.26562 4.1094-0.26562 3.5703 0 6.1484 0.70312 7.7344 2.1094 1.582 1.4062 2.375 3.6953 2.375 6.8594z"/>
  </symbol>
  <symbol id="b" overflow="visible">
   <path d="m9.9531-25.406v5.6094h6.5156v4.5312h-6.5156v8.3906c0 0.91797 0.17969 1.5391 0.54688 1.8594 0.36328 0.32422 1.0859 0.48438 2.1719 0.48438h3.25v4.5312h-5.4219c-2.5 0-4.2734-0.51953-5.3125-1.5625-1.043-1.0391-1.5625-2.8125-1.5625-5.3125v-8.3906h-3.1406v-4.5312h3.1406v-5.6094z"/>
  </symbol>
  <symbol id="l" overflow="visible">
   <path d="m16.5-16.891v-10.609h6.3594v27.5h-6.3594v-2.8594c-0.86719 1.168-1.8242 2.0234-2.875 2.5625-1.0547 0.53906-2.2656 0.8125-3.6406 0.8125-2.4375 0-4.4453-0.96875-6.0156-2.9062-1.5625-1.9375-2.3438-4.4297-2.3438-7.4844 0-3.0508 0.78125-5.5469 2.3438-7.4844 1.5703-1.9375 3.5781-2.9062 6.0156-2.9062 1.3633 0 2.5703 0.27734 3.625 0.82812 1.0625 0.54297 2.0234 1.3906 2.8906 2.5469zm-4.1719 12.812c1.3516 0 2.3828-0.49219 3.0938-1.4844 0.71875-0.98828 1.0781-2.4258 1.0781-4.3125 0-1.8828-0.35938-3.3203-1.0781-4.3125-0.71094-0.98828-1.7422-1.4844-3.0938-1.4844-1.3438 0-2.3711 0.49609-3.0781 1.4844-0.71094 0.99219-1.0625 2.4297-1.0625 4.3125 0 1.8867 0.35156 3.3242 1.0625 4.3125 0.70703 0.99219 1.7344 1.4844 3.0781 1.4844z"/>
  </symbol>
  <symbol id="k" overflow="visible">
   <path d="m13.578-4.0781c1.3516 0 2.3828-0.49219 3.0938-1.4844 0.70703-0.98828 1.0625-2.4258 1.0625-4.3125 0-1.8828-0.35547-3.3203-1.0625-4.3125-0.71094-0.98828-1.7422-1.4844-3.0938-1.4844-1.3672 0-2.4141 0.5-3.1406 1.5-0.71875 0.99219-1.0781 2.4219-1.0781 4.2969s0.35938 3.3125 1.0781 4.3125c0.72656 0.99219 1.7734 1.4844 3.1406 1.4844zm-4.2188-12.812c0.875-1.1562 1.8438-2.0039 2.9062-2.5469 1.0625-0.55078 2.2812-0.82812 3.6562-0.82812 2.4375 0 4.4375 0.96875 6 2.9062 1.5703 1.9375 2.3594 4.4336 2.3594 7.4844 0 3.0547-0.78906 5.5469-2.3594 7.4844-1.5625 1.9375-3.5625 2.9062-6 2.9062-1.375 0-2.5938-0.27344-3.6562-0.8125-1.0625-0.55078-2.0312-1.4062-2.9062-2.5625v2.8594h-6.3125v-27.5h6.3125z"/>
  </symbol>
  <symbol id="j" overflow="visible">
   <path d="m0.4375-19.797h6.3281l5.3281 13.438 4.5156-13.438h6.3281l-8.3281 21.672c-0.83594 2.1953-1.8086 3.7344-2.9219 4.6094-1.1172 0.88281-2.5859 1.3281-4.4062 1.3281h-3.6562v-4.1562h1.9688c1.0703 0 1.8516-0.17188 2.3438-0.51562 0.48828-0.34375 0.86719-0.95312 1.1406-1.8281l0.1875-0.54688z"/>
  </symbol>
  <symbol id="i" overflow="visible">
   <path d="m3.3281-26.375h6.7969v23.812c0 3.2891-0.89844 5.75-2.6875 7.375-1.7812 1.625-4.4805 2.4375-8.0938 2.4375h-1.375v-5.1406h1.0625c1.4141 0 2.4844-0.39844 3.2031-1.1875 0.72656-0.79297 1.0938-1.9531 1.0938-3.4844z"/>
  </symbol>
  <symbol id="g" overflow="visible">
   <path d="m21.375-16.5c0.80078-1.2266 1.7539-2.1602 2.8594-2.7969 1.1016-0.64453 2.3125-0.96875 3.625-0.96875 2.2812 0 4.0156 0.70312 5.2031 2.1094 1.1875 1.3984 1.7812 3.4336 1.7812 6.1094v12.047h-6.3594v-10.312c0.007813-0.15625 0.015625-0.31641 0.015625-0.48438 0.007812-0.16406 0.015625-0.39844 0.015625-0.70312 0-1.4062-0.21094-2.4219-0.625-3.0469-0.40625-0.63281-1.0703-0.95312-1.9844-0.95312-1.2109 0-2.1406 0.49609-2.7969 1.4844-0.64844 0.99219-0.98047 2.4219-1 4.2969v9.7188h-6.3594v-10.312c0-2.1953-0.19531-3.6094-0.57812-4.2344-0.375-0.63281-1.0469-0.95312-2.0156-0.95312-1.2109 0-2.1484 0.5-2.8125 1.5-0.65625 0.99219-0.98438 2.4141-0.98438 4.2656v9.7344h-6.3594v-19.797h6.3594v2.9062c0.78125-1.125 1.6719-1.9688 2.6719-2.5312 1.0078-0.5625 2.125-0.84375 3.3438-0.84375 1.3633 0 2.5664 0.33594 3.6094 1 1.0508 0.65625 1.8477 1.5781 2.3906 2.7656z"/>
  </symbol>
  <symbol id="u" overflow="visible">
   <path d="m18.5-19.172v4.8125c-1.3555-0.57031-2.6641-1-3.9219-1.2812-1.2617-0.28125-2.4492-0.42188-3.5625-0.42188-1.2109 0-2.1055 0.15234-2.6875 0.45312-0.58594 0.30469-0.875 0.76562-0.875 1.3906 0 0.5 0.21875 0.88672 0.65625 1.1562 0.44531 0.27344 1.2422 0.47656 2.3906 0.60938l1.1094 0.15625c3.2383 0.41797 5.4141 1.0938 6.5312 2.0312 1.125 0.9375 1.6875 2.418 1.6875 4.4375 0 2.1055-0.78125 3.6875-2.3438 4.75-1.5547 1.0625-3.8711 1.5938-6.9531 1.5938-1.3125 0-2.668-0.10547-4.0625-0.3125-1.3984-0.20703-2.8281-0.51562-4.2969-0.92188v-4.8125c1.2578 0.61719 2.5508 1.0781 3.875 1.3906 1.332 0.30469 2.6797 0.45312 4.0469 0.45312 1.2266 0 2.1562-0.17188 2.7812-0.51562s0.9375-0.84766 0.9375-1.5156c0-0.57031-0.21484-0.99219-0.64062-1.2656-0.42969-0.28125-1.2812-0.5-2.5625-0.65625l-1.125-0.14062c-2.8125-0.35156-4.7891-1.0039-5.9219-1.9531-1.125-0.95703-1.6875-2.4062-1.6875-4.3438 0-2.1016 0.71875-3.6602 2.1562-4.6719 1.4375-1.0078 3.6406-1.5156 6.6094-1.5156 1.1641 0 2.3906 0.089844 3.6719 0.26562 1.2812 0.17969 2.6758 0.45312 4.1875 0.82812z"/>
  </symbol>
  <symbol id="c" overflow="visible">
   <path d="m12.453-15.75c-1.3984 0-2.4648 0.50781-3.2031 1.5156-0.74219 1.0117-1.1094 2.4648-1.1094 4.3594 0 1.8984 0.36719 3.3516 1.1094 4.3594 0.73828 1 1.8047 1.5 3.2031 1.5 1.3828 0 2.4414-0.5 3.1719-1.5 0.72656-1.0078 1.0938-2.4609 1.0938-4.3594 0-1.8945-0.36719-3.3477-1.0938-4.3594-0.73047-1.0078-1.7891-1.5156-3.1719-1.5156zm0-4.5156c3.4062 0 6.0664 0.92188 7.9844 2.7656 1.9141 1.8359 2.875 4.375 2.875 7.625s-0.96094 5.7969-2.875 7.6406c-1.918 1.8359-4.5781 2.75-7.9844 2.75-3.418 0-6.0898-0.91406-8.0156-2.75-1.918-1.8438-2.875-4.3906-2.875-7.6406s0.95703-5.7891 2.875-7.625c1.9258-1.8438 4.5977-2.7656 8.0156-2.7656z"/>
  </symbol>
  <symbol id="f" overflow="visible">
   <path d="m3.0469-27.5h6.3125v27.5h-6.3125z"/>
  </symbol>
  <symbol id="t" overflow="visible">
   <path d="m16.062-27.5v4.1562h-3.5c-0.89844 0-1.5234 0.16406-1.875 0.48438-0.35547 0.32422-0.53125 0.88672-0.53125 1.6875v1.375h5.4062v4.5312h-5.4062v15.266h-6.3281v-15.266h-3.1406v-4.5312h3.1406v-1.375c0-2.1562 0.59766-3.75 1.7969-4.7812 1.207-1.0312 3.0703-1.5469 5.5938-1.5469z"/>
  </symbol>
  <symbol id="s" overflow="visible">
   <path d="m22.938-12.047v12.047h-6.3594v-9.1875c0-1.7266-0.042969-2.9141-0.125-3.5625-0.074219-0.65625-0.20312-1.1328-0.39062-1.4375-0.25-0.41406-0.58984-0.73828-1.0156-0.96875-0.41797-0.22656-0.89844-0.34375-1.4375-0.34375-1.3242 0-2.3672 0.51172-3.125 1.5312-0.75 1.0234-1.125 2.4336-1.125 4.2344v9.7344h-6.3125v-27.5h6.3125v10.609c0.95703-1.1562 1.9727-2.0039 3.0469-2.5469 1.0703-0.55078 2.2539-0.82812 3.5469-0.82812 2.2891 0 4.0234 0.70312 5.2031 2.1094 1.1875 1.3984 1.7812 3.4336 1.7812 6.1094z"/>
  </symbol>
  <symbol id="r" overflow="visible">
   <path d="m3.3281-26.375h7.5938l9.5938 18.094v-18.094h6.4531v26.375h-7.6094l-9.5938-18.094v18.094h-6.4375z"/>
  </symbol>
  <symbol id="q" overflow="visible">
   <path d="m2.8281-7.7031v-12.094h6.3594v1.9844c0 1.0742-0.007812 2.4219-0.015625 4.0469-0.011719 1.6172-0.015625 2.6953-0.015625 3.2344 0 1.5938 0.039062 2.7422 0.125 3.4375 0.082031 0.69922 0.22266 1.2109 0.42188 1.5312 0.25781 0.40625 0.59766 0.72656 1.0156 0.95312 0.41406 0.21875 0.89453 0.32812 1.4375 0.32812 1.3203 0 2.3594-0.50391 3.1094-1.5156 0.75-1.0078 1.125-2.4141 1.125-4.2188v-9.7812h6.3281v19.797h-6.3281v-2.8594c-0.94922 1.1562-1.9609 2.0117-3.0312 2.5625-1.0625 0.53906-2.2344 0.8125-3.5156 0.8125-2.2812 0-4.0234-0.69531-5.2188-2.0938-1.1992-1.4062-1.7969-3.4453-1.7969-6.125z"/>
  </symbol>
  <symbol id="p" overflow="visible">
   <path d="m22.938-12.047v12.047h-6.3594v-9.2188c0-1.707-0.042969-2.8828-0.125-3.5312-0.074219-0.65625-0.20312-1.1328-0.39062-1.4375-0.25-0.41406-0.58984-0.73828-1.0156-0.96875-0.41797-0.22656-0.89844-0.34375-1.4375-0.34375-1.3242 0-2.3672 0.51172-3.125 1.5312-0.75 1.0234-1.125 2.4336-1.125 4.2344v9.7344h-6.3125v-19.797h6.3125v2.9062c0.95703-1.1562 1.9727-2.0039 3.0469-2.5469 1.0703-0.55078 2.2539-0.82812 3.5469-0.82812 2.2891 0 4.0234 0.70312 5.2031 2.1094 1.1875 1.3984 1.7812 3.4336 1.7812 6.1094z"/>
  </symbol>
  <symbol id="o" overflow="visible">
   <path d="m3.3281-26.375h11.281c3.3633 0 5.9414 0.74609 7.7344 2.2344 1.7891 1.4922 2.6875 3.6094 2.6875 6.3594 0 2.7734-0.89844 4.9023-2.6875 6.3906-1.793 1.4922-4.3711 2.2344-7.7344 2.2344h-4.4844v9.1562h-6.7969zm6.7969 4.9219v7.375h3.7656c1.3203 0 2.3359-0.32031 3.0469-0.96875 0.71875-0.64453 1.0781-1.5547 1.0781-2.7344 0-1.1758-0.35938-2.082-1.0781-2.7188-0.71094-0.63281-1.7266-0.95312-3.0469-0.95312z"/>
  </symbol>
  <symbol id="n" overflow="visible">
   <path d="m3.0469-19.797h6.3125v19.438c0 2.6562-0.63672 4.6797-1.9062 6.0781-1.2734 1.3945-3.1172 2.0938-5.5312 2.0938h-3.125v-4.1562h1.0938c1.207 0 2.0352-0.27344 2.4844-0.8125 0.44531-0.54297 0.67188-1.6094 0.67188-3.2031zm0-7.7031h6.3125v5.1719h-6.3125z"/>
  </symbol>
  <symbol id="m" overflow="visible">
   <path d="m19.031-19.172v5.1562c-0.86719-0.58203-1.7305-1.0156-2.5938-1.2969-0.86719-0.28906-1.7617-0.4375-2.6875-0.4375-1.7734 0-3.1523 0.51562-4.1406 1.5469-0.98047 1.0312-1.4688 2.4766-1.4688 4.3281 0 1.8438 0.48828 3.2812 1.4688 4.3125 0.98828 1.0312 2.3672 1.5469 4.1406 1.5469 0.98828 0 1.9258-0.14453 2.8125-0.4375 0.89453-0.28906 1.7188-0.72656 2.4688-1.3125v5.1875c-0.99219 0.36719-1.9961 0.63281-3.0156 0.8125-1.0234 0.1875-2.043 0.28125-3.0625 0.28125-3.5742 0-6.3672-0.91406-8.375-2.75-2.0117-1.832-3.0156-4.3789-3.0156-7.6406 0-3.2578 1.0039-5.8047 3.0156-7.6406 2.0078-1.832 4.8008-2.75 8.375-2.75 1.0312 0 2.0508 0.09375 3.0625 0.28125 1.0078 0.17969 2.0156 0.44922 3.0156 0.8125z"/>
  </symbol>
 </defs>
 <g>
  <path d="m315.62 549.11c-15.781-1.3047-31.633-2.9688-47.488-3.9805-21.715-1.375-44.883-3.7656-61.387-17.375-20.414-16.867-43.434-15.203-66.164-18.461-30.258-4.3438-60.082-9.4844-87.734-23.598v0.003906c-11.43-5.4492-20.23-15.215-24.469-27.148-8.1797-21.715-18.242-43.434-26.711-65.148-2.0234-5.4414-2.0234-11.426 0-16.867 20.379-42.07 45.988-81.402 76.227-117.05 11.219-13.754 28.52-16.07 42.273-24.758 5.6406-3.0078 10.402-7.4219 13.828-12.812 3.3008-7.9883 8.7305-14.914 15.703-20.02 6.9688-5.1055 15.211-8.1992 23.82-8.9375 9.6992-1.5195 17.918-7.957 21.719-17.012 30.109-51.047 66.113-98.375 107.28-141.01 8.3086-8.2383 19.742-12.531 31.418-11.801 35.543-1.8086 71.012-3.9102 106.63-4.9961 21.715-0.57812 41.262 5.9375 51.324 29.535 13.898 32.43 28.305 64.57 41.77 97.145v0.003907c2.7734 9.8398 10.531 17.488 20.41 20.121 9.7578 3.0781 19.02 7.5391 27.508 13.25 13.188 8.7695 21.285 23.402 21.719 39.234 1.4766 12.207 8.3945 23.09 18.82 29.605 21.746 16.625 40.105 37.266 54.074 60.809 12.887 20.848 15.551 46.438 7.2383 69.492-1.3359 2.9961-1.7539 6.3242-1.1992 9.5586 0.55078 3.2344 2.0547 6.2305 4.3125 8.6094 3.5 5.2266 6.668 10.668 9.4844 16.289 3.4023 4.793 4.6562 10.785 3.4648 16.539-1.1953 5.7539-4.7344 10.75-9.7617 13.793-1.043 0.8125-2.1289 1.5625-3.2578 2.2422-9.2656 5.7188-15.781 12.668-12.668 24.758 0.5 2.6562 0.5 5.3789 0 8.0352-3.2578 24.324-5.6445 28.375-26.059 33.152-28.305 6.5156-57.188 10.57-85.926 14.477-26.422 3.9102-52.988 6.7305-79.629 9.6992-21.066 2.3906-42.129 4.707-63.195 6.3711-33.445 2.5352-66.816 4.4883-100.26 6.7305-0.43359 0-0.86719 0.94141-1.2305 1.375zm34.816-509.18v-0.94141 0.003907c-5.3242 0.35937-10.672 0.35937-15.996 0-4.5664-0.59766-9.2109 0.023437-13.457 1.8047-4.2461 1.7812-7.9453 4.6523-10.723 8.3281-39.012 40.828-73.301 85.918-102.21 134.43-6.7891 13.18-19.781 22.035-34.531 23.527-9.5547 1.1602-18.75 4.4141-22.297 14.477-7.7461 21.355-27.219 27.219-44.953 36.195-7.168 3.2227-13.617 7.8516-18.965 13.609-26.312 31.32-49.312 65.281-68.625 101.34-4.9023 7.8711-5.4453 17.695-1.4453 26.059 7.8906 18.82 14.477 38.223 22.73 56.969l-0.003907 0.003906c2.2539 5.918 6.3047 10.98 11.582 14.477 11.551 7.0117 24.062 12.305 37.137 15.707 30.477 6.082 61.387 9.6992 92.078 14.477 6.8047 1.0859 15.852 1.1602 19.617 5.4297 10.234 10.91 23.91 17.965 38.73 19.98 24.141 4.5039 48.625 6.9258 73.184 7.2383 29.824 0 59.793-3.0391 89.617-5.2852 20.484-1.5195 40.973-3.7656 61.387-6.082 33.227-3.6914 66.598-7.2383 99.68-11.801 27.363-3.9102 54.582-9.3398 81.801-14.477l-0.003906 0.003906c3.5078-0.23828 6.75-1.9453 8.9297-4.7031 2.1797-2.7578 3.0898-6.3086 2.5078-9.7734v-9.9883c-1.8086-15.203-1.0117-28.957 15.926-36.195 1.1602-0.43359 1.8828-1.9531 3.0391-2.5352 8.7578-4.1992 7.2383-9.4102 2.9688-16.648-6.2969-10.062-15.852-19.254-11.871-33.152 1.375-4.707 2.2422-9.6289 3.4023-14.477v-0.003907c4.3594-14.355 3.3008-29.805-2.9688-43.434-9.3438-19.926-22.961-37.547-39.883-51.613-21.715-17.082-40.395-34.238-41.84-64.207l-0.003906-0.003906c-1.5703-6.4492-5.6641-12.004-11.363-15.418-8.832-6.3125-18.605-11.199-28.957-14.477-9.3711-1.8789-17.145-8.3984-20.629-17.301-14.477-34.168-28.957-68.191-43.434-102.21-9.4102-21.715-20.703-25.699-43.797-24.758-29.316 0.4375-57.402 3.332-86.359 5.4297z"/>
  <path d="m342.4 121.01c10.641 0.011719 21.266 0.83203 31.781 2.4609 17.957 3.9648 35.617 9.1914 52.844 15.637 28.086 11.004 40.898 33.082 40.754 62.906v19.688c32.43 9.1211 63.559 19.039 76.805 55.379-9.6992 3.0391-15.492 3.4023-20.992-5.2109-13.898-21.211-35.617-29.102-59.215-32.07-10.352-1.7383-12.598-7.2383-12.598-15.273v-23.961c1.7383-26.348-11.363-43.434-35.109-51.395-21.211-7.2383-43.434-12.09-64.715-18.242-3.7148-1.2539-7.3398-2.7539-10.855-4.4883z"/>
  <path d="m247.86 279.68c-5.3086 1.8438-10.832 3.0117-16.434 3.4727-19.906-0.94141-39.379-1.0117-54.941 14.477-8.3242 8.1797-17.082 15.852-25.047 24.324-9.8438 10.352-18.965 21.715-28.52 31.922v0.003906c-2.2344 2.0781-4.6602 3.9453-7.2422 5.5742l-2.8945-1.8086v-0.003907c1.2188-5.0273 3.043-9.8867 5.4297-14.477 17.805-25.723 39.461-48.551 64.207-67.684 7.707-4.3789 16.34-6.8594 25.191-7.2383 7.8164-1.2305 15.996 0 23.961-0.57812 7.9648-0.58203 12.598 1.0859 16.289 12.016z"/>
  <path d="m423.48 429.6c-1.1602-6.7031-3.2539-13.211-6.2266-19.328-13.465-20.484-30.836-35.254-57.332-35.543-2.9688 0-5.9375-3.6211-8.9023-5.5742 2.3906-2.2422 4.4141-5.6445 7.2383-6.5156 15.637-4.5586 29.461 1.7383 42.059 9.7734 19.109 12.16 34.891 27.582 38.223 51.613h-0.003906c0.65625 4.1875 0.23438 8.4727-1.2305 12.449-1.6641 3.8359-6.6602 9.9883-8.1797 9.4844-2.7305-0.65234-5.0625-2.4141-6.4375-4.8594-1.375-2.4453-1.6641-5.3555-0.80078-8.0273 0.070313-0.98828 0.070313-1.9805 0-2.9688z"/>
  <use y="657.699219" xlink:href="#h"/>
  <use x="26.5625" y="657.699219" xlink:href="#d"/>
  <use x="44.414062" y="657.699219" xlink:href="#a"/>
  <use x="68.960938" y="657.699219" xlink:href="#e"/>
  <use x="93.382812" y="657.699219" xlink:href="#b"/>
  <use x="110.6875" y="657.699219" xlink:href="#a"/>
  <use x="135.234375" y="657.699219" xlink:href="#l"/>
  <use x="173.742188" y="657.699219" xlink:href="#k"/>
  <use x="199.652344" y="657.699219" xlink:href="#j"/>
  <use x="235.847656" y="657.699219" xlink:href="#i"/>
  <use x="249.3125" y="657.699219" xlink:href="#e"/>
  <use x="273.738281" y="657.699219" xlink:href="#g"/>
  <use x="311.453125" y="657.699219" xlink:href="#a"/>
  <use x="336" y="657.699219" xlink:href="#u"/>
  <use x="370.144531" y="657.699219" xlink:href="#h"/>
  <use x="396.707031" y="657.699219" xlink:href="#c"/>
  <use x="421.574219" y="657.699219" xlink:href="#b"/>
  <use x="438.875" y="657.699219" xlink:href="#b"/>
  <use x="456.175781" y="657.699219" xlink:href="#a"/>
  <use x="480.726562" y="657.699219" xlink:href="#f"/>
  <use x="493.132813" y="657.699219" xlink:href="#f"/>
  <use y="693.890625" xlink:href="#t"/>
  <use x="15.746094" y="693.890625" xlink:href="#d"/>
  <use x="33.597656" y="693.890625" xlink:href="#c"/>
  <use x="58.460938" y="693.890625" xlink:href="#g"/>
  <use x="108.777344" y="693.890625" xlink:href="#b"/>
  <use x="126.078125" y="693.890625" xlink:href="#s"/>
  <use x="151.847656" y="693.890625" xlink:href="#a"/>
  <use x="188.996094" y="693.890625" xlink:href="#r"/>
  <use x="219.289062" y="693.890625" xlink:href="#c"/>
  <use x="244.152344" y="693.890625" xlink:href="#q"/>
  <use x="269.921875" y="693.890625" xlink:href="#p"/>
  <use x="308.289063" y="693.890625" xlink:href="#o"/>
  <use x="334.816406" y="693.890625" xlink:href="#d"/>
  <use x="352.664062" y="693.890625" xlink:href="#c"/>
  <use x="377.53125" y="693.890625" xlink:href="#n"/>
  <use x="389.9375" y="693.890625" xlink:href="#a"/>
  <use x="414.484375" y="693.890625" xlink:href="#m"/>
  <use x="435.941406" y="693.890625" xlink:href="#b"/>
 </g>
</svg>
