<?xml version="1.0" encoding="UTF-8"?>
<svg width="700" height="700" version="1.1" viewBox="0 0 700 700" xmlns="http://www.w3.org/2000/svg" xmlns:xlink="http://www.w3.org/1999/xlink">
 <defs>
  <symbol id="u" overflow="visible">
   <path d="m14.656-0.875c-0.76172 0.39844-1.5547 0.69531-2.375 0.89062-0.8125 0.19531-1.6641 0.29688-2.5469 0.29688-2.6562 0-4.7617-0.73828-6.3125-2.2188-1.5547-1.4883-2.3281-3.5039-2.3281-6.0469 0-2.5508 0.77344-4.5664 2.3281-6.0469 1.5508-1.4883 3.6562-2.2344 6.3125-2.2344 0.88281 0 1.7344 0.10156 2.5469 0.29688 0.82031 0.19922 1.6133 0.49609 2.375 0.89062v3.2969c-0.76172-0.51953-1.5117-0.89844-2.25-1.1406-0.74219-0.23828-1.5234-0.35938-2.3438-0.35938-1.4688 0-2.625 0.46875-3.4688 1.4062-0.83594 0.9375-1.25 2.2344-1.25 3.8906 0 1.6484 0.41406 2.9375 1.25 3.875 0.84375 0.9375 2 1.4062 3.4688 1.4062 0.82031 0 1.6016-0.11719 2.3438-0.35938 0.73828-0.23828 1.4883-0.61719 2.25-1.1406z"/>
  </symbol>
  <symbol id="d" overflow="visible">
   <path d="m10.719-8.7031c-0.33594-0.15625-0.66797-0.26953-1-0.34375-0.32422-0.082031-0.65625-0.125-1-0.125-0.98047 0-1.7344 0.32031-2.2656 0.95312-0.53125 0.625-0.79688 1.5273-0.79688 2.7031v5.5156h-3.8125v-11.969h3.8125v1.9688c0.48828-0.78125 1.0508-1.3477 1.6875-1.7031 0.64453-0.36328 1.4102-0.54688 2.2969-0.54688 0.13281 0 0.27344 0.007812 0.42188 0.015625 0.14453 0.011719 0.36328 0.03125 0.65625 0.0625z"/>
  </symbol>
  <symbol id="a" overflow="visible">
   <path d="m13.781-6.0156v1.0938h-8.9375c0.09375 0.89844 0.41406 1.5703 0.96875 2.0156 0.55078 0.44922 1.3281 0.67188 2.3281 0.67188 0.80078 0 1.625-0.11719 2.4688-0.35938 0.84375-0.23828 1.7109-0.59766 2.6094-1.0781v2.9531c-0.90625 0.33594-1.8125 0.58984-2.7188 0.76562s-1.8125 0.26562-2.7188 0.26562c-2.1562 0-3.8398-0.54688-5.0469-1.6406-1.1992-1.1016-1.7969-2.6484-1.7969-4.6406 0-1.9453 0.58594-3.4766 1.7656-4.5938 1.1758-1.125 2.8008-1.6875 4.875-1.6875 1.875 0 3.375 0.57031 4.5 1.7031 1.1328 1.125 1.7031 2.6367 1.7031 4.5312zm-3.9375-1.2656c0-0.72656-0.21484-1.3125-0.64062-1.75-0.41797-0.44531-0.96875-0.67188-1.6562-0.67188-0.74219 0-1.3438 0.21094-1.8125 0.625-0.46094 0.41797-0.74609 1.0156-0.85938 1.7969z"/>
  </symbol>
  <symbol id="g" overflow="visible">
   <path d="m7.2031-5.3906c-0.80469 0-1.4062 0.13672-1.8125 0.40625-0.39844 0.27344-0.59375 0.67188-0.59375 1.2031 0 0.48047 0.16016 0.85938 0.48438 1.1406 0.32031 0.27344 0.77344 0.40625 1.3594 0.40625 0.71875 0 1.3203-0.25391 1.8125-0.76562 0.48828-0.51953 0.73438-1.1719 0.73438-1.9531v-0.4375zm5.8438-1.4375v6.8281h-3.8594v-1.7656c-0.51172 0.71875-1.0898 1.2461-1.7344 1.5781-0.63672 0.33203-1.418 0.5-2.3438 0.5-1.2422 0-2.2461-0.35938-3.0156-1.0781-0.77344-0.72656-1.1562-1.6719-1.1562-2.8281 0-1.3945 0.47656-2.4219 1.4375-3.0781 0.96875-0.65625 2.4883-0.98438 4.5625-0.98438h2.25v-0.29688c0-0.60156-0.24219-1.0469-0.71875-1.3281-0.48047-0.28125-1.2266-0.42188-2.2344-0.42188-0.8125 0-1.5742 0.085937-2.2812 0.25-0.71094 0.15625-1.3672 0.40234-1.9688 0.73438v-2.9219c0.82031-0.19531 1.6445-0.34766 2.4688-0.45312 0.82031-0.10156 1.6484-0.15625 2.4844-0.15625 2.1562 0 3.7109 0.42969 4.6719 1.2812 0.95703 0.84375 1.4375 2.2266 1.4375 4.1406z"/>
  </symbol>
  <symbol id="b" overflow="visible">
   <path d="m6.0156-15.359v3.3906h3.9375v2.7344h-3.9375v5.0781c0 0.55469 0.10938 0.92969 0.32812 1.125 0.21875 0.19922 0.65625 0.29688 1.3125 0.29688h1.9688v2.7344h-3.2812c-1.5117 0-2.5859-0.3125-3.2188-0.9375-0.625-0.63281-0.9375-1.707-0.9375-3.2188v-5.0781h-1.9062v-2.7344h1.9062v-3.3906z"/>
  </symbol>
  <symbol id="i" overflow="visible">
   <path d="m9.9688-10.219v-6.4062h3.8594v16.625h-3.8594v-1.7344c-0.52344 0.71094-1.1016 1.2305-1.7344 1.5625-0.63672 0.32031-1.3711 0.48438-2.2031 0.48438-1.4688 0-2.6797-0.58203-3.625-1.75-0.94922-1.1758-1.4219-2.6875-1.4219-4.5312s0.47266-3.3477 1.4219-4.5156c0.94531-1.1758 2.1562-1.7656 3.625-1.7656 0.83203 0 1.5664 0.16797 2.2031 0.5 0.63281 0.32422 1.2109 0.83594 1.7344 1.5312zm-2.5156 7.75c0.82031 0 1.4453-0.29688 1.875-0.89062 0.42578-0.60156 0.64062-1.4727 0.64062-2.6094 0-1.1445-0.21484-2.0156-0.64062-2.6094-0.42969-0.59375-1.0547-0.89062-1.875-0.89062-0.8125 0-1.4336 0.29688-1.8594 0.89062-0.42969 0.59375-0.64062 1.4648-0.64062 2.6094 0 1.1367 0.21094 2.0078 0.64062 2.6094 0.42578 0.59375 1.0469 0.89062 1.8594 0.89062z"/>
  </symbol>
  <symbol id="c" overflow="visible">
   <path d="m8.2031-2.4688c0.82031 0 1.4453-0.29688 1.875-0.89062 0.42578-0.60156 0.64062-1.4727 0.64062-2.6094 0-1.1445-0.21484-2.0156-0.64062-2.6094-0.42969-0.59375-1.0547-0.89062-1.875-0.89062-0.82422 0-1.4531 0.30469-1.8906 0.90625-0.4375 0.59375-0.65625 1.4609-0.65625 2.5938 0 1.1367 0.21875 2.0078 0.65625 2.6094 0.4375 0.59375 1.0664 0.89062 1.8906 0.89062zm-2.5469-7.75c0.53125-0.69531 1.1133-1.207 1.75-1.5312 0.64453-0.33203 1.3828-0.5 2.2188-0.5 1.4688 0 2.6758 0.58984 3.625 1.7656 0.94531 1.168 1.4219 2.6719 1.4219 4.5156s-0.47656 3.3555-1.4219 4.5312c-0.94922 1.168-2.1562 1.75-3.625 1.75-0.83594 0-1.5742-0.16797-2.2188-0.5-0.63672-0.33203-1.2188-0.84766-1.75-1.5469v1.7344h-3.8125v-16.625h3.8125z"/>
  </symbol>
  <symbol id="f" overflow="visible">
   <path d="m0.26562-11.969h3.8281l3.2188 8.125 2.7344-8.125h3.8125l-5.0312 13.094c-0.5 1.332-1.0898 2.2656-1.7656 2.7969-0.66797 0.53125-1.5547 0.79688-2.6562 0.79688h-2.2188v-2.5h1.2031c0.64453 0 1.1133-0.10547 1.4062-0.3125 0.30078-0.21094 0.53125-0.57812 0.6875-1.1094l0.10938-0.34375z"/>
  </symbol>
  <symbol id="h" overflow="visible">
   <path d="m2.0156-15.953h4.1094v6.0781h6.0625v-6.0781h4.1094v15.953h-4.1094v-6.7656h-6.0625v6.7656h-4.1094z"/>
  </symbol>
  <symbol id="t" overflow="visible">
   <path d="m7.8438-8.875c0.86328 0 1.4844-0.16016 1.8594-0.48438 0.375-0.32031 0.5625-0.84766 0.5625-1.5781 0-0.72656-0.1875-1.25-0.5625-1.5625s-0.99609-0.46875-1.8594-0.46875h-1.7188v4.0938zm-1.7188 2.8438v6.0312h-4.1094v-15.953h6.2656c2.1016 0 3.6445 0.35547 4.625 1.0625 0.97656 0.71094 1.4688 1.8242 1.4688 3.3438 0 1.0547-0.25781 1.918-0.76562 2.5938-0.51172 0.67969-1.2773 1.1797-2.2969 1.5 0.5625 0.125 1.0625 0.41797 1.5 0.875 0.44531 0.44922 0.89844 1.1328 1.3594 2.0469l2.2344 4.5312h-4.375l-1.9531-3.9688c-0.38672-0.78906-0.78125-1.332-1.1875-1.625-0.40625-0.28906-0.94531-0.4375-1.6094-0.4375z"/>
  </symbol>
  <symbol id="s" overflow="visible">
   <path d="m1.8438-11.969h3.8125v11.969h-3.8125zm0-4.6562h3.8125v3.125h-3.8125z"/>
  </symbol>
  <symbol id="r" overflow="visible">
   <path d="m9.7031-16.625v2.5156h-2.1094c-0.54297 0-0.92188 0.10156-1.1406 0.29688-0.21094 0.19922-0.3125 0.53906-0.3125 1.0156v0.82812h3.2656v2.7344h-3.2656v9.2344h-3.8281v-9.2344h-1.8906v-2.7344h1.8906v-0.82812c0-1.3008 0.36328-2.2656 1.0938-2.8906 0.72656-0.625 1.8516-0.9375 3.375-0.9375z"/>
  </symbol>
  <symbol id="e" overflow="visible">
   <path d="m7.5312-9.5156c-0.84375 0-1.4922 0.30859-1.9375 0.92188-0.44922 0.60547-0.67188 1.4805-0.67188 2.625 0 1.1484 0.22266 2.0273 0.67188 2.6406 0.44531 0.60547 1.0938 0.90625 1.9375 0.90625 0.83203 0 1.4688-0.30078 1.9062-0.90625 0.44531-0.61328 0.67188-1.4922 0.67188-2.6406 0-1.1445-0.22656-2.0195-0.67188-2.625-0.4375-0.61328-1.0742-0.92188-1.9062-0.92188zm0-2.7344c2.0508 0 3.6562 0.55859 4.8125 1.6719 1.1641 1.1055 1.75 2.6406 1.75 4.6094s-0.58594 3.5117-1.75 4.625c-1.1562 1.1055-2.7617 1.6562-4.8125 1.6562-2.0625 0-3.6797-0.55078-4.8438-1.6562-1.168-1.1133-1.75-2.6562-1.75-4.625s0.58203-3.5039 1.75-4.6094c1.1641-1.1133 2.7812-1.6719 4.8438-1.6719z"/>
  </symbol>
  <symbol id="q" overflow="visible">
   <path d="m12.922-9.9688c0.48828-0.75 1.0625-1.3164 1.7188-1.7031 0.66406-0.38281 1.3984-0.57812 2.2031-0.57812 1.375 0 2.4219 0.42969 3.1406 1.2812 0.71875 0.84375 1.0781 2.0742 1.0781 3.6875v7.2812h-3.8438v-6.2344c0.007812-0.09375 0.015625-0.1875 0.015625-0.28125v-0.4375c0-0.84375-0.125-1.457-0.375-1.8438-0.25-0.38281-0.65234-0.57812-1.2031-0.57812-0.73047 0-1.293 0.30469-1.6875 0.90625-0.38672 0.59375-0.58984 1.4609-0.60938 2.5938v5.875h-3.8438v-6.2344c0-1.3203-0.11719-2.1758-0.34375-2.5625-0.23047-0.38281-0.63672-0.57812-1.2188-0.57812-0.73047 0-1.2969 0.30469-1.7031 0.90625-0.39844 0.60547-0.59375 1.4648-0.59375 2.5781v5.8906h-3.8438v-11.969h3.8438v1.75c0.46875-0.66406 1.0039-1.1719 1.6094-1.5156 0.61328-0.34375 1.2891-0.51562 2.0312-0.51562 0.82031 0 1.5508 0.19922 2.1875 0.59375 0.63281 0.39844 1.1133 0.96094 1.4375 1.6875z"/>
  </symbol>
  <symbol id="p" overflow="visible">
   <path d="m13.859-7.2812v7.2812h-3.8438v-5.5469c0-1.0508-0.027344-1.7695-0.078125-2.1562-0.042969-0.39453-0.12109-0.6875-0.23438-0.875-0.14844-0.25-0.35156-0.44141-0.60938-0.57812-0.25-0.14453-0.54297-0.21875-0.875-0.21875-0.79297 0-1.418 0.3125-1.875 0.9375-0.46094 0.61719-0.6875 1.4648-0.6875 2.5469v5.8906h-3.8125v-16.625h3.8125v6.4062c0.58203-0.69531 1.1953-1.207 1.8438-1.5312 0.64453-0.33203 1.3594-0.5 2.1406-0.5 1.3828 0 2.4297 0.42969 3.1406 1.2812 0.71875 0.84375 1.0781 2.0742 1.0781 3.6875z"/>
  </symbol>
  <symbol id="o" overflow="visible">
   <path d="m2.0156-15.953h4.5781l5.8125 10.938v-10.938h3.8906v15.953h-4.5938l-5.7969-10.938v10.938h-3.8906z"/>
  </symbol>
  <symbol id="n" overflow="visible">
   <path d="m1.7031-4.6562v-7.3125h3.8438v1.2031c0 0.64844-0.007813 1.4609-0.015625 2.4375v1.9688c0 0.96094 0.023438 1.6523 0.078125 2.0781 0.050781 0.41797 0.13281 0.72656 0.25 0.92188 0.15625 0.25 0.35938 0.44531 0.60938 0.57812 0.25781 0.13672 0.55078 0.20312 0.875 0.20312 0.80078 0 1.4258-0.30469 1.875-0.92188 0.45703-0.61328 0.6875-1.4688 0.6875-2.5625v-5.9062h3.8281v11.969h-3.8281v-1.7344c-0.57422 0.69922-1.1836 1.2148-1.8281 1.5469-0.64844 0.33203-1.3555 0.5-2.125 0.5-1.3867 0-2.4453-0.42188-3.1719-1.2656-0.71875-0.85156-1.0781-2.0859-1.0781-3.7031z"/>
  </symbol>
  <symbol id="m" overflow="visible">
   <path d="m13.859-7.2812v7.2812h-3.8438v-5.5781c0-1.0312-0.027344-1.7383-0.078125-2.125-0.042969-0.39453-0.12109-0.6875-0.23438-0.875-0.14844-0.25-0.35156-0.44141-0.60938-0.57812-0.25-0.14453-0.54297-0.21875-0.875-0.21875-0.79297 0-1.418 0.3125-1.875 0.9375-0.46094 0.61719-0.6875 1.4648-0.6875 2.5469v5.8906h-3.8125v-11.969h3.8125v1.75c0.58203-0.69531 1.1953-1.207 1.8438-1.5312 0.64453-0.33203 1.3594-0.5 2.1406-0.5 1.3828 0 2.4297 0.42969 3.1406 1.2812 0.71875 0.84375 1.0781 2.0742 1.0781 3.6875z"/>
  </symbol>
  <symbol id="l" overflow="visible">
   <path d="m2.0156-15.953h6.8125c2.0312 0 3.5859 0.45312 4.6719 1.3594 1.0938 0.89844 1.6406 2.1797 1.6406 3.8438 0 1.6797-0.54688 2.9688-1.6406 3.875-1.0859 0.89844-2.6406 1.3438-4.6719 1.3438h-2.7031v5.5312h-4.1094zm4.1094 2.9844v4.4531h2.2656c0.80078 0 1.4141-0.19141 1.8438-0.57812 0.4375-0.38281 0.65625-0.9375 0.65625-1.6562 0-0.70703-0.21875-1.2539-0.65625-1.6406-0.42969-0.38281-1.043-0.57812-1.8438-0.57812z"/>
  </symbol>
  <symbol id="k" overflow="visible">
   <path d="m1.8438-11.969h3.8125v11.75c0 1.6016-0.38672 2.8281-1.1562 3.6719-0.76172 0.84375-1.8711 1.2656-3.3281 1.2656h-1.8906v-2.5h0.65625c0.72656 0 1.2266-0.16797 1.5-0.5 0.26953-0.32422 0.40625-0.96875 0.40625-1.9375zm0-4.6562h3.8125v3.125h-3.8125z"/>
  </symbol>
  <symbol id="j" overflow="visible">
   <path d="m11.5-11.594v3.125c-0.52344-0.35156-1.043-0.61328-1.5625-0.78125-0.52344-0.17578-1.0625-0.26562-1.625-0.26562-1.0742 0-1.9062 0.3125-2.5 0.9375s-0.89062 1.4961-0.89062 2.6094c0 1.1172 0.29688 1.9844 0.89062 2.6094s1.4258 0.9375 2.5 0.9375c0.59375 0 1.1562-0.085937 1.6875-0.26562 0.53906-0.17578 1.0391-0.44141 1.5-0.79688v3.125c-0.59375 0.23047-1.1992 0.39453-1.8125 0.5-0.61719 0.11328-1.2344 0.17188-1.8594 0.17188-2.1562 0-3.8438-0.55078-5.0625-1.6562-1.2188-1.1133-1.8281-2.6562-1.8281-4.625s0.60938-3.5039 1.8281-4.6094c1.2188-1.1133 2.9062-1.6719 5.0625-1.6719 0.625 0 1.2383 0.058594 1.8438 0.17188 0.61328 0.10547 1.2227 0.26562 1.8281 0.48438z"/>
  </symbol>
 </defs>
 <g>
  <path d="m339.25 414.36c-0.027344-3.7148-0.046875-7.4062-0.078125-11.125-1.1289 0.14062-2.2344-0.38672-2.8398-1.3516-2.7617-4.168-5.6055-8.2344-8.4961-12.25 1.6719 4.3086 2.9375 8.7617 3.7852 13.301 0.50391 3.2148 1.2773 6.2695 1.8867 9.4297 0.19531 1.0977 3.2227 1.7109 5.7422 1.9961zm-1.75-244.12c-0.050781-9.0273-0.10547-18.047-0.15625-27.055-24.887 0-48.703 1.5391-71.195 13.301l-0.21484 0.082031v7.9336c0 5.793-0.18359 11.766-0.39453 17.844 12.426-3.9375 23.707-9.2656 36.906-11.047h0.003906c11.637-1.2695 23.359-1.6289 35.051-1.0703zm-31.758 163.62c10.383-12.324 19.836-26.477 32.398-36.594 0.10547-0.078125 0.23438-0.15625 0.36719-0.24219 0-1.3125-0.027344-2.625-0.027344-3.9375v0.003906c-4.6836 5.9219-9.7539 11.527-15.172 16.781-7.0664 6.7188-12.188 15.109-19.07 21.957 0.49219 0.66797 1 1.332 1.5039 2.0234zm135.45-169.36c0 23.34 2.3398 49.438-2.0703 72.441h0.003906c-0.16406 0.97266-0.88281 1.7617-1.8359 2.0156 0.26562 43.789 1.5977 87.523 2.4414 131.31 0.53516 28.121 1.0625 56.137 1.6484 84.258 0.37109 16.727 1.7031 33.43 0.84766 50.082h0.003906c1.5938 0.22266 3.207 0.28125 4.8125 0.18359h0.03125c0.027344 0.10938 0.027344 0 0.027344 0h-0.027344v-0.027344c-0.03125-0.79688 0.23438-0.95312 0.63281-1.4336 1.5664-11.551-0.63281-25.117-0.71484-36.484-0.082032-15.617-0.17969-31.246-0.29297-46.895-0.21484-29.766-0.47266-59.527-0.76953-89.277-0.55859-57.41-1.0625-114.82-1.0625-172.23-1.1953-0.33984-2.4258-0.53906-3.6641-0.58594zm-7.3516 217.71c-2.5273-1.7383-4.7148-3.9258-6.4531-6.4531-3.1836-4.5625-7.3789-7.875-10.891-12.078-2.6484-2.9727-5.0234-6.1797-7.0859-9.5859-1.4102-2.207-3.0977-4.2227-5.0195-6-0.76953 0.98438-1.5391 1.9648-2.3359 2.9492v-0.003906c3.1445 2.3477 6.0469 5.0117 8.6562 7.9414 2.8125 3.6875 5.8945 7.4062 8.9453 10.887 4.6445 5.2852 9.7461 10.406 14.258 15.852zm-57.461 14.949c-0.80078 2.9766-1.5156 5.9492-2.1875 8.9531 18.719-0.39844 52.625 0.95312 60.168 1.2734-0.078125-4.375-0.15625-8.707-0.26172-13.062-0.84766-0.12109-1.6055-0.59766-2.0742-1.3125-5.3633-7.3281-12.426-13.492-18.109-20.605v-0.003906c-4.8047-5.8945-10.031-11.434-15.641-16.57 0 0-14.59 18.672-15.902 21.152-2.7539 6.4805-4.7617 13.246-5.9922 20.176zm57.18-29.5c-0.375-18.984-0.82812-37.969-1.25-56.934-7.5938 11.152-15.719 21.91-24.062 32.477v0.003906c2.0469 1.7734 3.8672 3.8008 5.4141 6.0273 2.0547 3.5938 4.4492 6.9805 7.1445 10.117 2.7344 3.2891 6.0273 6 8.8945 9.1875 1.4883 1.6445 2.625 3.4531 3.9375 5.1484 0.015625-2.0156-0.035156-4.0352-0.078125-6.0273zm-1.7266-80.379c-0.21484-10.438-0.38672-20.875-0.50781-31.309-6.1836 20.789-15.531 40.496-23.523 60.73 6.1602-7.7539 12.25-15.562 17.977-23.688v0.003906c1.4219-2.4609 3.5312-4.4531 6.0703-5.7344zm-69.051-144.11c-0.050781 9.0273-0.078125 18.031-0.16016 27.055h-0.003906c13.207-0.94141 26.48-0.32812 39.543 1.832 10.77 2.8008 21.387 6.1602 31.809 10.062-0.36719-7.7539-0.74219-15.426-0.74219-22.809v-2.8711c-22.223-11.598-44.449-13.219-70.445-13.27zm62.293-73.715c-19.863-14.418-41.645-25.992-64.711-34.387-0.59766-0.21094-1.1172-0.60156-1.4844-1.1172-3.5156-0.52734-7.0977-0.48438-10.598 0.13281-2.5859 0.44922-5.207 0.67969-7.832 0.69141h-0.027344c-0.1875 0-0.40234 0.21094-0.64062 0.31641h0.003906c-23.84 8.6406-46.289 20.707-66.648 35.82 27.055-5.4961 54.938-6 82.422-6 23.555 0.003907 46.867-1.25 69.516 4.543zm-63.062 321.09c-0.29688 0.35156-0.65625 0.64062-1.0664 0.84766 0 1.3125 0 2.6016-0.027344 3.9375 22.121-32.555 49.23-61.25 70.633-94.348l0.003906 0.003906c0.14844-0.22656 0.32812-0.43359 0.53125-0.61328-0.046875-2.043-0.078125-4.0898-0.10547-6.1602-2.2891 3.0117-4.3633 6.1797-6.2148 9.4805-2.918 3.9023-5.8945 7.8047-8.9531 11.602-7.5117 9.4023-15.453 18.59-22.312 28.496-10.898 15.609-20.621 31.832-32.488 46.754zm14.816-80.672c-5.0703-5.6055-10.328-11.098-15.191-16.914 0 1.3516 0 2.707-0.027344 4.0586l0.39844 0.24219c12.535 10.113 21.957 24.215 32.344 36.539 0.50391-0.66406 1.0078-1.3125 1.5391-1.9961-6.8203-6.7109-12.645-14.867-19.062-21.93zm-4.5195 79.746c-2.8906 4.0352-5.7344 8.0977-8.4688 12.25-0.62109 0.98828-1.7695 1.5195-2.9219 1.3516 0 3.7188-0.027344 7.4102-0.027344 11.125 2.5195-0.28906 5.5508-0.90234 5.7617-2.0156 0.61328-3.1602 1.3828-6.2109 1.8867-9.4297 0.85938-4.5312 2.1211-8.9766 3.7695-13.281zm-8.9219-104.12c6.0195 7.8047 12.625 15.137 19.758 21.934 5.6523 5.3359 9.7969 12.027 14.949 17.816 10.594-29.266 25.594-57.168 31.598-87.867-8.9688-3.1289-18.18-5.5156-27.535-7.1445-13.277-1.25-26.609-1.8086-39.941-1.6719-0.17188 18.594-0.33594 37.199-0.5 55.812 0.66016 0.1875 1.2383 0.58203 1.6523 1.125zm27.27 53.375c-4.9648-5.7617-9.9844-11.445-14.816-17.363v-0.003906c-4.3984-5.793-9.1602-11.301-14.258-16.492-0.078126 10.465-0.1875 20.926-0.26563 31.387-0.10547 15.168-0.20312 30.32-0.28906 45.461 10.488-13.883 19.488-28.832 29.609-42.984zm-28.301-131.93c-0.027344 5.1758-0.078125 10.355-0.10547 15.504 12.789-0.40234 25.594 0.078125 38.316 1.4375 10.688 1.8047 21.219 4.4375 31.5 7.875 0.375-0.30469 0.80859-0.52344 1.2773-0.63672 0.65625-4.5078 1.082-9.0469 1.2734-13.598-22.797-7.6016-46.773-11.055-70.793-10.191-0.51562 0.015625-1.0273-0.12109-1.4688-0.39062zm0.23438-30.625c-0.046875 8.4219-0.13281 16.836-0.18359 25.254 0.43359-0.24219 0.91797-0.37109 1.4102-0.375 24.066-0.84766 48.094 2.5039 71.008 9.9062 0.10547-7.4375-0.16016-14.977-0.53516-22.488h-0.027344c-11.375-3.5-21.828-8.6562-33.723-10.707v0.003906c-12.57-1.7422-25.277-2.2656-37.949-1.5703zm71.25-97.777c-25.277-9.1602-51.758-7.5117-78.281-7.5117-29.871 0-60.305 0.50391-89.461 7.6992-0.60937 4.9883-0.86328 10.008-0.76953 15.027 11.711-6.9023 26.5-6.4531 39.621-8.4688h-0.003906c15-2.6406 30.18-4.125 45.406-4.4375 15.27 0 29.102-0.15625 43.867 4.0898 13.094 3.7695 26.637 5.9492 39.859 9.5312v0.003906c0.375-5.3086 0.29688-10.637-0.23828-15.934zm-0.10547 22.121c-25.629-7.4688-51.801-13.703-78.488-13.703-15.855 0-30.781 3.0273-46.5 4.1172-13.777 0.95703-30.988 1.3125-42.59 9.4023h-0.003906c-0.21094 0.15234-0.44531 0.27734-0.69141 0.37109 0.21484 5.6875 0.47656 11.375 0.47656 16.809v8.0977c21.773-14.684 55.523-16.062 80.328-16.375 16.188-0.18359 33.324-0.55469 48.938 4.4375 12.293 3.9023 25.891 5.3906 38.023 9.7969v-11.172c0-3.8164 0.23828-7.7695 0.50781-11.781zm-76.953 25.781c-2.1445-0.48438-4.3398-0.70703-6.5352-0.66406-1.8711-0.23438-3.7617-0.21875-5.625 0.050781-0.4375 0.15625-0.875 0.29297-1.2773 0.39844 0.32031 70.078 1.0898 140.12 1.5938 210.18 0.26562 36.91 0.46094 73.805 0.58594 110.69 0.027344 15.828 0.53125 31.73-0.64062 47.562-0.98047 13.516 0.64062 27.059 0.13281 40.625h-0.003906c0.13672 0.011718 0.27344 0.039062 0.40234 0.078124 1.5859 0.29688 3.207 0.36719 4.8125 0.21484 1.6133 0.19531 3.2461 0.125 4.8359-0.21484 0-0.015624 0.011719-0.027343 0.027344-0.027343-0.63281-14.473 0.71875-28.918-0.078125-43.387-0.93359-16.676-0.4375-33.434-0.39844-50.133 0.10547-35.133 0.28906-70.277 0.55469-105.44 0.55078-69.93 1.293-139.93 1.6133-209.93zm-19.812-102.55c-2.8672-0.13281-2.7578 4.332-2.4688 6.7188 1.168-0.4375 2.3359-0.93359 3.5312-1.3828v0.003906c0.23438-0.16797 0.49219-0.29297 0.76953-0.375 1.6484-0.46094 3.3672-0.62109 5.0742-0.47656 2.1484 0.050781 4.2227-0.64062 6.3711-0.64062v0.003906c4.0508-0.39844 8.1406-0.13672 12.109 0.76953 0.75 0.25391 1.3789 0.78516 1.75 1.4883l5.4688 2.1523c0.10547-2.625 0.078125-6.2969-0.79688-6.3203v-0.003906c-4.2031-0.085938-8.3867-0.54688-12.508-1.375-6.4102-0.66406-12.863-0.85156-19.301-0.5625zm0.74219 177.7c-0.050782-8.418-0.13281-16.832-0.18359-25.254v0.003907c-14.199-0.76172-28.438 0.10547-42.438 2.5742-10.199 2.0742-19.309 6.6953-29.211 9.7227-0.17578 0.042969-0.35156 0.078126-0.53125 0.10547-0.26562 7.4844-0.4375 15.027-0.26562 22.465 22.977-7.4531 47.078-10.832 71.219-9.9883 0.49609 0.003906 0.98047 0.13281 1.4102 0.37109zm1.3555 180.22c-0.078124-15.133-0.16016-30.27-0.24219-45.406-0.078125-10.461-0.16797-20.922-0.26172-31.387-5.1523 5.1367-9.9219 10.652-14.262 16.496-4.75 6.0234-9.875 11.656-14.875 17.441 10.066 14.152 19.156 29.023 29.633 42.859zm-73.133-248.62v16.598c22.652-10.996 46.375-12.719 71.383-12.719-0.03125-4.0117-0.058593-7.9922-0.082031-12.004 0.007813-0.53516 0.15625-1.0586 0.4375-1.5117-0.11328-0.65625 0.058594-1.3242 0.46875-1.8477 0.41016-0.51953 1.0234-0.84375 1.6836-0.88672 1.6797-0.47656 3.3906-0.83203 5.125-1.0625h5.3125-0.003906c3.4297-0.12109 6.8516 0.35547 10.121 1.4062 1.0469 0.32031 1.8281 1.2031 2.0156 2.2852 0.33203 0.47266 0.50781 1.0391 0.50391 1.6172 0 4.0117-0.050782 7.9922-0.050782 12.004 24.801 0.050781 48.172 1.8281 70.395 12.477l-0.003906-19.434c-6.3633-1.9844-12.844-3.5703-19.406-4.7539-6.7969-1.7031-13.465-3.9609-20.234-5.6562-15.492-3.6758-31.438-5.0898-47.332-4.1953-24.5 1.1953-59.562 1.0117-79.82 17.367h-0.003907c-0.15625 0.125-0.32422 0.23047-0.50781 0.31641zm0.10938 261.14c-0.078125 4.375-0.1875 8.75-0.26562 13.125 20.207-0.13281 40.336-1.8008 60.062-1.3125-0.82422-3.9023-1.7773-7.6992-2.6758-11.633-3.5625-15.75-11.207-25.996-21.277-38.66v-0.003906c-5.5859 5.1602-10.809 10.695-15.633 16.574-5.7617 7.0352-12.773 13.301-18.113 20.605-0.48438 0.70703-1.2461 1.1836-2.0977 1.3047zm1.9375-162.64v-0.003906c10.16-3.3789 20.566-5.9805 31.121-7.7773 12.809-1.168 25.672-1.6484 38.531-1.4336 0.10547 0 0.16016 0.050781 0.26562 0.050781-0.050782-5.1758-0.078125-10.383-0.13281-15.559h0.003907c-0.44141 0.26562-0.95313 0.39453-1.4688 0.375-24.09-0.875-48.145 2.6055-71 10.27 0.24219 4.5664 0.66406 9.082 1.3125 13.492v0.003906c0.5 0.074219 0.96875 0.27344 1.3672 0.57812zm29.449-1.4336v-0.003907c-9.1289 1.8281-18.137 4.2031-26.98 7.1172 6.0039 30.727 21 58.625 31.602 87.895 5.1484-5.7891 9.3203-12.453 14.949-17.816v0.003906c7.1328-6.8008 13.738-14.133 19.758-21.938 0.41797-0.53906 0.99219-0.92969 1.6445-1.125-0.15625-18.609-0.31641-37.215-0.47656-55.816-0.10547 0-0.1875 0.027344-0.29297 0.027344-13.422-0.625-26.875-0.074219-40.203 1.6523zm-28.652 25.734c-0.13281 10.434-0.29297 20.898-0.47656 31.332 3.9805 1.6719 6.0508 5.918 8.6523 9.5312 4.8867 6.8242 10.121 13.355 15.379 19.891-7.9922-20.238-17.34-39.969-23.555-60.758zm-0.60938 38.062c-0.058594 2.1016-0.082031 4.2266-0.10938 6.3203l0.003906-0.003906c0.1875 0.1875 0.35547 0.39453 0.5 0.61328 21.41 33.098 48.488 61.777 70.582 94.281-0.027344-1.3125-0.027344-2.5781-0.027344-3.8789h0.003906c-0.38672-0.19531-0.72266-0.47656-0.98047-0.82422-11.895-14.922-21.301-31.387-32.477-46.762-8.0195-11.02-16.781-21.438-25.227-32.105-2.1914-2.7812-8.0234-13.836-12.254-17.633zm-1.7344 79.754c1.7656-2.5 3.6641-4.8984 5.6875-7.1953 3.0352-2.8281 5.9062-5.8242 8.6016-8.9766 2.6562-3.2422 4.5664-6.7188 6.8789-10.172 1.2656-1.5508 2.6797-2.9727 4.2227-4.2461-8.3125-10.598-16.441-21.324-24.031-32.477-0.4375 19.891-0.93359 39.777-1.3125 59.641zm15.832-8.4805c-5.4414 5.2852-9.7422 12.535-15.98 16.859-0.03125 1.1953-0.058593 2.3945-0.082031 3.5859 4.5938-5.4219 9.7734-10.383 14.262-15.906 2.9766-3.6133 6.125-7.1719 8.9453-10.887v0.003906c2.6094-2.9336 5.5117-5.5938 8.6602-7.9414-0.76953-0.95703-1.5156-1.9102-2.2617-2.8711-2.0156 2.5508-4.0352 5.043-6 7.6719v0.003906c-2.25 3.3633-4.7734 6.5312-7.543 9.4805zm-29.152 106.75c-0.050782 9.7695-1.9375 21.293-0.69141 31.277 0.44531 0.53125 0.67578 1.2148 0.63672 1.9102 0 0.16016-0.027344 0.32031-0.027344 0.50781 0.23828-0.019531 0.47656-0.027343 0.71484-0.023437 1.3945-0.12891 2.7812-0.35156 4.1484-0.66797-0.875-17.234 0.53125-34.84 0.875-52.18 0.60547-28.41 1.1719-56.816 1.6992-85.211 0.82422-42.988 2.125-85.98 2.3633-128.97l-0.003907-0.003906c-0.57031-0.41797-0.95312-1.0469-1.0586-1.75-4.7539-24.672-1.1445-52.656-1.1445-77.645v-1.5391c-1.8047-0.074219-3.6094 0.10547-5.3594 0.53125 0 59.215-0.53516 118.41-1.0898 177.62-0.29297 29.766-0.54688 59.527-0.76953 89.277-0.10938 15.613-0.20703 31.23-0.29297 46.859zm-6.0547 36.215c-2.0938-9.957-0.13281-20.926-0.078125-31.062 0.078125-15.586 0.16797-31.172 0.26562-46.762 0.21094-31.52 0.48438-63.031 0.82422-94.535 0.55469-59.668 1.0898-119.33 1.0898-179l-0.003906 0.003906c-0.039062-1.043 0.52734-2.0156 1.457-2.4961 0.30469-0.86328 1.0078-1.5273 1.8867-1.7812 2.6406-0.74219 5.3828-1.0703 8.125-0.98047v-44.449c-0.73438-10.609-0.69922-21.262 0.10938-31.863-0.39453-1.043-0.0625-2.2188 0.82031-2.8984 20.105-16.719 42.785-30.082 67.156-39.562-0.050782-0.25391-0.082032-0.51172-0.10547-0.76953 0-5.3125-1.9688-12.613 4.3281-14.316 3.5-0.32031 7.0234-0.23047 10.5 0.26953 3.9688-0.34375 7.9609-0.32422 11.926 0.050781 4.457 0.90625 8.9219 1.3125 13.41 1.8594 2.043 0.24219 3.9023 0.050781 5.4414 1.5938 2.7617 2.7617 1.3516 10.277 1.3125 13.039v-0.003907c22.715 9.2305 43.871 21.902 62.727 37.574 0.94141 0.26562 1.6289 1.0703 1.75 2.043 1.4453 12.676 1.8477 25.445 1.1914 38.184v39.328c1.9336 0.074218 3.8516 0.375 5.7109 0.90234 0.77344 0.21484 1.418 0.74609 1.7812 1.4609 1.3555 0.23828 2.332 1.4414 2.2812 2.8164 0 61.418 0.58203 122.84 1.168 184.23 0.29297 31.516 0.54688 63.035 0.76953 94.559 0.10547 15.562 0.19531 31.125 0.26562 46.688 0.027344 8.6289 1.6992 17.363-0.10547 25.859h0.003906c-0.082031 0.36719-0.23047 0.71875-0.4375 1.0352-0.59766 1.3281-1.8633 2.2344-3.3164 2.3633-3.1211 0.28516-6.2734 0.007812-9.2969-0.82422-0.39844-0.085937-0.77734-0.25-1.1133-0.47656-0.79688 0.089843-1.5898-0.19141-2.1523-0.76172s-0.83594-1.3633-0.74219-2.1602c1.1406-17.938-0.39844-36.484-0.76953-54.57-0.26953-13.125-0.52344-26.234-0.76953-39.328-20.77-0.078125-41.238-1.8555-61.527-1.3125-0.03125 0-0.058593-0.027344-0.10547-0.027344-1.2266 6.375-6.082 7.7266-12.004 8.2852-0.050782 8.8672-0.10547 17.734-0.10547 26.605-0.050781 15.828-0.53516 31.73 0.60938 47.562 1.0898 14.816-1.0078 29.715 0.050781 44.555v0.003906c0 1.6914-1.3711 3.0625-3.0625 3.0625-1.8477 0.26562-3.7227 0.29297-5.5781 0.082031-0.61719-0.027343-1.2148-0.25-1.6992-0.64062-0.29297-0.027344-0.55469-0.027344-0.82422-0.027344-0.4375 0.027344-0.82422 0.027344-1.2188 0.050781v0.003906c-0.47656 0.36719-1.0508 0.58203-1.6484 0.61328-1.8633 0.21094-3.7461 0.18359-5.6016-0.082031-1.6914 0-3.0625-1.3711-3.0625-3.0625 1.1172-15.75-0.58203-31.5 0.29297-47.25 0.92578-16.676 0.4375-33.434 0.37109-50.133-0.027344-7.1172-0.078125-14.234-0.10938-21.324-6.3438-0.64062-10.566-2.2578-12.25-8.3125-0.082031 0-0.16016 0.050781-0.24219 0.050781-17.844-0.47656-51.914 0.84766-61.129 1.2188-0.29297 13.754-0.53516 27.535-0.82422 41.293-0.37109 17.473-1.8594 35.344-0.71875 52.684h0.007812c0.078125 0.79688-0.20312 1.5898-0.76953 2.1562-0.56641 0.56641-1.3555 0.84766-2.1523 0.76562-0.33203 0.22656-0.69922 0.39062-1.0898 0.47656-3.1641 1.0156-6.5234 1.2695-9.8008 0.74609-1.1719-0.30078-2.1641-1.082-2.7305-2.1484-0.24609-0.34766-0.41406-0.74609-0.48828-1.168z"/>
  <path d="m447.09 504.78s0 0.10938-0.027344 0z"/>
  <use x="70" y="625.625" xlink:href="#u"/>
  <use x="86.054688" y="625.625" xlink:href="#d"/>
  <use x="96.839844" y="625.625" xlink:href="#a"/>
  <use x="111.679687" y="625.625" xlink:href="#g"/>
  <use x="126.4375" y="625.625" xlink:href="#b"/>
  <use x="136.894531" y="625.625" xlink:href="#a"/>
  <use x="151.730469" y="625.625" xlink:href="#i"/>
  <use x="175.007812" y="625.625" xlink:href="#c"/>
  <use x="190.664062" y="625.625" xlink:href="#f"/>
  <use x="212.539062" y="625.625" xlink:href="#h"/>
  <use x="230.847656" y="625.625" xlink:href="#a"/>
  <use x="245.683594" y="625.625" xlink:href="#f"/>
  <use x="267.558594" y="625.625" xlink:href="#t"/>
  <use x="284.402344" y="625.625" xlink:href="#g"/>
  <use x="299.164062" y="625.625" xlink:href="#c"/>
  <use x="314.824219" y="625.625" xlink:href="#c"/>
  <use x="330.480469" y="625.625" xlink:href="#s"/>
  <use x="337.980469" y="625.625" xlink:href="#b"/>
  <use x="70" y="647.5" xlink:href="#r"/>
  <use x="79.515625" y="647.5" xlink:href="#d"/>
  <use x="90.304688" y="647.5" xlink:href="#e"/>
  <use x="105.332031" y="647.5" xlink:href="#q"/>
  <use x="135.742188" y="647.5" xlink:href="#b"/>
  <use x="146.199219" y="647.5" xlink:href="#p"/>
  <use x="161.773438" y="647.5" xlink:href="#a"/>
  <use x="184.222656" y="647.5" xlink:href="#o"/>
  <use x="202.53125" y="647.5" xlink:href="#e"/>
  <use x="217.558594" y="647.5" xlink:href="#n"/>
  <use x="233.132812" y="647.5" xlink:href="#m"/>
  <use x="256.320312" y="647.5" xlink:href="#l"/>
  <use x="272.355469" y="647.5" xlink:href="#d"/>
  <use x="283.140625" y="647.5" xlink:href="#e"/>
  <use x="298.171875" y="647.5" xlink:href="#k"/>
  <use x="305.667969" y="647.5" xlink:href="#a"/>
  <use x="320.503906" y="647.5" xlink:href="#j"/>
  <use x="333.472656" y="647.5" xlink:href="#b"/>
 </g>
</svg>
