<?xml version="1.0" encoding="UTF-8"?>
<svg width="700" height="700" version="1.1" viewBox="0 0 700 700" xmlns="http://www.w3.org/2000/svg">
 <g>
  <path d="m490 124.44h-124.45c-4.125 0.003906-8.0781 1.6445-10.992 4.5586-2.918 2.918-4.5586 6.8711-4.5625 10.996v46.668h155.55v-46.668c-0.003907-4.125-1.6445-8.0781-4.5586-10.996-2.918-2.9141-6.8711-4.5547-10.996-4.5586z"/>
  <path d="m381.11 326.66c0 8.5898-6.9609 15.555-15.555 15.555-8.5898 0-15.555-6.9648-15.555-15.555 0-8.5938 6.9648-15.559 15.555-15.559 8.5938 0 15.555 6.9648 15.555 15.559"/>
  <path d="m505.55 326.66c0 8.5898-6.9648 15.555-15.555 15.555s-15.555-6.9648-15.555-15.555c0-8.5938 6.9648-15.559 15.555-15.559s15.555 6.9648 15.555 15.559"/>
  <path d="m552.22 31.109h-248.89c-12.363 0.039063-24.215 4.9648-32.957 13.711-8.7422 8.7422-13.672 20.59-13.707 32.957v342.22c0.011719 4.1211 1.6523 8.0703 4.5703 10.984 2.9141 2.918 6.8633 4.5586 10.984 4.5703h40.602l-24.266 72.801h-0.003906c-1.2812 3.9219-0.97656 8.1875 0.85937 11.883 1.832 3.6953 5.043 6.5234 8.9414 7.8711 1.6172 0.47656 3.293 0.73828 4.9766 0.78125 3.2656 0.015625 6.4492-1 9.1016-2.8984 2.6562-1.8984 4.6406-4.5859 5.6758-7.6797l27.535-82.758h164.27l27.535 82.754v0.003906c1.0352 3.0938 3.0234 5.7812 5.6758 7.6797 2.6523 1.8984 5.8398 2.9141 9.1016 2.8984 1.6836-0.042969 3.3594-0.30469 4.9766-0.78125 3.8984-1.3477 7.1094-4.1758 8.9453-7.8711 1.832-3.6953 2.1406-7.9609 0.85547-11.883l-24.266-72.801h40.598c4.125-0.011719 8.0742-1.6523 10.988-4.5703 2.9141-2.9141 4.5547-6.8633 4.5703-10.984v-342.22c-0.039063-12.367-4.9648-24.215-13.711-32.957-8.7422-8.7461-20.59-13.672-32.957-13.711zm-186.67 342.22c-12.375 0-24.246-4.9141-32.996-13.668-8.7539-8.75-13.668-20.621-13.668-32.996 0-12.379 4.9141-24.246 13.668-33 8.75-8.75 20.621-13.668 32.996-13.668 12.379 0 24.246 4.918 33 13.668 8.75 8.7539 13.668 20.621 13.668 33-0.015625 12.371-4.9336 24.234-13.684 32.98-8.75 8.75-20.609 13.672-32.984 13.684zm124.45 0c-12.375 0-24.246-4.9141-33-13.668-8.75-8.75-13.668-20.621-13.668-32.996 0-12.379 4.918-24.246 13.668-33 8.7539-8.75 20.625-13.668 33-13.668s24.246 4.918 33 13.668c8.75 8.7539 13.668 20.621 13.668 33-0.015625 12.371-4.9375 24.234-13.684 32.98-8.75 8.75-20.613 13.672-32.984 13.684zm46.668-171.11c0 4.125-1.6406 8.082-4.5547 11-2.918 2.918-6.875 4.5547-11.004 4.5547h-186.66c-4.125 0-8.0859-1.6367-11-4.5547-2.918-2.918-4.5586-6.875-4.5547-11v-62.223c0.011719-12.371 4.9336-24.234 13.68-32.984 8.75-8.7461 20.613-13.668 32.984-13.684h124.45c12.371 0.015625 24.234 4.9375 32.984 13.684 8.7461 8.75 13.668 20.613 13.684 32.984z"/>
  <path d="m210 31.109h-93.332c-4.125 0.015625-8.0742 1.6562-10.988 4.5703-2.9141 2.9141-4.5547 6.8633-4.5703 10.988v466.66c0 5.5586 2.9648 10.695 7.7812 13.473 4.8125 2.7773 10.742 2.7773 15.555 0 4.8125-2.7773 7.7773-7.9141 7.7773-13.473v-295.55h77.777c4.1211-0.011719 8.0703-1.6562 10.984-4.5703 2.918-2.9141 4.5586-6.8633 4.5703-10.984v-155.55c-0.011719-4.125-1.6523-8.0742-4.5703-10.988-2.9141-2.9141-6.8633-4.5547-10.984-4.5703z"/>
 </g>
</svg>
