<svg id="icons" xmlns="http://www.w3.org/2000/svg" xmlns:xlink="http://www.w3.org/1999/xlink" viewBox="0 0 64 64"><defs><style>.cls-1{fill:url(#linear-gradient);}.cls-2{fill:url(#linear-gradient-2);}.cls-3{fill:url(#linear-gradient-3);}.cls-4{fill:url(#linear-gradient-4);}.cls-5{fill:url(#linear-gradient-5);}.cls-6{fill:url(#linear-gradient-6);}.cls-7{fill:#ef1414;}.cls-8{fill:url(#linear-gradient-7);}.cls-9{fill:url(#linear-gradient-8);}.cls-10{fill:url(#linear-gradient-9);}.cls-11{fill:url(#linear-gradient-10);}</style><linearGradient id="linear-gradient" x1="31.29" y1="48.72" x2="32.97" y2="12" gradientUnits="userSpaceOnUse"><stop offset="0.26" stop-color="#ffa550"/><stop offset="0.74" stop-color="#ffe14b"/></linearGradient><linearGradient id="linear-gradient-2" x1="34.3" y1="45.96" x2="32.74" y2="20.74" xlink:href="#linear-gradient"/><linearGradient id="linear-gradient-3" x1="8.18" y1="47.57" x2="6.63" y2="22.34" xlink:href="#linear-gradient"/><linearGradient id="linear-gradient-4" x1="57.4" y1="44.54" x2="55.85" y2="19.32" xlink:href="#linear-gradient"/><linearGradient id="linear-gradient-5" x1="51.18" y1="44.92" x2="49.63" y2="19.7" xlink:href="#linear-gradient"/><linearGradient id="linear-gradient-6" x1="16.53" y1="47.05" x2="14.98" y2="21.83" xlink:href="#linear-gradient"/><linearGradient id="linear-gradient-7" x1="1.3" y1="48.68" x2="62.42" y2="48.68" gradientUnits="userSpaceOnUse"><stop offset="0" stop-color="#9de6ff"/><stop offset="1" stop-color="#2a91ff"/></linearGradient><linearGradient id="linear-gradient-8" x1="3.61" y1="55.09" x2="27.92" y2="55.09" xlink:href="#linear-gradient-7"/><linearGradient id="linear-gradient-9" x1="36.14" y1="55.18" x2="60.21" y2="55.18" xlink:href="#linear-gradient-7"/><linearGradient id="linear-gradient-10" x1="21" y1="60.89" x2="42.78" y2="60.89" xlink:href="#linear-gradient-7"/></defs><title>sunrise</title><g id="sunrise"><circle class="cls-1" cx="32" cy="33.17" r="12.79"/><path class="cls-2" d="M32,15.27A9.55,9.55,0,0,1,30.43,12,12.89,12.89,0,0,1,30,8.67a12.46,12.46,0,0,1,.43-3.3A9.55,9.55,0,0,1,32,2.07a9.55,9.55,0,0,1,1.57,3.3A12.46,12.46,0,0,1,34,8.67a12.89,12.89,0,0,1-.43,3.3A9.55,9.55,0,0,1,32,15.27Z"/><path class="cls-3" d="M13.68,33.22a9,9,0,0,1-3.19,1.57,12.22,12.22,0,0,1-6.39,0A9,9,0,0,1,.91,33.22,9.1,9.1,0,0,1,4.1,31.65a12,12,0,0,1,6.39,0A9,9,0,0,1,13.68,33.22Z"/><path class="cls-4" d="M50.32,33.22a9,9,0,0,1,3.19-1.56,12,12,0,0,1,6.39,0,9.1,9.1,0,0,1,3.19,1.57A9,9,0,0,1,59.9,34.8a12.22,12.22,0,0,1-6.39,0A9,9,0,0,1,50.32,33.22Z"/><path class="cls-5" d="M44.79,20.37a8.72,8.72,0,0,1,.91-3.66A10.4,10.4,0,0,1,47.62,14a9.84,9.84,0,0,1,2.68-1.9,8.53,8.53,0,0,1,3.69-.9,8.57,8.57,0,0,1-.91,3.66,10,10,0,0,1-1.92,2.66,10.25,10.25,0,0,1-2.68,1.91A8.87,8.87,0,0,1,44.79,20.37Z"/><path class="cls-6" d="M19.21,20.37a8.87,8.87,0,0,1-3.69-.9,10.25,10.25,0,0,1-2.68-1.91,10,10,0,0,1-1.92-2.66A8.57,8.57,0,0,1,10,11.24a8.53,8.53,0,0,1,3.69.9A9.84,9.84,0,0,1,16.38,14a10.4,10.4,0,0,1,1.92,2.67A8.72,8.72,0,0,1,19.21,20.37Z"/><path class="cls-7" d="M36.94,30.86l-5.08-5.09-5.09,5.09v4.32l3.69-3.69a24.83,24.83,0,0,0,0,3.76,19.61,19.61,0,0,0,.43,3,13.58,13.58,0,0,0,1,3,13.58,13.58,0,0,0,1-3,20.91,20.91,0,0,0,.43-3,26.2,26.2,0,0,0,0-3.76l3.68,3.69Z"/><path class="cls-8" d="M62.42,48.68c-5.09.62-10.19,1-15.28,1.17-2.55.13-5.09.16-7.64.25l-7.64.08-7.64-.08c-2.55-.08-5.1-.11-7.64-.25-5.1-.22-10.19-.55-15.28-1.17,5.09-.62,10.18-1,15.28-1.17,2.54-.14,5.09-.17,7.64-.25l7.64-.08,7.64.08c2.55.08,5.09.12,7.64.25C52.23,47.73,57.33,48.06,62.42,48.68Z"/><path class="cls-9" d="M3.61,55.09a34.34,34.34,0,0,1,6.08-1.18,56.28,56.28,0,0,1,6.08-.32,56.1,56.1,0,0,1,6.07.32,32.48,32.48,0,0,1,6.08,1.18,33.3,33.3,0,0,1-6.08,1.18,56.1,56.1,0,0,1-6.07.32,56.3,56.3,0,0,1-6.08-.33A33.44,33.44,0,0,1,3.61,55.09Z"/><path class="cls-10" d="M60.21,55.18a32.71,32.71,0,0,1-6,1.17,55.34,55.34,0,0,1-6,.33,55.18,55.18,0,0,1-6-.32,32.85,32.85,0,0,1-6-1.18,32,32,0,0,1,6-1.18,56.79,56.79,0,0,1,12,0A33.6,33.6,0,0,1,60.21,55.18Z"/><path class="cls-11" d="M21,60.89a27.26,27.26,0,0,1,5.45-1.18,46.49,46.49,0,0,1,10.89,0,26.49,26.49,0,0,1,5.44,1.18,27.88,27.88,0,0,1-5.44,1.18,45.28,45.28,0,0,1-5.45.32,47.27,47.27,0,0,1-5.44-.33A27.23,27.23,0,0,1,21,60.89Z"/></g></svg>