<?xml version="1.0" encoding="UTF-8"?>
<svg width="700pt" height="700pt" version="1.1" viewBox="0 0 700 700" xmlns="http://www.w3.org/2000/svg">
 <g fill="none" stroke="#000">
  <path transform="matrix(21.165 0 0 21.165 70 -5726.1)" d="m18.521 295.68c0-1.3853-0.57029-2.7621-1.5499-3.7417-0.97964-0.97964-2.3564-1.5499-3.7417-1.5499-1.3853 0-2.7621 0.57029-3.7417 1.5499-0.97964 0.97964-1.5499 2.3564-1.5499 3.7417" stroke-linecap="round" stroke-linejoin="round" stroke-width=".4"/>
  <path transform="matrix(21.165 0 0 21.165 70 -5726.1)" d="m3.9688 295.68h3.9688" stroke-linecap="round" stroke-linejoin="round" stroke-width=".4"/>
  <path transform="matrix(21.165 0 0 21.165 70 -5726.1)" d="m18.521 295.68h3.9688" stroke-linecap="round" stroke-linejoin="round" stroke-width=".4"/>
  <path transform="matrix(21.165 0 0 21.165 70 -5726.1)" d="m3.9688 295.68 5.2917-9.2604h7.9375l5.2917 9.2604" stroke-linecap="round" stroke-linejoin="round" stroke-width=".4"/>
  <path transform="matrix(21.165 0 0 21.165 70 -5726.1)" d="m11.906 281.65h-1.3229l-1.3229 3.9688h7.9375l-1.3229-3.9688zm0 0" stroke-linecap="round" stroke-linejoin="round" stroke-width=".4"/>
  <path transform="matrix(21.165 0 0 21.165 70 -5726.1)" d="m13.229 276.89h-1.3229l-1.3229 3.9688h5.2917l-1.3229-3.9688zm0 0" stroke-linecap="round" stroke-linejoin="round" stroke-width=".4"/>
  <path transform="matrix(21.165 0 0 21.165 70 -5726.1)" d="m13.229 271.86-1.3229 4.2334h2.6458zm0 0" stroke-linecap="round" stroke-linejoin="round" stroke-width=".4"/>
  <path transform="matrix(21.165 0 0 21.165 70 -5726.1)" d="m10.583 285.62v0.79379" stroke-width=".26458"/>
  <path transform="matrix(21.165 0 0 21.165 70 -5726.1)" d="m13.229 285.62v0.79379" stroke-width=".26458"/>
  <path transform="matrix(21.165 0 0 21.165 70 -5726.1)" d="m15.875 285.62v0.79379" stroke-width=".26458"/>
  <path transform="matrix(21.165 0 0 21.165 70 -5726.1)" d="m13.229 280.86v0.79379" stroke-width=".26458"/>
  <path transform="matrix(21.165 0 0 21.165 70 -5726.1)" d="m15.346 280.86v0.79379" stroke-width=".26458"/>
  <path transform="matrix(21.165 0 0 21.165 70 -5726.1)" d="m11.112 280.86v0.79379" stroke-width=".26458"/>
  <path transform="matrix(21.165 0 0 21.165 70 -5726.1)" d="m13.229 276.1v0.79379" stroke-width=".26458"/>
  <path transform="matrix(21.165 0 0 21.165 70 -5726.1)" d="m12.171 276.1v0.79379" stroke-width=".26458"/>
  <path transform="matrix(21.165 0 0 21.165 70 -5726.1)" d="m14.287 276.1v0.79379" stroke-width=".26458"/>
  <path transform="matrix(21.165 0 0 21.165 70 -5726.1)" d="m12.171 275.04h2.1165" stroke-width=".26458"/>
  <path transform="matrix(21.165 0 0 21.165 70 -5726.1)" d="m12.7 273.98h1.0583" stroke-width=".26458"/>
  <path transform="matrix(21.165 0 0 21.165 70 -5726.1)" d="m11.642 277.95h3.175" stroke-width=".26458"/>
  <path transform="matrix(21.165 0 0 21.165 70 -5726.1)" d="m11.112 279.01h3.9688" stroke-width=".26458"/>
  <path transform="matrix(21.165 0 0 21.165 70 -5726.1)" d="m10.848 280.07h4.7625" stroke-width=".26458"/>
  <path transform="matrix(21.165 0 0 21.165 70 -5726.1)" d="m10.319 282.71h5.8208" stroke-width=".26458"/>
  <path transform="matrix(21.165 0 0 21.165 70 -5726.1)" d="m9.7895 283.77h6.6146" stroke-width=".26458"/>
  <path transform="matrix(21.165 0 0 21.165 70 -5726.1)" d="m9.5251 284.83h7.4082" stroke-width=".26458"/>
  <path transform="matrix(21.165 0 0 21.165 70 -5726.1)" d="m8.7313 287.47h8.9958" stroke-width=".26458"/>
  <path transform="matrix(21.165 0 0 21.165 70 -5726.1)" d="m7.9375 288.8h10.583" stroke-width=".26458"/>
  <path transform="matrix(21.165 0 0 21.165 70 -5726.1)" d="m7.1437 290.12h12.171" stroke-width=".26458"/>
  <path transform="matrix(21.165 0 0 21.165 70 -5726.1)" d="m6.3499 291.44h3.7043" stroke-width=".26458"/>
  <path transform="matrix(21.165 0 0 21.165 70 -5726.1)" d="m5.5563 292.77h3.175" stroke-width=".26458"/>
  <path transform="matrix(21.165 0 0 21.165 70 -5726.1)" d="m4.7625 294.09h3.4396" stroke-width=".26458"/>
  <path transform="matrix(21.165 0 0 21.165 70 -5726.1)" d="m16.404 291.44h3.7041" stroke-width=".26458"/>
  <path transform="matrix(21.165 0 0 21.165 70 -5726.1)" d="m17.727 292.77h2.9105" stroke-width=".26458"/>
  <path transform="matrix(21.165 0 0 21.165 70 -5726.1)" d="m18.256 294.09h3.175" stroke-width=".26458"/>
 </g>
</svg>
