<?xml version="1.0" encoding="UTF-8"?>
<svg width="700" height="700" version="1.1" viewBox="0 0 700 700" xmlns="http://www.w3.org/2000/svg" xmlns:xlink="http://www.w3.org/1999/xlink">
 <defs>
  <symbol id="k" overflow="visible">
   <path d="m29.312-1.75c-1.5117 0.78125-3.0898 1.3711-4.7344 1.7656-1.6367 0.40625-3.3398 0.60938-5.1094 0.60938-5.3125 0-9.5273-1.4844-12.641-4.4531-3.1055-2.9688-4.6562-7-4.6562-12.094s1.5508-9.125 4.6562-12.094c3.1133-2.9688 7.3281-4.4531 12.641-4.4531 1.7695 0 3.4727 0.19922 5.1094 0.59375 1.6445 0.39844 3.2227 0.99219 4.7344 1.7812v6.5938c-1.5312-1.0391-3.0391-1.8008-4.5156-2.2812-1.4805-0.48828-3.0391-0.73438-4.6719-0.73438-2.9375 0-5.2461 0.94531-6.9219 2.8281-1.6797 1.875-2.5156 4.4648-2.5156 7.7656 0 3.293 0.83594 5.8828 2.5156 7.7656 1.6758 1.875 3.9844 2.8125 6.9219 2.8125 1.6328 0 3.1914-0.23828 4.6719-0.71875 1.4766-0.48828 2.9844-1.2539 4.5156-2.2969z"/>
  </symbol>
  <symbol id="h" overflow="visible">
   <path d="m21.453-17.406c-0.67969-0.3125-1.3516-0.53906-2.0156-0.6875-0.65625-0.15625-1.3203-0.23438-1.9844-0.23438-1.9688 0-3.4844 0.63281-4.5469 1.8906-1.0547 1.2617-1.5781 3.0703-1.5781 5.4219v11.016h-7.6562v-23.922h7.6562v3.9219c0.97656-1.5625 2.1016-2.7031 3.375-3.4219 1.2812-0.71875 2.8125-1.0781 4.5938-1.0781 0.25 0 0.52344 0.011719 0.82812 0.03125 0.30078 0.023438 0.73438 0.070312 1.2969 0.14062z"/>
  </symbol>
  <symbol id="a" overflow="visible">
   <path d="m27.562-12.031v2.1875h-17.891c0.1875 1.793 0.83203 3.1367 1.9375 4.0312 1.1133 0.89844 2.6719 1.3438 4.6719 1.3438 1.6016 0 3.25-0.23438 4.9375-0.70312 1.6875-0.47656 3.4219-1.2031 5.2031-2.1719v5.8906c-1.8047 0.6875-3.6094 1.2031-5.4219 1.5469-1.8125 0.35156-3.6211 0.53125-5.4219 0.53125-4.3359 0-7.7031-1.0977-10.109-3.2969-2.3984-2.207-3.5938-5.2969-3.5938-9.2656 0-3.9062 1.1758-6.9727 3.5312-9.2031 2.3633-2.2383 5.6094-3.3594 9.7344-3.3594 3.7578 0 6.7695 1.1367 9.0312 3.4062 2.2578 2.2617 3.3906 5.2812 3.3906 9.0625zm-7.8594-2.5312c0-1.457-0.42969-2.6289-1.2812-3.5156-0.84375-0.89453-1.9492-1.3438-3.3125-1.3438-1.4922 0-2.6992 0.41797-3.625 1.25-0.91797 0.83594-1.4922 2.0391-1.7188 3.6094z"/>
  </symbol>
  <symbol id="g" overflow="visible">
   <path d="m14.391-10.766c-1.5938 0-2.793 0.27344-3.5938 0.8125-0.80469 0.54297-1.2031 1.3398-1.2031 2.3906 0 0.96875 0.32031 1.7305 0.96875 2.2812 0.64453 0.54297 1.5469 0.8125 2.7031 0.8125 1.4375 0 2.6445-0.51562 3.625-1.5469 0.98828-1.0312 1.4844-2.3203 1.4844-3.875v-0.875zm11.688-2.8906v13.656h-7.7031v-3.5469c-1.0312 1.4492-2.1875 2.5078-3.4688 3.1719s-2.8398 1-4.6719 1c-2.4805 0-4.4961-0.72266-6.0469-2.1719-1.543-1.4453-2.3125-3.3203-2.3125-5.625 0-2.8125 0.96094-4.8672 2.8906-6.1719 1.9375-1.3125 4.9688-1.9688 9.0938-1.9688h4.5156v-0.60938c0-1.207-0.48047-2.0938-1.4375-2.6562-0.94922-0.5625-2.4375-0.84375-4.4688-0.84375-1.6367 0-3.1562 0.16797-4.5625 0.5-1.4062 0.32422-2.7188 0.8125-3.9375 1.4688v-5.8281c1.6445-0.40625 3.2891-0.70703 4.9375-0.90625 1.6562-0.20703 3.3047-0.3125 4.9531-0.3125 4.3203 0 7.4375 0.85547 9.3438 2.5625 1.9141 1.6992 2.875 4.4609 2.875 8.2812z"/>
  </symbol>
  <symbol id="f" overflow="visible">
   <path d="m12.031-30.719v6.7969h7.875v5.4688h-7.875v10.141c0 1.1172 0.21875 1.8711 0.65625 2.2656 0.4375 0.38672 1.3125 0.57812 2.625 0.57812h3.9375v5.4688h-6.5625c-3.0234 0-5.1641-0.62891-6.4219-1.8906-1.2617-1.2578-1.8906-3.3984-1.8906-6.4219v-10.141h-3.7969v-5.4688h3.7969v-6.7969z"/>
  </symbol>
  <symbol id="e" overflow="visible">
   <path d="m19.953-20.422v-12.812h7.6875v33.234h-7.6875v-3.4531c-1.0547 1.4062-2.2148 2.4375-3.4844 3.0938-1.2734 0.65625-2.7422 0.98438-4.4062 0.98438-2.9492 0-5.3711-1.1719-7.2656-3.5156-1.8867-2.3438-2.8281-5.3594-2.8281-9.0469s0.94141-6.7031 2.8281-9.0469c1.8945-2.3438 4.3164-3.5156 7.2656-3.5156 1.6562 0 3.1172 0.33594 4.3906 1 1.2812 0.65625 2.4453 1.6836 3.5 3.0781zm-5.0469 15.484c1.6445 0 2.8945-0.59766 3.75-1.7969 0.86328-1.1953 1.2969-2.9297 1.2969-5.2031 0-2.2812-0.43359-4.0195-1.2969-5.2188-0.85547-1.1953-2.1055-1.7969-3.75-1.7969-1.625 0-2.8711 0.60156-3.7344 1.7969-0.85547 1.1992-1.2812 2.9375-1.2812 5.2188 0 2.2734 0.42578 4.0078 1.2812 5.2031 0.86328 1.1992 2.1094 1.7969 3.7344 1.7969z"/>
  </symbol>
  <symbol id="d" overflow="visible">
   <path d="m16.406-4.9375c1.6328 0 2.8828-0.59766 3.75-1.7969 0.86328-1.1953 1.2969-2.9297 1.2969-5.2031 0-2.2812-0.43359-4.0195-1.2969-5.2188-0.86719-1.1953-2.1172-1.7969-3.75-1.7969-1.6367 0-2.8906 0.60547-3.7656 1.8125-0.875 1.1992-1.3125 2.9336-1.3125 5.2031 0 2.2617 0.4375 3.9961 1.3125 5.2031 0.875 1.1992 2.1289 1.7969 3.7656 1.7969zm-5.0781-15.484c1.0508-1.3945 2.2188-2.4219 3.5-3.0781 1.2812-0.66406 2.7539-1 4.4219-1 2.9453 0 5.3672 1.1719 7.2656 3.5156 1.8945 2.3438 2.8438 5.3594 2.8438 9.0469s-0.94922 6.7031-2.8438 9.0469c-1.8984 2.3438-4.3203 3.5156-7.2656 3.5156-1.668 0-3.1406-0.33594-4.4219-1s-2.4492-1.6914-3.5-3.0781v3.4531h-7.6562v-33.234h7.6562z"/>
  </symbol>
  <symbol id="c" overflow="visible">
   <path d="m0.53125-23.922h7.6562l6.4219 16.234 5.4688-16.234h7.6562l-10.062 26.188c-1.0117 2.6641-2.1953 4.5234-3.5469 5.5781-1.3438 1.0625-3.1211 1.5938-5.3281 1.5938h-4.4219v-5.0156h2.3906c1.3008 0 2.2422-0.21094 2.8281-0.625 0.59375-0.40625 1.0547-1.1484 1.3906-2.2188l0.20312-0.65625z"/>
  </symbol>
  <symbol id="b" overflow="visible">
   <path d="m4.0156-31.891h8.2188v25.672h14.453v6.2188h-22.672z"/>
  </symbol>
  <symbol id="j" overflow="visible">
   <path d="m0.65625-23.922h7.6562l5.9531 16.531 5.9375-16.531h7.6719l-9.4219 23.922h-8.3906z"/>
  </symbol>
  <symbol id="i" overflow="visible">
   <path d="m3.6719-23.922h7.6562v23.922h-7.6562zm0-9.3125h7.6562v6.2344h-7.6562z"/>
  </symbol>
 </defs>
 <g>
  <path d="m500.94 216.04c6.0547-13.512 8.0039-28.5 5.6094-43.109-2.3945-14.605-9.0312-28.188-19.086-39.055-13.199-12.77-30.809-19.977-49.172-20.125 0.61328-21.168-6.6523-41.809-20.391-57.926-17.625-18.711-42.191-29.324-67.898-29.324s-50.273 10.613-67.898 29.324c-13.738 16.117-21.004 36.758-20.391 57.926-18.402 0.22266-36.012 7.5234-49.172 20.387-10.055 10.867-16.691 24.449-19.086 39.059-2.3945 14.605-0.44531 29.598 5.6094 43.105-14.316 11.109-23.762 27.34-26.359 45.273-2.5938 17.934 1.8672 36.176 12.445 50.887 10.578 14.715 26.449 24.75 44.277 28 7.4375 23.625 22.383 44.176 42.566 58.531 20.184 14.355 44.5 21.73 69.258 21.008v96.25h-36.227c-4.832 0-8.75 3.918-8.75 8.75s3.918 8.75 8.75 8.75h88.727c4.832 0 8.75-3.918 8.75-8.75s-3.918-8.75-8.75-8.75h-35v-96.25c24.789 0.59375 49.102-6.8828 69.27-21.309 20.172-14.426 35.105-35.016 42.555-58.668 17.828-3.25 33.699-13.285 44.277-28 10.578-14.711 15.039-32.953 12.445-50.887-2.5977-17.934-12.043-34.164-26.359-45.273zm6.9141 70c-3.0547 9.9883-8.9492 18.875-16.969 25.57-8.0156 6.6953-17.809 10.914-28.184 12.141-3.5508 0.41016-6.4961 2.9375-7.4375 6.3867-6.2539 22.941-20.496 42.895-40.16 56.262-18.398 11.859-40.109 17.5-61.953 16.102h-6.3008 0.003906c-21.84 1.3945-43.555-4.25-61.953-16.102-19.559-13.379-33.707-33.297-39.898-56.172-0.94141-3.4492-3.8867-5.9805-7.4375-6.3906-10.348-1.2344-20.113-5.4453-28.113-12.125-8-6.6797-13.887-15.535-16.949-25.5-3.1094-11.141-2.5898-22.98 1.4844-33.805 4.0781-10.824 11.492-20.07 21.18-26.395 3.7383-2.4883 4.9844-7.4023 2.8867-11.375-6.1484-10.73-8.7578-23.129-7.4531-35.43 1.3008-12.301 6.4531-23.879 14.715-33.082 12.227-11.137 28.609-16.547 45.062-14.875 2.6836 0.25 5.3281-0.75391 7.1758-2.7109 1.8828-1.9531 2.7578-4.668 2.3633-7.3516-2.6758-19.457 2.9414-39.141 15.484-54.25 14.301-14.82 34.008-23.195 54.602-23.195s40.301 8.375 54.602 23.195c12.512 15.125 18.098 34.809 15.398 54.25-0.39453 2.6836 0.47656 5.3984 2.3633 7.3516 1.8477 1.957 4.4922 2.9609 7.1758 2.7109 16.566-1.7734 33.102 3.6445 45.41 14.875 8.2656 9.2031 13.414 20.781 14.719 33.082 1.3008 12.301-1.3047 24.699-7.457 35.43-2.0977 3.9727-0.85156 8.8867 2.8906 11.375 9.6367 6.3633 17 15.621 21.027 26.445 4.0273 10.82 4.5078 22.641 1.3711 33.754z"/>
  <path d="m376.25 157.5c2.3203 0 4.5469-0.92188 6.1875-2.5625s2.5625-3.8672 2.5625-6.1875c0-12.504-6.6719-24.059-17.5-30.312-10.828-6.25-24.172-6.25-35 0-10.828 6.2539-17.5 17.809-17.5 30.312 0 4.832 3.918 8.75 8.75 8.75s8.75-3.918 8.75-8.75c0-6.2539 3.3359-12.031 8.75-15.156s12.086-3.125 17.5 0 8.75 8.9023 8.75 15.156c0 2.3203 0.92188 4.5469 2.5625 6.1875s3.8672 2.5625 6.1875 2.5625z"/>
  <path d="m270.73 233.45c2.3242 0.015625 4.5586-0.89844 6.2109-2.5352 1.6562-1.6445 2.5898-3.8828 2.5898-6.2148s-0.93359-4.5703-2.5898-6.2109c-3.2578-3.2812-5.0898-7.7148-5.0898-12.34 0-4.6211 1.832-9.0586 5.0898-12.336 3.2773-3.2578 7.7148-5.0898 12.336-5.0898 4.625 0 9.0586 1.832 12.34 5.0898 3.4297 3.4297 8.9922 3.4297 12.426 0 3.4297-3.4297 3.4297-8.9922 0-12.426-8.8477-8.8477-21.742-12.301-33.828-9.0625-12.086 3.2383-21.523 12.676-24.762 24.762-3.2383 12.086 0.21484 24.98 9.0625 33.828 1.6523 1.6367 3.8867 2.5508 6.2148 2.5352z"/>
  <path d="m385.96 193.81c1.6445 1.6562 3.8828 2.5898 6.2148 2.5898s4.5703-0.93359 6.2109-2.5898c3.2812-3.2578 7.7148-5.0898 12.34-5.0898 4.6211 0 9.0586 1.832 12.336 5.0898 3.2578 3.2773 5.0898 7.7148 5.0898 12.336 0 4.625-1.832 9.0586-5.0898 12.34-1.6562 1.6406-2.5898 3.8789-2.5898 6.2109s0.93359 4.5703 2.5898 6.2148c1.6445 1.6562 3.8789 2.5859 6.2109 2.5859 2.3359 0 4.5703-0.92969 6.2148-2.5859 8.8477-8.8477 12.301-21.742 9.0625-33.828-3.2383-12.086-12.676-21.523-24.762-24.762-12.086-3.2383-24.98 0.21484-33.828 9.0625-1.6562 1.6445-2.5859 3.8789-2.5859 6.2148 0 2.332 0.92969 4.5664 2.5859 6.2109z"/>
  <path d="m455 262.5c-35.789 0-61.25 10.062-76.387 29.926-22.574 30.012-11.289 70-10.762 72.188 1.1211 3.8594 4.7305 6.4609 8.75 6.3008 0.8125 0.11328 1.6367 0.11328 2.4492 0 2.3086-0.64453 4.2539-2.207 5.3789-4.3242 1.1211-2.1172 1.3281-4.6055 0.57031-6.8789 0 0-9.4492-33.688 7.875-56.699 11.113-15.312 32.199-23.012 62.125-23.012 4.832 0 8.75-3.918 8.75-8.75s-3.918-8.75-8.75-8.75z"/>
  <path d="m245 262.5c-4.832 0-8.75 3.918-8.75 8.75s3.918 8.75 8.75 8.75c29.926 0 50.926 7.6992 62.387 22.926 17.5 22.836 8.0508 56.352 7.9609 56.789l0.003906-0.003906c-1.3555 4.6406 1.3086 9.5 5.9492 10.852 0.8125 0.11328 1.6367 0.11328 2.4492 0 4.0195 0.16016 7.6289-2.4375 8.75-6.3008 0.52344-1.75 11.812-42.176-10.762-72.188-15.488-19.512-40.949-29.574-76.738-29.574z"/>
  <use x="70" y="691.25" xlink:href="#k"/>
  <use x="102.109375" y="691.25" xlink:href="#h"/>
  <use x="123.683594" y="691.25" xlink:href="#a"/>
  <use x="153.355469" y="691.25" xlink:href="#g"/>
  <use x="182.878906" y="691.25" xlink:href="#f"/>
  <use x="203.792969" y="691.25" xlink:href="#a"/>
  <use x="233.464844" y="691.25" xlink:href="#e"/>
  <use x="280.011719" y="691.25" xlink:href="#d"/>
  <use x="311.328125" y="691.25" xlink:href="#c"/>
  <use x="355.078125" y="691.25" xlink:href="#b"/>
  <use x="382.957031" y="691.25" xlink:href="#a"/>
  <use x="412.628906" y="691.25" xlink:href="#j"/>
  <use x="441.148438" y="691.25" xlink:href="#i"/>
 </g>
</svg>
