<?xml version="1.0" encoding="UTF-8"?>
<svg width="1200pt" height="1200pt" version="1.1" viewBox="0 0 1200 1200" xmlns="http://www.w3.org/2000/svg">
 <g>
  <path d="m1010.5 126.31h-252.65v-94.742c0-17.496-14.074-31.57-31.559-31.57h-252.65c-17.496 0-31.57 14.074-31.57 31.57v94.738l-252.64 0.003906c-34.992 0-63.156 28.176-63.156 63.156 0 35.004 28.164 63.156 63.156 63.156h821.06c34.98 0 63.156-28.164 63.156-63.156-0.007812-34.98-28.172-63.156-63.152-63.156zm-315.8 0h-189.47v-63.156h189.47z"/>
  <path d="m189.47 315.79c-34.992 0-67.922 28.645-62.172 63.156l125.33 757.89c5.7148 34.512 28.176 63.156 63.168 63.156h568.43c34.992 0 57.395-28.645 63.145-63.168l125.35-757.89c5.6992-34.512-27.203-63.156-62.184-63.156h-821.07z"/>
 </g>
</svg>
