<?xml version="1.0" encoding="UTF-8"?>
<svg width="16px" height="16px" viewBox="0 0 16 16" version="1.1" xmlns="http://www.w3.org/2000/svg" xmlns:xlink="http://www.w3.org/1999/xlink">
    <!-- Generator: Sketch 53.2 (72643) - https://sketchapp.com -->
    <title>icon/normal/spring</title>
    <desc>Created with Sketch.</desc>
    <g id="icon/normal/spring" stroke="none" stroke-width="1" fill="none" fill-rule="evenodd">
        <path d="M0.474699046,10.365686 L5.03917724,0.5917562 C5.20711893,0.231932483 5.58398154,1.24344979e-14 5.99999396,1.24344979e-14 C6.41600637,1.24344979e-14 6.79286898,0.231932483 6.96081067,0.5917562 L10.9710407,9.17950212 C10.0324244,9.06284146 9.03455896,9 8,9 C4.99949246,9 2.3076364,9.52859764 0.474699046,10.365686 Z M8,15 C11.3417607,15 14,13.8370203 14,13 C14,12.1629797 11.3417607,11 8,11 C4.65823933,11 2,12.1629797 2,13 C2,13.8370203 4.65823933,15 8,15 Z M8,16 C3.581722,16 0,14.6568542 0,13 C0,11.3431458 3.581722,10 8,10 C12.418278,10 16,11.3431458 16,13 C16,14.6568542 12.418278,16 8,16 Z M8,14 C5.790861,14 4,13.3284271 4,12.5 C4,11.6715729 5.790861,11 8,11 C10.209139,11 12,11.6715729 12,12.5 C12,13.3284271 10.209139,14 8,14 Z" id="icon" fill="#7C7CF0" fill-rule="nonzero"></path>
    </g>
</svg>