<svg xmlns="http://www.w3.org/2000/svg" width="335.06" height="313.088" viewBox="0 0 335.06 313.088">
  <g id="Group_771" data-name="Group 771" transform="translate(-59.228 -18.527)">
    <path id="Path_84" data-name="Path 84" d="M366.646,246.431C339.093,258.6,322.79,280.3,309.588,309.574c0,.115-.115.115-.115.23a2.512,2.512,0,0,1-.344.574,25.71,25.71,0,0,1-11.251,12.284c-11.366,6.2-27.094,4.363-38,1.722a102.111,102.111,0,0,1-12.514-3.789c-.23-.115-.459-.115-.689-.23-23.42-7.118-15.384,15.5-53.155,19.861a72.416,72.416,0,0,1-10.1.344h0c-19.287-.8-42.134-8.955-59.814-16.647-9.873-4.363-18.254-8.5-23.306-11.251a27.984,27.984,0,0,1-11.94-11.71c-10.218-18.828-2.755-43.167,3.559-57.4a31.657,31.657,0,0,0-1.148-27.668c-4.937-9.3-13.777-19.747-22.617-30.309s-9.184-39.493-8.84-45.578c11.366-190.348,279.9-91.615,319.046-45.348C406.254,127.607,394.429,234.032,366.646,246.431Z" transform="translate(0 -9)" fill="#efb2ce"/>
    <g id="_3934978" data-name="3934978" transform="translate(133.718 91.681)">
      <g id="Group_772" data-name="Group 772" transform="translate(-108.99 -257.882)">
        <path id="Rectangle_203" d="M266.637,397.7h71.725A17.564,17.564,0,0,1,356,415.337V581.52a17.564,17.564,0,0,1-17.637,17.637H266.637A17.564,17.564,0,0,1,249,581.52V415.337A17.564,17.564,0,0,1,266.637,397.7Z" transform="translate(-134 -162.157)" fill="#2b478b"/>
        <path id="Path_91" d="M348.118,410.686V580a10.455,10.455,0,0,1-10.386,10.386H262.086A10.455,10.455,0,0,1,251.7,580V410.686A10.455,10.455,0,0,1,262.086,400.3h75.645A10.329,10.329,0,0,1,348.118,410.686Z" transform="translate(-131.409 -159.662)" fill="#fff"/>
        <path id="Rectangle_204" d="M270.8,398.3h30.963a5.188,5.188,0,0,1,5.1,5.1h0a5.188,5.188,0,0,1-5.1,5.1H270.8a5.188,5.188,0,0,1-5.1-5.1h0A5.188,5.188,0,0,1,270.8,398.3Z" transform="translate(-117.974 -161.582)" fill="#2b478b"/>
      </g>
      <g id="Group_774" data-name="Group 774">
        <path id="Path_194" data-name="Path 194" d="M2.35,0H23.488a2.35,2.35,0,0,1,2.35,2.35V23.488a2.35,2.35,0,0,1-2.35,2.35H2.35A2.35,2.35,0,0,1,0,23.488V2.35A2.35,2.35,0,0,1,2.35,0Z" transform="translate(20.266 33.079)" fill="#efb2ce"/>
        <rect id="Rectangle_203-2" data-name="Rectangle 203" width="25.838" height="25.838" rx="2.35" transform="translate(20.266 64.839)" fill="#efb2ce"/>
        <rect id="Rectangle_205" data-name="Rectangle 205" width="80.807" height="25.838" rx="2.1" transform="translate(61.643 33.079)" fill="#d60664"/>
        <rect id="Rectangle_206" data-name="Rectangle 206" width="45.846" height="2.273" rx="0.7" transform="translate(92.058 40.81)" fill="#fff"/>
        <rect id="Rectangle_207" data-name="Rectangle 207" width="45.846" height="2.273" rx="0.7" transform="translate(92.058 45.789)" fill="#fff"/>
        <rect id="Rectangle_208" data-name="Rectangle 208" width="45.846" height="2.273" rx="0.7" transform="translate(92.058 50.335)" fill="#fff"/>
        <path id="Path_141" data-name="Path 141" d="M361.987,167.435h0a9.277,9.277,0,0,1-9.277-9.277h0a9.277,9.277,0,0,1,9.277-9.277h0a9.277,9.277,0,0,1,9.277,9.277h0A9.277,9.277,0,0,1,361.987,167.435Z" transform="translate(-286.181 -112.523)" fill="#ed7d2b"/>
        <path id="Path_142" data-name="Path 142" d="M361.166,161.321v1.423h-1.794V161.4a7.5,7.5,0,0,1-3.263-.912l.99-2.18a6.184,6.184,0,0,0,2.938.835c.85,0,1.16-.17,1.16-.479,0-1.129-4.932-.263-4.9-3.587,0-1.438,1.067-2.644,3.092-2.922V150.76h1.794v1.361a6.665,6.665,0,0,1,2.582.758l-.928,2.18a5.5,5.5,0,0,0-2.474-.68c-.881,0-1.16.247-1.16.557,0,1.067,4.933.216,4.9,3.51C364.151,159.806,363.145,161,361.166,161.321Z" transform="translate(-284.324 -111.496)" fill="#fff"/>
        <path id="Path_193" data-name="Path 193" d="M2.1,0H78.707a2.1,2.1,0,0,1,2.1,2.1V23.738a2.1,2.1,0,0,1-2.1,2.1H2.1a2.1,2.1,0,0,1-2.1-2.1V2.1A2.1,2.1,0,0,1,2.1,0Z" transform="translate(61.643 64.839)" fill="#d60664"/>
        <rect id="Rectangle_210" data-name="Rectangle 210" width="45.846" height="2.273" rx="0.7" transform="translate(92.058 72.554)" fill="#fff"/>
        <rect id="Rectangle_211" data-name="Rectangle 211" width="45.846" height="2.273" rx="0.7" transform="translate(92.058 77.549)" fill="#fff"/>
        <rect id="Rectangle_212" data-name="Rectangle 212" width="45.846" height="2.273" rx="0.7" transform="translate(92.058 82.094)" fill="#fff"/>
        <path id="Path_143" data-name="Path 143" d="M361.987,187.975h0a9.277,9.277,0,0,1-9.277-9.277h0a9.277,9.277,0,0,1,9.277-9.277h0a9.277,9.277,0,0,1,9.277,9.277h0a9.277,9.277,0,0,1-9.277,9.277Z" transform="translate(-286.181 -101.303)" fill="#2b478b"/>
        <path id="Path_144" data-name="Path 144" d="M358.569,175.23a1.794,1.794,0,1,1,1.794,1.794A1.794,1.794,0,0,1,358.569,175.23Zm-2.458.4a4.206,4.206,0,0,0,.588,2.258c.186.325.387.634.557.959l3.092,5.536,2.01-3.634c.541-.959,1.113-1.9,1.67-2.845a4.253,4.253,0,1,0-7.917-2.273Z" transform="translate(-284.324 -100.17)" fill="#fff"/>
      </g>
      <g id="Group_773" data-name="Group 773" transform="translate(-33 2.552)">
        <path id="Path_154" data-name="Path 154" d="M142.065,44.348,138.8,49.775l-4.9,8.149-15.818,26.3L117,83.592l14.89-26.827,4.608-8.319,3.077-5.536Z" transform="translate(63.905 23.428)" fill="#122052"/>
        <path id="Path_155" data-name="Path 155" d="M133.542,47.82l-4.9,8.149-2.01-1.16,4.608-8.319Z" transform="translate(69.165 25.384)" fill="#f99746"/>
        <path id="Path_156" data-name="Path 156" d="M148.9,48.063l-3.943,4.963-5.907,7.437L119.97,84.492l-.99-.758,18.23-24.694,5.644-7.638,3.757-5.1Z" transform="translate(64.986 25.28)" fill="#122052"/>
        <path id="Path_157" data-name="Path 157" d="M138.517,51.224l-5.907,7.437-1.84-1.423,5.644-7.638Z" transform="translate(71.427 27.083)" fill="#f99746"/>
        <path id="Path_158" data-name="Path 158" d="M406.873,187.56l-.649,2.551a8.893,8.893,0,0,0-1.654-.526,7.977,7.977,0,0,0-1.546-.186,5.025,5.025,0,0,0-2.335.464l-.17.077a4.056,4.056,0,0,0-.541.356,4.36,4.36,0,0,0-1.407,2.01l-.108.356a1.778,1.778,0,0,1-1.546,1.283h0a1.778,1.778,0,0,1-1.84-2.165h0a8.334,8.334,0,0,1,1.252-2.907,7.2,7.2,0,0,1,2.026-1.948,5.7,5.7,0,0,1,.634-.356,6.185,6.185,0,0,1,2.984-.588,9.617,9.617,0,0,1,3.093.7,10.823,10.823,0,0,1,1.809.881Z" transform="translate(-263.063 -92.261)" fill="#ed7d2b"/>
        <path id="Path_159" data-name="Path 159" d="M400.04,189.283a4.36,4.36,0,0,0-1.407,2.01,9.061,9.061,0,0,0-3.6-.557,8.334,8.334,0,0,1,1.253-2.907,6.618,6.618,0,0,1,3.757,1.453Z" transform="translate(-263.064 -91.247)" fill="#f99746"/>
        <path id="Path_160" data-name="Path 160" d="M401.7,189.417a5.026,5.026,0,0,0-2.335.464l-.17.077a10.423,10.423,0,0,0-1.639-3.417,6.184,6.184,0,0,1,2.984-.588A4.917,4.917,0,0,1,401.7,189.417Z" transform="translate(-261.682 -92.277)" fill="#f99746"/>
        <path id="Path_161" data-name="Path 161" d="M403.5,187.328l-.649,2.551a8.893,8.893,0,0,0-1.654-.526,8.134,8.134,0,0,0,.464-2.953,10.824,10.824,0,0,1,1.84.928Z" transform="translate(-259.693 -92.028)" fill="#f99746"/>
        <path id="Path_162" data-name="Path 162" d="M423.752,187.738l-1.67,2.026a8.892,8.892,0,0,0-1.283-1.175,7.963,7.963,0,0,0-1.268-.8,5.025,5.025,0,0,0-2.319-.572h-.186a4.053,4.053,0,0,0-.649.093,4.361,4.361,0,0,0-2.118,1.221l-.155.34a1.778,1.778,0,0,1-2.01.479h0a1.778,1.778,0,0,1-.742-2.737h0a8.319,8.319,0,0,1,2.366-2.1,7.206,7.206,0,0,1,2.66-.912,5.689,5.689,0,0,1,.727,0,6.185,6.185,0,0,1,2.953.742,9.616,9.616,0,0,1,2.5,1.933,10.826,10.826,0,0,1,1.191,1.469Z" transform="translate(-254.352 -93.567)" fill="#ed7d2b"/>
        <path id="Path_163" data-name="Path 163" d="M416.331,187.027a4.361,4.361,0,0,0-2.118,1.221,9.061,9.061,0,0,0-3.093-2.026,8.318,8.318,0,0,1,2.366-2.1,6.618,6.618,0,0,1,2.845,2.907Z" transform="translate(-254.275 -93.274)" fill="#f99746"/>
        <path id="Path_164" data-name="Path 164" d="M417.4,187.84a5.025,5.025,0,0,0-2.319-.572H414.9a10.424,10.424,0,0,0,0-3.788,6.185,6.185,0,0,1,2.953.742A4.917,4.917,0,0,1,417.4,187.84Z" transform="translate(-252.21 -93.623)" fill="#f99746"/>
        <path id="Path_165" data-name="Path 165" d="M420.283,186.844l-1.67,2.026a8.892,8.892,0,0,0-1.283-1.175A8.135,8.135,0,0,0,419,185.22a10.821,10.821,0,0,1,1.283,1.624Z" transform="translate(-250.883 -92.673)" fill="#de7061"/>
        <path id="Path_166" data-name="Path 166" d="M438.868,192.63l-2.242,1.376a8.878,8.878,0,0,0-.82-1.546,7.961,7.961,0,0,0-.943-1.16,5.025,5.025,0,0,0-1.995-1.3h-.17a4.028,4.028,0,0,0-.634-.124,4.36,4.36,0,0,0-2.4.464l-.325.17a1.778,1.778,0,0,1-2.056-.2h0a1.778,1.778,0,0,1,.186-2.83h0a8.318,8.318,0,0,1,2.922-1.222,7.2,7.2,0,0,1,2.814,0,5.654,5.654,0,0,1,.711.186,6.185,6.185,0,0,1,2.551,1.655,9.617,9.617,0,0,1,1.732,2.644A10.824,10.824,0,0,1,438.868,192.63Z" transform="translate(-245.779 -92.181)" fill="#ed7d2b"/>
        <path id="Path_167" data-name="Path 167" d="M431.772,189.825a4.36,4.36,0,0,0-2.4.464,9.061,9.061,0,0,0-2.2-2.907,8.321,8.321,0,0,1,2.922-1.222,6.618,6.618,0,0,1,1.67,3.665Z" transform="translate(-245.502 -92.159)" fill="#f99746"/>
        <path id="Path_168" data-name="Path 168" d="M432.765,191.206a5.026,5.026,0,0,0-1.995-1.3h-.17a10.422,10.422,0,0,0,1.206-3.587,6.185,6.185,0,0,1,2.551,1.654,4.932,4.932,0,0,1-1.593,3.232Z" transform="translate(-243.634 -92.072)" fill="#f99746"/>
        <path id="Path_169" data-name="Path 169" d="M435.642,191.024,433.4,192.4a8.878,8.878,0,0,0-.82-1.546,8.134,8.134,0,0,0,2.381-1.794A10.82,10.82,0,0,1,435.642,191.024Z" transform="translate(-242.552 -90.575)" fill="#f99746"/>
        <path id="Path_170" data-name="Path 170" d="M460.067,196.268H392.62s12.71-10.3,33.26-10.3a61.108,61.108,0,0,1,34.187,10.3Z" transform="translate(-264.38 -92.263)" fill="#fff"/>
        <rect id="Rectangle_213" data-name="Rectangle 213" width="3.386" height="1.144" rx="0.35" transform="translate(148.756 100.216) rotate(150)" fill="#ebebfb"/>
        <rect id="Rectangle_214" data-name="Rectangle 214" width="3.386" height="1.144" rx="0.35" transform="translate(171.093 97.228) rotate(150)" fill="#ebebfb"/>
        <path id="Path_171" data-name="Path 171" d="M414.129,190.329l-.835-2.134a.541.541,0,0,1,.309-.711h0a.541.541,0,0,1,.711.309l.835,2.134a.541.541,0,0,1-.309.711h0a.541.541,0,0,1-.711-.309Z" transform="translate(-253.109 -91.458)" fill="#ebebfb"/>
        <path id="Path_172" data-name="Path 172" d="M401.952,193.023h-2.845a.572.572,0,0,1,.186-1.113h.186l2.1.742A.588.588,0,0,1,401.952,193.023Z" transform="translate(-261.048 -89.018)" fill="#ebebfb"/>
        <path id="Path_173" data-name="Path 173" d="M402.719,190.017l-1.005,2.057a.541.541,0,0,1-.727.247h0a.541.541,0,0,1-.247-.727l1.005-2.056a.541.541,0,0,1,.727-.247h0a.541.541,0,0,1,.247.727Z" transform="translate(-259.976 -90.48)" fill="#ebebfb"/>
        <rect id="Rectangle_215" data-name="Rectangle 215" width="3.386" height="1.144" rx="0.35" transform="translate(181.655 102.515) rotate(-63.87)" fill="#ebebfb"/>
        <rect id="Rectangle_216" data-name="Rectangle 216" width="3.386" height="1.144" rx="0.35" transform="translate(171.885 99.744) rotate(37.68)" fill="#ebebfb"/>
        <path id="Path_174" data-name="Path 174" d="M418.294,192.257a.572.572,0,0,1-.247.464l-.572.4H415.48l1.825-1.283a.572.572,0,0,1,.912.464Z" transform="translate(-251.893 -89.118)" fill="#ebebfb"/>
        <path id="Path_175" data-name="Path 175" d="M410.206,190.162l1.747,1.407a.541.541,0,0,1,0,.773h0a.541.541,0,0,1-.773,0l-1.763-1.469a.541.541,0,0,1,0-.773h0a.541.541,0,0,1,.789.062Z" transform="translate(-255.293 -90.085)" fill="#ebebfb"/>
        <rect id="Rectangle_217" data-name="Rectangle 217" width="3.386" height="1.144" rx="0.35" transform="translate(130.002 99.931) rotate(39.77)" fill="#fff"/>
        <rect id="Rectangle_218" data-name="Rectangle 218" width="3.386" height="1.144" rx="0.35" transform="translate(127.977 102.165)" fill="#fff"/>
        <rect id="Rectangle_219" data-name="Rectangle 219" width="3.386" height="1.144" rx="0.35" transform="translate(135.567 99.565) rotate(132.65)" fill="#fff"/>
        <rect id="Rectangle_220" data-name="Rectangle 220" width="3.386" height="1.144" rx="0.35" transform="translate(135.909 97.975)" fill="#fff"/>
        <rect id="Rectangle_221" data-name="Rectangle 221" width="3.386" height="1.144" rx="0.35" transform="translate(138.98 95.875) rotate(45)" fill="#fff"/>
        <rect id="Rectangle_222" data-name="Rectangle 222" width="3.386" height="1.144" rx="0.35" transform="translate(142.358 96.128) rotate(127.68)" fill="#fff"/>
        <rect id="Rectangle_223" data-name="Rectangle 223" width="3.386" height="1.144" rx="0.35" transform="translate(156.04 91.811) rotate(105.22)" fill="#fff"/>
        <rect id="Rectangle_224" data-name="Rectangle 224" width="3.386" height="1.144" rx="0.35" transform="translate(158.568 93.124) rotate(144.99)" fill="#fff"/>
        <rect id="Rectangle_225" data-name="Rectangle 225" width="3.386" height="1.144" rx="0.35" transform="translate(150.428 93.31) rotate(12.33)" fill="#fff"/>
        <path id="Path_176" data-name="Path 176" d="M405.3,188.226l1.871-1.314a.541.541,0,0,0,.139-.758h0a.541.541,0,0,0-.758-.139l-1.871,1.314a.541.541,0,0,0-.139.758h0a.541.541,0,0,0,.758.139Z" transform="translate(-257.92 -92.292)" fill="#fff"/>
        <rect id="Rectangle_226" data-name="Rectangle 226" width="3.386" height="1.144" rx="0.35" transform="translate(146.43 93.629) rotate(99.98)" fill="#fff"/>
        <rect id="Rectangle_227" data-name="Rectangle 227" width="3.386" height="1.144" rx="0.35" transform="translate(144.639 95.271) rotate(120)" fill="#fff"/>
        <rect id="Rectangle_228" data-name="Rectangle 228" width="3.386" height="1.144" rx="0.35" transform="translate(193.995 100.802) rotate(140.23)" fill="#fff"/>
        <rect id="Rectangle_229" data-name="Rectangle 229" width="3.386" height="1.144" rx="0.35" transform="translate(195.3 103.309) rotate(180)" fill="#fff"/>
        <rect id="Rectangle_230" data-name="Rectangle 230" width="3.386" height="1.144" rx="0.35" transform="translate(188.501 98.762) rotate(47.35)" fill="#fff"/>
        <rect id="Rectangle_231" data-name="Rectangle 231" width="3.386" height="1.144" rx="0.35" transform="translate(187.353 99.134) rotate(180)" fill="#fff"/>
        <rect id="Rectangle_232" data-name="Rectangle 232" width="3.386" height="1.144" rx="0.35" transform="translate(185.059 96.703) rotate(135)" fill="#fff"/>
        <rect id="Rectangle_233" data-name="Rectangle 233" width="3.386" height="1.144" rx="0.35" transform="translate(181.833 95.413) rotate(52.32)" fill="#fff"/>
        <rect id="Rectangle_234" data-name="Rectangle 234" width="3.386" height="1.144" rx="0.35" transform="translate(168.274 91.559) rotate(74.79)" fill="#fff"/>
        <path id="Path_177" data-name="Path 177" d="M418.545,187.566l-1.871-1.314a.541.541,0,0,1-.139-.758h0a.541.541,0,0,1,.758-.139l1.871,1.314a.541.541,0,0,1,.139.758h0a.541.541,0,0,1-.758.139Z" transform="translate(-251.371 -92.653)" fill="#fff"/>
        <rect id="Rectangle_235" data-name="Rectangle 235" width="3.386" height="1.144" rx="0.35" transform="translate(173.083 94.421) rotate(167.67)" fill="#fff"/>
        <rect id="Rectangle_236" data-name="Rectangle 236" width="3.386" height="1.144" rx="0.35" transform="translate(162.361 93.481) rotate(156.26)" fill="#fff"/>
        <path id="Path_178" data-name="Path 178" d="M414.945,187.6l.495-2.242a.541.541,0,0,1,.649-.417h0a.541.541,0,0,1,.417.649l-.495,2.242a.541.541,0,0,1-.649.417h0a.541.541,0,0,1-.417-.649Z" transform="translate(-252.193 -92.831)" fill="#fff"/>
        <rect id="Rectangle_237" data-name="Rectangle 237" width="3.386" height="1.144" rx="0.35" transform="matrix(0.819, 0.574, -0.574, 0.819, 174.229, 93.37)" fill="#fff"/>
        <path id="Path_179" data-name="Path 179" d="M424.535,188.735l-.4-2.258a.541.541,0,0,1,.448-.634h0a.541.541,0,0,1,.634.448l.4,2.258a.541.541,0,0,1-.448.634h0a.541.541,0,0,1-.634-.448Z" transform="translate(-247.171 -92.337)" fill="#fff"/>
        <rect id="Rectangle_238" data-name="Rectangle 238" width="3.386" height="1.144" rx="0.35" transform="translate(179.607 94.689) rotate(60)" fill="#fff"/>
        <path id="Path_180" data-name="Path 180" d="M408.518,190.06v.155c-.155,2.706-1.979,3.092-2.335,3.092h0A3.092,3.092,0,0,1,408.518,190.06Z" transform="translate(-256.977 -90.029)" fill="#122052"/>
        <path id="Path_181" data-name="Path 181" d="M410.028,187h.124a2.938,2.938,0,0,1,1.685,3.541h0A3.093,3.093,0,0,1,410.028,187Z" transform="translate(-254.915 -91.7)" fill="#122052"/>
        <path id="Path_182" data-name="Path 182" d="M428.271,190.442v.139c-.99,2.52-2.845,2.335-3.2,2.273h0A3.092,3.092,0,0,1,428.271,190.442Z" transform="translate(-246.655 -89.823)" fill="#122052"/>
        <path id="Path_183" data-name="Path 183" d="M417.4,188.41v.139a2.938,2.938,0,0,1-1.407,3.665h0A3.093,3.093,0,0,1,417.4,188.41Z" transform="translate(-251.723 -90.93)" fill="#122052"/>
        <path id="Path_184" data-name="Path 184" d="M398.108,191.28v.139a3.99,3.99,0,0,1-.711,1.948H395.68A3.216,3.216,0,0,1,398.108,191.28Z" transform="translate(-262.709 -89.363)" fill="#122052"/>
        <path id="Path_185" data-name="Path 185" d="M422.37,187.15h.139c2.428,1.191,2.087,3.092,2.01,3.371h0a3.093,3.093,0,0,1-2.149-3.371Z" transform="translate(-248.145 -91.619)" fill="#122052"/>
        <path id="Path_186" data-name="Path 186" d="M433.85,193.247h-1.763a3.5,3.5,0,0,1-.216-1.747h.139a3.664,3.664,0,0,1,1.84,1.747Z" transform="translate(-242.957 -89.242)" fill="#122052"/>
        <path id="Path_187" data-name="Path 187" d="M467.441,192.64,462.8,217.38l-.108.6-.294,1.546-.108.6v.34l-.387,2.026-4.84,25.714-.263,1.376-.139.773-.232,1.252-1.206,6.432-.4,2.149-2.613,13.916a264.55,264.55,0,0,1-47.624,0L401.973,260.2l-.4-2.149-1.206-6.432-.232-1.252-.155-.773-.263-1.376-4.84-25.714-.387-2.026v-.34l-.108-.6-.294-1.546-.108-.6-4.639-24.74Z" transform="translate(-266.172 -88.62)" fill="#ed7d2b"/>
        <circle id="Ellipse_34" data-name="Ellipse 34" cx="12.726" cy="12.726" r="12.726" transform="translate(149.996 136.77)" fill="#2b478b"/>
        <circle id="Ellipse_35" data-name="Ellipse 35" cx="10.932" cy="10.932" r="10.932" transform="translate(151.789 138.563)" fill="#d60664"/>
        <path id="Path_188" data-name="Path 188" d="M151.375,83.61l-.294,1.546-.108.6H83.062l-.108-.6L82.66,83.61Z" transform="translate(45.147 45.66)" fill="#2b478b"/>
        <path id="Path_189" data-name="Path 189" d="M141.185,109.52l-.4,2.149H87.932l-.4-2.149Z" transform="translate(47.807 59.814)" fill="#2b478b"/>
        <path id="Path_190" data-name="Path 190" d="M157.8,67.28,144.971,89.345H93.465L79.58,67.28Z" transform="translate(43.464 36.74)" fill="#f99746"/>
        <path id="Path_191" data-name="Path 191" d="M76.149,88.062l9.417-12.973L84.1,67.28,71.34,88.062Z" transform="translate(38.963 36.74)" fill="#f99746"/>
        <path id="Path_192" data-name="Path 192" d="M143.43,88.062,130.689,67.28l-1.469,7.809,9.417,12.973Z" transform="translate(70.58 36.74)" fill="#f99746"/>
      </g>
    </g>
  </g>
</svg>
