<?xml version="1.0" standalone="no"?>
<!DOCTYPE svg PUBLIC "-//W3C//DTD SVG 20010904//EN"
 "http://www.w3.org/TR/2001/REC-SVG-20010904/DTD/svg10.dtd">
<svg version="1.0" xmlns="http://www.w3.org/2000/svg"
 width="1024.000000pt" height="1024.000000pt" viewBox="0 0 1024.000000 1024.000000"
 preserveAspectRatio="xMidYMid meet">
<metadata>
Created by potrace 1.16, written by Peter Selinger 2001-2019
</metadata>
<g transform="translate(0.000000,1024.000000) scale(0.100000,-0.100000)"
fill="#000000" stroke="none">
<path d="M4779 8240 c-473 -57 -910 -215 -1298 -467 -244 -159 -369 -261 -581
-480 -416 -427 -687 -911 -830 -1486 -67 -269 -72 -322 -77 -869 l-5 -487 23
-41 c13 -23 39 -51 59 -63 l35 -22 596 0 595 0 41 27 c75 49 94 146 43 218
-45 63 -44 63 -582 61 l-488 -2 0 200 0 200 498 3 c479 3 498 4 532 23 68 40
74 64 81 305 7 239 20 319 75 487 195 590 703 1043 1307 1165 96 20 141 23
322 22 177 0 225 -4 308 -22 335 -74 630 -236 878 -482 234 -233 383 -495 465
-825 22 -86 27 -132 32 -330 8 -257 13 -279 82 -320 34 -19 53 -20 528 -23
l492 -3 -2 -197 -3 -197 -485 -3 c-444 -3 -488 -4 -520 -21 -104 -53 -108
-190 -7 -265 28 -21 38 -21 613 -24 561 -3 586 -2 629 17 27 12 56 36 75 63
l32 43 -5 475 c-5 541 -12 611 -92 924 -172 677 -576 1299 -1140 1753 -218
176 -576 376 -860 480 -242 90 -498 151 -724 173 -155 15 -474 10 -642 -10z
m649 -321 c481 -52 1004 -286 1420 -634 493 -414 831 -953 978 -1562 27 -112
65 -353 58 -365 -3 -5 -171 -8 -375 -8 l-369 0 -1 68 c0 108 -24 275 -59 413
-130 511 -481 978 -942 1253 -201 120 -464 218 -685 257 -155 27 -453 32 -598
10 -614 -92 -1118 -417 -1449 -935 -100 -157 -158 -278 -215 -453 -55 -168
-88 -338 -98 -501 l-6 -112 -374 0 -373 0 0 28 c0 60 52 342 81 442 245 836
844 1531 1619 1881 218 98 508 181 745 213 122 17 509 20 643 5z"/>
<path d="M4888 6570 c-276 -52 -511 -172 -693 -355 -222 -221 -340 -451 -384
-742 -7 -47 -11 -361 -11 -909 l0 -837 -62 -76 c-35 -42 -126 -155 -202 -251
-132 -164 -329 -404 -610 -739 -309 -368 -345 -413 -351 -441 -10 -45 2 -84
36 -116 l30 -29 2450 -3 c2698 -2 2498 -7 2539 60 22 37 26 88 9 121 -7 12
-111 141 -233 286 -223 266 -388 467 -671 816 -85 105 -188 232 -229 283 l-76
93 0 848 c0 721 -2 862 -15 937 -62 355 -293 690 -609 884 -265 161 -617 227
-918 170z m836 -665 c71 -54 73 -161 4 -209 -50 -35 -145 -11 -173 44 -26 51
-20 104 19 144 29 32 39 36 82 36 27 0 58 -7 68 -15z m313 -255 c79 -180 74
-109 68 -1031 -2 -453 -4 -826 -5 -828 0 -5 -44 56 -105 145 l-45 65 0 732 c0
403 3 810 7 906 7 197 0 196 80 11z m-1757 -742 l0 -891 -72 -109 -73 -108 -3
833 -2 832 26 80 c32 97 104 255 115 255 5 0 9 -401 9 -892z m1145 -248 l0
-560 -312 0 -313 0 0 560 0 560 313 0 312 0 0 -560z m147 -894 c21 -54 38 -99
36 -100 -2 0 -224 1 -495 4 l-492 5 42 98 41 97 414 -2 414 -3 40 -99z m190
-430 l46 -101 -350 -3 c-192 -1 -504 -1 -693 0 l-344 3 46 97 46 97 146 3 c80
2 351 3 601 4 l455 1 47 -101z m201 -439 c20 -50 37 -95 37 -99 0 -5 -400 -8
-889 -8 l-890 0 40 92 c22 51 43 96 45 100 3 4 368 8 812 8 l807 0 38 -93z
m167 -358 c0 -6 15 -44 34 -85 l35 -74 -1080 0 -1079 0 14 33 c8 17 25 56 37
85 l23 52 1008 0 c707 0 1008 -3 1008 -11z"/>
<path d="M2782 4012 c-31 -44 -215 -333 -245 -384 l-27 -47 59 -73 c33 -40 84
-99 113 -132 l53 -59 268 149 c147 82 267 153 267 157 0 10 -290 336 -337 378
-20 19 -43 28 -80 32 -49 6 -54 4 -71 -21z m150 -271 c34 -33 61 -61 58 -64
-3 -2 -36 -23 -75 -45 -38 -23 -84 -51 -101 -62 l-31 -20 -28 36 -27 36 24 26
c14 15 44 55 67 90 23 34 43 62 46 62 2 0 32 -27 67 -59z"/>
<path d="M7100 3973 c-39 -68 -159 -326 -155 -333 9 -14 392 -300 401 -300 10
1 84 154 84 173 0 6 -56 50 -125 97 -68 47 -124 90 -125 97 0 7 8 29 17 49
l18 36 115 -2 c63 -1 136 -2 161 -1 l47 1 36 85 c20 46 39 91 42 100 5 13 -24
15 -250 15 -233 0 -257 -2 -266 -17z"/>
</g>
</svg>
