<?xml version="1.0" standalone="no"?>
<!DOCTYPE svg PUBLIC "-//W3C//DTD SVG 20010904//EN"
 "http://www.w3.org/TR/2001/REC-SVG-20010904/DTD/svg10.dtd">
<svg version="1.0" xmlns="http://www.w3.org/2000/svg"
 width="1024.000000pt" height="1024.000000pt" viewBox="0 0 1024.000000 1024.000000"
 preserveAspectRatio="xMidYMid meet">
<metadata>
Created by potrace 1.16, written by Peter Selinger 2001-2019
</metadata>
<g transform="translate(0.000000,1024.000000) scale(0.100000,-0.100000)"
fill="#000000" stroke="none">
<path d="M4955 8034 c-77 -57 -259 -194 -405 -304 -146 -109 -305 -229 -355
-266 -114 -86 -559 -421 -819 -618 -109 -83 -220 -167 -245 -186 -25 -19 -92
-68 -147 -110 -56 -41 -182 -137 -280 -212 -185 -141 -261 -199 -547 -416 -93
-70 -222 -167 -287 -217 -65 -49 -179 -135 -254 -190 -74 -55 -136 -103 -136
-106 0 -3 33 -41 73 -85 41 -43 87 -94 103 -111 l29 -33 135 105 c74 58 285
219 468 358 311 235 566 428 1837 1387 274 206 588 442 699 524 110 82 218
164 240 182 l38 33 157 -118 c218 -163 457 -342 966 -725 242 -182 517 -388
610 -457 94 -70 211 -158 260 -196 50 -38 164 -125 255 -194 519 -393 812
-616 943 -719 81 -63 166 -129 189 -146 l41 -32 41 49 c23 26 68 78 101 115
l60 66 -35 30 c-19 16 -156 121 -305 233 -148 112 -360 272 -470 356 -110 84
-355 269 -545 412 -190 143 -355 269 -367 280 l-23 20 0 459 0 458 65 0 c36 0
65 3 65 8 0 4 -18 65 -40 136 -22 70 -40 130 -40 132 0 2 -130 4 -288 4 l-289
0 -11 -47 c-13 -53 -49 -188 -58 -215 -5 -16 4 -18 85 -18 l91 0 0 -301 0
-301 -60 44 c-116 84 -322 238 -853 635 -297 222 -542 403 -545 402 -4 0 -70
-47 -147 -105z"/>
<path d="M4558 7116 c-300 -226 -716 -539 -923 -696 -605 -458 -1108 -838
-1246 -940 -261 -195 -509 -382 -509 -384 0 -2 103 -2 230 -2 l230 1 0 48 0
47 203 -2 202 -3 1 -75 c1 -41 2 -96 3 -122 l1 -48 80 0 80 0 0 -95 0 -95
-110 0 -110 0 0 -110 0 -110 110 0 110 0 0 -95 c0 -109 14 -99 -132 -95 l-88
2 0 -111 0 -111 110 0 110 0 0 -100 0 -100 -467 -2 c-258 0 -475 -2 -483 -2
-17 -1 -23 -81 -13 -168 l5 -48 51 0 c99 0 97 2 97 -116 l0 -103 -215 6 c-118
3 -215 2 -215 -2 0 -18 106 -195 203 -339 333 -494 674 -835 1152 -1149 526
-346 1112 -557 1745 -628 137 -15 502 -15 655 0 165 17 377 54 526 91 185 47
516 159 674 229 651 289 1247 792 1669 1408 86 125 236 370 236 385 0 5 -87 8
-217 7 l-218 -1 0 103 0 104 78 0 77 0 0 114 0 113 -477 -3 -478 -4 -3 103 -3
102 106 0 105 0 0 110 0 110 -105 0 -105 0 0 95 0 95 105 0 105 0 0 110 0 110
-105 0 -105 0 0 95 0 95 85 0 85 0 0 120 0 120 73 0 c39 0 129 3 200 7 l127 6
0 -46 0 -47 93 -1 c50 0 154 -1 229 -2 76 -1 137 1 135 4 -1 4 -63 53 -138
110 -75 57 -296 225 -490 373 -317 242 -1116 843 -1684 1268 -195 145 -356
267 -744 561 -84 64 -154 117 -155 116 0 -1 -247 -186 -548 -413z m472 -526
l0 -170 -155 0 -155 0 0 170 0 170 155 0 155 0 0 -170z m450 0 l0 -170 -155 0
-155 0 0 170 0 170 155 0 155 0 0 -170z m-1150 -580 l0 -500 -90 0 -90 0 0
435 0 435 82 65 c45 36 86 65 90 65 5 0 8 -225 8 -500z m1638 435 l82 -66 -2
-432 -3 -432 -87 -3 -88 -3 0 501 c0 275 3 500 8 500 4 0 44 -30 90 -65z
m-934 -175 c-1 -6 -2 -82 -2 -170 l-2 -160 -155 0 -155 0 0 173 0 173 158 -3
c93 -2 157 -8 156 -13z m446 -161 l0 -169 -155 0 -155 0 0 169 0 170 33 3 c17
2 87 2 155 0 l122 -3 0 -170z m806 94 l84 -66 0 -314 0 -313 -90 0 -90 0 0
380 c0 209 3 380 6 380 3 0 44 -30 90 -67z m-2276 -318 l0 -375 -90 0 -90 0 0
310 0 310 82 65 c45 36 86 65 90 65 5 0 8 -169 8 -375z m2647 40 l43 -40 -6
-187 -7 -188 -83 0 -82 0 -4 243 c-2 133 -2 250 0 259 4 15 10 13 50 -15 25
-17 65 -50 89 -72z m-2973 73 c3 -13 6 -128 6 -255 l0 -233 -90 0 -90 0 0 193
0 192 77 63 c43 34 81 62 84 62 4 0 9 -10 13 -22z m3319 -327 c35 -32 37 -36
37 -97 l0 -64 -100 0 -100 0 0 146 0 145 63 -48 c34 -26 79 -63 100 -82z
m-3633 -21 l0 -140 -99 0 -99 0 -6 35 c-14 75 -1 99 98 175 50 38 94 70 99 70
4 0 7 -63 7 -140z m1294 -5 c4 -63 5 -119 1 -125 -3 -5 -45 -10 -95 -10 -86 0
-88 1 -94 26 -4 14 -6 70 -5 125 l2 99 92 0 92 0 7 -115z m364 -7 l-3 -123
-107 -3 -108 -3 0 126 0 125 110 0 111 0 -3 -122z m352 -3 l0 -125 -99 0 c-81
0 -100 3 -105 16 -3 9 -6 65 -6 125 l0 109 105 0 105 0 0 -125z m340 0 l0
-125 -95 0 -95 0 0 125 0 125 95 0 95 0 0 -125z m-2260 -385 l0 -90 -150 0
-150 0 0 90 0 90 150 0 150 0 0 -90z m3060 0 l0 -90 -1420 0 c-1128 0 -1420 3
-1422 13 -1 6 -2 47 -2 89 l-1 78 1423 0 1422 0 0 -90z m520 0 l0 -90 -155 0
-155 0 0 90 0 90 155 0 155 0 0 -90z m-1640 -821 l-1 -509 -1062 -2 c-584 -1
-1087 -2 -1117 -2 l-55 -1 -3 103 -3 102 1021 0 1020 0 0 410 0 409 93 3 c50
2 96 2 100 0 4 -2 7 -233 7 -513z m-1430 211 l0 -300 -405 0 -405 0 0 95 0 95
310 0 310 0 0 110 0 110 -310 0 -310 0 0 95 0 95 405 0 405 0 0 -300z m378
235 l3 -65 -115 0 -116 0 0 65 0 65 113 0 112 0 3 -65z m342 0 l0 -65 -110 0
-110 0 0 65 0 65 110 0 110 0 0 -65z m350 0 l0 -65 -115 0 -115 0 0 65 0 65
115 0 115 0 0 -65z m2000 -30 l0 -95 -375 0 -375 0 0 95 0 95 375 0 375 0 0
-95z m-1033 -185 l1 -160 -174 0 -174 0 0 160 0 160 173 0 172 0 2 -160z
m-1665 13 c3 -32 3 -64 1 -70 -4 -9 -36 -13 -114 -13 l-109 0 0 70 0 70 109 0
109 0 4 -57z m348 -13 l0 -70 -110 0 -110 0 0 70 0 70 110 0 110 0 0 -70z
m345 0 l0 -65 -112 -3 -113 -3 0 55 c0 89 -3 87 119 84 l106 -3 0 -65z m2005
-225 l0 -95 -375 0 -375 0 0 95 0 95 375 0 375 0 0 -95z m-2696 -1 c4 -42 4
-79 1 -82 -3 -3 -55 -6 -115 -7 l-110 -1 0 83 0 83 109 0 108 0 7 -76z m346
-4 l0 -80 -110 0 -110 0 0 80 0 80 110 0 110 0 0 -80z m350 0 l0 -80 -110 0
-110 0 0 80 0 80 110 0 110 0 0 -80z m2000 -410 l0 -99 -372 -3 c-205 -2 -375
-2 -377 -1 -6 4 -9 125 -4 166 l6 37 373 0 374 0 0 -100z m-4132 -427 l-3
-106 -293 -1 -292 -1 0 108 0 107 295 0 296 0 -3 -107z m4132 0 l0 -108 -1937
2 -1938 2 -3 106 -3 105 1941 0 1940 0 0 -107z m828 0 l3 -102 -291 -3 -290
-3 0 108 0 107 288 -2 287 -3 3 -102z m-4280 -294 c59 -55 109 -106 111 -112
2 -6 -32 -44 -75 -84 -89 -84 -90 -79 8 -129 45 -23 47 -26 72 -106 35 -117
48 -169 43 -174 -2 -2 -72 66 -156 151 -85 85 -157 155 -162 155 -5 0 -42 -30
-81 -68 -75 -69 -255 -231 -297 -267 l-23 -20 17 40 c9 22 25 63 35 91 10 28
25 65 34 83 l17 32 -38 -20 c-51 -26 -353 -151 -364 -151 -15 0 298 286 526
482 55 47 127 111 160 141 33 31 62 56 63 57 2 0 52 -45 110 -101z m1330 -447
c2 -253 0 -323 -10 -326 -7 -2 -99 -34 -205 -70 l-191 -67 -365 368 c-201 202
-375 380 -387 396 l-22 27 589 -2 588 -3 3 -323z m1949 321 c-12 -11 -1481
-504 -1545 -518 l-32 -7 0 265 0 264 791 1 c435 0 788 -2 786 -5z"/>
</g>
</svg>
