<?xml version="1.0" standalone="no"?>
<!DOCTYPE svg PUBLIC "-//W3C//DTD SVG 20010904//EN"
 "http://www.w3.org/TR/2001/REC-SVG-20010904/DTD/svg10.dtd">
<svg version="1.0" xmlns="http://www.w3.org/2000/svg"
 width="1024.000000pt" height="1024.000000pt" viewBox="0 0 1024.000000 1024.000000"
 preserveAspectRatio="xMidYMid meet">
<metadata>
Created by potrace 1.16, written by Peter Selinger 2001-2019
</metadata>
<g transform="translate(0.000000,1024.000000) scale(0.100000,-0.100000)"
fill="#000000" stroke="none">
<path d="M2450 8985 c-274 -34 -497 -114 -698 -249 -114 -76 -180 -135 -274
-241 -191 -217 -304 -447 -360 -736 l-22 -114 -3 -2460 c-3 -1555 0 -2500 6
-2570 31 -344 156 -635 386 -898 235 -269 573 -439 945 -477 84 -8 819 -10
2765 -8 l2650 4 95 21 c435 97 732 296 970 652 89 133 176 345 216 531 18 82
19 185 19 2675 0 2460 -1 2594 -18 2674 -43 200 -115 370 -224 535 -85 128
-286 333 -395 404 -171 110 -358 189 -542 228 -218 46 -108 44 -2838 43 -2049
-1 -2594 -4 -2678 -14z m3193 -1512 c42 -25 77 -47 77 -50 0 -5 -53 -70 -423
-515 -136 -164 -251 -298 -255 -298 -4 0 -20 23 -36 51 -15 28 -47 74 -70 103
l-42 51 164 200 c90 110 227 275 305 367 l140 167 31 -16 c17 -9 66 -36 109
-60z m2247 -140 c153 -35 289 -130 351 -245 32 -59 34 -69 34 -158 0 -88 -3
-101 -33 -162 -60 -123 -177 -204 -382 -263 -52 -15 -115 -38 -140 -50 -69
-35 -142 -120 -164 -192 -8 -24 12 -38 283 -189 l164 -92 22 31 c12 18 44 64
72 104 l50 72 106 -60 c59 -33 107 -64 107 -70 0 -9 -89 -140 -355 -524 -27
-38 -93 -135 -149 -215 -55 -80 -101 -147 -103 -149 -1 -2 -29 8 -60 22 -49
21 -93 36 -191 63 -10 3 -2 20 24 57 21 28 76 107 122 175 79 116 83 124 66
137 -11 7 -80 48 -154 91 -74 43 -214 123 -310 179 -96 56 -267 155 -380 220
-113 65 -234 135 -270 155 -201 117 -352 200 -361 200 -5 0 -110 -50 -232
-112 l-221 -111 -56 29 c-86 46 -318 173 -390 213 -35 20 -65 40 -65 45 0 5
207 114 460 242 l460 233 85 -48 c47 -27 198 -113 335 -191 334 -191 514 -293
606 -345 l77 -42 52 73 c70 98 163 185 235 221 33 17 119 47 190 67 72 20 147
48 168 62 153 101 62 263 -164 294 -206 29 -370 -56 -468 -239 -18 -34 -37
-59 -41 -54 -27 28 -153 192 -162 210 -9 19 -5 29 30 70 143 170 270 241 467
262 96 10 196 5 285 -16z m-3373 -353 c53 -18 125 -63 155 -96 16 -18 14 -19
-70 -19 -156 -1 -291 -63 -423 -195 -167 -166 -251 -373 -237 -580 5 -70 5
-71 -16 -57 -39 26 -104 114 -127 174 -31 80 -32 210 -2 308 35 109 105 218
202 315 115 114 183 149 341 174 40 6 121 -5 177 -24z m-922 -225 l38 -85 -22
-72 c-31 -100 -39 -286 -17 -382 37 -156 139 -289 276 -360 87 -45 200 -115
200 -125 0 -4 -154 -83 -342 -176 -189 -93 -523 -258 -742 -367 -220 -110
-402 -195 -406 -191 -3 4 -34 85 -69 178 -99 271 -112 305 -118 305 -9 0 -22
-18 -155 -218 -96 -143 -124 -179 -130 -165 -15 38 -129 440 -134 473 -4 27
15 96 86 305 108 316 150 429 158 421 6 -7 54 -114 167 -371 46 -104 98 -223
117 -262 l34 -73 118 358 c130 393 208 612 217 612 6 0 12 -13 147 -320 124
-284 162 -364 167 -359 4 5 89 245 286 807 72 206 64 202 124 67z m1162 -121
c60 -37 107 -99 129 -168 l17 -53 46 14 c60 19 155 12 208 -15 46 -24 77 -58
94 -107 12 -33 12 -33 68 -28 82 8 138 -11 188 -62 22 -24 44 -56 47 -72 6
-27 8 -28 74 -29 103 0 166 -32 209 -102 13 -20 23 -45 23 -55 0 -10 5 -15 10
-12 21 13 128 6 169 -11 46 -18 107 -83 116 -123 5 -25 8 -26 66 -23 40 3 76
-2 104 -13 51 -19 113 -83 121 -124 6 -29 7 -29 64 -24 105 10 197 -40 233
-126 15 -34 15 -35 83 -37 38 -1 88 -10 111 -19 52 -21 100 -73 108 -117 l6
-33 82 0 c63 0 93 -5 130 -22 52 -24 55 -43 6 -43 -48 0 -181 -57 -255 -109
-76 -53 -155 -132 -200 -200 l-29 -44 -32 69 c-18 38 -32 74 -33 80 -1 27 114
146 189 195 44 29 77 57 74 62 -3 5 -29 20 -57 33 -94 44 -188 24 -260 -57
-20 -21 -38 -39 -41 -39 -3 0 -19 28 -36 63 -18 34 -34 58 -36 52 -60 -174
-103 -291 -154 -422 -72 -184 -72 -184 -150 -134 -53 34 -80 63 -107 115 -19
39 -20 40 -70 37 -92 -5 -186 54 -228 143 -15 30 -18 31 -66 27 -28 -2 -68 2
-88 8 -49 14 -112 71 -134 119 -18 39 -18 39 -66 34 -94 -9 -183 39 -231 123
-28 50 -32 53 -55 45 -28 -11 -98 1 -144 25 -31 16 -83 72 -104 114 -14 26
-19 28 -60 24 -64 -8 -134 19 -184 70 -41 42 -81 116 -82 150 0 22 3 22 -66
-10 -50 -24 -72 -28 -144 -28 -75 0 -91 3 -132 27 -211 125 -206 476 11 710
106 114 206 161 333 155 64 -3 85 -9 125 -33z m-3067 -521 c0 -10 14 -61 30
-113 17 -52 64 -216 105 -365 110 -401 245 -845 255 -845 10 0 102 127 195
268 49 72 91 132 94 132 7 0 85 -212 198 -540 47 -135 94 -271 105 -304 l21
-58 40 73 c22 41 63 115 91 164 28 50 82 150 121 223 l69 132 33 -93 c18 -50
83 -238 144 -417 117 -342 180 -510 189 -510 12 0 258 457 315 586 15 33 29
54 34 48 5 -5 25 -61 46 -124 21 -63 66 -194 100 -290 35 -96 91 -251 124
-345 33 -93 69 -192 80 -219 l18 -50 20 45 c48 106 221 477 289 618 l74 155
36 -75 c20 -41 76 -162 126 -269 49 -107 119 -259 156 -338 l66 -142 24 62
c13 35 55 151 94 258 39 107 106 294 150 415 44 121 82 230 85 243 3 12 8 22
12 22 3 0 82 -153 174 -340 150 -303 187 -368 187 -329 0 19 176 516 313 888
l24 64 78 -149 c122 -234 229 -426 239 -428 4 0 25 44 46 99 117 315 251 666
268 703 l19 43 72 -141 72 -140 -20 -68 c-44 -149 -54 -309 -26 -415 36 -137
143 -277 252 -328 29 -13 51 -27 50 -31 -2 -6 -20 -16 -412 -220 -695 -363
-1121 -586 -1200 -628 -252 -134 -450 -237 -640 -335 -115 -60 -219 -114 -229
-121 -17 -12 -28 -9 -85 23 -64 35 -643 380 -901 536 -69 41 -350 210 -625
374 -275 164 -668 399 -872 522 l-373 223 0 887 c0 786 2 893 16 934 16 47 34
62 34 30z m6915 -234 l35 -21 -2 -525 -3 -526 -265 -135 -265 -135 -6 55 c-7
65 -43 187 -71 243 -11 22 -38 65 -60 96 l-39 56 152 219 c84 120 189 271 233
334 45 64 119 171 166 238 47 67 86 122 87 122 1 0 18 -9 38 -21z m-995 -853
c54 -28 150 -101 150 -115 0 -3 -44 -6 -97 -6 -117 0 -185 -16 -273 -61 -223
-116 -373 -375 -374 -646 -1 -60 -4 -108 -7 -108 -15 0 -109 113 -130 156 -58
122 -24 342 82 521 47 80 163 195 229 228 104 53 156 65 265 62 87 -3 107 -7
155 -31z m175 -351 c61 -29 94 -64 132 -139 32 -61 42 -180 23 -269 -29 -143
-139 -286 -268 -349 -61 -30 -74 -33 -162 -33 -85 0 -100 3 -140 27 -61 36
-94 73 -124 139 -71 154 -27 367 107 515 122 133 294 177 432 109z"/>
<path d="M4555 6436 c-58 -27 -139 -111 -167 -174 -29 -64 -34 -134 -14 -185
20 -53 42 -74 121 -117 33 -18 69 -39 80 -46 11 -8 22 -14 26 -14 4 0 7 29 7
64 1 132 64 268 173 371 l70 65 -63 30 c-81 39 -160 41 -233 6z"/>
<path d="M4990 6311 c-53 -17 -90 -42 -133 -92 -62 -71 -95 -136 -113 -221
-23 -110 -7 -185 55 -251 21 -23 89 -67 103 -67 2 0 3 48 3 108 0 124 15 178
75 270 46 72 138 165 180 182 16 7 30 16 30 20 0 15 -91 53 -133 56 -23 2 -53
0 -67 -5z"/>
<path d="M5290 6151 c-84 -26 -164 -107 -219 -221 -33 -70 -36 -82 -36 -170 0
-91 1 -97 33 -142 29 -42 102 -98 128 -98 6 0 8 36 6 90 -5 109 19 197 80 293
51 78 137 162 183 177 43 14 38 25 -29 56 -51 24 -100 29 -146 15z"/>
<path d="M5550 5973 c-58 -28 -144 -122 -178 -193 -74 -156 -62 -296 34 -379
30 -27 72 -51 89 -51 2 0 1 31 -2 69 -12 147 40 282 158 406 40 42 86 80 105
87 19 7 33 16 31 21 -1 5 -23 20 -47 33 -54 29 -138 32 -190 7z"/>
<path d="M5880 5821 c-82 -25 -175 -117 -224 -221 -24 -52 -31 -81 -34 -150
-3 -78 -1 -90 25 -139 27 -53 82 -102 129 -115 20 -6 21 -4 16 73 -9 157 40
275 164 398 45 45 94 85 108 89 14 3 26 9 26 13 0 4 -24 20 -53 34 -53 27
-106 33 -157 18z"/>
<path d="M6178 5660 c-97 -29 -208 -155 -242 -276 -47 -162 -13 -275 100 -338
26 -14 48 -26 50 -26 2 0 1 37 -2 83 -5 70 -2 93 20 163 14 44 43 107 64 140
45 69 142 161 192 182 l35 14 -24 17 c-65 44 -135 59 -193 41z"/>
<path d="M6466 5494 c-70 -22 -161 -115 -210 -215 -44 -89 -58 -196 -36 -274
13 -47 87 -142 100 -128 4 4 15 40 25 78 28 109 79 227 129 302 70 102 59 93
164 154 28 17 52 33 52 35 0 2 -22 15 -49 29 -65 32 -115 38 -175 19z"/>
<path d="M7539 4427 c-115 -77 -130 -240 -26 -274 32 -11 44 -10 75 3 71 29
131 110 132 177 1 96 -100 149 -181 94z"/>
</g>
</svg>
