<?xml version="1.0" standalone="no"?>
<!DOCTYPE svg PUBLIC "-//W3C//DTD SVG 20010904//EN"
 "http://www.w3.org/TR/2001/REC-SVG-20010904/DTD/svg10.dtd">
<svg version="1.0" xmlns="http://www.w3.org/2000/svg"
 width="1024.000000pt" height="1024.000000pt" viewBox="0 0 1024.000000 1024.000000"
 preserveAspectRatio="xMidYMid meet">
<metadata>
Created by potrace 1.16, written by Peter Selinger 2001-2019
</metadata>
<g transform="translate(0.000000,1024.000000) scale(0.100000,-0.100000)"
fill="#000000" stroke="none">
<path d="M3310 8305 c-8 -2 -49 -9 -90 -15 -97 -16 -282 -76 -390 -128 -144
-69 -237 -136 -360 -261 -221 -223 -355 -471 -410 -758 -20 -107 -20 -127 -17
-1928 3 -2042 -4 -1856 78 -2075 78 -208 213 -413 376 -571 202 -196 445 -313
738 -353 109 -16 286 -17 1955 -14 l1835 4 93 21 c306 71 510 181 703 380 172
176 268 332 345 558 68 196 64 79 64 2094 l0 1826 -24 106 c-62 271 -218 545
-425 741 -151 144 -310 238 -521 309 -217 72 -108 69 -2125 68 -995 -1 -1817
-3 -1825 -4z m3767 -422 c349 -94 613 -347 720 -690 l28 -88 0 -1845 0 -1845
-28 -88 c-56 -180 -129 -306 -249 -432 -123 -130 -270 -218 -443 -267 l-80
-23 -1858 -3 c-1823 -2 -1859 -2 -1955 18 -185 37 -325 113 -463 250 -174 172
-274 381 -299 625 -13 128 -13 3324 0 3485 12 151 39 251 100 374 146 298 438
508 759 546 36 4 881 7 1876 6 l1810 -1 82 -22z"/>
<path d="M3530 7374 c-268 -278 -421 -547 -508 -895 -42 -165 -52 -258 -52
-476 0 -354 57 -608 202 -897 89 -178 248 -394 392 -536 l56 -55 37 40 c19 22
60 66 90 98 l54 58 -80 85 c-207 218 -333 441 -415 735 -51 177 -66 289 -66
474 0 283 49 492 171 736 88 178 190 321 325 459 l73 75 -92 99 -92 98 -95
-98z"/>
<path d="M6575 7398 c-123 -127 -119 -104 -30 -200 93 -101 228 -278 282 -373
54 -92 116 -241 148 -351 77 -266 85 -607 19 -869 -85 -339 -223 -593 -447
-822 l-70 -71 21 -27 c39 -49 152 -165 161 -165 12 0 153 150 229 242 234 287
368 615 413 1007 17 150 7 456 -20 596 -41 217 -109 406 -212 586 -82 142
-170 257 -308 401 l-116 119 -70 -73z"/>
<path d="M5095 7431 c-11 -5 -29 -19 -40 -31 -19 -21 -20 -38 -23 -385 l-3
-364 111 -3 110 -3 0 353 c0 387 -1 397 -60 427 -32 16 -64 18 -95 6z"/>
<path d="M3829 7093 c-225 -235 -362 -491 -416 -783 -25 -135 -25 -469 0 -594
64 -319 245 -657 464 -868 l38 -37 60 71 c33 38 73 81 88 94 l29 24 -55 60
c-192 207 -303 433 -352 719 -20 111 -20 391 0 503 41 238 173 500 337 668
l64 65 -81 83 c-44 45 -82 82 -86 82 -3 0 -44 -39 -90 -87z"/>
<path d="M6272 7098 l-80 -82 63 -70 c178 -200 289 -414 336 -646 26 -132 35
-317 20 -432 -41 -312 -153 -555 -364 -792 -69 -76 -72 -63 47 -186 l77 -78
48 51 c243 260 371 499 443 830 30 138 33 492 5 632 -45 228 -133 427 -266
600 -48 64 -229 255 -241 255 -4 0 -43 -37 -88 -82z"/>
<path d="M4119 6858 c-170 -197 -264 -421 -290 -690 -33 -344 60 -661 276
-943 29 -38 64 -79 77 -91 l23 -20 94 98 93 97 -46 52 c-96 107 -181 287 -216
459 -19 90 -21 127 -17 260 6 182 25 267 90 404 42 87 134 222 163 239 11 6
-9 33 -78 108 -51 54 -96 99 -100 99 -4 0 -35 -32 -69 -72z"/>
<path d="M5991 6836 l-94 -95 37 -41 c155 -172 230 -386 230 -660 1 -255 -62
-449 -209 -643 l-66 -88 40 -47 c22 -26 64 -71 94 -100 l54 -53 55 63 c188
215 310 514 325 799 17 332 -98 663 -314 897 l-58 63 -94 -95z"/>
<path d="M5770 6643 c0 -5 -43 -52 -95 -106 l-94 -98 36 -47 c44 -58 66 -107
87 -199 41 -180 7 -346 -102 -511 l-36 -53 100 -102 c54 -56 101 -104 102
-107 6 -9 71 72 112 141 186 307 167 728 -46 1026 -40 56 -64 77 -64 56z"/>
<path d="M4440 6593 c-55 -63 -114 -187 -141 -298 -33 -131 -33 -376 -2 -491
28 -101 70 -196 126 -282 78 -119 68 -119 185 4 l101 106 -33 46 c-151 212
-157 525 -14 713 l35 46 -100 101 c-55 56 -103 102 -108 102 -4 0 -26 -21 -49
-47z"/>
<path d="M5025 6372 c-72 -24 -156 -108 -185 -187 -44 -120 -16 -246 76 -341
57 -58 120 -86 209 -92 125 -7 244 60 303 172 23 44 27 63 27 141 0 80 -3 96
-30 148 -74 148 -239 213 -400 159z"/>
<path d="M5265 5498 c-42 -12 -169 -15 -237 -4 l-58 8 0 -53 c0 -29 -7 -137
-15 -239 -8 -102 -24 -311 -35 -465 -11 -154 -25 -334 -30 -400 -5 -66 -19
-235 -30 -375 -11 -140 -24 -307 -30 -370 -5 -63 -12 -161 -16 -217 l-7 -103
-398 0 -399 0 0 -141 0 -141 1128 4 1127 3 3 138 3 137 -401 0 c-378 0 -400 1
-400 18 0 10 -9 128 -20 262 -11 135 -31 407 -45 605 -14 198 -37 509 -50 690
-14 182 -30 400 -36 485 -6 85 -14 158 -18 161 -3 4 -19 2 -36 -3z"/>
<path d="M4926 1013 c-1 -2 -36 -7 -77 -12 -139 -17 -163 -26 -122 -48 28 -15
49 -17 263 -28 296 -15 568 8 545 46 -4 6 -14 8 -22 5 -8 -3 -12 -2 -9 3 5 8
-42 16 -174 28 -63 5 -399 10 -404 6z"/>
</g>
</svg>
