<?xml version="1.0" standalone="no"?>
<!DOCTYPE svg PUBLIC "-//W3C//DTD SVG 20010904//EN"
 "http://www.w3.org/TR/2001/REC-SVG-20010904/DTD/svg10.dtd">
<svg version="1.0" xmlns="http://www.w3.org/2000/svg"
 width="1024.000000pt" height="1024.000000pt" viewBox="0 0 1024.000000 1024.000000"
 preserveAspectRatio="xMidYMid meet">
<metadata>
Created by potrace 1.16, written by Peter Selinger 2001-2019
</metadata>
<g transform="translate(0.000000,1024.000000) scale(0.100000,-0.100000)"
fill="#000000" stroke="none">
<path d="M4985 8399 c-454 -21 -976 -164 -1384 -380 -454 -241 -753 -484
-1054 -859 -426 -530 -665 -1115 -737 -1805 -15 -141 -15 -460 0 -595 81 -749
377 -1409 879 -1963 71 -78 136 -146 144 -152 8 -5 54 -45 103 -88 312 -277
740 -521 1169 -666 362 -122 686 -175 1070 -175 253 0 366 11 606 58 645 126
1235 429 1724 885 473 441 832 1101 964 1776 52 269 56 311 56 635 0 327 -5
379 -56 640 -124 625 -463 1254 -924 1715 -467 467 -1090 797 -1738 919 -286
54 -512 70 -822 55z m608 -323 c349 -56 662 -159 962 -315 216 -113 322 -182
525 -340 133 -104 430 -404 525 -533 270 -361 471 -803 549 -1206 43 -220 73
-562 49 -562 -3 0 -14 6 -22 13 -23 20 -419 257 -429 257 -5 0 -49 -29 -99
-64 -109 -77 -201 -136 -211 -136 -4 0 -113 103 -242 230 -129 126 -236 229
-238 230 -1 0 -85 -56 -186 -125 -101 -69 -186 -125 -189 -125 -5 0 -19 17
-360 435 -126 154 -260 317 -298 363 l-70 83 -74 -41 c-40 -22 -78 -40 -83
-40 -6 0 -102 114 -213 253 -112 138 -227 282 -257 320 -30 37 -57 67 -61 67
-3 0 -17 -16 -31 -34 -14 -19 -86 -110 -160 -202 -75 -93 -165 -207 -202 -254
-36 -47 -81 -102 -100 -123 l-33 -38 -78 46 c-44 26 -80 45 -81 43 -1 -2 -24
-30 -52 -63 -28 -33 -72 -89 -99 -125 -27 -36 -90 -117 -140 -180 -50 -63
-143 -183 -207 -265 -64 -83 -132 -168 -150 -189 l-34 -39 -99 63 c-55 35
-132 85 -172 112 -40 26 -77 48 -83 48 -11 0 -86 -64 -455 -389 -88 -77 -164
-140 -170 -140 -5 -1 -55 29 -110 64 -55 36 -105 63 -111 61 -6 -2 -115 -86
-242 -185 -127 -100 -232 -181 -235 -181 -11 0 -16 235 -7 388 20 350 90 647
230 977 161 380 442 783 726 1041 475 432 1094 722 1709 803 44 6 94 13 110
15 78 11 604 -3 698 -18z m-297 -1698 c54 -67 121 -149 148 -182 27 -34 85
-104 128 -157 l78 -96 -8 -122 -7 -122 80 -67 c171 -144 447 -353 454 -346 2
2 -55 93 -128 203 l-131 200 10 73 c17 116 19 122 35 108 12 -10 137 -166 440
-549 l60 -75 85 -24 c47 -13 186 -53 310 -89 l225 -65 290 -191 c160 -105 326
-212 369 -239 44 -26 77 -48 73 -48 -16 0 -630 216 -724 255 -18 8 -33 11 -33
8 0 -13 165 -235 182 -244 9 -5 160 -67 335 -138 510 -206 533 -215 533 -228
0 -16 -108 -327 -135 -389 l-23 -53 -999 -1 c-935 0 -1000 1 -1033 17 -64 33
-64 108 0 140 20 10 227 13 934 13 l908 0 -108 82 c-548 412 -529 395 -768
680 -37 44 -58 60 -94 71 -26 8 -155 54 -286 101 -131 47 -240 85 -241 84 -2
-2 46 -59 107 -128 350 -400 645 -745 632 -739 -5 3 -20 10 -34 17 -40 18
-319 138 -515 219 -99 41 -275 115 -390 164 -116 49 -214 89 -219 89 -5 0 -2
-8 6 -17 27 -32 340 -504 336 -508 -9 -9 -783 509 -858 575 l-35 31 100 -7
c55 -4 124 -10 153 -14 28 -3 52 -3 52 1 0 4 -139 141 -310 305 -170 163 -310
300 -310 304 0 4 6 10 13 13 7 3 53 33 101 66 50 35 92 58 99 54 7 -4 66 -50
132 -102 325 -258 955 -708 955 -683 0 19 -59 97 -375 502 -67 85 -141 181
-166 213 -41 54 -192 191 -543 492 l-138 119 121 61 122 61 -38 44 c-21 25
-72 83 -115 130 -43 46 -78 88 -78 93 0 9 122 155 131 156 3 1 50 -54 105
-121z m-881 -913 l-7 -120 -127 -101 c-153 -122 -610 -476 -631 -489 -18 -11
38 56 225 270 77 88 230 266 340 394 230 270 213 266 200 46z m3615 -492 c96
-58 177 -107 179 -109 4 -4 -18 -196 -24 -202 -5 -5 -477 319 -512 351 l-23
20 63 42 62 43 40 -21 c22 -11 119 -67 215 -124z m-3104 -47 l-75 -145 93
-148 c51 -81 118 -188 150 -236 32 -49 56 -90 54 -92 -5 -4 -532 471 -536 483
-3 10 360 274 386 281 2 1 -30 -64 -72 -143z m-277 -971 c52 -27 57 -90 10
-129 l-31 -26 -1117 0 -1117 0 -39 78 c-22 42 -41 80 -43 85 -2 4 517 7 1153
7 995 0 1160 -2 1184 -15z m2751 -325 c23 -23 26 -76 7 -101 -30 -39 -33 -39
-839 -39 -821 0 -1058 -8 -1273 -40 -158 -23 -224 -42 -265 -77 -39 -32 -36
-60 8 -89 44 -30 126 -47 367 -79 542 -71 821 -187 910 -377 76 -164 -27 -345
-261 -454 -147 -69 -348 -107 -685 -129 -242 -15 -349 -32 -443 -71 -68 -28
-142 -73 -175 -107 l-22 -24 -82 18 c-229 51 -277 63 -277 71 0 19 89 103 157
147 136 89 345 141 573 141 162 0 379 17 463 36 108 25 226 70 287 112 228
155 115 391 -227 470 l-82 19 43 -42 c51 -50 81 -119 72 -168 -15 -82 -114
-166 -248 -211 -124 -42 -242 -56 -468 -56 -550 0 -800 -60 -982 -235 l-55
-53 -132 73 c-73 40 -135 76 -138 79 -10 9 44 63 112 111 79 56 162 97 260
128 151 47 249 58 600 67 261 6 344 12 395 25 149 40 242 114 226 180 -13 51
-79 106 -154 130 -21 6 -23 4 -17 -14 3 -12 -1 -35 -10 -55 -21 -44 -72 -70
-185 -92 -75 -15 -186 -18 -967 -21 l-882 -4 -66 65 c-36 36 -65 69 -65 73 0
5 102 9 228 11 125 1 544 6 932 10 563 7 711 11 733 22 15 7 26 18 24 24 -6
21 -93 56 -202 83 l-110 27 -570 5 c-434 5 -575 9 -592 19 -49 27 -57 86 -17
123 l26 24 576 6 c410 3 592 9 627 17 56 14 137 53 142 67 2 6 -389 11 -1059
12 l-1061 2 -41 68 c-23 37 -45 74 -49 81 -7 9 486 12 2452 12 2448 0 2461 0
2481 -20z m208 -385 l-53 -75 -678 0 c-718 0 -723 0 -741 45 -13 34 -6 72 17
93 l23 22 740 2 c406 2 741 0 742 -5 2 -4 -20 -41 -50 -82z m-188 -233 c0 -4
-26 -33 -58 -65 l-58 -57 -182 0 c-169 0 -183 1 -202 20 -26 26 -25 52 3 78
22 21 34 22 237 25 118 1 225 3 238 5 12 1 22 -2 22 -6z"/>
<path d="M5160 7772 c0 -11 -9 -51 -21 -88 -31 -100 -79 -144 -201 -182 l-93
-29 45 -12 c107 -28 144 -45 180 -81 35 -35 74 -116 87 -182 6 -32 23 -38 23
-8 0 37 48 152 77 182 37 39 85 63 169 84 76 19 75 21 -40 50 -110 28 -184
112 -202 232 -7 44 -24 68 -24 34z"/>
<path d="M4307 7572 c-37 -40 -9 -102 46 -102 29 0 67 34 67 60 0 8 -7 26 -16
38 -19 28 -74 30 -97 4z"/>
<path d="M5927 7572 c-37 -40 -7 -104 48 -104 55 0 81 54 49 100 -19 28 -74
30 -97 4z"/>
<path d="M3720 7263 c-66 -13 -173 -74 -229 -131 -95 -94 -133 -191 -132 -337
1 -134 56 -254 162 -349 124 -112 314 -145 477 -84 154 57 273 199 303 361 16
85 -1 208 -38 285 -40 85 -132 176 -221 220 -73 35 -80 37 -186 39 -61 1 -122
-1 -136 -4z"/>
<path d="M6315 7173 c-3 -10 -16 -38 -29 -63 -19 -38 -34 -51 -93 -81 l-71
-35 46 -14 c58 -17 110 -63 135 -120 l20 -44 22 50 c26 58 59 87 127 111 45
17 63 33 36 33 -7 0 -36 11 -65 24 -38 18 -58 35 -77 68 -14 25 -26 52 -26 61
0 23 -19 31 -25 10z"/>
<path d="M7106 6705 c-21 -53 -71 -100 -126 -116 -22 -7 -40 -15 -40 -19 0 -4
18 -12 40 -19 54 -16 94 -52 124 -113 20 -40 27 -47 31 -32 26 80 64 119 145
147 37 12 41 16 25 22 -97 34 -123 55 -155 128 -12 26 -22 47 -24 47 -2 0 -11
-20 -20 -45z"/>
<path d="M6387 6422 c-38 -42 -8 -102 51 -102 54 0 83 68 44 103 -25 22 -75
21 -95 -1z"/>
<path d="M3001 6372 c-13 -46 -61 -94 -115 -113 -44 -16 -45 -25 -5 -34 42 -9
98 -61 119 -110 l17 -40 17 40 c23 54 51 81 103 101 23 9 43 19 43 23 -1 3
-24 17 -53 31 -44 21 -56 34 -79 79 -15 30 -30 56 -32 59 -3 2 -10 -14 -15
-36z"/>
<path d="M6677 6069 c-14 -34 -69 -89 -88 -89 -20 0 -7 -18 22 -31 18 -7 44
-31 59 -55 l27 -43 24 37 c13 20 41 46 62 58 l38 21 -36 22 c-20 11 -44 35
-53 52 -36 66 -39 67 -55 28z"/>
<path d="M3627 5990 c-33 -26 -35 -62 -5 -90 45 -42 108 -14 108 47 0 54 -58
78 -103 43z"/>
<path d="M7645 5933 c-11 -45 -43 -80 -96 -107 l-52 -25 27 -11 c15 -5 30 -10
33 -10 19 0 65 -47 84 -86 l22 -47 18 35 c22 42 80 95 114 104 35 9 31 18 -16
39 -43 20 -80 61 -98 108 -13 34 -27 35 -36 0z"/>
<path d="M2689 5743 c-18 -36 -35 -54 -68 -70 -24 -12 -46 -24 -48 -27 -3 -2
15 -13 39 -24 48 -21 61 -34 88 -88 l18 -39 12 30 c15 39 64 90 102 106 l30
12 -28 15 c-43 21 -74 52 -95 95 -11 20 -21 37 -23 37 -2 0 -14 -21 -27 -47z"/>
</g>
</svg>
