<?xml version="1.0" standalone="no"?>
<!DOCTYPE svg PUBLIC "-//W3C//DTD SVG 20010904//EN"
 "http://www.w3.org/TR/2001/REC-SVG-20010904/DTD/svg10.dtd">
<svg version="1.0" xmlns="http://www.w3.org/2000/svg"
 width="1024.000000pt" height="1024.000000pt" viewBox="0 0 1024.000000 1024.000000"
 preserveAspectRatio="xMidYMid meet">
<metadata>
Created by potrace 1.16, written by Peter Selinger 2001-2019
</metadata>
<g transform="translate(0.000000,1024.000000) scale(0.100000,-0.100000)"
fill="#000000" stroke="none">
<path d="M4930 7974 c-150 -40 -276 -168 -326 -331 -24 -74 -26 -95 -22 -186
7 -131 30 -199 119 -348 67 -112 259 -374 347 -474 l42 -48 31 29 c53 49 270
345 338 460 133 222 168 351 138 499 -23 110 -67 195 -141 270 -102 104 -211
145 -376 144 -52 0 -120 -7 -150 -15z m271 -262 c145 -75 169 -257 48 -366
-150 -135 -390 -34 -389 165 1 177 182 284 341 201z"/>
<path d="M3650 7641 c-46 -15 -85 -39 -118 -74 l-34 -35 -51 26 c-44 23 -63
27 -137 26 -98 -1 -140 -16 -201 -71 -150 -135 -132 -356 35 -438 l53 -26 394
3 c383 3 395 4 435 25 56 30 111 94 124 145 31 113 -39 243 -142 265 -16 3
-28 9 -28 13 0 18 -86 103 -124 122 -44 23 -161 34 -206 19z m109 -192 c23 -8
39 -25 56 -59 24 -47 26 -48 69 -48 65 1 98 -36 64 -70 -17 -17 -709 -17 -726
0 -20 20 -14 45 19 82 43 50 87 56 139 22 36 -24 48 -26 144 -26 l104 0 22 44
c13 29 31 48 48 55 15 5 27 10 28 10 1 1 15 -4 33 -10z"/>
<path d="M6832 7349 c-88 -44 -125 -153 -80 -239 37 -72 74 -90 182 -90 68 0
102 5 133 20 67 30 103 107 88 186 -8 48 -76 121 -124 134 -63 17 -151 12
-199 -11z m166 -146 c-3 -27 -6 -28 -51 -26 -55 2 -60 4 -51 26 3 10 21 17 47
20 23 2 46 4 50 5 5 1 7 -10 5 -25z"/>
<path d="M4329 7162 c-47 -70 -201 -300 -343 -512 -143 -212 -262 -389 -267
-394 -4 -5 -82 61 -173 147 -91 86 -178 164 -192 174 -27 17 -27 17 -59 -20
-18 -20 -77 -100 -131 -177 -55 -76 -102 -139 -106 -139 -4 -1 -4 78 -1 174 5
153 4 175 -9 175 -9 0 -46 -32 -83 -72 -78 -83 -119 -163 -135 -265 -7 -46
-10 -539 -8 -1523 4 -1433 4 -1456 24 -1530 40 -146 105 -268 197 -367 97
-105 202 -155 942 -450 539 -214 753 -294 869 -323 79 -20 107 -21 270 -18
165 4 189 7 266 32 136 45 416 153 840 324 808 326 799 322 905 426 108 108
177 233 212 389 15 65 16 213 14 1565 -2 1435 -3 1495 -21 1548 -31 90 -71
152 -133 210 -32 30 -61 54 -65 54 -4 0 -6 -80 -4 -177 3 -114 0 -174 -6 -168
-5 6 -63 80 -129 165 -141 182 -145 187 -176 173 -33 -16 -135 -99 -285 -235
-73 -66 -135 -118 -137 -117 -7 8 -434 634 -542 797 -64 95 -120 169 -124 165
-11 -11 -99 -192 -99 -204 0 -5 96 -150 213 -322 118 -171 287 -419 377 -550
154 -226 197 -277 238 -277 28 0 78 31 95 59 22 38 21 63 -3 112 l-21 40 134
136 133 136 116 -154 c63 -85 138 -188 167 -230 l51 -76 0 -959 0 -960 -390
-2 -390 -2 0 62 c0 74 -29 145 -84 206 l-36 40 42 61 c36 53 43 70 46 125 6
97 -17 156 -94 235 -56 57 -62 67 -49 80 31 35 65 126 65 177 0 115 -60 208
-188 290 -2 1 7 18 19 38 32 55 36 147 10 217 -25 66 -83 136 -145 175 -35 22
-43 32 -36 45 53 98 16 237 -89 332 -23 21 -56 45 -74 53 -29 14 -32 19 -32
63 0 85 -74 167 -191 211 -177 66 -572 77 -794 24 -86 -21 -174 -69 -215 -116
-32 -38 -55 -101 -55 -151 0 -17 -7 -27 -22 -31 -41 -10 -125 -94 -153 -151
-31 -63 -42 -153 -26 -210 10 -37 9 -41 -11 -55 -51 -34 -116 -103 -144 -152
-26 -47 -29 -63 -29 -138 0 -69 4 -92 21 -121 l22 -37 -23 -10 c-43 -20 -106
-85 -132 -136 -18 -36 -28 -72 -31 -122 -4 -62 -1 -79 21 -125 13 -30 31 -63
40 -73 13 -18 11 -22 -32 -56 -25 -20 -59 -61 -76 -91 -26 -47 -29 -64 -30
-134 0 -67 4 -88 27 -131 14 -27 34 -56 42 -63 14 -12 12 -18 -20 -54 -50 -55
-75 -116 -81 -201 l-6 -72 -381 1 -381 0 0 975 0 975 60 79 c33 43 92 120 130
171 39 50 81 105 94 121 l23 29 109 -115 c60 -63 109 -119 109 -123 0 -5 -22
-39 -49 -76 -88 -121 -101 -144 -101 -183 0 -45 38 -94 80 -103 69 -15 77 -6
406 483 169 252 315 466 325 477 10 11 60 81 111 155 52 74 107 154 123 177
17 23 36 40 42 38 7 -2 -2 26 -21 63 -18 37 -42 94 -52 127 -10 33 -20 63 -24
67 -3 4 -44 -50 -91 -120z m851 -933 c93 2 287 -40 275 -59 -8 -13 -172 -39
-295 -46 -167 -9 -450 19 -450 45 0 8 55 34 100 47 53 15 149 22 240 17 52 -2
111 -4 130 -4z m-475 -315 c203 -34 668 -27 849 12 l75 17 45 -49 c51 -56 67
-101 42 -119 -19 -15 -240 -51 -401 -66 -74 -7 -196 -9 -320 -5 -208 6 -273
13 -439 43 l-98 18 5 42 c3 32 15 54 48 91 41 45 46 48 74 40 17 -4 71 -15
120 -24z m-215 -408 c306 -55 915 -55 1227 0 l86 15 39 -38 c42 -41 63 -91 54
-128 -6 -25 -37 -35 -179 -55 -39 -6 -99 -15 -133 -20 -197 -32 -695 -36 -964
-10 -109 11 -238 32 -302 50 -37 11 -38 12 -38 56 0 40 6 53 46 100 31 36 52
53 63 50 9 -3 54 -12 101 -20z m-102 -465 c390 -56 1083 -54 1453 5 l106 17
41 -33 c42 -34 66 -82 60 -122 -3 -21 -14 -25 -113 -45 -60 -12 -146 -26 -190
-32 -44 -6 -111 -16 -150 -21 -207 -30 -954 -21 -1188 15 -113 17 -257 51
-270 64 -5 5 -6 27 -3 48 8 46 81 137 103 129 7 -3 75 -15 151 -25z m-100
-466 c384 -56 1280 -50 1652 10 l94 16 45 -45 c40 -40 45 -50 45 -93 l1 -47
-55 -13 c-30 -6 -120 -22 -200 -33 -80 -12 -172 -26 -205 -31 -118 -18 -595
-29 -836 -19 -302 12 -519 40 -724 91 l-47 12 6 44 c8 62 69 137 103 128 14
-3 68 -12 121 -20z m-98 -479 c183 -27 422 -36 905 -36 490 1 781 10 930 31
115 16 115 16 115 -143 0 -65 -3 -118 -7 -119 -118 -10 -349 -21 -530 -26
l-233 -5 0 -100 0 -99 223 2 c122 1 295 7 385 13 l163 11 -3 -95 -3 -95 -130
-12 c-439 -40 -477 -39 -1315 7 -201 11 -428 24 -505 28 l-140 7 -3 79 -3 79
143 -6 c79 -4 252 -10 386 -14 l242 -6 0 101 0 102 -272 0 c-150 0 -324 3
-385 7 l-113 6 0 131 c0 150 5 179 29 172 9 -3 63 -12 121 -20z m-363 -484
c-4 -63 -8 -117 -10 -119 -3 -2 -44 1 -93 7 -194 24 -282 57 -258 97 6 10 25
28 43 40 54 37 291 108 315 95 5 -3 6 -55 3 -120z m-493 108 c-32 -13 -82 -76
-95 -119 -10 -35 -9 -45 10 -84 27 -56 70 -89 164 -128 143 -59 423 -88 1237
-129 234 -12 436 -24 450 -27 19 -4 5 -11 -65 -34 -89 -28 -188 -80 -233 -122
-45 -41 -64 -94 -60 -162 3 -49 15 -86 65 -191 74 -154 83 -186 82 -284 0 -84
-18 -147 -39 -142 -40 9 -310 112 -680 259 -228 90 -496 196 -595 235 -99 39
-205 84 -236 100 -108 56 -218 194 -261 328 -16 53 -21 100 -25 252 -3 102 -3
202 1 222 l7 36 147 -1 c89 0 139 -4 126 -9z m3148 -9 c84 -22 203 -78 232
-110 25 -28 15 -48 -36 -71 -38 -16 -173 -47 -280 -65 l-38 -6 0 136 c0 157
-9 149 122 116z m658 -178 c-1 -128 -6 -220 -14 -261 -35 -164 -153 -317 -296
-384 -41 -20 -302 -126 -580 -237 -278 -110 -527 -210 -554 -221 -27 -11 -50
-19 -51 -17 -21 48 -125 177 -231 288 -156 163 -194 216 -194 271 0 51 49 104
138 151 122 64 263 94 597 127 313 31 527 59 654 85 215 46 351 135 351 231 0
40 -51 119 -89 139 -17 8 -31 18 -31 20 0 3 68 5 150 5 l150 0 0 -197z"/>
<path d="M4350 5360 c34 -11 60 -11 35 0 -11 5 -29 8 -40 8 -16 0 -15 -2 5 -8z"/>
<path d="M4950 3761 l0 -171 140 0 140 0 0 165 0 165 -124 0 c-68 0 -131 3
-140 6 -14 5 -16 -13 -16 -165z"/>
<path d="M3433 3128 c-96 -97 -108 -125 -68 -163 16 -14 39 -25 53 -25 24 0
92 35 92 48 0 4 9 13 19 19 16 10 25 6 60 -28 51 -48 104 -54 139 -16 38 40
29 62 -67 158 -116 117 -119 117 -228 7z"/>
<path d="M4180 2932 c-80 -79 -90 -93 -90 -125 0 -39 36 -77 72 -77 31 0 75
28 104 65 l27 35 53 -50 c65 -62 99 -66 139 -18 19 23 25 38 20 57 -9 39 -178
201 -209 201 -18 0 -50 -25 -116 -88z"/>
<path d="M6483 3120 c-101 -98 -114 -129 -73 -170 36 -36 84 -27 140 26 l50
47 45 -42 c43 -40 57 -45 100 -42 25 3 65 46 65 71 0 22 -97 130 -154 172 -21
15 -48 28 -60 28 -13 0 -58 -36 -113 -90z"/>
<path d="M5736 2931 c-100 -100 -110 -129 -66 -176 37 -39 72 -33 130 21 l50
47 50 -47 c58 -54 102 -62 138 -23 41 44 31 71 -70 173 -69 71 -98 94 -118 94
-19 0 -48 -23 -114 -89z"/>
<path d="M6332 7124 c-49 -25 -102 -82 -102 -110 0 -7 -17 -21 -37 -31 -39
-18 -79 -68 -89 -110 -10 -37 5 -90 33 -123 48 -57 71 -63 263 -65 96 -1 197
3 223 8 78 14 137 80 137 152 0 56 -61 135 -104 135 -8 0 -17 13 -21 28 -3 16
-20 46 -37 66 -64 78 -171 98 -266 50z m147 -170 c12 -15 21 -35 21 -45 0 -14
9 -19 43 -21 35 -2 43 -7 45 -25 l3 -23 -161 0 -161 0 3 23 c3 19 10 22 51 25
42 3 47 5 47 28 0 31 33 64 64 64 15 0 33 -11 45 -26z"/>
<path d="M6578 5684 c-34 -18 -48 -43 -48 -86 0 -26 13 -50 60 -108 79 -97 95
-110 139 -110 43 0 75 20 96 60 20 39 11 60 -65 151 -89 108 -123 125 -182 93z"/>
</g>
</svg>
