<?xml version="1.0" standalone="no"?>
<!DOCTYPE svg PUBLIC "-//W3C//DTD SVG 20010904//EN"
 "http://www.w3.org/TR/2001/REC-SVG-20010904/DTD/svg10.dtd">
<svg version="1.0" xmlns="http://www.w3.org/2000/svg"
 width="1024.000000pt" height="1024.000000pt" viewBox="0 0 1024.000000 1024.000000"
 preserveAspectRatio="xMidYMid meet">
<metadata>
Created by potrace 1.16, written by Peter Selinger 2001-2019
</metadata>
<g transform="translate(0.000000,1024.000000) scale(0.100000,-0.100000)"
fill="#000000" stroke="none">
<path d="M4915 8740 c-260 -15 -601 -80 -870 -166 -463 -149 -815 -330 -1190
-613 -138 -104 -469 -436 -595 -596 -509 -647 -783 -1397 -807 -2205 -7 -245
6 -426 48 -680 66 -398 174 -736 345 -1070 247 -485 624 -939 1044 -1257 318
-240 807 -482 1204 -594 376 -107 693 -150 1046 -144 667 11 1287 190 1882
542 384 226 774 587 1051 971 379 526 615 1161 676 1817 14 145 6 586 -13 735
-42 339 -136 694 -267 1013 -224 546 -626 1077 -1102 1455 -672 534 -1614 838
-2452 792z m400 -385 c456 -39 819 -142 1226 -345 470 -236 857 -559 1170
-977 312 -417 533 -932 624 -1458 19 -112 30 -254 21 -288 -13 -52 -7 -52
-657 -57 l-606 -5 -37 -29 c-22 -16 -47 -49 -59 -75 -18 -41 -19 -52 -9 -101
14 -66 66 -122 131 -140 28 -7 210 -10 588 -7 302 2 564 0 583 -4 46 -10 70
-43 70 -99 0 -83 -40 -324 -80 -475 -59 -227 -170 -537 -206 -577 -26 -28 -45
-22 -120 33 -284 208 -650 389 -993 490 -199 58 -177 39 -185 171 -11 180 -62
851 -71 928 -5 46 -20 256 -30 430 -3 52 -8 109 -10 125 -3 17 -18 221 -35
455 -56 789 -61 855 -77 910 -23 83 -70 122 -238 197 -77 34 -237 105 -355
158 -388 174 -758 330 -803 337 -15 3 -60 2 -100 -2 -84 -9 -235 -71 -1067
-440 -250 -110 -298 -137 -332 -184 -39 -54 -45 -83 -62 -311 -9 -110 -20
-249 -26 -310 -25 -282 -38 -446 -50 -665 -6 -96 -19 -281 -30 -410 -10 -129
-26 -332 -35 -450 -9 -118 -27 -345 -41 -503 -13 -158 -24 -310 -24 -336 l0
-48 -162 -53 c-254 -81 -418 -151 -618 -262 -136 -76 -258 -154 -359 -230 -69
-52 -99 -59 -118 -29 -38 61 -144 357 -188 526 -41 156 -86 412 -88 508 -2 64
0 70 26 93 l28 24 559 0 c486 0 566 2 607 16 65 22 101 58 119 121 14 48 14
58 -1 102 -8 26 -28 60 -43 74 -55 53 -61 53 -677 52 l-569 -2 -29 29 c-29 28
-29 30 -22 111 20 246 92 560 190 832 173 476 502 959 896 1313 548 493 1275
803 1974 841 212 12 218 12 400 -4z m190 -930 c204 -86 391 -166 417 -177 84
-36 81 -39 -70 -109 l-137 -64 -613 -3 -612 -3 -68 27 c-92 37 -222 102 -222
113 0 10 11 15 225 106 94 40 267 115 385 167 118 52 222 98 230 101 40 17
116 -9 465 -158z m-1318 -611 c100 -47 207 -89 237 -95 33 -6 300 -9 697 -7
l644 3 65 29 c36 15 131 59 212 97 141 66 181 79 191 61 5 -7 18 -151 37 -412
5 -74 18 -243 29 -375 27 -326 59 -740 66 -855 6 -101 51 -761 60 -870 3 -36
14 -177 25 -315 10 -137 26 -349 35 -470 9 -121 18 -247 20 -280 13 -164 25
-345 25 -385 l0 -45 -91 -49 c-49 -26 -92 -47 -93 -45 -5 5 -34 381 -46 594
-22 379 -35 569 -65 975 -8 107 -24 339 -35 515 -11 176 -29 437 -39 580 -11
143 -22 307 -26 365 -3 58 -8 125 -10 150 -2 25 -7 113 -10 195 -4 83 -11 167
-16 187 -27 106 -145 158 -243 108 -43 -21 -65 -48 -83 -98 -16 -43 -23 85
107 -1902 11 -168 27 -411 35 -540 8 -129 17 -273 20 -320 40 -636 55 -880 55
-922 0 -41 -5 -54 -29 -79 l-29 -29 -852 0 -852 0 -34 34 c-30 30 -34 40 -34
88 0 58 54 864 70 1043 5 61 19 252 30 425 11 173 22 349 25 390 3 41 12 179
20 305 8 127 26 383 40 570 72 989 72 938 4 1006 -79 79 -213 58 -265 -43 -8
-16 -17 -55 -20 -86 -8 -104 -43 -633 -59 -887 -9 -137 -20 -304 -25 -370 -5
-66 -14 -190 -20 -275 -23 -338 -42 -606 -60 -845 -17 -226 -33 -446 -45 -610
-2 -33 -9 -157 -16 -275 -6 -118 -15 -219 -20 -224 -9 -10 -152 58 -172 82
-12 15 -1 177 104 1542 16 217 39 519 49 670 11 151 26 365 35 475 8 110 22
290 30 400 9 110 22 279 30 375 8 96 20 252 26 345 6 94 16 176 22 183 15 19
38 11 244 -84z m-839 -2945 c4 -11 -4 -163 -20 -337 -15 -174 -27 -340 -27
-369 -1 -28 -4 -54 -8 -56 -5 -3 -64 26 -133 63 -69 37 -141 71 -161 74 -46 8
-135 -36 -166 -82 -46 -70 -37 -173 21 -226 45 -41 1156 -638 1278 -687 44
-17 96 -18 965 -19 870 -2 920 -1 963 17 55 22 232 115 715 376 204 111 410
222 459 248 104 56 124 73 142 116 51 119 -35 253 -165 256 -40 2 -63 -8 -184
-77 -76 -43 -140 -76 -143 -74 -4 5 -63 716 -64 770 0 40 74 26 273 -53 280
-112 692 -370 744 -467 18 -32 18 -34 -6 -75 -28 -49 -77 -115 -180 -247 -201
-255 -414 -452 -696 -646 -703 -483 -1564 -678 -2370 -539 -766 132 -1461 519
-1947 1085 -83 97 -254 325 -273 367 -14 29 -14 36 -1 62 19 36 88 91 246 196
201 133 366 218 595 306 116 44 133 46 143 18z"/>
</g>
</svg>
