<?xml version="1.0" standalone="no"?>
<!DOCTYPE svg PUBLIC "-//W3C//DTD SVG 20010904//EN"
 "http://www.w3.org/TR/2001/REC-SVG-20010904/DTD/svg10.dtd">
<svg version="1.0" xmlns="http://www.w3.org/2000/svg"
 width="1024.000000pt" height="1024.000000pt" viewBox="0 0 1024.000000 1024.000000"
 preserveAspectRatio="xMidYMid meet">
<metadata>
Created by potrace 1.16, written by Peter Selinger 2001-2019
</metadata>
<g transform="translate(0.000000,1024.000000) scale(0.100000,-0.100000)"
fill="#000000" stroke="none">
<path d="M4696 7740 c-174 -21 -356 -79 -457 -146 -75 -49 -140 -115 -194
-197 -21 -31 -45 -59 -54 -61 -9 -3 -99 -21 -201 -41 -510 -100 -1044 -209
-1115 -227 -119 -30 -182 -63 -256 -137 -87 -87 -135 -184 -148 -298 -14 -134
6 -193 68 -193 14 0 167 29 340 65 174 35 447 89 606 120 307 60 320 63 314
70 -4 3 -288 44 -722 102 -64 9 -116 18 -114 19 4 5 731 145 1052 204 94 17
229 42 300 55 72 14 216 41 320 60 105 18 215 39 245 46 53 12 54 13 25 20
-16 5 -100 22 -185 38 -85 16 -168 34 -185 41 l-30 12 47 43 c61 55 150 90
302 118 120 22 128 22 1271 22 1050 0 1158 -2 1242 -17 166 -32 246 -75 246
-132 0 -14 -6 -33 -14 -42 -30 -36 -166 -85 -289 -104 -195 -29 -422 -49 -696
-60 -287 -11 -324 -19 -209 -44 104 -23 159 -48 181 -81 17 -26 18 -125 22
-1864 l4 -1836 128 -275 c116 -247 129 -282 135 -345 3 -38 8 -89 11 -112 l5
-43 -100 0 c-115 0 -102 -14 -122 125 -13 93 -9 87 -166 227 l-113 99 0 900
c0 494 -4 899 -8 899 -4 0 -35 -32 -67 -72 -33 -39 -84 -99 -112 -132 l-53
-61 0 -292 c0 -160 -4 -294 -8 -297 -5 -3 -20 18 -33 47 -13 28 -54 108 -90
177 l-66 125 5 306 5 305 93 106 93 106 3 235 c2 130 6 233 10 229 3 -4 40
-83 81 -177 41 -93 90 -201 108 -240 l34 -70 3 890 2 890 -24 21 c-14 13 -51
26 -88 33 -205 38 -538 91 -566 91 -54 0 -667 -118 -659 -127 2 -2 127 -28
278 -58 178 -36 283 -62 299 -74 59 -42 55 65 56 -1646 l1 -1570 37 -72 c20
-40 70 -131 111 -202 129 -225 126 -218 142 -381 12 -130 34 -275 49 -322 5
-16 -4 -18 -100 -18 l-105 0 -6 33 c-13 77 -35 234 -35 257 0 74 -15 93 -234
301 l-214 202 -1 706 -1 706 58 -107 c102 -190 91 -294 91 877 1 1136 5 1063
-62 1084 -17 5 -160 33 -316 62 l-284 51 -156 -30 c-86 -17 -234 -45 -328 -63
-95 -18 -173 -36 -173 -40 0 -10 13 -13 415 -79 458 -76 458 -76 484 -104 41
-44 44 -117 37 -1016 -6 -819 -13 -1200 -37 -1880 -10 -316 -20 -397 -32 -288
-4 29 -13 96 -21 148 -9 52 -33 257 -55 455 -22 198 -43 380 -46 405 -4 25
-10 484 -13 1021 -7 942 -8 978 -26 998 -30 33 -77 27 -366 -44 -387 -96 -761
-187 -960 -235 -209 -50 -225 -55 -250 -88 -19 -24 -20 -45 -21 -786 -1 -418
-4 -786 -7 -815 l-7 -55 -44 145 c-24 79 -66 215 -93 301 l-48 158 0 468 c0
509 1 502 -56 516 -31 8 -409 -76 -463 -102 -19 -9 -44 -30 -55 -45 -21 -28
-21 -34 -26 -1385 -6 -1492 -2 -1390 -67 -1521 -34 -67 -146 -185 -196 -206
-23 -9 -69 -15 -124 -15 -101 0 -141 -17 -169 -71 -19 -39 -15 -106 11 -145
38 -58 -201 -55 3298 -52 3000 3 3214 4 3243 20 66 36 90 112 54 175 -35 63
-61 73 -189 73 -134 0 -159 10 -245 97 -66 66 -130 186 -146 272 -6 34 -10
827 -10 2215 0 2376 3 2236 -62 2358 -59 112 -149 186 -286 235 -164 60 -89
57 -1407 59 -665 1 -1241 -2 -1279 -6z m2759 -2840 l6 -2093 26 -66 c14 -36
42 -97 62 -136 20 -38 37 -74 39 -78 2 -4 -45 -6 -104 -5 l-108 3 -48 120 -47
120 0 276 -1 277 -37 50 c-55 73 -196 232 -205 232 -4 0 -8 -243 -8 -539 0
-481 -5 -596 -23 -533 -67 236 -99 318 -215 567 l-127 270 -3 1001 -2 1000 55
74 55 74 0 376 c0 375 0 376 23 407 12 17 56 87 97 157 41 69 78 126 83 126 4
0 7 -389 7 -864 l0 -864 57 -52 56 -51 69 68 68 67 0 977 0 976 21 19 c29 26
193 143 197 140 1 -2 4 -945 7 -2096z m-3015 -42 c0 -557 -2 -1009 -6 -1006
-3 4 -46 93 -95 198 l-89 191 0 684 0 684 88 134 c48 74 90 133 94 131 3 -2 7
-460 8 -1016z"/>
</g>
</svg>
