<?xml version="1.0" standalone="no"?>
<!DOCTYPE svg PUBLIC "-//W3C//DTD SVG 20010904//EN"
 "http://www.w3.org/TR/2001/REC-SVG-20010904/DTD/svg10.dtd">
<svg version="1.0" xmlns="http://www.w3.org/2000/svg"
 width="1024.000000pt" height="1024.000000pt" viewBox="0 0 1024.000000 1024.000000"
 preserveAspectRatio="xMidYMid meet">
<metadata>
Created by potrace 1.16, written by Peter Selinger 2001-2019
</metadata>
<g transform="translate(0.000000,1024.000000) scale(0.100000,-0.100000)"
fill="#000000" stroke="none">
<path d="M4656 8404 c-14 -14 -16 -94 -16 -729 l0 -715 -776 -2 c-755 -3 -776
-4 -790 -22 -12 -17 -14 -105 -14 -528 l0 -507 22 -21 c22 -20 31 -20 790 -20
l768 0 0 -2029 0 -2028 -87 -6 c-79 -5 -90 -8 -110 -32 -27 -30 -30 -77 -7
-99 14 -14 96 -16 750 -16 l734 0 10 26 c15 39 12 51 -19 86 -28 31 -33 33
-110 36 l-81 4 0 2029 0 2029 763 0 c754 0 763 0 785 20 l22 21 0 508 0 508
-23 21 -23 22 -761 0 -762 0 -1 712 c-1 642 -2 714 -17 730 -15 17 -49 18
-524 18 -448 0 -509 -2 -523 -16z"/>
</g>
</svg>
