<?xml version="1.0" standalone="no"?>
<!DOCTYPE svg PUBLIC "-//W3C//DTD SVG 20010904//EN"
 "http://www.w3.org/TR/2001/REC-SVG-20010904/DTD/svg10.dtd">
<svg version="1.0" xmlns="http://www.w3.org/2000/svg"
 width="1024.000000pt" height="1024.000000pt" viewBox="0 0 1024.000000 1024.000000"
 preserveAspectRatio="xMidYMid meet">
<metadata>
Created by potrace 1.16, written by Peter Selinger 2001-2019
</metadata>
<g transform="translate(0.000000,1024.000000) scale(0.100000,-0.100000)"
fill="#000000" stroke="none">
<path d="M7224 7206 c-44 -20 -67 -54 -109 -164 -21 -53 -64 -165 -96 -248
l-59 -150 -92 -18 c-110 -20 -297 -82 -415 -136 -336 -156 -691 -459 -927
-792 l-48 -68 -159 0 c-119 0 -161 3 -163 13 -2 6 -36 129 -76 272 -105 377
-276 909 -317 987 -81 154 -231 234 -503 267 -192 24 -370 11 -599 -44 -480
-117 -874 -400 -1129 -811 -116 -187 -197 -402 -248 -660 -4 -21 -10 -22 -166
-27 -188 -5 -221 -14 -289 -75 -77 -69 -80 -90 -77 -455 3 -292 4 -307 24
-334 53 -72 123 -90 201 -52 78 38 83 57 83 349 l0 250 94 0 95 0 1 -428 c1
-453 3 -480 50 -572 31 -61 101 -151 152 -195 76 -65 74 -66 87 37 12 95 55
222 95 280 l23 34 -44 38 -43 37 0 230 0 229 485 0 c267 0 485 -2 485 -5 0 -2
-33 -14 -72 -26 -94 -27 -195 -75 -288 -137 -251 -164 -415 -434 -445 -732
-15 -150 29 -369 101 -512 69 -136 208 -307 306 -374 l41 -29 -351 -5 c-336
-5 -352 -6 -379 -26 -15 -11 -39 -36 -51 -55 -32 -47 -28 -136 9 -175 53 -58
-104 -54 2380 -54 2566 0 2334 -7 2387 73 36 54 35 111 -2 167 -43 65 -66 70
-296 70 -168 0 -200 2 -200 14 0 8 52 165 116 348 132 379 143 432 104 512
-33 70 -94 116 -229 175 -66 29 -124 58 -130 65 -7 9 6 30 47 77 209 234 359
504 457 821 l27 87 51 -36 c59 -41 170 -123 401 -295 228 -171 332 -218 481
-218 179 0 335 82 427 224 58 90 81 172 80 291 0 106 -17 174 -65 259 -25 44
-464 634 -640 860 -60 77 -114 150 -119 162 -9 18 0 36 61 119 59 81 71 104
71 137 0 122 -137 209 -229 146 -19 -12 -79 -85 -134 -160 -75 -104 -104 -138
-121 -138 -53 1 -52 8 28 208 46 117 76 205 76 228 0 106 -117 183 -216 140z
m-2867 -375 c50 -12 96 -28 101 -34 12 -14 74 -168 70 -172 -2 -2 -35 8 -75
21 -287 96 -603 81 -904 -45 -345 -144 -607 -447 -701 -808 -26 -104 -31 -140
-35 -300 l-6 -181 -30 -6 c-16 -3 -67 -6 -113 -6 l-84 0 0 104 c0 127 28 298
70 426 72 219 180 397 347 571 226 234 504 379 848 444 121 22 391 15 512 -14z
m-179 -447 l22 -6 0 -533 0 -533 -37 -5 c-21 -3 -261 -6 -535 -6 l-496 0 -7
86 c-24 284 68 536 268 732 146 143 322 229 537 264 41 7 223 7 248 1z m438
-126 c40 -21 41 -22 82 -157 104 -342 148 -532 158 -688 l7 -101 -94 -7 c-52
-3 -132 -5 -179 -3 l-85 3 -1 435 c0 239 1 465 4 502 l5 67 31 -15 c17 -9 49
-25 72 -36z m2946 -98 c291 -378 620 -823 629 -850 25 -70 -8 -181 -65 -225
-79 -60 -163 -55 -265 18 -117 82 -596 440 -623 465 l-28 26 0 343 0 344 132
-3 131 -3 89 -115z m-3092 -1200 c44 -23 98 -68 166 -135 94 -93 105 -109 162
-225 77 -157 102 -255 110 -422 l5 -128 418 0 c231 0 419 -4 419 -9 0 -9 -86
-132 -225 -321 -91 -124 -275 -381 -348 -486 l-38 -54 -427 0 -427 1 35 26
c63 48 185 177 229 241 59 88 127 232 153 327 19 68 22 106 22 250 0 144 -3
182 -22 250 -27 98 -98 248 -156 329 -119 166 -353 321 -557 368 -87 20 -30
27 201 25 l215 -2 65 -35z m-850 -480 c0 -155 -3 -200 -13 -200 -7 0 -29 -11
-49 -25 -20 -14 -42 -25 -47 -25 -12 0 -273 139 -305 162 -17 13 -17 15 15 54
95 113 210 188 335 218 33 8 60 15 62 15 1 1 2 -89 2 -199z m375 157 c98 -42
141 -72 226 -156 60 -61 95 -106 118 -152 34 -70 61 -157 61 -201 l0 -28 -199
0 c-198 0 -200 0 -207 23 -12 40 -63 105 -99 127 l-35 22 0 200 0 200 43 -7
c23 -4 65 -17 92 -28z m-760 -540 c77 -40 139 -78 137 -83 -4 -15 -289 -160
-298 -151 -4 4 -8 62 -8 130 -1 118 6 177 22 177 4 0 70 -33 147 -73z m3215
-122 c123 -57 131 -61 126 -85 -2 -14 -40 -127 -84 -250 -44 -124 -97 -278
-118 -342 l-38 -118 -408 0 -408 0 109 144 c133 176 500 644 555 708 l39 46
48 -21 c26 -12 106 -49 179 -82z m-2056 -127 c-28 -95 -155 -320 -171 -305
-17 17 -233 313 -233 319 0 5 93 8 206 8 l205 0 -7 -22z m-843 -54 c35 -38 96
-64 155 -64 42 0 55 -5 76 -27 37 -40 238 -306 234 -310 -15 -15 -159 -45
-236 -50 -207 -12 -357 46 -515 200 -71 69 -87 90 -75 96 80 46 326 181 331
181 3 0 16 -12 30 -26z"/>
<path d="M3935 5996 c-41 -18 -485 -454 -501 -492 -38 -90 73 -188 159 -142
26 13 471 430 492 461 26 37 19 92 -16 131 -27 32 -40 39 -89 51 -8 2 -28 -2
-45 -9z"/>
<path d="M7532 5943 c-104 -51 -106 -188 -3 -240 115 -58 238 75 171 185 -23
38 -75 72 -110 72 -14 0 -40 -8 -58 -17z"/>
</g>
</svg>
