<?xml version="1.0" standalone="no"?>
<!DOCTYPE svg PUBLIC "-//W3C//DTD SVG 20010904//EN"
 "http://www.w3.org/TR/2001/REC-SVG-20010904/DTD/svg10.dtd">
<svg version="1.0" xmlns="http://www.w3.org/2000/svg"
 width="1024.000000pt" height="1024.000000pt" viewBox="0 0 1024.000000 1024.000000"
 preserveAspectRatio="xMidYMid meet">
<metadata>
Created by potrace 1.16, written by Peter Selinger 2001-2019
</metadata>
<g transform="translate(0.000000,1024.000000) scale(0.100000,-0.100000)"
fill="#000000" stroke="none">
<path d="M4865 8369 c-54 -12 -108 -58 -135 -113 -17 -36 -22 -70 -27 -186
l-6 -141 -71 -35 c-245 -123 -440 -362 -522 -639 -21 -74 -27 -117 -31 -242
l-6 -153 -112 0 c-130 0 -183 -14 -243 -66 -22 -19 -52 -57 -66 -86 -25 -50
-26 -58 -26 -230 0 -161 2 -183 21 -220 26 -50 62 -85 114 -109 32 -15 65 -19
160 -19 l120 0 3 -220 2 -220 -64 0 c-35 0 -71 -2 -79 -6 -10 -4 -16 6 -21 35
-6 42 -48 86 -92 97 -13 3 -90 4 -172 2 -117 -3 -154 -8 -182 -22 -104 -54
-148 -117 -157 -224 l-6 -70 -107 -4 c-97 -3 -110 -5 -149 -31 -73 -48 -81
-78 -81 -316 0 -188 2 -208 21 -248 14 -29 35 -52 63 -68 38 -22 54 -25 148
-25 l105 0 5 -67 c6 -83 33 -138 90 -187 65 -56 122 -68 297 -64 160 3 192 13
211 64 l10 25 29 -20 c20 -15 45 -21 81 -21 l52 0 -4 -884 -3 -884 -150 -4
c-120 -4 -161 -9 -202 -25 -69 -27 -124 -72 -161 -131 -53 -83 -62 -134 -62
-354 l0 -198 -166 0 c-95 0 -174 -4 -185 -10 -22 -12 -26 -59 -7 -78 9 -9 463
-12 1983 -12 1935 0 1972 0 1989 19 22 25 14 54 -20 69 -15 8 -87 12 -189 12
l-165 0 0 203 c0 228 -8 273 -63 354 -37 53 -121 117 -176 134 -20 5 -102 13
-183 16 l-148 6 0 877 0 878 23 6 c12 3 31 6 42 6 11 0 36 8 55 19 l35 18 18
-29 c31 -51 72 -61 242 -56 132 4 156 7 198 27 98 48 146 123 147 227 l0 62
108 4 c126 5 176 25 213 85 23 36 24 49 27 229 4 214 -3 256 -51 311 -45 51
-81 63 -190 63 l-94 0 -7 62 c-8 79 -36 136 -91 187 -61 56 -119 71 -274 71
-189 0 -222 -15 -237 -107 -6 -37 -9 -41 -25 -33 -10 6 -45 10 -78 10 l-61 0
0 219 0 219 128 3 c123 4 131 5 178 34 30 19 60 49 79 79 l30 49 -3 181 c-3
201 -13 240 -75 304 -60 63 -98 75 -238 80 l-126 4 -6 127 c-9 201 -53 346
-160 531 -69 118 -228 275 -352 347 -49 29 -97 57 -105 61 -12 7 -16 40 -20
158 -5 156 -10 175 -59 227 -52 57 -68 61 -291 63 -113 2 -223 -1 -245 -7z
m393 -316 c2 -96 0 -113 -12 -113 -13 0 -15 14 -11 87 7 121 6 123 -66 123
l-59 0 0 -105 0 -105 -105 0 -105 0 0 103 c0 68 4 107 12 115 9 9 58 12 178
10 l165 -3 3 -112z m-431 -365 c-134 -189 -195 -383 -204 -655 l-6 -173 -175
0 -175 0 7 113 c11 189 48 313 132 444 44 69 140 171 208 221 45 33 215 111
244 112 7 0 -7 -28 -31 -62z m314 23 c26 -33 56 -101 81 -186 19 -62 21 -103
25 -367 l5 -298 -171 0 -171 0 0 178 c1 332 24 501 85 622 13 26 32 55 41 64
24 25 81 17 105 -13z m300 -132 c51 -85 95 -208 114 -317 21 -117 32 -402 17
-402 -9 0 -12 38 -12 129 0 231 -43 415 -140 599 -55 104 -44 99 21 -9z m269
-110 c103 -138 156 -294 167 -491 5 -106 4 -118 -10 -118 -14 0 -17 12 -17 71
0 216 -61 390 -207 585 -29 39 -53 75 -53 79 0 15 70 -58 120 -126z m550 -825
c55 -12 71 -51 68 -173 -2 -73 -7 -106 -15 -109 -10 -3 -13 22 -13 101 0 85
-3 109 -17 122 -15 15 -58 17 -457 14 -243 -1 -449 -6 -458 -11 -10 -5 -18 -3
-22 5 -2 6 -4 -3 -3 -20 l1 -33 187 0 c265 0 587 -12 564 -21 -11 -4 -73 -8
-137 -8 l-117 -1 2 -72 2 -73 -1003 -3 c-948 -2 -1003 -1 -1010 15 -4 10 -7
61 -7 114 0 103 11 129 60 150 23 9 2327 12 2375 3z m-1605 -794 l130 -1 -69
-30 c-131 -56 -227 -120 -321 -214 -49 -49 -101 -111 -115 -137 -14 -27 -27
-48 -30 -48 -3 0 -6 100 -8 222 l-3 221 143 -6 c79 -4 202 -7 273 -7z m1254
-212 c-1 -197 -2 -219 -14 -192 -10 23 -13 74 -11 205 4 214 4 209 16 209 6 0
10 -80 9 -222z m-651 16 c270 -61 522 -315 578 -584 22 -104 14 -298 -16 -395
-41 -128 -121 -257 -214 -343 -72 -66 -88 -66 -21 1 117 117 181 244 192 382
l5 70 -43 50 c-24 28 -82 93 -130 145 -47 52 -98 115 -112 140 -62 107 -170
196 -274 226 -72 21 -205 21 -279 -1 -81 -23 -132 -55 -198 -125 -97 -101
-144 -236 -132 -372 12 -136 68 -236 225 -401 134 -141 281 -309 281 -320 0
-13 -161 -1 -236 18 -142 36 -314 148 -408 266 -119 150 -170 293 -170 484 0
146 15 210 85 354 45 91 62 115 143 195 68 67 113 102 172 133 181 95 364 120
552 77z m-1588 -501 c0 -251 -3 -453 -6 -450 -4 3 -8 82 -9 174 -2 92 -4 171
-4 176 -1 4 -35 7 -76 7 l-75 0 0 -158 c0 -130 3 -162 17 -181 12 -18 13 -23
2 -19 -33 11 -38 67 -38 471 -1 469 -10 437 114 437 l75 0 0 -457z m2988 441
l22 -15 0 -420 c0 -271 -4 -427 -10 -440 -6 -10 -20 -19 -31 -19 -19 0 -19 1
-5 16 13 13 16 44 16 181 l0 166 -80 -6 -80 -5 0 279 0 279 73 0 c49 0 80 -5
95 -16z m-2618 -249 c0 -217 6 -211 -101 -89 l-69 79 0 98 0 97 85 0 85 0 0
-185z m2257 10 l0 -176 -40 38 c-21 21 -58 64 -83 96 -43 58 -44 60 -44 138
l0 79 84 0 84 0 -1 -175z m706 -64 c20 -8 25 -19 31 -62 8 -56 -2 -209 -13
-209 -4 0 -5 31 -3 69 l4 70 -66 65 c-36 35 -66 66 -66 68 0 8 91 7 113 -1z
m-3723 -46 l0 -45 -70 0 -70 0 0 45 0 45 70 0 70 0 0 -45z m1900 -116 c55 -25
105 -71 133 -124 16 -30 21 -59 21 -115 1 -87 -23 -144 -75 -181 l-31 -22 28
42 c37 56 44 140 16 191 -24 43 -58 69 -105 80 -36 8 -36 7 -22 -13 30 -43 13
-140 -29 -169 -19 -14 -81 -8 -105 8 -26 19 -51 71 -51 109 0 14 -2 25 -4 25
-77 0 -89 -181 -18 -264 17 -20 17 -20 -8 -5 -38 24 -88 95 -101 142 -30 111
37 247 146 298 55 25 147 25 205 -2z m730 -1569 c0 -656 -2 -790 -13 -790 -12
0 -14 131 -11 779 2 704 4 801 20 801 2 0 4 -355 4 -790z m-1536 445 l116
-149 -30 -31 c-17 -17 -34 -45 -39 -62 -5 -16 -7 -196 -4 -398 4 -402 6 -410
63 -440 40 -21 99 -19 137 5 63 38 61 26 64 465 2 220 0 407 -5 415 -11 21 34
-29 152 -168 l102 -122 0 -251 c0 -239 1 -253 22 -290 38 -68 129 -89 216 -49
59 27 72 62 72 191 l0 102 22 -29 c30 -38 54 -67 103 -124 22 -25 63 -72 90
-105 28 -33 68 -80 90 -105 21 -25 48 -55 59 -67 l19 -23 -691 0 -692 0 0 702
c0 424 4 698 9 693 5 -6 61 -77 125 -160z m2051 -1477 c51 -40 65 -89 65 -230
0 -107 -2 -128 -15 -128 -14 0 -19 43 -18 173 l0 27 -318 0 -318 0 -3 -97 -3
-98 -1072 -3 -1073 -2 0 132 c0 119 3 137 23 172 12 21 38 47 57 57 33 18 88
19 1341 19 l1306 0 28 -22z"/>
<path d="M5235 2493 l-101 -4 4 -34 4 -35 212 0 c315 0 1014 -10 1069 -15 26
-2 47 -1 47 2 0 14 -44 74 -60 83 -17 9 -910 11 -1175 3z"/>
</g>
</svg>
