<?xml version="1.0" standalone="no"?>
<!DOCTYPE svg PUBLIC "-//W3C//DTD SVG 20010904//EN"
 "http://www.w3.org/TR/2001/REC-SVG-20010904/DTD/svg10.dtd">
<svg version="1.0" xmlns="http://www.w3.org/2000/svg"
 width="1024.000000pt" height="1024.000000pt" viewBox="0 0 1024.000000 1024.000000"
 preserveAspectRatio="xMidYMid meet">
<metadata>
Created by potrace 1.16, written by Peter Selinger 2001-2019
</metadata>
<g transform="translate(0.000000,1024.000000) scale(0.100000,-0.100000)"
fill="#000000" stroke="none">
<path d="M4923 7280 c-76 -16 -131 -56 -152 -113 -7 -17 -11 -122 -11 -266 l0
-238 -111 3 -110 2 -2 137 c-2 131 -3 138 -26 156 -53 43 -121 31 -140 -23 -7
-20 -11 -152 -11 -355 l0 -325 30 -30 c26 -26 36 -29 63 -24 18 4 43 18 57 31
24 24 25 30 25 158 l0 132 112 3 113 3 -3 -1417 -2 -1418 -32 1 c-18 1 -121 2
-228 2 l-194 1 20 35 c14 24 20 46 16 68 -10 74 -169 705 -186 742 -10 22 -50
76 -88 120 -38 44 -124 144 -191 223 l-122 143 0 114 0 114 239 3 c224 3 241
4 267 24 44 32 66 68 71 115 5 54 -25 112 -76 146 -33 22 -42 23 -246 23
l-213 0 -4 118 c-3 104 -7 125 -31 175 -39 78 -118 148 -236 205 -78 38 -108
47 -162 50 -64 4 -71 2 -200 -58 -215 -101 -332 -161 -357 -183 -12 -11 -29
-44 -37 -71 -15 -49 -14 -64 21 -306 23 -163 43 -270 55 -296 23 -49 80 -84
136 -84 53 0 124 46 147 95 17 36 18 44 3 134 -18 106 -33 212 -41 281 l-5 45
79 37 c43 20 88 39 99 43 l22 7 -3 -334 -3 -333 -89 -230 c-82 -213 -107 -265
-127 -265 -8 0 -429 -191 -552 -250 -37 -18 -76 -45 -87 -60 -58 -82 -32 -208
52 -252 81 -43 75 -44 468 132 199 90 373 172 386 183 32 25 60 82 123 252 29
77 55 148 59 159 6 15 29 -7 127 -124 214 -254 197 -226 245 -422 23 -95 57
-240 76 -322 19 -82 41 -160 49 -172 14 -22 13 -23 -23 -28 -20 -3 -399 -4
-842 -2 -443 2 -845 0 -894 -5 -70 -6 -103 -15 -155 -40 -264 -130 -320 -493
-110 -708 64 -64 106 -92 178 -116 52 -17 190 -18 2913 -16 2834 1 2859 1
2916 21 149 52 268 192 302 353 13 63 3 158 -24 235 -33 94 -123 190 -225 239
l-56 28 -282 3 -283 3 0 250 0 249 225 0 c204 0 229 2 264 20 91 46 93 179 4
237 -24 16 -56 18 -259 21 l-231 3 -7 99 c-4 55 -4 151 0 214 l7 114 43 17
c59 22 84 60 84 123 0 40 -6 57 -27 83 -51 60 -42 59 -619 59 l-527 0 19 22
c10 11 83 80 160 152 330 306 692 644 726 678 49 50 57 93 28 152 -35 73 -120
108 -183 75 -24 -13 -133 -112 -412 -374 -340 -320 -618 -580 -676 -633 l-58
-52 -184 217 c-234 276 -225 268 -291 268 -67 0 -120 -36 -137 -95 -20 -68 -3
-99 157 -285 259 -302 324 -375 352 -393 23 -15 52 -17 279 -13 l253 3 -2
-217 -3 -217 -47 -4 c-95 -7 -138 -52 -138 -143 0 -68 39 -115 110 -130 27 -6
56 -8 65 -5 14 6 15 -21 13 -242 l-3 -249 -611 0 -611 0 -6 100 c-8 139 -9
2228 -1 2508 l7 228 136 -3 136 -3 2 -125 c3 -155 6 -166 44 -185 25 -13 37
-14 65 -5 65 22 64 18 64 393 l0 338 -26 24 c-32 30 -82 33 -114 7 -27 -22
-38 -83 -39 -214 l-1 -86 -132 -4 c-73 -2 -135 -2 -137 -1 -2 1 -4 107 -6 235
-2 212 -4 238 -23 273 -42 84 -130 124 -229 105z m2267 -2460 l0 -80 -280 0
-280 0 0 80 0 80 280 0 280 0 0 -80z m-25 -196 c24 -6 25 -10 25 -80 l0 -74
-280 0 -280 0 0 74 0 75 53 3 c109 7 459 8 482 2z m25 -679 l0 -245 -280 0
-280 0 0 245 0 245 280 0 280 0 0 -245z"/>
<path d="M4165 6828 c-42 -25 -44 -36 -45 -231 l0 -188 26 -26 c21 -21 32 -24
62 -20 22 4 46 17 60 32 21 25 22 34 22 205 0 171 -1 180 -22 204 -27 30 -74
41 -103 24z"/>
<path d="M5751 6829 c-48 -19 -50 -32 -51 -236 l0 -192 26 -20 c36 -28 76 -26
113 5 l31 26 0 180 c0 109 -4 187 -11 200 -8 15 -68 50 -81 47 -2 0 -14 -5
-27 -10z"/>
<path d="M3677 6740 c-134 -34 -216 -137 -217 -271 0 -77 29 -144 86 -202 49
-49 98 -70 171 -75 115 -8 217 50 271 152 22 42 26 64 27 126 0 82 -19 129
-75 193 -55 63 -177 98 -263 77z"/>
</g>
</svg>
