<?xml version="1.0" standalone="no"?>
<!DOCTYPE svg PUBLIC "-//W3C//DTD SVG 20010904//EN"
 "http://www.w3.org/TR/2001/REC-SVG-20010904/DTD/svg10.dtd">
<svg version="1.0" xmlns="http://www.w3.org/2000/svg"
 width="1024.000000pt" height="1024.000000pt" viewBox="0 0 1024.000000 1024.000000"
 preserveAspectRatio="xMidYMid meet">
<metadata>
Created by potrace 1.16, written by Peter Selinger 2001-2019
</metadata>
<g transform="translate(0.000000,1024.000000) scale(0.100000,-0.100000)"
fill="#000000" stroke="none">
<path d="M4965 8814 c-556 -55 -962 -163 -1395 -370 -529 -254 -958 -591
-1345 -1059 -215 -259 -330 -435 -484 -745 -155 -311 -265 -664 -315 -1014
-77 -524 -55 -1076 60 -1541 153 -620 469 -1200 915 -1681 477 -513 1118 -889
1842 -1079 576 -151 1140 -165 1734 -44 565 116 1087 350 1543 693 278 208
462 386 669 645 465 582 709 1165 809 1926 24 182 23 752 -1 942 -101 795
-432 1499 -989 2104 -201 218 -380 374 -609 531 -539 369 -1149 602 -1769 674
-126 14 -576 27 -665 18z m598 -648 c255 -33 429 -75 677 -163 667 -237 1222
-659 1614 -1228 123 -178 147 -219 231 -390 187 -386 275 -725 306 -1193 26
-368 -33 -814 -157 -1187 -125 -380 -338 -766 -574 -1040 -104 -121 -323 -333
-440 -426 -547 -437 -1217 -683 -1915 -706 -632 -20 -1236 141 -1795 479 -485
293 -899 735 -1149 1228 -196 384 -306 768 -341 1185 -48 580 53 1155 290
1640 157 320 309 537 581 827 176 188 352 329 629 503 426 267 949 444 1438
485 144 12 460 4 605 -14z"/>
<path d="M3655 7220 c-11 -4 -34 -21 -52 -37 -67 -59 -827 -849 -844 -878 -16
-25 -19 -51 -19 -162 0 -146 6 -173 53 -221 92 -97 212 -95 313 4 22 22 77 80
122 129 l83 90 1322 5 1322 5 48 23 c53 27 67 41 539 517 217 220 339 350 343
368 16 61 -17 122 -82 156 -26 13 -3116 15 -3148 1z"/>
<path d="M6977 6787 c-10 -7 -136 -134 -281 -282 l-262 -270 0 -1712 1 -1713
33 -32 32 -33 218 0 c193 0 220 2 244 18 62 42 58 -80 58 1764 l1 1678 152
-156 c84 -86 168 -166 187 -178 65 -39 170 -22 234 37 51 48 66 95 66 213 l0
107 -117 123 c-176 187 -400 411 -431 431 -31 20 -107 23 -135 5z"/>
<path d="M4175 5906 c-16 -7 -40 -25 -52 -40 -22 -25 -27 -26 -122 -26 -77 0
-101 3 -112 16 -32 39 -63 44 -254 44 -198 0 -217 -4 -262 -52 -56 -60 -53 27
-53 -1544 l0 -1446 22 -39 c38 -69 75 -79 281 -79 254 0 277 14 277 168 l0 79
-41 6 c-63 8 -163 62 -204 110 -20 23 -48 66 -63 97 -23 48 -27 67 -27 145 0
77 5 99 28 148 53 114 119 174 236 214 l66 22 3 935 2 936 103 0 103 0 0 -142
c-1 -134 1 -146 25 -199 50 -105 132 -172 245 -199 134 -30 295 54 361 189 26
52 28 66 31 204 l4 147 647 0 c357 0 676 3 710 6 l61 7 0 113 0 114 -706 0
-707 0 -38 35 c-34 30 -46 35 -90 35 -44 0 -55 -4 -80 -31 l-29 -31 0 -217 c0
-119 -5 -234 -10 -256 -22 -95 -133 -117 -175 -35 -12 23 -15 72 -15 250 0
238 -6 274 -52 304 -35 23 -79 28 -113 12z"/>
<path d="M4373 4070 c-72 -10 -109 -27 -152 -71 -63 -62 -66 -74 -71 -309 l-5
-215 -100 -1 c-159 -2 -154 -1 -191 -38 -30 -30 -34 -40 -34 -85 0 -44 5 -56
34 -89 l34 -37 131 -3 131 -4 0 -194 c0 -208 5 -236 52 -268 28 -20 81 -20
118 -1 52 27 59 56 67 270 l6 195 779 0 778 0 0 -185 c0 -203 7 -235 55 -273
51 -41 140 -21 170 38 13 25 15 104 15 553 l0 523 -26 52 c-29 58 -69 96 -132
124 -40 18 -84 19 -820 23 -427 2 -805 0 -839 -5z m1577 -485 l0 -115 -777 2
-778 3 -3 113 -3 112 781 0 780 0 0 -115z"/>
</g>
</svg>
