<?xml version="1.0" standalone="no"?>
<!DOCTYPE svg PUBLIC "-//W3C//DTD SVG 20010904//EN"
 "http://www.w3.org/TR/2001/REC-SVG-20010904/DTD/svg10.dtd">
<svg version="1.0" xmlns="http://www.w3.org/2000/svg"
 width="1024.000000pt" height="1024.000000pt" viewBox="0 0 1024.000000 1024.000000"
 preserveAspectRatio="xMidYMid meet">
<metadata>
Created by potrace 1.16, written by Peter Selinger 2001-2019
</metadata>
<g transform="translate(0.000000,1024.000000) scale(0.100000,-0.100000)"
fill="#000000" stroke="none">
<path d="M3509 8790 c-157 -28 -293 -151 -334 -303 -41 -154 -1 -310 110 -426
l55 -58 0 -2728 0 -2729 21 -43 c26 -54 49 -70 121 -84 65 -13 79 -8 248 104
l110 72 2 2710 3 2710 48 50 c106 110 149 265 113 402 -39 147 -141 260 -276
306 -58 19 -163 28 -221 17z"/>
<path d="M4121 7903 c-19 -10 -44 -31 -55 -46 -21 -28 -21 -29 -21 -1355 l0
-1327 23 -36 c46 -75 -121 -69 1949 -69 1790 0 1859 1 1899 19 67 31 104 102
89 174 -6 25 -128 153 -596 622 -350 351 -589 598 -589 609 0 11 241 263 589
615 450 456 590 604 595 628 11 47 -9 104 -49 143 l-36 35 -1882 3 c-1777 2
-1884 1 -1916 -15z"/>
<path d="M5744 3315 c-17 -7 -46 -26 -65 -42 -19 -16 -70 -56 -114 -89 -300
-225 -290 -215 -477 -473 -160 -219 -475 -645 -608 -822 -416 -550 -518 -687
-528 -706 -29 -54 0 -122 64 -149 28 -12 369 -14 2121 -14 1393 0 2100 4 2125
10 47 13 88 61 88 103 0 59 -8 67 -390 385 -129 108 -266 224 -305 257 -38 34
-169 144 -290 245 -121 101 -251 211 -290 245 -38 34 -122 104 -185 156 -63
52 -212 176 -330 275 -118 100 -251 212 -295 249 -44 36 -158 132 -253 212
-194 162 -221 178 -268 158z m131 -626 c60 -17 109 -74 241 -284 116 -185 119
-192 119 -247 0 -93 -58 -152 -150 -152 -68 0 -98 20 -142 95 -89 151 -96 158
-148 145 -23 -6 -109 -127 -243 -346 -121 -197 -135 -210 -229 -210 -115 0
-188 113 -136 213 15 30 198 304 398 597 104 152 116 164 171 184 48 18 68 19
119 5z m981 -618 c46 -21 79 -59 184 -211 181 -262 185 -270 185 -332 0 -93
-59 -153 -150 -153 -71 0 -97 20 -162 126 -86 141 -105 164 -139 167 -37 4
-47 -7 -139 -146 -38 -58 -82 -115 -97 -125 -38 -28 -114 -33 -158 -10 -66 34
-97 116 -71 185 11 28 281 399 325 447 62 67 145 87 222 52z"/>
<path d="M4073 2816 c-28 -24 -28 -25 -33 -175 -5 -144 -6 -152 -30 -175 -14
-14 -128 -93 -255 -176 l-230 -152 -55 4 c-52 4 -213 46 -547 144 -180 52
-212 54 -252 17 -30 -29 -46 -71 -156 -413 -31 -96 -66 -201 -77 -232 -22 -63
13 -33 -353 -299 -71 -52 -150 -113 -174 -136 -42 -40 -43 -44 -39 -88 3 -25
14 -55 24 -67 43 -47 50 -48 611 -48 492 0 531 2 568 19 22 10 50 29 61 42 18
21 130 211 224 384 163 298 181 325 250 373 36 26 319 218 629 427 309 209
559 380 554 381 -12 3 -219 65 -448 134 -110 33 -210 60 -222 60 -12 0 -35
-11 -50 -24z"/>
</g>
</svg>
