<?xml version="1.0" standalone="no"?>
<!DOCTYPE svg PUBLIC "-//W3C//DTD SVG 20010904//EN"
 "http://www.w3.org/TR/2001/REC-SVG-20010904/DTD/svg10.dtd">
<svg version="1.0" xmlns="http://www.w3.org/2000/svg"
 width="1024.000000pt" height="1024.000000pt" viewBox="0 0 1024.000000 1024.000000"
 preserveAspectRatio="xMidYMid meet">
<metadata>
Created by potrace 1.16, written by Peter Selinger 2001-2019
</metadata>
<g transform="translate(0.000000,1024.000000) scale(0.100000,-0.100000)"
fill="#000000" stroke="none">
<path d="M4259 8688 c-61 -11 -87 -41 -154 -183 -54 -113 -62 -126 -83 -122
-12 2 -25 1 -27 -4 -3 -4 -17 -6 -31 -3 -19 3 -24 1 -18 -8 6 -10 4 -10 -9 0
-9 8 -25 11 -37 7 -13 -4 -20 -2 -20 6 0 10 -3 10 -12 1 -9 -9 -15 -9 -25 0
-10 8 -17 8 -24 1 -7 -7 -22 -8 -41 -3 -16 5 -36 6 -44 3 -8 -3 -101 -6 -208
-7 -180 -1 -197 -3 -223 -22 -19 -14 -57 -80 -120 -210 -51 -104 -105 -214
-120 -244 l-28 -55 -135 2 c-149 3 -191 -6 -222 -48 -18 -23 -19 -43 -18 -228
1 -259 11 -284 118 -281 174 4 253 1 278 -12 35 -17 65 -58 71 -95 7 -53 8
-265 1 -269 -4 -3 -2 -14 4 -24 10 -15 10 -22 1 -31 -8 -8 -9 -18 -1 -35 8
-18 8 -27 -2 -39 -11 -14 -11 -18 -1 -25 10 -5 10 -9 2 -15 -9 -5 -9 -11 0
-22 10 -11 10 -16 0 -22 -8 -6 -9 -15 -2 -33 6 -17 6 -29 -1 -36 -8 -8 -8 -18
0 -37 15 -32 15 -38 2 -30 -13 8 -13 -1 0 -25 7 -13 7 -21 0 -25 -8 -5 -7 -12
2 -23 10 -12 10 -16 0 -19 -6 -3 -9 -9 -6 -15 4 -5 8 -34 9 -64 2 -44 -1 -54
-14 -54 -13 0 -13 -2 -3 -9 9 -5 13 -22 11 -44 -2 -20 0 -39 3 -43 4 -4 3 -15
-3 -25 -6 -13 -6 -25 3 -39 9 -14 10 -23 2 -28 -8 -5 -12 -67 -4 -67 1 0 3
-30 4 -67 1 -37 -1 -65 -5 -63 -6 4 -5 -26 5 -127 2 -21 0 -41 -5 -44 -6 -3
-5 -11 2 -20 8 -10 9 -18 0 -27 -6 -8 -7 -17 -3 -21 10 -11 9 -136 -2 -136 -5
0 -3 -7 4 -14 8 -10 9 -20 2 -32 -6 -11 -6 -27 -2 -40 5 -13 5 -36 0 -52 -5
-19 -4 -34 3 -41 7 -7 7 -14 -1 -24 -9 -10 -9 -16 0 -25 8 -8 8 -15 0 -25 -7
-8 -9 -17 -5 -21 12 -11 14 -56 4 -56 -6 0 -6 -12 1 -32 9 -24 8 -33 0 -36 -7
-2 -9 -8 -6 -14 4 -6 7 -77 8 -158 0 -82 -2 -143 -6 -137 -4 6 -10 9 -13 5 -3
-3 1 -13 11 -22 11 -11 13 -20 6 -29 -5 -7 -6 -21 -1 -32 12 -31 10 -38 -7
-31 -13 5 -14 3 -6 -6 14 -18 18 -50 7 -67 -5 -9 -5 -16 2 -18 7 -3 9 -30 6
-76 -5 -85 -5 -84 0 -122 3 -16 1 -32 -4 -35 -4 -3 -3 -26 2 -50 7 -32 7 -46
-1 -48 -8 -3 -7 -8 1 -18 9 -11 9 -18 -1 -29 -10 -12 -10 -15 0 -15 8 0 10 -8
6 -22 -13 -43 -13 -53 -3 -76 8 -18 8 -26 -4 -33 -12 -8 -12 -10 0 -18 12 -7
12 -15 4 -33 -7 -16 -7 -28 1 -41 8 -14 8 -20 -4 -27 -13 -9 -13 -11 0 -20 13
-9 13 -11 0 -20 -13 -8 -13 -13 -2 -31 11 -17 11 -23 2 -29 -9 -6 -9 -13 -1
-29 8 -15 9 -21 1 -21 -6 0 -8 -5 -4 -12 12 -18 14 -169 3 -163 -13 9 -11 -12
4 -36 9 -17 9 -23 0 -26 -10 -3 -10 -9 0 -25 10 -16 9 -22 -1 -25 -10 -4 -10
-8 -1 -20 10 -11 10 -16 0 -23 -8 -4 -9 -10 -3 -14 6 -3 8 -115 5 -298 -2
-161 -1 -307 2 -325 3 -20 17 -40 36 -53 26 -19 44 -22 177 -24 81 -1 164 1
184 5 21 3 40 4 42 1 9 -9 77 -9 82 0 3 4 13 8 23 8 39 0 44 50 40 420 0 37
22 96 42 111 33 25 101 28 524 23 209 -2 385 -3 390 -3 6 0 327 1 714 2 802 3
757 8 787 -78 6 -18 12 -183 14 -375 1 -114 -2 -113 274 -112 121 0 235 4 251
7 17 4 38 18 49 32 17 23 18 49 20 319 1 162 -2 294 -7 294 -4 0 -5 6 0 13 4
6 6 23 4 36 -1 13 3 28 11 32 10 7 10 9 1 9 -7 0 -13 9 -13 21 0 13 4 18 12
13 8 -5 9 -2 3 12 -12 28 -14 83 -4 90 5 3 4 14 -2 26 -6 11 -8 35 -4 54 3 21
2 34 -5 34 -5 0 -10 5 -10 11 0 5 4 8 9 5 5 -3 11 8 13 24 3 17 2 30 -2 30 -3
0 -7 11 -8 26 -1 14 2 23 8 19 6 -3 10 -1 10 4 0 6 -4 11 -10 11 -5 0 -10 9
-10 20 0 11 5 20 10 20 6 0 10 5 10 10 0 6 -7 10 -15 10 -8 0 -15 5 -15 10 0
6 4 10 10 10 5 0 8 33 6 80 -2 44 0 83 5 86 5 3 9 15 9 27 0 18 -2 19 -10 7
-8 -12 -10 -11 -10 8 0 12 5 22 10 22 6 0 5 8 -2 19 -9 15 -9 23 1 35 11 12
11 16 1 16 -12 0 -11 17 6 85 5 20 4 26 -5 21 -14 -9 -14 -5 -1 28 6 17 6 26
0 26 -6 0 -10 12 -10 26 0 14 4 23 10 19 6 -3 10 1 10 9 0 8 -4 17 -9 20 -5 3
-11 15 -14 27 -4 15 -2 19 9 15 18 -7 18 9 -1 28 -13 13 -13 17 -1 28 9 9 11
20 5 35 -5 15 -5 23 2 23 10 0 6 61 -7 94 -5 14 -4 17 4 12 7 -4 12 -1 12 8 0
8 -4 18 -10 21 -11 7 -9 33 4 53 4 7 3 18 -2 25 -13 15 -13 29 0 44 7 9 7 13
-1 13 -14 0 -12 48 2 67 5 7 6 17 2 23 -12 20 -15 160 -3 160 6 0 6 6 -2 15
-10 12 -10 15 1 15 11 0 11 2 -1 10 -13 9 -13 11 0 20 13 9 13 12 -3 21 -12 7
-15 15 -8 27 5 9 7 43 6 75 -2 31 0 57 4 57 10 0 9 44 -1 51 -5 3 -4 18 2 33
5 15 6 25 1 22 -7 -5 -7 25 0 179 1 11 -2 33 -5 49 -5 19 -3 32 6 38 10 6 9
11 -5 19 -14 8 -16 14 -7 24 7 9 9 27 5 46 -6 25 -4 30 6 23 11 -6 12 -5 3 7
-12 16 -12 98 0 117 4 7 2 19 -4 27 -10 12 -10 15 0 15 10 0 10 3 1 14 -9 11
-9 15 1 20 10 5 10 7 1 12 -7 3 -13 15 -13 25 0 11 5 17 10 14 17 -11 11 17
-7 31 -17 13 -17 15 -1 24 14 9 15 16 7 37 -7 18 -6 30 3 41 9 11 9 13 1 9
-14 -9 -13 124 1 135 6 4 5 12 -2 20 -12 15 -12 78 1 78 4 0 7 9 7 20 0 11 -7
20 -15 20 -12 0 -14 4 -7 16 5 8 6 35 2 60 -4 24 -3 44 1 44 4 0 8 17 7 38 0
22 3 48 6 60 4 11 3 23 -1 25 -5 3 -8 73 -7 155 2 187 13 217 88 245 31 11 53
14 59 8 5 -5 21 -6 37 -1 15 4 33 4 41 0 7 -5 17 -6 22 -3 4 2 44 6 87 8 87 2
124 19 140 61 6 14 9 114 7 225 l-3 199 -32 32 -32 32 -156 1 c-143 1 -158 3
-171 21 -9 10 -64 117 -123 236 -116 235 -120 242 -161 264 -28 14 -242 24
-255 12 -3 -4 -19 -2 -35 4 -21 7 -33 7 -43 -1 -10 -8 -16 -9 -21 -1 -3 5 -11
10 -16 10 -6 0 -8 -4 -4 -9 3 -6 -6 -6 -24 -1 -16 4 -31 7 -33 5 -11 -11 -74
-12 -80 -2 -6 9 -8 9 -8 -1 0 -8 -5 -10 -12 -6 -21 13 -61 14 -76 2 -10 -9
-16 -8 -22 3 -6 9 -12 11 -20 3 -5 -5 -26 -8 -45 -6 -26 3 -35 9 -35 23 0 11
-7 22 -15 25 -8 4 -15 12 -15 18 0 7 -20 53 -44 102 -46 96 -90 143 -134 146
-93 5 -1358 2 -1393 -4z m1537 -638 l531 0 46 -91 c26 -50 47 -97 47 -104 0
-11 -112 -13 -567 -14 -313 0 -575 -1 -583 -2 -8 0 -139 1 -291 2 -152 1 -281
-1 -287 -5 -6 -3 -13 -2 -17 3 -3 7 -15 7 -29 1 -13 -5 -26 -6 -29 -3 -3 3
-256 5 -561 5 -339 0 -556 3 -556 9 0 5 20 52 44 104 l45 95 603 2 c332 2 709
2 838 1 129 -1 474 -3 766 -3z m-1548 -1157 c55 -34 60 -58 62 -287 1 -116 2
-249 1 -296 -1 -212 -1 -210 -19 -211 -14 -1 -14 -2 1 -6 13 -3 17 -11 14 -24
-3 -10 -1 -22 4 -25 5 -3 7 -10 3 -15 -3 -6 -5 -101 -5 -212 2 -316 2 -711 1
-717 -6 -20 -2 -269 4 -278 4 -7 5 -16 1 -22 -3 -5 -5 -89 -5 -187 2 -344 -2
-408 -25 -433 -10 -11 -25 -18 -32 -16 -8 3 -13 -2 -13 -13 0 -15 -7 -19 -32
-19 -18 0 -37 -2 -43 -3 -26 -8 -72 13 -96 43 -25 32 -49 128 -32 128 9 0 8
161 -1 186 -4 10 -2 20 4 24 7 5 8 15 1 33 -7 17 -7 36 -1 51 5 13 7 26 4 29
-4 3 -6 93 -3 147 0 8 0 24 -1 35 -1 21 -2 255 -1 290 0 11 1 67 1 125 0 58 0
146 1 195 1 50 1 98 1 108 -1 22 -1 259 -1 402 1 61 -2 118 -6 128 -4 9 -3 17
2 17 10 0 9 77 0 87 -4 3 -2 14 4 25 5 10 7 22 5 27 -7 10 -7 129 -4 430 l3
203 39 34 c52 45 111 51 164 17z m790 -1 c58 -42 60 -56 59 -394 0 -212 -4
-308 -11 -308 -7 0 -8 -3 -1 -8 14 -10 16 -164 2 -155 -6 4 -7 1 -1 -8 11 -17
13 -1150 2 -1143 -4 3 -8 0 -8 -5 0 -6 4 -11 9 -11 15 0 7 -630 -8 -661 -51
-104 -216 -90 -248 21 -12 39 -12 624 -1 636 4 4 4 14 -1 23 -10 21 -8 1682 2
1699 5 6 4 12 -1 12 -4 0 -8 56 -8 124 1 118 2 126 26 151 50 55 132 66 188
27z m778 1 c51 -33 58 -57 59 -218 1 -82 -2 -161 -7 -173 -4 -13 -6 -28 -3
-32 9 -15 11 -350 2 -350 -4 0 -5 -6 0 -12 12 -21 14 -48 2 -48 -5 0 -7 -5 -3
-11 12 -20 15 -111 3 -103 -8 4 -9 -1 -4 -17 12 -36 14 -128 4 -135 -5 -3 -5
-13 0 -23 10 -19 9 -66 -2 -77 -4 -4 -3 -12 1 -18 11 -18 9 -686 -3 -686 -5 0
-4 -4 4 -9 12 -7 12 -13 3 -24 -7 -7 -9 -17 -5 -21 11 -10 10 -276 0 -276 -4
0 -5 -5 -1 -12 9 -15 13 -374 5 -425 -4 -21 -10 -36 -15 -33 -5 3 -13 -6 -17
-19 -6 -14 -15 -21 -23 -18 -8 3 -20 -1 -26 -9 -16 -18 -30 -18 -30 1 0 8 -5
15 -11 15 -5 0 -8 -4 -5 -9 7 -11 -17 -21 -50 -21 -13 0 -24 6 -24 13 0 8 -12
20 -26 27 -21 12 -25 20 -22 47 2 19 -1 33 -7 33 -5 0 -11 26 -12 60 -1 34 3
60 8 60 6 0 7 4 4 10 -3 5 -5 87 -5 182 1 224 0 289 -6 310 -3 9 0 19 6 23 6
4 7 13 2 23 -9 19 -9 79 1 88 4 4 4 11 0 17 -8 13 -7 276 1 284 3 4 1 12 -5
19 -5 7 -6 15 -1 18 5 3 6 29 2 58 -9 69 -4 453 6 469 4 7 3 10 -3 6 -11 -7
-12 107 -1 119 4 3 3 15 -2 24 -9 18 -5 124 6 142 3 4 1 8 -3 8 -9 0 -7 234 2
257 2 7 1 14 -3 17 -4 2 -7 91 -7 198 1 211 3 222 59 251 55 28 109 28 152 0z"/>
<path d="M4940 4166 c0 -2 8 -10 18 -17 15 -13 16 -12 3 4 -13 16 -21 21 -21
13z"/>
<path d="M5693 4155 c0 -8 4 -12 9 -9 5 3 6 10 3 15 -9 13 -12 11 -12 -6z"/>
<path d="M7060 3833 c-1 -16 -2 -752 -1 -845 l1 -96 113 -67 c61 -37 144 -86
182 -108 39 -22 97 -57 130 -77 33 -20 145 -88 249 -149 l189 -113 46 13 c25
7 127 43 225 80 l180 68 74 -57 c40 -31 86 -66 100 -77 15 -11 57 -45 93 -75
101 -85 193 -155 201 -152 4 1 17 -11 31 -27 13 -16 34 -34 48 -41 13 -7 44
-29 69 -49 25 -19 47 -36 48 -37 6 -4 -16 -39 -23 -39 -3 0 -10 7 -15 15 -7
12 -12 12 -22 2 -6 -6 -19 -12 -27 -12 -14 0 -14 1 -1 10 12 8 11 10 -7 10
-13 0 -23 -5 -23 -10 0 -7 -6 -7 -18 -1 -13 7 -23 6 -31 -2 -9 -9 -16 -9 -30
0 -14 9 -21 9 -30 0 -7 -7 -11 -7 -11 -1 0 13 -60 6 -77 -8 -10 -8 -13 -5 -13
8 0 16 -2 16 -10 4 -8 -12 -10 -12 -16 4 -5 13 -13 16 -30 12 -15 -4 -24 -2
-24 5 0 7 -28 39 -62 71 -35 32 -84 79 -109 104 -26 24 -51 44 -55 45 -5 0
-17 2 -26 4 -10 2 -20 -1 -24 -6 -3 -5 -9 -7 -14 -4 -5 3 -18 -2 -29 -12 -47
-42 -94 -78 -101 -76 -4 1 -10 -12 -14 -28 -4 -22 -10 -29 -21 -26 -8 4 -21
-3 -30 -16 -12 -17 -17 -19 -24 -8 -7 11 -9 11 -13 0 -2 -7 -9 -9 -17 -5 -11
7 -11 10 0 17 11 7 10 9 -3 9 -10 0 -18 -4 -18 -10 0 -5 -4 -10 -10 -10 -5 0
-10 6 -10 14 0 8 -13 20 -29 27 -16 7 -28 16 -26 20 6 9 -72 89 -88 89 -7 0
-17 3 -20 7 -13 12 -61 12 -69 0 -6 -9 -10 -9 -16 0 -8 12 -62 13 -62 1 0 -21
-29 0 -111 81 -82 80 -127 109 -145 92 -10 -10 -94 -9 -94 1 0 6 -6 5 -15 -2
-15 -12 -18 -10 -65 32 -10 9 -21 14 -24 11 -3 -4 -6 0 -6 9 0 16 -40 57 -40
42 -1 -5 -8 4 -16 19 -8 15 -19 25 -24 22 -6 -4 -10 -2 -10 3 0 25 -68 29
-547 28 -277 -1 -503 2 -503 5 0 4 -16 10 -35 13 -19 4 -35 11 -35 15 0 5 -14
14 -30 21 -39 16 -77 62 -107 128 -21 48 -23 63 -20 195 2 78 0 150 -5 159 -5
11 -18 16 -43 14 -19 -2 -35 1 -35 7 0 5 -6 4 -14 -2 -11 -9 -15 -9 -18 0 -3
8 -9 9 -19 3 -19 -12 -33 -12 -41 0 -4 6 -12 5 -22 -3 -8 -7 -20 -10 -27 -6
-6 4 -15 1 -20 -6 -7 -11 -9 -11 -9 -1 0 8 -13 12 -32 12 -18 0 -60 0 -93 1
-33 0 -60 0 -60 -1 0 -7 -64 -5 -79 3 -13 6 -21 5 -26 -3 -6 -9 -9 -9 -13 1
-4 9 -8 10 -14 4 -9 -11 -33 -13 -49 -3 -6 4 -14 4 -18 0 -9 -8 -156 -10 -156
-2 0 3 -9 6 -20 7 -11 1 -20 -3 -20 -9 0 -6 -10 -8 -26 -4 -14 4 -32 2 -39 -4
-9 -8 -14 -6 -19 6 -5 13 -9 14 -21 4 -11 -9 -18 -10 -29 -1 -9 8 -21 8 -39 2
-18 -7 -28 -7 -33 0 -4 7 -10 6 -19 -1 -10 -8 -14 -8 -17 1 -3 8 -9 9 -18 4
-11 -7 -83 -11 -92 -5 -13 8 -48 8 -53 0 -4 -6 -13 -5 -25 2 -14 9 -22 9 -33
-1 -12 -9 -16 -9 -21 1 -5 10 -7 10 -12 1 -3 -7 -13 -9 -22 -5 -21 8 -72 6
-94 -3 -11 -4 -18 -3 -18 4 0 15 -27 14 -33 -1 -4 -10 -8 -9 -16 2 -10 13 -12
13 -21 0 -8 -12 -10 -12 -10 -1 0 10 -3 11 -14 2 -11 -9 -15 -9 -18 0 -3 8 -9
9 -18 4 -19 -12 -75 -13 -129 -3 -24 4 -48 5 -55 1 -16 -11 -40 -10 -48 2 -5
6 -11 5 -17 -4 -5 -7 -11 -9 -14 -4 -4 5 -16 9 -29 8 -22 -2 -23 -6 -25 -86
-1 -46 -2 -87 -3 -91 -4 -17 -2 -54 3 -68 3 -8 5 -26 4 -39 -2 -20 11 -30 93
-73 52 -27 151 -79 220 -115 69 -36 163 -86 209 -110 88 -46 171 -99 183 -117
4 -6 11 -10 15 -8 4 1 13 0 18 -2 19 -7 -2 -16 -49 -21 -26 -2 -51 -7 -57 -10
-5 -4 -9 1 -9 11 0 13 -3 14 -14 5 -7 -6 -20 -9 -29 -5 -8 3 -25 0 -37 -6 -13
-7 -20 -8 -16 -2 3 6 2 13 -4 17 -5 3 -10 2 -10 -2 0 -5 -18 -10 -40 -11 -22
-2 -40 1 -40 6 0 11 -30 9 -49 -2 -7 -5 -16 -5 -20 0 -3 5 -26 23 -51 39 -25
16 -47 32 -50 35 -10 11 -60 40 -60 36 0 -3 -12 1 -26 8 -26 14 -64 11 -64 -5
0 -5 -6 -9 -13 -9 -8 0 -22 -9 -32 -20 -10 -11 -21 -17 -26 -14 -5 3 -16 -4
-26 -15 -9 -11 -20 -18 -25 -15 -5 3 -8 2 -7 -3 3 -20 -2 -27 -11 -13 -8 13
-11 12 -24 -5 -14 -17 -17 -18 -26 -5 -6 10 -10 11 -10 3 0 -7 -7 -13 -16 -13
-9 0 -12 5 -8 12 5 8 2 9 -9 5 -10 -3 -17 -2 -17 4 0 6 -4 7 -10 4 -5 -3 -10
0 -10 9 0 8 -14 20 -30 28 -17 7 -33 21 -36 30 -3 10 -25 31 -49 48 -35 24
-51 29 -89 26 -29 -2 -46 1 -46 8 0 7 -3 7 -8 1 -8 -12 -462 -12 -507 0 -80
21 -157 86 -197 165 -24 47 -25 60 -28 613 l0 97 -26 -6 c-15 -4 -69 -24 -121
-45 -52 -22 -100 -39 -107 -39 -7 0 -31 16 -53 35 -23 19 -45 35 -49 35 -4 0
-25 14 -48 30 -134 100 -183 135 -201 144 -12 6 -34 21 -50 34 -86 66 -109 82
-124 82 -14 0 -75 -44 -121 -86 -8 -7 -31 -28 -51 -46 -74 -69 -128 -116 -137
-120 -10 -3 -102 -85 -215 -190 -65 -61 -110 -86 -145 -79 -6 1 -12 -3 -12 -9
0 -6 -3 -9 -7 -7 -5 3 -42 -4 -83 -15 -41 -11 -84 -21 -95 -22 -11 0 -26 -5
-33 -10 -7 -4 -16 -5 -19 -2 -3 3 -20 -1 -37 -8 -17 -7 -36 -11 -42 -9 -23 8
-73 -32 -228 -184 -90 -87 -189 -183 -222 -213 l-59 -55 1 -205 c1 -113 3
-209 4 -215 1 -5 1 -14 0 -20 -1 -5 -2 -143 -1 -305 1 -293 1 -295 24 -312 12
-10 27 -16 33 -14 7 3 21 -2 32 -10 14 -10 23 -11 27 -4 4 6 17 10 28 9 12 -2
33 1 46 5 16 6 26 4 32 -5 5 -8 9 -9 9 -3 0 6 26 11 65 11 36 1 65 -2 65 -7 0
-4 21 -3 47 1 28 6 51 5 56 0 6 -6 21 -5 40 1 25 9 32 8 42 -6 11 -15 13 -15
19 -1 3 10 11 13 18 9 6 -4 38 -7 70 -6 36 1 58 -3 58 -10 0 -6 6 -5 16 3 20
16 95 21 112 7 6 -6 12 -7 12 -2 0 10 145 12 155 2 3 -3 26 0 51 8 39 12 46
11 51 -2 4 -11 9 -12 18 -4 9 8 15 8 20 1 4 -7 12 -7 25 1 15 10 22 10 32 0
13 -13 29 -16 27 -4 -3 17 5 18 81 7 44 -6 80 -9 80 -5 0 11 105 8 112 -4 6
-8 11 -7 18 4 7 12 15 13 40 3 17 -6 32 -7 35 -2 6 8 71 3 88 -8 4 -2 7 0 7 5
0 8 44 8 155 0 17 -1 36 1 42 5 6 4 14 3 18 -3 4 -6 13 -5 25 2 14 9 22 9 34
-1 9 -8 16 -9 16 -3 0 11 50 9 68 -2 7 -4 16 -5 21 -2 19 12 120 14 124 2 3
-8 9 -7 20 3 13 10 26 11 54 4 21 -5 67 -7 102 -3 47 4 64 3 68 -7 4 -9 10
-10 23 -3 30 16 140 23 140 9 0 -9 3 -9 14 0 15 13 46 5 46 -13 0 -8 2 -8 8 0
10 15 51 24 58 13 3 -5 11 -6 17 -2 14 9 237 12 237 4 0 -3 25 -5 55 -4 31 2
55 -1 55 -7 0 -6 5 -10 11 -10 5 0 8 4 5 9 -3 5 22 12 55 16 41 5 64 4 68 -4
5 -7 17 -8 39 -2 21 6 34 6 38 -1 4 -6 9 -5 15 3 6 10 15 11 36 4 15 -6 48 -8
73 -5 33 4 48 1 57 -10 8 -10 12 -11 13 -3 0 8 18 12 53 13 28 0 85 1 125 3
39 2 72 0 72 -4 0 -4 15 -3 32 2 22 6 34 6 36 -1 2 -6 9 -7 14 -4 17 11 81 12
99 3 9 -5 19 -5 23 -2 3 4 22 8 41 10 28 3 35 0 35 -14 0 -12 3 -14 8 -6 9 14
62 20 80 9 7 -4 12 -2 12 3 0 18 62 12 83 -6 19 -17 20 -17 14 0 -7 20 -6 20
27 7 15 -5 28 -6 31 0 9 14 216 4 226 -12 6 -8 9 -9 9 -2 0 7 17 11 46 10 25
-1 48 2 50 6 8 12 117 3 122 -10 3 -10 7 -10 19 -1 18 15 195 20 205 5 4 -6
11 -6 20 1 16 13 78 13 78 0 0 -6 5 -5 13 1 15 12 65 13 73 1 3 -5 14 -4 25 1
12 7 26 7 37 2 9 -5 44 -6 77 -2 33 4 68 3 78 -2 9 -5 22 -6 27 -3 25 15 84
15 102 -1 17 -16 18 -16 18 0 0 12 4 15 18 8 18 -8 80 -7 89 2 3 2 15 1 28 -4
13 -5 25 -6 29 -3 9 9 130 10 142 1 7 -5 23 -4 38 2 39 15 56 12 56 -7 1 -17
1 -17 11 -1 8 14 18 16 52 11 23 -3 45 -10 49 -17 6 -8 8 -8 8 0 0 16 41 25
57 13 6 -6 18 -7 25 -3 20 13 81 13 96 1 9 -7 16 -7 20 -1 10 14 82 15 82 1 0
-8 3 -8 11 0 6 6 23 8 44 3 18 -4 38 -3 43 2 5 5 19 5 35 -1 18 -7 28 -7 33 0
4 6 11 6 20 -2 8 -6 14 -8 14 -3 0 14 71 9 80 -5 5 -10 9 -9 13 2 6 15 52 18
72 5 6 -4 17 -3 25 2 8 5 21 5 31 -1 11 -5 20 -5 23 0 7 11 77 11 93 -1 7 -5
14 -5 18 2 9 15 51 12 69 -5 10 -11 17 -12 22 -4 4 7 27 10 61 7 29 -3 56 -1
59 4 5 8 141 1 156 -8 3 -2 9 0 13 6 4 6 12 7 24 0 12 -6 22 -5 28 1 8 8 17 8
31 0 16 -8 21 -7 26 6 6 14 8 14 22 -3 15 -18 15 -18 10 0 -6 18 -5 18 18 2
14 -9 27 -12 30 -8 4 7 130 8 146 2 15 -6 36 -4 41 4 4 5 15 5 25 1 21 -8 277
-10 291 -2 12 7 100 3 109 -5 4 -4 15 -3 26 3 11 6 27 7 36 3 9 -4 22 -6 27
-4 6 1 30 4 54 6 33 2 48 -1 57 -14 12 -16 13 -16 19 0 9 23 95 23 95 1 0 -13
3 -13 15 -3 8 7 28 10 45 8 16 -3 30 -1 30 3 0 11 151 1 166 -11 8 -7 13 -6
17 4 4 10 17 14 41 12 43 -4 82 31 73 64 -3 11 -1 23 4 26 5 3 7 10 4 15 -4 5
-6 51 -5 101 1 51 1 109 0 128 -6 119 -4 210 5 213 6 2 5 9 -2 18 -8 9 -9 27
-5 49 4 19 6 63 4 98 -4 64 -13 77 -59 85 -10 2 -49 13 -88 24 -63 18 -174 49
-306 83 -26 6 -64 27 -85 46 -22 18 -42 34 -45 34 -3 0 -24 17 -46 38 -22 20
-58 52 -78 70 -40 36 -47 46 -246 339 -71 106 -135 195 -141 199 -16 10 -139
41 -193 49 -11 1 -32 7 -46 13 -14 6 -41 12 -60 14 -19 1 -36 6 -39 10 -3 4
-17 8 -32 10 -15 2 -30 7 -34 11 -4 4 -18 7 -31 7 -16 0 -30 12 -48 40 -14 22
-50 75 -80 117 -30 43 -59 85 -65 93 -98 150 -108 161 -142 165 -12 2 -52 10
-88 19 -36 8 -76 18 -90 20 -14 2 -67 14 -117 25 -103 23 -113 24 -113 14z
m-4912 -551 c32 -21 66 -45 78 -53 12 -8 50 -35 85 -61 34 -27 69 -48 75 -48
7 0 15 -9 19 -19 3 -11 16 -23 28 -27 12 -3 34 -18 49 -32 l28 -25 -23 -12
c-13 -7 -31 -8 -44 -4 -15 6 -23 5 -23 -2 0 -8 -6 -7 -16 2 -13 10 -17 10 -25
-2 -7 -12 -9 -12 -9 1 0 13 -2 13 -9 1 -5 -8 -16 -11 -24 -8 -8 3 -20 0 -26
-6 -7 -7 -11 -8 -11 0 0 5 -11 9 -25 8 -14 -2 -25 2 -25 8 0 7 -4 5 -10 -3 -5
-8 -12 -15 -15 -15 -3 0 -10 7 -15 15 -7 10 -10 11 -10 3 0 -7 -5 -13 -11 -13
-5 0 -7 5 -3 12 5 7 2 9 -9 5 -11 -4 -18 1 -22 14 -7 21 -71 53 -92 45 -7 -3
-13 0 -14 7 0 9 -2 9 -6 0 -2 -7 -11 -13 -20 -13 -8 0 -22 -7 -30 -16 -13 -13
-17 -13 -24 -2 -7 11 -9 11 -9 0 0 -7 -4 -10 -10 -7 -5 3 -10 1 -10 -4 0 -6
-4 -11 -10 -11 -5 0 -10 7 -10 15 0 8 -4 15 -10 15 -5 0 -9 -5 -7 -11 1 -6 -4
-14 -12 -17 -8 -3 -11 0 -7 7 9 15 -7 14 -22 -1 -9 -9 -12 -9 -12 0 0 6 -6 9
-14 6 -8 -3 -17 0 -21 5 -3 6 -11 9 -16 5 -5 -3 -7 -10 -4 -15 4 -5 2 -9 -4
-9 -6 0 -15 9 -21 20 -10 18 -7 24 13 21 4 0 7 7 7 16 0 9 3 14 6 10 3 -3 21
9 39 26 18 18 48 43 65 57 18 13 67 53 109 87 42 34 78 63 79 63 2 0 29 -17
60 -38z m5764 -303 c28 -33 34 -87 13 -125 -22 -41 -83 -59 -127 -37 -30 15
-68 63 -68 87 0 32 29 86 52 96 36 15 110 3 130 -21z m-2289 -449 c29 -32 35
-72 16 -113 -14 -31 -40 -46 -87 -48 -83 -5 -130 67 -92 141 34 66 112 76 163
20z m-3651 -60 c24 -11 50 -24 58 -30 16 -10 139 -78 250 -138 36 -20 68 -40
72 -46 4 -6 8 -7 8 -2 0 13 32 -23 48 -54 7 -14 10 -17 7 -7 -3 12 -1 17 7 15
7 -3 15 -13 16 -23 3 -14 -1 -17 -27 -13 -17 2 -33 0 -35 -6 -3 -8 -7 -7 -13
0 -8 12 -65 10 -84 -1 -5 -4 -14 -3 -21 1 -6 4 -42 7 -80 6 -39 -1 -68 3 -68
8 0 6 -8 5 -19 -2 -16 -10 -25 -9 -45 1 -14 8 -23 18 -20 23 3 4 -2 8 -11 8
-9 0 -13 5 -10 10 3 6 -3 10 -14 10 -12 0 -21 4 -21 9 0 5 -15 5 -35 1 -28 -6
-35 -5 -35 7 0 8 -5 11 -10 8 -6 -4 -7 -12 -3 -18 4 -7 -1 -6 -11 2 -15 13
-19 13 -27 0 -5 -8 -9 -9 -9 -3 0 6 -11 12 -25 12 -14 0 -25 -5 -25 -10 0 -5
-6 -6 -12 -2 -17 11 -48 12 -42 2 3 -4 1 -8 -5 -8 -5 0 -11 6 -14 13 -3 9 -9
9 -26 -1 -13 -8 -21 -8 -21 -2 0 7 -6 7 -20 0 -11 -6 -20 -7 -19 -3 3 20 -2
27 -11 13 -8 -13 -10 -13 -10 1 0 17 80 89 99 89 5 0 14 6 18 14 4 7 19 19 33
26 14 7 51 35 83 62 32 26 64 48 72 48 7 0 33 -9 57 -20z m4587 -171 c75 -40
188 -99 251 -132 63 -32 120 -66 126 -73 6 -8 19 -14 28 -14 9 0 16 -5 16 -10
0 -6 3 -9 8 -8 12 4 72 -26 72 -36 0 -4 7 -5 16 -2 10 4 18 0 21 -13 3 -11 11
-17 18 -15 9 4 12 0 9 -13 -6 -22 -44 -25 -45 -3 0 9 -4 7 -11 -8 l-12 -23
-13 23 -14 23 6 -22 c7 -24 -8 -32 -21 -12 -4 8 -9 7 -15 -2 -7 -11 -9 -11 -9
1 0 13 -1 13 -10 0 -8 -12 -10 -12 -11 5 0 11 -3 15 -5 8 -3 -7 -12 -9 -20 -6
-8 3 -21 0 -28 -6 -11 -9 -15 -9 -19 1 -4 10 -7 11 -18 1 -16 -16 -33 -17 -23
-2 4 8 -1 9 -16 4 -15 -5 -25 -2 -31 6 -5 8 -9 9 -9 3 0 -7 -11 -9 -25 -6 -14
2 -32 -1 -40 -8 -9 -7 -15 -8 -15 -2 0 11 -91 9 -109 -2 -6 -4 -14 0 -17 8 -3
9 -11 16 -18 16 -6 0 -27 18 -45 39 -19 22 -46 43 -60 46 -13 3 -33 16 -43 27
-16 19 -23 17 -19 -4 0 -4 -6 -5 -14 -2 -8 4 -15 11 -15 16 0 6 -8 4 -17 -3
-14 -12 -16 -12 -8 0 5 9 -3 7 -21 -6 -16 -11 -35 -18 -42 -16 -7 3 -11 0 -10
-5 2 -5 -10 -22 -27 -36 -25 -21 -38 -25 -75 -23 -25 2 -61 0 -80 -4 -20 -5
-39 -4 -46 2 -8 7 -13 6 -16 -2 -3 -9 -10 -8 -26 2 -20 12 -24 12 -33 -1 -9
-12 -12 -13 -16 -1 -5 11 -7 11 -15 0 -7 -11 -11 -11 -15 -1 -2 6 -10 9 -16 5
-18 -11 -51 -11 -64 -1 -9 7 -13 7 -13 1 0 -6 -10 -10 -22 -9 -31 1 -29 27 2
43 14 7 24 15 23 18 -2 3 0 6 5 6 4 1 19 11 33 23 15 13 42 29 60 36 19 8 36
16 39 19 5 6 431 219 439 220 2 1 65 -31 140 -70z m-2910 -163 c28 -25 40 -77
27 -117 -13 -42 -80 -84 -95 -60 -5 8 -16 11 -26 7 -11 -4 -27 4 -47 24 -28
28 -30 36 -25 78 7 65 43 96 104 89 24 -2 52 -12 62 -21z m1299 -21 c20 -9 46
-24 57 -35 11 -10 25 -20 30 -21 28 -5 73 -33 69 -43 -2 -6 7 -12 22 -13 28
-1 41 -10 46 -33 2 -10 -7 -15 -32 -16 -19 0 -43 -4 -52 -9 -14 -5 -18 -2 -18
11 -1 18 -1 18 -14 2 -16 -22 -30 -23 -22 -3 3 8 3 15 0 15 -3 0 -12 -7 -20
-15 -18 -17 -34 -20 -34 -5 0 6 5 10 12 10 6 0 9 3 5 6 -3 3 -11 2 -18 -2 -28
-17 -219 -20 -219 -3 0 3 -11 4 -25 1 -14 -2 -25 -9 -25 -14 0 -6 -7 -5 -15 2
-8 7 -15 18 -15 25 0 15 27 28 41 20 5 -4 6 2 2 11 -5 13 -3 16 10 11 11 -4
17 -1 17 8 0 8 4 15 9 15 5 0 23 11 39 25 16 13 31 23 34 20 2 -2 17 7 33 20
36 29 36 29 83 10z m-2013 -21 c77 -83 6 -197 -102 -163 -56 18 -82 85 -53
139 19 36 38 47 87 49 36 1 48 -4 68 -25z m-1781 -103 l28 -42 -17 -45 c-9
-24 -22 -45 -28 -46 -23 -2 -32 -5 -51 -13 -11 -5 -21 -3 -26 5 -4 7 -15 10
-24 7 -21 -8 -66 47 -66 81 0 42 35 90 72 100 50 13 80 0 112 -47z m7906 10
c0 -6 -4 -13 -10 -16 -5 -3 -10 1 -10 9 0 9 5 16 10 16 6 0 10 -4 10 -9z
m-1918 -43 c-8 -8 -9 -4 -5 13 4 13 8 18 11 10 2 -7 -1 -18 -6 -23z"/>
<path d="M2465 3019 c-4 -6 -5 -12 -2 -15 2 -3 7 2 10 11 7 17 1 20 -8 4z"/>
<path d="M6605 1979 c-4 -6 -5 -12 -2 -15 2 -3 7 2 10 11 7 17 1 20 -8 4z"/>
<path d="M4695 1970 c-3 -5 -1 -10 4 -10 6 0 11 5 11 10 0 6 -2 10 -4 10 -3 0
-8 -4 -11 -10z"/>
</g>
</svg>
