<?xml version="1.0" standalone="no"?>
<!DOCTYPE svg PUBLIC "-//W3C//DTD SVG 20010904//EN"
 "http://www.w3.org/TR/2001/REC-SVG-20010904/DTD/svg10.dtd">
<svg version="1.0" xmlns="http://www.w3.org/2000/svg"
 width="1024.000000pt" height="1024.000000pt" viewBox="0 0 1024.000000 1024.000000"
 preserveAspectRatio="xMidYMid meet">
<metadata>
Created by potrace 1.16, written by Peter Selinger 2001-2019
</metadata>
<g transform="translate(0.000000,1024.000000) scale(0.100000,-0.100000)"
fill="#000000" stroke="none">
<path d="M3368 7763 c2 -236 0 -443 -3 -462 -12 -67 -86 -103 -145 -71 -43 23
-45 37 -50 467 l-5 413 -45 -22 c-25 -12 -86 -63 -136 -113 -77 -76 -98 -105
-137 -185 -71 -144 -82 -196 -82 -390 1 -151 3 -171 27 -243 37 -109 99 -209
185 -297 l73 -74 0 -103 0 -103 -80 0 -80 0 0 -130 0 -130 80 0 80 0 0 -185 0
-185 -80 0 -80 0 0 -130 0 -130 80 0 80 0 0 -88 c0 -54 6 -106 16 -135 29 -86
119 -155 227 -176 l45 -8 5 50 c7 55 17 72 60 93 36 19 77 11 108 -22 l23 -25
4 -365 4 -365 97 3 96 3 3 585 c2 396 6 594 14 613 24 60 34 62 461 65 366 3
390 2 431 -17 73 -32 74 -39 77 -344 l2 -267 241 0 c202 1 249 4 288 18 74 27
130 72 163 133 29 53 30 57 33 222 l4 167 -152 0 -152 0 -29 29 c-31 32 -38
75 -17 114 22 43 36 46 196 47 l152 0 0 265 0 265 -136 0 c-109 0 -142 3 -164
17 -69 40 -65 135 7 172 14 7 83 10 195 9 201 -2 243 8 351 86 151 107 238
272 256 488 21 247 -47 465 -192 624 -54 59 -194 164 -218 164 -5 0 -9 -187
-9 -419 l0 -418 -26 -27 c-39 -38 -95 -39 -134 0 l-25 24 -3 460 -3 460 -992
0 -992 0 3 -427z m1718 -96 c26 -30 32 -83 13 -119 -25 -48 -33 -48 -751 -48
-618 0 -676 1 -698 17 -39 27 -49 45 -50 86 0 31 7 45 31 68 l32 29 699 -2
700 -3 24 -28z m-1585 -753 c10 -9 23 -33 29 -53 6 -22 10 -256 10 -604 0
-487 -2 -572 -15 -597 -31 -60 -107 -70 -149 -19 -14 17 -28 40 -31 52 -3 12
-4 283 -3 602 3 620 2 609 53 634 27 14 83 6 106 -15z m1192 -15 l27 -29 0
-316 c0 -354 -2 -365 -69 -406 -35 -22 -43 -23 -301 -23 -383 0 -370 -12 -370
325 0 198 3 228 18 247 24 33 71 44 111 27 52 -22 61 -59 61 -249 l0 -165 180
0 180 0 0 269 c0 298 4 325 54 346 41 18 75 10 109 -26z"/>
<path d="M5715 6520 c-38 -10 -72 -19 -75 -19 -3 -1 -5 -122 -5 -271 l0 -270
40 -16 c22 -9 76 -29 120 -44 141 -50 145 -52 145 -80 0 -46 -20 -304 -24
-307 -2 -2 -33 8 -70 23 l-66 28 0 93 0 93 -37 0 c-21 0 -54 3 -73 6 l-35 6 2
-147 2 -147 108 -49 c59 -27 112 -49 119 -49 21 0 26 -18 19 -62 l-7 -41 -103
7 c-56 4 -129 11 -162 16 l-60 8 -65 -61 c-91 -88 -201 -137 -305 -137 l-43 0
0 -770 0 -770 28 0 c69 0 256 -68 533 -193 312 -141 440 -170 754 -171 285 0
467 28 740 114 144 45 401 174 568 284 l27 18 0 -103 0 -104 -91 -59 c-184
-121 -366 -201 -582 -256 -196 -50 -297 -67 -482 -80 -410 -31 -731 38 -1140
243 -117 58 -246 106 -307 113 l-54 6 -12 -63 c-22 -120 -127 -290 -189 -305
-19 -5 -23 -11 -19 -28 3 -11 6 -33 6 -47 0 -25 3 -26 105 -43 58 -9 109 -15
114 -12 5 3 48 66 95 140 l87 135 62 -23 c129 -50 322 -135 325 -144 2 -6 -4
-38 -11 -72 -11 -45 -12 -62 -3 -65 6 -2 40 -11 76 -20 36 -10 87 -25 113 -35
35 -13 49 -15 52 -7 2 7 11 37 20 68 l16 57 82 -19 c45 -10 86 -19 90 -19 5 0
7 -31 5 -69 l-3 -70 65 -6 c36 -4 95 -10 132 -14 l66 -7 6 29 c3 16 6 49 6 73
l0 44 89 0 89 0 6 -27 c2 -16 7 -49 11 -74 l6 -45 92 12 c51 7 112 14 137 17
25 2 44 8 44 13 -1 5 -5 37 -8 71 l-7 61 73 17 c40 8 80 18 89 21 13 4 20 -10
34 -66 9 -38 21 -70 27 -70 5 0 65 18 133 40 l124 41 -13 37 c-31 89 -31 88
28 115 95 44 90 45 132 -23 20 -33 40 -59 44 -58 40 18 220 134 220 142 -1 6
-11 31 -24 55 l-23 44 103 69 c56 37 105 76 108 86 2 9 3 130 2 267 -3 242 -4
252 -29 324 -37 102 -69 154 -141 225 -105 105 -243 160 -433 173 l-93 6 0
-32 c0 -81 -56 -134 -122 -115 -50 15 -73 55 -71 122 l2 57 -83 16 c-170 33
-421 166 -579 307 -156 138 -240 248 -314 412 -37 81 -43 105 -43 162 0 52 3
66 13 62 19 -7 67 34 67 57 0 27 -18 60 -42 79 -18 15 -19 22 -9 145 18 216
17 212 53 212 34 0 78 40 78 71 0 28 -30 63 -67 78 -30 13 -34 19 -29 42 3 15
10 95 17 179 l12 152 -27 55 c-66 136 -202 184 -381 136z m250 -372 c-4 -68
-8 -128 -10 -135 -3 -8 -28 -2 -80 17 -43 16 -79 31 -81 33 -6 5 13 93 27 127
12 31 40 49 99 66 25 7 46 13 48 13 2 1 0 -54 -3 -121z m-59 -1058 l32 -60
-47 -22 c-39 -18 -70 -22 -203 -26 l-158 -4 0 86 0 86 173 0 172 0 31 -60z
m139 -250 c19 -26 35 -52 35 -57 0 -21 -282 -143 -330 -143 -11 0 -20 5 -20
12 0 6 -14 33 -32 60 l-31 49 26 27 c33 33 285 123 305 108 7 -5 28 -30 47
-56z m-521 -126 c10 -4 16 -18 16 -40 0 -37 31 -74 62 -74 14 0 18 -8 18 -34
0 -49 -46 -86 -107 -86 -38 0 -50 5 -78 33 -44 44 -53 93 -29 144 25 51 73 74
118 57z m725 -107 c34 -32 61 -61 61 -63 0 -17 -162 -134 -237 -173 -43 -21
-83 -28 -83 -13 0 5 -16 28 -36 51 l-37 43 36 35 c43 44 219 182 229 180 3 -1
34 -28 67 -60z m288 -219 c29 -18 51 -36 50 -40 -6 -22 -146 -173 -188 -204
l-49 -36 -46 41 c-26 23 -51 41 -55 41 -28 0 19 67 128 185 63 67 70 71 88 59
11 -8 43 -28 72 -46z m-734 -32 c-4 -28 -1 -39 20 -60 15 -14 37 -26 51 -26
29 0 41 -26 27 -62 -26 -69 -131 -92 -190 -42 -38 32 -54 85 -41 135 13 47 41
71 93 80 23 3 43 7 44 8 1 0 -1 -14 -4 -33z m1015 -103 c68 -30 72 -38 46 -98
-22 -52 -93 -163 -111 -174 -19 -10 -122 47 -123 69 0 29 104 230 120 230 3 0
33 -12 68 -27z m-657 -170 c9 -46 26 -63 64 -63 34 0 45 -13 45 -54 0 -59 -89
-111 -148 -87 -104 43 -122 185 -29 226 45 20 60 15 68 -22z m409 -178 c0 -32
39 -58 80 -53 60 6 70 -64 16 -118 -29 -29 -41 -34 -79 -34 -110 0 -166 137
-85 205 39 33 68 33 68 0z"/>
<path d="M3928 5160 c3 -558 3 -572 -17 -613 -36 -74 -59 -82 -271 -85 -215
-3 -238 3 -278 79 -22 42 -23 50 -22 299 l1 255 -68 6 c-37 3 -81 11 -96 18
-16 6 -33 11 -38 11 -5 0 -9 -35 -9 -79 l0 -79 -157 -5 c-181 -5 -228 -17
-295 -77 -60 -52 -98 -125 -101 -192 l-2 -53 215 -2 c118 -1 228 -2 243 -3 70
-1 114 -102 65 -147 -45 -41 -60 -43 -297 -43 l-231 0 0 -435 0 -435 240 0
c155 0 248 -4 264 -11 13 -6 32 -26 41 -44 22 -39 11 -79 -28 -109 -25 -19
-44 -20 -270 -22 -275 -1 -259 5 -209 -87 36 -67 107 -130 175 -156 46 -17 80
-21 163 -21 l106 0 88 -82 c77 -73 156 -125 213 -142 14 -5 17 -17 17 -78 l0
-73 279 0 278 0 6 73 c3 41 8 76 10 79 9 8 311 15 385 8 l72 -7 0 -73 0 -74
170 -3 170 -3 0 166 c0 162 0 166 23 176 50 24 117 96 149 161 l33 67 5 880
c3 484 5 881 5 882 0 0 -52 3 -115 5 l-115 3 -2 -467 c-2 -509 0 -495 -61
-524 -43 -20 -80 -8 -110 36 l-23 34 1 776 2 775 -304 3 -303 2 3 -570z m368
-144 c37 -37 45 -82 23 -130 -12 -25 -63 -56 -94 -56 -48 0 -105 59 -105 110
0 34 29 86 53 98 45 22 87 14 123 -22z m-31 -390 c49 -21 69 -56 62 -113 -7
-62 -40 -93 -102 -93 -111 0 -144 161 -42 205 40 18 41 18 82 1z m-732 -326
c48 -53 34 -130 -28 -156 -48 -20 -69 -18 -103 11 -40 33 -48 74 -26 120 33
70 105 81 157 25z m313 25 c63 -26 80 -111 32 -162 -42 -45 -130 -35 -158 16
-27 51 2 130 54 151 29 12 32 12 72 -5z m433 -119 c33 -18 51 -54 51 -107 0
-114 -155 -137 -200 -30 -39 94 59 183 149 137z m-785 -240 c89 -37 89 -157 0
-186 -119 -40 -186 135 -71 185 40 18 32 17 71 1z m377 -25 c22 -22 29 -39 29
-68 0 -50 -22 -80 -69 -94 -50 -15 -96 8 -117 57 -12 29 -12 39 0 68 29 70
105 88 157 37z m393 -145 c45 -19 66 -52 66 -104 0 -110 -148 -144 -199 -45
-26 52 -1 125 52 148 40 18 41 18 81 1z m-764 -191 c93 -48 76 -178 -26 -192
-108 -14 -154 139 -56 191 35 19 46 19 82 1z m344 1 c41 -17 69 -71 60 -115
-9 -43 -56 -81 -101 -81 -101 0 -132 155 -38 196 38 17 39 17 79 0z m-346
-357 c66 -23 83 -105 34 -160 -24 -26 -36 -32 -72 -32 -35 0 -48 6 -67 27 -46
54 -38 121 21 157 36 22 43 23 84 8z m384 -32 c22 -27 23 -95 3 -124 -20 -29
-75 -46 -107 -34 -37 14 -68 58 -68 97 0 38 40 91 73 96 35 6 80 -10 99 -35z"/>
<path d="M2910 2432 c-25 -12 -39 -28 -49 -57 -13 -37 -12 -45 4 -79 33 -68
107 -82 159 -29 53 53 40 135 -28 167 -42 20 -43 20 -86 -2z"/>
<path d="M3320 2439 c-65 -26 -82 -115 -31 -171 63 -71 171 -24 171 75 0 48
-22 77 -73 96 -33 13 -34 13 -67 0z"/>
<path d="M3724 2440 c-60 -24 -83 -113 -43 -164 63 -80 179 -35 179 69 0 43
-18 69 -67 94 -25 13 -40 13 -69 1z"/>
<path d="M4114 2435 c-93 -47 -59 -200 44 -200 48 0 85 30 102 80 27 81 -68
159 -146 120z"/>
<path d="M4522 2435 c-87 -38 -71 -183 22 -201 61 -11 126 44 126 106 0 37
-30 81 -65 96 -41 17 -42 17 -83 -1z"/>
<path d="M4943 2443 c-12 -2 -34 -18 -48 -34 -71 -85 19 -211 117 -165 70 34
89 116 39 167 -16 16 -36 29 -44 29 -9 0 -21 2 -29 4 -7 2 -23 1 -35 -1z"/>
<path d="M5344 2435 c-67 -28 -85 -108 -39 -163 49 -58 136 -47 168 21 21 43
21 60 2 97 -25 48 -81 67 -131 45z"/>
<path d="M5754 2435 c-69 -29 -86 -110 -35 -167 40 -44 96 -46 140 -4 87 84 4
218 -105 171z"/>
<path d="M6164 2440 c-101 -41 -73 -205 34 -205 111 0 148 158 48 200 -40 17
-52 17 -82 5z"/>
<path d="M6580 2443 c-8 -3 -27 -17 -42 -31 -22 -20 -28 -35 -28 -69 0 -56 23
-90 70 -104 100 -30 177 98 103 172 -28 29 -75 43 -103 32z"/>
<path d="M6975 2441 c-38 -16 -60 -51 -60 -95 0 -83 69 -134 138 -101 36 17
67 61 67 95 0 72 -80 127 -145 101z"/>
<path d="M7384 2441 c-32 -14 -64 -60 -64 -93 0 -68 61 -123 123 -111 73 14
104 124 49 176 -31 30 -76 41 -108 28z"/>
</g>
</svg>
