<?xml version="1.0" standalone="no"?>
<!DOCTYPE svg PUBLIC "-//W3C//DTD SVG 20010904//EN"
 "http://www.w3.org/TR/2001/REC-SVG-20010904/DTD/svg10.dtd">
<svg version="1.0" xmlns="http://www.w3.org/2000/svg"
 width="1024.000000pt" height="1024.000000pt" viewBox="0 0 1024.000000 1024.000000"
 preserveAspectRatio="xMidYMid meet">
<metadata>
Created by potrace 1.16, written by Peter Selinger 2001-2019
</metadata>
<g transform="translate(0.000000,1024.000000) scale(0.100000,-0.100000)"
fill="#000000" stroke="none">
<path d="M52 10020 l3 -220 -27 0 c-16 0 -28 -4 -28 -10 0 -5 11 -10 25 -10
l25 0 0 -210 0 -210 -25 6 c-15 4 -25 2 -25 -5 0 -6 12 -11 28 -11 l27 0 -2
-252 -2 -253 -26 3 c-14 2 -25 -1 -25 -7 0 -6 11 -11 25 -11 l25 0 0 -124 c0
-68 3 -138 6 -155 6 -29 5 -31 -25 -31 -17 0 -31 -4 -31 -10 0 -5 11 -10 25
-10 l25 0 0 -224 c0 -123 3 -244 6 -270 l7 -46 -32 0 c-17 0 -31 -4 -31 -10 0
-5 11 -10 25 -10 l25 0 2 -295 c1 -162 2 -303 2 -312 1 -14 -6 -17 -26 -15
-16 1 -28 -2 -28 -8 0 -5 11 -10 25 -10 l24 0 3 -250 3 -250 -27 0 c-27 0 -41
-20 -15 -20 6 -1 118 -3 247 -6 129 -3 237 -7 240 -10 3 -3 5 -132 5 -287 l0
-282 -217 -3 -218 -2 -1 242 c0 134 -4 261 -8 283 -6 25 -9 -65 -10 -242 l-1
-282 -28 -4 -27 -4 28 -2 27 -1 2 -265 c0 -146 1 -271 2 -277 1 -7 -12 -16
-29 -19 l-30 -7 27 -1 27 -1 3 -250 3 -250 -27 0 c-16 0 -28 -4 -28 -10 0 -5
11 -10 25 -10 l25 0 0 -180 0 -180 -25 0 c-14 0 -25 -4 -25 -10 0 -5 11 -10
25 -10 l25 0 0 -235 0 -235 -25 0 c-14 0 -25 -4 -25 -10 0 -5 11 -10 25 -10
l25 0 0 -185 0 -185 -25 0 c-14 0 -25 -4 -25 -10 0 -5 11 -10 25 -10 l25 0 0
-310 0 -310 -25 0 c-14 0 -25 -4 -25 -10 0 -5 11 -10 25 -10 l25 0 0 -191 c0
-189 0 -190 -22 -187 -11 2 -23 -2 -25 -7 -2 -6 9 -11 24 -10 20 0 28 -5 27
-17 0 -10 -1 -62 -2 -117 l-2 -98 -25 5 c-15 2 -25 0 -25 -7 0 -6 11 -11 25
-11 l25 0 0 -190 0 -190 -25 0 c-34 0 -32 -18 2 -22 16 -2 27 -6 26 -10 -2 -5
-3 -197 -3 -427 l0 -420 -28 -4 -27 -4 28 -2 27 -1 0 -225 c0 -124 1 -228 3
-232 1 -5 -10 -9 -25 -11 -35 -4 -37 -22 -3 -22 l25 0 0 -270 c0 -148 -1 -273
-2 -277 -2 -5 -10 -8 -20 -8 -9 0 -20 -3 -24 -8 -4 -4 5 -7 19 -7 l27 0 0
-110 c0 -67 4 -110 10 -110 6 0 10 43 10 110 l0 110 215 0 215 0 0 -110 c0
-67 4 -110 10 -110 6 0 10 43 10 110 l0 110 255 0 255 0 2 -112 2 -113 5 110
6 110 108 3 107 3 0 -111 c0 -67 4 -110 10 -110 6 0 10 43 10 110 l0 110 110
0 110 0 0 -110 c0 -67 4 -110 10 -110 6 0 10 43 10 110 l0 110 105 0 105 0 0
-112 c0 -61 3 -108 8 -104 4 4 7 54 7 109 l0 102 102 3 102 3 4 -113 3 -113 2
113 2 112 295 0 294 0 4 -112 3 -113 2 112 2 112 390 1 389 0 4 -112 3 -113 2
113 2 112 232 -2 232 -3 -3 -107 c-2 -72 1 -108 8 -108 7 0 11 38 11 110 l0
111 111 -3 112 -3 -2 -107 c-1 -70 2 -108 8 -108 7 0 11 39 11 110 l0 110 195
0 194 0 4 -113 3 -112 2 113 2 112 320 0 321 0 -6 -73 c-4 -39 -2 -90 3 -112
8 -34 10 -23 11 73 l1 112 345 0 345 0 2 -112 2 -113 5 110 6 110 245 3 245 2
-3 -111 c-3 -80 -1 -110 7 -105 7 5 11 46 11 112 l0 104 315 0 314 0 4 -112 3
-113 2 113 2 112 225 0 225 0 1 -112 c1 -88 3 -104 10 -73 4 22 8 73 8 113 l1
72 395 0 395 0 2 -112 2 -113 5 110 6 110 108 3 107 3 0 -111 c0 -67 4 -110
10 -110 6 0 10 43 10 110 l0 111 106 -3 107 -3 -2 -107 c-1 -70 2 -108 8 -108
7 0 11 39 11 110 l0 110 255 0 254 0 4 -112 3 -113 2 113 2 112 220 0 220 0 0
-112 c0 -174 10 -127 19 90 l1 22 275 0 c151 0 275 3 275 8 0 4 -124 6 -275 4
l-274 -4 -3 104 c-2 57 -2 183 0 281 l3 177 274 0 c192 0 275 3 275 11 0 8
-81 10 -275 7 l-275 -3 -1 95 c-2 104 -2 149 0 287 l1 93 278 3 277 2 -277 3
-278 2 -2 173 c-2 94 -2 288 0 430 l3 257 274 0 c177 0 275 4 275 10 0 6 -98
10 -275 10 l-275 0 0 190 0 190 278 3 277 2 -277 3 -278 2 0 118 0 117 273 3
c149 2 274 6 276 8 2 2 -120 4 -272 4 l-277 0 -1 138 c0 75 -2 153 -3 172 -7
75 -26 70 280 70 181 0 274 3 274 10 0 7 -91 10 -274 8 l-275 -3 -4 100 c-2
55 -2 192 0 305 2 113 3 208 3 213 0 4 124 7 275 7 189 0 275 3 275 11 0 7
-84 9 -275 7 l-275 -3 -1 125 c0 69 -2 258 -3 420 -2 162 -1 301 1 308 4 9 69
12 279 12 176 0 274 4 274 10 0 6 -98 10 -274 10 l-274 0 -4 173 c-3 94 -3
175 -1 180 2 4 128 7 279 7 176 0 274 4 274 10 0 6 -99 10 -277 10 l-278 0 -4
229 c-2 125 0 238 4 249 6 22 9 22 283 23 202 1 261 4 217 10 -33 5 -158 6
-277 3 l-218 -6 -1 108 c-1 60 -3 123 -5 139 -1 17 0 93 3 171 l6 141 271 2
c149 1 273 4 275 7 2 2 -120 4 -272 4 l-277 0 -1 158 c-1 86 -2 173 -2 192 0
19 1 81 1 138 l2 102 275 0 c174 0 275 4 275 10 0 6 -104 11 -276 12 l-277 3
-2 235 c-1 129 1 241 3 248 3 9 68 12 278 12 184 0 274 3 274 10 0 7 -86 11
-262 10 -145 -1 -269 -1 -275 0 -10 0 -13 69 -13 310 l0 310 275 0 c177 0 275
4 275 10 0 6 -98 10 -275 10 l-275 0 0 270 0 270 275 0 c177 0 275 4 275 10 0
6 -98 10 -274 10 -211 0 -275 3 -277 13 -2 6 -3 76 -1 155 l3 142 275 0 c173
0 274 4 274 10 0 6 -104 11 -277 12 l-278 3 -2 230 c-2 127 0 238 3 248 5 16
27 17 280 17 201 0 274 3 274 12 0 8 -69 10 -275 5 l-275 -7 -1 93 c-1 50 -2
139 -3 197 -1 58 1 111 3 118 2 9 67 12 277 12 173 0 274 4 274 10 0 6 -104
11 -277 12 l-277 3 3 218 c2 150 -1 217 -8 217 -8 0 -11 -69 -11 -220 l0 -220
-220 0 -220 0 -3 223 -2 222 -3 -222 -2 -223 -255 0 -255 0 0 220 c0 152 -3
220 -11 220 -7 0 -10 -43 -9 -132 1 -73 2 -173 1 -221 l-1 -88 -107 3 -108 3
2 180 c2 99 -1 198 -6 220 -6 28 -9 -29 -10 -183 l-1 -223 -107 3 -108 3 -5
220 -6 220 -2 -222 -2 -223 -395 0 c-309 0 -395 3 -396 13 0 6 0 105 1 220 1
139 -2 207 -9 207 -8 0 -11 -73 -11 -220 l0 -220 -225 0 -225 0 -3 223 -2 222
-3 -222 -2 -223 -315 0 -315 0 0 220 c0 149 -3 220 -11 220 -7 0 -10 -69 -8
-217 l2 -218 -244 0 -244 0 -5 220 -6 220 -2 -222 -2 -223 -345 0 -345 0 0
220 c0 155 -3 220 -11 220 -8 0 -10 -63 -8 -220 l4 -220 -315 2 -315 3 -5 220
-6 220 -2 -223 -2 -222 -197 2 -197 3 3 220 c1 121 -1 216 -6 212 -10 -11 -10
-1 -11 -234 l-2 -202 -350 -1 -350 0 -3 223 -2 222 -3 -222 -2 -223 -273 0
c-199 0 -276 3 -285 12 -9 9 -12 9 -12 0 0 -9 -30 -12 -105 -12 l-105 0 -3
223 -2 222 -3 -222 -2 -223 -295 0 -295 0 -3 223 -2 222 -3 -222 -2 -223 -105
0 -105 0 -3 223 -2 222 -3 -222 -2 -223 -105 0 -105 0 0 220 c0 147 -3 220
-11 220 -7 0 -9 -71 -8 -217 l1 -218 -111 -3 -111 -3 0 221 c0 140 -4 220 -10
220 -6 0 -10 -80 -10 -220 l0 -220 -110 0 -110 0 -3 223 -2 222 -3 -222 -2
-223 -255 0 -255 0 0 222 c0 122 -2 219 -4 217 -2 -2 -6 -101 -9 -219 l-6
-215 -215 -3 -216 -2 0 220 c0 151 -3 220 -11 220 -7 0 -10 -67 -7 -220z
m1208 -445 l0 -216 -107 3 -108 3 0 205 0 205 95 6 c52 3 101 6 108 7 9 2 12
-47 12 -213z m1288 -3 l-3 -207 -290 0 -290 0 -3 200 c-1 110 -1 204 2 210 2
7 102 9 295 7 l291 -3 -2 -207z m792 -2 l0 -210 -275 0 -275 0 0 209 c0 130 4
211 10 213 5 2 129 2 275 0 l265 -3 0 -209z m475 175 c-1 -19 -2 -114 -3 -210
l-2 -175 -227 2 -228 3 -3 204 c-1 118 1 207 7 210 5 3 110 5 233 4 l223 -2 0
-36z m159 35 l81 0 0 -208 0 -207 -112 -3 -113 -3 0 217 0 217 31 -7 c17 -3
68 -6 113 -6z m484 -208 l-3 -207 -192 -3 -193 -2 0 209 c0 129 4 211 10 213
5 2 93 2 195 0 l185 -3 -2 -207z m647 1 l0 -208 -315 0 -315 0 -3 207 -2 208
312 2 c172 2 315 2 318 1 3 0 5 -95 5 -210z m705 3 l0 -214 -345 1 -345 2 0
207 0 208 343 3 c188 1 343 3 345 5 1 1 2 -94 2 -212z m506 151 c-3 -29 -6
-122 -6 -208 l0 -157 -240 1 -240 0 -2 81 c-5 226 -3 328 9 334 6 4 118 6 249
4 l237 -3 -7 -52z m644 -157 l0 -210 -315 0 -315 0 0 209 c0 130 4 211 10 213
5 2 147 2 315 0 l305 -3 0 -209z m1500 -1 l0 -210 -107 3 -108 3 0 205 0 205
100 5 c55 3 103 4 108 2 4 -2 7 -98 7 -213z m234 188 c0 -15 -1 -110 -2 -212
l-2 -185 -104 0 c-75 0 -105 4 -107 13 -2 6 -3 101 -1 209 l3 197 97 3 c124 4
117 6 116 -25z m976 -188 l0 -209 -217 2 -218 3 -3 207 -2 208 212 2 c117 2
216 2 221 0 4 -2 7 -98 7 -213z m-9165 1 l0 -205 -217 -2 -216 -2 -4 202 c-2
111 -2 205 0 210 2 4 101 6 220 5 l217 -3 0 -205z m525 0 l0 -210 -255 0 -255
0 0 210 0 210 255 0 255 0 0 -210z m472 13 c2 -109 1 -204 -1 -210 -2 -10 -33
-13 -112 -13 l-109 0 0 210 0 210 109 0 110 0 3 -197z m228 -13 l0 -210 -105
0 -105 0 0 210 0 210 105 0 105 0 0 -210z m220 0 l0 -210 -99 0 -98 0 -7 53
c-3 28 -6 123 -6 210 l0 157 105 0 105 0 0 -210z m824 188 c0 -10 -1 -104 -2
-208 l-2 -191 -102 3 -103 3 -3 208 -2 208 107 -3 c96 -3 108 -5 107 -20z
m4648 -188 l-3 -210 -222 2 -222 3 -3 208 -2 207 227 0 228 0 -3 -210z m806 3
l-3 -208 -392 -3 -393 -2 0 210 0 210 395 0 395 0 -2 -207z m990 0 l-3 -208
-252 -2 -253 -2 0 209 0 210 255 0 255 0 -2 -207z m-8712 -638 l-1 -415 -217
0 -218 0 0 155 0 155 210 0 c133 0 210 4 210 10 0 6 -77 10 -210 10 l-210 0 0
250 0 250 219 0 218 0 -1 -415z m524 165 l0 -250 -255 0 -255 0 0 250 0 250
255 0 255 0 0 -250z m230 13 c1 -335 0 -597 -3 -598 -1 0 -50 1 -110 3 l-108
4 3 151 3 152 98 3 c129 4 127 22 -3 22 l-100 0 0 243 c0 134 3 247 7 250 3 4
53 7 110 7 l103 0 0 -237z m243 -13 l1 -245 -112 -3 -112 -3 0 251 0 251 111
-3 111 -3 1 -245z m227 1 c0 -138 -3 -251 -7 -253 -5 -2 -52 -2 -105 0 l-98 3
0 250 0 249 105 0 105 0 0 -249z m220 1 c0 -137 -2 -251 -4 -253 -2 -2 -49 -2
-103 1 l-98 5 -2 235 c-2 129 -1 241 2 248 3 8 33 12 105 12 l100 0 0 -248z
m598 -4 l-3 -253 -290 3 -290 3 -3 249 -2 250 295 0 295 0 -2 -252z m233 240
c0 -10 2 -10 6 0 3 9 69 12 279 12 l274 0 -2 -252 -3 -251 -268 1 c-148 1
-272 4 -277 7 -5 3 -11 1 -15 -5 -7 -11 -155 -14 -192 -4 l-23 6 0 249 0 249
110 0 c81 0 110 -3 111 -12z m1031 -230 c-1 -134 -5 -248 -7 -254 -2 -9 -65
-11 -222 -9 -120 2 -221 4 -225 4 -5 1 -8 114 -8 251 l0 250 233 0 232 0 -3
-242z m244 211 c-3 -17 -6 -133 -6 -256 l0 -225 -109 4 c-60 1 -111 5 -114 8
-2 3 -2 116 1 253 l4 247 115 0 116 0 -7 -31z m404 -218 c0 -155 -4 -252 -10
-256 -5 -3 -93 -3 -195 1 l-185 7 0 248 0 249 195 0 195 0 0 -249z m650 7 c0
-134 -4 -248 -8 -253 -4 -7 -116 -9 -319 -7 l-313 4 0 249 0 249 320 0 320 0
0 -242z m700 -13 l0 -255 -342 2 -343 3 -3 253 -2 252 345 0 345 0 0 -255z
m502 13 c-2 -134 -5 -249 -7 -255 -3 -10 -58 -12 -222 -12 -120 0 -228 3 -241
6 l-22 5 0 243 c1 134 4 246 7 249 4 3 115 6 247 6 l241 0 -3 -242z m646 -10
l-3 -253 -312 -2 c-172 -1 -314 1 -316 5 -1 4 -1 118 1 255 l4 247 314 0 314
0 -2 -252z m460 2 l-3 -249 -220 -3 -220 -3 -3 240 c-1 132 0 245 2 252 4 10
57 13 226 13 l220 0 -2 -250z m810 0 l-3 -250 -388 -1 c-213 -1 -390 1 -393 4
-7 7 -11 486 -5 493 2 2 181 4 398 4 l393 0 -2 -250z m232 -6 c0 -229 -2 -256
-16 -250 -9 3 -58 6 -110 6 l-94 0 0 243 c0 134 3 247 7 250 3 4 53 7 110 7
l103 0 0 -256z m236 219 c-3 -21 -6 -134 -6 -251 l0 -213 -107 3 -108 3 -3
235 c-1 129 0 240 2 247 4 10 36 13 117 13 l112 0 -7 -37z m522 -210 l-3 -248
-252 -3 -253 -2 0 250 0 250 255 0 255 0 -2 -247z m452 -3 l0 -250 -220 0
-220 0 0 250 0 250 220 0 220 0 0 -250z m-8640 -426 l0 -154 -255 0 -255 0 0
155 0 155 248 2 c136 2 250 2 255 0 4 -2 7 -73 7 -158z m472 9 c2 -82 2 -152
0 -158 -1 -6 -45 -9 -112 -7 l-110 3 0 155 0 154 109 0 110 0 3 -147z m228 -8
l0 -155 -105 0 -105 0 0 155 0 155 105 0 105 0 0 -155z m218 -1 l-3 -156 -100
0 -100 0 -3 143 c-1 79 0 149 2 156 4 9 33 13 106 13 l101 0 -3 -156z m602 1
l0 -155 -295 0 -295 0 0 155 0 155 295 0 295 0 0 -155z m226 124 c-3 -17 -6
-87 -6 -155 l0 -124 -105 0 -105 0 0 155 0 155 111 0 112 0 -7 -31z m564 -124
l0 -155 -275 0 -275 0 0 155 0 155 275 0 275 0 0 -155z m471 143 c0 -7 1 -77
2 -155 l2 -143 -232 0 -233 0 0 155 0 155 230 0 c177 0 230 -3 231 -12z m241
-4 c2 -9 2 -79 0 -155 l-3 -139 -110 0 -109 0 0 155 0 155 109 0 c93 0 110 -2
113 -16z m408 -139 l0 -155 -195 0 -195 0 0 155 0 155 195 0 195 0 0 -155z
m648 -3 l3 -152 -318 2 -318 3 -3 153 -3 152 318 -2 318 -3 3 -153z m702 3 l0
-155 -345 0 -345 0 0 155 0 155 345 0 345 0 0 -155z m500 20 c0 -83 4 -135 10
-135 6 0 10 52 10 135 l0 135 315 0 315 0 0 -155 0 -154 -307 -3 c-258 -3
-310 -1 -320 11 -9 10 -13 11 -13 3 0 -9 -59 -12 -247 -10 l-248 3 0 140 c0
77 2 146 4 153 2 9 59 12 242 12 l239 0 0 -135z m1110 -20 l0 -155 -215 0
c-118 0 -218 -1 -222 -2 -5 -2 -9 68 -11 155 l-3 157 226 0 225 0 0 -155z
m808 0 l-3 -156 -390 1 c-214 0 -392 4 -396 8 -3 4 -4 73 -1 155 l4 147 394 0
395 0 -3 -155z m232 -2 l0 -158 -110 3 -110 3 0 148 c0 81 3 151 7 154 3 4 53
7 110 7 l103 0 0 -157z m230 2 l0 -155 -104 0 c-75 0 -105 4 -107 13 -2 6 -3
76 -1 155 l3 142 105 0 104 0 0 -155z m530 0 l0 -155 -255 0 -255 0 0 155 0
155 255 0 255 0 0 -155z m450 0 l0 -155 -220 0 -220 0 0 155 0 155 220 0 220
0 0 -155z m-9162 -442 l-3 -268 -216 -3 -217 -2 -4 181 c-2 99 -2 221 0 270
l4 89 219 0 219 0 -2 -267z m522 -3 l0 -270 -255 0 -255 0 0 270 0 270 255 0
255 0 0 -270z m230 0 l0 -270 -110 0 -110 0 0 263 c0 145 3 267 7 270 3 4 53
7 110 7 l103 0 0 -270z m242 -3 l3 -268 -115 3 -115 3 0 43 c1 23 2 143 3 267
l2 226 110 -3 110 -3 2 -268z m228 4 c0 -149 -3 -271 -7 -273 -5 -2 -52 -2
-105 0 l-98 4 0 269 0 269 105 0 105 0 0 -269z m220 -3 l0 -273 -102 2 -103 2
-3 270 -2 271 105 0 105 0 0 -272z m598 2 l-3 -271 -290 0 -290 0 -3 271 -2
270 295 0 295 0 -2 -270z m225 1 c-1 -145 -6 -267 -10 -271 -4 -3 -52 -4 -105
-2 l-98 4 0 269 0 270 108 -3 107 -3 -2 -264z m567 0 l0 -270 -262 -3 c-145
-2 -271 0 -282 5 -14 7 -17 16 -12 39 3 17 6 136 6 264 l0 234 275 0 275 0 0
-269z m473 2 l-3 -268 -230 -3 -230 -2 0 270 0 270 233 0 232 0 -2 -267z m237
-1 c0 -148 -2 -271 -4 -273 -2 -2 -52 -3 -110 -1 l-106 3 0 270 0 269 110 0
110 0 0 -268z m410 0 c0 -148 -2 -271 -4 -273 -2 -2 -90 -3 -195 -1 l-191 3 0
269 0 270 195 0 195 0 0 -268z m644 1 l-1 -268 -316 -3 -317 -2 0 263 c0 145
3 267 7 270 3 4 146 7 317 7 l311 0 -1 -267z m708 55 l2 -213 6 210 5 210 248
3 247 2 -6 -83 c-5 -58 -3 -86 5 -91 8 -5 11 18 11 83 l0 91 315 0 315 0 2
-167 2 -168 3 168 3 167 225 0 225 0 0 -272 0 -273 -145 2 c-84 1 -145 -2
-145 -8 0 -5 62 -9 145 -9 l145 0 0 -290 c0 -187 4 -290 10 -290 6 0 10 103
10 290 l0 290 395 0 395 0 -2 -312 -3 -313 -388 0 c-337 0 -390 2 -397 15 -8
13 -10 13 -15 -2 -6 -15 -21 -18 -89 -20 l-81 -2 85 -5 c73 -5 85 -9 84 -23 0
-10 -1 -124 -2 -253 l-2 -235 -165 0 c-91 0 -165 -3 -165 -7 0 -5 73 -9 163
-9 l162 -1 3 -292 2 -291 -225 0 -225 0 -2 208 -3 207 -2 -207 -3 -208 -98 -2
-97 -2 98 -3 97 -4 -2 -277 -3 -277 -210 3 c-115 1 -226 -2 -245 -7 -24 -6 40
-9 213 -10 l247 -1 0 -254 0 -254 -269 5 c-186 3 -271 1 -276 -6 -4 -8 75 -11
269 -11 l276 0 0 -180 0 -180 -315 0 c-217 0 -315 3 -315 11 0 6 -7 3 -16 -6
-21 -20 -46 -2 -39 29 5 25 38 355 60 611 9 99 22 238 31 308 8 70 12 132 9
137 -4 6 -15 10 -26 10 -19 0 -24 14 -20 58 1 12 -3 22 -9 22 -5 0 -10 -18
-10 -40 l0 -40 -239 0 -239 0 -4 73 c-3 39 -3 75 -1 80 2 4 99 7 214 7 116 0
209 4 207 8 -8 19 -131 192 -154 217 l-26 28 -118 -7 -118 -7 -4 83 c-2 46 -4
84 -4 85 1 1 26 4 56 6 30 3 54 9 53 14 -1 5 -25 49 -54 96 -49 83 -69 104
-69 73 0 -23 -29 -46 -60 -46 -28 0 -46 16 -128 119 -60 75 -159 75 -200 0
-40 -73 -58 -94 -81 -94 -19 0 -27 8 -38 40 -28 85 -99 110 -153 54 l-30 -32
0 77 0 76 298 2 297 3 -297 2 -298 3 0 255 0 255 211 0 c145 0 208 3 204 11
-5 7 -75 10 -208 8 l-202 -2 -3 312 -2 311 280 0 c191 0 280 3 280 11 0 7 -88
10 -277 8 l-278 -2 -3 272 -2 271 345 0 345 0 2 -212z m2416 -58 l-3 -270
-393 -2 -393 -3 -6 23 c-4 17 2 483 7 520 0 1 178 2 395 2 l395 0 -2 -270z
m232 -6 l0 -277 -37 7 c-21 3 -71 6 -110 6 l-73 0 0 263 c0 145 3 267 7 270 3
4 53 7 110 7 l103 0 0 -276z m234 254 c0 -10 -1 -130 -2 -268 l-2 -250 -111 0
-111 0 3 258 c2 141 5 263 7 270 3 9 31 12 111 10 94 -3 106 -5 105 -20z m526
-248 l0 -270 -254 0 c-140 0 -256 3 -258 8 -2 4 -2 125 0 270 l3 262 255 0
254 0 0 -270z m450 0 l0 -270 -220 0 -220 0 0 270 0 270 220 0 220 0 0 -270z
m-9163 -598 c2 -232 0 -304 -10 -307 -6 -3 -105 -6 -219 -7 l-206 -3 -4 205
c-1 113 -1 253 0 313 l4 107 216 -2 217 -3 2 -303z m523 0 c0 -170 -2 -311 -4
-313 -2 -2 -117 -3 -255 -1 l-251 3 0 309 0 310 255 0 255 0 0 -308z m234 291
c-1 -7 -2 -148 -2 -313 l-2 -300 -94 0 c-52 0 -101 3 -110 6 -14 5 -16 42 -16
308 0 167 3 306 7 310 4 3 54 5 112 4 77 -2 106 -6 105 -15z m242 -295 l-1
-313 -110 3 c-61 2 -112 7 -115 10 -3 4 -4 143 -2 310 l3 302 114 0 113 0 -2
-312z m222 0 l-3 -313 -80 0 c-44 0 -90 1 -102 3 l-23 4 0 309 0 309 105 0
105 0 -2 -312z m222 -3 l0 -314 -77 4 c-43 3 -90 5 -105 5 l-28 0 0 310 0 310
105 0 105 0 0 -315z m598 3 l-3 -313 -290 0 -290 0 -3 313 -2 312 295 0 295 0
-2 -312z m223 300 c2 -7 3 -149 1 -316 l-3 -303 -102 3 -102 3 -3 313 -2 312
104 0 c74 0 105 -4 107 -12z m567 -298 l-3 -310 -270 -2 -270 -2 -3 312 -2
312 275 0 275 0 -2 -310z m473 213 c-2 -64 0 -93 8 -93 7 0 11 32 11 95 l0 95
110 0 110 0 0 -185 c0 -117 4 -185 10 -185 6 0 10 68 10 185 l0 185 195 0 195
0 0 -310 0 -310 -22 -5 c-13 -2 -34 -6 -48 -8 -14 -3 -4 -5 23 -6 l47 -1 2
-82 2 -83 3 83 4 82 316 -2 316 -3 0 -242 c-1 -134 -2 -247 -2 -253 -1 -6 -80
-10 -218 -10 -119 0 -214 -2 -211 -6 3 -3 102 -6 219 -7 l214 -2 3 -83 c3 -75
1 -85 -23 -116 -34 -44 -56 -49 -97 -20 -79 55 -128 32 -128 -61 0 -83 10 -89
140 -93 l111 -4 -3 -81 -3 -82 -314 0 c-217 0 -315 3 -318 11 -2 6 -3 46 -1
90 l3 79 22 -37 22 -37 143 -3 c79 -2 144 -2 146 -2 1 1 -26 48 -61 105 -35
57 -93 154 -127 214 -184 319 -347 584 -383 623 -12 13 -60 51 -107 85 -47 33
-137 100 -201 148 -127 96 -209 149 -229 149 -30 0 -101 -44 -115 -71 -20 -39
-19 -108 3 -144 10 -17 79 -72 153 -124 169 -118 243 -175 294 -227 22 -22
110 -154 195 -293 85 -139 172 -281 193 -314 37 -61 38 -62 35 -156 l-3 -95
-34 -7 c-123 -25 -125 -231 -2 -241 l36 -3 3 -180 2 -180 -137 3 c-76 2 -160
-1 -188 -6 -40 -8 -12 -10 138 -11 l187 -1 0 -255 0 -255 -165 6 c-117 4 -165
3 -165 -5 0 -8 52 -11 165 -11 l165 0 0 -180 0 -180 -66 0 c-41 0 -63 -4 -59
-10 3 -5 33 -10 66 -10 l59 0 0 -241 0 -242 -70 5 c-38 3 -70 1 -70 -3 0 -5
32 -9 70 -9 l70 0 0 -185 0 -185 -32 -1 -33 -1 30 -7 30 -6 3 -228 2 -227
-315 0 -315 0 2 227 3 228 30 6 30 7 -32 1 -33 1 -2 113 -2 112 -3 -112 -4
-113 -54 0 c-29 0 -57 -4 -60 -10 -4 -6 17 -10 56 -10 l62 0 -7 -77 c-3 -42
-6 -143 -6 -225 l0 -148 -510 0 -510 0 0 225 0 225 133 1 c72 0 150 4 172 8
28 6 -13 9 -132 10 l-172 1 -3 173 c-2 94 -1 178 1 185 2 9 66 12 277 12 l274
0 2 -102 2 -103 3 103 4 102 79 0 80 0 0 -67 0 -68 -196 -196 c-187 -187 -196
-198 -201 -240 -8 -82 58 -159 137 -159 53 0 108 34 202 125 46 43 142 136
214 205 l132 126 3 86 4 86 -142 146 c-79 80 -145 146 -148 146 -2 0 -6 -39
-7 -87 l-3 -88 -60 2 c-33 0 -68 1 -77 2 -16 1 -18 13 -20 94 l-2 92 -3 -92
-4 -93 -243 0 c-134 0 -258 -3 -275 -6 l-31 -6 0 241 0 241 148 1 c146 2 147
2 62 11 -47 5 -107 6 -135 4 -27 -3 -55 -2 -62 2 -7 5 -12 64 -14 182 l-3 175
153 0 153 0 -2 -213 c-1 -241 6 -270 74 -329 l37 -33 132 0 c107 0 140 4 173
19 50 23 110 91 121 139 l9 37 62 3 63 3 -7 -53 c-8 -64 -32 -115 -74 -157
l-32 -31 155 -173 c85 -94 173 -191 196 -213 l41 -42 0 -223 c0 -246 5 -271
62 -313 35 -25 110 -26 156 -2 60 31 72 65 72 203 0 106 2 123 17 132 17 10
17 10 1 11 -16 0 -18 13 -18 124 0 116 -1 125 -26 162 -28 42 -118 143 -276
312 l-98 104 0 125 0 125 28 -7 c15 -3 73 -29 130 -56 56 -27 114 -49 130 -49
74 1 161 96 148 163 -10 52 -43 96 -88 117 -43 19 -241 100 -308 125 l-35 13
-5 154 c-5 151 -6 156 -34 197 -79 113 -250 134 -356 44 -22 -19 -46 -44 -52
-56 -8 -14 -15 -84 -18 -182 l-5 -160 -43 0 c-23 0 -42 -3 -42 -7 0 -5 20 -8
45 -8 l45 0 0 -175 0 -174 -30 -16 c-17 -9 -40 -13 -50 -10 -19 6 -20 18 -20
356 0 381 -1 387 -57 427 -62 43 -137 35 -188 -18 l-30 -31 -3 -175 -3 -174
-58 0 c-32 0 -99 3 -149 6 l-92 7 0 249 0 249 278 -1 c152 0 302 0 332 1 l55
2 -50 6 -50 6 0 275 0 275 100 5 100 4 -100 6 -100 5 -3 287 -2 288 22 5 c13
2 182 4 376 2 193 -1 352 1 352 6 0 4 -61 7 -135 7 l-135 0 0 165 c0 103 -4
165 -10 165 -6 0 -10 -62 -10 -165 l0 -165 -230 0 -230 0 0 255 0 255 114 0
c73 0 117 4 122 11 4 8 -28 10 -112 8 l-119 -4 -3 313 -2 312 232 -2 233 -3
-4 -92z m1293 -214 l-2 -312 -313 1 -314 0 -3 311 -2 311 318 0 317 0 -1 -311z
m3356 -4 l0 -316 -107 3 -108 3 -3 300 c-1 165 0 305 3 312 3 9 34 13 110 13
l105 0 0 -315z m230 6 c0 -167 -3 -307 -5 -311 -5 -8 -171 -11 -197 -3 -17 4
-18 27 -18 307 0 166 3 306 7 310 4 3 54 5 111 4 l103 -3 -1 -304z m530 -1 l0
-310 -254 0 c-140 0 -256 3 -258 8 -2 4 -2 143 0 310 l3 302 255 0 254 0 0
-310z m450 0 l0 -309 -216 -3 c-119 -2 -218 -1 -220 1 -2 2 -4 143 -4 313 l0
308 220 0 220 0 0 -310z m-9162 -410 c2 -41 1 -153 -3 -247 l-7 -173 -214 0
-214 0 -1 218 c0 119 -2 225 -4 236 -9 46 -6 47 224 44 l216 -3 3 -75z m522
-170 l0 -250 -255 0 -255 0 0 250 0 250 255 0 255 0 0 -250z m230 -5 l0 -255
-110 0 -110 0 0 248 c0 137 3 252 7 255 3 4 53 7 110 7 l103 0 0 -255z m241 5
c0 -135 -1 -248 -1 -252 0 -5 -49 -8 -110 -8 l-110 0 0 255 0 256 111 -3 111
-3 -1 -245z m229 -5 l0 -255 -105 0 -105 0 0 255 0 255 105 0 105 0 0 -255z
m220 0 l0 -256 -102 3 -103 3 -3 253 -4 252 106 0 106 0 0 -255z m599 0 l0
-255 -292 2 -292 3 -3 253 -2 252 295 0 295 0 -1 -255z m225 233 c0 -10 -1
-124 -2 -253 l-2 -235 -105 0 -105 0 0 255 0 256 108 -3 c95 -3 107 -5 106
-20z m566 -233 l0 -255 -275 0 -275 0 0 255 0 255 275 0 275 0 0 -255z m4890
0 l0 -255 -394 0 c-307 0 -395 3 -397 13 -2 6 -3 121 -1 255 l3 242 395 0 394
0 0 -255z m230 0 l0 -255 -110 0 -110 0 0 255 0 255 110 0 110 0 0 -255z m238
243 c9 -9 12 -9 12 0 0 9 63 12 255 12 l255 0 -2 -252 -3 -253 -254 0 -254 0
2 238 c2 164 -1 237 -8 237 -8 0 -11 -76 -11 -240 l0 -241 -107 3 -108 3 -3
253 -2 252 108 0 c71 0 112 -4 120 -12z m972 -238 l0 -250 -197 0 c-109 0
-208 -3 -220 -6 l-23 -6 0 256 0 256 220 0 220 0 0 -250z m-8642 -568 l2 -292
-255 0 -255 0 0 290 0 290 238 3 c130 1 244 2 252 2 13 0 15 -41 18 -293z
m234 10 c2 -156 0 -288 -3 -293 -3 -6 -52 -8 -110 -7 l-104 3 -3 280 c-1 154
-1 284 2 290 2 6 46 10 109 10 l106 0 3 -283z m241 146 c3 -79 5 -210 4 -293
l-3 -150 -112 -3 -112 -3 -1 148 c0 81 -2 212 -5 290 l-5 142 98 4 c54 1 105
4 114 5 14 2 17 -17 22 -140z m227 -155 l0 -293 -105 0 -105 0 0 288 c0 159 2
291 4 293 3 2 50 4 105 4 l101 0 0 -292z m220 0 l0 -293 -98 0 -99 0 -6 167
c-10 243 -9 411 3 415 6 2 53 3 105 3 l95 0 0 -292z m345 287 l250 0 3 -290 3
-290 -291 0 c-159 0 -290 3 -290 8 -5 82 -10 559 -5 569 4 12 15 14 43 9 20
-3 150 -6 287 -6z m873 5 l172 -7 0 -289 0 -289 -274 0 -275 0 -3 283 c-2 198
0 285 8 292 15 14 165 18 372 10z m5060 -295 l2 -290 -395 0 c-217 0 -395 1
-395 3 0 1 -3 130 -6 286 -4 192 -3 286 4 290 6 3 185 5 399 3 l388 -3 3 -289z
m232 -1 l0 -290 -107 3 -108 3 -3 287 -2 287 102 3 c57 2 106 2 111 0 4 -2 7
-134 7 -293z m230 6 l0 -296 -107 3 -108 3 -3 287 -2 287 102 4 c57 1 106 4
111 5 4 1 7 -131 7 -293z m530 0 l0 -295 -257 2 -258 3 -1 285 c0 193 3 287
10 292 6 4 122 8 259 8 l247 0 0 -295z m450 -2 l0 -293 -220 0 -220 0 0 289
c0 222 3 290 13 294 6 3 105 4 219 4 l208 -2 0 -292z m-6900 -3 l0 -290 -105
0 -105 0 0 290 0 290 105 0 105 0 0 -290z m3038 -162 l-3 -83 -342 -3 -343 -2
0 85 0 85 345 0 346 0 -3 -82z m-5303 -418 l0 -275 -216 -3 -216 -2 -8 259
c-4 142 -4 268 0 280 6 21 9 21 223 19 l217 -3 0 -275z m523 3 l-3 -278 -252
-2 -253 -3 0 280 0 280 255 0 255 0 -2 -277z m230 265 c1 -5 2 -130 2 -278 l0
-271 -107 3 -108 3 -3 272 c-2 253 -1 272 15 275 36 6 198 3 201 -4z m243
-258 c0 -146 0 -271 -1 -277 0 -10 -29 -13 -110 -13 l-110 0 -1 163 c0 233 2
380 6 387 2 3 51 5 109 5 l106 0 1 -265z m233 248 c0 -10 -1 -135 -2 -278 l-2
-260 -105 0 -105 0 0 273 c0 151 2 276 4 278 3 2 51 4 108 4 92 0 103 -2 102
-17z m204 14 c9 -2 12 -65 12 -277 l0 -275 -99 0 c-81 0 -100 3 -105 16 -8 20
-8 202 0 391 l7 149 86 -1 c47 -1 92 -3 99 -3z m606 -271 l1 -274 -289 -1
-288 0 -4 268 c-2 148 -1 273 2 278 3 4 134 7 291 6 l285 -3 2 -274z m226 264
c3 -5 3 -129 0 -275 l-5 -265 -102 -3 -103 -3 0 275 c0 246 2 275 16 278 39 7
189 2 194 -7z m568 -265 l2 -275 -272 1 -273 2 -3 263 c-1 145 -1 268 2 274 2
6 100 10 272 10 l269 0 3 -275z m4080 -2 l2 -277 -222 2 -223 2 -3 272 -2 272
72 4 c40 2 141 3 223 3 l150 -1 3 -277z m800 274 c9 -6 12 -69 10 -278 l-3
-269 -389 2 c-213 1 -390 4 -393 7 -7 6 -6 523 0 533 7 11 759 16 775 5z m242
-272 l0 -281 -107 3 -108 3 -3 272 -2 272 82 4 c46 1 95 4 111 5 l27 2 0 -280z
m228 -5 l2 -275 -104 0 c-85 0 -105 3 -110 16 -7 19 -8 528 -1 536 3 2 51 3
108 1 l102 -3 3 -275z m527 5 l0 -275 -252 -3 c-199 -2 -253 0 -254 10 -7 166
-8 251 -3 386 l7 162 251 -2 251 -3 0 -275z m455 2 l0 -278 -220 -2 -220 -2 0
280 0 280 220 0 220 0 0 -278z m-4560 8 l0 -80 -310 0 c-302 0 -310 0 -310
-20 0 -11 11 -97 25 -192 31 -218 65 -511 60 -516 -2 -2 -27 -1 -54 3 l-51 7
0 249 c0 230 1 249 18 249 16 1 16 1 0 11 -16 9 -18 29 -18 183 0 95 3 176 7
179 3 4 147 7 320 7 l313 0 0 -80z m700 0 l0 -80 -345 0 -345 0 0 80 0 80 345
0 345 0 0 -80z m-5300 -548 c0 -137 -2 -251 -4 -253 -2 -2 -101 -3 -219 -1
l-215 3 -4 242 c-3 133 -3 245 -1 250 2 4 103 7 224 7 l219 0 0 -248z m520 -6
l0 -254 -237 4 c-131 2 -246 4 -255 4 -17 0 -18 19 -18 250 l0 250 255 0 255
0 0 -254z m230 0 l0 -254 -107 3 -108 3 -3 238 c-1 131 0 244 2 251 4 9 35 13
111 13 l105 0 0 -254z m241 -1 c-1 -137 -3 -251 -5 -252 -1 -2 -51 0 -109 4
l-107 6 0 249 0 249 111 -3 111 -3 -1 -250z m229 0 l0 -255 -107 3 c-60 1
-107 5 -105 10 1 4 2 117 2 252 l0 245 105 0 105 0 0 -255z m220 3 l0 -253
-103 0 -102 0 -3 240 c-1 132 0 245 2 252 4 9 34 13 106 13 l100 0 0 -252z
m598 0 l-3 -253 -290 3 -289 3 -3 250 -3 249 295 0 295 0 -2 -252z m223 -3
c-1 -137 -3 -250 -4 -250 -1 0 -48 1 -104 3 l-103 4 0 249 0 250 106 -3 106
-3 -1 -250z m4649 1 l0 -254 -222 5 -223 4 -3 250 -2 249 225 0 225 0 0 -254z
m810 5 c0 -138 -3 -252 -7 -254 -5 -2 -182 -2 -395 1 l-388 5 0 248 0 249 395
0 395 0 0 -249z m230 -7 l0 -255 -87 1 c-49 1 -98 4 -110 7 l-23 5 0 249 0
249 110 0 110 0 0 -256z m758 4 l-3 -253 -255 0 -255 1 3 229 c1 140 -2 236
-8 245 -6 10 -10 -66 -10 -233 l0 -247 -102 6 c-57 4 -104 7 -105 8 -5 4 -13
478 -8 486 3 5 153 9 376 10 l369 0 -2 -252z m452 -2 l0 -254 -217 5 -218 4
-3 249 -2 250 220 0 220 0 0 -254z m-5939 -15 c19 -15 24 -30 27 -85 2 -36 1
-86 -3 -111 l-6 -46 -57 3 -57 3 0 109 c1 101 3 110 24 127 29 24 43 24 72 0z
m-3223 -428 l-3 -178 -217 -3 -218 -2 0 180 0 180 220 0 220 0 -2 -177z m522
-3 l0 -180 -255 0 -255 0 0 180 0 180 255 0 255 0 0 -180z m230 -3 l0 -183
-80 -3 c-45 -1 -94 1 -110 4 l-30 7 0 179 0 179 110 0 110 0 0 -183z m240 -1
l0 -184 -107 5 c-60 2 -109 5 -110 6 -1 2 -6 338 -4 350 1 4 51 7 111 7 l110
0 0 -184z m230 5 l0 -179 -27 -3 c-16 -2 -63 -3 -105 -1 l-77 4 -3 169 c-2 93
-1 174 0 179 2 6 48 10 108 10 l104 0 0 -179z m218 -3 l-3 -183 -97 -1 c-91
-2 -97 0 -102 20 -2 11 -5 94 -6 184 l-1 162 106 0 105 0 -2 -182z m594 4 c1
-95 -1 -174 -3 -177 -3 -2 -133 -5 -289 -6 l-285 -2 0 174 c0 96 1 177 3 182
2 4 132 6 288 5 l285 -3 1 -173z m228 -2 l0 -180 -105 0 -105 0 0 180 0 180
105 0 105 0 0 -180z m988 15 c4 -210 5 -205 -62 -205 -40 0 -55 4 -60 16 -3 9
-6 92 -6 185 l0 170 63 -3 62 -3 3 -160z m822 158 c0 -5 9 -78 20 -163 28
-220 78 -628 90 -740 19 -168 23 -181 53 -204 26 -19 45 -21 198 -24 l170 -4
-3 -61 -3 -62 -140 -3 c-136 -3 -140 -3 -167 -29 -20 -19 -28 -37 -28 -61 0
-84 38 -102 210 -102 l131 0 -3 -122 -3 -123 -317 -3 -318 -2 0 225 c0 164 3
225 12 225 6 0 70 3 142 6 457 21 467 22 159 17 l-313 -6 0 187 0 186 103 2
102 2 -102 3 -103 4 0 239 0 240 57 0 c81 0 54 13 -39 19 -16 1 -18 17 -18
181 l0 180 55 0 c30 0 55 -3 55 -7z m2840 -173 l0 -180 -222 2 -223 3 -3 165
c-1 90 0 170 2 177 4 10 55 13 226 13 l220 0 0 -180z m808 -2 l-3 -182 -392
-1 -391 0 -4 175 c-2 96 -2 178 0 183 2 4 181 7 398 7 l394 0 -2 -182z m232 2
l0 -179 -32 -6 c-18 -3 -67 -5 -108 -3 l-75 3 -3 170 c-1 93 0 175 2 182 4 9
34 13 111 13 l105 0 0 -180z m230 0 l0 -180 -104 0 -103 0 -5 173 c-3 94 -3
175 -1 180 2 4 51 7 109 7 l104 0 0 -180z m530 0 l0 -180 -254 0 -254 0 -4
173 c-3 94 -3 175 -1 180 2 4 119 7 259 7 l254 0 0 -180z m450 -6 c0 -166 -2
-185 -16 -180 -9 3 -108 6 -220 6 l-204 0 0 180 0 180 220 0 220 0 0 -186z
m-9160 -421 c0 -126 -4 -232 -8 -238 -4 -6 -89 -10 -218 -10 l-212 0 -7 222
c-4 122 -5 229 -2 238 6 13 38 15 227 15 l220 0 0 -227z m518 -8 l-3 -235
-253 -2 -252 -3 0 238 0 237 255 0 255 0 -2 -235z m232 -199 l0 -435 -100 4
c-55 2 -104 7 -110 10 -6 4 -10 76 -10 186 l0 179 108 2 107 2 -105 5 -105 6
-3 238 -2 237 110 0 110 0 0 -434z m243 194 l2 -235 -112 -3 -113 -3 0 241 0
241 111 -3 110 -3 2 -235z m225 3 l-3 -238 -102 -3 -103 -3 0 241 0 240 105 0
105 0 -2 -237z m222 3 l0 -233 -95 -7 c-52 -4 -99 -4 -105 -1 -11 7 -14 457
-3 468 3 4 51 7 105 7 l98 0 0 -234z m599 12 c0 -123 -2 -230 -5 -238 -3 -13
-43 -15 -291 -13 l-288 2 -3 236 -2 235 294 0 295 0 0 -222z m222 -13 c-1
-126 -3 -231 -4 -231 -1 -1 -47 -3 -102 -5 l-100 -4 -3 238 -2 238 107 -3 107
-3 -3 -230z m3549 147 c0 -49 -3 -157 -7 -240 l-6 -152 -39 0 -38 0 0 43 c0
46 26 339 36 400 5 31 10 37 30 37 24 0 24 -2 24 -88z m638 -147 l-3 -235
-313 -2 -312 -3 0 238 0 237 315 0 315 0 -2 -235z m462 -4 l0 -239 -222 4
-223 3 -3 236 -2 235 225 0 225 0 0 -239z m808 2 l-3 -238 -391 0 -391 0 -6
140 c-9 181 -9 320 0 328 3 4 183 7 400 7 l393 0 -2 -237z m232 -3 l0 -241
-107 3 -108 3 -3 238 -2 237 110 0 110 0 0 -240z m230 3 l0 -238 -104 -2 c-92
-2 -105 0 -110 15 -6 22 -6 443 0 454 3 4 52 8 110 8 l104 0 0 -237z m530 2
l0 -235 -87 0 c-49 0 -163 -3 -254 -6 -141 -5 -167 -4 -172 9 -3 8 -3 117 0
241 l6 226 254 0 253 0 0 -235z m450 -2 l0 -238 -217 2 -218 2 -3 235 -2 236
220 0 220 0 0 -237z m-450 -438 l0 -183 -247 -4 c-137 -2 -251 -2 -254 1 -4 3
-8 87 -10 186 l-4 180 250 5 c138 3 253 4 258 2 4 -2 7 -86 7 -187z m-8712 -2
c-2 -104 -6 -187 -10 -185 -5 1 -102 2 -217 2 l-208 0 -5 178 c-3 97 -4 180
-1 185 2 4 103 7 224 7 l219 0 -2 -187z m520 0 l-3 -187 -252 -1 -253 0 0 188
0 187 255 0 255 0 -2 -187z m474 12 c0 -93 0 -177 -1 -185 -1 -13 -19 -14
-108 -12 -59 2 -109 4 -110 6 -2 1 -5 313 -3 354 0 10 26 12 110 10 l110 -3 2
-170z m226 -12 l-3 -188 -70 -3 c-38 -2 -85 0 -102 3 l-33 6 0 184 0 185 105
0 105 0 -2 -187z m222 2 l0 -185 -27 -1 c-16 -1 -60 -2 -100 -3 -64 -1 -72 1
-76 19 -7 33 -9 334 -2 345 3 6 50 10 106 10 l99 0 0 -185z m598 -2 l2 -183
-295 0 -295 0 0 185 0 185 293 -2 292 -3 3 -182z m222 2 l0 -185 -105 0 -105
0 0 185 0 185 105 0 105 0 0 -185z m3545 15 c1 -91 -1 -173 -3 -182 -4 -16
-17 -18 -96 -19 -60 0 -84 -3 -71 -9 11 -5 54 -9 95 -9 l75 -1 -3 -307 c-2
-169 -4 -309 -6 -310 -1 -1 -107 -3 -236 -5 l-235 -3 -2 30 c-1 17 -4 112 -5
213 l-3 182 117 0 c129 0 162 9 184 51 23 45 18 82 -15 113 -29 28 -32 28
-157 30 l-128 1 -4 61 -3 61 163 5 c225 6 218 0 233 191 l7 78 46 -3 46 -3 1
-165z m645 -15 l0 -185 -305 0 c-168 0 -308 -1 -312 -2 -5 -2 -9 81 -11 185
l-2 187 315 0 315 0 0 -185z m460 0 l0 -185 -219 0 c-190 0 -220 2 -225 16 -3
9 -6 92 -6 185 l0 169 225 0 225 0 0 -185z m810 0 l0 -185 -385 0 c-212 0
-388 -1 -392 -2 -9 -3 -26 339 -19 359 4 10 83 13 401 13 l395 0 0 -185z m230
1 l0 -184 -27 -4 c-16 -2 -65 -2 -110 0 l-83 4 0 184 0 184 110 0 110 0 0
-184z m230 -1 l0 -185 -104 0 c-91 0 -105 2 -109 18 -7 26 -9 331 -2 342 3 6
53 10 111 10 l104 0 0 -185z m980 0 l0 -185 -220 0 -220 0 0 185 0 185 220 0
220 0 0 -185z m-3860 -151 l0 -64 -345 0 c-300 0 -345 2 -345 15 0 13 46 15
343 17 l342 3 -342 2 -343 3 0 45 0 45 338 2 c185 2 340 2 345 0 4 -2 7 -32 7
-68z m1150 -359 l0 -314 -307 -3 c-170 -2 -311 -2 -315 0 -5 2 -8 142 -8 312
l0 310 308 3 c169 1 310 3 315 5 4 1 7 -140 7 -313z m-6451 18 c-1 -159 -4
-299 -6 -313 l-4 -25 -215 3 -214 3 -2 262 c0 144 -2 276 -4 292 -6 68 -16 65
228 65 l220 0 -3 -287z m521 -22 c0 -171 -4 -312 -9 -315 -4 -3 -119 -3 -255
1 l-246 6 0 309 0 308 255 0 255 0 0 -309z m230 -6 l0 -316 -107 3 -108 3 -3
313 -2 312 110 0 110 0 0 -315z m240 308 c1 -21 1 -980 1 -995 -1 -16 -13 -18
-111 -18 l-109 0 -3 178 c-2 97 -1 183 1 190 2 8 35 13 110 14 l106 2 -107 3
-108 4 0 314 0 315 110 0 c61 0 110 -3 110 -7z m230 -308 l0 -315 -105 0 -105
0 0 315 0 315 105 0 105 0 0 -315z m220 6 l0 -308 -37 -6 c-21 -2 -67 -4 -103
-3 l-65 1 -3 300 c-1 165 0 305 3 312 3 9 33 13 105 13 l100 0 0 -309z m600
25 c0 -156 -3 -298 -6 -315 l-7 -31 -284 3 -285 4 0 304 c0 167 1 307 1 312 1
4 132 7 291 7 l290 0 0 -284z m220 59 l0 -224 -72 -3 -72 -3 2 -95 c0 -52 1
-107 1 -122 1 -28 1 -28 71 -28 l70 0 0 -160 0 -160 -105 0 -105 0 0 190 c0
183 1 190 20 190 11 0 20 5 20 10 0 6 -9 10 -20 10 -20 0 -20 7 -20 310 l0
310 105 0 105 0 0 -225z m4650 -85 l0 -310 -22 0 c-13 0 -112 -2 -220 -4 -165
-3 -198 -1 -202 11 -8 21 -7 598 1 606 3 4 105 7 225 7 l218 0 0 -310z m808
-2 l-3 -312 -390 2 -390 2 -6 303 c-3 166 -4 305 -2 310 2 4 182 7 399 7 l394
0 -2 -312z m232 2 l0 -310 -27 -1 c-16 0 -64 -1 -108 -2 l-80 -2 -3 313 -2
312 110 0 110 0 0 -310z m230 -6 l0 -315 -97 6 c-54 4 -103 8 -109 10 -7 2
-11 98 -11 309 l-1 306 109 0 109 0 0 -316z m528 7 l-3 -310 -252 -6 c-202 -4
-253 -3 -253 7 0 7 0 146 -1 308 0 162 0 298 0 303 1 4 116 7 256 7 l255 0 -2
-309z m452 -3 l0 -313 -217 2 -218 3 -3 310 -2 310 220 0 220 0 0 -312z
m-3860 -97 c0 -208 0 -209 -22 -215 -13 -3 -35 -6 -50 -6 l-28 0 0 90 0 90
-295 0 -295 0 0 125 0 125 345 0 345 0 0 -209z m-5305 -421 l0 -185 -216 -3
-216 -2 -5 182 c-3 101 -4 186 -1 191 2 4 102 6 221 5 l217 -3 0 -185z m523 3
l-3 -188 -252 -3 -253 -2 0 190 0 190 255 0 255 0 -2 -187z m232 -3 l0 -191
-107 3 -108 3 -3 188 -2 187 110 0 110 0 0 -190z m470 0 l0 -190 -105 0 -105
0 0 190 0 190 105 0 105 0 0 -190z m220 0 l0 -191 -102 3 -103 3 -3 175 c-1
96 0 180 2 187 4 9 33 13 106 13 l100 0 0 -190z m595 0 l0 -185 -290 0 -290 0
-3 188 -2 187 292 -2 293 -3 0 -185z m3265 0 l0 -190 -345 0 -345 0 0 160 0
160 295 0 295 0 0 30 c0 29 1 30 50 30 l50 0 0 -190z m506 129 c-3 -34 -6
-120 -6 -190 l0 -129 -240 0 -240 0 0 190 0 190 246 0 247 0 -7 -61z m644
-129 l0 -190 -315 0 -315 0 0 190 0 190 315 0 315 0 0 -190z m460 0 l0 -190
-222 2 -223 3 -3 188 -2 187 225 0 225 0 0 -190z m810 0 l0 -190 -393 0 -394
0 -6 181 c-4 100 -4 185 -1 190 3 5 176 9 400 9 l394 0 0 -190z m230 0 l0
-191 -107 3 -108 3 -3 188 -2 187 110 0 110 0 0 -190z m230 0 l0 -190 -104 0
c-85 0 -105 3 -110 16 -8 21 -8 349 1 357 3 4 53 7 110 7 l103 0 0 -190z m528
3 l-3 -188 -251 -3 -252 -2 -4 182 c-3 101 -3 186 -1 191 2 4 119 7 259 7
l254 0 -2 -187z m452 -3 l0 -190 -220 0 -220 0 0 190 0 190 220 0 220 0 0
-190z m-6330 -30 l0 -160 -274 0 -275 0 -3 153 c-2 83 -2 155 0 160 2 4 127 7
278 7 l274 0 0 -160z m476 25 c0 -71 -1 -142 -4 -158 l-4 -27 -226 2 -227 3
-3 158 -3 157 233 -2 233 -3 1 -130z m234 -25 l0 -160 -110 0 -110 0 0 160 0
160 110 0 110 0 0 -160z m410 0 l0 -160 -195 0 -195 0 0 160 0 160 195 0 195
0 0 -160z m650 13 c0 -82 -4 -154 -8 -161 -7 -9 -77 -12 -318 -10 l-309 3 -3
158 -3 157 321 0 320 0 0 -147z m-4607 -263 c-1 -41 -2 -94 -2 -117 l-1 -43
-215 0 -215 0 0 120 0 120 218 -2 217 -3 -2 -75z m525 -37 l-3 -118 -252 -3
-253 -2 0 120 0 120 255 0 256 0 -3 -117z m232 -6 l0 -118 -107 3 -108 3 -3
104 c-1 58 -1 109 1 115 3 7 45 11 111 11 l106 0 0 -118z m244 95 c0 -12 -1
-65 -2 -117 l-2 -95 -110 0 -110 0 0 113 c0 63 2 116 4 118 2 2 53 4 113 4
105 0 108 -1 107 -23z m224 -95 l3 -117 -106 0 -105 0 0 113 c0 63 2 116 5
118 2 3 48 4 102 4 l98 -1 3 -117z m145 113 l77 0 0 -115 0 -115 -100 0 -100
0 -1 78 c0 42 -3 90 -5 106 -7 42 2 59 29 52 12 -3 57 -6 100 -6z m672 -110
l0 -115 -290 0 -290 0 -3 104 c-1 58 -1 110 1 116 3 7 95 10 293 10 l289 0 0
-115z m225 -2 l0 -118 -105 0 -105 0 0 113 c0 63 2 116 5 119 3 2 50 4 105 4
l100 -1 0 -117z m338 112 l233 0 -3 -112 -3 -113 -272 -3 -273 -2 0 113 c0 63
3 117 8 121 4 4 23 5 42 2 19 -3 140 -6 268 -6z m705 4 c3 -5 3 -60 0 -121
l-6 -113 -228 0 -229 0 0 114 c0 70 4 116 10 118 25 8 448 9 453 2z m241 -13
c-1 -6 -2 -58 -2 -116 l-2 -105 -110 0 -110 0 0 114 c0 67 4 116 10 118 26 8
215 -1 214 -11z m404 -103 l3 -118 -196 0 -195 0 0 119 0 119 193 -2 192 -1 3
-117z m647 22 c0 -52 -1 -105 -3 -118 l-4 -22 -312 2 -311 3 -3 109 c-2 68 1
112 8 116 5 3 148 6 318 6 l307 -1 0 -95z m705 -22 l0 -118 -345 0 -345 0 0
113 c0 63 2 116 4 118 2 2 158 4 345 4 l341 0 0 -117z m506 111 c3 -6 2 -59
-1 -119 l-8 -110 -238 0 -239 0 0 118 0 117 240 2 c140 0 242 -3 246 -8z m644
-111 l0 -118 -315 0 -315 0 0 113 c0 63 2 116 4 118 2 2 144 4 315 5 l311 1 0
-119z m460 -1 l0 -117 -222 2 -223 3 -3 112 -3 112 138 3 c76 2 177 3 225 3
l88 0 0 -118z m805 1 l0 -113 -392 -3 -393 -2 0 114 c0 67 4 116 10 118 5 2
182 2 392 1 l383 -2 0 -113z m235 0 l0 -119 -107 3 -108 3 -3 104 c-1 58 -1
109 1 115 3 7 45 11 111 11 l106 1 0 -118z m230 0 l0 -118 -104 0 c-85 0 -105
3 -110 16 -7 19 -8 209 -1 216 3 2 52 4 110 4 l105 -1 0 -117z m525 2 l0 -115
-252 -3 -253 -2 0 119 0 119 253 -2 252 -1 0 -115z m455 -1 l0 -119 -220 0
-220 0 0 113 c0 63 3 117 7 121 4 4 103 6 220 5 l213 -2 0 -118z m-9166 -153
c7 -29 7 -323 -1 -342 -4 -11 -47 -14 -219 -14 l-214 0 0 190 0 190 214 0 214
0 6 -24z m526 -166 l0 -190 -255 0 -255 0 0 190 0 190 255 0 255 0 0 -190z
m230 -2 l0 -193 -48 1 c-26 0 -75 1 -109 2 l-63 2 0 183 c0 101 3 187 7 190 3
4 53 7 110 7 l103 0 0 -192z m240 180 c0 -6 2 -89 4 -184 2 -94 1 -176 -3
-182 -6 -9 -206 -10 -216 -1 -3 4 -8 299 -5 367 0 17 220 18 220 0z m230 -181
l0 -193 -102 1 -103 0 -3 193 -2 192 105 0 105 0 0 -193z m220 1 l0 -187 -101
-3 c-55 -2 -103 -1 -105 1 -7 7 -4 367 3 375 4 4 51 6 105 4 l98 -3 0 -187z
m598 17 c1 -93 0 -181 -3 -193 l-6 -24 -287 4 -287 3 -3 180 c-1 98 0 185 3
192 3 11 64 13 292 11 l288 -3 3 -170z m222 -17 l0 -193 -92 2 c-51 1 -99 2
-105 2 -10 1 -13 46 -13 191 l0 190 105 0 105 0 0 -192z m568 0 l-3 -193 -272
-1 -272 -1 -3 181 c-2 99 -1 187 1 194 2 9 67 12 277 12 l274 0 -2 -192z m480
180 c9 -9 12 -9 12 0 0 10 28 12 113 10 99 -3 112 -5 111 -20 0 -10 -1 -97 -2
-193 l-2 -176 -107 3 -108 3 -5 172 c-3 94 -8 175 -12 179 -5 4 -8 -74 -8
-174 l0 -182 -227 3 -228 2 -3 193 -2 192 228 0 c164 0 231 -3 240 -12z m640
-180 l-3 -193 -192 -3 -193 -2 0 195 0 195 195 0 195 0 -2 -192z m645 185 c2
-5 2 -91 -1 -193 l-4 -186 -303 2 c-166 0 -307 4 -314 8 -7 5 -11 64 -11 192
l0 184 314 0 c173 0 317 -3 319 -7z m705 -185 l-3 -193 -340 1 -340 1 -3 191
-2 192 345 0 345 0 -2 -192z m505 10 c-1 -101 -3 -189 -3 -195 0 -10 -55 -13
-240 -13 -185 0 -240 3 -240 13 0 6 -2 92 -3 190 -2 97 -1 179 1 182 3 3 114
5 247 5 l241 0 -3 -182z m645 -10 l-3 -193 -312 -2 -313 -1 0 194 0 194 315 0
315 0 -2 -192z m462 -2 l0 -195 -222 5 -223 5 -3 189 -2 190 225 0 225 0 0
-194z m808 2 l-3 -193 -391 -1 -391 -2 -7 106 c-8 132 -8 246 0 266 5 14 50
16 400 16 l394 0 -2 -192z m232 2 l0 -190 -27 -1 c-16 -1 -64 -2 -108 -3 l-80
-1 -3 180 c-1 98 0 185 2 192 4 9 34 13 111 13 l105 0 0 -190z m230 0 c0 -155
-3 -192 -14 -196 -8 -3 -56 -2 -108 3 l-93 8 -3 175 c-1 96 0 180 2 187 4 9
34 13 111 13 l105 0 0 -190z m528 3 l-3 -188 -252 -3 -252 -2 -3 173 c-2 96
-2 182 0 191 3 14 30 16 258 16 l254 0 -2 -187z m452 -3 l0 -190 -220 0 -220
0 0 190 0 190 220 0 220 0 0 -190z m-9164 -590 c1 -206 -1 -399 -3 -427 l-5
-53 -214 0 -214 0 0 430 0 430 217 -2 218 -3 1 -375z m524 -50 l0 -430 -255 0
-255 0 0 430 0 430 255 0 255 0 0 -430z m232 13 c2 -230 1 -424 -1 -431 -2 -9
-30 -12 -110 -10 l-106 3 -3 428 -2 427 110 0 109 0 3 -417z m246 5 c0 -227
-1 -421 -4 -430 -5 -16 -19 -18 -115 -18 l-109 0 0 430 0 430 113 0 113 0 2
-412z m222 -18 l0 -430 -105 0 -105 0 0 430 0 430 105 0 105 0 0 -430z m220 0
l0 -430 -22 -1 -23 -2 23 -4 22 -4 0 -241 0 -240 -110 4 c-61 1 -110 0 -110
-4 0 -5 50 -8 110 -8 l110 0 0 -280 0 -281 -102 3 -103 3 -5 275 -5 275 -3
-277 -2 -278 -105 0 -105 0 2 282 3 283 100 -2 100 -1 -102 10 -103 10 -2 67
-2 66 -5 -70 -6 -70 -105 -6 -105 -5 108 -2 108 -2 -6 -277 -6 -278 -109 -3
-110 -3 0 526 0 525 115 0 c102 0 115 -2 116 -17 1 -17 2 -17 6 0 4 15 18 17
116 17 l112 0 -3 435 -3 435 106 0 105 0 0 -430z m600 0 l0 -430 -27 -1 -28
-2 28 -4 27 -4 0 -238 0 -239 -292 2 -293 1 -3 673 -3 672 295 0 296 0 0 -430z
m220 0 l0 -430 -105 0 -105 0 0 430 0 430 105 0 105 0 0 -430z m570 0 l0 -430
-275 0 -275 0 -2 418 c-2 229 -1 423 1 430 2 9 66 12 277 12 l274 0 0 -430z
m470 1 c0 -233 -3 -428 -5 -432 -3 -4 -1 -9 4 -11 6 -2 8 -92 4 -238 l-6 -235
-226 0 -226 0 -3 673 -2 672 231 -2 231 -3 -2 -424z m240 -1 l0 -429 -97 -4
-98 -3 104 -2 104 -2 -6 -67 c-4 -38 -7 -146 -7 -240 l0 -173 -110 0 -110 0 0
240 c0 185 3 240 13 241 10 0 10 2 0 6 -10 4 -13 100 -13 434 l0 429 110 0
110 0 0 -430z m410 0 l0 -430 -22 -1 -23 -2 23 -4 22 -4 -2 -237 -3 -236 -192
0 -193 -1 0 673 0 672 195 0 195 0 0 -430z m642 3 c-2 -322 -6 -429 -15 -435
-8 -5 -6 -8 7 -8 17 0 18 -5 12 -46 -3 -26 -6 -133 -6 -239 l0 -193 -312 4
-313 3 -3 658 c-1 362 0 664 3 671 3 9 76 12 317 12 l313 0 -3 -427z m708 -3
l0 -430 -327 -2 -328 -3 328 -2 327 -3 0 -235 0 -235 -329 0 c-181 0 -336 -3
-344 -6 -14 -5 -16 74 -16 670 l-1 676 345 0 345 0 0 -430z m504 413 c-1 -7
-2 -200 -2 -428 l-2 -415 -227 -3 -228 -2 234 -3 234 -2 -7 -61 c-3 -34 -6
-141 -6 -238 l0 -176 -240 0 -240 0 -2 150 c-3 336 -3 1171 0 1183 6 18 487
13 486 -5z m646 -653 l0 -670 -298 -1 c-163 0 -305 -2 -314 -4 -17 -3 -18 14
-18 236 l0 239 223 2 222 3 -222 2 -223 3 0 430 0 430 315 0 315 0 0 -670z
m460 240 l0 -430 -212 -2 -213 -3 220 -5 220 -5 -4 255 c-2 140 0 337 4 438
l7 182 394 0 394 0 0 -430 c0 -337 -3 -430 -12 -430 -10 0 -10 -2 0 -8 9 -7
12 -62 10 -243 l-3 -234 -377 -1 c-208 0 -381 -3 -384 -7 -4 -4 167 -7 379 -7
l387 0 0 -280 0 -280 -394 0 -393 0 -7 108 c-9 140 -5 452 6 452 5 0 6 6 1 13
-4 6 -10 113 -13 237 l-6 225 -2 -230 -2 -230 -223 1 -222 2 -3 671 -2 671
225 0 225 0 0 -430z m1040 0 l0 -429 -92 -4 c-51 -1 3 -4 121 -5 l214 -2 -7
-92 c-3 -50 -6 -286 -6 -525 l0 -433 -105 0 c-58 0 -105 1 -106 3 0 1 -3 125
-6 274 -4 211 -3 276 7 288 10 12 10 15 -4 15 -14 0 -16 -29 -16 -290 l0 -291
-107 3 -108 3 -3 278 c-2 212 1 277 10 277 9 0 9 3 0 12 -9 9 -12 77 -12 245
0 215 1 233 18 233 16 1 16 1 0 11 -17 9 -18 41 -18 434 l0 425 110 0 110 0 0
-430z m230 0 l0 -430 -110 0 -110 0 0 423 c0 233 3 427 7 430 3 4 53 7 110 7
l103 0 0 -430z m530 0 l0 -430 -237 -2 -238 -3 237 -2 238 -3 -3 -523 -2 -522
-252 -3 -253 -2 0 297 c-1 164 -2 372 -2 463 -1 91 -1 284 0 430 1 146 -1 362
-4 481 -4 119 -4 224 -1 233 6 14 36 16 262 16 l255 0 0 -430z m450 0 l0 -430
-220 0 -220 0 0 430 0 430 220 0 220 0 0 -430z m-9161 -772 c0 -183 -3 -420
-6 -526 l-5 -192 -214 0 -214 0 -2 233 c-1 127 -2 252 -2 277 l-1 45 215 5
c291 7 270 12 -87 18 l-123 2 0 235 0 235 220 0 219 0 0 -332z m521 -193 l0
-525 -255 0 -255 0 0 280 0 280 242 0 c133 0 239 2 236 5 -3 3 -112 7 -242 8
l-236 2 0 237 0 238 255 0 255 0 0 -525z m235 253 c-2 -150 -5 -387 -5 -525
l0 -253 -110 0 -110 0 0 525 0 525 115 0 115 0 -5 -272z m1512 130 c-4 -79 -7
-187 -7 -241 l0 -97 -102 2 -103 3 -3 238 -2 237 111 0 112 0 -6 -142z m563
-92 l0 -235 -42 -6 c-24 -3 -148 -5 -275 -3 l-233 3 0 238 0 237 275 0 275 0
0 -234z m6328 -3 l-3 -237 -217 -2 -218 -2 0 239 0 239 220 0 220 0 -2 -237z
m-7118 -533 l0 -280 -295 0 -295 0 0 280 0 280 295 0 295 0 0 -280z m790 0 l0
-280 -277 2 -278 3 3 266 c2 182 0 269 -7 274 -8 4 -11 -76 -11 -269 l0 -276
-105 0 -105 0 0 280 0 280 390 0 390 0 0 -280z m470 0 l0 -280 -230 0 -230 0
0 280 0 280 230 0 230 0 0 -280z m240 0 l0 -281 -112 3 -113 3 1 105 c0 58 1
183 2 278 l2 172 110 0 110 0 0 -280z m410 0 l0 -280 -194 0 -195 0 -3 103
c-2 56 -2 182 0 280 l3 177 194 0 195 0 0 -280z m643 123 c4 -87 7 -213 7
-280 l0 -123 -320 0 -320 0 0 280 0 280 313 0 314 0 6 -157z m707 -123 l0
-280 -345 0 -345 0 0 280 0 280 345 0 345 0 0 -280z m506 3 l-1 -278 -239 -3
c-185 -2 -241 1 -248 10 -4 7 -8 133 -8 281 l0 267 248 0 248 0 0 -277z m644
-3 l0 -280 -315 0 -315 0 0 280 0 280 315 0 315 0 0 -280z m460 0 l0 -280
-225 0 -225 0 0 280 0 280 225 0 225 0 0 -280z m2250 0 l0 -280 -220 0 -220 0
0 280 0 280 220 0 220 0 0 -280z"/>
<path d="M2774 9299 c-7 -12 4 -410 11 -418 3 -2 5 93 5 212 0 119 -2 217 -4
217 -3 0 -8 -5 -12 -11z"/>
<path d="M6316 8200 c-170 -21 -316 -98 -442 -233 -140 -150 -196 -294 -197
-502 0 -176 30 -296 129 -504 116 -245 393 -671 538 -828 74 -81 126 -54 270
141 88 119 150 219 281 451 129 228 182 335 214 433 74 221 67 451 -20 623
-73 146 -211 284 -357 358 -99 51 -282 77 -416 61z m266 -398 c79 -39 128 -90
172 -182 28 -58 31 -75 31 -155 0 -100 -18 -152 -75 -224 -82 -102 -247 -164
-357 -135 -22 6 -23 11 -23 100 l0 94 208 1 c201 2 204 2 97 11 -60 4 -154 6
-207 2 l-96 -5 -4 253 c-2 152 1 258 6 266 7 10 32 13 96 10 72 -2 96 -8 152
-36z m-272 -237 l0 -255 -113 0 -113 0 -19 52 c-39 109 -12 241 69 341 40 49
135 117 163 117 10 0 13 -53 13 -255z m0 -332 c0 -38 3 -78 6 -90 14 -52 -84
-7 -163 74 -77 78 -74 83 52 83 l105 0 0 -67z"/>
<path d="M3812 6645 c0 -60 4 -162 8 -225 6 -105 7 -97 8 90 0 113 -3 214 -8
225 -5 13 -8 -20 -8 -90z"/>
<path d="M3797 6179 c-128 -20 -217 -128 -217 -263 0 -74 23 -129 75 -181 130
-129 338 -89 421 82 48 96 28 202 -54 286 -65 68 -133 91 -225 76z"/>
<path d="M4143 6179 c14 -8 22 -8 30 0 8 8 3 11 -18 11 -26 -1 -28 -2 -12 -11z"/>
<path d="M5903 3853 c37 -2 97 -2 135 0 37 2 6 3 -68 3 -74 0 -105 -1 -67 -3z"/>
<path d="M1813 1283 c15 -2 39 -2 55 0 15 2 2 4 -28 4 -30 0 -43 -2 -27 -4z"/>
<path d="M2113 1283 c59 -2 155 -2 215 0 59 1 10 3 -108 3 -118 0 -167 -2
-107 -3z"/>
<path d="M3443 1283 c31 -2 83 -2 115 0 31 2 5 3 -58 3 -63 0 -89 -1 -57 -3z"/>
<path d="M4168 1283 c39 -2 105 -2 145 0 39 1 7 3 -73 3 -80 0 -112 -2 -72 -3z"/>
<path d="M4623 1283 c70 -2 184 -2 255 0 70 1 12 3 -128 3 -140 0 -198 -2
-127 -3z"/>
<path d="M7627 1283 c94 -2 252 -2 350 0 98 1 21 2 -172 2 -192 1 -273 -1
-178 -2z"/>
<path d="M8538 803 c18 -2 45 -2 60 0 15 2 0 4 -33 4 -33 0 -45 -2 -27 -4z"/>
<path d="M8313 793 c26 -2 67 -2 90 0 23 2 2 3 -48 3 -49 0 -68 -1 -42 -3z"/>
<path d="M8943 803 c9 -2 25 -2 35 0 9 3 1 5 -18 5 -19 0 -27 -2 -17 -5z"/>
<path d="M9093 793 c20 -2 54 -2 75 0 20 2 3 4 -38 4 -41 0 -58 -2 -37 -4z"/>
<path d="M1128 793 c18 -2 45 -2 60 0 15 2 0 4 -33 4 -33 0 -45 -2 -27 -4z"/>
<path d="M2772 10035 c-1 -139 2 -205 8 -195 11 17 11 243 0 340 -5 46 -7 2
-8 -145z"/>
<path d="M3810 10028 c0 -116 3 -208 8 -204 4 4 7 100 7 212 0 112 -3 204 -7
204 -5 0 -8 -95 -8 -212z"/>
<path d="M9705 4230 c-4 -7 87 -10 264 -10 174 0 271 4 271 10 0 6 -95 10
-264 10 -166 0 -267 -4 -271 -10z"/>
<path d="M2776 169 c-10 -50 -7 -169 4 -169 6 0 10 40 10 100 0 55 -2 100 -4
100 -2 0 -6 -14 -10 -31z"/>
</g>
</svg>
