<?xml version="1.0" standalone="no"?>
<!DOCTYPE svg PUBLIC "-//W3C//DTD SVG 20010904//EN"
 "http://www.w3.org/TR/2001/REC-SVG-20010904/DTD/svg10.dtd">
<svg version="1.0" xmlns="http://www.w3.org/2000/svg"
 width="1024.000000pt" height="1024.000000pt" viewBox="0 0 1024.000000 1024.000000"
 preserveAspectRatio="xMidYMid meet">
<metadata>
Created by potrace 1.16, written by Peter Selinger 2001-2019
</metadata>
<g transform="translate(0.000000,1024.000000) scale(0.100000,-0.100000)"
fill="#000000" stroke="none">
<path d="M2990 8483 c-222 -18 -431 -91 -624 -220 -257 -171 -426 -421 -509
-753 l-21 -85 -4 -2310 c-2 -1561 0 -2340 7 -2401 39 -338 240 -687 511 -886
141 -104 266 -162 440 -206 l105 -27 2160 -3 c1507 -2 2193 0 2267 8 271 27
485 114 679 277 177 149 300 336 384 585 69 207 65 45 65 2599 0 2541 4 2366
-62 2569 -61 186 -154 338 -297 480 -179 179 -394 295 -651 353 l-95 21 -2155
1 c-1185 1 -2175 0 -2200 -2z m2317 -314 c222 -31 449 -153 593 -319 l51 -59
612 -3 612 -3 93 -32 c51 -18 118 -49 148 -68 152 -97 272 -263 315 -435 12
-46 14 -410 14 -2220 l0 -2165 -23 -80 c-35 -119 -85 -207 -175 -301 -91 -97
-176 -153 -284 -191 -73 -25 -93 -27 -338 -34 -278 -9 -1150 -8 -1159 1 -4 5
-10 2836 -7 3271 l1 86 98 -3 97 -4 3 -772 3 -773 25 -53 c18 -36 40 -62 72
-85 44 -30 53 -32 128 -32 72 0 86 3 130 30 30 19 60 49 79 79 l30 49 0 971 0
971 -37 78 c-66 138 -188 231 -338 257 -45 8 -325 10 -925 8 l-860 -3 -59 -23
c-118 -45 -194 -108 -250 -212 -55 -102 -56 -107 -56 -1077 0 -608 3 -908 11
-943 20 -92 95 -167 188 -190 110 -26 242 54 269 163 9 33 12 260 12 801 l0
754 68 4 c37 2 81 2 98 0 l32 -3 7 -172 c9 -227 1 -3165 -9 -3174 -4 -5 -326
-8 -714 -8 -642 0 -713 2 -777 18 -156 40 -299 137 -399 270 -67 90 -99 154
-128 254 l-23 78 0 2160 c1 2052 1 2163 19 2225 55 199 231 401 413 475 131
53 165 55 798 55 l586 0 87 88 c48 48 120 108 159 135 197 131 465 190 710
156z m-27 -5001 c-2 -486 -4 -891 -7 -900 -4 -16 -17 -18 -104 -18 l-99 0 0
900 0 900 106 0 106 0 -2 -882z"/>
<path d="M5084 7760 c-225 -34 -396 -181 -470 -400 -29 -85 -26 -295 4 -371
80 -201 246 -337 456 -376 80 -14 97 -15 182 -1 170 28 304 111 393 243 75
113 96 185 96 330 -1 98 -5 132 -24 185 -44 125 -146 251 -257 316 -105 62
-263 93 -380 74z"/>
</g>
</svg>
