<?xml version="1.0" standalone="no"?>
<!DOCTYPE svg PUBLIC "-//W3C//DTD SVG 20010904//EN"
 "http://www.w3.org/TR/2001/REC-SVG-20010904/DTD/svg10.dtd">
<svg version="1.0" xmlns="http://www.w3.org/2000/svg"
 width="1024.000000pt" height="1024.000000pt" viewBox="0 0 1024.000000 1024.000000"
 preserveAspectRatio="xMidYMid meet">
<metadata>
Created by potrace 1.16, written by Peter Selinger 2001-2019
</metadata>
<g transform="translate(0.000000,1024.000000) scale(0.100000,-0.100000)"
fill="#000000" stroke="none">
<path d="M5040 7830 c-113 -19 -75 15 -1300 -1204 -635 -632 -1164 -1165
-1175 -1185 -29 -53 -28 -181 2 -237 68 -128 210 -184 349 -137 41 13 76 43
222 186 l172 171 0 -1140 c0 -628 -2 -1143 -4 -1145 -2 -2 -34 -2 -70 -1 l-66
4 0 231 c0 203 -3 237 -19 272 -77 170 -280 218 -413 97 -81 -73 -83 -82 -86
-389 -3 -224 0 -284 13 -335 24 -96 63 -166 139 -246 54 -57 87 -81 154 -115
84 -41 85 -42 218 -45 l134 -4 0 -82 c0 -99 28 -166 92 -220 40 -34 113 -66
152 -66 51 0 138 35 180 71 56 49 82 113 91 217 l8 82 1293 0 1294 0 0 -63 c0
-100 23 -161 84 -222 70 -70 139 -94 219 -76 142 31 217 130 217 285 l0 71
103 1 c276 3 478 156 542 412 13 51 16 111 13 325 -3 298 -8 318 -88 395 -129
126 -346 75 -410 -95 -18 -48 -20 -78 -20 -277 l0 -224 -24 -6 c-13 -3 -45 -3
-70 0 l-46 7 0 1141 0 1141 165 -165 c195 -196 222 -213 335 -207 88 4 166 39
207 94 36 47 63 126 63 186 0 97 -29 138 -251 361 l-201 201 1 640 c1 662 -1
715 -40 790 -41 79 -133 154 -209 170 -19 4 -214 7 -432 7 -468 -1 -467 0
-558 -91 -55 -54 -78 -96 -95 -175 -6 -27 -16 -18 -289 251 -304 302 -334 324
-452 343 -66 11 -79 11 -144 0z m1381 -2870 c1 -542 1 -1173 0 -1402 l-1 -418
-240 0 -240 0 0 980 0 981 -22 47 c-13 26 -42 66 -65 89 -77 75 -62 73 -728
73 -675 0 -651 3 -735 -81 -84 -84 -79 -15 -82 -1116 l-3 -973 -237 0 -238 0
0 1402 0 1403 647 647 648 648 647 -647 647 -648 2 -985z m309 1724 l0 -277
-137 134 c-76 74 -146 144 -155 155 -19 24 -23 91 -12 203 l7 61 148 0 149 0
0 -276z m-1300 -2719 l0 -825 -310 0 -310 0 0 820 0 820 308 3 c169 1 308 3
310 5 1 1 2 -369 2 -823z"/>
<path d="M5024 6665 c-151 -33 -267 -141 -309 -289 -27 -93 -18 -233 21 -311
37 -75 124 -164 196 -199 191 -94 436 -29 548 146 166 256 25 589 -277 653
-81 17 -100 17 -179 0z"/>
</g>
</svg>
