<?xml version="1.0" standalone="no"?>
<!DOCTYPE svg PUBLIC "-//W3C//DTD SVG 20010904//EN"
 "http://www.w3.org/TR/2001/REC-SVG-20010904/DTD/svg10.dtd">
<svg version="1.0" xmlns="http://www.w3.org/2000/svg"
 width="1024.000000pt" height="1024.000000pt" viewBox="0 0 1024.000000 1024.000000"
 preserveAspectRatio="xMidYMid meet">
<metadata>
Created by potrace 1.16, written by Peter Selinger 2001-2019
</metadata>
<g transform="translate(0.000000,1024.000000) scale(0.100000,-0.100000)"
fill="#000000" stroke="none">
<path d="M4456 7883 c-1 -2 -220 -3 -487 -3 -521 -1 -555 -4 -723 -57 -93 -29
-255 -108 -338 -164 -220 -150 -407 -398 -493 -654 -55 -164 -56 -175 -56
-900 1 -368 1 -764 1 -880 -3 -2244 -5 -2173 56 -2367 37 -117 122 -278 207
-394 156 -211 354 -353 610 -439 205 -68 89 -65 2070 -65 1164 0 1815 4 1857
10 171 27 374 108 530 213 96 64 273 241 333 333 96 147 167 318 202 489 14
71 16 262 16 1926 l0 1847 -22 94 c-90 391 -327 691 -694 876 -126 64 -225 97
-351 117 -86 14 -265 17 -1407 18 -720 1 -1310 1 -1311 0z m2649 -312 c370
-63 678 -334 792 -698 l28 -88 5 -1460 c3 -803 4 -1589 2 -1746 l-2 -287 -122
40 c-67 22 -172 52 -232 67 l-111 28 -5 119 c-3 65 -10 128 -17 140 -19 34
-64 57 -108 57 -89 0 -125 -49 -125 -169 0 -44 -2 -83 -5 -85 -2 -3 -36 0 -75
5 l-70 10 0 232 c0 141 -4 244 -11 261 -16 42 -48 72 -91 84 -47 12 -99 -9
-132 -54 -20 -27 -21 -42 -21 -265 l0 -237 -105 0 -105 0 0 885 0 885 160 5
c179 6 207 14 245 74 30 49 35 96 16 138 -17 34 -104 137 -336 394 -69 76
-204 227 -301 334 -189 210 -250 269 -283 272 -94 7 -1472 4 -1512 -3 -83 -16
-80 -13 -507 -499 -94 -107 -217 -247 -273 -310 -136 -155 -154 -182 -154
-238 0 -51 28 -107 68 -137 25 -18 45 -20 225 -23 l197 -3 0 -890 0 -889 -115
0 -115 0 0 213 c0 116 -5 229 -10 249 -14 49 -60 94 -105 102 -44 9 -99 -16
-129 -57 -20 -28 -21 -40 -18 -272 l3 -242 -88 -10 c-48 -6 -91 -8 -96 -6 -4
2 -7 40 -6 83 1 65 -2 84 -20 108 -57 81 -173 75 -217 -10 -19 -36 -22 -62
-23 -168 l-1 -75 -142 -34 c-79 -18 -197 -51 -262 -72 -66 -21 -124 -36 -128
-33 -5 3 -7 780 -5 1727 l3 1722 26 95 c117 429 471 718 908 743 25 1 808 2
1740 1 1266 0 1713 -4 1765 -13z m-2409 -1511 c231 -250 474 -523 474 -531 0
-5 -231 -9 -570 -9 -313 0 -570 4 -570 8 0 9 214 251 424 480 90 98 144 149
151 144 7 -4 48 -45 91 -92z m524 -1220 l0 -460 -232 0 c-128 0 -251 -5 -273
-10 -64 -15 -94 -65 -80 -136 10 -55 45 -84 100 -84 l45 0 0 -70 0 -70 -93 0
c-105 0 -130 -11 -153 -67 -18 -43 -5 -99 31 -133 22 -21 37 -25 120 -28 l95
-4 0 -129 0 -129 -185 0 -185 0 0 884 c0 698 3 885 13 889 6 3 189 6 405 6
l392 1 0 -460z m1108 -427 l-3 -888 -145 -3 c-177 -3 -188 -1 -185 35 1 16 3
71 3 124 l2 96 73 5 c79 5 106 17 131 59 26 43 21 94 -13 131 -28 31 -33 33
-109 36 l-80 4 -4 64 -3 64 35 6 c19 3 41 6 49 7 30 4 56 57 56 113 0 45 -4
58 -28 81 l-27 28 -295 3 -295 3 0 453 c0 249 3 456 7 459 3 4 192 7 420 7
l413 0 -2 -887z m-1108 -333 l0 -70 -95 0 -95 0 0 70 0 70 95 0 95 0 0 -70z
m530 0 l0 -70 -130 0 -130 0 0 63 c0 35 3 67 7 70 3 4 62 7 130 7 l123 0 0
-70z m-530 -430 l0 -131 -92 3 -93 3 -3 128 -3 127 96 0 95 0 0 -130z m530 0
l0 -131 -127 3 -128 3 -3 128 -3 127 131 0 130 0 0 -130z m1225 -390 c322 -48
644 -132 865 -225 87 -36 85 -30 33 -150 -56 -130 -120 -223 -223 -326 -142
-143 -285 -227 -465 -275 -66 -17 -159 -18 -1820 -22 -1214 -2 -1779 0 -1845
8 -121 14 -260 61 -369 125 -103 61 -254 202 -316 294 -52 79 -132 242 -141
287 -6 32 -6 32 72 62 225 86 504 160 799 211 l170 30 1555 0 c1493 1 1560 0
1685 -19z"/>
<path d="M4528 5890 c-27 -28 -30 -36 -25 -73 7 -54 52 -97 100 -97 48 0 97
53 97 104 0 88 -108 130 -172 66z"/>
<path d="M3784 3058 c-100 -104 -164 -182 -164 -198 0 -9 6 -24 13 -33 10 -14
43 -17 225 -20 l212 -5 20 26 c17 21 18 28 7 41 -55 66 -183 209 -199 224 -34
29 -60 21 -114 -35z"/>
<path d="M6074 3041 c-43 -26 -64 -59 -64 -101 0 -60 9 -65 112 -65 75 0 96 3
110 18 50 49 -22 167 -102 167 -14 0 -39 -9 -56 -19z"/>
<path d="M4733 2996 c-61 -27 -81 -108 -38 -151 20 -21 34 -25 83 -25 72 0
102 25 102 83 0 74 -79 123 -147 93z"/>
<path d="M6648 2888 c-96 -102 -110 -128 -83 -158 17 -18 32 -20 191 -20 183
0 204 5 204 50 0 28 -177 220 -203 220 -14 0 -51 -32 -109 -92z"/>
<path d="M3194 2921 c-37 -22 -57 -71 -44 -105 11 -30 28 -36 101 -36 51 0 61
3 75 25 21 32 12 69 -26 106 -33 34 -63 36 -106 10z"/>
<path d="M7312 2915 c-36 -30 -48 -79 -27 -112 14 -21 23 -23 90 -23 63 0 76
3 85 19 22 43 5 98 -40 124 -39 24 -74 21 -108 -8z"/>
<path d="M5478 2704 c-29 -15 -58 -61 -58 -91 0 -10 7 -29 16 -41 13 -19 24
-22 88 -22 82 0 106 15 106 64 0 83 -80 130 -152 90z"/>
</g>
</svg>
