<?xml version="1.0" standalone="no"?>
<!DOCTYPE svg PUBLIC "-//W3C//DTD SVG 20010904//EN"
 "http://www.w3.org/TR/2001/REC-SVG-20010904/DTD/svg10.dtd">
<svg version="1.0" xmlns="http://www.w3.org/2000/svg"
 width="1024.000000pt" height="1024.000000pt" viewBox="0 0 1024.000000 1024.000000"
 preserveAspectRatio="xMidYMid meet">
<metadata>
Created by potrace 1.16, written by Peter Selinger 2001-2019
</metadata>
<g transform="translate(0.000000,1024.000000) scale(0.100000,-0.100000)"
fill="#000000" stroke="none">
<path d="M3930 7943 c-8 -4 -102 -84 -210 -179 -353 -312 -494 -435 -600 -527
-186 -163 -220 -197 -220 -228 0 -15 12 -41 26 -58 22 -26 33 -31 69 -31 49 0
29 -16 506 399 129 112 283 246 342 297 61 53 117 94 129 94 31 0 82 -36 111
-77 35 -53 190 -320 223 -385 14 -29 33 -61 42 -70 20 -24 71 -22 102 2 48 37
45 39 227 -152 96 -102 104 -108 141 -108 47 0 33 -11 361 283 162 144 239
207 255 207 26 0 60 -35 357 -375 214 -244 237 -265 287 -265 49 0 92 41 92
88 0 33 -16 54 -122 167 -69 72 -87 108 -67 131 8 9 93 87 189 173 96 86 186
166 200 179 33 30 66 38 96 22 21 -12 190 -321 295 -543 35 -75 77 -117 116
-117 23 0 57 28 101 84 29 37 62 20 172 -89 102 -100 109 -105 149 -105 80 0
126 77 82 138 -10 15 -215 220 -455 455 -396 389 -439 429 -474 434 -25 3 -49
0 -68 -10 -16 -9 -101 -82 -189 -163 -283 -261 -312 -284 -347 -284 -28 0 -52
20 -187 154 -163 160 -186 175 -251 161 -28 -6 -235 -184 -435 -375 -90 -86
-118 -104 -147 -95 -13 4 -192 175 -398 380 -206 205 -385 378 -397 384 -23
12 -78 14 -103 4z"/>
<path d="M3840 7427 c-36 -34 -84 -79 -108 -99 -48 -42 -56 -84 -22 -118 45
-45 80 -27 233 115 75 71 84 99 42 140 -40 41 -71 33 -145 -38z"/>
<path d="M6316 7237 c-51 -48 -56 -71 -25 -111 33 -42 73 -36 126 19 48 51 52
70 22 109 -31 39 -67 35 -123 -17z"/>
<path d="M5310 7122 c-76 -73 -87 -105 -50 -142 39 -39 80 -27 154 43 54 51
66 68 66 94 0 22 -8 38 -26 52 -44 35 -67 27 -144 -47z"/>
<path d="M2477 6729 c-121 -29 -214 -129 -231 -250 -20 -139 79 -280 227 -323
68 -20 126 -58 157 -104 23 -34 25 -49 32 -207 4 -93 7 -442 7 -774 0 -579 0
-605 18 -623 23 -23 11 -22 325 -20 251 2 257 3 282 25 l26 22 2 782 c3 776 3
782 24 810 34 45 100 44 130 -3 15 -23 17 -98 20 -805 l2 -781 22 -23 21 -23
717 -5 c800 -5 770 -3 942 -79 l75 -33 905 -2 c498 -1 939 -2 980 -3 l75 0 -3
-333 -3 -333 24 -22 24 -22 428 2 c397 3 429 4 439 21 9 14 6 26 -12 60 -51
92 -234 430 -307 567 -42 80 -84 153 -93 163 -13 14 -34 17 -139 17 -67 0
-123 2 -123 6 0 3 28 31 62 62 126 117 191 263 191 432 0 195 -92 360 -264
472 l-79 51 0 279 c0 233 3 284 16 309 8 16 58 85 110 152 123 159 139 191
124 249 -16 59 -76 115 -132 123 -24 3 -241 5 -483 3 l-440 -3 -42 -24 c-51
-29 -73 -71 -73 -140 0 -49 3 -55 109 -194 59 -78 116 -157 125 -174 14 -28
16 -74 16 -334 l0 -302 35 -38 35 -39 0 -110 c0 -160 -20 -150 306 -150 180 0
271 4 289 12 18 8 29 25 39 56 l13 45 33 -48 c18 -26 39 -68 46 -93 18 -60 18
-161 -1 -227 -16 -52 -67 -135 -84 -135 -5 0 -8 40 -7 90 1 81 -1 91 -22 112
-22 23 -24 23 -303 23 -266 0 -281 -1 -295 -19 -10 -15 -14 -54 -14 -157 0
-121 -2 -139 -20 -162 -44 -56 -128 -39 -150 29 -8 24 -11 71 -8 132 6 114 -3
155 -38 170 -18 9 -213 12 -715 12 l-690 0 -24 -25 c-24 -23 -25 -29 -25 -154
0 -128 0 -130 -26 -150 -35 -28 -77 -26 -111 3 -28 24 -28 26 -31 153 -3 114
-6 131 -25 151 l-20 22 -574 0 -574 0 -24 25 c-33 32 -33 78 0 110 l24 25 573
0 c503 0 576 2 596 16 20 14 22 23 22 118 0 157 11 150 -244 156 -169 4 -209
8 -216 20 -6 9 -10 179 -10 409 l0 394 49 52 c75 79 96 126 96 215 0 123 -56
214 -163 267 l-57 28 -940 2 c-529 0 -957 -3 -978 -8z m1888 -183 c69 -29 85
-128 29 -187 -15 -15 -54 -37 -87 -49 -59 -19 -82 -20 -853 -20 -777 0 -793 0
-860 21 -95 29 -119 43 -144 84 -40 65 -3 140 77 155 21 4 435 8 921 9 742 1
888 -1 917 -13z m3009 -206 c15 -15 -12 -66 -55 -105 l-39 -35 -236 0 -236 0
-39 38 c-44 45 -60 89 -37 106 19 14 628 10 642 -4z m-4304 -258 c19 -9 45
-32 57 -51 22 -33 23 -41 23 -276 0 -298 12 -277 -156 -276 -94 1 -122 5 -136
18 -16 15 -18 38 -18 252 0 205 2 241 18 271 34 69 137 100 212 62z m749 -8
c20 -25 21 -39 21 -285 0 -318 -9 -299 139 -299 77 0 103 4 115 16 14 13 16
53 16 278 0 251 1 265 21 290 31 39 88 37 123 -5 l26 -31 0 -311 c0 -294 -1
-314 -20 -345 -11 -18 -32 -37 -46 -42 -14 -6 -120 -10 -236 -10 -317 0 -298
-26 -298 406 0 312 0 318 22 341 31 33 90 32 117 -3z m3201 -94 c6 -11 10
-139 10 -309 0 -250 -2 -292 -16 -305 -37 -38 -96 -27 -114 20 -6 14 -10 149
-10 300 l0 276 29 29 c26 26 32 28 60 18 17 -6 36 -19 41 -29z m-3906 -751
c31 -37 33 -77 5 -113 -27 -34 -91 -37 -126 -4 -53 49 -11 148 62 148 25 0 40
-8 59 -31z m4538 -1089 c96 -165 198 -350 198 -360 0 -6 -28 -10 -65 -10 -51
0 -66 4 -74 18 -8 16 -131 445 -131 459 0 13 15 -10 72 -107z m-178 -256 c20
-56 36 -104 36 -107 0 -13 -88 -7 -93 6 -3 7 -2 64 1 127 3 67 8 107 12 95 5
-11 24 -65 44 -121z"/>
<path d="M5303 6000 c-62 -13 -114 -43 -160 -93 -59 -64 -73 -120 -73 -284 l0
-133 307 0 306 0 -7 147 c-8 165 -19 203 -81 271 -67 75 -189 113 -292 92z
m115 -194 c43 -22 65 -52 66 -93 l1 -38 -115 0 -115 0 -3 31 c-2 22 5 40 24
64 43 50 91 62 142 36z"/>
<path d="M2353 5720 l-33 -20 0 -109 c0 -106 1 -110 26 -130 15 -12 41 -21 59
-21 18 0 44 9 59 21 25 20 26 24 26 119 0 115 -3 126 -41 145 -37 20 -58 19
-96 -5z"/>
<path d="M6163 5635 c-46 -20 -53 -42 -53 -159 0 -73 -4 -107 -12 -113 -7 -4
-222 -10 -476 -13 l-464 -5 -24 -28 c-22 -25 -24 -37 -24 -122 0 -150 -84
-135 747 -135 830 0 743 -16 743 140 0 94 -2 103 -25 125 -23 24 -30 25 -138
25 -74 0 -117 4 -125 12 -8 8 -12 48 -12 115 0 117 -11 144 -62 162 -38 13
-36 13 -75 -4z"/>
<path d="M2346 5259 l-26 -20 0 -533 0 -533 -72 -7 c-87 -9 -149 -37 -201 -90
-47 -49 -61 -76 -75 -141 -19 -91 8 -176 80 -245 64 -63 103 -70 381 -70 l239
0 34 34 c42 42 43 69 5 107 l-29 29 -222 0 c-143 0 -229 4 -243 11 -75 39 -75
139 0 178 12 6 40 11 62 11 37 0 41 -2 41 -25 l0 -25 372 0 373 1 -3 -68 c-5
-130 41 -243 147 -355 l63 -68 -847 0 -847 0 -29 -29 c-37 -38 -37 -72 0 -113
l29 -33 3469 -2 c2311 -2 3481 1 3506 8 51 13 76 62 57 109 -26 62 6 60 -830
60 -418 0 -760 3 -760 8 0 4 14 15 30 24 29 17 30 19 30 91 0 40 -3 76 -6 80
-4 3 -21 -5 -38 -18 -115 -88 -268 -87 -361 3 -70 68 -93 160 -60 239 25 59
43 73 92 73 23 0 43 -2 43 -5 0 -2 -7 -20 -16 -39 -32 -65 9 -152 82 -176 44
-15 107 6 146 48 38 41 42 72 14 126 l-24 47 62 -2 61 -3 3 65 c4 88 -8 115
-55 128 -25 7 -331 11 -916 11 l-877 0 -79 39 c-149 76 -58 71 -1425 71
l-1226 0 0 479 0 479 -26 31 c-32 38 -87 43 -128 10z m1039 -1373 c0 -55 4
-70 30 -108 82 -118 259 -116 339 5 25 37 27 49 23 105 l-5 62 54 0 c71 0 89
-25 89 -120 -1 -110 -63 -205 -172 -261 -41 -21 -62 -24 -148 -24 -88 0 -107
3 -157 27 -75 35 -141 104 -167 174 -24 62 -26 96 -10 145 15 45 35 59 84 59
l40 0 0 -64z m821 54 l30 0 -4 -84 c-3 -66 0 -99 16 -153 22 -72 81 -171 126
-212 14 -14 26 -28 26 -33 0 -4 -112 -8 -250 -8 -137 0 -250 1 -250 3 0 1 28
32 63 67 100 105 156 250 142 374 l-7 59 38 -6 c22 -4 53 -7 70 -7z m357 -57
c-3 -58 0 -74 19 -107 37 -63 89 -99 152 -104 66 -5 117 10 162 51 60 52 80
116 60 195 l-8 32 50 0 c32 0 56 -6 65 -15 43 -42 47 -167 9 -241 -28 -55
-108 -129 -167 -156 -42 -19 -67 -23 -150 -23 -85 0 -107 4 -148 23 -128 64
-217 220 -187 331 16 61 40 81 99 81 l48 0 -4 -67z m863 37 c-3 -14 -8 -49
-11 -78 l-7 -53 -57 3 -56 3 -6 60 c-4 33 -10 68 -14 78 -7 17 -2 18 74 15 81
-3 81 -3 77 -28z m344 26 c0 -2 -7 -17 -15 -32 -35 -67 -9 -157 54 -192 65
-37 133 -23 184 37 45 53 45 95 -1 184 -2 4 21 7 51 7 48 0 58 -4 76 -26 44
-56 51 -154 16 -228 -43 -91 -148 -151 -260 -150 -82 1 -127 18 -185 70 -61
55 -84 106 -85 185 0 55 4 72 28 107 27 41 29 42 82 42 30 0 55 -2 55 -4z
m655 -116 c0 -104 3 -120 27 -172 25 -54 125 -166 173 -195 16 -9 -30 -12
-222 -12 -134 -1 -243 1 -243 4 0 2 22 25 49 50 92 86 149 233 136 353 -4 36
-9 71 -12 79 -4 10 7 12 44 10 l48 -2 0 -115z m-933 -271 c23 -29 52 -62 65
-72 12 -10 23 -23 23 -28 0 -5 -93 -9 -225 -9 -124 0 -225 3 -225 6 0 3 17 26
39 52 21 26 46 62 55 79 l16 33 106 -3 105 -4 41 -54z"/>
<path d="M1588 3103 c-33 -5 -68 -46 -68 -80 0 -14 13 -37 29 -54 29 -29 30
-29 156 -29 120 0 127 -1 150 -25 24 -23 25 -30 25 -144 0 -112 2 -122 24
-148 l24 -28 232 0 232 0 29 33 c29 32 29 34 29 150 0 111 1 120 23 140 21 20
34 22 128 22 144 0 146 -2 151 -167 3 -119 4 -123 31 -150 l27 -28 226 0 226
0 29 33 c28 32 29 35 29 141 0 60 3 117 6 126 17 42 45 45 434 45 l371 0 24
-25 c24 -23 25 -30 25 -143 0 -112 1 -121 24 -145 33 -35 61 -39 289 -35 l199
3 29 33 c29 32 29 34 29 152 0 159 1 160 145 160 102 0 107 -1 130 -26 24 -25
25 -33 25 -146 0 -112 1 -120 24 -143 34 -34 73 -38 289 -33 204 5 225 10 246
55 6 13 11 75 11 138 0 111 1 114 26 134 23 18 41 21 130 21 99 0 103 -1 123
-26 18 -23 21 -41 21 -136 0 -125 12 -160 61 -177 46 -16 426 -15 459 2 45 22
62 71 57 167 -7 154 8 170 157 170 138 0 140 -2 146 -169 7 -187 -11 -176 281
-176 l231 0 29 33 c29 32 29 34 29 150 0 111 1 120 23 140 21 20 34 22 124 22
146 0 147 -1 153 -169 7 -188 -12 -176 286 -176 l236 0 29 33 c29 32 29 34 29
150 0 111 1 120 23 140 22 20 34 22 156 22 l133 0 29 29 c16 16 29 37 29 46 0
32 -30 73 -61 84 -23 8 -981 11 -3488 10 -1901 -1 -3468 -4 -3483 -6z"/>
</g>
</svg>
