<?xml version="1.0" standalone="no"?>
<!DOCTYPE svg PUBLIC "-//W3C//DTD SVG 20010904//EN"
 "http://www.w3.org/TR/2001/REC-SVG-20010904/DTD/svg10.dtd">
<svg version="1.0" xmlns="http://www.w3.org/2000/svg"
 width="1024.000000pt" height="1024.000000pt" viewBox="0 0 1024.000000 1024.000000"
 preserveAspectRatio="xMidYMid meet">
<metadata>
Created by potrace 1.16, written by Peter Selinger 2001-2019
</metadata>
<g transform="translate(0.000000,1024.000000) scale(0.100000,-0.100000)"
fill="#000000" stroke="none">
<path d="M3820 8513 c-152 -16 -334 -90 -445 -180 -170 -138 -280 -336 -305
-548 -13 -120 -14 -5055 0 -5175 20 -177 104 -350 236 -489 97 -102 196 -165
334 -213 l95 -33 1378 -3 c1354 -2 1380 -2 1464 18 338 80 574 324 637 660 14
73 16 360 16 2660 l0 2577 -24 95 c-25 97 -65 189 -119 268 -41 59 -141 164
-197 205 -68 50 -200 113 -287 138 l-78 22 -1335 1 c-734 1 -1351 -1 -1370 -3z
m1837 -455 c37 -37 37 -89 0 -126 l-27 -27 -467 -3 c-491 -3 -508 -1 -538 42
-31 43 -10 116 39 136 11 5 234 8 493 7 l473 -2 27 -27z m727 -518 c114 -12
207 -54 293 -134 73 -67 113 -127 145 -216 l23 -65 0 -1755 c0 -1894 2 -1803
-52 -1916 -56 -116 -174 -225 -276 -256 -33 -10 -330 -13 -1377 -13 l-1335 0
-66 31 c-84 40 -186 135 -227 212 -66 124 -63 10 -60 1949 l3 1758 24 64 c68
183 234 318 419 341 83 10 2380 10 2486 0z m-1112 -4680 c76 -29 132 -81 170
-158 29 -59 33 -76 33 -147 -1 -98 -23 -152 -91 -225 -69 -74 -139 -105 -239
-105 -67 0 -89 5 -136 28 -69 34 -132 100 -167 175 -53 115 -26 263 64 354 99
101 231 129 366 78z"/>
<path d="M6070 7352 l0 -59 37 -6 c20 -4 39 -5 42 -3 3 2 6 30 6 62 l0 57 -42
4 -43 4 0 -59z"/>
<path d="M5796 7290 c-30 -36 -28 -41 29 -92 l40 -36 23 24 c12 14 24 29 26
33 3 4 -17 29 -43 55 l-48 47 -27 -31z"/>
<path d="M6348 7266 l-47 -43 32 -30 32 -30 46 48 47 47 -27 26 c-15 14 -29
26 -32 26 -2 -1 -25 -20 -51 -44z"/>
<path d="M4046 7258 c-22 -84 -46 -139 -74 -170 -35 -38 -112 -80 -170 -93
-42 -9 -32 -19 32 -34 111 -27 167 -79 200 -185 10 -31 21 -56 25 -56 4 0 13
25 20 55 22 98 102 173 203 190 48 8 57 23 21 30 -66 15 -120 41 -154 74 -35
35 -79 131 -79 171 0 22 -19 37 -24 18z"/>
<path d="M4604 7183 c-3 -21 -17 -55 -30 -75 -23 -36 -87 -78 -119 -78 -8 0
-15 -7 -15 -15 0 -9 9 -15 25 -15 36 0 99 -34 119 -64 9 -15 19 -40 23 -56 9
-46 21 -45 34 2 14 54 63 101 123 118 25 7 46 16 46 19 0 4 -20 12 -43 18 -56
15 -112 76 -128 138 -14 55 -26 57 -35 8z"/>
<path d="M6054 7200 c-93 -22 -164 -118 -164 -220 0 -90 46 -162 127 -200 94
-44 217 -8 278 81 40 57 47 156 16 216 -27 54 -92 108 -146 122 -49 12 -65 12
-111 1z"/>
<path d="M5068 7027 c-35 -39 -125 -149 -200 -242 -251 -312 -423 -521 -474
-578 l-51 -58 -68 73 -68 72 -40 -45 c-22 -24 -96 -111 -166 -194 -69 -82
-170 -201 -223 -264 l-98 -113 0 -469 0 -469 23 5 c12 3 325 81 695 174 l674
168 -79 48 c-43 26 -132 80 -198 120 -221 133 -390 238 -423 263 -21 16 -66
83 -127 192 -52 92 -97 173 -99 181 -3 8 14 36 38 63 l44 48 39 -58 c22 -33
72 -115 111 -183 51 -88 82 -131 108 -149 40 -27 273 -169 484 -295 74 -44
167 -102 206 -128 l71 -47 119 25 c65 13 138 33 161 43 52 23 79 60 64 88 -12
22 -25 27 -236 97 -129 43 -314 121 -304 128 8 7 475 -22 544 -33 107 -17 255
-58 291 -81 49 -30 92 -84 100 -124 14 -75 -47 -165 -148 -216 -122 -62 -591
-203 -1678 -504 -113 -31 -216 -60 -230 -65 -14 -5 530 -8 1255 -7 l1280 2 53
29 c30 17 62 45 75 65 22 35 22 43 25 427 l3 390 -88 42 c-258 120 -506 231
-567 253 -21 8 -57 30 -80 50 -23 19 -64 53 -92 75 -114 89 -163 129 -160 132
2 1 19 -4 37 -12 19 -9 98 -41 177 -72 165 -65 134 -71 262 53 l75 73 215
-207 215 -208 3 145 3 145 -73 70 c-174 166 -276 264 -322 305 l-48 45 -82
-88 -81 -89 -141 159 c-78 87 -210 237 -294 333 -205 236 -433 488 -442 489
-4 1 -35 -32 -70 -72z m252 -433 c203 -231 380 -437 377 -440 -1 -1 -42 17
-92 41 -433 208 -425 204 -425 190 0 -5 47 -223 110 -510 15 -71 32 -139 36
-150 4 -11 -84 70 -194 179 l-202 199 -106 -139 c-59 -76 -118 -155 -131 -176
l-24 -36 -38 41 c-68 76 -151 181 -151 191 1 6 11 23 23 37 12 14 78 95 147
180 245 304 485 589 496 589 1 0 79 -88 174 -196z"/>
<path d="M5660 6985 l0 -45 64 0 64 0 4 41 c2 22 2 42 -1 45 -2 2 -33 4 -68 4
l-63 0 0 -45z"/>
<path d="M6420 6983 l0 -43 70 0 70 0 0 40 c0 22 -3 40 -7 41 -5 0 -36 2 -70
3 l-63 2 0 -43z"/>
<path d="M4310 6785 c-6 -14 -10 -33 -10 -41 0 -24 -75 -90 -124 -109 l-46
-18 52 -18 c62 -21 109 -68 128 -131 l13 -43 18 55 c21 64 58 100 127 122 l47
15 -45 14 c-61 19 -118 77 -126 129 -8 50 -21 59 -34 25z"/>
<path d="M5811 6759 l-45 -50 32 -32 33 -32 40 43 c22 23 45 42 50 42 5 0 -4
18 -19 40 -15 21 -31 39 -37 39 -5 -1 -30 -23 -54 -50z"/>
<path d="M6326 6774 l-29 -36 48 -44 c25 -24 49 -44 51 -44 2 0 17 15 34 33
l29 32 -47 48 c-25 26 -49 47 -52 47 -3 0 -18 -16 -34 -36z"/>
<path d="M6070 6616 l0 -66 45 0 46 0 -3 63 -3 62 -42 3 -43 3 0 -65z"/>
<path d="M3886 6563 c-3 -3 -6 -15 -6 -25 0 -24 -26 -76 -52 -105 -11 -12 -42
-30 -69 -39 -54 -20 -63 -34 -23 -34 37 0 91 -28 113 -59 10 -14 24 -45 30
-69 15 -53 27 -54 35 -2 9 57 69 114 139 131 l52 13 -41 12 c-72 21 -99 41
-127 92 -15 27 -27 57 -27 65 0 18 -14 30 -24 20z"/>
<path d="M3777 4246 c-51 -19 -75 -42 -88 -85 -6 -23 -9 -148 -7 -343 4 -425
-24 -396 380 -403 326 -5 370 -1 410 44 l28 31 0 341 c0 380 1 373 -71 410
-35 18 -60 19 -326 19 -217 -1 -297 -4 -326 -14z m497 -357 c34 -27 37 -86 5
-115 -19 -17 -40 -19 -184 -22 -158 -3 -163 -3 -188 20 -42 37 -45 72 -9 108
l30 30 160 0 c146 0 161 -2 186 -21z"/>
<path d="M4839 4251 c-99 -31 -99 -30 -99 -416 0 -358 1 -363 60 -399 25 -14
71 -16 359 -16 l330 0 35 35 c25 24 36 47 41 77 3 24 5 179 3 345 l-3 301 -25
27 c-48 53 -65 55 -382 54 -161 0 -305 -4 -319 -8z m415 -174 c79 -45 107
-125 67 -192 l-21 -36 21 -28 c52 -70 22 -177 -61 -218 -94 -48 -247 -21 -291
51 -26 42 -26 96 0 96 10 0 33 3 50 6 25 5 31 3 31 -10 0 -24 59 -56 102 -56
28 0 42 6 57 26 39 49 19 84 -48 84 -30 0 -31 2 -31 44 0 43 0 43 43 52 37 8
42 13 45 39 5 38 -19 55 -79 55 -38 0 -51 -5 -67 -24 -18 -24 -41 -31 -91 -28
-21 2 -23 5 -18 38 3 20 13 47 22 61 41 62 192 85 269 40z"/>
<path d="M5896 4250 c-15 -5 -37 -17 -48 -27 -46 -42 -48 -55 -48 -375 0 -178
4 -318 10 -340 7 -23 24 -48 44 -63 l33 -25 314 0 c297 0 316 1 347 20 19 12
41 38 52 63 18 38 20 68 20 340 0 277 -1 301 -20 336 -13 27 -33 46 -63 60
-41 20 -58 21 -328 20 -156 0 -297 -5 -313 -9z m419 -173 c47 -26 75 -75 75
-130 0 -39 -14 -76 -34 -89 -7 -4 -3 -15 12 -31 65 -69 39 -182 -52 -226 -124
-61 -296 13 -296 126 0 41 23 89 51 103 20 11 19 12 -6 41 -20 24 -25 41 -25
84 0 61 25 100 82 128 50 25 144 22 193 -6z"/>
<path d="M6183 3990 c-18 -7 -23 -17 -23 -43 0 -41 15 -57 55 -57 69 0 87 77
24 99 -18 6 -32 11 -33 10 -1 0 -11 -4 -23 -9z"/>
<path d="M6181 3797 c-41 -21 -48 -42 -25 -74 29 -39 95 -45 118 -11 23 32 20
53 -10 77 -31 24 -49 26 -83 8z"/>
</g>
</svg>
