<?xml version="1.0" standalone="no"?>
<!DOCTYPE svg PUBLIC "-//W3C//DTD SVG 20010904//EN"
 "http://www.w3.org/TR/2001/REC-SVG-20010904/DTD/svg10.dtd">
<svg version="1.0" xmlns="http://www.w3.org/2000/svg"
 width="1024.000000pt" height="1024.000000pt" viewBox="0 0 1024.000000 1024.000000"
 preserveAspectRatio="xMidYMid meet">
<metadata>
Created by potrace 1.16, written by Peter Selinger 2001-2019
</metadata>
<g transform="translate(0.000000,1024.000000) scale(0.100000,-0.100000)"
fill="#000000" stroke="none">
<path d="M7355 9084 c-66 -36 -72 -48 -166 -337 -71 -219 -90 -287 -85 -315
13 -80 115 -156 211 -156 68 0 139 40 154 86 5 18 47 147 92 287 89 279 92
303 45 365 -40 53 -88 78 -159 82 -45 3 -70 0 -92 -12z"/>
<path d="M5058 8660 c-157 -15 -312 -41 -353 -59 -102 -45 -151 -183 -100
-281 23 -44 91 -98 132 -106 22 -4 88 0 158 10 303 42 622 46 839 12 209 -33
513 -127 699 -214 l107 -51 0 -140 0 -141 -410 -2 c-225 -1 -424 -2 -441 -3
-33 -2 -4 26 -625 -588 -160 -158 -299 -287 -308 -287 -25 0 -402 72 -796 152
-190 38 -362 72 -383 75 l-38 6 -237 -235 c-130 -129 -258 -253 -284 -276
l-48 -42 -370 0 -371 0 -179 -171 c-117 -112 -187 -187 -200 -214 -20 -41 -20
-59 -20 -986 l0 -945 26 -52 c26 -53 164 -184 1053 -1002 310 -285 368 -339
702 -651 151 -140 330 -307 399 -370 108 -98 618 -573 975 -908 129 -121 168
-144 246 -145 44 -1 68 6 112 29 57 30 93 65 1022 955 203 196 458 439 565
540 359 339 514 485 685 645 94 88 280 263 415 391 135 127 297 279 360 337
71 66 127 127 145 160 l30 52 3 950 c2 693 0 961 -8 990 -16 54 -56 104 -96
121 -54 23 -125 18 -165 -11 -19 -14 -162 -155 -319 -313 l-285 -287 -3 804
-2 804 -69 81 c-115 135 -273 301 -285 299 -6 -1 -31 -7 -56 -13 -93 -24 -200
9 -264 80 -79 88 -100 205 -55 310 20 46 87 121 120 132 23 9 -44 72 -146 139
-298 197 -730 349 -1145 405 -134 18 -600 27 -732 14z m1132 -1795 c-228 -228
-417 -415 -420 -415 -3 0 -7 170 -9 378 l-3 378 32 37 32 37 391 0 392 0 -415
-415z m1001 243 l104 -63 3 -462 2 -463 -641 0 c-609 0 -641 1 -628 18 33 41
1035 1031 1045 1032 6 0 58 -28 115 -62z m-1812 -880 c0 -268 -3 -489 -7 -492
-5 -3 -98 82 -208 189 l-199 194 -327 1 -327 0 -170 -165 -169 -165 -519 0
c-390 0 -522 -3 -531 -12 -9 -9 -12 -80 -12 -257 l0 -246 -80 -80 -80 -81 176
-164 c97 -91 186 -172 199 -180 17 -12 44 -14 126 -10 l104 5 5 164 5 163 168
163 168 162 140 7 c114 6 144 5 162 -7 12 -8 140 -124 285 -257 l262 -243 0
-208 0 -208 29 -16 c37 -19 409 -342 775 -675 218 -197 279 -250 294 -250 7 0
139 123 293 273 155 149 342 329 416 400 l134 127 849 0 850 0 0 -64 0 -64
-114 -106 -114 -106 -652 0 -651 0 -355 -347 -354 -346 0 -57 0 -58 106 -93
c130 -116 207 -179 216 -179 3 0 171 157 372 350 l365 350 246 0 c136 0 245
-4 243 -9 -1 -4 -217 -217 -478 -471 -261 -255 -536 -523 -611 -598 l-137
-134 -123 104 c-68 57 -190 157 -270 220 -192 153 -182 142 -176 201 l4 48
-171 147 c-232 200 -328 286 -731 657 -60 56 -171 157 -245 225 -74 67 -183
167 -242 222 l-108 99 0 194 0 193 -157 152 c-87 84 -168 157 -181 163 -21 10
-29 4 -87 -53 l-65 -64 0 -182 0 -181 -95 -92 -94 -91 -278 0 -278 0 -205 195
c-113 107 -211 194 -217 195 -10 0 -13 -43 -13 -184 l0 -184 183 -169 c100
-92 196 -180 212 -195 l30 -28 175 0 175 0 125 -115 c69 -64 157 -143 196
-178 l72 -62 3 -163 c3 -126 7 -165 18 -171 8 -5 290 -8 628 -6 l614 3 32 -26
c67 -56 353 -310 371 -331 17 -19 20 -41 24 -166 l4 -144 171 -143 c209 -175
299 -251 361 -303 l47 -41 -125 -122 -125 -123 -198 172 c-109 95 -262 229
-340 298 l-143 126 0 136 0 137 -92 86 -93 86 -615 0 -615 1 -135 123 -135
123 -5 141 -5 142 -83 75 -83 75 -184 0 -184 0 -168 154 c-92 84 -233 214
-313 288 l-145 134 -3 419 -2 418 180 183 180 182 0 244 0 245 112 111 113
112 512 0 512 0 169 165 170 165 428 0 429 0 185 185 185 185 6 -62 c4 -35 7
-282 8 -550z m-675 -465 c383 -353 484 -450 490 -468 3 -11 6 -130 6 -265 0
-178 3 -249 12 -258 9 -9 71 -12 217 -12 l204 0 178 175 177 175 856 0 856 0
223 215 c123 119 233 222 245 231 l22 15 0 -244 0 -244 -165 -162 -165 -161
-850 0 -851 0 -188 -185 -189 -185 -319 0 -319 0 -114 104 c-63 57 -128 117
-143 133 l-28 30 1 241 1 240 -218 205 c-120 113 -235 222 -255 244 l-37 38
114 118 c63 64 118 117 124 117 5 0 57 -44 115 -97z m2596 -158 l0 -115 -765
0 -765 0 0 108 c0 60 3 112 7 115 4 4 348 7 765 7 l758 0 0 -115z"/>
<path d="M7650 8007 c-48 -32 -72 -78 -77 -151 -6 -73 7 -123 44 -167 50 -59
51 -59 418 -59 314 0 338 1 374 20 63 32 86 80 86 177 0 74 -3 85 -30 125 -55
78 -54 78 -441 78 -337 0 -341 0 -374 -23z"/>
</g>
</svg>
