<?xml version="1.0" standalone="no"?>
<!DOCTYPE svg PUBLIC "-//W3C//DTD SVG 20010904//EN"
 "http://www.w3.org/TR/2001/REC-SVG-20010904/DTD/svg10.dtd">
<svg version="1.0" xmlns="http://www.w3.org/2000/svg"
 width="1024.000000pt" height="1024.000000pt" viewBox="0 0 1024.000000 1024.000000"
 preserveAspectRatio="xMidYMid meet">
<metadata>
Created by potrace 1.16, written by Peter Selinger 2001-2019
</metadata>
<g transform="translate(0.000000,1024.000000) scale(0.100000,-0.100000)"
fill="#000000" stroke="none">
<path d="M4490 7940 l0 -50 55 0 55 0 0 50 0 50 -55 0 -55 0 0 -50z"/>
<path d="M5068 7872 l-88 -3 0 -276 0 -276 -37 7 c-21 3 -84 6 -140 6 l-103 0
0 165 0 165 -110 0 -110 0 0 -165 0 -165 -220 0 -220 0 0 -82 c0 -46 3 -100 6
-120 l7 -38 208 0 c115 0 209 -4 209 -9 0 -4 -9 -75 -20 -157 -12 -82 -29
-219 -40 -304 -10 -85 -23 -185 -29 -221 -6 -36 -29 -207 -50 -380 -48 -381
-100 -759 -106 -776 -2 -7 -20 -13 -39 -13 -39 0 -72 -35 -296 -305 -68 -82
-162 -193 -207 -246 l-83 -97 0 -101 0 -101 75 0 75 0 0 -485 0 -485 -120 0
-120 0 0 155 0 155 -110 0 -110 0 0 -155 c0 -131 -2 -155 -15 -155 -13 0 -15
47 -15 364 l0 364 -62 7 c-35 3 -85 4 -112 2 l-49 -4 2 -354 c2 -405 -4 -549
-25 -549 -12 0 -14 43 -14 240 l0 240 -110 0 -110 0 0 -239 c0 -143 -4 -242
-10 -246 -5 -3 -10 31 -12 87 l-3 93 -110 0 -110 0 -3 -86 -3 -86 -93 -6
c-104 -6 -129 -16 -152 -65 -21 -44 -11 -93 26 -135 l28 -32 1831 -3 1832 -2
-3 -128 -3 -127 -188 0 -187 0 0 -117 0 -118 923 3 c1041 2 960 -4 992 81 15
39 15 47 2 79 -9 19 -28 44 -43 54 -27 17 -57 18 -510 15 l-481 -3 -6 94 c-3
52 -4 110 0 130 l6 37 681 0 c665 0 682 1 714 20 45 28 68 82 53 130 -6 20
-22 47 -37 61 -25 23 -31 24 -170 24 l-144 0 0 141 c0 78 -3 156 -6 173 l-6
31 -107 0 -107 0 -2 -172 c-1 -94 -5 -174 -7 -177 -17 -16 -21 57 -25 462 l-5
452 -60 3 c-33 2 -82 1 -110 -3 l-50 -6 3 -347 c3 -357 -5 -557 -23 -557 -6 0
-11 89 -13 243 l-2 242 -110 0 -110 0 0 -240 0 -240 -99 0 -99 0 -11 66 c-7
36 -27 170 -46 298 -19 127 -55 368 -80 536 -25 168 -59 397 -76 510 -16 113
-36 243 -44 290 -8 47 -28 178 -45 290 -75 516 -142 965 -235 1558 -25 161
-45 295 -45 297 0 3 88 5 195 5 l195 0 0 120 0 120 -635 0 -635 0 0 273 0 273
-22 0 c-13 0 -62 -2 -110 -4z m107 -804 c10 -44 75 -520 82 -594 l6 -74 -321
0 -321 0 4 28 c3 15 12 83 20 152 27 241 57 485 61 498 3 9 58 12 233 12 l231
0 5 -22z m660 0 c13 -62 95 -621 95 -653 0 -14 -24 -15 -212 -13 l-212 3 -13
105 c-7 58 -26 200 -43 317 -16 117 -30 224 -30 238 l0 25 205 0 c204 0 205 0
210 -22z m117 -814 c11 -56 12 -77 4 -80 -6 -2 -110 -3 -231 -2 l-220 3 -3 69
c-2 38 -1 74 1 80 3 8 70 10 219 8 l215 -3 15 -75z m85 -460 c12 -88 26 -193
32 -234 6 -41 37 -253 70 -470 33 -217 63 -416 67 -442 l6 -48 -356 0 -356 0
0 673 c0 371 2 676 4 678 2 2 118 3 258 3 l253 -2 22 -158z m-1197 6 c0 -85
-4 -150 -9 -150 -15 0 -271 278 -271 294 0 3 63 6 140 6 l140 0 0 -150z m-221
-236 c45 -47 81 -89 81 -93 0 -9 -186 -217 -213 -240 -22 -18 -22 -17 8 209
14 102 25 191 25 198 0 25 19 10 99 -74z m-54 -835 c123 -166 222 -306 219
-310 -3 -5 -67 -9 -143 -9 l-138 0 -7 38 c-3 20 -6 52 -6 70 0 26 -18 55 -85
140 -47 59 -128 163 -181 232 l-96 125 63 6 c35 3 83 6 107 7 l42 2 225 -301z
m308 234 c134 -167 406 -536 401 -544 -8 -14 -188 -11 -206 4 -9 6 -60 73
-114 147 -97 134 -236 317 -301 396 -18 23 -33 46 -33 53 0 7 31 11 100 11
l99 0 54 -67z m1367 -590 c0 -4 18 -117 40 -252 35 -223 76 -500 113 -778 l14
-103 -154 0 -153 0 -2 78 c-1 42 -2 223 -2 402 l-1 325 -195 3 -195 2 0 -402
0 -403 -102 -3 -103 -3 0 571 0 570 370 0 c204 0 370 -3 370 -7z m-1587 -199
l37 -7 0 -378 0 -379 -95 0 -95 0 0 385 0 385 58 0 c31 0 74 -3 95 -6z m568
-4 l49 0 0 -380 0 -380 -95 0 -95 0 0 386 0 387 46 -7 c26 -3 69 -6 95 -6z"/>
<path d="M4880 6683 l0 -73 75 0 75 0 0 75 0 75 -75 -2 -75 -3 0 -72z"/>
<path d="M5710 5235 l0 -385 84 0 83 0 7 92 c3 50 6 223 6 385 l0 293 -90 0
-90 0 0 -385z"/>
<path d="M5563 7792 l-83 -3 0 -89 0 -90 190 0 190 0 0 89 0 90 -107 3 c-60 2
-145 2 -190 0z"/>
<path d="M3980 7700 l0 -90 105 0 105 0 0 90 0 90 -105 0 -105 0 0 -90z"/>
<path d="M6160 7685 l0 -75 80 0 81 0 -3 75 -3 75 -77 0 -78 0 0 -75z"/>
<path d="M3560 7240 l0 -50 59 0 59 0 4 50 3 50 -62 0 -63 0 0 -50z"/>
<path d="M6740 7136 l0 -75 75 1 75 1 0 73 0 74 -75 0 -75 0 0 -74z"/>
<path d="M7350 6955 c0 -33 2 -35 35 -35 33 0 35 2 35 35 0 33 -2 35 -35 35
-33 0 -35 -2 -35 -35z"/>
<path d="M3600 6885 l0 -75 75 0 75 0 0 75 0 75 -75 0 -75 0 0 -75z"/>
<path d="M2900 6905 c0 -35 1 -36 33 -33 28 3 32 6 32 33 0 27 -4 30 -32 33
-32 3 -33 2 -33 -33z"/>
<path d="M3190 6860 l0 -80 70 0 70 0 0 80 0 80 -70 0 -70 0 0 -80z"/>
<path d="M6510 6825 l0 -65 70 0 70 0 0 65 0 65 -70 0 -70 0 0 -65z"/>
<path d="M6920 6735 l0 -75 75 0 75 0 0 75 0 75 -75 0 -75 0 0 -75z"/>
<path d="M4000 6691 c0 -32 3 -73 6 -90 l7 -31 83 0 84 0 0 90 0 90 -90 0 -90
0 0 -59z"/>
<path d="M2730 6710 c0 -27 3 -30 30 -30 27 0 30 3 30 30 0 27 -3 30 -30 30
-27 0 -30 -3 -30 -30z"/>
<path d="M3600 6524 l0 -76 77 4 76 3 1 72 1 73 -77 0 -78 0 0 -76z"/>
<path d="M3194 6511 c-2 -2 -4 -35 -4 -73 l0 -68 75 0 75 0 0 73 0 72 -71 0
c-39 0 -73 -2 -75 -4z"/>
<path d="M6462 6413 l3 -108 100 0 100 0 3 108 3 107 -106 0 -106 0 3 -107z"/>
<path d="M6920 6364 l0 -74 75 0 75 0 0 75 0 75 -75 -1 -75 -1 0 -74z"/>
<path d="M4000 6270 l0 -70 74 0 74 0 -1 70 -2 70 -72 0 -73 0 0 -70z"/>
<path d="M7410 6205 c0 -33 2 -35 35 -35 33 0 35 2 35 35 0 33 -2 35 -35 35
-33 0 -35 -2 -35 -35z"/>
<path d="M3590 6060 l0 -170 90 0 90 0 0 170 0 170 -90 0 -90 0 0 -170z"/>
<path d="M2820 6145 c0 -32 2 -35 30 -35 23 0 30 5 30 19 0 11 3 26 6 35 5 13
-1 16 -30 16 -34 0 -36 -1 -36 -35z"/>
<path d="M3190 6077 c0 -35 2 -66 4 -68 2 -2 36 -3 75 -1 l71 4 0 64 0 64 -75
0 -75 0 0 -63z"/>
<path d="M6904 6048 c3 -13 6 -60 6 -105 l0 -83 85 0 85 0 0 83 c0 45 3 92 6
105 6 22 5 22 -91 22 -96 0 -97 0 -91 -22z"/>
<path d="M6510 6018 c0 -18 3 -50 6 -70 l7 -38 68 0 69 0 0 70 0 70 -75 0 -75
0 0 -32z"/>
<path d="M7530 5835 c0 -32 2 -35 30 -35 28 0 30 3 30 35 0 32 -2 35 -30 35
-28 0 -30 -3 -30 -35z"/>
<path d="M3190 5640 l0 -120 94 0 94 0 6 43 c3 23 4 76 1 117 l-4 75 -96 3
-95 3 0 -121z"/>
<path d="M2800 5621 l0 -59 33 4 c17 1 44 3 60 3 26 1 27 3 27 56 l0 55 -60 0
-60 0 0 -59z"/>
<path d="M6540 5572 l0 -94 88 5 c99 5 88 -10 84 116 l-2 60 -85 3 -85 3 0
-93z"/>
<path d="M3870 5572 l0 -88 88 3 87 2 3 86 3 85 -91 0 -90 0 0 -88z"/>
<path d="M6970 5562 l0 -69 38 3 c20 1 52 2 70 3 l32 1 0 65 0 65 -70 0 -70 0
0 -68z"/>
<path d="M7516 5444 c-15 -39 -7 -54 29 -54 33 0 35 2 35 35 0 32 -3 35 -29
35 -17 0 -31 -6 -35 -16z"/>
<path d="M3590 5233 l0 -83 75 0 75 0 0 79 0 79 -75 4 -75 3 0 -82z"/>
<path d="M3162 5214 l3 -67 73 -1 72 -1 0 68 0 67 -75 0 -76 0 3 -66z"/>
<path d="M6908 5269 c-27 -15 -23 -57 7 -71 18 -8 28 -8 39 1 21 18 26 50 9
66 -17 17 -31 18 -55 4z"/>
<path d="M2757 5263 c-3 -4 -3 -20 0 -36 5 -23 10 -27 40 -27 33 0 34 2 31 33
-3 28 -7 32 -35 35 -17 2 -33 -1 -36 -5z"/>
<path d="M7068 5203 l3 -68 70 3 69 4 0 64 0 64 -72 0 -73 0 3 -67z"/>
<path d="M6610 5040 l0 -80 75 0 75 0 0 80 0 80 -75 0 -75 0 0 -80z"/>
<path d="M3182 5028 c-24 -24 -8 -78 24 -78 20 0 44 30 44 55 0 32 -44 47 -68
23z"/>
<path d="M7053 4840 l2 -80 78 0 77 0 0 80 0 80 -80 0 -80 0 3 -80z"/>
<path d="M3190 4715 c-5 0 -3 -181 3 -182 4 -2 43 -3 87 -3 l80 0 0 93 0 92
-85 0 c-47 0 -85 0 -85 0z"/>
<path d="M6690 4611 l0 -90 90 2 90 2 0 88 0 87 -90 0 -90 0 0 -89z"/>
<path d="M2900 4456 c0 -35 1 -36 36 -36 34 0 35 1 32 33 -3 28 -7 32 -35 35
-32 3 -33 2 -33 -32z"/>
<path d="M6760 4120 l0 -70 65 0 65 0 0 70 0 70 -65 0 -65 0 0 -70z"/>
<path d="M4050 2696 l0 -173 38 -7 c20 -3 324 -6 675 -6 l637 0 2 58 c1 31 2
83 3 115 l1 57 -411 0 c-225 0 -434 3 -462 6 l-53 7 0 58 0 59 -215 0 -215 0
0 -174z"/>
<path d="M2917 2740 c-172 -5 -180 -6 -198 -28 -44 -55 -31 -141 28 -179 24
-16 57 -18 291 -21 l264 -3 -3 108 c-1 59 -6 114 -12 121 -10 13 -30 13 -370
2z"/>
<path d="M3484 2633 c3 -60 5 -112 6 -116 0 -5 79 -7 175 -6 l175 2 0 114 0
113 -181 0 -181 0 6 -107z"/>
</g>
</svg>
