<?xml version="1.0" standalone="no"?>
<!DOCTYPE svg PUBLIC "-//W3C//DTD SVG 20010904//EN"
 "http://www.w3.org/TR/2001/REC-SVG-20010904/DTD/svg10.dtd">
<svg version="1.0" xmlns="http://www.w3.org/2000/svg"
 width="1024.000000pt" height="1024.000000pt" viewBox="0 0 1024.000000 1024.000000"
 preserveAspectRatio="xMidYMid meet">
<metadata>
Created by potrace 1.16, written by Peter Selinger 2001-2019
</metadata>
<g transform="translate(0.000000,1024.000000) scale(0.100000,-0.100000)"
fill="#000000" stroke="none">
<path d="M0 5120 l0 -5120 5120 0 5120 0 0 5120 0 5120 -5120 0 -5120 0 0
-5120z m5563 4385 c968 -103 1821 -480 2552 -1126 588 -520 1018 -1165 1275
-1916 159 -461 230 -910 230 -1443 0 -274 -18 -501 -59 -760 -35 -217 -39
-238 -91 -423 -176 -637 -463 -1186 -877 -1681 -108 -128 -377 -394 -513 -507
-307 -254 -520 -394 -861 -565 -528 -264 -1031 -410 -1651 -481 -218 -25 -708
-25 -903 0 -360 46 -741 129 -1010 219 -677 228 -1290 599 -1768 1072 -601
594 -1028 1396 -1197 2244 -63 317 -85 594 -77 977 6 295 20 452 62 706 32
192 37 217 91 414 114 416 274 769 540 1192 193 307 347 497 623 773 252 251
440 405 721 588 679 444 1390 678 2230 736 111 8 549 -4 683 -19z"/>
<path d="M4895 8153 c-549 -47 -1063 -226 -1508 -523 -181 -121 -250 -175
-406 -315 -517 -463 -877 -1152 -966 -1852 -28 -226 -36 -414 -25 -592 33
-497 118 -827 313 -1218 114 -228 199 -360 360 -562 327 -406 770 -734 1261
-932 161 -65 156 -68 156 115 0 169 8 156 -145 236 -125 66 -282 168 -291 189
-3 9 -9 61 -11 116 -10 204 60 359 238 531 92 87 155 134 289 212 185 108 491
220 805 296 474 113 567 137 635 161 105 38 184 80 229 120 l38 35 181 0 180
0 6 -26 c24 -94 -119 -214 -349 -292 -49 -17 -240 -70 -423 -117 -385 -98
-507 -133 -650 -187 -204 -76 -348 -165 -460 -282 -125 -131 -172 -241 -172
-400 0 -159 32 -244 178 -469 96 -148 139 -245 149 -337 3 -32 9 -64 13 -70
20 -33 478 -65 718 -50 168 11 301 26 311 36 3 3 5 53 5 112 0 84 -5 123 -23
182 -50 161 -91 221 -298 431 -131 135 -169 179 -193 230 -80 169 -6 326 207
436 139 72 246 110 609 213 457 131 592 185 695 278 95 85 128 180 100 279 -9
32 -9 32 22 27 259 -46 497 -136 676 -257 68 -46 75 -48 87 -32 41 56 175 412
190 504 l7 41 -222 0 -221 0 0 165 c0 132 3 165 13 165 16 0 88 -49 130 -88
26 -25 32 -26 134 -24 98 1 110 3 125 23 37 45 21 79 -112 234 -42 50 -85 102
-95 118 l-17 27 85 0 c65 0 89 4 102 16 20 20 17 25 -125 198 -58 71 -113 141
-123 157 l-19 29 91 0 c142 0 142 0 -40 227 -83 103 -169 214 -190 245 -21 31
-48 59 -58 63 -35 11 -39 6 -220 -229 -30 -39 -89 -113 -133 -164 -43 -51 -78
-99 -78 -107 0 -23 21 -30 113 -35 l89 -5 -38 -50 c-21 -27 -85 -106 -141
-174 -57 -68 -103 -130 -103 -136 0 -25 28 -34 113 -37 l87 -3 -48 -61 c-26
-34 -80 -103 -119 -154 -77 -97 -85 -122 -54 -161 17 -21 26 -23 122 -23 l104
-1 50 41 c44 37 104 74 120 74 3 0 5 -74 5 -165 l0 -165 -520 0 -520 0 0 165
c0 91 4 165 9 165 13 0 82 -48 119 -83 l32 -31 108 1 c102 2 108 4 130 28 12
14 22 34 22 43 -1 20 -56 96 -168 229 l-83 98 95 3 c80 2 97 6 105 21 12 22 6
32 -133 198 -60 72 -117 144 -127 159 l-18 29 88 -3 c72 -3 90 0 101 13 18 22
16 25 -141 217 -69 84 -151 188 -183 231 -36 49 -64 77 -76 77 -10 0 -32 -17
-47 -37 -71 -96 -214 -277 -285 -361 -107 -127 -104 -142 29 -142 46 0 83 -3
83 -7 0 -5 -63 -84 -140 -176 -77 -92 -140 -173 -140 -180 0 -29 25 -37 112
-37 48 0 88 -3 88 -8 0 -4 -50 -68 -111 -142 -125 -151 -135 -170 -117 -208
21 -42 53 -53 145 -49 71 3 86 7 115 30 51 42 101 74 126 82 l22 6 0 -165 0
-166 -282 0 -281 0 -106 60 c-267 150 -530 247 -782 289 -211 35 -504 31 -710
-9 -224 -45 -474 -128 -619 -206 -179 -97 -290 -169 -290 -190 0 -41 76 -247
147 -395 l45 -97 107 72 c300 202 594 299 943 313 234 9 533 -29 713 -90 l70
-25 -40 -6 c-533 -93 -853 -202 -1165 -398 -172 -108 -351 -267 -439 -390 -18
-26 -38 -44 -45 -42 -38 17 -219 286 -308 459 -208 405 -302 802 -302 1270 0
499 135 985 391 1410 302 502 714 872 1242 1116 316 146 616 223 971 250 498
37 1062 -91 1513 -343 240 -134 403 -255 596 -443 683 -663 974 -1579 802
-2516 -62 -335 -183 -647 -362 -930 -69 -111 -179 -269 -186 -269 -2 0 -41 20
-86 45 -178 96 -337 129 -617 130 -203 0 -268 -8 -445 -51 -176 -44 -265 -97
-265 -159 0 -34 25 -63 70 -82 14 -6 109 -25 210 -43 299 -52 473 -120 594
-232 36 -33 66 -66 66 -73 0 -10 -85 -70 -185 -130 -17 -11 -28 -6 -81 35
-136 104 -254 149 -526 199 -254 47 -334 82 -384 166 -18 32 -24 56 -24 103 0
73 0 73 -97 33 -243 -100 -308 -225 -176 -341 39 -34 142 -86 319 -159 147
-61 220 -107 304 -191 110 -110 159 -219 160 -356 0 -107 19 -108 250 -10 585
249 1109 706 1432 1251 384 648 518 1454 367 2205 -86 425 -279 867 -532 1215
-479 658 -1239 1126 -2038 1254 -214 35 -541 50 -724 34z"/>
<path d="M5513 7419 c-42 -12 -90 -61 -104 -108 -9 -30 -8 -44 5 -75 9 -21 16
-40 16 -43 0 -2 -48 -1 -107 2 -60 3 -208 2 -330 -2 l-222 -8 -30 -29 c-78
-74 -49 -200 51 -226 29 -8 232 -11 677 -8 707 4 679 1 721 71 37 61 15 136
-52 177 -29 18 -51 20 -194 20 l-162 0 -6 44 c-4 24 -21 67 -39 96 -51 85
-130 116 -224 89z"/>
<path d="M3760 7014 c-182 -48 -312 -183 -349 -362 -67 -319 201 -607 523
-562 349 49 527 434 338 726 -113 174 -313 251 -512 198z"/>
<path d="M6237 6397 l-278 -272 212 -265 c243 -304 239 -300 248 -343 l7 -32
22 45 c27 55 471 611 512 642 l30 22 -233 235 c-127 130 -234 237 -237 238 -3
1 -130 -120 -283 -270z"/>
<path d="M4808 6393 c-113 -109 -311 -300 -441 -425 l-234 -228 -81 82 -80 82
-233 -227 -232 -227 -181 177 c-100 97 -208 203 -240 235 l-60 59 -242 -243
-242 -243 -6 -263 c-5 -209 -4 -263 6 -266 154 -41 332 -119 442 -194 l60 -41
135 129 c75 70 282 270 461 443 l325 315 100 -97 c214 -207 562 -540 608 -581
l47 -43 63 59 c34 32 151 145 261 252 l198 193 -26 48 c-19 36 -26 63 -26 102
1 85 -16 59 300 446 l85 104 -275 274 c-152 151 -278 275 -281 275 -2 0 -97
-89 -211 -197z"/>
<path d="M7316 6052 c-8 -14 290 -399 301 -388 3 3 -38 207 -43 214 -1 2 -12
-2 -24 -8 -20 -11 -30 -3 -122 89 -54 56 -101 101 -103 101 -2 0 -6 -4 -9 -8z"/>
</g>
</svg>
