<?xml version="1.0" standalone="no"?>
<!DOCTYPE svg PUBLIC "-//W3C//DTD SVG 20010904//EN"
 "http://www.w3.org/TR/2001/REC-SVG-20010904/DTD/svg10.dtd">
<svg version="1.0" xmlns="http://www.w3.org/2000/svg"
 width="1024.000000pt" height="1024.000000pt" viewBox="0 0 1024.000000 1024.000000"
 preserveAspectRatio="xMidYMid meet">
<metadata>
Created by potrace 1.16, written by Peter Selinger 2001-2019
</metadata>
<g transform="translate(0.000000,1024.000000) scale(0.100000,-0.100000)"
fill="#000000" stroke="none">
<path d="M2737 8628 c-200 -18 -397 -195 -452 -403 -12 -48 -15 -129 -15 -422
0 -387 3 -418 48 -442 27 -14 327 -15 353 -1 28 16 49 63 49 115 0 38 -5 52
-29 76 -27 27 -35 29 -101 29 l-71 0 3 293 c3 273 4 295 24 337 26 55 81 113
137 143 l42 22 2395 0 2395 0 40 -22 c51 -27 107 -86 137 -143 22 -44 23 -53
26 -337 l3 -293 -65 0 c-108 0 -141 -29 -141 -122 0 -43 4 -53 33 -79 l32 -29
155 0 c167 0 192 6 218 50 15 25 17 71 17 402 0 415 -2 429 -66 545 -68 123
-181 220 -313 267 -56 21 -66 21 -2416 21 -1298 0 -2395 -3 -2438 -7z"/>
<path d="M3000 8122 c-22 -12 -44 -35 -57 -62 l-23 -44 0 -2581 0 -2581 23
-44 c12 -25 36 -52 52 -62 29 -16 151 -18 2117 -18 2319 -1 2118 -7 2175 67
l28 36 0 2606 0 2606 -23 33 c-48 67 132 62 -2169 62 -2002 0 -2090 -1 -2123
-18z m3951 -334 c0 -7 1 -1067 3 -2356 3 -2253 3 -2343 -15 -2352 -11 -6 -214
-10 -518 -10 l-501 0 -2 1728 -3 1727 -24 42 c-14 24 -42 55 -64 70 l-40 28
-1249 3 -1248 2 0 565 0 565 1830 0 c1457 0 1830 -3 1831 -12z m-1271 -1988
l0 -640 -1195 0 -1195 0 0 640 0 640 1195 0 1195 0 0 -640z m0 -1079 c0 -208
0 -209 -22 -215 -13 -3 -551 -6 -1195 -6 l-1173 0 0 215 0 215 1195 0 1195 0
0 -209z m0 -661 l0 -210 -1195 0 -1195 0 0 210 0 210 1195 0 1195 0 0 -210z
m-2 -717 l-3 -268 -1192 -3 -1193 -2 0 270 0 270 1195 0 1195 0 -2 -267z"/>
<path d="M3553 7561 c-70 -32 -77 -57 -81 -270 -2 -102 -1 -214 3 -250 6 -58
11 -70 45 -103 l38 -38 907 0 c992 0 945 -3 990 58 19 25 20 43 20 279 0 239
-1 253 -21 280 -11 15 -36 36 -55 45 -32 17 -96 18 -919 18 -848 0 -887 -1
-927 -19z m1707 -326 l0 -115 -780 0 -780 0 0 115 0 115 780 0 780 0 0 -115z"/>
<path d="M3710 7328 c1 -49 8 -53 89 -52 43 1 83 4 90 8 6 4 11 3 11 -2 0 -5
19 -7 43 -5 69 6 185 5 196 -1 5 -4 12 -2 15 2 3 5 16 7 29 5 31 -6 45 24 20
43 -20 16 -74 15 -85 -1 -5 -6 -8 -6 -8 2 0 8 -54 12 -200 13 -157 0 -200 -2
-200 -12z"/>
<path d="M4224 7328 c13 -10 15 -17 8 -22 -23 -14 -11 -22 31 -20 55 1 77 11
70 32 -4 14 -3 14 5 3 6 -8 8 -19 6 -26 -3 -6 2 -12 10 -12 21 0 27 34 7 42
-36 15 -63 16 -55 3 5 -8 1 -7 -11 2 -15 12 -17 12 -10 1 6 -11 3 -13 -16 -9
-13 3 -33 9 -44 13 -19 7 -19 7 -1 -7z"/>
<path d="M4385 7315 c0 -12 6 -28 13 -34 8 -8 12 -8 12 -1 0 7 8 9 19 5 11 -3
23 0 27 6 5 9 2 10 -10 6 -14 -5 -17 -3 -12 8 3 8 1 16 -4 16 -20 3 -25 4 -35
11 -6 3 -10 -4 -10 -17z"/>
<path d="M4455 7313 l17 -29 231 -1 c204 -1 233 1 244 16 10 14 11 13 6 -7 -5
-21 -3 -22 20 -13 18 7 28 7 33 0 4 -6 11 -6 20 2 11 9 14 9 14 -1 0 -10 3
-10 15 0 10 9 15 9 15 1 0 -14 136 -15 145 -1 3 6 12 10 18 10 7 0 6 -4 -3
-10 -13 -8 -13 -10 2 -10 13 0 17 8 16 35 -1 28 -4 33 -15 24 -10 -9 -13 -8
-13 2 0 11 -2 11 -10 -1 -5 -8 -10 -10 -10 -4 0 7 -21 12 -50 13 -38 0 -49 -3
-44 -12 5 -9 4 -9 -7 1 -7 6 -25 12 -40 12 -15 0 -30 -6 -32 -12 -4 -10 -6
-10 -6 0 -1 6 -6 12 -12 12 -5 0 -7 -6 -3 -12 5 -9 2 -9 -9 1 -14 11 -20 11
-34 0 -9 -8 -14 -9 -10 -3 5 8 -10 11 -48 10 -30 0 -55 -5 -55 -9 0 -4 -9 -3
-20 3 -15 8 -20 8 -20 -2 0 -10 -2 -10 -9 0 -9 14 -32 13 -43 -3 -5 -7 -11 -7
-15 0 -10 12 -83 13 -102 1 -9 -6 -12 -5 -7 2 4 6 -1 10 -13 9 -11 0 -17 -5
-15 -9 7 -11 -9 -10 -40 2 -18 7 -26 6 -26 -1 0 -7 -9 -9 -21 -6 -12 3 -22 0
-26 -9 -3 -8 -9 -14 -15 -14 -5 0 -7 4 -4 8 2 4 -4 14 -16 21 -20 12 -20 12
-3 -16z m213 -8 c-3 -3 -9 2 -12 12 -6 14 -5 15 5 6 7 -7 10 -15 7 -18z m465
12 c3 -8 -1 -14 -8 -14 -7 0 -11 6 -8 14 3 7 6 13 8 13 2 0 5 -6 8 -13z m-618
-7 c3 -5 1 -10 -4 -10 -6 0 -11 5 -11 10 0 6 2 10 4 10 3 0 8 -4 11 -10z m65
-7 c0 -3 -6 -3 -14 0 -7 3 -20 0 -27 -6 -11 -10 -11 -9 0 5 11 15 41 15 41 1z"/>
<path d="M5732 7560 c-18 -11 -37 -32 -43 -47 -6 -16 -9 -130 -7 -296 l3 -269
33 -29 c51 -46 123 -34 171 27 20 26 21 38 21 286 0 285 -3 304 -60 333 -40
20 -79 19 -118 -5z"/>
<path d="M6184 7416 c-43 -19 -64 -53 -64 -104 0 -37 6 -50 34 -78 28 -28 42
-34 76 -34 34 0 48 6 76 34 28 28 34 41 34 78 0 50 -18 82 -60 103 -35 18 -55
18 -96 1z"/>
<path d="M6610 7423 c-8 -3 -27 -17 -42 -31 -72 -67 -25 -192 73 -192 46 0
104 45 114 89 7 34 -13 88 -42 114 -22 19 -78 30 -103 20z"/>
<path d="M6175 7008 c-38 -21 -55 -51 -55 -101 0 -42 5 -54 34 -83 40 -40 81
-45 131 -14 65 40 72 131 15 183 -33 29 -87 36 -125 15z"/>
<path d="M6580 6998 c-110 -75 -9 -254 109 -194 38 20 62 55 63 95 3 99 -91
153 -172 99z"/>
<path d="M6402 6247 c-49 -18 -100 -63 -123 -109 -32 -62 -23 -141 26 -238 48
-97 111 -206 142 -248 l25 -33 25 23 c31 29 124 187 169 285 24 53 34 89 34
124 0 145 -156 247 -298 196z"/>
<path d="M6400 5571 c0 -6 4 -13 10 -16 6 -3 7 1 4 9 -7 18 -14 21 -14 7z"/>
<path d="M6249 5151 c-46 -15 -69 -31 -86 -64 -16 -29 -18 -67 -18 -382 0
-483 -20 -455 330 -455 266 0 280 4 316 85 19 43 20 64 17 383 -4 464 16 436
-313 439 -121 1 -232 -2 -246 -6z m341 -286 l0 -75 -115 0 -115 0 0 68 c0 38
3 71 6 74 3 3 54 6 115 7 l109 1 0 -75z m0 -339 c0 -36 -4 -67 -9 -70 -5 -3
-57 -3 -115 1 l-106 6 0 64 0 63 115 0 115 0 0 -64z"/>
<path d="M6427 3808 c-87 -23 -141 -118 -118 -208 34 -126 164 -177 272 -105
41 26 79 95 79 141 -1 72 -65 153 -138 174 -42 11 -44 11 -95 -2z"/>
<path d="M4625 6221 c-104 -26 -109 -43 -113 -340 -4 -282 2 -313 66 -353 37
-23 38 -23 422 -23 428 0 418 -2 460 68 18 30 20 52 20 287 0 286 -4 306 -70
345 -33 19 -53 20 -395 22 -198 1 -373 -2 -390 -6z m635 -356 l0 -135 -259 0
-259 0 -7 124 c-4 69 -4 130 0 135 4 7 93 11 266 11 l259 0 0 -135z"/>
<path d="M3576 6020 c-60 -18 -103 -92 -92 -155 9 -48 59 -103 101 -111 107
-20 198 100 148 195 -32 60 -96 89 -157 71z"/>
<path d="M2335 6951 c-11 -5 -29 -19 -40 -31 -20 -22 -20 -36 -20 -2144 0
-2063 1 -2123 19 -2179 41 -124 164 -269 275 -323 37 -18 39 -21 44 -79 3 -33
4 -73 2 -90 -2 -16 -4 -87 -4 -157 l-1 -127 -259 -3 c-245 -3 -261 -4 -288
-24 -66 -49 -62 -162 7 -197 33 -16 112 -17 1327 -15 l1292 3 30 29 c16 15 32
39 35 52 10 39 -11 100 -45 128 l-31 26 -514 0 -514 0 0 210 0 210 1470 0
1470 0 0 -210 0 -209 -514 -3 c-506 -3 -515 -3 -543 -24 -68 -51 -64 -161 7
-196 33 -17 116 -18 1311 -18 908 0 1285 3 1308 11 81 28 82 172 1 214 -24 12
-76 15 -282 15 l-253 0 0 163 c0 89 1 187 3 217 l3 55 62 35 c125 71 227 201
262 335 23 89 22 501 -1 534 -28 40 -73 51 -206 51 -196 0 -232 -20 -232 -128
0 -49 3 -57 32 -83 29 -26 39 -29 102 -29 l70 0 0 -118 c0 -76 -5 -136 -15
-169 -18 -60 -80 -135 -139 -166 l-41 -22 -2405 0 -2405 0 -46 27 c-53 31 -90
71 -122 132 -18 35 -22 61 -25 179 l-4 137 55 0 c107 0 147 34 147 124 0 36
-6 52 -29 78 -26 30 -35 33 -100 36 l-71 4 0 204 0 204 55 0 c70 0 112 21 131
65 19 45 20 660 1 715 -15 45 -64 70 -135 70 l-52 0 2 243 3 242 66 5 c121 9
132 35 127 312 l-3 198 -27 27 c-24 23 -38 28 -98 31 l-70 4 0 252 0 251 65 0
c60 0 68 3 97 33 l33 32 0 388 c0 436 2 425 -76 456 -43 17 -266 22 -304 7z
m1058 -4971 c1 -41 -1 -76 -5 -77 -5 -2 -123 -3 -263 -3 l-255 0 0 74 0 75 48
4 c26 2 143 3 260 3 l214 -1 1 -75z m3920 73 l67 -6 -2 -73 -2 -74 -45 -1
c-25 -1 -145 0 -266 0 l-220 1 -3 75 -3 74 43 4 c76 7 361 7 431 0z"/>
<path d="M7570 6942 c-46 -23 -67 -80 -50 -141 15 -58 47 -76 132 -75 l68 0 0
-262 0 -262 -71 -4 c-65 -3 -74 -6 -100 -36 l-29 -32 0 -161 c0 -91 4 -169 10
-180 19 -35 68 -52 132 -46 l58 5 0 -283 0 -283 -39 5 c-57 8 -110 -5 -137
-32 l-24 -24 0 -286 0 -287 28 -28 c30 -29 110 -48 151 -35 21 6 21 4 21 -254
l0 -261 -42 6 c-55 7 -115 -13 -141 -47 -16 -23 -19 -43 -19 -145 l1 -119 31
-27 c30 -28 30 -28 185 -28 98 0 164 4 180 12 58 26 55 -72 55 1658 0 1730 3
1632 -55 1658 -16 8 -79 12 -168 12 -115 0 -149 -3 -177 -18z"/>
</g>
</svg>
