<?xml version="1.0" standalone="no"?>
<!DOCTYPE svg PUBLIC "-//W3C//DTD SVG 20010904//EN"
 "http://www.w3.org/TR/2001/REC-SVG-20010904/DTD/svg10.dtd">
<svg version="1.0" xmlns="http://www.w3.org/2000/svg"
 width="1024.000000pt" height="1024.000000pt" viewBox="0 0 1024.000000 1024.000000"
 preserveAspectRatio="xMidYMid meet">
<metadata>
Created by potrace 1.16, written by Peter Selinger 2001-2019
</metadata>
<g transform="translate(0.000000,1024.000000) scale(0.100000,-0.100000)"
fill="#000000" stroke="none">
<path d="M3198 7970 c-363 -66 -649 -259 -829 -560 -83 -138 -125 -250 -156
-410 -17 -90 -18 -201 -18 -2015 l0 -1920 32 -117 c129 -478 486 -810 948
-883 136 -21 3734 -20 3875 1 120 19 262 62 365 112 317 155 552 491 616 882
15 95 15 3775 -1 3888 -12 87 -55 246 -88 323 -28 63 -104 191 -156 257 -181
236 -433 385 -747 442 -103 18 -171 19 -1925 18 -1689 -1 -1826 -2 -1916 -18z
m3521 -595 c60 -21 123 -67 155 -114 16 -23 34 -41 41 -41 19 0 153 -94 222
-155 107 -96 207 -243 263 -387 50 -128 62 -204 66 -418 6 -231 2 -245 -58
-268 -33 -13 -41 -12 -74 4 -65 33 -74 64 -74 255 0 200 -16 275 -89 424 -39
79 -67 119 -131 188 -45 48 -86 87 -91 87 -5 0 -9 -177 -9 -427 l0 -426 265
-267 265 -268 0 -336 0 -337 -25 -24 c-40 -41 -137 -27 -165 24 -6 12 -10 128
-10 302 l0 283 -162 161 -163 160 -6 -145 c-7 -157 -18 -200 -68 -274 -65 -94
-155 -145 -275 -156 -45 -4 -236 -7 -426 -8 -190 -1 -379 -2 -420 -2 l-75 0 2
-382 c1 -211 2 -528 2 -705 l1 -323 289 0 c344 0 364 -4 494 -98 45 -32 101
-69 125 -81 63 -32 186 -61 258 -61 90 0 158 -16 249 -60 175 -84 321 -246
360 -399 15 -57 15 -69 1 -138 -18 -91 -52 -150 -125 -223 -104 -104 -80 -100
-613 -100 -826 -1 -753 -3 -783 23 -28 24 -42 79 -31 122 13 51 56 65 202 65
82 0 148 5 177 14 193 58 298 310 209 500 -54 115 -165 206 -267 220 -22 3
-268 5 -546 6 l-506 0 -26 24 c-35 32 -45 90 -23 130 27 50 42 55 195 57 l141
2 1 676 c0 372 0 1023 -1 1447 -1 547 2 783 10 813 8 29 20 48 43 62 29 18 46
20 192 17 150 -3 163 -5 215 -30 72 -35 136 -99 169 -168 35 -75 37 -191 3
-265 -29 -63 -93 -129 -157 -162 -44 -23 -63 -26 -152 -27 -84 -1 -103 -4
-104 -16 -3 -51 2 -234 8 -243 10 -17 219 -1 293 22 181 57 324 220 365 416
27 129 15 230 -42 359 -98 217 -339 365 -598 365 -278 1 -527 -191 -614 -474
l-25 -80 -3 -770 -4 -770 -29 -27 c-50 -46 -134 -30 -159 29 -8 21 -11 203 -9
679 l2 651 -39 49 c-60 75 -98 114 -111 114 -10 0 -156 -170 -246 -287 -13
-16 0 -54 88 -255 41 -93 74 -181 74 -198 0 -42 -31 -70 -78 -70 -44 0 -71 25
-165 150 -222 294 -295 385 -310 385 -15 0 -131 -132 -239 -273 -78 -101 -115
-98 -207 17 -35 44 -74 90 -86 101 l-22 20 -59 -62 c-32 -35 -147 -155 -256
-268 -108 -113 -206 -218 -218 -233 -21 -27 -22 -36 -21 -275 2 -285 -2 -322
-37 -357 -34 -34 -99 -35 -139 -1 l-28 24 -2 317 c-2 247 0 324 11 348 12 28
326 363 631 675 123 124 135 127 207 52 l48 -50 47 58 c27 31 104 129 173 216
156 199 181 226 212 226 35 0 50 -15 117 -117 34 -51 63 -93 65 -93 3 0 78 91
168 202 179 223 212 258 238 258 27 0 67 -37 96 -88 88 -155 117 -202 121
-198 3 3 20 38 37 78 93 215 292 401 496 466 84 27 170 42 238 42 52 0 57 2
90 41 60 69 50 68 508 69 336 0 419 -3 453 -15z m-1745 -1 c80 -11 122 -71 96
-135 -28 -67 4 -63 -720 -70 l-655 -5 -92 -27 c-51 -14 -121 -40 -156 -58
-150 -73 -308 -233 -387 -394 -67 -136 -80 -203 -88 -432 l-7 -203 -31 -31
c-42 -42 -100 -45 -139 -9 l-27 25 5 225 c4 207 6 232 31 315 107 362 369 637
711 748 83 27 172 45 240 50 100 6 1175 7 1219 1z m-1286 -432 c11 -15 25 -45
31 -67 32 -118 -72 -255 -194 -255 -46 0 -109 22 -139 48 -19 18 -60 91 -54
98 2 2 21 -1 42 -7 21 -6 57 -7 79 -4 98 16 157 89 157 194 l0 62 30 -21 c16
-11 38 -33 48 -48z m90 -1349 c68 -71 137 -146 153 -167 56 -75 28 -156 -53
-156 -34 0 -47 8 -97 55 -32 30 -61 55 -64 55 -4 0 -7 -15 -7 -34 0 -29 16
-50 119 -159 65 -70 122 -138 125 -153 10 -37 -22 -86 -62 -98 -44 -12 -85 7
-129 60 -19 24 -39 44 -43 44 -9 0 -6 -297 2 -306 3 -2 277 -4 609 -4 387 0
617 -4 641 -10 50 -14 78 -52 78 -104 -1 -44 -13 -66 -47 -84 -16 -9 -255 -12
-915 -12 -574 0 -909 -4 -938 -11 -94 -21 -178 -110 -183 -191 l-2 -43 622 -5
621 -5 26 -24 c32 -30 41 -71 26 -116 -23 -69 20 -65 -753 -65 l-698 0 -24 24
c-32 32 -41 100 -27 216 24 206 155 368 337 415 42 11 109 15 237 15 162 0
178 2 179 18 2 30 2 125 1 216 l-2 90 -52 -56 c-29 -31 -64 -59 -78 -63 -61
-15 -117 38 -106 100 5 27 33 62 119 151 115 119 127 136 119 166 -6 26 -18
22 -44 -13 -70 -94 -182 -91 -195 6 -4 36 -1 46 35 90 22 28 91 103 154 168
107 111 115 117 153 117 38 0 46 -6 163 -127z m3312 -873 c196 -28 360 -196
391 -400 6 -41 9 -104 6 -140 -4 -56 -9 -68 -36 -92 l-31 -28 -152 0 c-166 0
-188 -7 -188 -58 0 -44 37 -70 144 -103 171 -52 220 -80 251 -140 30 -57 12
-140 -36 -159 -27 -12 -35 -9 -142 62 -144 94 -260 136 -405 144 -135 8 -194
26 -249 77 -118 109 -135 279 -35 355 l35 27 320 2 c176 2 322 5 324 7 3 3 -2
29 -11 58 -18 64 -78 130 -146 161 -51 24 -145 27 -812 27 l-357 0 -28 24
c-23 20 -28 32 -28 69 0 53 29 92 79 106 42 12 1024 13 1106 1z m-2311 -476
c32 -40 29 -126 -4 -159 -22 -23 -32 -25 -108 -25 -115 0 -132 13 -132 103 0
97 13 107 131 107 88 0 94 -1 113 -26z m1448 11 c32 -23 46 -75 33 -124 -17
-64 -35 -71 -181 -71 l-127 0 -26 31 c-19 23 -26 42 -26 74 0 32 7 51 26 74
l26 31 127 0 c96 0 132 -4 148 -15z m-1471 -459 c56 -18 60 -184 5 -200 -9 -3
-53 -7 -98 -8 -73 -2 -85 0 -104 18 -17 18 -21 33 -20 90 0 95 17 109 121 108
42 -1 85 -4 96 -8z m-516 -33 c29 -32 32 -41 27 -82 -4 -33 -12 -52 -32 -68
-28 -25 -9 -24 -515 -24 -49 0 -274 0 -499 1 l-408 0 -27 25 c-22 20 -26 33
-26 75 0 44 5 56 29 81 l29 29 695 0 695 0 32 -37z m-30 -446 c14 -7 34 -29
45 -49 24 -45 13 -101 -26 -130 -27 -20 -77 -22 -1186 -28 l-83 0 0 -37 c1
-76 64 -172 135 -204 37 -17 77 -19 572 -19 l531 0 30 -25 c37 -31 48 -73 32
-120 -22 -66 -8 -65 -617 -65 -594 -1 -583 -1 -678 55 -142 83 -230 293 -210
500 7 61 12 74 40 102 l33 33 679 0 c525 0 684 -3 703 -13z m569 -13 c32 -41
30 -136 -4 -169 -22 -23 -32 -25 -108 -25 -118 0 -132 12 -131 110 0 99 14
110 134 110 84 0 90 -1 109 -26z m817 5 c15 -17 19 -35 18 -91 -2 -93 -9 -99
-118 -104 -92 -4 -137 8 -150 41 -14 38 -6 122 15 149 20 25 25 26 118 26 87
0 100 -2 117 -21z m650 -13 c44 -44 47 -99 8 -145 l-26 -31 -133 0 c-73 0
-141 3 -150 6 -24 10 -45 58 -45 108 0 37 5 48 31 70 29 25 36 26 156 26 l125
0 34 -34z m-1493 -447 c32 -15 47 -48 47 -108 0 -34 -6 -56 -21 -75 -19 -25
-25 -26 -113 -26 -114 0 -130 12 -130 93 0 72 10 102 36 114 32 14 151 16 181
2z m844 -12 c14 -14 18 -34 18 -86 0 -102 -11 -111 -135 -111 -120 0 -132 9
-138 105 -4 58 -2 66 22 88 23 22 33 24 120 23 77 -1 99 -4 113 -19z"/>
<path d="M6166 7171 c-3 -5 9 -18 27 -28 108 -65 230 -199 293 -325 59 -117
78 -205 78 -353 0 -153 -14 -217 -79 -350 -74 -152 -190 -273 -335 -349 -102
-53 -160 -66 -322 -73 l-147 -6 -3 -46 c-2 -25 -2 -85 0 -133 l3 -87 462 5
c450 5 463 6 507 27 27 13 53 36 65 57 19 34 20 54 23 795 3 716 2 762 -15
794 -10 19 -31 44 -46 55 -27 20 -44 21 -267 24 -143 2 -241 -1 -244 -7z"/>
<path d="M5723 6602 l-43 -3 0 -110 0 -109 70 0 c42 0 82 6 99 14 52 27 67
105 31 163 -23 39 -68 51 -157 45z"/>
<path d="M6786 3349 c-75 -8 -100 -65 -55 -123 19 -25 25 -26 110 -26 102 0
121 7 138 49 10 24 10 34 -3 59 -23 45 -71 55 -190 41z"/>
<path d="M7116 3149 c-17 -13 -28 -34 -32 -59 -9 -55 -54 -104 -109 -120 -85
-24 -107 -92 -49 -150 21 -22 32 -25 84 -23 71 3 106 19 173 81 84 79 110 159
73 230 -17 33 -61 62 -94 62 -11 0 -31 -9 -46 -21z"/>
<path d="M6610 2850 c-11 -11 -20 -29 -20 -40 0 -50 79 -79 113 -42 54 60 -36
139 -93 82z"/>
<path d="M6766 4079 c-31 -25 -34 -61 -6 -89 43 -43 110 -14 110 48 0 25 -6
35 -30 47 -38 19 -42 19 -74 -6z"/>
</g>
</svg>
