<?xml version="1.0" standalone="no"?>
<!DOCTYPE svg PUBLIC "-//W3C//DTD SVG 20010904//EN"
 "http://www.w3.org/TR/2001/REC-SVG-20010904/DTD/svg10.dtd">
<svg version="1.0" xmlns="http://www.w3.org/2000/svg"
 width="1024.000000pt" height="1024.000000pt" viewBox="0 0 1024.000000 1024.000000"
 preserveAspectRatio="xMidYMid meet">
<metadata>
Created by potrace 1.16, written by Peter Selinger 2001-2019
</metadata>
<g transform="translate(0.000000,1024.000000) scale(0.100000,-0.100000)"
fill="#000000" stroke="none">
<path d="M2966 8389 c-211 -28 -441 -118 -607 -240 -76 -56 -213 -196 -283
-289 -117 -157 -210 -410 -227 -620 -7 -83 -9 -838 -6 -2235 3 -1903 5 -2118
20 -2190 50 -244 147 -439 313 -630 198 -226 465 -367 767 -405 113 -14 4251
-14 4367 0 205 25 437 118 596 239 252 189 434 487 489 799 13 76 15 361 15
2272 0 1410 -4 2207 -10 2247 -50 304 -221 587 -484 799 -88 71 -269 166 -397
208 -175 58 -75 56 -2374 55 -1160 -1 -2141 -6 -2179 -10z m4375 -516 c253
-72 434 -247 531 -513 l23 -65 3 -2175 c2 -1494 -1 -2194 -8 -2237 -15 -88
-71 -215 -136 -306 -96 -136 -236 -231 -409 -279 l-80 -22 -2035 -4 c-1232 -2
-2086 1 -2165 7 -217 16 -337 71 -490 225 -76 76 -99 107 -138 186 -83 167
-76 -25 -77 2385 0 1536 3 2167 11 2210 43 233 226 461 445 554 62 26 126 41
229 54 17 3 973 4 2125 3 l2095 -1 76 -22z"/>
<path d="M3231 7552 c-83 -3 -112 -17 -135 -67 -14 -29 -16 -115 -16 -737 0
-661 1 -705 18 -738 52 -99 215 -102 286 -7 20 27 21 40 21 258 l0 229 125 0
c69 0 153 5 188 10 149 25 268 95 349 209 220 305 63 732 -304 826 -59 15
-348 24 -532 17z m456 -324 c60 -15 137 -87 152 -143 30 -108 -8 -197 -104
-248 -34 -18 -61 -22 -182 -25 l-143 -4 0 216 0 216 116 0 c63 0 136 -5 161
-12z"/>
<path d="M5128 7486 c-88 -24 -99 -36 -338 -361 -80 -108 -224 -303 -321 -433
-96 -131 -285 -385 -419 -567 -133 -181 -300 -406 -370 -500 -70 -93 -219
-294 -332 -445 -112 -151 -212 -281 -220 -288 -16 -13 -93 -18 -304 -21 l-111
-1 3 -1049 2 -1048 21 -49 c26 -59 71 -108 126 -137 l40 -22 2200 -3 c1602 -2
2211 0 2241 9 65 17 134 76 169 144 l30 59 3 1228 2 1229 -24 24 -25 25 -254
0 c-192 0 -257 3 -265 13 -8 9 -18 282 -13 345 1 9 41 12 165 12 162 0 165 0
195 26 53 44 45 70 -69 234 -55 79 -100 147 -100 150 0 4 10 5 23 3 45 -9 106
15 123 49 20 39 17 46 -96 209 -50 71 -90 130 -90 131 0 2 23 3 51 3 43 0 55
4 75 28 13 16 24 37 24 49 0 21 -303 493 -348 540 -33 35 -78 44 -125 24 -31
-12 -58 -47 -172 -218 -75 -112 -156 -232 -180 -267 -25 -35 -45 -73 -45 -86
0 -41 33 -69 88 -75 l50 -5 -99 -140 c-110 -156 -120 -187 -73 -224 20 -15 41
-21 80 -21 30 0 54 -2 54 -5 0 -5 -82 -128 -169 -254 -37 -53 -39 -81 -7 -118
l24 -28 174 -5 173 -5 3 -162 c3 -218 20 -203 -225 -203 l-188 0 -41 48 c-44
52 -412 500 -514 627 -35 44 -183 223 -328 398 l-264 317 -149 0 c-82 0 -149
2 -149 5 0 3 24 38 53 78 30 40 93 126 140 192 48 66 102 137 120 157 l32 37
70 -81 c39 -45 126 -147 195 -228 194 -228 482 -560 485 -560 2 0 45 56 95
125 l92 126 -38 47 c-21 26 -104 124 -184 217 -80 94 -225 265 -322 381 -216
257 -269 308 -338 323 -60 13 -52 13 -112 -3z m727 -2200 c66 -39 100 -92 168
-257 l62 -152 60 -36 c33 -20 75 -57 96 -85 63 -84 69 -122 69 -468 l0 -306
388 1 c431 2 433 2 468 -66 38 -73 14 -153 -57 -190 -32 -16 -142 -17 -1989
-15 -1901 3 -1956 4 -1983 22 -37 25 -57 66 -57 115 0 55 17 87 59 113 35 22
40 22 497 23 l461 0 5 315 c5 296 7 319 28 374 26 68 92 144 156 182 35 21 45
35 69 97 84 215 135 294 220 340 39 22 50 22 590 27 303 3 572 2 598 -2 27 -4
68 -18 92 -32z m-1665 -1814 c0 -4 -55 -78 -122 -163 -68 -86 -157 -201 -199
-256 l-77 -100 -77 -6 c-108 -10 -845 -9 -845 1 0 4 43 34 95 67 169 107 568
363 645 414 l75 50 253 0 c138 1 252 -3 252 -7z m1215 -14 c3 -13 30 -124 60
-248 30 -124 55 -232 55 -241 0 -10 -11 -20 -25 -23 -24 -6 -675 -6 -675 0 0
13 106 493 115 522 3 9 59 12 234 12 l231 0 5 -22z m1394 -84 c274 -175 640
-418 641 -426 0 -5 -198 -8 -439 -8 l-439 0 -73 93 c-40 50 -123 155 -184 232
-61 77 -124 157 -139 178 l-28 37 247 0 247 0 167 -106z"/>
<path d="M4640 5004 c-22 -48 -40 -91 -40 -95 0 -5 274 -9 609 -9 l610 0 -16
38 c-8 20 -28 63 -44 95 l-29 57 -525 0 -524 0 -41 -86z"/>
<path d="M4404 4656 c-17 -8 -40 -26 -52 -41 -21 -27 -22 -36 -22 -291 l0
-264 34 -38 c31 -33 39 -37 84 -37 55 0 97 23 119 66 7 13 13 60 13 105 l0 81
624 1 624 1 4 -94 c3 -82 6 -97 26 -118 55 -59 132 -59 189 -2 l33 33 0 259
c0 283 -2 292 -59 330 l-34 23 -776 0 c-627 -1 -782 -3 -807 -14z"/>
</g>
</svg>
