<?xml version="1.0" standalone="no"?>
<!DOCTYPE svg PUBLIC "-//W3C//DTD SVG 20010904//EN"
 "http://www.w3.org/TR/2001/REC-SVG-20010904/DTD/svg10.dtd">
<svg version="1.0" xmlns="http://www.w3.org/2000/svg"
 width="1024.000000pt" height="1024.000000pt" viewBox="0 0 1024.000000 1024.000000"
 preserveAspectRatio="xMidYMid meet">
<metadata>
Created by potrace 1.16, written by Peter Selinger 2001-2019
</metadata>
<g transform="translate(0.000000,1024.000000) scale(0.100000,-0.100000)"
fill="#000000" stroke="none">
<path d="M4975 7110 c-66 -4 -162 -13 -213 -20 -79 -11 -92 -15 -87 -29 4 -9
31 -88 61 -176 92 -275 175 -670 219 -1050 20 -169 44 -229 104 -263 21 -12
47 -22 57 -22 35 1 101 38 124 69 24 35 27 52 85 446 49 328 117 630 207 913
16 52 28 95 26 97 -2 2 -53 10 -113 19 -139 19 -316 25 -470 16z"/>
<path d="M4095 6891 c-319 -123 -544 -261 -810 -494 -88 -76 -230 -220 -230
-231 0 -1 54 -47 120 -103 663 -557 1140 -1416 1330 -2398 19 -97 41 -238 50
-313 9 -76 19 -151 21 -169 l5 -32 544 0 545 -1 0 23 c1 62 24 232 55 407 141
773 461 1499 902 2040 144 176 375 398 572 547 3 2 -38 47 -90 99 -216 219
-458 391 -752 535 -128 62 -365 155 -374 146 -2 -2 -22 -49 -44 -103 -101
-248 -204 -660 -248 -995 -44 -328 -105 -474 -251 -596 -148 -123 -361 -146
-540 -57 -115 58 -229 192 -276 327 -8 22 -37 174 -64 338 -56 328 -106 548
-175 759 -50 152 -119 323 -132 327 -4 1 -75 -24 -158 -56z m-162 -621 c19
-16 85 -102 147 -190 127 -182 138 -212 98 -270 -30 -44 -61 -60 -116 -60 -56
0 -73 17 -211 214 -119 171 -129 196 -105 256 33 81 124 106 187 50z m2508 15
c37 -19 69 -70 69 -108 0 -41 -20 -79 -101 -187 -39 -52 -88 -122 -110 -156
-42 -65 -70 -84 -125 -84 -83 0 -129 56 -125 151 1 21 150 246 226 340 48 59
106 74 166 44z m-2096 -819 c14 -9 34 -35 46 -58 43 -84 159 -400 159 -433 0
-43 -38 -90 -87 -106 -45 -14 -99 0 -132 35 -31 32 -173 389 -178 446 -5 55
11 86 57 118 39 27 92 26 135 -2z m1685 -4 c14 -10 34 -35 45 -54 25 -47 18
-78 -69 -308 -77 -204 -97 -230 -172 -230 -25 0 -59 8 -75 17 -30 18 -59 67
-59 101 0 27 137 418 158 450 34 52 118 64 172 24z m-840 -628 c56 -34 60 -52
60 -289 l0 -217 -39 -39 c-33 -34 -45 -39 -82 -39 -53 1 -84 16 -110 56 -17
26 -19 48 -19 242 0 228 5 253 52 286 29 21 103 20 138 0z"/>
<path d="M2743 5775 c-53 -118 -66 -186 -59 -296 l6 -96 -65 -5 c-236 -19
-393 -263 -329 -512 8 -33 58 -196 111 -361 133 -422 140 -443 248 -795 63
-207 107 -333 128 -369 42 -71 115 -135 185 -163 57 -22 60 -23 641 -26 l584
-3 -6 73 c-13 166 -93 531 -172 789 -197 637 -504 1163 -911 1559 -115 111
-272 246 -319 272 -5 3 -25 -27 -42 -67z"/>
<path d="M7357 5765 c-572 -460 -998 -1187 -1208 -2065 -38 -160 -89 -457 -89
-519 l0 -31 550 0 c368 0 566 4 602 11 156 33 251 132 309 322 53 178 149 486
215 692 34 110 100 322 144 470 81 266 82 271 78 360 -4 77 -9 99 -37 153 -63
124 -162 199 -292 222 l-66 12 1 106 c1 114 -11 164 -72 295 l-27 58 -108 -86z"/>
</g>
</svg>
