<?xml version="1.0" standalone="no"?>
<!DOCTYPE svg PUBLIC "-//W3C//DTD SVG 20010904//EN"
 "http://www.w3.org/TR/2001/REC-SVG-20010904/DTD/svg10.dtd">
<svg version="1.0" xmlns="http://www.w3.org/2000/svg"
 width="1024.000000pt" height="1024.000000pt" viewBox="0 0 1024.000000 1024.000000"
 preserveAspectRatio="xMidYMid meet">
<metadata>
Created by potrace 1.16, written by Peter Selinger 2001-2019
</metadata>
<g transform="translate(0.000000,1024.000000) scale(0.100000,-0.100000)"
fill="#000000" stroke="none">
<path d="M3375 9254 c-185 -39 -378 -182 -464 -343 -56 -106 -71 -189 -71
-403 l0 -188 -63 0 c-89 0 -98 -11 -100 -133 -2 -88 0 -97 22 -121 20 -22 33
-26 77 -26 65 0 64 3 64 -192 l0 -148 -58 0 c-48 0 -62 -4 -79 -22 -19 -21
-21 -40 -27 -247 -5 -189 -4 -228 10 -256 18 -39 50 -55 108 -55 l44 0 1 -105
2 -105 -59 0 c-48 0 -62 -4 -79 -22 -19 -21 -21 -40 -26 -258 -3 -129 -3 -247
0 -262 3 -15 17 -39 30 -53 21 -20 35 -25 79 -25 l54 0 0 -2273 c0 -2230 0
-2275 20 -2351 28 -110 82 -206 166 -295 81 -86 149 -131 267 -175 l82 -31
1697 -3 c1897 -3 1772 -7 1928 69 161 79 291 241 347 434 17 56 18 200 21
2363 l2 2302 21 0 c35 0 90 40 105 76 11 27 14 124 14 491 l0 457 -22 33 c-22
32 -71 63 -101 63 -12 0 -15 88 -20 633 -5 616 -6 634 -27 702 -70 222 -214
368 -450 459 l-55 21 -1695 2 c-1464 1 -1705 0 -1765 -13z m478 -377 c39 -132
120 -233 235 -289 l67 -33 940 0 940 0 67 32 c116 54 194 152 243 301 l17 54
162 -4 162 -3 75 -37 c92 -46 172 -122 208 -197 l26 -56 3 -387 3 -388 -124 0
-124 0 -232 226 c-131 127 -247 232 -266 240 -29 12 -140 14 -649 14 l-614 0
-51 -27 c-58 -31 -604 -557 -650 -627 l-26 -40 -5 -404 -5 -404 -325 0 -324 0
-203 205 -203 205 0 85 0 85 55 50 c31 27 75 63 99 80 l43 31 249 -243 c137
-133 258 -248 269 -253 34 -19 75 -4 92 32 15 32 15 35 -12 82 -16 26 -56 91
-90 143 -130 198 -181 280 -273 435 -52 88 -103 169 -113 180 -12 12 -32 19
-56 19 -34 0 -45 -9 -150 -118 l-114 -119 3 444 3 444 27 57 c32 68 105 150
168 186 87 52 133 61 290 62 l145 0 18 -63z m1672 39 c58 -25 72 -80 30 -121
l-24 -25 -441 0 -441 0 -24 25 c-30 29 -32 64 -6 96 l19 24 404 5 c221 3 413
6 426 8 12 1 38 -4 57 -12z m-5 -795 c0 -5 -12 -12 -27 -16 -55 -13 -188 -101
-252 -166 -77 -77 -122 -148 -159 -251 -22 -64 -26 -89 -26 -203 l-1 -130 54
-140 c29 -77 105 -270 168 -430 64 -159 149 -378 190 -485 41 -107 95 -246
119 -309 24 -63 51 -122 60 -132 23 -26 66 -24 92 4 11 12 55 112 97 222 42
110 129 333 192 495 343 878 317 801 311 929 -13 255 -177 481 -422 580 -31
13 -53 27 -50 32 3 5 75 9 160 9 l155 0 227 -223 c125 -123 238 -231 252 -240
20 -14 51 -17 182 -17 l158 0 0 -622 -1 -623 -98 -75 c-54 -41 -224 -170 -377
-287 -153 -117 -376 -287 -494 -377 -118 -91 -275 -211 -348 -267 l-133 -102
-127 126 c-70 69 -141 131 -157 138 -22 8 -112 11 -318 10 -249 -2 -292 0
-313 14 -23 15 -24 19 -24 143 0 116 -2 130 -24 166 -13 21 -43 54 -66 71
l-43 32 1 793 c1 437 4 801 7 810 5 15 383 386 493 483 l53 47 244 0 c137 0
245 -4 245 -9z m293 -241 c36 -11 87 -35 114 -53 64 -45 138 -144 160 -215 25
-83 22 -211 -6 -285 -70 -179 -263 -294 -446 -266 -277 44 -436 341 -320 597
52 113 145 193 263 223 89 24 156 23 235 -1z m-2383 -1155 c19 -21 53 -50 74
-66 l39 -29 343 0 c188 0 349 -3 358 -6 14 -5 16 -42 16 -305 l0 -299 -530 0
-530 0 0 461 0 461 98 -90 c53 -50 113 -107 132 -127z m3572 -1168 c2 -312 -1
-567 -5 -567 -16 0 -223 122 -351 208 -135 90 -163 99 -210 68 -14 -9 -104
-134 -199 -279 -96 -144 -213 -318 -260 -387 -52 -75 -87 -135 -87 -150 0 -43
26 -70 68 -70 35 0 46 10 207 177 93 98 219 229 280 291 l111 113 222 -113
222 -113 0 -282 0 -282 -253 -3 c-247 -3 -254 -4 -300 -28 -44 -24 -201 -165
-492 -444 -122 -117 -130 -123 -151 -110 -22 15 -907 911 -912 924 -1 4 32 33
74 66 41 32 151 118 242 189 92 72 244 189 337 260 94 71 294 224 445 340 151
116 376 288 500 382 124 93 288 217 365 276 77 58 141 105 142 103 1 -1 4
-257 5 -569z m-2600 120 c3 -128 4 -136 33 -183 33 -53 104 -107 163 -124 21
-5 153 -10 303 -10 l267 0 102 -99 101 -98 -261 -204 c-144 -112 -293 -228
-332 -258 l-69 -54 -57 55 c-87 84 -95 88 -189 88 -106 0 -113 -6 -113 -107 0
-101 11 -113 98 -113 l64 0 607 -608 c333 -335 619 -623 635 -640 l30 -32
-657 0 -656 0 -32 61 c-43 79 -106 142 -183 181 -79 41 -203 50 -287 23 -53
-18 -146 -72 -169 -100 -10 -11 -19 -9 -58 14 -61 36 -388 242 -474 299 l-68
44 0 999 0 999 599 0 599 0 4 -133z m2598 -2422 c0 -749 2 -723 -52 -771 -31
-28 -81 -44 -138 -44 l-46 0 -340 353 c-187 193 -359 373 -382 398 l-42 46 0
102 0 102 158 153 c86 84 206 199 266 254 l110 102 233 0 233 0 0 -695z
m-3537 130 l234 -145 0 -83 c-1 -72 3 -89 30 -144 l30 -61 -186 -194 c-103
-106 -211 -219 -240 -250 -30 -32 -60 -58 -67 -58 -7 0 -23 15 -36 33 l-23 32
-3 514 c-2 451 -1 513 12 508 8 -3 120 -72 249 -152z m707 -53 c19 -10 50 -40
68 -66 40 -59 44 -126 11 -194 -55 -112 -186 -131 -285 -40 -66 61 -81 136
-43 216 44 89 163 129 249 84z m1875 -464 c110 -112 249 -254 310 -315 l110
-113 -1028 0 -1027 0 0 265 c0 264 0 266 25 315 l25 50 693 0 693 0 199 -202z
m-2053 -87 c53 -14 93 -18 136 -14 l62 6 0 -167 0 -166 -317 0 -318 0 180 180
c99 99 180 180 181 180 0 0 35 -9 76 -19z m1255 -662 c68 -33 118 -84 155
-158 31 -64 32 -203 0 -273 -26 -58 -92 -132 -146 -163 -165 -93 -382 -22
-464 153 -23 49 -27 70 -27 152 0 83 4 101 27 146 84 161 285 224 455 143z"/>
<path d="M6442 8697 c-28 -29 -28 -67 -1 -101 19 -25 25 -26 114 -26 86 0 96
-2 125 -26 17 -15 45 -47 62 -73 39 -56 45 -61 86 -61 26 0 36 6 52 33 11 17
20 40 20 50 0 44 -76 150 -143 198 -39 28 -43 29 -167 29 -119 0 -128 -1 -148
-23z"/>
<path d="M3393 8615 c-70 -30 -97 -134 -46 -175 33 -26 64 -20 110 21 34 29
34 29 163 29 122 0 130 1 144 22 22 31 20 74 -4 98 -18 18 -33 20 -177 20
-113 -1 -167 -5 -190 -15z"/>
<path d="M3807 8153 c-27 -4 -28 -5 -25 -66 l3 -62 63 -3 62 -3 0 71 0 70 -37
-1 c-21 -1 -51 -4 -66 -6z"/>
<path d="M4000 8090 l0 -70 59 0 c67 0 71 4 71 80 0 54 -9 60 -87 60 l-43 0 0
-70z"/>
<path d="M3782 7858 l3 -63 55 -6 c30 -3 58 -4 63 -2 4 2 7 33 7 69 l0 64 -65
0 -66 0 3 -62z"/>
<path d="M4002 7858 l3 -63 60 0 60 0 3 63 3 62 -66 0 -66 0 3 -62z"/>
<path d="M3892 5568 c-15 -15 -16 -161 -2 -189 9 -17 22 -19 98 -19 55 0 92 4
100 12 16 16 16 180 0 196 -7 7 -44 12 -98 12 -54 0 -91 -5 -98 -12z"/>
<path d="M3910 5183 c-26 -10 -30 -25 -30 -110 0 -106 7 -113 106 -113 112 0
114 2 114 115 0 83 -2 96 -19 105 -20 10 -145 13 -171 3z"/>
<path d="M4380 5177 c-23 -12 -25 -18 -28 -96 -4 -113 4 -121 113 -121 50 0
86 5 93 12 8 8 12 46 12 105 0 91 -1 94 -26 103 -36 14 -134 12 -164 -3z"/>
<path d="M3890 4771 c-5 -11 -10 -52 -10 -91 0 -106 4 -110 105 -110 110 0
115 5 115 114 0 50 -5 87 -12 94 -8 8 -45 12 -100 12 -76 0 -89 -2 -98 -19z"/>
<path d="M3896 4384 c-12 -11 -16 -36 -16 -99 0 -109 6 -115 110 -115 105 0
110 6 110 119 0 54 -4 91 -12 99 -19 19 -173 16 -192 -4z"/>
<path d="M4364 4375 c-12 -19 -15 -42 -12 -99 5 -99 12 -106 108 -106 101 0
109 9 112 117 4 108 -1 113 -108 113 -78 0 -85 -2 -100 -25z"/>
<path d="M3892 3988 c-16 -16 -16 -180 0 -196 18 -18 182 -16 197 2 8 9 11 47
9 107 l-3 94 -95 3 c-66 2 -99 -1 -108 -10z"/>
<path d="M4359 3973 c-14 -37 -7 -156 10 -177 17 -20 170 -23 189 -4 13 13 17
163 6 192 -5 13 -24 16 -100 16 -94 0 -95 0 -105 -27z"/>
<path d="M6567 3626 c-18 -10 -23 -21 -25 -68 -4 -80 7 -88 121 -88 51 0 98 4
106 9 7 5 16 31 18 58 8 75 -11 90 -115 95 -49 3 -91 0 -105 -6z"/>
<path d="M6553 3363 c-17 -6 -17 -115 -1 -131 8 -8 47 -12 109 -12 78 0 99 3
110 17 19 22 17 112 -2 124 -15 9 -194 11 -216 2z"/>
</g>
</svg>
