<?xml version="1.0" standalone="no"?>
<!DOCTYPE svg PUBLIC "-//W3C//DTD SVG 20010904//EN"
 "http://www.w3.org/TR/2001/REC-SVG-20010904/DTD/svg10.dtd">
<svg version="1.0" xmlns="http://www.w3.org/2000/svg"
 width="1024.000000pt" height="1024.000000pt" viewBox="0 0 1024.000000 1024.000000"
 preserveAspectRatio="xMidYMid meet">
<metadata>
Created by potrace 1.16, written by Peter Selinger 2001-2019
</metadata>
<g transform="translate(0.000000,1024.000000) scale(0.100000,-0.100000)"
fill="#000000" stroke="none">
<path d="M4560 8554 c-59 -12 -151 -47 -196 -76 -44 -28 -210 -154 -502 -382
-123 -97 -296 -228 -487 -374 -77 -58 -288 -221 -470 -362 -181 -141 -384
-298 -450 -348 -66 -50 -191 -147 -277 -214 l-158 -123 0 -256 c0 -141 3 -290
6 -332 l7 -76 436 330 c240 181 522 395 626 475 105 80 269 206 365 280 96 73
245 188 330 254 85 66 225 173 310 239 85 66 242 187 349 269 l195 150 111
-101 c61 -56 262 -241 446 -412 184 -170 364 -336 399 -367 l65 -57 -506 -1
c-279 0 -553 -5 -610 -10 -315 -32 -565 -117 -901 -307 l-118 -67 74 -21 c130
-38 218 -110 270 -226 72 -156 39 -361 -86 -540 -156 -225 -451 -442 -1163
-859 -137 -81 -326 -188 -420 -239 -93 -52 -172 -95 -174 -97 -2 -1 -3 -491
-3 -1087 1 -1179 0 -1164 57 -1280 29 -58 94 -149 110 -153 6 -2 31 23 57 54
26 31 95 109 154 172 408 441 901 1131 1215 1700 379 688 590 1344 708 2204
42 311 45 318 111 364 24 16 47 22 85 22 63 0 109 -27 143 -85 23 -39 23 -44
18 -228 -11 -343 -44 -811 -77 -1062 -10 -82 -26 -208 -35 -280 -16 -133 -83
-475 -130 -658 -190 -757 -483 -1469 -906 -2205 -33 -59 -69 -118 -78 -132
-10 -14 -40 -62 -69 -108 l-51 -82 679 0 680 0 5 42 c2 24 19 273 36 553 17
281 44 695 60 920 67 947 118 2127 132 3065 3 140 6 170 21 193 29 44 75 67
134 67 47 0 58 -4 93 -36 24 -22 43 -50 49 -73 5 -20 12 -151 15 -291 12 -497
69 -1674 121 -2465 8 -126 22 -351 30 -500 9 -148 24 -389 35 -535 11 -146 26
-366 35 -490 14 -216 34 -442 39 -448 2 -1 308 -1 680 0 l677 3 -87 135 c-333
514 -722 1369 -914 2010 -131 436 -233 920 -285 1350 -52 433 -105 1138 -91
1213 8 44 54 99 96 117 40 17 120 8 152 -16 59 -44 68 -70 113 -341 115 -679
224 -1094 410 -1557 242 -601 715 -1371 1229 -2001 193 -235 513 -595 531
-595 13 0 83 97 117 163 64 123 62 77 65 1238 4 1004 3 1056 -14 1071 -10 8
-79 53 -153 99 -478 295 -1011 483 -1535 540 -130 14 -149 20 -193 62 -71 68
-91 160 -52 236 24 48 60 77 112 93 83 25 490 -42 805 -132 303 -87 514 -172
840 -340 l193 -98 0 768 0 768 -407 379 c-225 208 -464 430 -533 493 -69 63
-165 153 -215 201 -430 413 -476 443 -680 443 -90 0 -120 -4 -167 -23 -59 -23
-146 -77 -207 -128 l-33 -29 253 -234 c140 -129 413 -386 608 -570 195 -184
412 -389 483 -454 70 -66 128 -123 128 -128 0 -4 -104 -8 -231 -8 l-232 0 -41
37 c-22 20 -180 168 -351 328 -170 160 -425 399 -566 531 -140 131 -376 354
-525 495 -515 488 -537 507 -659 550 -59 21 -207 34 -265 23z"/>
<path d="M3377 6364 c-10 -3 -120 -62 -245 -131 -125 -69 -265 -147 -312 -172
-112 -62 -714 -402 -763 -431 l-39 -23 3 -233 c2 -129 5 -234 7 -234 7 0 407
228 562 320 446 266 683 432 813 570 127 134 160 233 100 300 -28 31 -83 46
-126 34z"/>
</g>
</svg>
