<?xml version="1.0" standalone="no"?>
<!DOCTYPE svg PUBLIC "-//W3C//DTD SVG 20010904//EN"
 "http://www.w3.org/TR/2001/REC-SVG-20010904/DTD/svg10.dtd">
<svg version="1.0" xmlns="http://www.w3.org/2000/svg"
 width="1024.000000pt" height="1024.000000pt" viewBox="0 0 1024.000000 1024.000000"
 preserveAspectRatio="xMidYMid meet">
<metadata>
Created by potrace 1.16, written by Peter Selinger 2001-2019
</metadata>
<g transform="translate(0.000000,1024.000000) scale(0.100000,-0.100000)"
fill="#000000" stroke="none">
<path d="M5525 7163 c-90 -20 -129 -49 -209 -157 -238 -320 -478 -647 -583
-795 -49 -69 -94 -126 -99 -128 -6 -2 -71 70 -144 159 -166 203 -196 235 -242
259 -50 26 -129 25 -185 -2 -47 -23 -71 -53 -333 -419 -85 -118 -179 -249
-209 -290 -29 -41 -64 -97 -77 -125 l-24 -50 0 -565 0 -565 28 -60 c47 -99
138 -177 232 -198 21 -5 29 0 49 31 13 20 70 100 125 177 56 77 171 237 256
355 318 443 417 581 594 823 99 137 231 318 291 402 61 83 122 167 138 186
l27 34 28 -30 c57 -65 691 -829 1128 -1360 45 -55 152 -185 238 -288 85 -103
183 -223 216 -266 l61 -79 46 14 c107 32 187 105 223 201 19 51 20 78 20 472
0 467 -1 476 -68 572 -22 31 -104 134 -184 230 -79 96 -184 224 -233 284 -242
299 -769 938 -894 1083 -60 70 -150 110 -216 95z"/>
<path d="M5310 5289 c-111 -47 -152 -174 -88 -274 32 -49 115 -90 165 -80 145
27 215 167 137 276 -16 23 -41 51 -56 62 -31 23 -120 32 -158 16z"/>
<path d="M4980 4952 c-24 -11 -43 -33 -60 -67 -50 -100 -119 -253 -125 -278
-10 -37 27 -112 67 -137 30 -19 42 -20 127 -15 l93 7 -107 -208 c-59 -115
-116 -224 -127 -241 l-19 -33 -664 -2 -664 -3 -31 -30 c-74 -71 -53 -192 43
-236 41 -18 95 -19 1757 -19 1646 0 1717 1 1755 19 124 57 129 194 10 260 -27
14 -91 16 -672 13 l-641 -3 -30 78 c-16 43 -33 89 -37 103 -4 14 -77 93 -163
176 l-157 152 17 36 17 35 39 -13 c22 -8 66 -26 98 -41 70 -32 161 -65 182
-65 7 0 29 7 48 16 82 39 85 156 7 212 -35 25 -374 162 -417 169 -22 3 -54 -4
-98 -21 -35 -14 -67 -26 -69 -26 -3 0 -3 15 -1 34 6 52 -23 102 -72 126 -52
24 -61 25 -106 2z m356 -832 c129 -143 129 -142 -43 -134 -76 4 -140 8 -142
10 -1 1 21 48 50 102 61 114 54 113 135 22z"/>
</g>
</svg>
