<?xml version="1.0" standalone="no"?>
<!DOCTYPE svg PUBLIC "-//W3C//DTD SVG 20010904//EN"
 "http://www.w3.org/TR/2001/REC-SVG-20010904/DTD/svg10.dtd">
<svg version="1.0" xmlns="http://www.w3.org/2000/svg"
 width="1024.000000pt" height="1024.000000pt" viewBox="0 0 1024.000000 1024.000000"
 preserveAspectRatio="xMidYMid meet">
<metadata>
Created by potrace 1.16, written by Peter Selinger 2001-2019
</metadata>
<g transform="translate(0.000000,1024.000000) scale(0.100000,-0.100000)"
fill="#000000" stroke="none">
<path d="M5615 7631 c-28 -15 -94 -58 -148 -95 -96 -67 -101 -69 -279 -117
-99 -27 -190 -57 -202 -67 -24 -19 -346 -356 -389 -408 -17 -20 -68 -54 -130
-85 -56 -28 -132 -69 -169 -91 -63 -38 -68 -43 -97 -111 -47 -116 -76 -191
-146 -382 -114 -315 -91 -276 -255 -416 -80 -68 -163 -138 -186 -156 -30 -23
-56 -62 -102 -151 l-62 -120 0 -302 0 -301 -60 -176 -60 -175 0 -197 0 -198
-61 -182 -60 -182 1 -249 c0 -137 -2 -261 -6 -275 -4 -16 -30 -41 -77 -72 -98
-65 -175 -143 -241 -246 l-57 -87 -207 0 c-114 0 -224 -5 -244 -10 -89 -25
-106 -147 -27 -194 27 -16 192 -17 2754 -17 1969 0 2731 3 2745 11 27 15 60
69 60 99 0 29 -34 86 -58 98 -9 4 -120 10 -247 13 l-230 5 -57 84 c-69 101
-149 185 -240 249 l-68 47 0 282 0 282 -40 130 c-39 127 -40 134 -40 278 l0
149 -82 144 -83 145 -1 787 -1 787 -28 43 c-38 58 -111 151 -221 279 -154 180
-141 152 -155 329 -6 85 -16 164 -22 175 -5 11 -50 77 -99 146 l-88 127 -36
145 c-20 80 -41 153 -48 162 -10 15 -166 51 -371 88 -22 4 -45 -2 -80 -22z
m236 -260 c24 -24 29 -38 29 -76 0 -58 20 -107 65 -156 39 -44 45 -79 17 -120
-9 -15 -126 -142 -260 -283 l-242 -256 0 -151 c0 -150 0 -151 -29 -192 -49
-71 -119 -137 -144 -137 -40 0 -47 18 -47 125 0 158 -22 163 -144 34 l-86 -90
0 -105 c0 -60 -5 -115 -12 -127 -6 -12 -49 -62 -95 -110 l-83 -88 0 -294 0
-294 -47 -55 c-120 -139 -268 -292 -295 -306 -29 -14 -31 -13 -55 15 -25 28
-25 32 -21 157 l5 127 102 106 101 106 -2 207 -3 207 -30 3 c-26 3 -42 -9
-145 -117 -108 -114 -117 -121 -153 -121 -49 0 -73 13 -92 50 -22 42 -19 98 8
137 12 18 210 221 439 450 l418 418 0 132 c0 120 -2 133 -19 142 -16 9 -34 -5
-127 -102 -59 -61 -119 -120 -133 -129 -38 -26 -86 -23 -109 7 -24 30 -35 106
-21 142 6 16 124 142 262 281 l252 253 40 -3 c34 -3 42 -8 57 -38 16 -30 18
-66 18 -257 0 -123 4 -223 8 -223 5 0 97 90 205 199 l197 199 0 138 c0 121 3
143 20 172 36 59 104 69 151 23z m243 -3870 c-7 -6 -99 90 -165 172 l-39 49 0
1408 0 1407 22 29 c11 16 58 66 102 112 l81 82 3 -1626 c1 -895 -1 -1630 -4
-1633z m-1611 3039 c-26 -45 -124 -172 -130 -167 -4 4 35 148 42 155 9 10 99
60 108 61 5 1 -4 -21 -20 -49z m1960 -336 l87 -94 0 -577 -1 -578 -68 72 c-38
40 -83 94 -100 119 l-31 47 0 554 c0 436 3 553 13 552 6 -1 51 -43 100 -95z
m-801 -338 c4 -6 8 -194 8 -419 l0 -407 -97 -107 -98 -107 -5 -120 c-3 -67
-10 -130 -17 -141 -19 -35 -49 -56 -86 -62 -32 -5 -41 -1 -72 30 l-35 35 0
172 c0 107 4 179 11 193 6 12 52 63 101 113 l89 92 -2 113 c-4 179 -21 182
-155 30 -53 -61 -110 -115 -126 -122 -86 -36 -155 81 -105 178 20 37 505 533
532 543 22 8 46 2 57 -14z m-1737 -409 l-8 -155 -93 -103 c-51 -57 -97 -105
-103 -107 -14 -5 -15 267 -1 303 15 40 192 237 203 226 5 -5 6 -74 2 -164z
m144 -552 c40 -35 56 -83 39 -123 -14 -34 -294 -337 -336 -364 -72 -48 -152 3
-152 96 0 44 46 100 227 277 156 154 167 160 222 114z m922 -251 c23 -25 24
-32 29 -208 l5 -183 42 -54 c23 -30 54 -66 68 -79 56 -52 55 -39 55 -575 l0
-495 -24 -11 c-31 -15 -55 3 -124 91 l-52 65 0 355 c0 354 -2 380 -33 380 -5
0 -49 -41 -97 -91 -80 -83 -90 -90 -121 -87 -25 2 -39 12 -57 38 -23 33 -24
41 -20 167 4 154 -2 164 -63 108 -50 -45 -99 -48 -141 -8 -24 23 -28 35 -28
80 l0 54 164 172 c244 257 299 307 339 307 23 0 41 -8 58 -26z m1630 -296 c95
-112 89 -95 89 -259 0 -84 -4 -150 -10 -154 -12 -7 -82 55 -132 118 l-38 49 0
133 c0 73 3 140 6 149 11 29 40 17 85 -36z m-2755 -352 c28 -28 34 -42 34 -76
0 -23 -5 -51 -11 -62 -6 -11 -57 -70 -114 -130 l-103 -110 -4 -195 -3 -195
-33 -29 c-42 -38 -89 -39 -131 -3 l-31 26 0 251 0 250 133 135 c184 187 204
197 263 138z m534 -261 c37 -19 50 -43 50 -94 0 -32 -8 -49 -42 -88 -178 -206
-202 -224 -263 -199 -39 17 -65 60 -65 111 0 32 11 48 103 142 99 103 148 143
175 143 7 0 26 -7 42 -15z m1542 -492 c74 -82 183 -199 241 -261 59 -62 110
-124 113 -139 14 -53 2 -57 -177 -64 -155 -6 -165 -5 -186 14 -20 17 -23 31
-23 88 0 77 8 64 -162 255 -77 85 -78 87 -78 141 0 47 4 59 29 84 23 22 39 29
69 29 38 0 44 -5 174 -147z m-1307 101 c24 -10 43 -54 51 -123 6 -58 11 -68
59 -119 195 -214 218 -252 178 -301 -16 -20 -26 -22 -97 -19 l-80 3 -103 115
c-57 63 -122 139 -146 169 -39 51 -42 59 -40 112 2 66 20 106 63 143 31 26 78
34 115 20z m-1101 -431 c49 -16 146 -96 146 -121 0 -18 -542 -12 -548 6 -2 7
12 27 32 46 96 87 232 113 370 69z m3371 12 c75 -13 185 -87 185 -126 0 -18
-11 -19 -265 -19 -249 0 -265 1 -265 18 0 44 111 116 202 131 53 9 66 8 143
-4z m-2598 -16 c41 -15 103 -79 103 -106 l0 -23 -185 0 -185 0 0 23 c0 28 52
80 100 101 41 18 127 21 167 5z"/>
</g>
</svg>
