<?xml version="1.0" standalone="no"?>
<!DOCTYPE svg PUBLIC "-//W3C//DTD SVG 20010904//EN"
 "http://www.w3.org/TR/2001/REC-SVG-20010904/DTD/svg10.dtd">
<svg version="1.0" xmlns="http://www.w3.org/2000/svg"
 width="1024.000000pt" height="1024.000000pt" viewBox="0 0 1024.000000 1024.000000"
 preserveAspectRatio="xMidYMid meet">
<metadata>
Created by potrace 1.16, written by Peter Selinger 2001-2019
</metadata>
<g transform="translate(0.000000,1024.000000) scale(0.100000,-0.100000)"
fill="#000000" stroke="none">
<path d="M4983 7748 c-94 -19 -155 -44 -229 -93 -66 -44 -154 -141 -190 -209
l-28 -53 -285 -7 c-205 -5 -288 -10 -293 -19 -4 -7 -8 -116 -8 -242 0 -194 3
-234 16 -253 16 -23 16 -23 292 -22 l276 1 52 -74 c29 -41 79 -98 111 -126 58
-53 199 -130 241 -134 20 -1 22 -6 22 -69 l0 -68 -128 0 c-110 0 -131 -3 -144
-17 -10 -12 -19 -61 -27 -143 -6 -69 -19 -198 -28 -287 l-16 -163 -117 0 c-82
0 -121 -4 -128 -12 -10 -13 -17 -56 -27 -158 -30 -319 -61 -531 -79 -545 -72
-56 -316 -271 -317 -279 0 -6 -2 -19 -4 -29 -2 -10 -9 -60 -15 -110 -7 -51
-25 -182 -41 -292 -25 -181 -30 -202 -52 -220 -13 -11 -84 -69 -157 -130 -72
-60 -166 -138 -208 -173 -102 -82 -110 -93 -117 -160 -4 -31 -17 -133 -30
-227 -14 -93 -33 -242 -45 -330 -11 -88 -27 -208 -37 -267 l-16 -108 -99 0
c-142 0 -138 4 -138 -143 0 -95 4 -128 16 -145 l15 -22 2099 0 2099 0 15 22
c12 17 16 50 16 140 0 150 2 148 -136 148 -76 0 -104 3 -104 13 0 6 -7 62 -15
122 -8 61 -28 216 -45 345 -16 129 -40 300 -52 379 l-22 144 -51 42 c-27 24
-122 102 -210 175 -243 201 -242 199 -250 279 -3 36 -13 118 -21 181 -8 63
-16 133 -19 155 -19 151 -25 193 -31 208 -3 10 -72 73 -152 140 -79 67 -153
129 -162 137 -12 10 -20 36 -25 80 -3 36 -12 110 -20 165 -15 113 -19 138 -39
319 -9 70 -21 134 -27 142 -8 10 -39 14 -119 14 l-108 0 -7 73 c-4 39 -13 122
-21 182 -8 61 -19 155 -25 210 -16 148 -13 145 -169 145 l-130 0 0 70 c0 56 3
70 15 70 23 0 154 68 200 104 137 106 232 289 242 466 22 364 -248 665 -602
674 -45 1 -116 -6 -162 -16z m239 -310 c20 -6 58 -27 84 -47 238 -180 156
-529 -138 -582 -241 -44 -436 197 -353 436 55 160 231 243 407 193z m-77
-1480 c11 -199 20 -182 -109 -186 l-109 -3 7 131 c4 73 9 145 13 161 l6 29 92
0 93 0 7 -132z m1 -515 c0 -16 1 -251 2 -523 l2 -495 210 -251 209 -252 3
-176 c2 -97 0 -176 -4 -176 -4 0 -59 64 -122 143 -321 398 -431 525 -443 514
-4 -5 -9 -185 -11 -400 l-2 -392 -148 -141 -147 -142 -3 -211 -4 -211 -334 0
-335 0 6 58 c3 31 14 143 25 247 10 105 24 242 30 305 6 63 18 174 26 245 8
72 17 155 20 185 10 107 43 436 54 535 6 55 15 124 20 154 6 30 10 71 10 90 0
33 10 45 98 127 154 145 222 199 222 177 0 -10 -7 -108 -15 -218 -8 -110 -17
-270 -21 -355 l-5 -155 73 -81 c40 -44 99 -111 132 -148 32 -37 60 -66 61 -64
2 3 10 107 31 428 2 41 12 158 21 260 8 102 15 192 15 200 0 8 4 51 8 95 5 44
12 127 15 185 2 58 8 129 11 158 5 38 3 52 -6 52 -7 0 -56 -42 -109 -94 -53
-51 -113 -108 -134 -126 l-39 -33 6 34 c3 19 13 99 21 179 23 209 24 221 31
263 l6 37 256 0 257 0 1 -27z m810 -793 c52 -51 75 -81 79 -103 3 -18 23 -219
45 -447 22 -228 51 -525 64 -660 33 -330 37 -380 27 -380 -8 0 -179 199 -194
226 -5 8 -15 95 -23 192 -8 97 -21 245 -29 327 -9 83 -24 249 -35 370 -11 121
-24 258 -30 305 -5 47 -12 127 -16 179 l-7 94 22 -15 c13 -9 56 -49 97 -88z
m-2151 -1096 c-8 -82 -20 -192 -26 -244 -5 -52 -14 -138 -19 -190 -5 -52 -16
-153 -25 -225 -8 -71 -15 -138 -15 -147 0 -16 -11 -18 -95 -18 -71 0 -93 3
-90 13 2 6 9 57 15 112 36 361 78 682 91 706 5 10 15 22 23 26 7 4 33 25 57
45 73 60 94 76 97 73 2 -1 -4 -70 -13 -151z m2718 72 c42 -39 79 -78 82 -86 7
-22 43 -290 55 -410 6 -58 17 -168 25 -245 8 -77 15 -143 15 -147 0 -5 -40 -8
-89 -8 l-90 0 -5 43 c-3 23 -8 65 -10 92 -15 146 -47 444 -51 470 -3 17 -7 55
-10 85 -3 30 -10 96 -15 145 -13 124 -13 148 3 139 6 -4 47 -40 90 -78z"/>
<path d="M7080 7655 c-52 -13 -138 -33 -190 -44 -52 -12 -165 -37 -250 -56
-85 -20 -200 -45 -255 -56 -55 -11 -122 -27 -150 -34 -27 -8 -63 -17 -80 -20
-16 -2 -39 -7 -50 -9 -186 -39 -205 -50 -205 -120 0 -33 7 -52 26 -75 l26 -31
623 0 c434 0 626 3 630 11 4 6 7 108 7 226 0 169 -3 218 -14 224 -16 11 -5 12
-118 -16z"/>
<path d="M6545 7010 c-330 -3 -601 -6 -602 -8 -1 -1 -11 -12 -23 -24 -29 -31
-28 -98 3 -125 24 -22 33 -24 417 -114 140 -33 302 -71 360 -85 350 -84 482
-113 494 -108 12 5 15 46 18 222 3 202 2 218 -15 235 -11 9 -27 16 -36 15 -9
-2 -286 -5 -616 -8z"/>
</g>
</svg>
