<?xml version="1.0" standalone="no"?>
<!DOCTYPE svg PUBLIC "-//W3C//DTD SVG 20010904//EN"
 "http://www.w3.org/TR/2001/REC-SVG-20010904/DTD/svg10.dtd">
<svg version="1.0" xmlns="http://www.w3.org/2000/svg"
 width="1024.000000pt" height="1024.000000pt" viewBox="0 0 1024.000000 1024.000000"
 preserveAspectRatio="xMidYMid meet">
<metadata>
Created by potrace 1.16, written by Peter Selinger 2001-2019
</metadata>
<g transform="translate(0.000000,1024.000000) scale(0.100000,-0.100000)"
fill="#000000" stroke="none">
<path d="M4950 8179 c-563 -31 -1152 -234 -1611 -555 -393 -275 -691 -597
-935 -1006 -198 -334 -337 -720 -390 -1081 -21 -150 -30 -553 -15 -730 61
-726 383 -1403 925 -1942 231 -230 469 -399 780 -557 600 -303 1228 -407 1861
-307 564 89 1083 319 1530 678 111 88 329 306 425 422 372 454 596 956 697
1564 25 154 26 654 1 830 -21 144 -92 430 -144 575 -112 316 -309 670 -530
950 -114 144 -393 415 -545 528 -412 307 -840 495 -1339 586 -227 41 -485 57
-710 45z m496 -294 c453 -53 949 -247 1314 -513 360 -263 625 -565 850 -966
38 -69 70 -130 70 -136 0 -13 -96 23 -132 50 -21 15 -43 20 -93 20 -36 0 -65
-1 -65 -3 0 -2 11 -37 25 -77 26 -76 70 -162 111 -217 31 -41 30 -51 -3 -64
-26 -10 -31 -7 -64 30 -46 52 -106 166 -135 256 l-22 70 -67 3 -67 3 -54 -60
c-30 -32 -83 -77 -118 -99 -73 -47 -180 -85 -210 -76 -12 3 -76 38 -144 76
-93 53 -129 79 -147 107 -30 49 -125 240 -155 314 l-24 57 -111 0 -111 0 7
-72 c9 -97 34 -189 71 -268 38 -80 141 -185 281 -289 53 -40 97 -74 97 -77 0
-9 -133 8 -155 19 -64 33 -192 127 -230 169 -84 94 -136 243 -151 436 l-7 82
-213 0 -214 0 -90 -187 c-84 -175 -94 -190 -138 -220 -26 -18 -92 -65 -147
-104 -125 -88 -271 -160 -395 -193 -112 -30 -133 -31 -208 -10 -103 30 -170
71 -260 160 l-86 85 -83 -3 c-60 -2 -83 -7 -83 -16 0 -29 37 -81 108 -154 42
-43 73 -80 70 -83 -7 -8 -136 20 -180 38 -35 15 -38 21 -69 118 l-33 102 -154
-6 -154 -6 -73 -70 c-84 -80 -102 -91 -201 -121 l-71 -21 -93 26 c-152 43
-249 98 -408 232 l-62 53 -110 0 c-61 0 -110 2 -110 5 0 16 127 233 205 350
120 179 220 299 382 455 491 475 1086 745 1783 810 118 11 363 4 526 -15z
m2414 -2086 c40 -149 75 -353 90 -534 13 -160 13 -195 -2 -195 -7 0 -24 -9
-38 -19 -32 -25 -53 -14 -75 41 -9 23 -32 68 -50 100 l-34 58 39 0 c22 0 40 5
40 11 0 6 -20 34 -45 62 -51 58 -56 77 -21 77 14 0 27 4 30 8 2 4 -24 52 -59
105 l-63 98 -47 -70 c-26 -39 -54 -76 -61 -82 -24 -19 -16 -35 23 -45 l37 -9
-57 -61 -57 -62 45 -11 c25 -6 45 -13 45 -16 0 -2 -21 -28 -46 -56 l-46 -52
26 -14 26 -14 -37 -54 c-21 -30 -44 -54 -50 -55 -7 0 -20 11 -29 25 -16 24
-15 26 7 44 l23 19 -31 35 c-17 19 -45 56 -62 81 -32 46 -32 46 -9 46 48 0 49
14 8 69 -22 29 -40 57 -40 62 0 5 11 9 25 9 31 0 31 1 0 55 -42 71 -47 72 -88
12 -21 -30 -37 -57 -37 -60 0 -4 11 -7 25 -7 33 0 32 -10 -10 -64 -39 -52 -43
-66 -17 -66 45 -1 46 -17 3 -67 -40 -48 -51 -73 -31 -73 17 0 10 -24 -15 -52
-13 -16 -26 -28 -28 -28 -3 0 -23 29 -46 65 l-40 65 29 0 c42 0 43 13 4 51
-20 19 -42 46 -50 62 -14 26 -14 27 11 27 40 0 40 24 0 76 l-37 48 23 8 c34
13 34 13 4 65 -53 92 -52 92 -102 18 -23 -35 -43 -66 -43 -69 0 -3 10 -6 22
-8 33 -5 32 -21 -7 -69 -19 -24 -35 -47 -35 -51 0 -3 14 -9 30 -13 17 -4 30
-10 30 -15 0 -5 -16 -25 -34 -45 -61 -65 -61 -64 -32 -75 14 -5 26 -14 26 -19
0 -6 -16 -38 -36 -72 l-36 -61 -56 6 c-31 4 -66 9 -79 12 -23 6 -23 5 -23 -96
l0 -101 -27 3 -28 3 -5 155 -5 155 -50 11 c-27 7 -66 13 -86 13 l-37 1 0 -115
c1 -90 -3 -120 -16 -140 -38 -58 -47 -21 -42 173 2 79 7 147 12 151 5 5 74 27
153 51 222 65 247 80 174 99 -30 8 -405 50 -567 64 l-29 2 2 -168 c2 -168 2
-168 -26 -215 l-28 -47 -3 225 c-2 164 -6 226 -15 232 -6 4 -50 8 -97 8 -47 0
-166 4 -265 9 -99 6 -264 13 -367 16 l-188 7 0 -60 c0 -33 -3 -74 -7 -92 -6
-31 -7 -29 -24 36 -12 47 -16 87 -12 125 l5 55 293 17 c307 18 515 40 562 58
l28 12 -26 7 c-154 44 -1761 47 -2101 3 -53 -6 -62 -17 -22 -27 47 -12 296
-34 514 -46 118 -7 256 -15 305 -18 l90 -7 3 -200 c1 -110 -1 -234 -5 -275
l-8 -75 -44 120 -44 120 7 114 7 113 -68 -6 c-37 -3 -102 -8 -144 -12 l-76 -6
-7 -177 c-3 -97 -9 -203 -13 -236 l-6 -60 -18 75 c-10 41 -26 140 -35 220 -10
80 -21 149 -25 154 -7 8 -387 -15 -477 -28 -15 -2 -18 -22 -23 -137 -4 -74 -7
-158 -8 -186 -1 -52 -21 -78 -21 -28 0 14 -9 48 -20 77 -15 40 -20 77 -20 151
0 53 -2 97 -4 97 -3 0 -38 -5 -78 -10 -78 -11 -498 -50 -535 -50 -21 0 -23 -5
-23 -59 l0 -58 174 -28 c162 -26 208 -37 196 -48 -3 -2 -81 -14 -173 -26 -93
-11 -173 -23 -178 -26 -5 -4 -9 -15 -9 -25 0 -15 16 -22 88 -38 48 -11 105
-23 126 -27 22 -4 57 -13 78 -22 l38 -15 0 -118 c0 -129 -5 -119 63 -134 17
-4 64 2 110 13 99 24 400 65 627 86 552 49 1304 47 1865 -5 262 -24 410 -44
525 -71 77 -18 119 -20 458 -19 244 0 372 -3 372 -9 0 -19 -44 -40 -175 -82
-71 -23 -134 -45 -138 -49 -8 -7 404 -20 645 -20 117 0 138 -2 138 -15 0 -9
-10 -20 -22 -25 -19 -8 -268 -66 -368 -86 -27 -6 -36 -11 -29 -19 3 -2 92 -5
197 -6 106 -1 192 -4 192 -8 0 -3 -13 -58 -30 -121 -83 -322 -232 -627 -449
-918 -114 -153 -386 -429 -541 -548 -398 -308 -866 -504 -1385 -581 -169 -25
-554 -25 -715 1 -369 57 -733 181 -1018 347 -222 128 -434 284 -589 433 -368
351 -634 796 -762 1277 -25 92 -27 108 -14 113 8 3 113 6 232 6 120 0 221 3
225 7 8 9 -99 37 -302 78 -90 18 -166 36 -169 39 -19 19 53 24 464 30 252 4
462 11 467 16 4 4 -3 11 -15 15 -55 17 -238 108 -233 116 3 5 72 9 155 9 l149
0 0 113 0 114 -146 -27 c-81 -15 -150 -33 -154 -40 -6 -10 -10 -8 -18 7 -8 14
-8 23 0 31 9 9 2 25 -25 65 -20 29 -37 57 -37 60 0 4 16 7 35 7 19 0 35 3 35
8 0 4 -13 23 -29 42 -15 19 -40 58 -54 87 l-27 52 35 3 35 3 -35 44 c-41 51
-44 71 -12 71 46 0 41 13 -42 116 -22 27 -24 28 -35 10 -6 -10 -23 -34 -38
-53 -35 -45 -36 -71 -3 -79 14 -3 25 -9 25 -13 0 -3 -18 -28 -40 -55 -22 -26
-40 -52 -40 -57 0 -5 16 -9 35 -9 19 0 35 -5 35 -11 0 -13 -55 -95 -88 -131
-22 -24 -23 -28 -9 -34 10 -3 29 -3 43 0 l26 7 -28 -51 -28 -51 -42 42 c-23
23 -56 61 -73 84 l-31 43 39 -5 c58 -8 59 11 4 75 -84 99 -82 94 -35 86 34 -5
43 -3 48 11 5 13 -7 30 -45 65 -28 26 -51 52 -51 58 0 7 16 12 40 12 22 0 40
3 40 6 0 12 -105 143 -115 143 -9 0 -105 -120 -105 -131 0 -3 14 -8 30 -11 17
-4 30 -12 30 -18 0 -6 -25 -35 -55 -64 -30 -29 -55 -55 -55 -59 0 -3 20 -6 45
-6 25 0 45 -4 45 -8 0 -5 -30 -38 -66 -75 -65 -66 -65 -67 -41 -76 14 -5 35
-7 47 -4 19 5 17 -2 -21 -60 -24 -37 -49 -67 -55 -67 -7 0 -25 12 -41 28 l-29
27 8 145 c9 181 30 328 70 493 l31 127 2738 0 2738 0 11 -41z m-2457 -591
l-10 -93 0 125 c-1 100 1 119 9 93 7 -22 8 -62 1 -125z m-2663 -293 c0 -8 -4
-15 -9 -15 -5 0 -14 7 -21 15 -10 13 -9 15 9 15 12 0 21 -6 21 -15z"/>
<path d="M5015 7427 c-78 -31 -145 -88 -178 -154 -41 -79 -42 -206 -2 -283 71
-138 237 -203 380 -149 72 27 155 101 187 167 28 59 30 155 4 232 -25 73 -110
160 -180 183 -57 19 -166 21 -211 4z"/>
<path d="M4635 4671 l-110 -6 -3 -551 c-2 -536 -3 -552 -22 -569 -19 -17 -21
-17 -40 0 -20 18 -20 31 -20 567 0 515 -1 548 -17 548 -24 0 -349 -39 -390
-46 l-33 -6 0 -353 c0 -334 -1 -353 -19 -369 -24 -22 -56 -8 -63 27 -3 14 -3
171 0 350 2 178 0 327 -5 329 -7 5 -276 -41 -340 -57 l-23 -5 0 -508 c0 -382
-3 -511 -12 -520 -18 -18 -46 -14 -58 7 -6 13 -10 191 -10 510 0 270 -1 491
-2 491 -17 0 -215 -59 -294 -87 l-104 -37 -2 -274 c-3 -253 -4 -276 -21 -286
-15 -9 -22 -6 -39 14 -20 24 -21 32 -14 268 6 199 5 242 -7 242 -25 0 -165
-100 -214 -154 -114 -124 -95 -260 55 -395 l73 -66 147 -25 147 -26 5 -124 5
-124 140 -28 c77 -16 241 -46 365 -68 124 -22 259 -48 301 -57 l77 -16 11
-111 c19 -177 4 -160 129 -153 59 3 180 11 269 18 190 13 153 26 363 -131
l135 -101 60 6 c32 4 125 20 205 37 80 16 156 30 170 30 14 0 95 -29 181 -66
l156 -67 300 76 c166 41 404 105 529 141 126 36 246 71 267 76 37 10 37 11 37
63 0 29 3 72 6 97 l6 45 82 35 c45 19 81 41 81 49 0 13 -255 147 -282 148 -10
1 -13 -35 -13 -147 0 -137 -2 -150 -20 -167 -14 -12 -24 -15 -30 -9 -7 7 -9
95 -8 234 l3 223 45 13 c25 8 115 32 200 55 85 22 179 47 208 56 l52 14 0 77
c0 42 3 93 6 113 l6 37 118 32 c133 36 177 58 186 95 10 40 -3 70 -52 119 -70
70 -232 158 -371 200 l-23 7 0 -285 c0 -279 0 -286 -21 -296 -48 -26 -49 -22
-51 307 l-3 307 -85 27 c-138 44 -129 51 -132 -98 l-3 -128 -25 0 -25 0 -3
142 -3 141 -47 11 c-85 18 -284 51 -308 51 l-24 0 0 -558 c0 -421 -3 -561 -12
-570 -18 -18 -46 -14 -58 7 -6 13 -10 213 -10 580 l0 560 -32 6 c-98 16 -178
25 -308 35 -80 5 -166 12 -192 15 l-48 4 -2 -256 c-3 -231 -5 -257 -20 -267
-13 -8 -23 -8 -35 0 -16 10 -18 36 -21 266 l-2 255 -53 7 c-28 3 -152 6 -274
6 l-223 0 0 -550 c0 -542 0 -550 -21 -571 -11 -11 -26 -18 -32 -16 -36 11 -38
40 -35 595 l3 542 -125 -2 c-69 -1 -174 -4 -235 -7z m2155 -571 c0 -5 -7 -10
-16 -10 -8 0 -12 5 -9 10 3 6 10 10 16 10 5 0 9 -4 9 -10z m-1100 -89 c0 -28
-21 -37 -36 -16 -16 22 -10 35 17 35 12 0 19 -7 19 -19z m-1710 -326 c0 -18
-5 -25 -19 -25 -24 0 -33 13 -25 34 10 27 44 20 44 -9z m1060 -260 c0 -8 -4
-15 -10 -15 -5 0 -10 7 -10 15 0 8 5 15 10 15 6 0 10 -7 10 -15z m-550 -20 c0
-8 -7 -15 -15 -15 -8 0 -15 7 -15 15 0 8 7 15 15 15 8 0 15 -7 15 -15z m1864
-114 c10 -16 -5 -41 -25 -41 -14 0 -19 7 -19 25 0 18 5 25 19 25 11 0 22 -4
25 -9z m-1864 -121 c0 -5 -7 -10 -15 -10 -8 0 -15 5 -15 10 0 6 7 10 15 10 8
0 15 -4 15 -10z m1863 -46 c11 -12 -13 -43 -28 -38 -22 9 -19 44 3 44 10 0 22
-3 25 -6z"/>
<path d="M7215 3571 c-77 -5 -90 -9 -93 -25 -6 -27 15 -36 89 -36 105 0 159
10 159 29 0 24 -20 41 -44 39 -12 -1 -61 -4 -111 -7z"/>
<path d="M3130 3255 c-25 -31 -5 -45 65 -45 49 0 67 4 71 15 11 28 -16 45 -71
45 -34 0 -57 -5 -65 -15z"/>
<path d="M3332 3048 c-32 -32 -7 -48 77 -48 64 0 86 13 70 42 -8 14 -22 18
-72 18 -36 0 -68 -5 -75 -12z"/>
<path d="M3654 2955 c-9 -23 3 -45 25 -45 22 0 41 27 34 48 -6 17 -52 15 -59
-3z"/>
<path d="M3880 2785 c-7 -8 -10 -22 -6 -30 8 -21 231 -22 239 -1 3 8 -2 21
-12 30 -25 22 -203 23 -221 1z"/>
<path d="M6259 2724 c-11 -14 -10 -18 6 -30 10 -8 22 -14 26 -14 14 0 31 30
25 45 -7 20 -40 19 -57 -1z"/>
<path d="M4470 2695 c-7 -8 -10 -22 -6 -30 4 -12 28 -15 135 -15 113 0 130 2
135 17 13 33 -21 43 -140 43 -86 0 -114 -3 -124 -15z"/>
<path d="M4602 2498 c-19 -19 -14 -37 11 -43 12 -3 89 -4 172 -3 137 3 150 5
153 22 2 10 -2 22 -10 27 -21 14 -312 11 -326 -3z"/>
<path d="M5240 2495 c-7 -8 -10 -22 -6 -30 5 -13 23 -15 108 -13 91 3 103 5
106 22 6 29 -16 36 -109 36 -65 0 -90 -4 -99 -15z"/>
<path d="M5752 2498 c-17 -17 -15 -36 7 -43 29 -9 52 5 49 29 -3 24 -37 33
-56 14z"/>
</g>
</svg>
