<?xml version="1.0" standalone="no"?>
<!DOCTYPE svg PUBLIC "-//W3C//DTD SVG 20010904//EN"
 "http://www.w3.org/TR/2001/REC-SVG-20010904/DTD/svg10.dtd">
<svg version="1.0" xmlns="http://www.w3.org/2000/svg"
 width="1024.000000pt" height="1024.000000pt" viewBox="0 0 1024.000000 1024.000000"
 preserveAspectRatio="xMidYMid meet">
<metadata>
Created by potrace 1.16, written by Peter Selinger 2001-2019
</metadata>
<g transform="translate(0.000000,1024.000000) scale(0.100000,-0.100000)"
fill="#000000" stroke="none">
<path d="M3678 7728 c-187 -145 -368 -339 -494 -529 -73 -111 -189 -344 -228
-459 -80 -234 -115 -568 -86 -810 11 -86 54 -294 71 -336 l8 -24 33 20 c18 10
69 33 113 51 44 17 81 32 83 34 2 1 -8 47 -22 102 -79 313 -54 649 73 973 43
112 151 302 233 409 113 150 287 319 420 410 l47 32 -72 99 c-40 55 -75 100
-79 100 -3 0 -48 -32 -100 -72z"/>
<path d="M6459 7777 c-9 -12 -41 -57 -72 -99 l-57 -77 77 -57 c43 -31 144
-122 224 -203 214 -215 329 -398 423 -672 69 -203 80 -277 80 -529 0 -196 -3
-238 -22 -325 -12 -55 -25 -108 -28 -118 -4 -14 8 -23 63 -47 37 -16 89 -41
115 -54 l47 -26 12 43 c127 465 92 897 -109 1336 -99 216 -212 380 -381 555
-97 99 -333 298 -353 296 -1 0 -10 -11 -19 -23z"/>
<path d="M5080 7651 c-72 -22 -128 -71 -154 -133 -12 -28 -16 -74 -16 -183 0
-135 1 -146 18 -141 96 28 272 34 365 12 l57 -13 0 145 c0 127 -3 151 -21 189
-47 96 -158 151 -249 124z"/>
<path d="M4050 7323 c-184 -124 -379 -353 -488 -568 -137 -273 -178 -624 -106
-901 8 -32 16 -60 18 -62 2 -2 31 10 63 26 32 17 85 38 116 47 60 17 61 19 41
84 -2 8 -9 57 -14 109 -18 175 19 395 95 559 76 164 220 348 358 457 l85 68
-66 98 c-37 55 -69 99 -72 100 -3 0 -17 -8 -30 -17z"/>
<path d="M6106 7239 c-37 -55 -66 -102 -64 -103 49 -33 151 -122 205 -179 160
-168 251 -330 304 -537 20 -80 24 -119 24 -250 0 -85 -4 -185 -8 -221 l-9 -66
79 -28 c43 -15 94 -36 114 -46 l36 -18 17 78 c53 248 43 469 -31 705 -84 269
-282 538 -537 729 -27 20 -52 37 -55 37 -3 0 -37 -45 -75 -101z"/>
<path d="M4983 7080 c-187 -26 -405 -119 -538 -229 -165 -137 -314 -377 -351
-565 -7 -39 -20 -192 -29 -341 -8 -148 -22 -376 -30 -505 -8 -129 -22 -352
-30 -495 -9 -143 -22 -363 -30 -490 -8 -126 -15 -236 -15 -242 0 -10 241 -13
1170 -13 929 0 1170 3 1170 13 0 28 -41 774 -50 917 -14 212 -38 641 -50 894
-16 326 -56 447 -221 665 -131 175 -363 324 -586 376 -80 19 -319 28 -410 15z
m-117 -103 c-10 -7 -46 -29 -79 -50 -91 -58 -246 -187 -317 -264 -107 -116
-179 -246 -206 -372 -7 -36 -19 -146 -25 -243 l-12 -178 -44 0 -44 0 6 68 c3
37 10 130 15 207 5 77 17 167 26 199 23 88 95 223 162 307 127 159 245 243
437 310 87 30 111 35 81 16z m419 -322 l60 -24 -80 0 c-154 -2 -282 -49 -370
-136 -50 -50 -107 -149 -119 -211 l-7 -31 402 -6 c221 -4 405 -9 408 -13 6 -5
30 -276 25 -283 -2 -1 -196 -5 -432 -9 l-430 -5 -6 -76 c-3 -42 -9 -115 -12
-162 l-6 -86 452 -6 c249 -4 456 -9 459 -12 5 -6 32 -278 28 -281 -6 -5 -430
-13 -674 -14 l-292 0 -5 -42 c-3 -24 -9 -98 -13 -166 l-8 -122 265 0 c146 0
376 -3 511 -7 l246 -6 10 -141 c6 -78 10 -142 8 -144 -1 -1 -244 -5 -539 -9
l-536 -6 0 -47 c0 -26 -3 -75 -6 -109 l-7 -61 -49 0 -50 0 6 38 c3 20 8 87 11
147 3 61 21 313 40 560 19 248 44 585 55 750 14 199 28 327 41 380 41 168 153
291 314 347 78 27 223 24 300 -7z m-1079 -982 c-10 -147 -10 -147 -46 -115
-26 23 -30 33 -30 78 0 28 3 72 6 98 7 45 8 46 42 46 l34 0 -6 -107z"/>
<path d="M3670 3870 l0 -190 1455 0 1455 0 0 190 0 190 -1455 0 -1455 0 0
-190z"/>
<path d="M4710 3306 l0 -245 -277 -3 -278 -3 -60 -28 c-33 -15 -80 -47 -103
-70 -43 -41 -102 -141 -102 -172 0 -13 135 -15 1245 -15 906 0 1245 3 1245 11
0 6 -14 38 -32 71 -38 71 -113 141 -188 177 -55 26 -57 26 -332 29 l-278 3 0
244 0 245 -420 0 -420 0 0 -244z m140 -3 l0 -183 -35 0 -35 0 0 179 c0 189 0
189 47 187 23 -1 23 -1 23 -183z"/>
</g>
</svg>
