<?xml version="1.0" standalone="no"?>
<!DOCTYPE svg PUBLIC "-//W3C//DTD SVG 20010904//EN"
 "http://www.w3.org/TR/2001/REC-SVG-20010904/DTD/svg10.dtd">
<svg version="1.0" xmlns="http://www.w3.org/2000/svg"
 width="1024.000000pt" height="1024.000000pt" viewBox="0 0 1024.000000 1024.000000"
 preserveAspectRatio="xMidYMid meet">
<metadata>
Created by potrace 1.16, written by Peter Selinger 2001-2019
</metadata>
<g transform="translate(0.000000,1024.000000) scale(0.100000,-0.100000)"
fill="#000000" stroke="none">
<path d="M0 5120 l0 -5120 5120 0 5120 0 0 5120 0 5120 -5120 0 -5120 0 0
-5120z m7500 3922 c197 -40 403 -104 570 -177 391 -173 752 -488 973 -851 149
-245 265 -533 317 -788 40 -194 41 -307 37 -2296 -3 -1716 -5 -1925 -20 -2007
-88 -496 -337 -972 -678 -1298 -324 -309 -658 -480 -1148 -588 l-146 -32
-2230 -3 c-2192 -3 -2232 -2 -2370 18 -77 11 -197 35 -267 54 -745 204 -1255
664 -1543 1391 -57 145 -119 383 -135 520 -8 72 -10 654 -7 2105 3 2215 -2
2016 67 2286 70 271 223 581 403 819 80 104 252 281 352 362 156 126 373 258
540 328 202 85 478 157 685 178 19 2 1036 3 2260 3 l2225 -1 115 -23z"/>
<path d="M2905 8729 c-222 -21 -552 -132 -778 -261 -239 -136 -494 -381 -644
-618 -107 -169 -202 -384 -248 -565 -57 -223 -55 -137 -55 -2240 0 -2119 -2
-2040 59 -2277 51 -197 125 -364 238 -538 191 -293 412 -506 673 -648 192
-105 452 -198 651 -233 l124 -22 2187 1 c1542 1 2212 4 2270 12 193 26 420 97
623 195 322 155 602 423 803 767 109 187 197 426 232 634 19 113 20 169 20
2113 0 2255 6 2073 -82 2336 -177 532 -521 926 -1013 1161 -113 54 -305 121
-430 150 -194 44 -162 44 -2410 42 -1172 0 -2170 -5 -2220 -9z m4136 -905
c127 -22 313 -84 418 -140 311 -165 551 -455 659 -794 71 -224 67 -105 67
-1805 0 -1428 -1 -1535 -18 -1610 -10 -44 -22 -84 -28 -90 -12 -12 -2994 -20
-3109 -8 l-75 8 75 30 75 30 1442 0 c1368 0 1443 1 1443 18 0 16 -72 17 -1377
17 -757 0 -1373 4 -1367 8 33 30 132 32 1430 32 1247 0 1315 1 1312 18 -3 16
-74 17 -1278 22 -860 3 -1268 8 -1255 15 13 7 457 10 1278 9 l1257 -1 0 23 0
24 -2857 -2 c-2831 -3 -2858 -3 -2858 -23 0 -19 14 -19 1196 -16 657 1 1269
-1 1360 -6 l164 -8 -95 -6 c-52 -4 -584 -7 -1181 -8 -1199 -1 -1452 -6 -1447
-28 3 -12 86 -14 505 -13 279 0 504 -4 507 -8 10 -17 -95 -22 -449 -23 -435
-2 -560 -8 -560 -29 0 -12 27 -17 135 -26 74 -6 119 -12 100 -13 -38 -1 -227
-25 -328 -42 -35 -5 -67 -7 -72 -4 -4 3 -16 49 -27 103 -17 92 -18 183 -18
1632 0 1449 1 1540 18 1620 111 515 435 882 921 1044 202 68 76 64 2102 65
1647 1 1850 -1 1935 -15z m-1841 -4249 c10 -12 8 -16 -15 -25 -43 -17 -75 -13
-75 9 0 32 67 44 90 16z m104 6 c3 -5 -1 -12 -10 -15 -25 -10 -34 -7 -34 9 0
16 35 21 44 6z m-256 -42 c2 -12 -9 -20 -42 -28 -62 -15 -78 -14 -74 6 2 10
20 22 43 30 49 15 69 12 73 -8z m-184 -35 c4 -9 5 -18 4 -19 -2 -1 -33 -9 -70
-17 -47 -10 -70 -12 -78 -4 -18 18 -11 35 18 42 15 3 32 7 37 9 31 10 83 4 89
-11z m-244 -39 c7 -8 10 -21 7 -28 -5 -13 -174 -50 -188 -41 -13 8 -11 42 4
51 6 4 44 13 82 19 39 7 73 12 76 13 4 1 12 -6 19 -14z m-312 -67 c30 -30 15
-38 -141 -73 -85 -19 -113 -19 -120 -1 -12 30 20 51 105 68 102 20 140 22 156
6z m-1163 -28 c-12 -4 -151 -33 -310 -65 -237 -46 -452 -91 -633 -131 -19 -4
-26 3 -47 48 -30 63 -31 75 -7 82 29 9 371 57 462 66 116 10 560 11 535 0z
m735 -75 c16 -20 6 -43 -22 -49 -105 -23 -389 -89 -415 -97 -38 -12 -73 2 -73
30 0 29 20 39 116 60 351 79 373 82 394 56z m4199 -122 c-46 -122 -167 -291
-296 -414 -182 -173 -389 -280 -655 -342 -93 -21 -97 -21 -1878 -25 -1133 -2
-1838 1 -1930 7 -145 10 -260 28 -260 40 0 4 60 39 133 79 72 40 181 99 241
132 l109 60 1168 0 c1048 0 1169 2 1183 16 20 19 21 48 2 63 -10 9 -292 11
-1085 11 -589 0 -1071 3 -1071 7 0 5 74 45 165 91 l164 82 1208 0 c989 1 1211
3 1226 14 20 16 22 49 4 65 -10 8 -321 12 -1111 13 l-1098 3 119 62 118 63
1777 0 1778 0 -11 -27z m-4994 -47 c22 -16 14 -43 -17 -55 -13 -6 -102 -28
-198 -50 -96 -22 -254 -58 -350 -81 l-175 -41 -28 31 c-16 17 -26 37 -24 43 2
7 93 31 203 54 109 23 267 57 349 77 166 38 212 43 240 22z"/>
<path d="M3755 7381 c-27 -12 -50 -40 -62 -76 -9 -28 -13 -30 -54 -27 -107 7
-163 -102 -92 -180 14 -16 39 -18 234 -18 l217 0 26 31 c30 35 34 78 10 115
-19 28 -63 54 -93 54 -14 0 -25 11 -35 35 -25 58 -95 89 -151 66z"/>
<path d="M6966 7295 c-69 -24 -120 -86 -132 -162 -6 -37 -7 -38 -46 -39 -74
-2 -132 -66 -132 -144 0 -54 18 -87 68 -124 26 -20 42 -21 404 -24 250 -2 389
0 414 8 87 25 117 126 58 194 -36 40 -87 60 -130 51 -28 -6 -30 -4 -30 20 0
19 -13 40 -40 67 -39 39 -42 40 -93 36 -28 -3 -59 -8 -68 -12 -12 -5 -19 1
-28 22 -26 62 -115 123 -178 122 -15 -1 -45 -7 -67 -15z"/>
<path d="M5188 7213 c-14 -16 -28 -36 -31 -45 -4 -10 -12 -15 -21 -12 -22 8
-76 -24 -86 -52 -6 -14 -7 -36 -4 -50 12 -48 36 -54 202 -54 149 0 154 1 177
25 40 39 29 92 -24 119 -15 8 -37 13 -47 10 -15 -4 -22 3 -32 29 -21 60 -91
75 -134 30z"/>
<path d="M4349 6787 c-85 -90 -275 -291 -423 -448 -149 -156 -304 -320 -345
-364 -42 -44 -116 -123 -166 -175 -49 -53 -193 -204 -319 -338 -126 -133 -232
-242 -236 -242 -4 0 -63 57 -131 126 -68 69 -132 130 -141 135 -13 7 -45 -21
-168 -152 l-151 -161 5 -542 c3 -297 5 -619 6 -714 l0 -173 47 3 c38 2 48 7
53 24 7 28 99 107 116 100 10 -4 14 3 14 19 0 29 -7 30 -34 10 -27 -20 -53
-19 -65 4 -14 26 15 62 68 86 23 10 41 24 41 32 0 17 -4 16 -41 -2 -32 -17
-69 -7 -69 19 0 21 111 106 138 106 7 0 39 -17 72 -37 45 -28 60 -44 60 -61 0
-29 -24 -38 -58 -21 -15 7 -30 15 -34 17 -5 2 -8 -6 -8 -17 0 -15 13 -28 47
-44 51 -24 69 -46 60 -71 -8 -20 -46 -21 -75 0 -21 14 -22 14 -22 -11 0 -20 8
-29 34 -40 18 -8 41 -26 50 -40 9 -14 21 -23 26 -20 5 3 17 -6 26 -20 13 -20
25 -25 56 -25 l40 0 -7 41 c-4 22 -4 72 0 111 6 57 11 71 26 75 15 4 19 15 20
47 6 230 7 324 2 459 l-6 158 -27 -6 c-58 -13 -110 34 -97 87 14 56 13 56 465
214 236 82 443 151 570 190 l82 25 2 37 c6 131 6 131 -28 151 -54 32 -53 96 3
140 39 31 679 449 1192 778 62 40 122 73 132 73 10 0 99 -54 199 -120 99 -66
330 -216 513 -334 697 -448 677 -434 677 -467 0 -33 -23 -68 -51 -81 -24 -11
-27 -16 -22 -43 17 -84 5 -75 189 -136 294 -99 526 -170 531 -165 3 3 6 146 7
318 l1 313 25 2 c30 3 487 -200 480 -213 -3 -5 -27 -18 -55 -30 -27 -11 -106
-44 -175 -72 -69 -29 -138 -60 -155 -70 l-30 -19 5 -133 5 -134 135 -43 c147
-47 180 -70 180 -124 0 -19 -10 -39 -26 -56 -22 -22 -31 -25 -70 -19 l-44 6 0
-363 c0 -351 1 -363 20 -375 18 -11 20 -23 20 -112 l0 -100 50 0 c45 0 54 4
81 35 17 19 48 42 69 51 42 19 57 41 40 58 -7 7 -10 6 -10 -2 0 -15 -45 -33
-64 -26 -40 15 -14 69 49 98 23 11 35 24 35 37 0 18 -1 19 -24 4 -31 -20 -80
-16 -84 7 -2 11 15 29 52 54 35 23 56 44 56 55 0 22 -15 25 -23 5 -6 -16 -51
-26 -68 -16 -24 15 1 55 62 98 l61 43 63 -43 c72 -48 76 -54 64 -85 -11 -31
-43 -29 -68 3 l-21 27 0 -27 c0 -21 10 -33 50 -58 52 -32 59 -52 27 -72 -13
-8 -24 -7 -47 6 -29 16 -30 16 -30 -3 0 -12 16 -29 45 -47 36 -21 45 -32 45
-55 0 -37 -25 -45 -61 -18 -28 21 -29 21 -29 2 0 -22 25 -51 44 -51 15 0 66
-52 66 -68 0 -7 11 -12 25 -12 l25 0 0 901 0 902 -147 155 c-301 316 -565 587
-576 591 -6 2 -83 -71 -171 -163 l-161 -168 -423 422 -423 423 -25 -24 c-30
-28 -350 -353 -479 -487 l-90 -93 -95 77 c-52 42 -118 98 -145 124 -80 75 -86
76 -143 35 -27 -19 -54 -35 -59 -35 -5 0 -128 119 -272 265 -145 146 -267 265
-271 265 -4 0 -77 -73 -161 -163z"/>
<path d="M3066 6911 c-28 -30 -13 -61 30 -61 28 0 38 -6 58 -39 14 -22 30 -42
36 -46 20 -12 52 7 66 41 12 29 19 34 48 34 32 0 66 24 66 48 0 16 -41 42 -67
42 -13 0 -40 -15 -60 -34 l-37 -33 -32 33 c-36 39 -81 45 -108 15z"/>
<path d="M3382 6598 c-30 -30 -5 -68 44 -68 26 0 34 -6 44 -30 26 -63 74 -65
103 -5 14 30 22 35 50 35 54 0 79 47 38 70 -37 19 -81 12 -112 -20 l-30 -30
-26 30 c-19 23 -33 30 -62 30 -20 0 -42 -5 -49 -12z"/>
<path d="M2799 6450 c-66 -20 -106 -65 -117 -133 -7 -41 -8 -42 -44 -39 -77 7
-140 -59 -140 -145 0 -50 18 -82 66 -117 26 -20 43 -21 267 -24 226 -3 243 -2
283 17 49 24 86 81 86 132 0 68 -70 139 -137 139 -27 0 -33 4 -33 20 0 26 -32
90 -57 112 -44 40 -116 56 -174 38z"/>
<path d="M5064 6082 c-43 -27 -142 -91 -219 -143 -126 -85 -462 -300 -685
-439 -47 -29 -116 -73 -153 -98 l-68 -44 2 -155 c1 -105 5 -156 13 -159 6 -2
28 -5 49 -7 21 -3 41 -7 44 -11 10 -10 -53 -7 -81 4 -24 9 -26 8 -26 -20 0
-28 3 -30 38 -31 20 0 46 -4 57 -9 14 -6 4 -9 -37 -9 -32 -1 -58 -4 -58 -8 1
-20 18 -31 57 -38 63 -10 66 -27 4 -19 -47 6 -51 5 -51 -15 0 -18 6 -21 38
-21 20 0 44 -5 52 -10 11 -7 -2 -10 -42 -10 -32 0 -58 -4 -58 -9 0 -15 24 -29
61 -36 42 -8 50 -35 10 -35 -21 0 -23 2 -11 10 11 7 8 10 -16 10 -26 0 -31 -4
-30 -22 1 -20 7 -23 49 -26 65 -4 59 -22 -8 -22 -30 0 -55 -4 -55 -8 0 -19 27
-32 67 -32 24 0 43 -4 43 -10 0 -5 -22 -10 -50 -10 -43 0 -50 -3 -50 -20 0
-16 7 -20 33 -21 17 0 41 -4 52 -9 15 -6 6 -9 -32 -9 -83 -1 -79 -32 6 -46 52
-9 38 -24 -20 -21 -30 1 -39 -3 -39 -15 0 -12 13 -19 45 -23 25 -4 45 -11 45
-17 0 -5 -20 -9 -45 -9 -33 0 -45 -4 -45 -15 0 -11 11 -15 36 -15 45 0 41 -24
-5 -28 -19 -2 -31 -8 -28 -15 2 -7 16 -11 30 -9 15 2 27 -1 27 -7 0 -5 -14
-11 -32 -13 -43 -4 -50 -28 -8 -28 21 0 30 -4 27 -12 -2 -7 -15 -13 -28 -13
-15 0 -25 -7 -27 -18 -3 -13 4 -17 27 -17 40 0 40 -16 1 -25 -35 -8 -40 -32
-8 -37 32 -5 35 -28 4 -28 -16 0 -26 -6 -26 -15 0 -8 9 -15 19 -15 29 0 35
-18 9 -22 -13 -2 -24 -11 -26 -21 -3 -15 0 -18 16 -13 11 4 23 2 26 -3 4 -5
-3 -12 -14 -16 -26 -8 -26 -31 0 -38 11 -3 20 -10 20 -16 0 -6 -9 -11 -20 -11
-11 0 -20 -4 -20 -10 0 -6 58 -10 155 -10 l155 0 0 193 0 192 -30 17 -31 17 3
98 3 98 127 -3 126 -2 7 60 c4 32 6 83 5 112 -1 29 -2 128 -1 221 l1 167 730
0 730 0 0 -584 0 -585 163 -3 c89 -2 166 0 172 4 5 5 -13 8 -40 9 -28 0 -70 4
-95 8 l-45 7 45 7 c25 4 63 8 85 9 76 5 40 23 -55 28 -110 6 -102 16 19 24 46
3 87 8 90 11 14 14 -31 25 -106 25 -49 0 -83 4 -83 10 0 8 49 15 98 13 7 -1
12 6 10 16 -2 11 -17 17 -52 21 -66 7 -72 28 -10 32 65 4 68 24 5 33 -73 10
-71 22 5 30 43 4 64 11 61 18 -2 7 -14 13 -28 15 -105 11 -116 32 -18 32 92 0
65 36 -28 39 -18 1 -33 5 -33 10 0 10 125 25 139 17 5 -3 11 1 15 9 4 12 -4
15 -45 15 -73 0 -60 24 14 28 45 2 59 7 68 23 9 19 9 19 -10 10 -11 -6 -44
-11 -73 -10 -41 1 -48 3 -28 9 14 4 40 8 59 9 33 1 34 2 15 16 -17 13 -12 14
59 15 l77 0 1 268 c1 371 0 535 -3 537 -2 1 -52 35 -113 77 -60 41 -256 168
-435 283 -179 114 -383 247 -455 295 -125 84 -216 140 -227 140 -2 0 -40 -22
-84 -48z m185 -238 c119 -60 155 -204 80 -317 -79 -119 -285 -116 -360 6 -33
55 -43 106 -29 164 32 147 174 214 309 147z m-891 -491 c-10 -2 -26 -2 -35 0
-10 3 -2 5 17 5 19 0 27 -2 18 -5z m7 -63 c-3 -5 -29 -10 -56 -10 -31 0 -48 4
-44 10 3 6 29 10 56 10 31 0 48 -4 44 -10z m1803 -7 c-10 -2 -26 -2 -35 0 -10
3 -2 5 17 5 19 0 27 -2 18 -5z m-1808 -53 c0 -6 -30 -10 -71 -10 -44 0 -68 4
-64 10 3 6 35 10 71 10 36 0 64 -4 64 -10z m-370 -16 c0 -2 -7 -4 -15 -4 -8 0
-15 4 -15 10 0 5 7 7 15 4 8 -4 15 -8 15 -10z m2190 6 c0 -5 -23 -10 -51 -10
-31 0 -48 4 -44 10 3 6 26 10 51 10 24 0 44 -4 44 -10z m-1820 -60 c0 -6 -30
-10 -70 -10 -40 0 -70 4 -70 10 0 6 30 10 70 10 40 0 70 -4 70 -10z m1817 -4
c4 -3 -17 -6 -45 -6 -29 0 -52 4 -52 10 0 10 87 7 97 -4z m-2137 -6 c0 -6 -16
-8 -42 -4 -59 9 -60 14 -5 14 26 0 47 -5 47 -10z m7 -56 c-3 -3 -12 -4 -19 -1
-8 3 -5 6 6 6 11 1 17 -2 13 -5z m281 -1 c-21 -2 -55 -2 -75 0 -21 2 -4 4 37
4 41 0 58 -2 38 -4z m1835 0 c-13 -2 -35 -2 -50 0 -16 2 -5 4 22 4 28 0 40 -2
28 -4z m-1808 -63 c-3 -5 -33 -10 -65 -10 -32 0 -62 5 -65 10 -4 6 20 10 65
10 45 0 69 -4 65 -10z m1825 0 c0 -5 -24 -10 -52 -10 -38 0 -49 3 -38 10 20
13 90 13 90 0z m-1825 -60 c-3 -5 -33 -10 -65 -10 -32 0 -62 5 -65 10 -4 6 20
10 65 10 45 0 69 -4 65 -10z m1825 0 c0 -5 -23 -10 -51 -10 -31 0 -48 4 -44
10 3 6 26 10 51 10 24 0 44 -4 44 -10z m-1825 -60 c-3 -5 -33 -10 -65 -10 -32
0 -62 5 -65 10 -4 6 20 10 65 10 45 0 69 -4 65 -10z m1820 0 c4 -6 -10 -10
-34 -10 -23 0 -41 5 -41 10 0 6 15 10 34 10 19 0 38 -4 41 -10z m-1815 -60 c0
-6 -30 -10 -70 -10 -40 0 -70 4 -70 10 0 6 30 10 70 10 40 0 70 -4 70 -10z
m1813 -6 c-2 -5 -7 -9 -13 -8 -5 1 -27 2 -47 3 -21 1 -33 5 -26 9 16 10 89 7
86 -4z m-1818 -54 c4 -6 -20 -10 -64 -10 -41 0 -71 4 -71 10 0 6 28 10 64 10
36 0 68 -4 71 -10z m1825 -10 c0 -11 -31 -11 -75 0 -26 7 -22 8 23 9 29 0 52
-3 52 -9z m-45 -50 c3 -5 15 -10 26 -10 11 0 17 -4 14 -10 -3 -5 -24 -10 -46
-10 -21 0 -39 5 -39 10 0 6 10 10 23 10 18 0 19 2 7 10 -9 6 -10 10 -3 10 6 0
15 -4 18 -10z m-1780 -10 c-3 -5 -35 -10 -71 -10 -36 0 -64 4 -64 10 0 6 30
10 71 10 44 0 68 -4 64 -10z m0 -60 c-3 -5 -33 -10 -65 -10 -32 0 -62 5 -65
10 -4 6 20 10 65 10 45 0 69 -4 65 -10z m1819 1 c9 -13 -14 -18 -63 -13 -29 3
-39 7 -30 13 18 11 86 11 93 0z m6 -71 c0 -5 -20 -10 -44 -10 -25 0 -48 5 -51
10 -4 6 13 10 44 10 28 0 51 -4 51 -10z m20 -60 c18 -6 4 -8 -47 -9 -39 -1
-75 4 -78 9 -7 12 88 12 125 0z m-67 -57 c-7 -2 -21 -2 -30 0 -10 3 -4 5 12 5
17 0 24 -2 18 -5z m-1958 -109 c44 -17 59 -114 24 -158 -30 -38 -89 -37 -115
2 -28 41 -26 118 5 143 24 19 56 24 86 13z"/>
<path d="M5067 5760 c-66 -58 -68 -153 -5 -212 106 -99 281 31 214 160 -27 52
-62 75 -119 80 -49 4 -57 1 -90 -28z"/>
<path d="M6463 4962 c-2 -49 0 -59 20 -74 l22 -18 -22 0 c-13 0 -23 -4 -23 -9
0 -12 25 -21 58 -21 15 0 38 -4 52 -8 19 -5 9 -8 -40 -12 -49 -4 -65 -9 -65
-20 0 -12 27 -17 135 -26 109 -9 121 -11 65 -13 -122 -2 -205 -13 -205 -26 0
-16 67 -25 209 -26 l116 -2 -158 -12 c-86 -6 -160 -14 -163 -18 -19 -19 18
-27 124 -29 94 -1 105 -2 55 -7 -34 -3 -65 -9 -69 -13 -4 -5 -2 -8 5 -8 7 0
26 -9 42 -20 27 -20 40 -21 301 -18 l273 3 1 108 1 107 -38 10 c-20 6 -160 50
-311 99 -286 94 -343 111 -368 111 -11 0 -16 -14 -17 -58z m174 -138 c-3 -3
-12 -4 -19 -1 -8 3 -5 6 6 6 11 1 17 -2 13 -5z"/>
<path d="M3425 4839 c-225 -78 -425 -146 -442 -152 l-33 -10 0 -94 0 -93 455
0 c398 0 455 2 455 15 0 13 -46 15 -354 15 -195 0 -357 4 -360 9 -6 9 678 26
694 16 5 -3 10 2 10 13 0 17 -10 20 -92 26 -50 3 -174 6 -276 6 -102 0 -183 2
-180 5 2 3 128 8 279 11 151 3 276 8 278 10 16 15 -33 26 -150 32 l-134 8 100
7 c145 11 175 17 175 33 0 8 -10 14 -25 14 -14 0 -25 5 -25 10 0 6 11 10 25
10 22 0 25 4 23 33 -1 17 -6 38 -11 44 -6 9 -4 15 7 19 11 4 16 19 16 49 0 50
-10 105 -19 104 -3 0 -190 -63 -416 -140z m350 -69 c3 -5 -1 -10 -9 -10 -9 0
-16 5 -16 10 0 6 4 10 9 10 6 0 13 -4 16 -10z m-48 -6 c-3 -3 -12 -4 -19 -1
-8 3 -5 6 6 6 11 1 17 -2 13 -5z m53 -48 c0 -3 -4 -8 -10 -11 -5 -3 -10 -1
-10 4 0 6 5 11 10 11 6 0 10 -2 10 -4z m-252 -63 c-21 -2 -55 -2 -75 0 -21 2
-4 4 37 4 41 0 58 -2 38 -4z"/>
<path d="M4544 4964 c3 -9 6 -94 6 -189 l0 -173 110 -1 110 -2 0 191 0 190
-116 0 c-102 0 -115 -2 -110 -16z"/>
<path d="M4850 4797 l0 -184 98 -6 c53 -4 116 -7 139 -7 l42 0 3 190 3 190
-142 0 -143 0 0 -183z"/>
<path d="M5210 4790 l0 -189 160 2 159 2 3 188 3 187 -162 0 -163 0 0 -190z"/>
<path d="M5608 4790 l3 -190 119 0 120 0 0 190 0 190 -122 0 -123 0 3 -190z"/>
<path d="M7280 4713 c0 -32 3 -75 6 -95 6 -37 8 -38 51 -38 l44 0 -3 81 -3 82
-45 13 c-25 8 -46 14 -47 14 -2 0 -3 -26 -3 -57z"/>
<path d="M6477 4614 c-4 -4 -7 -14 -7 -23 0 -11 3 -12 11 -4 6 6 10 16 7 23
-2 6 -7 8 -11 4z"/>
<path d="M6516 4524 c-3 -9 -6 -26 -6 -39 0 -37 -25 -51 -63 -36 -61 25 -84
25 -98 0 -16 -30 -89 -240 -89 -255 0 -16 61 -44 95 -44 24 0 26 -3 20 -22
-18 -60 -25 -96 -25 -134 0 -32 -6 -46 -31 -70 -17 -16 -51 -60 -77 -98 l-46
-69 40 -33 c26 -23 49 -34 72 -34 38 0 41 15 12 53 -11 14 -20 28 -20 31 0 2
16 22 35 43 64 69 88 111 93 163 2 28 7 50 10 50 3 0 21 -12 41 -27 20 -14 37
-27 39 -28 1 -1 9 -28 18 -60 8 -33 19 -64 24 -70 6 -7 9 -41 8 -76 l-3 -64
49 -3 c76 -5 98 3 94 36 -2 22 -9 28 -35 30 -23 2 -33 8 -33 20 0 10 15 78 34
152 18 74 39 162 46 195 6 33 21 79 32 103 23 49 18 72 -16 72 -19 0 -27 -8
-36 -36 l-12 -35 -56 7 c-32 3 -58 7 -58 8 -1 0 -4 36 -7 78 l-5 77 34 20 c39
23 43 47 13 85 -24 30 -83 37 -93 10z m106 -348 l58 -1 -6 -35 c-7 -37 -53
-202 -58 -208 -2 -1 -13 24 -25 57 -16 44 -32 68 -61 91 -38 30 -39 33 -25 53
8 12 15 30 15 40 0 16 4 18 23 11 12 -4 48 -8 79 -8z"/>
<path d="M4280 4485 c0 -28 4 -36 23 -39 12 -3 364 -4 782 -3 l760 2 3 38 3
37 -785 0 -786 0 0 -35z"/>
<path d="M6711 4471 c9 -42 8 -45 -42 -77 -21 -13 -39 -31 -39 -39 0 -20 6
-19 47 6 43 27 114 22 146 -9 24 -24 29 -93 10 -132 l-13 -25 98 -12 97 -12
-92 3 c-89 3 -113 -3 -113 -29 0 -7 33 -12 93 -14 129 -3 137 -21 9 -21 -89 0
-103 -2 -111 -19 -10 -17 -4 -19 102 -27 118 -8 116 -10 -27 -22 -149 -12
-108 -40 63 -43 94 -2 32 -16 -76 -18 -46 0 -83 -5 -83 -10 0 -10 57 -20 125
-22 28 0 61 -4 75 -8 19 -6 10 -9 -40 -14 -36 -4 -91 -8 -122 -9 -32 -1 -55
-4 -52 -7 3 -3 53 -13 112 -22 l107 -17 -86 -1 c-96 -1 -149 -9 -149 -22 0 -5
24 -9 54 -9 69 0 146 -11 146 -20 0 -5 -27 -8 -59 -8 -61 0 -81 -6 -81 -23 0
-11 27 -12 32 0 4 11 68 2 68 -10 0 -5 -4 -9 -10 -9 -5 0 -10 -7 -10 -15 0
-13 23 -15 149 -15 l149 0 5 63 c3 34 4 205 4 380 l-2 318 -246 2 -246 2 8
-34z m299 -230 c0 -9 -109 -3 -119 5 -2 2 23 4 57 4 34 0 62 -4 62 -9z"/>
<path d="M7287 4504 c-9 -9 -9 -264 0 -407 l6 -107 44 0 43 0 0 255 0 255 -22
0 c-13 0 -32 3 -43 6 -11 3 -24 2 -28 -2z"/>
<path d="M2954 4396 c-3 -8 -4 -102 -2 -208 l3 -193 78 -3 77 -3 0 211 0 210
-75 0 c-56 0 -77 -4 -81 -14z"/>
<path d="M3194 4401 c-6 -7 -5 -87 2 -105 5 -13 23 -16 91 -16 l84 0 -3 62 -3
62 -83 1 c-46 0 -85 -2 -88 -4z"/>
<path d="M3440 4345 l0 -65 90 0 90 0 0 65 0 65 -90 0 -90 0 0 -65z"/>
<path d="M3690 4343 l0 -63 80 0 80 0 0 65 0 66 -80 -2 -80 -3 0 -63z"/>
<path d="M4850 4053 l0 -313 140 0 140 0 0 309 0 310 -140 3 -140 3 0 -312z"/>
<path d="M4350 4170 c0 -160 2 -192 15 -196 12 -5 15 -28 15 -120 l0 -114 45
0 45 0 0 310 0 310 -60 0 -60 0 0 -190z"/>
<path d="M4550 4050 l0 -310 110 0 110 0 0 310 0 310 -110 0 -110 0 0 -310z"/>
<path d="M5210 4050 l0 -310 160 0 159 0 3 310 3 310 -162 0 -163 0 0 -310z"/>
<path d="M5610 4175 l0 -185 120 0 120 0 0 185 0 185 -120 0 -120 0 0 -185z"/>
<path d="M3190 4183 c0 -16 3 -65 7 -110 l6 -83 83 0 84 0 0 110 0 110 -90 0
-90 0 0 -27z"/>
<path d="M3440 4100 l0 -110 90 0 90 0 0 110 0 110 -90 0 -90 0 0 -110z"/>
<path d="M3690 4101 l0 -109 80 -4 80 -3 0 113 0 112 -80 0 -80 0 0 -109z"/>
<path d="M2923 3902 c-22 -3 -23 -8 -23 -83 l0 -79 104 0 103 0 7 61 c12 116
18 107 -81 105 -49 0 -98 -2 -110 -4z"/>
<path d="M3194 3894 c3 -9 6 -47 6 -85 l0 -69 85 0 85 0 0 85 0 85 -91 0 c-79
0 -90 -2 -85 -16z"/>
<path d="M3440 3825 l0 -85 90 0 90 0 0 85 0 85 -90 0 -90 0 0 -85z"/>
<path d="M3690 3825 l0 -85 70 0 70 0 0 85 0 85 -70 0 -70 0 0 -85z"/>
<path d="M3920 3825 l0 -85 191 0 192 0 -7 31 c-3 17 -6 56 -6 85 l0 54 -185
0 -185 0 0 -85z"/>
<path d="M5610 3826 l0 -86 120 0 120 0 0 83 0 82 -120 3 -120 3 0 -85z"/>
<path d="M7338 3903 c-44 -4 -48 -6 -49 -31 -1 -15 -2 -51 -4 -79 l-3 -53 58
0 c32 0 65 -3 74 -6 14 -5 16 6 16 85 0 88 -1 91 -22 89 -13 -1 -44 -3 -70 -5z"/>
<path d="M5930 3820 l0 -80 106 0 106 0 -7 29 c-4 21 0 35 18 57 13 16 29 39
36 52 l12 22 -136 0 -135 0 0 -80z"/>
<path d="M6437 3813 c-20 -28 -37 -56 -37 -62 0 -6 19 -11 45 -11 l45 0 -1 43
c0 23 -4 51 -8 61 -6 16 -12 12 -44 -31z"/>
<path d="M6852 3059 c-12 -5 -24 -20 -28 -34 -15 -61 74 -89 105 -33 14 24 14
28 -2 46 -23 25 -46 31 -75 21z"/>
<path d="M6133 2800 c-45 -19 -36 -84 14 -96 43 -11 78 7 81 41 1 17 -1 36 -6
42 -11 17 -62 25 -89 13z"/>
</g>
</svg>
