<?xml version="1.0" standalone="no"?>
<!DOCTYPE svg PUBLIC "-//W3C//DTD SVG 20010904//EN"
 "http://www.w3.org/TR/2001/REC-SVG-20010904/DTD/svg10.dtd">
<svg version="1.0" xmlns="http://www.w3.org/2000/svg"
 width="1024.000000pt" height="1024.000000pt" viewBox="0 0 1024.000000 1024.000000"
 preserveAspectRatio="xMidYMid meet">
<metadata>
Created by potrace 1.16, written by Peter Selinger 2001-2019
</metadata>
<g transform="translate(0.000000,1024.000000) scale(0.100000,-0.100000)"
fill="#000000" stroke="none">
<path d="M6293 8861 c-111 -32 -200 -64 -213 -76 -28 -25 -46 -66 -55 -126
l-7 -46 -136 -40 c-76 -23 -169 -51 -209 -62 l-72 -21 -75 74 c-228 226 -552
341 -864 306 -255 -28 -477 -131 -643 -299 -128 -130 -213 -277 -259 -451 -12
-47 -25 -92 -30 -100 -4 -9 -114 -47 -276 -96 -148 -44 -282 -88 -299 -96 -74
-39 -117 -117 -118 -214 -1 -118 87 -223 195 -232 43 -3 77 4 178 38 192 64
344 109 349 104 2 -2 19 -38 38 -80 44 -102 151 -262 227 -339 113 -114 298
-221 461 -265 121 -33 356 -38 490 -12 194 39 355 115 505 237 86 71 146 140
209 245 123 201 171 424 142 654 -7 54 -11 99 -9 101 2 2 79 27 173 56 161 50
170 51 180 33 20 -37 82 -93 110 -100 32 -8 85 4 275 60 179 54 203 66 235
120 37 64 55 137 55 231 -1 99 -12 152 -52 233 -62 126 -186 224 -278 221 -19
-1 -121 -27 -227 -58z m235 -115 c42 -22 89 -76 113 -131 24 -54 35 -158 25
-227 -7 -49 -47 -102 -83 -113 -32 -9 -87 44 -125 123 -32 64 -33 71 -33 187
0 163 25 202 103 161z m-1960 -439 c72 -73 -4 -197 -101 -164 -38 13 -57 44
-57 92 0 91 96 134 158 72z m695 -439 c11 -17 18 -16 112 11 55 16 108 33 118
36 29 12 20 -7 -44 -90 -90 -118 -88 -101 -20 -217 33 -57 59 -104 57 -105 -1
-1 -49 13 -105 32 -57 19 -109 35 -115 35 -6 0 -42 -43 -81 -95 l-70 -96 -3
125 -3 125 -114 38 c-63 20 -115 40 -115 43 0 8 195 80 215 80 12 0 15 14 15
68 0 37 3 97 7 134 l6 68 64 -88 c35 -48 69 -95 76 -104z m-772 -507 c33 -34
40 -91 14 -128 -19 -27 -78 -45 -110 -33 -88 34 -63 190 32 190 25 0 43 -8 64
-29z"/>
<path d="M6820 7861 c-120 -37 -202 -150 -202 -280 -1 -119 55 -212 160 -263
90 -44 161 -45 254 -1 104 49 157 136 158 258 0 127 -77 242 -188 279 -48 17
-139 20 -182 7z"/>
<path d="M3754 6636 c-127 -29 -211 -93 -261 -201 l-28 -60 -3 -1118 -2 -1119
26 -59 c32 -72 103 -140 181 -176 53 -24 70 -27 235 -31 l178 -5 -2 347 -3
348 -100 43 -100 44 -3 656 -2 656 127 139 c69 77 130 140 135 140 4 0 8 -314
8 -698 l0 -698 303 -138 c166 -76 447 -204 625 -285 177 -80 322 -150 322
-154 0 -11 -100 -240 -110 -250 -7 -8 -43 7 -580 253 -195 89 -359 162 -365
163 -6 1 -8 -131 -6 -365 l3 -367 -53 -34 c-30 -19 -137 -83 -239 -142 -775
-451 -780 -454 -801 -489 -28 -45 -25 -98 8 -137 35 -41 78 -59 114 -49 31 9
170 87 522 292 131 76 283 163 337 192 l100 54 0 -71 c0 -40 0 -472 0 -960 0
-806 1 -891 16 -923 33 -68 92 -84 143 -37 25 24 39 60 91 238 34 116 65 221
70 235 5 14 41 129 80 255 184 595 340 1079 346 1072 9 -8 129 -425 259 -897
31 -113 67 -243 80 -290 13 -47 51 -188 85 -315 33 -126 67 -244 75 -262 29
-65 108 -78 156 -27 l24 26 3 1381 2 1382 68 32 c109 53 637 301 767 360 66
30 127 62 136 71 10 10 73 127 142 262 187 366 163 330 225 330 29 0 69 7 90
16 77 32 141 120 142 195 0 39 -40 126 -70 154 -20 18 -18 23 151 353 94 184
205 398 245 475 41 78 74 150 72 160 -7 50 -28 42 -225 -79 -475 -294 -542
-334 -565 -334 -13 0 -160 25 -327 55 -167 30 -312 55 -322 55 -14 0 -31 -25
-63 -87 -43 -87 -336 -711 -336 -717 0 -6 -281 -600 -285 -605 -3 -2 -145 56
-316 129 -229 98 -313 139 -320 154 -5 12 -7 256 -5 565 l3 543 -31 13 c-17 7
-112 41 -211 75 -550 189 -805 272 -850 276 -27 2 -77 -3 -111 -10z"/>
<path d="M5220 6015 c0 -619 0 -624 21 -644 11 -10 74 -47 140 -81 l119 -61 0
653 0 654 -47 18 c-27 10 -90 33 -140 52 l-93 34 0 -625z"/>
<path d="M5750 6030 c0 -126 2 -230 4 -230 6 0 146 225 146 234 0 9 -140 226
-146 226 -2 0 -4 -103 -4 -230z"/>
</g>
</svg>
