<?xml version="1.0" standalone="no"?>
<!DOCTYPE svg PUBLIC "-//W3C//DTD SVG 20010904//EN"
 "http://www.w3.org/TR/2001/REC-SVG-20010904/DTD/svg10.dtd">
<svg version="1.0" xmlns="http://www.w3.org/2000/svg"
 width="1024.000000pt" height="1024.000000pt" viewBox="0 0 1024.000000 1024.000000"
 preserveAspectRatio="xMidYMid meet">
<metadata>
Created by potrace 1.16, written by Peter Selinger 2001-2019
</metadata>
<g transform="translate(0.000000,1024.000000) scale(0.100000,-0.100000)"
fill="#000000" stroke="none">
<path d="M4800 8299 c-267 -28 -621 -116 -878 -218 -613 -245 -1149 -682
-1523 -1241 -103 -154 -270 -482 -332 -651 -63 -173 -113 -352 -137 -491 -79
-467 -63 -930 47 -1363 83 -326 229 -673 401 -953 33 -54 42 -76 33 -82 -9 -5
-8 -9 4 -14 11 -4 15 -13 12 -26 -3 -10 -1 -20 5 -22 5 -2 10 -13 11 -26 0
-12 5 -22 10 -22 4 0 6 -4 2 -10 -3 -5 3 -18 14 -29 19 -19 19 -21 4 -37 -16
-16 -16 -16 5 -10 13 5 22 3 22 -3 0 -6 -4 -11 -10 -11 -5 0 -10 -8 -10 -19 0
-14 6 -17 24 -14 21 4 24 2 19 -16 -4 -15 1 -23 20 -30 24 -9 41 -36 32 -51
-8 -13 16 -70 30 -70 22 0 26 -17 8 -31 -15 -12 -16 -12 -10 4 4 11 3 16 -3
12 -17 -11 -11 -25 15 -35 14 -5 25 -12 25 -15 0 -4 -5 -3 -12 1 -13 8 -7 -4
26 -50 18 -26 18 -29 2 -23 -11 4 -15 3 -10 -4 3 -6 15 -8 26 -6 17 5 19 2 16
-18 -5 -25 14 -41 34 -28 8 4 9 -4 5 -25 -4 -20 -2 -32 4 -32 6 0 7 5 3 12 -4
6 -3 8 3 5 6 -4 16 -21 22 -38 9 -26 8 -30 -4 -25 -8 3 -15 1 -15 -4 0 -6 4
-10 9 -10 5 0 16 -7 25 -15 8 -8 22 -12 30 -9 18 7 21 20 6 29 -5 3 -10 -1
-10 -10 0 -9 -4 -13 -10 -10 -15 9 -12 35 4 35 22 0 41 -29 28 -42 -15 -15
-16 -32 -2 -23 6 3 10 -1 10 -10 0 -13 4 -14 20 -5 14 7 20 7 20 0 0 -5 -4
-10 -9 -10 -16 0 -21 -30 -9 -55 12 -27 48 -34 48 -9 0 8 4 13 10 9 10 -6 2
-36 -14 -47 -7 -5 -4 -8 7 -8 9 0 17 5 17 10 0 6 5 10 11 10 6 0 9 -6 6 -14
-4 -10 2 -16 15 -18 20 -3 21 -4 5 -19 -17 -18 -13 -31 8 -23 7 3 16 0 20 -5
3 -6 11 -8 17 -5 8 5 9 1 5 -10 -5 -12 -3 -16 5 -14 7 3 15 15 19 29 5 17 7
19 8 6 1 -10 -4 -27 -9 -37 -7 -13 -7 -21 2 -26 7 -4 8 -3 4 4 -4 7 -1 12 8
12 10 0 13 -7 10 -24 -3 -17 2 -29 18 -40 11 -8 25 -13 30 -10 4 3 8 -5 8 -18
-1 -21 -2 -22 -14 -6 -7 10 -15 15 -18 12 -3 -3 5 -16 19 -30 20 -20 28 -23
39 -13 12 10 13 9 8 -6 -5 -12 -4 -16 4 -11 6 3 14 2 17 -4 5 -8 11 -8 20 0
10 8 13 7 11 -4 -3 -24 -16 -32 -26 -16 -5 8 -13 11 -17 6 -12 -12 35 -46 66
-47 14 0 20 -3 13 -6 -10 -4 -7 -9 10 -17 12 -7 22 -20 22 -29 -1 -9 2 -15 6
-12 5 3 12 0 16 -6 5 -8 9 -8 14 1 5 8 10 8 14 2 3 -5 -3 -21 -14 -35 -26 -33
-26 -43 0 -17 11 11 20 24 20 29 0 5 9 11 20 14 17 4 18 2 10 -13 -6 -11 -15
-22 -20 -25 -16 -10 -11 -25 6 -18 9 3 20 0 26 -8 7 -10 8 -6 4 14 -4 15 -2
27 4 27 5 0 11 -4 11 -10 3 -20 4 -25 11 -35 4 -6 3 -17 -3 -25 -5 -8 -9 -19
-9 -25 0 -5 5 -3 10 5 5 8 10 11 10 5 0 -5 7 0 15 12 10 14 21 20 32 16 11 -4
14 -3 9 5 -5 8 -2 10 8 6 9 -3 16 -10 16 -16 0 -5 -4 -7 -9 -4 -5 3 -11 -4
-14 -16 -8 -29 -3 -33 16 -13 18 17 37 20 37 5 0 -5 -4 -10 -9 -10 -6 0 -9 -9
-8 -19 0 -11 7 -17 14 -14 15 6 57 -32 50 -45 -4 -5 0 -9 8 -9 10 0 11 5 5 18
-7 12 -5 19 5 23 14 5 21 -22 16 -63 -2 -7 3 -10 9 -6 6 4 8 15 5 26 -4 11 -2
19 4 19 6 0 11 -7 11 -16 0 -9 5 -12 11 -8 8 5 10 -1 6 -18 -6 -21 -3 -27 15
-31 12 -4 24 -4 27 -2 2 3 -2 5 -10 5 -8 0 -1 7 15 15 16 9 29 14 30 13 1 -2
7 -13 13 -25 7 -12 9 -24 4 -27 -5 -3 -9 -17 -8 -32 0 -16 2 -21 7 -14 4 7 13
9 19 6 6 -4 11 -2 11 3 0 6 -7 11 -15 11 -8 0 -15 5 -15 10 0 6 5 10 11 10 6
0 9 9 6 19 -3 13 -1 18 9 14 7 -2 10 -11 7 -19 -3 -8 0 -14 5 -14 6 0 9 -9 7
-21 -3 -16 0 -19 12 -15 11 5 14 2 9 -11 -4 -11 1 -8 14 7 11 14 20 29 20 34
0 5 9 1 20 -9 11 -10 17 -21 15 -25 -8 -13 6 -40 20 -40 7 0 16 7 19 16 3 8
11 12 17 9 7 -5 4 -13 -7 -26 -14 -15 -14 -19 -3 -19 8 0 23 9 32 21 10 11 21
18 25 14 4 -4 -2 -13 -12 -21 -11 -7 -18 -15 -15 -16 33 -21 51 -27 64 -22 8
3 13 10 10 14 -3 5 -1 11 4 14 16 10 24 -14 11 -29 -9 -11 -9 -15 -1 -15 6 0
11 5 11 10 0 6 7 10 15 10 19 0 19 -19 0 -26 -8 -4 -13 -10 -10 -15 3 -4 12
-6 20 -2 10 3 15 -1 16 -13 0 -11 3 -14 6 -6 2 6 11 12 19 12 8 0 14 6 14 13
0 8 7 14 15 14 17 0 20 -13 5 -22 -5 -3 -10 -12 -9 -18 0 -9 2 -8 6 1 2 6 10
9 16 5 7 -3 9 -3 5 2 -9 9 9 35 24 35 6 0 8 -9 5 -21 -7 -25 1 -49 15 -49 6 0
8 9 5 20 -3 11 -1 23 4 26 5 3 6 11 2 17 -4 7 0 6 10 -2 11 -8 15 -21 11 -36
-3 -13 -1 -26 5 -29 9 -6 14 4 13 24 -1 14 48 3 57 -13 10 -15 9 -17 -14 -11
-15 4 -25 2 -25 -4 0 -6 12 -10 28 -8 23 2 27 6 24 29 -2 15 2 27 9 27 6 0 8
-7 5 -15 -4 -10 3 -19 18 -26 17 -8 22 -18 21 -40 -2 -34 -1 -35 27 -9 12 11
33 19 47 19 24 -2 24 -2 3 -6 -27 -5 -19 -23 10 -23 17 0 18 -2 8 -15 -11 -13
-10 -14 4 -9 9 3 16 10 16 15 0 13 38 11 42 -2 5 -16 68 -1 68 16 0 14 29 29
38 20 3 -3 1 -5 -5 -5 -5 0 -15 -12 -21 -26 -8 -16 -17 -22 -25 -18 -6 4 -4
-2 6 -13 9 -11 14 -23 10 -26 -3 -4 -1 -7 5 -7 6 0 14 5 17 10 3 6 2 10 -4 10
-6 0 -8 7 -5 15 10 24 32 17 32 -10 0 -14 -5 -25 -11 -25 -6 0 -7 -3 -4 -7 11
-11 47 34 49 61 2 21 5 23 22 14 18 -10 19 -11 2 -23 -10 -8 -13 -16 -7 -19 5
-3 11 -1 13 6 7 21 30 -3 26 -27 -3 -15 -1 -22 7 -18 7 2 12 11 11 20 0 9 5
18 13 21 10 3 12 -1 8 -17 -3 -15 -1 -21 10 -21 9 0 13 6 10 14 -3 8 1 22 8
33 13 16 16 16 25 3 5 -8 10 -25 10 -37 0 -12 3 -24 8 -26 9 -6 46 23 56 43 3
8 4 -4 2 -28 -2 -23 0 -42 5 -42 5 0 9 10 9 23 0 12 4 27 8 32 9 13 42 16 42
4 0 -5 5 -9 11 -9 6 0 8 9 4 21 l-7 22 23 -21 c12 -12 31 -24 41 -28 11 -3 15
-10 11 -17 -4 -7 0 -6 10 2 15 11 18 10 27 -13 10 -26 23 -36 18 -13 -3 12 3
17 23 17 8 0 7 -6 -2 -17 -12 -17 -12 -17 6 -1 22 20 16 31 -19 31 -17 0 -24
5 -23 17 1 14 4 15 25 4 14 -7 31 -10 39 -7 12 5 14 1 8 -18 -4 -17 -3 -20 3
-10 6 8 16 12 23 9 17 -6 54 27 40 36 -5 4 -14 -2 -20 -11 -7 -13 -13 -15 -21
-7 -8 8 0 17 31 33 23 12 43 20 46 17 2 -2 -6 -7 -18 -11 -20 -7 -21 -9 -7
-19 14 -10 18 -17 18 -32 0 -10 25 21 37 46 8 17 12 20 12 8 1 -9 13 -21 29
-26 15 -6 20 -11 11 -11 -9 -1 -20 -8 -23 -17 -5 -14 -4 -15 9 -4 8 7 15 9 15
4 0 -5 5 -2 10 8 11 18 3 48 -12 48 -5 0 -6 -4 -3 -10 3 -5 2 -10 -3 -10 -6 0
-13 8 -16 17 -4 10 -4 14 0 10 4 -4 16 1 27 10 11 10 18 13 14 8 -3 -6 -2 -17
4 -25 7 -13 9 -12 9 2 0 10 10 22 23 28 19 9 20 9 6 -2 -9 -7 -19 -25 -22 -40
-6 -21 -2 -30 15 -42 29 -20 44 -21 28 -1 -16 19 -5 32 14 16 11 -9 15 -8 19
3 8 21 -41 28 -53 7 -5 -9 -10 -11 -10 -4 0 6 9 18 20 26 11 8 17 17 13 20 -3
4 -1 7 5 7 7 0 12 -6 12 -14 0 -18 23 -27 41 -15 8 5 22 6 32 3 9 -3 17 -1 17
5 0 6 7 8 15 5 8 -4 15 -1 15 5 0 6 5 11 11 11 6 0 8 -8 5 -18 -4 -12 1 -26
14 -37 17 -16 20 -16 20 -2 0 19 16 31 30 22 8 -5 7 -11 -1 -21 -7 -9 -8 -14
-1 -14 6 0 14 9 17 20 3 11 13 20 21 20 8 0 12 5 9 10 -10 16 5 12 31 -9 13
-10 20 -21 17 -25 -3 -3 -1 -6 6 -6 6 0 11 8 9 17 -2 12 4 19 18 21 21 3 49
46 45 70 -1 6 3 12 9 12 6 0 9 -4 5 -9 -10 -17 13 -22 28 -6 20 20 31 19 23
-1 -4 -9 -2 -22 4 -29 8 -10 4 -18 -15 -33 -18 -14 -21 -21 -12 -25 16 -6 51
48 42 63 -3 6 1 13 10 16 9 4 14 13 11 20 -3 8 -1 14 4 14 5 0 6 7 3 17 -4 11
-3 14 6 9 7 -4 10 -13 8 -19 -2 -7 7 -17 21 -24 28 -15 76 -17 67 -4 -3 6 -14
8 -24 6 -11 -2 -22 2 -25 10 -4 10 2 11 26 4 18 -5 36 -14 41 -21 7 -10 10
-10 14 0 8 20 25 14 18 -7 -6 -19 11 -39 23 -26 3 3 0 10 -7 14 -11 7 -9 13 7
29 11 11 18 23 15 26 -4 3 -1 6 5 6 14 0 15 -2 3 -34 -13 -33 5 -39 42 -14 26
19 29 38 5 38 -6 0 -8 -3 -5 -7 7 -7 -11 -33 -23 -33 -15 0 3 50 20 55 21 7
52 -4 45 -15 -3 -5 4 -6 15 -3 22 6 38 23 21 23 -6 0 -11 5 -11 10 0 6 7 10
15 10 8 0 15 -4 15 -9 0 -10 26 -9 36 2 4 3 1 13 -5 21 -10 12 -8 17 8 25 25
14 61 14 61 1 0 -6 9 -6 23 -1 12 5 21 16 21 25 -2 20 12 21 20 1 3 -8 1 -15
-4 -15 -6 0 -10 -7 -10 -15 0 -8 5 -15 10 -15 10 0 14 20 12 53 -2 15 1 15 12
5 7 -7 11 -19 9 -25 -3 -7 1 -13 8 -13 7 0 9 3 6 7 -4 3 -2 12 4 20 9 10 8 13
0 13 -7 0 -9 5 -5 11 4 8 9 7 16 -2 7 -11 11 -11 15 -1 8 21 25 13 18 -9 -5
-16 -3 -20 6 -17 9 3 13 17 11 39 -1 18 0 30 4 27 3 -4 17 -3 30 2 14 6 26 6
29 0 4 -6 16 -3 29 5 13 9 29 14 36 13 7 -2 14 2 17 9 3 7 -3 9 -18 6 -15 -4
-20 -3 -15 6 4 6 12 8 18 5 7 -5 9 -1 5 9 -3 9 1 21 10 29 15 11 16 11 10 -4
-3 -10 -2 -28 4 -40 l10 -23 -5 23 c-3 19 0 22 24 22 33 0 49 18 29 31 -9 6
-15 4 -17 -6 -4 -16 -14 -19 -25 -9 -8 9 18 34 36 34 8 0 18 7 21 16 4 9 9 14
13 11 3 -4 0 -13 -6 -21 -8 -10 -9 -16 -1 -21 5 -3 13 1 16 9 3 9 10 16 16 16
5 0 6 -5 2 -11 -5 -8 -1 -8 14 0 30 16 34 14 22 -10 -7 -11 -9 -23 -6 -26 5
-6 26 40 26 57 0 5 9 12 20 15 11 3 20 13 20 22 0 11 3 13 13 5 19 -16 46 3
29 20 -9 9 -12 8 -13 -7 0 -11 -3 -14 -6 -7 -6 16 -33 16 -33 -1 0 -7 -14 -21
-32 -31 -29 -18 -31 -18 -25 -2 4 10 7 20 7 22 0 2 7 4 15 4 8 0 15 4 15 8 0
18 -14 21 -34 7 -24 -17 -36 -19 -36 -5 0 6 9 10 20 10 11 0 20 5 20 10 0 14
27 12 33 -2 4 -10 8 -9 16 2 6 8 11 11 11 6 0 -5 6 -4 13 2 7 6 24 8 37 5 16
-4 21 -3 16 6 -4 6 -11 9 -16 6 -5 -3 -11 -1 -15 5 -3 5 3 10 14 10 11 0 22
-4 25 -9 3 -5 15 -11 27 -14 18 -5 20 -2 16 19 -2 13 2 32 10 41 12 15 14 15
10 2 -3 -9 3 -28 13 -43 l17 -27 6 22 c4 13 4 25 2 28 -3 2 -5 -1 -5 -7 0 -7
-4 -12 -9 -12 -5 0 -8 12 -8 28 2 30 22 58 32 43 3 -5 1 -12 -5 -16 -5 -3 -10
-11 -10 -18 0 -6 6 -2 14 8 10 14 11 25 2 47 -8 23 -7 31 7 45 11 11 17 13 17
5 0 -7 5 -12 11 -12 5 0 8 4 5 8 -2 4 -1 14 5 22 6 10 9 11 9 3 0 -7 8 -13 18
-14 13 0 12 -3 -5 -11 -13 -6 -23 -15 -23 -21 0 -5 -6 -5 -13 2 -8 6 -17 8
-20 4 -9 -9 13 -34 24 -27 5 3 9 0 9 -6 0 -7 -7 -10 -15 -6 -17 6 -19 -2 -6
-22 6 -10 13 -4 25 22 14 31 56 68 56 51 0 -4 7 1 16 9 8 9 20 13 26 10 6 -4
6 -9 2 -13 -13 -9 -16 -31 -4 -31 6 0 10 7 10 15 0 8 5 15 10 15 6 0 10 5 10
12 0 6 -3 8 -7 5 -3 -4 -12 -2 -20 4 -10 9 -17 8 -29 -1 -12 -11 -17 -11 -27
1 -7 8 -8 11 -3 6 17 -13 26 -8 26 15 0 20 1 20 18 5 25 -23 35 -21 29 3 -4
17 -1 19 26 15 16 -3 34 -8 39 -11 4 -3 5 2 2 10 -3 9 -1 16 5 16 6 0 11 7 11
16 0 8 -4 12 -10 9 -6 -3 -10 5 -10 18 0 25 31 48 38 28 2 -6 8 -11 14 -11 6
0 8 6 5 14 -7 17 26 49 39 39 5 -5 6 -4 2 1 -4 5 0 15 10 22 10 8 12 13 5 14
-8 0 -12 13 -12 33 2 30 2 30 6 5 2 -16 9 -28 14 -28 6 0 7 4 4 10 -8 13 27 0
38 -14 5 -6 6 0 3 15 -7 34 4 44 21 19 8 -11 20 -20 26 -20 8 0 7 3 -2 9 -9 6
-14 27 -14 64 1 34 -4 58 -10 60 -7 2 -1 2 13 0 23 -4 39 -19 40 -35 0 -4 -7
-5 -15 -2 -8 4 -15 1 -15 -5 0 -14 20 -14 40 -1 13 8 13 11 1 19 -7 5 -10 14
-6 20 4 8 11 9 19 2 8 -7 12 -3 14 15 2 22 -1 24 -21 18 -12 -4 -24 -11 -25
-15 -2 -5 -8 -7 -13 -3 -14 8 0 24 22 24 10 0 19 5 19 11 0 6 7 8 16 5 12 -5
15 -2 10 10 -5 14 -4 15 9 4 16 -13 19 -9 28 35 4 18 5 18 15 -5 10 -23 11
-23 11 -4 1 12 -6 24 -14 28 -8 3 -15 10 -15 17 0 7 7 8 18 4 34 -13 52 -14
52 0 0 15 -27 28 -41 19 -5 -3 -9 1 -9 10 0 10 8 13 31 9 30 -4 31 -3 27 26
-2 17 0 32 5 34 6 2 5 12 -2 25 -8 14 -8 22 -1 22 9 0 11 -7 14 -52 1 -9 5
-20 9 -24 4 -5 5 -1 1 9 -3 9 -1 17 4 17 8 0 8 9 1 30 -6 16 -9 35 -6 42 3 7
6 3 6 -8 1 -19 31 -57 31 -39 0 4 7 1 17 -6 14 -12 16 -12 11 1 -3 8 -13 14
-22 14 -10 -1 -16 6 -16 17 0 11 7 19 16 19 8 0 12 -4 9 -10 -3 -5 -1 -10 5
-10 7 0 9 8 5 21 -5 14 -3 19 3 15 19 -11 24 13 8 36 -13 18 -16 19 -16 5 0
-9 -4 -17 -10 -17 -18 0 -11 25 11 38 12 8 18 9 14 3 -3 -6 -3 -11 2 -12 4 0
16 -2 25 -4 9 -2 19 4 22 12 5 11 1 13 -15 8 -14 -5 -19 -3 -15 3 3 6 2 13 -4
17 -5 3 -10 14 -10 23 0 15 2 15 10 2 5 -8 10 -10 10 -5 0 6 5 2 11 -8 10 -18
11 -18 24 0 7 10 17 15 21 11 4 -4 1 -16 -7 -25 -12 -17 -12 -17 5 -2 15 14
16 21 7 38 -7 11 -16 21 -22 21 -6 0 -3 7 5 16 17 17 21 34 8 34 -5 0 -9 7 -9
16 0 14 2 14 11 2 6 -7 19 -12 29 -10 13 3 15 7 8 16 -8 9 -5 12 11 12 11 -1
23 6 26 14 4 13 3 13 -10 2 -11 -9 -18 -10 -23 -2 -8 13 3 30 20 30 18 0 35
31 35 64 0 14 5 26 11 26 6 0 8 -7 5 -16 -3 -9 -2 -14 4 -12 5 1 10 8 10 13 1
6 8 13 18 17 14 5 14 7 2 7 -17 1 -25 41 -9 41 5 0 9 6 9 13 0 8 11 20 25 27
28 15 33 30 9 30 -8 0 -12 -4 -9 -10 3 -5 -1 -10 -9 -10 -8 0 -21 -7 -29 -15
-13 -12 -16 -12 -20 -1 -4 9 3 16 19 20 13 4 24 14 24 22 0 10 6 14 14 11 8
-3 20 2 28 10 11 15 11 16 -4 10 -14 -5 -18 -1 -18 14 0 12 4 17 11 13 8 -4 9
0 4 15 -6 21 19 60 32 47 4 -3 0 -12 -9 -19 -12 -9 -13 -16 -4 -32 6 -11 18
-21 26 -23 10 -3 9 2 -4 17 -11 12 -14 21 -8 21 16 0 15 33 0 49 -11 11 -9 12
7 3 17 -9 20 -7 21 14 2 19 -1 22 -11 14 -9 -8 -15 -8 -20 0 -3 5 -1 10 4 10
6 0 11 6 11 14 0 9 7 12 20 9 14 -4 20 -1 18 7 -2 8 7 19 19 25 13 7 20 15 17
18 -4 4 -1 14 6 22 11 13 11 16 -1 13 -8 -2 -15 7 -17 21 -3 18 0 22 12 18 19
-7 21 4 4 21 -8 8 -8 15 1 26 7 8 9 21 5 27 -5 9 -2 10 9 6 12 -5 19 1 23 18
3 14 14 30 23 36 14 10 14 10 -1 5 -10 -3 -20 0 -24 6 -4 6 -3 9 2 6 5 -3 18
-2 29 3 16 6 13 8 -15 9 -19 2 -38 2 -42 1 -12 -2 -10 17 2 24 6 3 10 1 10 -4
0 -6 10 -11 23 -11 18 0 19 2 7 10 -12 8 -8 10 15 11 17 1 23 3 14 6 -13 3
-15 11 -9 39 5 21 4 37 -3 41 -5 3 -7 2 -4 -4 3 -5 -1 -10 -10 -10 -13 0 -12
4 5 18 12 9 22 24 22 33 0 9 4 16 9 16 5 0 9 29 8 65 -1 62 6 86 19 72 4 -4 1
-13 -6 -22 -7 -8 -9 -15 -5 -15 4 0 13 8 20 17 10 14 9 20 -9 34 -11 10 -18
21 -14 25 4 4 14 1 22 -5 12 -10 14 -9 11 6 -1 10 -7 17 -13 16 -5 -1 -12 11
-14 27 -5 33 6 39 21 13 6 -10 11 -13 11 -7 0 5 -5 15 -12 22 -7 7 -8 12 -3
12 4 0 0 9 -9 19 -12 13 -14 21 -6 26 5 3 8 11 4 16 -4 6 -11 6 -20 -2 -12
-10 -13 -9 -8 5 4 11 14 16 24 13 17 -4 42 18 48 42 2 9 -3 9 -17 2 -14 -8
-20 -7 -25 4 -3 8 -1 15 4 15 5 0 9 19 9 43 -2 62 -1 67 19 67 16 1 16 1 0 14
-21 15 -24 38 -5 30 8 -3 14 2 14 10 0 8 -4 13 -9 10 -4 -3 -13 -2 -19 2 -8 5
-4 13 11 24 22 17 22 18 4 36 -22 22 -28 68 -8 60 17 -6 11 23 -7 35 -11 7
-10 9 6 9 14 0 16 3 7 8 -18 12 -4 42 16 36 15 -5 15 -4 0 6 -10 6 -18 22 -18
35 0 13 -6 26 -12 28 -10 4 -10 6 0 6 6 1 12 5 12 11 0 5 -8 7 -17 3 -14 -5
-12 1 7 23 14 15 17 22 8 15 -16 -12 -17 -11 -12 18 4 17 3 31 -2 31 -5 0 -9
105 -9 232 0 226 -7 312 -42 513 -107 624 -421 1234 -878 1704 -157 161 -278
266 -440 381 -463 327 -968 521 -1525 585 -147 16 -494 19 -640 4z m138 -731
c34 -34 -14 -102 -56 -79 -28 15 -35 40 -17 67 17 26 53 32 73 12z m-473 -54
c0 -22 -6 -31 -27 -38 -52 -18 -82 46 -36 78 30 21 63 0 63 -40z m2195 -22
c18 -14 21 -25 16 -45 -7 -31 -48 -46 -71 -27 -21 17 -19 67 3 79 23 14 27 14
52 -7z m-2972 -187 c28 -76 69 -116 147 -141 66 -22 74 -31 39 -45 -146 -61
-159 -73 -190 -176 -8 -29 -19 -53 -23 -53 -4 0 -15 27 -24 60 -23 80 -74 133
-152 155 -30 9 -55 18 -55 21 0 2 28 17 63 33 34 16 74 40 89 54 23 23 68 120
68 147 0 28 18 2 38 -55z m1665 3 c24 -73 37 -87 114 -124 l67 -32 -61 -30
c-76 -39 -108 -77 -124 -147 -7 -30 -15 -55 -19 -55 -3 0 -14 26 -24 58 -22
70 -73 122 -145 148 -28 10 -50 23 -48 28 2 6 22 16 45 23 86 25 125 62 152
146 6 20 15 37 19 37 4 0 15 -24 24 -52z m1035 9 c27 -25 30 -85 5 -116 -10
-12 -35 -24 -55 -28 -32 -5 -41 -1 -68 25 -34 35 -39 75 -12 109 34 44 87 48
130 10z m-1878 -327 c12 -38 36 -87 53 -109 34 -45 117 -93 191 -112 l49 -12
-77 -27 c-124 -44 -175 -97 -215 -225 -10 -32 -23 -61 -28 -62 -6 -2 -13 15
-17 39 -15 91 -75 182 -145 217 -20 10 -62 26 -93 35 -32 9 -58 18 -58 20 0 2
32 14 72 26 102 31 150 67 186 140 17 33 33 78 37 100 4 22 10 40 15 40 4 0
18 -31 30 -70z m2205 -30 c10 -43 50 -87 93 -101 59 -18 59 -26 -1 -53 -57
-25 -97 -70 -97 -108 0 -30 -16 -20 -35 21 -23 52 -50 76 -102 92 -24 7 -43
17 -43 24 0 6 23 19 50 29 52 19 78 44 100 96 16 38 27 38 35 0z m-590 -25
c32 -31 34 -86 5 -115 -31 -31 -93 -27 -119 6 -65 82 41 183 114 109z m-3013
-52 c20 -18 24 -73 6 -91 -7 -7 -27 -12 -45 -12 -26 0 -36 6 -48 30 -9 17 -13
36 -9 43 28 48 63 60 96 30z m4238 -115 c29 -32 27 -81 -6 -107 -15 -12 -34
-21 -44 -21 -34 0 -70 39 -70 76 0 66 76 99 120 52z m-1670 -157 c16 -32 12
-59 -14 -76 -51 -34 -111 30 -71 75 23 26 71 26 85 1z m1452 -68 c22 -20 24
-76 2 -97 -8 -9 -31 -16 -50 -16 -31 0 -37 4 -50 35 -8 20 -12 41 -8 48 28 49
72 61 106 30z m-3592 -52 c17 -33 12 -61 -15 -73 -21 -9 -28 -8 -45 7 -22 20
-26 55 -8 73 18 18 56 14 68 -7z m619 4 c28 -14 51 -58 51 -97 0 -32 -54 -78
-90 -78 -46 0 -90 47 -90 95 0 27 8 44 29 66 33 32 58 36 100 14z m-1130 -94
c25 -70 59 -102 131 -126 27 -9 50 -18 50 -21 0 -2 -29 -17 -64 -33 -69 -31
-110 -77 -122 -139 -4 -18 -10 -35 -15 -38 -5 -3 -23 25 -40 61 -34 72 -71
104 -147 126 -23 7 -41 17 -39 23 2 5 24 17 50 25 68 23 116 65 143 127 13 30
25 54 28 54 2 0 13 -27 25 -59z m2336 23 c36 -23 50 -75 31 -112 -18 -34 -33
-42 -86 -42 -30 0 -43 6 -59 26 -63 80 29 184 114 128z m947 -130 c42 -166
108 -464 108 -489 0 -19 -10 -24 -80 -39 -44 -10 -121 -28 -171 -41 -72 -18
-99 -21 -128 -13 -37 10 -91 53 -91 72 0 6 -4 17 -8 24 -9 13 2 15 -473 -99
l-167 -40 5 -41 6 -40 -40 21 -40 20 -113 -30 c-63 -16 -115 -31 -117 -32 -1
-2 -4 -248 -5 -548 l-3 -544 -24 -49 c-38 -77 -130 -134 -221 -135 -41 -1
-439 59 -620 93 -41 8 -92 17 -112 20 l-38 5 0 -480 c0 -263 3 -479 6 -479 6
0 122 71 725 447 180 111 334 206 343 209 13 5 54 -29 159 -132 230 -225 381
-371 746 -718 l344 -328 123 186 c67 103 130 204 140 224 9 20 19 32 21 26 2
-6 -25 -125 -61 -265 -36 -140 -66 -261 -68 -269 -2 -11 6 -14 32 -11 28 2 45
14 85 59 89 102 255 270 255 258 -1 -6 -8 -29 -16 -51 -13 -37 -74 -249 -74
-260 0 -3 26 -5 58 -5 54 0 59 2 87 38 52 66 208 242 212 238 2 -1 -3 -19 -11
-38 -9 -20 -25 -73 -36 -119 -12 -46 -24 -92 -26 -101 -5 -17 8 -18 166 -18
l170 0 -63 -58 c-35 -31 -115 -97 -178 -146 -475 -371 -990 -576 -1679 -667
-142 -19 -546 -16 -700 5 -568 77 -982 220 -1406 487 -141 89 -482 351 -483
372 -1 4 35 7 79 7 65 0 80 3 80 15 0 8 -14 77 -30 152 -39 175 -37 193 15
109 22 -36 72 -114 110 -172 l70 -107 79 -1 78 -1 -28 20 c-68 47 -136 128
-172 203 l-37 77 0 755 0 755 23 57 c66 163 224 278 384 278 27 0 228 -31 446
-69 341 -60 593 -101 616 -101 7 0 7 685 0 693 -3 2 -53 -8 -111 -24 -59 -16
-108 -28 -109 -26 -6 6 -74 291 -70 294 2 3 49 16 103 29 133 34 124 29 113
60 -13 34 -10 36 26 23 25 -10 64 -3 279 54 138 35 273 70 300 76 35 8 58 21
76 43 29 35 44 32 54 -11 l6 -29 182 47 c100 26 239 63 310 82 l128 34 -7 41
c-7 49 12 93 53 122 26 19 357 113 378 108 5 -1 22 -52 37 -112z m1082 -81
c31 -61 61 -89 122 -112 27 -11 48 -23 46 -27 -2 -5 -19 -15 -38 -21 -80 -28
-124 -74 -148 -156 -8 -25 -23 -13 -31 24 -10 45 -72 104 -132 125 -29 10 -53
22 -53 26 0 5 26 20 57 34 72 31 98 55 119 111 9 23 21 43 25 43 5 0 20 -21
33 -47z m-539 -35 c15 -14 28 -38 32 -60 5 -32 1 -41 -26 -69 -28 -27 -37 -31
-69 -26 -88 15 -113 124 -37 165 32 18 72 14 100 -10z m-3074 -212 c37 -8 86
-24 110 -37 63 -31 161 -134 192 -200 130 -277 -54 -606 -351 -626 -174 -11
-316 55 -405 190 -122 184 -96 422 62 571 58 54 114 81 204 101 81 17 108 18
188 1z m3335 -181 c15 -23 15 -27 0 -50 -25 -38 -67 -32 -81 13 -5 16 -1 29
11 43 24 26 50 24 70 -6z m-370 -277 c49 -152 118 -221 267 -265 27 -8 47 -17
44 -20 -3 -3 -41 -17 -84 -32 -127 -42 -174 -94 -220 -238 -14 -46 -29 -81
-33 -78 -4 3 -13 26 -20 52 -17 71 -67 158 -115 202 -39 36 -145 81 -190 81
-33 0 -22 20 17 30 175 44 245 112 288 278 6 23 15 42 20 42 4 0 16 -24 26
-52z m-925 -48 c29 -16 51 -67 44 -101 -8 -35 -48 -69 -82 -69 -61 0 -115 66
-98 120 15 48 89 75 136 50z m1753 -46 c13 -35 6 -64 -18 -76 -31 -14 -53 -5
-68 27 -9 21 -8 28 7 45 22 24 70 27 79 4z m-76 -486 c17 -17 15 -53 -3 -68
-20 -17 -62 -5 -70 21 -13 40 44 76 73 47z m-1564 -70 c38 -129 100 -193 231
-241 39 -14 63 -27 55 -30 -8 -3 -38 -13 -66 -22 -116 -36 -178 -102 -208
-219 -9 -33 -20 -64 -24 -68 -5 -5 -19 19 -31 54 -49 138 -126 213 -241 239
-33 7 -60 16 -60 20 0 4 26 15 57 24 132 38 197 100 234 220 13 41 27 75 31
75 3 0 14 -24 22 -52z m2403 -150 c-3 -7 -5 -2 -5 12 0 14 2 19 5 13 2 -7 2
-19 0 -25z m-952 -59 c23 -51 61 -83 119 -100 25 -7 46 -17 46 -20 0 -4 -22
-15 -48 -23 -57 -19 -107 -67 -119 -115 -11 -44 -29 -50 -37 -15 -8 30 -41 82
-66 101 -8 7 -34 18 -56 25 -23 7 -43 18 -45 23 -1 6 20 18 47 28 58 22 100
59 116 104 7 18 15 33 18 33 4 0 15 -18 25 -41z m-854 -80 c17 -33 -3 -69 -40
-69 -29 0 -41 14 -41 49 0 42 61 57 81 20z m1824 -29 c3 -5 1 -10 -4 -10 -6 0
-11 5 -11 10 0 6 2 10 4 10 3 0 8 -4 11 -10z m-1381 -116 c46 -46 25 -114 -36
-114 -60 0 -89 71 -46 117 28 30 49 29 82 -3z m1336 -278 c0 -3 -4 -8 -10 -11
-5 -3 -10 -1 -10 4 0 6 5 11 10 11 6 0 10 -2 10 -4z m-1470 -103 c51 -65 -27
-138 -87 -81 -27 25 -29 54 -7 86 22 32 67 29 94 -5z m-493 -73 c33 -12 53
-46 53 -88 -1 -77 -101 -107 -150 -45 -35 45 -18 112 34 133 28 12 28 12 63 0z
m1913 6 c0 -3 -4 -8 -10 -11 -5 -3 -10 -1 -10 4 0 6 5 11 10 11 6 0 10 -2 10
-4z m32 -44 c-6 -2 -12 -10 -12 -18 0 -12 -2 -12 -14 -2 -12 11 -11 14 5 20
20 8 26 28 8 28 -5 0 -7 5 -3 12 5 8 11 4 18 -12 8 -17 7 -25 -2 -28z m-22
-109 c0 -5 -4 -14 -9 -22 -7 -10 -12 -11 -27 -1 -15 9 -15 10 -2 6 9 -2 19 2
22 10 6 15 16 19 16 7z m-77 -188 c-3 -9 -8 -14 -10 -11 -3 3 -2 9 2 15 9 16
15 13 8 -4z m-19 -70 c-4 -8 1 -18 10 -21 9 -3 13 -10 10 -16 -3 -5 -12 -1
-18 8 -7 9 -17 14 -22 11 -5 -3 -10 3 -10 13 0 10 4 16 8 14 4 -3 8 0 8 6 0 6
4 9 10 5 5 -3 7 -12 4 -20z m-5 -71 c-6 -8 -17 -14 -23 -14 -6 0 -3 6 6 14 14
10 15 15 5 26 -10 12 -9 12 6 1 13 -11 15 -17 6 -27z m-89 -104 c0 -5 -2 -10
-4 -10 -3 0 -8 5 -11 10 -3 6 -1 10 4 10 6 0 11 -4 11 -10z m-68 -225 c5 -22
3 -24 -11 -13 -9 7 -18 13 -20 15 -5 3 10 23 18 23 5 0 11 -11 13 -25z m-38
-69 c-3 -9 -10 -16 -15 -16 -5 0 -4 9 3 20 14 22 21 20 12 -4z m-44 -8 c0 -4
-6 -8 -14 -8 -8 0 -17 4 -20 8 -2 4 4 8 15 8 10 0 19 -4 19 -8z m-22 -73 c-3
-3 -9 2 -12 12 -6 14 -5 15 5 6 7 -7 10 -15 7 -18z m-38 -115 c0 -5 -7 -7 -15
-4 -8 4 -15 8 -15 10 0 2 7 4 15 4 8 0 15 -4 15 -10z m-5200 -96 c0 -8 -4 -12
-10 -9 -5 3 -10 10 -10 16 0 5 5 9 10 9 6 0 10 -7 10 -16z m5114 -22 c3 -5 -1
-9 -9 -9 -8 0 -12 4 -9 9 3 4 7 8 9 8 2 0 6 -4 9 -8z m-89 -112 c-3 -5 -12
-10 -18 -10 -7 0 -6 4 3 10 19 12 23 12 15 0z m-105 -95 c0 -10 -9 -14 -24
-13 -14 1 -22 6 -20 10 3 4 11 5 19 1 8 -3 15 0 15 6 0 6 2 11 5 11 3 0 5 -7
5 -15z m43 -15 c-3 -11 -10 -20 -15 -20 -6 0 -7 7 -4 16 3 9 6 20 6 25 0 6 4
8 9 5 5 -3 7 -15 4 -26z m-4739 -83 c-22 -42 -21 -42 -34 -17 -10 18 -9 21 7
18 10 -2 17 2 16 10 -2 6 2 12 8 12 5 0 7 5 3 12 -4 7 -3 8 4 4 9 -5 8 -16 -4
-39z m4563 -49 c-3 -8 -6 -5 -6 6 -1 11 2 17 5 13 3 -3 4 -12 1 -19z m43 -2
c0 -3 -4 -8 -10 -11 -5 -3 -10 -1 -10 4 0 6 5 11 10 11 6 0 10 -2 10 -4z m-69
-39 c-10 -9 -11 -8 -5 6 3 10 9 15 12 12 3 -3 0 -11 -7 -18z m66 -2 c0 -8 -4
-15 -8 -15 -11 0 -20 16 -12 24 11 11 20 7 20 -9z m-4497 -20 c7 -9 8 -15 2
-15 -5 0 -12 7 -16 15 -3 8 -4 15 -2 15 2 0 9 -7 16 -15z m4365 -15 c3 -5 1
-10 -4 -10 -6 0 -11 5 -11 10 0 6 2 10 4 10 3 0 8 -4 11 -10z m29 -6 c3 -8 2
-12 -4 -9 -6 3 -10 10 -10 16 0 14 7 11 14 -7z m76 6 c0 -5 -4 -10 -10 -10 -5
0 -10 5 -10 10 0 6 5 10 10 10 6 0 10 -4 10 -10z m-70 -61 c0 -5 -9 -9 -21 -9
-14 0 -19 5 -16 14 3 7 0 19 -6 26 -7 7 0 5 16 -5 15 -9 27 -21 27 -26z
m-4316 -40 c-3 -5 -10 -7 -15 -3 -5 3 -7 10 -3 15 3 5 10 7 15 3 5 -3 7 -10 3
-15z m4285 18 c-2 -1 -12 -9 -21 -16 -15 -12 -18 -11 -18 3 0 10 8 16 22 16
12 0 19 -1 17 -3z m-4224 -49 c-5 -24 -25 -49 -25 -32 0 6 3 14 8 18 4 4 8 12
8 17 2 16 4 19 8 19 3 0 3 -10 1 -22z m4165 8 c0 -2 -7 -7 -16 -10 -8 -3 -12
-2 -9 4 6 10 25 14 25 6z m0 -79 c-10 -9 -14 -9 -17 0 -2 7 -12 10 -21 7 -9
-3 -6 2 8 10 14 8 19 15 12 16 -7 0 -10 5 -7 11 5 6 13 2 22 -11 12 -17 13
-24 3 -33z m-68 16 c-6 -2 -10 -9 -6 -14 3 -5 -2 -9 -12 -9 -13 0 -14 3 -4 15
7 8 18 15 24 14 7 0 6 -2 -2 -6z m-3986 -28 c-10 -7 -15 -18 -11 -24 3 -6 1
-11 -4 -11 -18 0 -13 28 7 39 25 15 30 13 8 -4z m3944 -5 c0 -5 -7 -10 -15
-10 -8 0 -15 5 -15 10 0 6 7 10 15 10 8 0 15 -4 15 -10z m-3988 -22 c-7 -7
-12 -8 -12 -2 0 14 12 26 19 19 2 -3 -1 -11 -7 -17z m108 -9 c0 -5 -4 -9 -8
-9 -5 0 -9 7 -9 15 0 8 4 12 9 9 4 -3 8 -9 8 -15z m3755 1 c-3 -5 -12 -10 -18
-10 -7 0 -6 4 3 10 19 12 23 12 15 0z m-3800 -20 c3 -5 1 -10 -4 -10 -6 0 -11
5 -11 10 0 6 2 10 4 10 3 0 8 -4 11 -10z m3782 -87 c-11 -10 -26 8 -20 23 5
15 7 14 15 -1 6 -9 7 -19 5 -22z m-71 -28 c-3 -9 -11 -13 -16 -10 -8 5 -7 11
1 21 14 18 24 11 15 -11z m44 16 c0 -12 -20 -25 -27 -18 -7 7 6 27 18 27 5 0
9 -4 9 -9z m-3610 -21 c0 -5 -4 -10 -10 -10 -5 0 -10 5 -10 10 0 6 5 10 10 10
6 0 10 -4 10 -10z m3475 1 c-3 -5 2 -16 10 -24 19 -20 19 -27 0 -27 -8 0 -14
3 -14 8 4 24 -3 34 -18 28 -15 -5 -15 -4 1 9 23 17 30 19 21 6z m39 -6 c3 -8
1 -15 -4 -15 -6 0 -10 7 -10 15 0 8 2 15 4 15 2 0 6 -7 10 -15z m86 -25 c0 -5
-7 -7 -15 -4 -8 4 -12 10 -9 15 6 11 24 2 24 -11z m-3465 -40 c-3 -5 -1 -10 4
-10 6 0 11 -7 11 -15 0 -8 -5 -15 -11 -15 -5 0 -8 4 -4 9 3 5 1 12 -5 16 -13
8 -13 25 1 25 5 0 7 -4 4 -10z m3235 -25 c0 -2 -10 -9 -22 -15 -22 -11 -22
-10 -4 4 21 17 26 19 26 11z m34 -30 c-4 -8 -8 -15 -10 -15 -2 0 -4 7 -4 15 0
8 4 15 10 15 5 0 7 -7 4 -15z m-3174 -5 c0 -5 -2 -10 -4 -10 -3 0 -8 5 -11 10
-3 6 -1 10 4 10 6 0 11 -4 11 -10z m17 -52 c-16 -10 -21 -2 -13 19 6 15 9 15
16 3 6 -9 5 -17 -3 -22z m2978 13 c3 -5 1 -12 -5 -16 -5 -3 -10 1 -10 9 0 18
6 21 15 7z m-40 -62 c4 -6 4 -13 0 -17 -4 -4 -10 -1 -12 6 -4 10 -8 10 -19 1
-8 -6 -14 -7 -14 -2 0 23 33 32 45 12z m35 1 c0 -5 -4 -10 -10 -10 -5 0 -10 5
-10 10 0 6 5 10 10 10 6 0 10 -4 10 -10z m-2830 -20 c0 -5 -2 -10 -4 -10 -3 0
-8 5 -11 10 -3 6 -1 10 4 10 6 0 11 -4 11 -10z m107 -22 c-3 -8 -6 -5 -6 6 -1
11 2 17 5 13 3 -3 4 -12 1 -19z m2534 -15 c-12 -20 -14 -14 -5 12 4 9 9 14 11
11 3 -2 0 -13 -6 -23z m49 16 c0 -5 5 -7 10 -4 6 3 10 1 10 -4 0 -13 -3 -13
-24 -5 -18 7 -22 24 -6 24 6 0 10 -5 10 -11z m-2555 -9 c3 -5 1 -10 -4 -10 -6
0 -11 5 -11 10 0 6 2 10 4 10 3 0 8 -4 11 -10z m49 -21 c-8 -13 10 -11 24 3 7
7 12 9 12 4 0 -13 -27 -35 -35 -28 -5 4 -5 -1 -2 -10 4 -10 2 -18 -4 -18 -6 0
-9 8 -6 19 2 10 0 25 -5 34 -7 13 -5 15 7 11 8 -3 12 -10 9 -15z m2406 -18 c0
-21 -17 -37 -27 -27 -3 3 -1 12 5 19 7 8 9 17 5 20 -3 4 -1 7 5 7 7 0 12 -9
12 -19z m-2326 -6 c-4 -8 -10 -12 -15 -9 -11 6 -2 24 11 24 5 0 7 -7 4 -15z
m89 -5 c3 -11 1 -18 -4 -14 -5 3 -9 12 -9 20 0 20 7 17 13 -6z m2172 10 c3 -5
-1 -10 -10 -10 -9 0 -13 5 -10 10 3 6 8 10 10 10 2 0 7 -4 10 -10z m-2229 -54
c1 -15 -3 -23 -12 -22 -18 3 -31 16 -15 16 8 0 11 7 7 15 -3 8 0 15 7 15 7 0
13 -11 13 -24z m39 14 c3 -5 -1 -10 -10 -10 -9 0 -13 5 -10 10 3 6 8 10 10 10
2 0 7 -4 10 -10z m2139 -27 c3 -7 1 -13 -3 -13 -5 0 -12 8 -15 17 -6 15 -8 15
-16 3 -7 -11 -9 -10 -8 6 2 18 5 20 20 11 10 -7 20 -17 22 -24z m-1889 17 c3
-5 1 -10 -4 -10 -6 0 -11 5 -11 10 0 6 2 10 4 10 3 0 8 -4 11 -10z m1676 -13
c-10 -9 -11 -8 -5 6 3 10 9 15 12 12 3 -3 0 -11 -7 -18z m-1791 -21 c0 -6 -7
-3 -14 6 -7 10 -17 14 -21 10 -5 -4 -5 -1 -1 6 6 10 11 10 22 1 8 -6 14 -17
14 -23z m1670 30 c0 -2 -7 -7 -16 -10 -8 -3 -12 -2 -9 4 6 10 25 14 25 6z
m-1525 -16 c-3 -5 -12 -10 -18 -10 -7 0 -6 4 3 10 19 12 23 12 15 0z m1805
-20 c6 -11 7 -20 3 -20 -5 0 -14 9 -21 20 -7 11 -8 20 -2 20 5 0 14 -9 20 -20z
m-150 -11 c0 -5 4 -8 9 -4 5 3 12 1 16 -5 10 -16 -21 -12 -35 5 -9 10 -9 15
-1 15 6 0 11 -5 11 -11z m-1645 -9 c3 -5 1 -10 -4 -10 -6 0 -11 5 -11 10 0 6
2 10 4 10 3 0 8 -4 11 -10z m1610 0 c3 -5 1 -10 -4 -10 -6 0 -11 5 -11 10 0 6
2 10 4 10 3 0 8 -4 11 -10z m-1641 -27 c4 -9 1 -21 -5 -27 -9 -8 -10 -8 -5 2
4 7 2 19 -4 27 -7 9 -8 15 -2 15 5 0 13 -8 16 -17z m124 -15 c-5 -13 -38 -20
-38 -8 0 8 17 18 33 19 5 1 7 -4 5 -11z m1177 2 c3 -5 1 -10 -4 -10 -6 0 -11
5 -11 10 0 6 2 10 4 10 3 0 8 -4 11 -10z m105 0 c0 -5 -4 -10 -10 -10 -5 0
-10 5 -10 10 0 6 5 10 10 10 6 0 10 -4 10 -10z m-427 -15 c-3 -9 -8 -14 -10
-11 -3 3 -2 9 2 15 9 16 15 13 8 -4z m-823 -10 c0 -8 -4 -15 -10 -15 -5 0 -7
7 -4 15 4 8 8 15 10 15 2 0 4 -7 4 -15z m1120 11 c0 -3 -4 -8 -10 -11 -5 -3
-10 -1 -10 4 0 6 5 11 10 11 6 0 10 -2 10 -4z m50 -6 c0 -5 -5 -10 -11 -10 -5
0 -7 5 -4 10 3 6 8 10 11 10 2 0 4 -4 4 -10z m-1065 -19 c-8 -14 -35 -14 -35
0 0 6 7 9 15 5 8 -3 15 0 15 6 0 6 3 9 6 5 3 -3 3 -10 -1 -16z m165 4 c-7 -9
-15 -13 -17 -11 -7 7 7 26 19 26 6 0 6 -6 -2 -15z m645 5 c-3 -5 -12 -10 -18
-10 -7 0 -6 4 3 10 19 12 23 12 15 0z m173 -8 c28 -16 29 -32 1 -32 -11 0 -18
4 -14 9 3 5 -4 12 -15 16 -22 7 -28 25 -7 21 6 -1 22 -8 35 -14z m134 -4 c-6
-6 -15 -8 -19 -4 -4 4 -1 11 7 16 19 12 27 3 12 -12z m-774 -13 c-3 -3 -9 2
-12 12 -6 14 -5 15 5 6 7 -7 10 -15 7 -18z m502 15 c0 -5 -5 -10 -11 -10 -5 0
-7 5 -4 10 3 6 8 10 11 10 2 0 4 -4 4 -10z m23 -5 c-3 -9 -8 -14 -10 -11 -3 3
-2 9 2 15 9 16 15 13 8 -4z m172 5 c3 -5 2 -10 -4 -10 -5 0 -13 5 -16 10 -3 6
-2 10 4 10 5 0 13 -4 16 -10z m42 3 c-4 -3 -2 -12 4 -20 9 -9 8 -13 0 -13 -6
0 -11 5 -11 11 0 5 -4 7 -10 4 -5 -3 -10 -2 -10 4 0 5 6 12 13 14 18 8 21 8
14 0z m-837 -13 c0 -5 -4 -10 -10 -10 -5 0 -12 -11 -16 -25 -6 -26 -24 -29
-32 -7 -2 7 3 12 11 12 8 0 17 9 20 20 5 20 27 28 27 10z m-120 -13 c0 -5 -10
-5 -21 -2 -15 5 -19 4 -15 -4 4 -6 2 -11 -3 -11 -12 0 -15 13 -5 23 9 8 44 4
44 -6z m174 -2 c-4 -8 -10 -12 -15 -9 -11 6 -2 24 11 24 5 0 7 -7 4 -15z m104
-17 c7 -1 9 -5 4 -10 -5 -5 -21 -1 -38 8 -26 14 -26 15 -4 9 14 -3 31 -7 38
-7z m72 3 c0 -12 -20 -25 -27 -18 -7 7 6 27 18 27 5 0 9 -4 9 -9z m34 -12 c-8
-14 -24 -10 -24 6 0 9 6 12 15 9 8 -4 12 -10 9 -15z m446 11 c0 -5 -4 -10 -10
-10 -5 0 -10 5 -10 10 0 6 5 10 10 10 6 0 10 -4 10 -10z m-340 -10 c0 -5 -4
-10 -10 -10 -5 0 -10 5 -10 10 0 6 5 10 10 10 6 0 10 -4 10 -10z"/>
<path d="M4845 3395 c-117 -76 -307 -200 -735 -480 l-145 -95 173 0 173 0 101
90 c56 49 103 89 104 87 1 -1 -1 -24 -6 -52 -5 -27 -11 -67 -14 -87 l-5 -38
79 0 78 0 5 33 c3 17 11 82 17 142 14 137 18 157 30 150 11 -7 100 -276 100
-304 0 -19 6 -21 54 -21 l53 0 -4 123 c-5 142 -13 144 101 -22 69 -100 70
-101 110 -101 l41 0 -7 88 c-3 48 -7 119 -7 157 l-1 70 33 -55 c19 -30 61 -97
95 -149 34 -51 62 -97 62 -102 0 -4 79 -9 175 -11 96 -2 175 0 175 3 0 3 -127
127 -282 275 -391 372 -404 384 -414 384 -5 0 -67 -38 -139 -85z"/>
<path d="M8350 4400 c0 -5 5 -10 11 -10 5 0 7 5 4 10 -3 6 -8 10 -11 10 -2 0
-4 -4 -4 -10z"/>
<path d="M8350 4371 c0 -6 6 -11 13 -11 8 0 7 -4 -3 -10 -9 -6 -10 -10 -3 -10
19 0 24 17 8 30 -10 9 -15 9 -15 1z"/>
<path d="M8345 4241 c-3 -6 -3 -11 2 -11 4 0 2 -4 -6 -9 -8 -5 -9 -11 -3 -15
6 -3 14 3 17 15 8 23 1 36 -10 20z"/>
<path d="M8330 3999 c0 -5 5 -7 10 -4 6 3 10 8 10 11 0 2 -4 4 -10 4 -5 0 -10
-5 -10 -11z"/>
<path d="M8300 3881 c0 -6 4 -13 10 -16 6 -3 7 1 4 9 -7 18 -14 21 -14 7z"/>
<path d="M8140 3359 c0 -5 5 -7 10 -4 6 3 10 8 10 11 0 2 -4 4 -10 4 -5 0 -10
-5 -10 -11z"/>
<path d="M8100 3271 c0 -6 4 -13 10 -16 6 -3 7 1 4 9 -7 18 -14 21 -14 7z"/>
<path d="M8056 3201 c-4 -7 -5 -15 -2 -18 9 -9 19 4 14 18 -4 11 -6 11 -12 0z"/>
<path d="M8041 3116 c-9 -11 -9 -16 0 -22 7 -4 9 -3 5 4 -3 6 2 12 11 14 12 2
14 6 7 11 -7 4 -17 0 -23 -7z"/>
<path d="M8055 3070 c3 -5 8 -10 11 -10 2 0 4 5 4 10 0 6 -5 10 -11 10 -5 0
-7 -4 -4 -10z"/>
<path d="M7980 3034 c0 -8 5 -12 10 -9 6 4 8 11 5 16 -9 14 -15 11 -15 -7z"/>
<path d="M7993 3005 c-3 -9 -3 -18 -1 -21 3 -3 8 4 11 16 6 23 -1 27 -10 5z"/>
<path d="M2546 2992 c-3 -5 1 -15 9 -22 16 -14 20 -3 6 19 -5 8 -11 9 -15 3z"/>
<path d="M7917 2958 c6 -11 31 -10 37 1 3 5 -5 8 -18 7 -13 0 -22 -4 -19 -8z"/>
<path d="M2555 2930 c3 -5 8 -10 11 -10 2 0 4 5 4 10 0 6 -5 10 -11 10 -5 0
-7 -4 -4 -10z"/>
<path d="M7908 2923 c10 -18 42 -27 42 -12 0 5 -7 9 -15 9 -8 0 -15 5 -15 10
0 6 -5 10 -10 10 -7 0 -8 -6 -2 -17z"/>
<path d="M7740 2640 c-9 -6 -10 -10 -3 -10 6 0 15 5 18 10 8 12 4 12 -15 0z"/>
<path d="M7605 2419 c-4 -6 -5 -12 -2 -15 2 -3 7 2 10 11 7 17 1 20 -8 4z"/>
<path d="M2910 2371 c0 -6 4 -13 10 -16 6 -3 7 1 4 9 -7 18 -14 21 -14 7z"/>
<path d="M2965 2319 c-4 -6 -5 -12 -2 -15 2 -3 7 2 10 11 7 17 1 20 -8 4z"/>
<path d="M3006 2272 c-3 -5 1 -9 9 -9 8 0 12 4 9 9 -3 4 -7 8 -9 8 -2 0 -6 -4
-9 -8z"/>
<path d="M7436 2265 c-9 -26 -7 -32 5 -12 6 10 9 21 6 23 -2 3 -7 -2 -11 -11z"/>
<path d="M7390 2240 c-13 -8 -12 -10 3 -10 9 0 17 5 17 10 0 12 -1 12 -20 0z"/>
<path d="M7465 2240 c3 -5 8 -10 11 -10 2 0 4 5 4 10 0 6 -5 10 -11 10 -5 0
-7 -4 -4 -10z"/>
<path d="M3042 2226 c7 -8 15 -12 17 -11 5 6 -10 25 -20 25 -5 0 -4 -6 3 -14z"/>
<path d="M7425 2221 c-3 -5 0 -13 6 -17 7 -4 9 -3 5 4 -3 5 0 13 6 15 9 4 10
6 1 6 -6 1 -14 -3 -18 -8z"/>
<path d="M7335 2200 c-3 -5 -1 -10 4 -10 6 0 11 5 11 10 0 6 -2 10 -4 10 -3 0
-8 -4 -11 -10z"/>
<path d="M7460 2199 c0 -5 5 -7 10 -4 6 3 10 8 10 11 0 2 -4 4 -10 4 -5 0 -10
-5 -10 -11z"/>
<path d="M7405 2190 c3 -5 8 -10 11 -10 2 0 4 5 4 10 0 6 -5 10 -11 10 -5 0
-7 -4 -4 -10z"/>
<path d="M3067 2179 c7 -7 15 -10 18 -7 3 3 -2 9 -12 12 -14 6 -15 5 -6 -5z"/>
<path d="M7380 2171 c0 -6 4 -13 10 -16 6 -3 7 1 4 9 -7 18 -14 21 -14 7z"/>
<path d="M7361 2154 c0 -11 3 -14 6 -6 3 7 2 16 -1 19 -3 4 -6 -2 -5 -13z"/>
<path d="M7280 2109 c0 -5 5 -7 10 -4 6 3 10 8 10 11 0 2 -4 4 -10 4 -5 0 -10
-5 -10 -11z"/>
<path d="M3165 2060 c3 -5 8 -10 11 -10 2 0 4 5 4 10 0 6 -5 10 -11 10 -5 0
-7 -4 -4 -10z"/>
<path d="M3230 2050 c0 -5 7 -10 16 -10 8 0 12 5 9 10 -3 6 -10 10 -16 10 -5
0 -9 -4 -9 -10z"/>
<path d="M7171 2036 c-8 -9 -8 -16 -2 -20 5 -4 12 -2 16 4 3 5 3 10 -2 11 -4
0 1 4 12 9 15 7 16 9 4 9 -9 1 -22 -5 -28 -13z"/>
<path d="M3233 2015 c0 -8 4 -12 9 -9 5 3 6 10 3 15 -9 13 -12 11 -12 -6z"/>
<path d="M3254 1994 c-18 -14 -18 -15 4 -4 12 6 22 13 22 15 0 8 -5 6 -26 -11z"/>
<path d="M7150 1985 c-7 -8 -9 -15 -6 -15 4 0 14 7 22 15 9 8 11 15 6 15 -5 0
-15 -7 -22 -15z"/>
<path d="M7175 1970 c3 -5 8 -10 11 -10 2 0 4 5 4 10 0 6 -5 10 -11 10 -5 0
-7 -4 -4 -10z"/>
<path d="M7100 1950 c0 -5 5 -10 11 -10 5 0 7 5 4 10 -3 6 -8 10 -11 10 -2 0
-4 -4 -4 -10z"/>
<path d="M3420 1905 c0 -8 5 -15 10 -15 6 0 10 7 10 15 0 8 -4 15 -10 15 -5 0
-10 -7 -10 -15z"/>
<path d="M6995 1891 c-3 -5 -1 -12 5 -16 5 -3 10 1 10 9 0 18 -6 21 -15 7z"/>
<path d="M3460 1860 c0 -5 5 -10 11 -10 5 0 7 5 4 10 -3 6 -8 10 -11 10 -2 0
-4 -4 -4 -10z"/>
<path d="M6985 1850 c3 -5 8 -10 11 -10 2 0 4 5 4 10 0 6 -5 10 -11 10 -5 0
-7 -4 -4 -10z"/>
<path d="M6811 1763 c7 -10 15 -20 16 -22 2 -2 3 3 3 11 0 9 -7 19 -16 22 -15
6 -15 4 -3 -11z"/>
<path d="M3693 1745 c0 -8 7 -15 15 -15 7 0 12 5 10 12 -6 18 -25 21 -25 3z"/>
<path d="M6780 1750 c0 -5 5 -10 11 -10 5 0 7 5 4 10 -3 6 -8 10 -11 10 -2 0
-4 -4 -4 -10z"/>
<path d="M6741 1726 c-10 -12 -8 -13 8 -9 12 3 18 9 15 14 -7 12 -10 11 -23
-5z"/>
<path d="M3680 1710 c0 -5 5 -10 11 -10 5 0 7 5 4 10 -3 6 -8 10 -11 10 -2 0
-4 -4 -4 -10z"/>
<path d="M3835 1690 c-3 -5 -4 -14 -1 -19 4 -5 1 -11 -5 -13 -8 -3 -7 -7 2
-15 11 -9 14 -5 15 23 1 36 -1 41 -11 24z"/>
<path d="M6573 1673 c-15 -5 -17 -23 -4 -23 5 0 11 7 15 15 3 8 4 15 3 14 -1
0 -8 -3 -14 -6z"/>
<path d="M6640 1671 c0 -6 5 -13 12 -17 6 -4 8 -3 4 4 -3 5 0 13 6 15 8 3 6 6
-4 6 -10 1 -18 -3 -18 -8z"/>
<path d="M3761 1654 c0 -11 3 -14 6 -6 3 7 2 16 -1 19 -3 4 -6 -2 -5 -13z"/>
<path d="M6675 1650 c-3 -6 1 -7 9 -4 18 7 21 14 7 14 -6 0 -13 -4 -16 -10z"/>
<path d="M6604 1636 c-10 -8 -17 -17 -14 -19 3 -3 14 1 24 9 11 7 17 16 15 19
-3 3 -14 -2 -25 -9z"/>
<path d="M6560 1619 c0 -5 5 -7 10 -4 6 3 10 8 10 11 0 2 -4 4 -10 4 -5 0 -10
-5 -10 -11z"/>
<path d="M3875 1610 c-3 -5 -1 -10 4 -10 6 0 11 5 11 10 0 6 -2 10 -4 10 -3 0
-8 -4 -11 -10z"/>
<path d="M6340 1591 c0 -6 -7 -8 -15 -5 -8 4 -15 1 -15 -5 0 -6 7 -11 15 -11
9 0 12 -6 9 -17 -5 -15 -3 -15 10 1 19 23 20 32 6 41 -5 3 -10 2 -10 -4z"/>
<path d="M6490 1589 c0 -5 5 -7 10 -4 6 3 10 8 10 11 0 2 -4 4 -10 4 -5 0 -10
-5 -10 -11z"/>
<path d="M4110 1509 c0 -5 5 -7 10 -4 6 3 10 8 10 11 0 2 -4 4 -10 4 -5 0 -10
-5 -10 -11z"/>
<path d="M6261 1504 c0 -11 3 -14 6 -6 3 7 2 16 -1 19 -3 4 -6 -2 -5 -13z"/>
<path d="M4335 1480 c3 -5 8 -10 11 -10 2 0 4 5 4 10 0 6 -5 10 -11 10 -5 0
-7 -4 -4 -10z"/>
<path d="M4220 1470 c0 -5 5 -10 11 -10 5 0 7 5 4 10 -3 6 -8 10 -11 10 -2 0
-4 -4 -4 -10z"/>
<path d="M5934 1463 c-6 -10 -11 -20 -11 -23 0 -3 -5 -15 -11 -27 -7 -13 -8
-24 -3 -28 5 -3 11 5 13 17 2 12 9 24 17 26 9 3 12 0 8 -11 -4 -11 0 -13 13
-10 16 4 17 8 7 23 -6 10 -15 17 -19 14 -4 -3 -5 1 -2 9 3 9 13 13 26 9 14 -3
19 -1 14 6 -11 18 -40 14 -52 -5z"/>
<path d="M4300 1458 c0 -4 4 -8 9 -8 6 0 12 4 15 8 3 5 -1 9 -9 9 -8 0 -15 -4
-15 -9z"/>
<path d="M6020 1460 c0 -14 28 -19 38 -7 8 9 4 12 -14 13 -13 1 -24 -2 -24 -6z"/>
<path d="M5820 1445 c-10 -12 -9 -15 7 -15 11 0 20 7 20 15 0 8 -4 15 -7 15
-4 0 -13 -7 -20 -15z"/>
<path d="M5860 1446 c0 -9 5 -16 10 -16 6 0 10 4 10 9 0 6 -4 13 -10 16 -5 3
-10 -1 -10 -9z"/>
<path d="M4415 1440 c-3 -5 1 -10 9 -10 9 0 16 5 16 10 0 6 -4 10 -9 10 -6 0
-13 -4 -16 -10z"/>
<path d="M4525 1410 c3 -5 8 -10 11 -10 2 0 4 5 4 10 0 6 -5 10 -11 10 -5 0
-7 -4 -4 -10z"/>
<path d="M5807 1414 c-4 -4 -7 -14 -7 -23 0 -11 3 -12 11 -4 6 6 10 16 7 23
-2 6 -7 8 -11 4z"/>
<path d="M5506 1402 c-4 -7 -12 -10 -17 -7 -5 4 -9 -3 -9 -14 0 -12 3 -21 6
-21 12 0 35 31 32 42 -3 9 -6 9 -12 0z"/>
<path d="M5547 1396 c-6 -16 2 -28 14 -20 12 7 11 34 0 34 -5 0 -11 -6 -14
-14z"/>
<path d="M5705 1400 c-3 -5 -1 -10 4 -10 6 0 11 5 11 10 0 6 -2 10 -4 10 -3 0
-8 -4 -11 -10z"/>
<path d="M4710 1390 c-9 -6 -10 -10 -3 -10 6 0 15 5 18 10 8 12 4 12 -15 0z"/>
<path d="M4568 1383 c7 -3 16 -2 19 1 4 3 -2 6 -13 5 -11 0 -14 -3 -6 -6z"/>
<path d="M4936 1373 c-12 -12 -6 -25 8 -20 9 4 16 -1 18 -11 3 -16 4 -16 10 0
7 18 -23 44 -36 31z"/>
<path d="M4994 1369 c-5 -9 -2 -10 9 -6 9 3 17 3 20 -1 2 -4 3 -3 2 2 -2 15
-22 18 -31 5z"/>
<path d="M5290 1360 c-9 -6 -10 -10 -3 -10 6 0 15 5 18 10 8 12 4 12 -15 0z"/>
<path d="M4620 1350 c0 -5 5 -10 11 -10 5 0 7 5 4 10 -3 6 -8 10 -11 10 -2 0
-4 -4 -4 -10z"/>
<path d="M5450 1352 c0 -5 7 -13 16 -16 10 -4 14 -1 12 6 -5 15 -28 23 -28 10z"/>
<path d="M5512 1348 c-15 -15 -15 -28 -1 -28 5 0 7 5 4 10 -3 6 4 14 17 19 14
6 17 10 8 10 -9 1 -21 -4 -28 -11z"/>
<path d="M4800 1346 c0 -2 9 -6 20 -9 11 -3 20 -1 20 4 0 5 -9 9 -20 9 -11 0
-20 -2 -20 -4z"/>
<path d="M5220 1339 c0 -5 5 -7 10 -4 6 3 10 8 10 11 0 2 -4 4 -10 4 -5 0 -10
-5 -10 -11z"/>
<path d="M5705 1340 c-3 -5 -1 -10 4 -10 6 0 11 5 11 10 0 6 -2 10 -4 10 -3 0
-8 -4 -11 -10z"/>
<path d="M4995 1330 c-3 -5 -1 -10 4 -10 6 0 11 5 11 10 0 6 -2 10 -4 10 -3 0
-8 -4 -11 -10z"/>
<path d="M5050 1329 c0 -5 5 -7 10 -4 6 3 10 8 10 11 0 2 -4 4 -10 4 -5 0 -10
-5 -10 -11z"/>
<path d="M5315 1330 c-3 -5 -12 -7 -19 -4 -8 3 -16 2 -19 -3 -3 -4 5 -9 18 -9
13 -1 26 4 29 12 6 16 0 19 -9 4z"/>
<path d="M5178 1323 c7 -3 16 -2 19 1 4 3 -2 6 -13 5 -11 0 -14 -3 -6 -6z"/>
<path d="M5140 1299 c0 -5 5 -7 10 -4 6 3 10 8 10 11 0 2 -4 4 -10 4 -5 0 -10
-5 -10 -11z"/>
</g>
</svg>
