<svg fill="#000000" xmlns="http://www.w3.org/2000/svg"  viewBox="0 0 32 32" width="32px" height="32px"><path d="M 5 5 L 5 6 L 5 27 L 27 27 L 27 5 L 5 5 z M 7 7 L 25 7 L 25 25 L 7 25 L 7 7 z M 13 9 C 11.35503 9 10 10.35503 10 12 L 10 15 L 9 15 L 9 17 L 10 17 L 10 23 L 12 23 L 12 21 L 20 21 L 20 23 L 22 23 L 22 17 L 23 17 L 23 15 L 22 15 L 22 12 C 22 10.35503 20.64497 9 19 9 L 13 9 z M 13 11 L 19 11 C 19.56503 11 20 11.43497 20 12 L 20 15 L 12 15 L 12 12 C 12 11.43497 12.43497 11 13 11 z M 12 17 L 14 17 L 14 19 L 12 19 L 12 17 z M 18 17 L 20 17 L 20 19 L 18 19 L 18 17 z"/></svg>