<?xml version="1.0" standalone="no"?>
<!DOCTYPE svg PUBLIC "-//W3C//DTD SVG 20010904//EN"
 "http://www.w3.org/TR/2001/REC-SVG-20010904/DTD/svg10.dtd">
<svg version="1.0" xmlns="http://www.w3.org/2000/svg"
 width="1024.000000pt" height="1024.000000pt" viewBox="0 0 1024.000000 1024.000000"
 preserveAspectRatio="xMidYMid meet">
<metadata>
Created by potrace 1.16, written by Peter Selinger 2001-2019
</metadata>
<g transform="translate(0.000000,1024.000000) scale(0.100000,-0.100000)"
fill="#000000" stroke="none">
<path d="M6705 9566 c-405 -129 -500 -157 -566 -166 -78 -11 -80 -12 -224 -80
-60 -29 -175 -83 -255 -120 -80 -37 -251 -118 -380 -180 -129 -62 -280 -134
-335 -160 -55 -26 -194 -92 -310 -147 -231 -110 -300 -142 -515 -243 -80 -37
-201 -95 -270 -128 -297 -142 -541 -258 -620 -294 -131 -61 -210 -102 -210
-110 0 -4 12 -10 28 -13 123 -26 353 -112 529 -197 l111 -54 199 91 c109 50
387 183 618 294 231 112 575 277 765 366 613 290 792 375 955 455 88 43 212
103 275 133 63 30 203 97 310 149 301 146 357 171 372 165 8 -3 2 -10 -17 -21
-159 -90 -1016 -542 -1340 -707 -225 -114 -411 -214 -412 -221 -2 -7 1 -19 6
-27 8 -12 72 16 343 153 183 92 428 216 543 277 268 140 706 363 723 367 6 2
12 0 12 -5 0 -9 -142 -90 -270 -154 -47 -23 -146 -76 -220 -118 -74 -41 -153
-84 -175 -96 -25 -14 -40 -29 -40 -41 0 -10 5 -18 10 -17 28 6 238 104 464
217 139 70 256 125 259 121 10 -9 -34 -36 -203 -123 -88 -46 -263 -138 -390
-205 -376 -198 -553 -289 -890 -458 -176 -89 -321 -162 -323 -164 -1 -1 2 -14
8 -29 l10 -27 467 237 c258 130 488 246 512 258 25 12 108 54 185 94 317 164
646 325 653 319 3 -4 4 -9 2 -11 -2 -2 -143 -76 -314 -166 -311 -163 -405
-216 -405 -229 0 -4 5 -12 11 -18 16 -16 13 -17 397 173 183 91 338 164 344
162 19 -7 -35 -36 -407 -228 -173 -89 -274 -142 -415 -218 -36 -19 -153 -81
-260 -137 -107 -56 -211 -111 -230 -122 -39 -22 -318 -165 -990 -508 -245
-125 -457 -236 -472 -246 -14 -10 -31 -19 -37 -19 -21 0 -11 -18 22 -38 l32
-19 405 205 c372 188 592 303 1195 621 121 64 308 161 415 215 107 54 200 103
206 108 8 6 13 -4 18 -31 3 -22 8 -46 11 -54 7 -17 -63 -60 -295 -180 -91 -46
-293 -152 -450 -234 -157 -83 -487 -256 -735 -386 -515 -269 -608 -320 -612
-333 -2 -5 20 -22 49 -37 29 -15 60 -32 68 -38 12 -8 42 4 135 54 66 35 242
127 390 205 149 77 335 175 415 217 181 96 735 387 975 512 99 51 320 164 490
250 171 85 361 181 423 213 l112 57 0 -66 0 -67 83 39 c45 21 84 41 86 42 1 2
-20 88 -47 192 -28 103 -61 230 -72 281 -61 262 -210 398 -520 471 -204 48
-188 49 -415 -23z m655 -156 c0 -5 -4 -10 -10 -10 -5 0 -10 5 -10 10 0 6 5 10
10 10 6 0 10 -4 10 -10z m-95 -50 c-3 -5 -10 -10 -16 -10 -5 0 -9 5 -9 10 0 6
7 10 16 10 8 0 12 -4 9 -10z m35 -89 c0 -6 -4 -13 -10 -16 -5 -3 -10 1 -10 9
0 9 5 16 10 16 6 0 10 -4 10 -9z m120 -52 c0 -5 -4 -9 -10 -9 -5 0 -10 7 -10
16 0 8 5 12 10 9 6 -3 10 -10 10 -16z m-210 1 c0 -5 -7 -10 -15 -10 -8 0 -15
5 -15 10 0 6 7 10 15 10 8 0 15 -4 15 -10z m-95 -40 c-3 -5 -10 -10 -16 -10
-5 0 -9 5 -9 10 0 6 7 10 16 10 8 0 12 -4 9 -10z m213 -2 c-2 -6 -10 -14 -16
-16 -7 -2 -10 2 -6 12 7 18 28 22 22 4z m-88 -48 c0 -5 -7 -10 -16 -10 -8 0
-12 5 -9 10 3 6 10 10 16 10 5 0 9 -4 9 -10z m-100 -40 c0 -5 -7 -10 -16 -10
-8 0 -12 5 -9 10 3 6 10 10 16 10 5 0 9 -4 9 -10z m215 0 c-3 -5 -11 -10 -16
-10 -6 0 -7 5 -4 10 3 6 11 10 16 10 6 0 7 -4 4 -10z m-85 -50 c0 -5 -4 -10
-10 -10 -5 0 -10 5 -10 10 0 6 5 10 10 10 6 0 10 -4 10 -10z m207 4 c-3 -3
-12 -4 -19 -1 -8 3 -5 6 6 6 11 1 17 -2 13 -5z m-302 -55 c-8 -12 -35 -12 -35
0 0 11 22 20 33 14 4 -2 5 -9 2 -14z m215 7 c0 -3 -4 -8 -10 -11 -5 -3 -10 -1
-10 4 0 6 5 11 10 11 6 0 10 -2 10 -4z m-95 -46 c-3 -5 -13 -10 -21 -10 -8 0
-12 5 -9 10 3 6 13 10 21 10 8 0 12 -4 9 -10z m-85 -45 c-7 -8 -17 -15 -22
-15 -6 0 -5 7 2 15 7 8 17 15 22 15 6 0 5 -7 -2 -15z"/>
<path d="M6267 8723 c-10 -9 -9 -43 1 -43 12 0 32 23 32 37 0 14 -22 18 -33 6z"/>
<path d="M6206 8683 c-12 -12 -6 -33 9 -33 8 0 15 6 15 14 0 17 -14 28 -24 19z"/>
<path d="M6100 8625 c0 -8 7 -15 15 -15 8 0 15 7 15 15 0 8 -7 15 -15 15 -8 0
-15 -7 -15 -15z"/>
<path d="M6000 8570 c0 -5 5 -10 10 -10 6 0 10 5 10 10 0 6 -4 10 -10 10 -5 0
-10 -4 -10 -10z"/>
<path d="M6320 8509 c0 -24 23 -21 28 4 2 10 -3 17 -12 17 -10 0 -16 -9 -16
-21z"/>
<path d="M7434 8481 c-5 -4 -157 -84 -339 -176 -429 -219 -1004 -517 -1490
-775 -474 -251 -853 -448 -887 -460 -31 -12 -41 -9 -148 40 -63 29 -266 128
-450 220 -354 177 -684 330 -862 399 -122 47 -322 101 -376 101 -21 0 -226
-64 -476 -148 -397 -134 -441 -151 -447 -173 -4 -13 -41 -122 -83 -242 l-75
-217 262 -132 c144 -73 270 -136 279 -140 20 -8 35 -56 168 -538 56 -201 112
-387 124 -415 30 -65 112 -154 173 -187 26 -15 76 -32 111 -39 59 -12 73 -11
200 15 153 31 478 108 832 196 129 32 262 64 295 70 70 14 105 31 160 75 43
35 108 72 480 270 132 70 287 154 345 185 215 118 712 381 714 378 1 -2 7 -27
12 -56 13 -63 20 -56 -151 -149 -570 -313 -735 -401 -973 -524 l-143 -74 2
-50 c2 -38 -1 -50 -11 -52 -8 -1 -36 -5 -62 -8 l-48 -6 0 -245 0 -244 79 0 79
0 1 -175 2 -175 -31 0 c-26 0 -30 -3 -30 -28 0 -28 -2 -29 -87 -46 -47 -9 -90
-19 -95 -22 -5 -3 -8 -192 -8 -420 l1 -415 22 -8 c12 -5 51 -11 87 -15 l65 -7
-3 -1227 c-1 -675 0 -1246 3 -1269 l6 -43 45 0 44 0 2 1218 3 1217 67 3 68 3
2 -1218 3 -1218 93 -3 92 -3 0 1221 0 1220 65 0 65 0 0 -1295 0 -1295 -675 0
-675 0 0 -100 0 -100 1239 0 1238 0 -2 28 c-1 15 -3 60 -3 99 l-2 73 -362 2
-363 3 0 1345 0 1345 56 3 56 3 7 -38 c3 -21 6 -89 6 -150 l0 -113 415 0 415
0 0 745 0 745 -420 0 -420 0 0 -50 0 -50 315 0 315 0 1 -77 c0 -43 2 -270 5
-505 2 -236 1 -428 -3 -428 -5 0 -60 154 -123 343 l-115 342 -160 42 c-87 24
-200 51 -250 61 -89 18 -90 19 -93 50 -3 27 -8 31 -35 34 l-32 3 -3 173 -2
172 57 2 c32 0 66 1 76 0 16 -2 17 16 17 248 l0 250 35 0 c83 0 192 67 230
141 19 36 -12 39 350 -41 716 -160 739 -164 824 -158 53 4 83 13 135 40 42 23
66 31 66 23 0 -7 9 -120 20 -251 29 -343 39 -577 29 -685 -15 -175 -76 -334
-170 -443 -121 -142 -238 -199 -436 -213 l-93 -6 0 -129 0 -130 88 7 c252 20
414 89 573 245 136 134 224 296 270 499 42 183 34 469 -31 1136 -35 354 -64
780 -85 1249 -8 187 -17 341 -19 344 -6 5 -216 -104 -234 -123 -12 -10 -12
-62 -3 -301 22 -608 24 -785 8 -837 -35 -112 -110 -171 -216 -169 -31 0 -112
14 -181 30 -247 60 -548 130 -698 163 -84 18 -158 36 -164 40 -9 6 -6 21 10
56 11 26 44 104 72 173 28 69 54 130 58 136 4 6 50 34 103 63 l96 51 -24 101
c-14 56 -23 102 -21 104 2 1 75 42 163 90 215 118 505 279 585 325 86 50 348
192 487 266 62 32 113 64 113 71 0 14 -179 735 -183 740 -2 1 -8 -1 -13 -6z
m-153 -471 c27 -15 49 -63 49 -109 0 -111 -138 -143 -186 -43 -44 93 50 198
137 152z m-4022 -431 c39 -18 71 -35 71 -39 0 -4 -35 -17 -77 -30 -43 -12
-141 -42 -218 -67 -77 -24 -212 -64 -300 -89 -88 -26 -172 -52 -186 -60 -32
-16 -59 -79 -59 -137 0 -24 27 -137 60 -253 33 -115 97 -337 141 -494 109
-389 129 -451 147 -458 20 -7 137 16 422 85 200 48 568 135 627 148 16 4 20
10 16 27 -9 39 -212 744 -268 933 -29 99 -59 202 -66 228 -9 39 -19 53 -56 78
-24 17 -42 33 -40 36 6 6 148 -55 164 -71 10 -10 56 -159 183 -596 59 -205
167 -591 175 -624 15 -71 -43 -209 -102 -239 -41 -22 -791 -198 -901 -213 -69
-9 -130 9 -182 53 -52 45 -72 85 -111 224 -17 63 -87 310 -156 549 -175 608
-165 567 -160 631 5 54 33 126 66 163 26 29 78 52 222 95 74 22 213 65 309 95
96 30 182 54 191 55 9 1 48 -13 88 -30z m618 -272 c13 -9 70 -183 203 -622
136 -449 141 -465 145 -465 2 0 16 5 30 12 21 10 25 17 20 37 -3 14 -28 109
-55 211 -64 245 -64 243 -48 238 7 -3 45 -104 83 -227 69 -219 70 -222 95
-216 14 4 28 9 31 13 4 4 -8 59 -26 122 -75 261 -96 343 -91 357 8 20 23 9 30
-24 12 -48 137 -433 141 -433 2 0 15 4 29 10 30 11 29 28 -9 150 -31 99 -85
305 -85 324 0 36 18 12 34 -46 32 -117 118 -378 127 -383 4 -3 20 -3 35 1 24
6 26 10 20 45 -3 22 -8 58 -11 82 l-5 42 14 -36 c13 -34 40 -180 34 -183 -7
-4 -165 -80 -299 -144 -144 -68 -145 -69 -162 -114 -16 -42 -85 -134 -93 -125
-3 2 8 26 23 53 25 44 28 59 28 144 0 91 -5 112 -108 475 -60 209 -131 455
-158 547 -27 91 -49 171 -49 176 0 9 52 -5 77 -21z m-366 -60 c9 -28 33 -106
53 -172 97 -311 225 -779 215 -785 -5 -4 -47 -15 -92 -24 -45 -10 -200 -47
-345 -82 -144 -35 -270 -64 -280 -64 -13 0 -25 27 -54 133 -21 72 -72 251
-114 397 -97 337 -124 439 -115 444 16 9 228 71 433 126 125 33 237 64 250 69
13 6 25 10 28 10 3 1 12 -23 21 -52z m2069 -870 c0 -2 -8 -21 -19 -43 -48
-102 -28 -218 55 -321 l27 -33 -31 0 c-39 0 -95 47 -124 103 -27 54 -29 149
-4 197 26 50 96 121 96 97z m231 -17 c28 -15 24 -28 -15 -44 -46 -19 -69 -57
-68 -112 0 -53 21 -88 68 -116 31 -18 34 -23 21 -36 -33 -33 -129 14 -162 79
-8 15 -15 54 -15 85 0 46 5 64 26 92 40 52 103 74 145 52z m-654 -623 l38 -37
-138 0 -138 0 7 -22 c3 -13 8 -25 10 -27 2 -2 70 -5 151 -7 l147 -3 33 -38
c18 -21 32 -41 33 -44 0 -4 -75 -4 -168 -1 -148 4 -358 -8 -429 -25 -23 -5
-23 -5 -23 122 l0 127 220 -3 220 -4 37 -38z m-37 -492 c0 -25 -1 -25 -85 -25
-84 0 -85 0 -85 -25 0 -25 1 -25 85 -25 l85 0 0 -30 0 -30 -85 0 c-84 0 -85 0
-85 -25 0 -25 1 -25 85 -25 84 0 85 0 85 -25 0 -25 -1 -25 -79 -25 -44 0 -83
-4 -86 -10 -3 -5 -33 -10 -66 -10 l-59 0 0 140 0 140 145 0 145 0 0 -25z m345
-385 c117 -10 455 -56 485 -66 15 -5 90 -96 90 -109 0 -3 -8 -4 -17 -1 -24 7
-272 44 -413 61 -150 18 -437 35 -600 35 l-130 0 0 -30 c0 -28 1 -29 58 -32
31 -2 57 -7 57 -13 0 -5 -26 -11 -57 -13 -53 -3 -58 -5 -58 -26 0 -29 28 -36
152 -36 80 0 89 -2 86 -17 -3 -16 -19 -19 -123 -23 -114 -5 -120 -6 -123 -27
-3 -19 2 -22 60 -27 35 -4 90 -5 123 -4 50 3 60 0 63 -14 3 -16 -6 -18 -76
-18 -44 0 -100 -3 -126 -6 -40 -6 -46 -10 -46 -30 0 -23 2 -23 122 -26 108 -3
123 -5 126 -20 3 -16 -7 -18 -100 -18 -128 0 -148 -5 -148 -36 l0 -24 238 0
c130 0 291 -5 357 -10 160 -12 445 -52 445 -61 0 -4 -15 -27 -33 -51 -22 -28
-40 -42 -53 -41 -10 2 -73 12 -139 22 -226 37 -337 43 -681 37 -181 -3 -348
-8 -371 -12 l-43 -6 5 288 c3 159 5 299 5 311 0 19 7 22 53 28 195 25 609 32
812 15z"/>
<path d="M3045 7079 c-82 -22 -156 -43 -164 -45 -16 -5 -16 -6 49 -224 26 -91
74 -257 106 -370 31 -113 58 -206 59 -208 4 -4 301 65 357 84 59 19 108 73
138 150 59 154 -5 436 -128 562 -101 103 -186 113 -417 51z m301 -60 c24 -11
57 -37 75 -57 42 -47 82 -136 74 -162 -9 -28 -21 -25 -35 10 -21 50 -82 105
-133 119 -60 17 -109 7 -152 -31 -29 -25 -38 -28 -50 -18 -21 18 -19 52 8 91
45 67 133 87 213 48z"/>
<path d="M6220 8465 c0 -8 7 -15 15 -15 8 0 15 7 15 15 0 8 -7 15 -15 15 -8 0
-15 -7 -15 -15z"/>
<path d="M6115 8410 c-3 -5 1 -10 9 -10 9 0 16 5 16 10 0 6 -4 10 -9 10 -6 0
-13 -4 -16 -10z"/>
<path d="M6010 8355 c0 -8 5 -15 10 -15 6 0 10 7 10 15 0 8 -4 15 -10 15 -5 0
-10 -7 -10 -15z"/>
<path d="M5910 8305 c0 -8 5 -15 10 -15 6 0 10 7 10 15 0 8 -4 15 -10 15 -5 0
-10 -7 -10 -15z"/>
<path d="M5790 8246 c0 -9 5 -16 10 -16 6 0 10 4 10 9 0 6 -4 13 -10 16 -5 3
-10 -1 -10 -9z"/>
<path d="M5691 8184 c0 -11 3 -14 6 -6 3 7 2 16 -1 19 -3 4 -6 -2 -5 -13z"/>
<path d="M6083 5075 c-71 -30 -83 -114 -23 -167 46 -42 98 -39 139 7 32 37 38
66 21 109 -18 48 -85 73 -137 51z"/>
<path d="M5390 1083 l0 -43 -940 0 -940 0 0 -147 0 -148 1597 3 1598 2 3 189
2 189 -660 -2 -660 -1 0 -42z"/>
</g>
</svg>
