<?xml version="1.0" standalone="no"?>
<!DOCTYPE svg PUBLIC "-//W3C//DTD SVG 20010904//EN"
 "http://www.w3.org/TR/2001/REC-SVG-20010904/DTD/svg10.dtd">
<svg version="1.0" xmlns="http://www.w3.org/2000/svg"
 width="1024.000000pt" height="1024.000000pt" viewBox="0 0 1024.000000 1024.000000"
 preserveAspectRatio="xMidYMid meet">
<metadata>
Created by potrace 1.16, written by Peter Selinger 2001-2019
</metadata>
<g transform="translate(0.000000,1024.000000) scale(0.100000,-0.100000)"
fill="#000000" stroke="none">
<path d="M5093 8139 c-45 -29 -70 -96 -55 -148 7 -21 23 -50 38 -66 14 -15 24
-28 22 -30 -2 -1 -68 -29 -148 -63 -80 -33 -242 -102 -360 -154 -242 -107
-483 -210 -610 -260 l-85 -34 -3 -131 -3 -132 28 2 28 2 3 -107 3 -108 89 0
90 0 0 -965 0 -965 -105 0 -105 0 0 -120 0 -120 -140 0 -140 0 0 -130 c0 -91
-3 -130 -11 -130 -17 0 -228 -122 -329 -190 -203 -137 -439 -353 -573 -524
-228 -294 -370 -577 -457 -914 -22 -85 -40 -259 -39 -387 l0 -130 73 -64 c144
-125 318 -223 488 -275 193 -59 50 -56 2395 -56 2135 0 2156 0 2256 21 223 45
451 162 626 321 l51 46 0 149 c0 173 -9 243 -51 413 -149 599 -605 1164 -1241
1536 l-118 68 0 123 0 123 -135 0 -135 0 0 120 0 120 -100 0 -100 0 2 963 3
962 83 0 82 0 0 113 0 112 30 0 31 0 -3 122 -3 123 -315 135 c-402 173 -884
382 -889 386 -1 1 10 20 25 40 40 51 41 129 4 169 -54 58 -137 73 -197 34z
m212 -560 c66 -27 161 -66 210 -86 50 -19 94 -39 99 -44 6 -5 -177 -9 -435 -9
-346 1 -440 3 -424 12 28 17 408 177 420 178 6 0 64 -23 130 -51z m603 -786
l-3 -118 -118 0 -118 0 3 -848 3 -847 -112 0 -113 0 0 845 0 845 -212 2 c-117
1 -235 2 -263 2 l-50 1 -3 -847 -2 -846 -28 -3 c-15 -2 -67 -3 -115 -1 l-89 4
4 842 3 843 -113 7 c-62 4 -117 4 -122 1 -6 -4 -10 37 -10 109 0 82 4 116 13
119 6 3 335 6 730 6 l718 1 -3 -117z m501 -2647 c36 -35 47 -83 27 -130 -25
-60 -55 -68 -233 -64 l-155 3 -34 37 c-41 45 -45 94 -13 139 28 40 62 46 231
45 147 -2 148 -2 177 -30z m-1195 -46 c403 -58 745 -185 1171 -435 108 -63
245 -132 340 -171 66 -27 81 -29 257 -34 l187 -5 30 -29 c53 -51 39 -142 -26
-175 -36 -18 -387 -15 -454 5 -105 31 -287 117 -506 241 -374 210 -599 298
-916 357 -637 121 -1252 0 -1813 -355 -135 -85 -168 -99 -238 -99 -53 0 -61 3
-92 34 -72 72 -21 182 93 200 26 4 87 33 160 77 397 240 792 375 1199 409 157
13 443 3 608 -20z m217 -847 c56 -56 37 -148 -36 -179 -27 -11 -99 -14 -343
-14 -293 0 -314 -1 -403 -24 -128 -32 -264 -84 -454 -173 -263 -123 -269 -125
-455 -121 l-159 3 -30 29 c-36 35 -48 84 -31 127 24 56 48 63 219 69 l156 6
165 73 c249 111 401 169 524 201 154 40 126 38 488 36 l328 -1 31 -32z m-2184
-319 c82 -103 -5 -223 -145 -201 -52 9 -102 64 -102 112 0 68 37 114 98 125
64 10 123 -4 149 -36z m4105 30 c26 -8 58 -67 58 -108 0 -78 -52 -126 -137
-126 -70 0 -133 60 -133 126 0 20 33 93 43 94 1 0 20 7 42 15 36 13 79 13 127
-1z m-493 -24 c81 -82 22 -210 -97 -210 -80 0 -132 48 -132 122 0 38 28 86 62
104 13 8 49 13 80 14 50 0 60 -4 87 -30z m-1054 -85 c355 -55 666 -156 1006
-325 158 -78 163 -80 236 -80 45 0 85 -6 102 -15 38 -19 65 -77 57 -124 -11
-72 -76 -98 -225 -89 -73 4 -86 9 -271 101 -364 180 -627 263 -972 309 -134
18 -525 15 -673 -5 -332 -43 -626 -140 -962 -314 -177 -92 -180 -93 -451 -93
-258 0 -289 6 -316 59 -29 55 -15 116 33 148 23 16 59 19 271 23 l245 5 210
102 c402 194 693 279 1065 313 140 13 527 4 645 -15z"/>
</g>
</svg>
