<?xml version="1.0" standalone="no"?>
<!DOCTYPE svg PUBLIC "-//W3C//DTD SVG 20010904//EN"
 "http://www.w3.org/TR/2001/REC-SVG-20010904/DTD/svg10.dtd">
<svg version="1.0" xmlns="http://www.w3.org/2000/svg"
 width="1024.000000pt" height="1024.000000pt" viewBox="0 0 1024.000000 1024.000000"
 preserveAspectRatio="xMidYMid meet">
<metadata>
Created by potrace 1.16, written by Peter Selinger 2001-2019
</metadata>
<g transform="translate(0.000000,1024.000000) scale(0.100000,-0.100000)"
fill="#000000" stroke="none">
<path d="M5121 8187 c-7 -9 -12 -109 -13 -298 l-3 -284 -38 -3 c-47 -4 -44 1
-161 -322 l-81 -225 -84 -3 -84 -3 6 81 c6 77 5 83 -18 106 -31 31 -58 31 -83
0 -18 -23 -19 -45 -20 -323 0 -194 3 -304 10 -318 6 -11 26 -38 45 -59 l33
-40 0 -233 0 -233 -81 2 c-78 3 -82 2 -102 -24 l-20 -27 87 -149 c58 -101 84
-156 80 -167 -5 -11 -1 -21 9 -27 14 -7 17 -25 17 -88 l0 -80 -635 0 -635 0 0
158 c0 141 -2 161 -18 175 -24 22 -55 21 -75 -1 -14 -16 -17 -43 -17 -170 l0
-152 -65 -130 c-62 -123 -67 -130 -95 -130 -20 0 -34 -8 -44 -22 -16 -25 -123
-286 -181 -443 -21 -55 -42 -106 -48 -112 -7 -9 -47 -13 -138 -13 -116 0 -131
-2 -149 -20 -31 -31 -46 -5 138 -246 l112 -149 0 -217 0 -218 -39 0 c-43 0
-71 -20 -71 -51 0 -11 25 -53 55 -93 l55 -73 0 -474 0 -473 -42 -44 c-42 -42
-43 -45 -43 -110 l0 -67 -135 0 -135 0 -3 1261 c-2 1113 0 1263 13 1274 24 20
19 83 -8 108 -52 49 -132 9 -130 -64 1 -20 6 -41 12 -47 8 -8 11 -372 11
-1275 l0 -1264 -90 4 c-61 2 -90 -1 -90 -8 0 -23 121 -172 201 -249 191 -183
426 -292 677 -314 143 -13 4230 -13 4338 0 174 20 391 106 525 208 88 67 187
173 254 274 l55 82 -90 3 -90 3 0 422 c-1 1572 1 2112 10 2121 6 6 10 25 10
43 0 75 -95 113 -139 57 -25 -31 -27 -72 -6 -100 12 -16 14 -187 15 -1281 l0
-1263 -136 0 -136 0 4 66 3 66 -45 39 -45 39 0 488 0 488 46 53 c68 78 76 94
55 126 -14 21 -24 25 -61 25 l-45 0 0 214 0 214 61 84 c34 45 93 124 130 174
109 144 98 164 -90 164 l-128 0 -37 83 c-20 45 -74 177 -120 292 l-83 210 -37
3 c-37 3 -38 4 -96 125 l-60 122 0 158 c0 144 -2 159 -20 177 -25 25 -52 26
-73 2 -14 -16 -17 -43 -17 -175 l0 -157 -634 0 -633 0 -7 31 c-10 54 -7 104
10 127 9 13 13 30 10 38 -7 18 5 43 97 197 65 110 69 119 57 143 -18 32 -48
39 -121 27 l-59 -10 0 241 0 241 40 49 40 48 0 307 c0 168 -4 311 -8 317 -25
39 -90 36 -111 -5 -14 -25 -14 -71 -1 -71 6 0 10 -23 10 -50 l0 -51 -86 3 -86
3 -49 135 c-55 152 -98 268 -129 353 -20 54 -23 57 -56 57 l-35 0 3 108 3 107
134 66 c74 36 137 71 139 78 7 22 -18 39 -148 96 -121 53 -130 59 -130 85 0
48 -61 80 -89 47z m118 -1136 c111 -57 161 -193 110 -298 -85 -176 -338 -157
-408 30 -36 95 23 222 124 268 53 24 126 24 174 0z m-509 -260 c0 -114 -6
-131 -47 -131 -23 0 -23 1 -23 119 l0 120 28 3 c15 2 30 2 35 0 4 -2 7 -52 7
-111z m910 -1 l0 -120 -30 0 -30 0 0 113 c0 63 3 117 7 120 3 4 17 7 30 7 23
0 23 -1 23 -120z m-850 -545 l0 -225 -24 0 c-14 0 -27 4 -31 9 -3 5 -2 107 1
225 l7 216 24 0 23 0 0 -225z m320 210 c0 -8 -18 -24 -40 -35 -47 -24 -77 -68
-86 -123 -7 -37 -7 -38 -48 -35 l-41 3 -3 103 -3 102 111 0 c90 0 110 -3 110
-15z m300 -85 l0 -100 -45 0 c-40 0 -45 3 -45 23 0 36 -42 100 -83 126 -63 41
-50 51 68 51 l105 0 0 -100z m162 -115 c2 -118 2 -220 0 -225 -6 -16 -49 -11
-56 6 -8 21 -8 419 1 427 3 4 17 7 29 7 l23 0 3 -215z m-367 70 c14 -13 25
-33 25 -45 0 -18 -6 -20 -81 -20 l-81 0 6 28 c15 61 87 82 131 37z m209 -252
l-5 -53 -45 0 -44 0 0 79 0 80 43 3 c39 3 42 1 50 -27 4 -16 5 -54 1 -82z
m-434 27 l0 -80 -45 0 -45 0 0 80 0 80 45 0 45 0 0 -80z m248 -2 l3 -78 -76 0
-75 0 0 80 0 81 73 -3 72 -3 3 -77z m455 -203 l-18 -25 -514 0 c-481 -1 -514
0 -527 17 -7 10 -14 21 -14 26 0 4 246 7 546 7 l546 0 -19 -25z m-113 -155 l0
-30 -179 0 c-150 0 -180 2 -185 15 -4 10 -19 15 -49 15 -27 0 -49 -6 -57 -15
-10 -12 -44 -15 -186 -15 l-174 0 0 30 0 30 415 0 415 0 0 -30z m-656 -145
c-3 -14 -9 -49 -13 -78 l-6 -52 -77 -3 -78 -3 0 81 0 80 90 0 90 0 -6 -25z
m654 -52 l-3 -78 -79 2 c-43 1 -79 3 -81 5 -1 2 -5 36 -8 76 l-6 72 90 0 90 0
-3 -77z m-448 42 c0 -15 -6 -25 -14 -25 -20 0 -46 -39 -46 -67 0 -19 -5 -23
-30 -23 -27 0 -30 3 -30 34 0 53 49 103 103 105 12 1 17 -7 17 -24z m129 15
c26 -13 48 -51 56 -94 7 -35 6 -36 -23 -36 -25 0 -31 5 -37 29 -3 16 -19 40
-36 55 -16 14 -29 30 -29 34 0 23 38 29 69 12z m-345 -405 c4 -108 4 -200 1
-205 -3 -6 -36 -10 -73 -10 l-67 0 0 37 0 38 -77 3 c-74 3 -78 4 -78 26 0 29
16 36 81 36 l49 0 0 135 0 135 78 0 79 0 7 -195z m156 96 c0 -93 -1 -99 -22
-104 -12 -3 -25 -4 -30 -1 -4 3 -8 50 -8 105 l0 99 30 0 30 0 0 -99z m247 -3
l-2 -103 -27 -3 -28 -3 0 105 0 106 29 0 29 0 -1 -102z m265 -35 l3 -138 58
-3 c52 -3 57 -5 57 -27 0 -30 -11 -33 -87 -27 l-63 5 0 -41 0 -40 -66 -4 c-36
-1 -68 -1 -70 1 -2 2 -4 96 -4 208 l0 203 85 0 84 0 3 -137z m-2272 -8 c0 -9
-14 -53 -31 -98 -49 -133 -45 -126 -78 -125 -17 1 -31 3 -31 5 0 3 14 36 30
73 17 38 39 89 50 114 14 33 25 46 40 46 11 0 20 -7 20 -15z m617 -47 l63 -62
0 -83 0 -83 -135 0 -135 0 0 82 0 82 63 61 c34 34 66 62 72 63 5 1 38 -26 72
-60z m2673 -145 l0 -83 -130 0 -130 0 0 82 0 82 63 61 62 61 67 -60 67 -61 1
-82z m499 96 c29 -61 51 -112 49 -113 -1 -2 -15 -6 -29 -9 -24 -6 -27 -2 -67
101 -48 120 -50 132 -24 132 14 0 33 -29 71 -111z m-1781 -76 c3 -22 0 -23
-70 -23 -40 -1 -110 -3 -155 -5 -81 -4 -83 -3 -83 19 0 12 3 26 7 30 4 3 72 5
152 4 143 -3 146 -3 149 -25z m-988 -200 c0 -5 3 -18 6 -30 l6 -23 -616 0
-616 0 -10 26 c-6 14 -10 27 -10 30 0 7 1240 4 1240 -3z m1514 -15 c-4 -13
-12 -26 -18 -30 -6 -4 -306 -8 -667 -8 l-657 0 -16 25 c-9 13 -16 27 -16 30 0
3 311 5 691 5 l690 0 -7 -22z m1396 17 c0 -3 -7 -17 -16 -30 l-16 -25 -614 0
c-338 0 -614 2 -614 4 0 3 4 16 10 30 l10 26 620 0 c341 0 620 -2 620 -5z
m-2296 -291 c-22 -42 -34 -79 -34 -105 l0 -39 -70 0 c-49 0 -70 4 -70 13 1 31
21 147 30 171 9 25 12 26 94 26 l85 0 -35 -66z m582 55 c9 -15 32 -188 26
-194 -3 -3 -33 -5 -67 -5 l-62 0 -12 58 c-6 32 -25 80 -41 105 l-30 47 90 0
c54 0 92 -4 96 -11z m-436 -96 c-18 -16 -35 -43 -39 -63 -5 -28 -12 -36 -34
-38 -24 -3 -27 0 -27 25 1 42 34 107 66 130 47 33 59 33 62 2 2 -21 -5 -35
-28 -56z m176 51 c54 -39 84 -134 48 -148 -27 -10 -34 -7 -34 17 0 31 -34 84
-59 92 -16 5 -21 15 -21 40 0 39 12 39 66 -1z m-2192 -50 c9 -8 16 -23 16 -32
0 -15 -18 -17 -182 -16 -179 2 -182 2 -201 25 l-19 24 153 5 c85 3 168 7 186
8 18 1 38 -5 47 -14z m254 10 c20 -6 22 -13 22 -65 l0 -59 -35 0 -35 0 0 65
c0 68 2 71 48 59z m951 -41 c7 -27 14 -56 17 -65 5 -17 -20 -18 -420 -18
l-426 0 0 65 0 65 409 0 409 0 11 -47z m186 -18 l0 -59 -32 -2 -33 -2 0 65 0
64 32 -3 33 -3 0 -60z m225 5 c0 -45 -4 -60 -14 -60 -8 0 -21 -3 -29 -6 -11
-4 -16 7 -21 50 -9 66 -4 76 35 76 29 0 29 0 29 -60z m1002 -1 c1 -33 2 -62 0
-63 -1 -2 -13 -1 -27 2 -20 3 -25 12 -31 48 -8 56 -1 74 30 74 23 0 24 -4 28
-61z m238 -5 l0 -65 -32 3 c-33 3 -33 3 -36 66 l-3 62 36 0 35 0 0 -66z m950
1 l0 -65 -424 0 -423 0 9 53 c6 28 12 58 14 65 3 9 94 12 414 12 l410 0 0 -65z
m170 0 l0 -65 -35 0 -35 0 0 65 0 65 35 0 35 0 0 -65z m523 55 l67 0 -16 -25
-16 -25 -194 0 c-107 0 -194 3 -194 8 0 4 7 18 17 31 16 24 18 24 142 18 69
-4 156 -7 194 -7z m-2380 -143 c14 -22 24 -167 19 -289 l-2 -46 -50 -4 -50 -3
0 153 c0 118 4 160 15 182 19 36 47 39 68 7z m-273 -266 l0 -228 -93 -62 -93
-61 -82 0 c-80 0 -82 1 -82 24 0 28 28 36 125 36 57 0 63 2 69 23 3 12 6 126
6 254 0 263 -9 240 93 242 l57 1 0 -229z m631 187 c1 -24 4 -142 8 -263 l6
-220 98 3 99 4 -4 -29 c-3 -28 -3 -28 -86 -31 l-83 -3 -95 67 -94 67 0 218 0
218 33 4 c17 2 51 5 75 5 l42 2 1 -42z m-2453 7 c7 -14 12 -28 12 -30 0 -3
-52 -5 -115 -5 -114 0 -115 0 -115 23 0 13 3 27 7 30 3 4 50 7 103 7 94 0 97
-1 108 -25z m248 9 c-3 -9 -6 -42 -6 -75 0 -59 0 -59 -30 -59 l-30 0 0 75 0
75 36 0 c29 0 35 -3 30 -16z m1124 -59 l0 -75 -35 0 -35 0 0 75 0 75 35 0 35
0 0 -75z m220 0 l0 -75 -30 0 -30 0 0 75 0 75 30 0 30 0 0 -75z m1006 59 c-3
-9 -6 -42 -6 -75 0 -56 -1 -59 -25 -59 -24 0 -25 2 -25 75 l0 75 31 0 c24 0
30 -3 25 -16z m234 -61 l0 -73 -35 0 -35 0 0 68 c0 38 2 71 5 74 3 2 19 5 35
5 l30 0 0 -74z m546 67 c388 0 404 -1 404 -19 0 -10 8 -38 17 -62 13 -34 18
-89 23 -234 l5 -190 120 0 120 0 3 185 2 185 128 -3 c70 -2 128 -4 128 -5 1
-1 5 -113 9 -249 l7 -248 -127 0 c-127 0 -127 0 -122 23 12 46 -1 51 -153 52
-77 0 -146 -2 -151 -6 -6 -3 -9 -19 -7 -35 l3 -29 -427 -3 -427 -2 -3 37 -3
38 -74 1 c-57 1 -76 5 -83 18 -13 23 -2 36 30 36 15 0 44 3 65 6 l37 7 0 181
c0 126 5 200 15 245 18 76 23 84 42 77 8 -3 197 -6 419 -6z m574 -65 l0 -75
-35 0 -35 0 0 68 c0 38 3 72 7 75 3 4 19 7 35 7 l28 0 0 -75z m398 43 l3 -28
-121 0 -121 0 16 30 16 31 102 -3 102 -3 3 -27z m-3139 -35 c7 -32 15 -144 18
-250 6 -216 0 -203 91 -203 45 0 53 -12 29 -45 -11 -14 -22 -17 -58 -12 -24 3
-56 3 -71 0 -24 -5 -28 -10 -28 -39 l0 -34 -424 0 -425 0 -3 37 -3 38 -147 2
c-138 2 -147 1 -153 -17 -4 -11 -3 -29 0 -40 6 -19 2 -20 -119 -20 l-126 0 0
250 0 250 135 0 135 0 2 -182 3 -183 109 -3 c60 -1 113 1 118 6 5 5 10 89 12
188 3 138 7 188 20 216 9 21 16 51 16 68 l0 30 428 0 428 0 13 -57z m1035
-473 c91 -60 166 -112 166 -115 0 -3 -17 -5 -38 -5 -30 0 -64 16 -166 80 -70
44 -132 80 -137 80 -18 0 -134 -63 -206 -111 -61 -41 -79 -49 -119 -49 l-47 0
44 32 c70 51 312 198 325 198 7 0 87 -49 178 -110z m-154 -85 l23 -25 -51 0
c-56 0 -61 4 -35 32 22 24 35 23 63 -7z m730 -145 l0 -26 -760 -3 -760 -3 0
25 c0 14 6 27 13 30 6 2 348 4 760 3 l747 0 0 -26z m-2861 -30 l98 0 2 -120 2
-120 -135 0 -136 0 0 119 c0 116 1 120 23 124 12 2 28 3 35 1 8 -2 58 -4 111
-4z m1241 -60 l0 -70 -425 0 -425 0 0 65 0 65 418 3 c229 1 420 3 425 5 4 1 7
-29 7 -68z m3134 -48 c3 -63 4 -118 1 -123 -4 -5 -64 -9 -136 -9 l-129 0 0
119 c0 86 4 121 13 125 6 3 64 4 128 3 l116 -2 7 -113z m-4086 46 c-3 -63 -3
-63 -35 -66 l-33 -3 0 65 0 66 35 0 36 0 -3 -62z m3530 0 l-3 -63 -422 -3
-423 -2 0 65 0 65 425 0 426 0 -3 -62z m172 -3 l0 -65 -35 0 -35 0 0 65 0 65
35 0 35 0 0 -65z m-1290 -51 l0 -24 -597 2 -598 3 -3 22 -3 23 593 2 c326 2
596 2 601 0 4 -2 7 -14 7 -28z m-2413 -164 l-2 -80 -32 0 -33 0 0 80 0 80 35
0 35 0 -3 -80z m961 20 c8 -32 16 -145 19 -273 l6 -219 66 4 66 3 0 -35 0 -35
-506 -3 c-502 -2 -507 -2 -512 18 -5 19 -12 20 -88 18 -75 -3 -84 -1 -87 16
-5 26 15 36 76 36 l52 0 0 163 c0 131 4 180 22 259 18 81 25 98 42 101 12 3
203 4 426 3 l405 -1 13 -55z m2590 -27 c19 -75 22 -114 22 -265 l0 -178 65 0
65 0 0 -31 0 -32 -86 7 c-79 7 -85 6 -82 -11 3 -17 -21 -18 -507 -18 l-510 0
0 30 0 30 68 3 67 3 0 202 c0 186 12 300 36 338 3 5 193 9 422 9 l417 0 23
-87z m152 7 l0 -80 -35 0 c-35 0 -35 1 -35 43 0 23 3 59 6 80 6 33 10 37 35
37 l29 0 0 -80z m-2616 46 c21 -19 26 -32 26 -75 0 -50 -1 -51 -30 -51 l-30 0
0 75 c0 41 2 75 4 75 3 0 16 -11 30 -24z m1496 -51 l0 -75 -35 0 c-35 0 -35 0
-35 44 0 33 7 52 26 75 14 17 30 31 35 31 5 0 9 -34 9 -75z m-1280 -283 l0
-309 -42 1 -42 1 -1 120 c-1 66 1 204 3 308 l5 187 39 0 38 0 0 -308z m228 1
l2 -303 -45 0 -45 0 0 298 c0 164 3 302 7 306 4 4 23 6 43 4 l35 -3 3 -302z
m652 -1 l0 -307 -40 0 -40 0 0 307 0 308 40 0 40 0 0 -308z m230 3 l0 -305
-40 0 -40 0 0 298 c0 164 3 302 7 305 3 4 21 7 40 7 l33 0 0 -305z m-2600 -5
l0 -250 -135 0 -135 0 0 250 0 250 135 0 135 0 0 -250z m4275 58 c4 -106 5
-218 3 -248 l-3 -55 -139 -3 -139 -3 6 107 c4 59 7 172 7 251 l0 143 129 0
129 0 7 -192z m-2115 82 l0 -30 -160 0 -160 0 0 30 0 30 160 0 160 0 0 -30z
m-200 -355 l0 -235 -60 0 -60 0 0 235 0 235 60 0 60 0 0 -235z m200 0 l0 -236
-57 3 -58 3 -3 233 -2 232 60 0 60 0 0 -235z m-2230 -155 c-14 -48 -17 -50
-106 -50 l-84 0 0 40 0 40 99 0 100 0 -9 -30z m1218 -7 l-3 -38 -427 -3 c-471
-2 -438 -7 -422 56 l6 22 425 0 424 0 -3 -37z m2562 -3 l0 -40 -420 0 -420 0
0 40 0 40 420 0 420 0 0 -40z m180 0 l0 -40 -40 0 c-39 0 -40 1 -40 34 0 37 9
44 53 45 25 1 27 -2 27 -39z m390 6 c0 -25 -5 -36 -19 -41 -23 -7 -171 -3
-175 4 -2 4 -7 21 -11 39 l-7 32 106 0 106 0 0 -34z m-4078 -6 c6 -38 4 -40
-49 -40 -41 0 -43 2 -43 28 0 37 6 42 51 42 33 0 37 -3 41 -30z m1308 -27 c0
-33 -14 -38 -87 -35 -62 3 -73 6 -73 21 0 28 9 31 87 31 63 0 73 -2 73 -17z
m216 -5 c-3 -13 -6 -26 -6 -30 0 -5 -20 -8 -44 -8 -36 0 -45 4 -49 22 -9 32
-1 38 55 38 47 0 50 -1 44 -22z m652 -5 c-3 -25 -7 -28 -45 -31 -42 -3 -43 -2
-43 27 0 30 1 31 46 31 44 0 45 -1 42 -27z m282 2 c0 -25 -1 -25 -80 -25 -79
0 -80 0 -80 25 0 25 1 25 80 25 79 0 80 0 80 -25z m-2750 -130 l0 -35 -130 0
-130 0 0 29 c0 35 8 37 158 40 l102 1 0 -35z m290 -6 l0 -40 -42 3 c-42 3 -43
5 -46 41 l-3 37 45 0 46 0 0 -41z m940 6 l0 -35 -425 0 -425 0 0 28 c0 16 3
32 7 35 3 4 195 7 425 7 l418 0 0 -35z m2572 12 c9 -48 21 -47 -423 -47 l-419
0 -6 26 c-4 17 -2 29 7 35 8 5 199 9 425 9 l412 0 4 -23z m178 -17 l0 -40 -40
0 -40 0 0 40 0 40 40 0 40 0 0 -40z m468 3 l3 -33 -140 0 -141 0 0 29 c0 36
13 39 170 37 l105 -1 3 -32z m-1698 -13 c0 -20 -7 -20 -655 -20 -648 0 -655 0
-655 20 0 20 7 20 655 20 648 0 655 0 655 -20z m-5 -128 c0 -16 -52 -17 -644
-20 -393 -1 -649 2 -654 7 -5 5 -7 16 -4 23 4 11 115 13 653 10 596 -4 649 -5
649 -20z m3 -119 c-3 -17 -43 -18 -651 -21 -642 -2 -647 -2 -647 18 0 20 6 20
651 20 614 0 650 -1 647 -17z m2 -128 l0 -25 -652 2 -653 3 -3 23 -3 22 655 0
656 0 0 -25z m0 -130 l0 -25 -655 0 -655 0 0 25 0 25 655 0 655 0 0 -25z"/>
<path d="M5081 6973 c-68 -34 -93 -132 -51 -201 29 -48 97 -76 149 -62 78 21
127 84 118 151 -13 101 -123 158 -216 112z"/>
<path d="M3807 5132 c-19 -20 -27 -39 -27 -64 0 -32 3 -36 31 -42 63 -12 89
-8 99 19 12 30 5 52 -28 88 -32 34 -42 34 -75 -1z"/>
<path d="M6423 5132 c-14 -17 -23 -41 -23 -63 l0 -36 57 -7 c63 -7 73 -1 73
51 0 25 -8 38 -33 57 -42 32 -47 32 -74 -2z"/>
<path d="M6150 4308 c-48 -13 -64 -31 -56 -63 4 -17 12 -25 24 -23 16 3 17
-15 20 -209 l2 -213 48 -2 c26 -1 75 -2 109 -2 l63 -1 0 212 0 212 23 3 c18 2
22 9 22 37 0 32 -2 34 -50 47 -58 15 -155 16 -205 2z"/>
<path d="M6535 4306 c-36 -12 -40 -16 -40 -47 0 -27 4 -34 20 -34 19 0 20 -8
23 -212 l2 -211 73 -7 c39 -4 88 -5 107 -3 l35 3 3 218 c2 212 3 218 22 212
17 -5 20 -2 20 22 0 15 -4 33 -8 38 -22 33 -179 45 -257 21z"/>
<path d="M3557 4308 c-27 -7 -41 -18 -48 -36 -12 -32 -4 -54 18 -50 17 3 18
-13 21 -214 l2 -218 110 0 110 0 0 221 c0 218 0 221 21 216 18 -5 20 -1 17 31
-3 33 -7 38 -43 48 -48 15 -156 16 -208 2z"/>
<path d="M3948 4303 c-45 -13 -48 -16 -48 -49 0 -31 3 -35 20 -29 19 6 20 2
21 -112 1 -65 2 -163 3 -218 l1 -100 106 -3 106 -3 7 203 c4 112 4 211 1 221
-6 13 -2 17 20 17 24 0 26 3 23 32 -3 28 -8 34 -43 44 -54 17 -159 15 -217 -3z"/>
<path d="M3575 3315 c-51 -15 -75 -36 -75 -67 0 -13 8 -18 25 -18 l25 0 0
-209 0 -208 46 -7 c26 -3 76 -6 111 -6 l64 0 -3 215 -3 215 23 0 c18 0 22 5
22 35 0 31 -4 35 -37 45 -62 18 -145 20 -198 5z"/>
<path d="M3971 3315 c-69 -20 -71 -21 -71 -56 0 -23 4 -29 23 -29 21 0 22 -4
22 -72 0 -40 1 -136 3 -213 l2 -140 106 0 106 0 -2 213 c-1 205 0 212 19 212
47 0 38 62 -11 79 -55 20 -139 22 -197 6z"/>
<path d="M6160 3315 c-48 -16 -70 -37 -70 -67 0 -12 7 -18 23 -18 23 0 24 -3
30 -107 4 -58 7 -154 7 -213 l0 -107 105 -2 105 -2 0 215 c0 207 1 216 19 216
49 0 35 65 -18 80 -61 19 -152 20 -201 5z"/>
<path d="M6550 3311 c-53 -16 -55 -18 -55 -51 0 -31 3 -35 23 -32 l22 3 0
-210 0 -211 110 0 110 0 0 210 c0 203 1 210 20 210 14 0 20 7 20 23 0 37 -15
48 -76 63 -74 17 -105 16 -174 -5z"/>
</g>
</svg>
