<?xml version="1.0" standalone="no"?>
<!DOCTYPE svg PUBLIC "-//W3C//DTD SVG 20010904//EN"
 "http://www.w3.org/TR/2001/REC-SVG-20010904/DTD/svg10.dtd">
<svg version="1.0" xmlns="http://www.w3.org/2000/svg"
 width="1024.000000pt" height="1024.000000pt" viewBox="0 0 1024.000000 1024.000000"
 preserveAspectRatio="xMidYMid meet">
<metadata>
Created by potrace 1.16, written by Peter Selinger 2001-2019
</metadata>
<g transform="translate(0.000000,1024.000000) scale(0.100000,-0.100000)"
fill="#000000" stroke="none">
<path d="M4944 7565 c-4 -8 -3 -31 1 -51 8 -43 -12 -44 -33 0 -22 45 -46 30
-50 -32 -3 -59 -15 -67 -31 -21 -8 24 -15 30 -33 27 -18 -2 -23 -9 -23 -30 1
-27 -18 -38 -30 -18 -3 6 -13 10 -21 10 -11 0 -14 -8 -12 -27 3 -25 0 -28 -26
-25 -27 3 -28 2 -23 -35 3 -21 9 -50 12 -65 7 -25 5 -28 -19 -28 -30 0 -31 3
-13 30 10 17 9 22 -3 30 -8 5 -23 10 -32 10 -23 0 -24 -37 -1 -62 15 -17 15
-18 -8 -18 -14 0 -30 5 -36 11 -15 15 -33 3 -33 -23 0 -11 8 -22 19 -25 11 -3
25 -18 31 -34 8 -17 20 -29 31 -29 26 0 24 -8 -7 -37 -28 -26 -44 -19 -44 20
0 32 -31 33 -57 1 -22 -28 -23 -28 -23 -6 0 12 5 22 12 22 9 0 9 3 1 11 -21
21 -43 2 -43 -36 0 -34 -12 -46 -25 -25 -3 6 -16 10 -27 10 -18 0 -20 -4 -15
-40 4 -35 2 -40 -14 -40 -11 0 -19 7 -19 16 0 10 -7 14 -22 12 -17 -2 -22 -9
-20 -26 2 -21 -1 -23 -29 -17 -29 7 -30 5 -27 -22 3 -25 6 -28 41 -27 36 1 48
-8 27 -21 -16 -10 -12 -35 8 -42 9 -3 25 -13 34 -21 11 -9 28 -13 47 -9 23 5
32 1 44 -16 14 -21 15 -21 41 -4 28 19 46 15 46 -9 0 -17 51 -19 68 -2 9 9 16
7 32 -7 20 -19 22 -19 55 -1 34 19 35 19 53 -4 16 -19 22 -21 40 -11 12 6 22
19 22 28 0 26 70 9 100 -25 73 -82 110 -127 110 -135 0 -4 -19 -7 -42 -5 -39
3 -43 6 -48 33 -7 39 -36 46 -50 11 -13 -36 -28 -33 -32 7 -2 24 -8 33 -24 35
-18 3 -23 -4 -28 -32 -9 -49 -26 -45 -26 5 0 38 -2 40 -27 39 -16 -1 -32 -1
-38 0 -5 1 -32 2 -60 3 -45 0 -50 -2 -47 -21 4 -28 -15 -37 -28 -12 -18 33
-40 25 -40 -15 0 -42 -21 -47 -38 -10 -7 15 -20 25 -33 25 -19 0 -21 -4 -16
-35 6 -38 5 -40 -24 -25 -19 11 -27 40 -10 40 4 0 6 12 3 26 -4 21 -9 24 -28
20 -20 -5 -26 -1 -34 19 -12 31 -17 31 -47 3 l-23 -21 0 22 c0 19 -5 22 -32
19 -29 -3 -33 -6 -30 -30 1 -16 -2 -28 -8 -28 -5 0 -10 4 -10 9 0 15 -31 42
-41 36 -5 -4 -9 -20 -9 -36 0 -25 -3 -29 -22 -24 -30 7 -51 -8 -46 -31 2 -14
13 -20 41 -22 35 -3 54 -22 22 -22 -15 0 -19 -12 -15 -40 3 -22 21 -31 60 -28
30 3 35 0 38 -20 4 -24 32 -31 32 -7 0 19 9 19 34 0 28 -21 57 -19 63 5 6 24
21 25 51 4 l22 -15 -22 -19 c-32 -26 -14 -56 32 -52 24 3 36 -2 47 -18 12 -17
22 -21 46 -16 23 5 33 2 44 -14 16 -22 44 -26 72 -8 16 10 27 5 72 -34 30 -25
87 -62 128 -83 95 -47 171 -117 171 -156 0 -36 -18 -37 -68 -5 -20 14 -49 28
-64 31 -23 6 -28 4 -28 -11 1 -12 28 -37 78 -69 l77 -50 3 -102 c2 -57 2 -103
0 -103 -2 0 -26 17 -54 38 -243 179 -260 194 -299 271 -17 33 -17 35 1 48 11
8 17 15 15 16 -3 1 3 14 13 29 19 29 18 59 -1 65 -7 3 -15 -7 -19 -21 -3 -13
-12 -27 -19 -30 -16 -6 -28 24 -20 46 4 9 -1 23 -10 32 -18 18 -45 22 -45 6 0
-5 -4 -10 -10 -10 -5 0 -10 10 -10 23 0 33 -18 49 -42 36 -15 -8 -24 -4 -47
18 -32 32 -51 32 -51 0 -1 -19 -5 -18 -34 16 -30 33 -66 49 -66 30 0 -5 -4
-15 -9 -22 -8 -12 -13 -11 -29 9 -24 30 -42 19 -42 -26 0 -45 -16 -43 -27 4
-11 45 -46 54 -51 12 -6 -50 -11 -55 -32 -32 -27 29 -50 18 -50 -24 0 -38 -24
-48 -35 -14 -4 11 -15 20 -27 20 -19 0 -20 -5 -16 -45 6 -49 -6 -59 -24 -21
-21 48 -63 44 -53 -5 7 -30 -3 -37 -22 -18 -18 18 -43 2 -43 -27 0 -17 6 -28
20 -31 31 -8 24 -23 -11 -23 -27 0 -30 -3 -27 -27 2 -22 9 -29 31 -31 19 -2
27 -9 27 -23 0 -22 21 -24 89 -8 52 12 62 6 31 -19 -30 -25 -21 -52 18 -52 15
0 33 -5 39 -11 7 -7 15 -5 27 7 16 16 18 15 32 -4 12 -18 22 -20 87 -17 39 2
88 9 107 14 86 27 298 -4 386 -54 88 -51 291 -233 299 -269 3 -11 2 -45 -2
-74 l-8 -52 -49 40 c-27 22 -56 45 -65 50 -14 7 -14 10 2 27 18 21 22 48 8 57
-4 3 -16 -3 -26 -14 -22 -25 -35 -17 -35 21 0 22 -6 32 -22 38 -19 7 -25 4
-36 -16 -17 -31 -39 -16 -44 30 -3 28 -6 32 -30 30 -21 -1 -28 3 -28 17 0 32
-11 50 -31 50 -10 0 -19 -7 -19 -15 0 -21 -5 -19 -37 13 -28 27 -28 27 -31 5
-5 -33 -19 -28 -27 8 -8 36 -33 36 -51 1 -7 -15 -14 -20 -18 -13 -4 6 -16 11
-27 11 -21 0 -25 -21 -9 -50 16 -30 -6 -33 -28 -4 -11 16 -24 24 -30 20 -16
-9 -15 -69 0 -84 9 -9 7 -12 -9 -12 -14 0 -24 8 -29 23 -4 12 -11 25 -17 29
-17 10 -47 -10 -47 -32 0 -16 -6 -19 -27 -16 -16 2 -36 7 -47 11 -24 10 -36
-9 -36 -57 0 -39 -7 -44 -44 -29 -18 7 -18 8 -2 14 14 5 16 17 14 54 -3 40 -6
48 -25 51 -17 3 -23 -3 -28 -28 -5 -22 -11 -30 -22 -26 -8 3 -17 6 -19 6 -2 0
-4 13 -4 29 0 23 -5 30 -27 34 -37 7 -43 2 -43 -39 0 -42 -16 -45 -25 -4 -6
25 -11 30 -36 30 -28 0 -30 -3 -27 -32 4 -38 -17 -49 -26 -13 -7 26 -33 34
-42 12 -2 -7 5 -39 15 -70 19 -53 19 -58 4 -55 -10 2 -21 18 -27 36 -7 24 -15
32 -31 32 -27 0 -35 -16 -28 -53 7 -34 -10 -35 -25 -2 -13 29 -24 31 -42 10
-10 -12 -10 -21 -1 -42 17 -37 6 -40 -24 -7 -24 26 -27 27 -43 11 -14 -15 -15
-20 -3 -38 17 -29 1 -45 -29 -29 -30 16 -50 6 -50 -26 0 -21 8 -29 49 -46 45
-20 48 -23 47 -57 -1 -34 0 -36 31 -35 23 1 34 -3 38 -16 8 -26 41 -31 61 -9
17 19 18 19 39 -7 21 -27 22 -27 55 -11 40 21 40 21 40 2 0 -24 56 -20 63 5 6
25 61 27 162 5 39 -8 125 -23 192 -33 161 -25 185 -39 251 -137 50 -75 98
-182 88 -193 -5 -4 -32 2 -120 25 -18 5 -17 7 6 19 19 10 25 19 21 35 -8 27
-33 36 -45 16 -17 -31 -29 -18 -26 26 3 37 0 42 -19 45 -18 3 -23 -3 -29 -33
-8 -45 -29 -41 -29 6 0 27 -4 35 -22 37 -15 2 -23 11 -25 30 -2 20 -9 28 -27
30 -21 3 -23 1 -17 -22 5 -19 2 -26 -8 -26 -9 0 -16 12 -18 27 -2 18 -10 29
-22 31 -23 5 -36 -14 -36 -51 0 -35 -16 -27 -25 13 -11 50 -68 53 -63 3 4 -32
-18 -42 -27 -13 -5 15 -14 20 -28 18 -18 -2 -21 -9 -19 -35 4 -36 -13 -45 -23
-13 -9 27 -33 25 -37 -2 -2 -16 -10 -23 -27 -24 -29 -2 -42 -21 -31 -50 10
-25 4 -34 -21 -34 -11 0 -20 11 -24 30 -5 21 -12 30 -27 30 -19 0 -20 -4 -15
-51 5 -44 4 -50 -11 -47 -10 2 -21 18 -26 41 -7 26 -15 37 -28 37 -18 0 -19
-5 -13 -55 8 -59 -8 -79 -20 -25 -5 24 -12 30 -32 30 -24 0 -25 -3 -20 -35 7
-41 -12 -48 -35 -13 -9 14 -20 19 -31 15 -19 -7 -23 -47 -6 -64 7 -7 9 -20 5
-30 -7 -17 -8 -17 -17 0 -12 21 -57 23 -65 2 -9 -22 16 -47 42 -42 19 3 21 1
15 -17 -11 -28 -3 -46 20 -46 10 0 24 -9 31 -20 14 -21 43 -27 53 -10 12 20
35 10 35 -14 0 -35 35 -44 69 -18 l27 20 17 -29 c9 -17 25 -29 36 -29 26 0 53
28 46 49 -8 28 77 26 164 -4 84 -28 110 -30 158 -13 l33 12 -37 65 c-29 52
-32 63 -17 56 42 -17 56 -17 75 1 19 17 21 18 30 1 12 -21 52 -22 69 -2 9 11
16 13 24 5 5 -5 20 -10 32 -10 22 0 34 17 34 51 0 16 7 19 55 19 l54 0 103
-93 c57 -50 142 -125 191 -166 78 -65 87 -77 87 -107 0 -19 -2 -34 -5 -34 -3
0 -74 12 -158 26 -148 25 -163 31 -226 81 -3 2 5 12 17 23 25 23 29 65 8 73
-8 3 -21 -4 -30 -16 -15 -22 -15 -22 -22 11 -8 41 -38 60 -53 35 -9 -17 -11
-16 -31 5 -37 39 -75 19 -50 -27 15 -29 2 -26 -32 6 -34 33 -55 22 -39 -20 10
-25 9 -27 -17 -27 -54 0 -72 -10 -72 -41 0 -33 -7 -36 -25 -12 -17 23 -45 10
-45 -22 0 -30 -4 -31 -30 -5 -26 26 -40 18 -40 -22 0 -30 -1 -31 -19 -14 -23
21 -44 12 -36 -15 4 -13 2 -19 -8 -19 -21 0 -38 -25 -31 -44 4 -11 18 -16 45
-16 32 0 39 -3 39 -20 0 -11 3 -20 8 -20 4 -1 30 -3 59 -5 45 -3 53 -1 58 16
4 13 12 18 22 15 52 -20 123 -17 224 10 149 40 183 40 344 4 76 -17 141 -33
143 -35 6 -5 3 -526 -3 -620 -2 -38 -7 -194 -10 -345 -6 -275 -11 -340 -25
-340 -4 0 -10 23 -12 50 -9 89 -33 81 -32 -10 1 -40 -3 -61 -12 -64 -9 -4 -15
12 -20 54 -4 41 -11 60 -20 60 -10 0 -14 -13 -14 -44 0 -54 -8 -76 -26 -76
-11 0 -14 20 -14 95 0 88 -1 95 -20 95 -19 0 -20 -7 -20 -100 0 -80 -3 -100
-14 -100 -17 0 -28 29 -28 76 0 27 -4 34 -19 34 -17 0 -19 -8 -19 -61 0 -44
-3 -60 -12 -57 -7 3 -15 15 -16 29 -8 59 -42 44 -42 -18 0 -38 -28 -47 -37
-13 -7 27 -33 26 -33 -1 0 -18 -5 -21 -32 -17 -18 3 -64 2 -103 -3 -59 -7 -72
-5 -82 9 -8 9 -13 11 -13 4 0 -7 -11 -12 -24 -12 -21 0 -25 5 -28 38 -2 25 -8
37 -18 37 -10 0 -16 -12 -18 -37 -3 -35 -6 -38 -33 -38 l-29 0 0 69 c0 49 -4
70 -14 74 -15 6 -26 -38 -26 -108 l0 -41 -52 1 c-50 0 -53 -1 -53 -25 l0 -25
504 -3 c458 -2 507 -4 532 -20 26 -16 -21 -17 -977 -15 -558 1 -1004 -3 -1004
-7 0 -12 169 -14 1189 -18 l863 -3 56 -25 c30 -13 53 -26 51 -28 -2 -2 -26 0
-54 4 -27 5 -488 9 -1023 9 -768 1 -973 -2 -969 -12 3 -9 224 -13 1018 -15
983 -2 1015 -3 1081 -23 38 -11 68 -21 68 -22 0 -1 -387 -1 -860 -1 -730 2
-860 0 -860 -12 0 -12 88 -14 563 -14 631 0 1315 -8 1424 -16 40 -3 75 -10 79
-15 3 -5 -377 -9 -955 -9 -848 0 -961 -2 -961 -15 0 -13 90 -15 753 -15 1181
0 1473 -8 1527 -42 11 -7 8 -8 -10 -4 -35 7 -1860 9 -1868 2 -3 -3 -2 -9 2
-13 4 -5 514 -9 1132 -11 1019 -3 1124 -2 1124 13 0 22 -41 35 -110 35 -60 0
-87 13 -50 25 12 4 111 3 221 -1 181 -6 199 -5 199 10 0 14 -20 16 -178 16
-141 0 -182 3 -198 15 -10 8 -31 15 -46 15 -16 0 -28 3 -28 8 0 4 150 6 332 4
333 -3 398 0 398 19 0 7 -55 8 -169 3 -93 -3 -181 -4 -195 0 -28 7 -36 26 -11
26 8 0 15 -4 15 -10 0 -6 37 -10 90 -10 73 0 90 3 90 15 0 12 -14 15 -62 15
-34 0 -59 2 -56 5 3 3 76 6 162 6 166 0 186 3 186 25 0 11 -17 14 -70 14 -53
0 -70 3 -70 14 0 19 45 26 166 26 58 0 104 4 104 9 0 6 -69 10 -162 11 -191 1
-241 8 -246 33 -2 12 1 15 12 11 23 -9 39 5 26 22 -9 9 -25 12 -57 7 -30 -4
-47 -2 -52 6 -6 9 -15 9 -36 1 -20 -8 -31 -7 -42 1 -10 9 -20 9 -39 0 -17 -7
-30 -8 -38 -2 -6 5 -44 6 -90 1 -55 -5 -86 -4 -98 4 -14 8 -23 8 -40 -3 -18
-11 -22 -11 -30 3 -11 19 -44 21 -51 3 -3 -9 -16 -12 -34 -10 -27 4 -28 7 -28
56 0 40 -4 52 -15 52 -11 0 -16 -14 -18 -57 -3 -50 -6 -58 -22 -58 -12 0 -26
13 -35 30 -14 27 -49 50 -76 50 -5 0 -9 -16 -9 -36 0 -28 -3 -35 -17 -32 -12
2 -19 14 -21 36 -3 24 -8 32 -23 32 -17 0 -20 -6 -17 -32 2 -27 -1 -34 -18
-36 -23 -3 -34 27 -34 94 0 24 -5 34 -15 34 -12 0 -15 -14 -15 -65 0 -58 -2
-65 -20 -65 -10 0 -24 9 -30 20 -14 25 -26 25 -33 0 -8 -32 -45 -26 -49 7 -2
17 -10 29 -20 31 -14 3 -18 -3 -18 -27 0 -24 -4 -31 -20 -31 -17 0 -20 7 -20
45 0 33 -4 45 -15 45 -11 0 -15 -11 -15 -40 0 -50 -14 -52 -26 -3 -13 52 -34
55 -34 4 0 -45 -19 -57 -22 -13 0 15 -1 34 -2 42 -1 8 -9 16 -19 18 -14 3 -17
-4 -17 -37 0 -68 -19 -46 -22 26 -2 42 -8 68 -15 71 -10 3 -13 -13 -13 -57 0
-34 -4 -61 -9 -61 -11 0 -21 61 -21 138 0 55 -2 63 -17 60 -16 -3 -18 -14 -15
-91 2 -58 0 -87 -8 -87 -14 0 -30 44 -30 84 0 25 -5 35 -20 39 -18 5 -20 0
-20 -54 0 -33 -4 -59 -10 -59 -5 0 -10 24 -10 53 0 28 -3 62 -6 75 -11 39 -24
24 -24 -27 0 -89 -17 -63 -24 37 -9 128 -25 653 -26 813 l0 125 48 50 c111
115 203 193 244 207 176 63 405 128 485 138 86 11 94 10 135 -10 25 -11 63
-21 85 -21 24 0 46 -6 53 -15 16 -20 54 -19 71 1 11 13 15 14 23 2 26 -34 76
-22 76 18 0 11 7 10 29 -7 35 -26 86 -19 97 13 4 14 9 17 17 9 29 -29 81 5 59
40 -11 18 -9 19 28 19 36 0 40 2 40 25 0 18 -5 25 -20 25 -24 0 -25 8 -5 30
30 33 -12 69 -43 38 -20 -20 -26 1 -14 48 14 51 10 64 -19 64 -15 0 -19 -7
-19 -31 0 -24 -4 -30 -17 -27 -14 2 -19 15 -21 51 -2 26 -6 47 -10 48 -4 0
-17 2 -29 5 -20 3 -23 -1 -24 -29 -2 -53 -4 -62 -14 -67 -5 -3 -11 9 -13 25
-6 64 -12 76 -35 73 -19 -3 -22 -10 -25 -50 -4 -60 -29 -67 -34 -11 -2 30 -9
41 -32 52 -27 13 -30 12 -47 -10 l-19 -24 0 27 c0 18 -7 29 -20 33 -11 4 -20
15 -20 27 0 17 4 19 28 12 15 -4 45 -8 67 -8 35 -1 40 2 39 21 0 18 7 22 52
28 33 4 54 12 58 22 10 25 -3 33 -49 33 -51 0 -64 13 -40 40 18 20 17 71 -2
78 -7 2 -18 -8 -24 -22 -17 -36 -29 -32 -29 8 0 39 -26 69 -41 45 -5 -8 -9
-22 -9 -31 0 -9 -5 -20 -11 -24 -7 -4 -9 0 -6 12 3 11 8 38 12 60 5 34 3 43
-11 48 -19 7 -34 -9 -34 -38 0 -15 -3 -16 -15 -6 -9 7 -15 29 -15 51 0 32 -3
39 -20 39 -11 0 -25 -9 -32 -20 -19 -29 -28 -24 -28 15 0 29 -4 36 -25 41 -19
5 -30 0 -45 -17 l-19 -24 -1 38 c0 34 -3 38 -22 35 -20 -3 -23 -9 -22 -46 1
-34 -2 -42 -15 -40 -11 2 -16 15 -17 42 -1 39 -17 58 -44 53 -10 -1 -16 -17
-18 -50 -2 -33 -7 -47 -18 -47 -7 0 -15 5 -15 10 -1 6 -3 15 -4 20 -1 6 -3 21
-4 35 -1 20 -6 25 -26 25 -25 0 -30 -13 -26 -62 3 -30 -16 -28 -23 2 -4 24
-11 30 -32 30 -24 0 -25 -3 -22 -37 2 -29 -1 -38 -12 -38 -10 0 -16 12 -18 33
-3 26 -8 32 -27 32 -20 0 -24 -6 -27 -37 -4 -46 -31 -53 -36 -10 -3 24 -7 28
-30 25 -24 -3 -27 -7 -24 -35 2 -34 -6 -41 -25 -22 -18 18 -43 3 -43 -25 0
-18 9 -30 31 -41 32 -17 34 -32 5 -49 -13 -9 -19 -7 -27 7 -6 9 -21 17 -35 17
-25 0 -25 -2 -19 -42 l7 -43 -20 19 c-27 23 -52 14 -52 -19 0 -22 -3 -24 -19
-15 -32 17 -56 12 -100 -20 l-42 -31 3 88 3 87 95 69 c95 69 115 92 87 103
-19 7 -47 -8 -119 -63 -31 -23 -59 -43 -63 -43 -3 0 -5 26 -3 58 l3 57 173 87
c95 48 198 96 229 108 l56 21 75 -32 c64 -26 85 -30 131 -26 31 3 65 8 76 12
18 5 20 2 20 -27 0 -31 3 -33 36 -36 23 -2 40 2 49 12 17 22 27 20 34 -7 6
-25 42 -47 63 -40 7 3 15 20 19 39 l6 35 22 -20 c29 -27 66 -18 66 16 0 18 5
23 18 21 19 -3 42 9 42 22 0 5 -10 18 -22 30 -21 19 -21 21 -3 33 13 10 16 21
11 40 -7 30 -30 35 -44 11 -13 -23 -32 -9 -32 22 0 33 -34 29 -38 -4 -2 -12
-7 -22 -12 -22 -4 0 -6 18 -3 41 4 29 2 44 -8 50 -23 14 -39 10 -39 -10 0 -20
-17 -37 -27 -28 -3 4 -8 21 -12 39 -8 40 -21 42 -39 5 -17 -36 -46 -32 -50 6
-4 32 -13 34 -37 6 l-19 -20 -18 23 c-14 19 -20 21 -35 12 -15 -9 -24 -8 -43
8 l-25 20 -3 -36 c-4 -42 -18 -47 -34 -11 -15 34 -41 28 -49 -10 l-6 -30 -14
33 c-18 43 -49 44 -49 2 0 -27 -3 -30 -26 -28 -55 6 -58 -59 -4 -72 43 -10 31
-28 -37 -54 -38 -14 -72 -26 -76 -26 -4 0 0 16 8 36 19 45 19 64 2 64 -21 0
-46 -32 -63 -83 -17 -49 5 -36 -274 -174 -4 -3 -5 115 -1 164 1 17 126 103
225 157 98 53 159 72 251 81 39 4 105 18 149 32 80 25 91 24 98 -12 2 -15 12
-21 41 -23 20 -2 37 1 37 7 0 5 14 2 31 -6 28 -14 34 -14 64 0 20 10 37 12 46
6 26 -16 55 -10 69 15 11 22 15 23 27 10 17 -16 83 -19 83 -3 0 6 -7 17 -15
25 -24 25 -18 34 25 34 29 0 42 5 50 19 8 16 6 22 -6 29 -15 8 -15 12 -2 31
17 25 12 71 -8 71 -8 0 -19 -9 -26 -20 -18 -28 -28 -25 -28 9 0 22 -6 32 -22
37 -13 4 -24 2 -26 -5 -7 -20 -22 -12 -22 12 0 25 -17 47 -37 47 -8 0 -13 -12
-13 -30 0 -20 -5 -30 -15 -30 -9 0 -15 9 -15 25 0 35 -26 42 -55 15 l-24 -22
-3 33 c-3 30 -6 34 -30 32 -16 -1 -29 5 -32 14 -10 25 3 32 36 21 26 -9 33 -8
45 7 7 11 13 27 13 36 0 14 10 19 42 21 42 3 42 3 44 45 1 24 -2 46 -7 49 -13
7 -41 -15 -33 -27 3 -5 -6 -9 -20 -9 -30 0 -30 2 -14 47 10 26 9 36 -1 45 -10
11 -18 7 -40 -20 -30 -35 -41 -33 -41 9 0 24 -15 39 -40 39 -5 0 -10 -15 -12
-32 -4 -39 -23 -35 -24 4 -1 48 -49 80 -49 32 0 -10 -7 -20 -16 -22 -12 -2
-15 4 -11 26 5 34 -12 49 -34 31 -18 -15 -32 -3 -16 13 17 17 15 31 -2 25 -9
-4 -17 2 -21 13 -10 30 2 39 41 33 30 -5 36 -3 41 16 6 22 27 28 38 11 8 -13
42 -13 51 1 3 6 1 16 -5 22 -20 20 -12 37 18 37 32 0 48 24 30 46 -6 8 -30 14
-53 14 l-41 1 28 22 c30 25 35 48 13 66 -11 10 -16 8 -21 -8 -10 -33 -25 -25
-25 13 0 22 -6 36 -16 40 -23 9 -24 8 -24 -12 0 -10 -7 -27 -15 -38 -14 -19
-14 -18 -15 4 0 18 -6 22 -30 22 -37 0 -38 12 -5 34 29 19 32 38 8 66 -24 27
-43 25 -43 -4 0 -14 -5 -28 -10 -31 -10 -6 -14 1 -24 48 -5 20 -12 27 -31 27
-21 0 -25 -5 -25 -30 0 -16 -4 -30 -9 -30 -11 0 -21 25 -21 50 0 11 -8 20 -22
22 -35 5 -32 26 5 42 41 17 50 29 42 56 -7 22 -35 26 -52 9 -20 -20 -35 1 -28
37 5 29 3 34 -14 34 -11 0 -22 -9 -26 -20 -9 -29 -23 -24 -17 6 5 29 -13 47
-40 38 -14 -4 -17 3 -20 42 -4 58 -22 67 -42 22 l-14 -33 -1 36 c-2 58 -35 79
-46 29 -4 -16 -11 -30 -16 -30 -5 0 -9 14 -9 30 0 23 -5 30 -19 30 -11 0 -23
-4 -26 -10 -11 -18 -24 -10 -27 17 -5 43 -35 42 -44 -1 -7 -40 -24 -49 -24
-13 0 28 -17 47 -42 47 -13 0 -18 8 -18 29 0 37 -16 48 -30 21 -15 -28 -26
-25 -25 8 0 20 -5 28 -22 30 -17 3 -24 -3 -29 -24 l-7 -27 -19 26 c-22 30 -55
36 -64 12z m206 -99 c0 -8 -4 -17 -9 -21 -12 -7 -24 12 -16 25 9 15 25 12 25
-4z m-406 -105 c10 -11 15 -25 11 -30 -10 -17 -45 6 -45 29 0 25 12 25 34 1z
m615 -260 c11 -20 5 -31 -16 -31 -7 0 -13 11 -13 25 0 29 15 33 29 6z m-594
-26 c0 -10 -6 -20 -12 -22 -8 -3 -13 5 -13 22 0 17 5 25 13 23 6 -3 12 -13 12
-23z m821 10 c8 -21 -6 -41 -17 -24 -12 19 -11 39 1 39 6 0 13 -7 16 -15z
m-726 -25 c0 -22 -4 -28 -15 -24 -15 6 -20 35 -8 47 14 15 23 6 23 -23z m370
-20 c0 -25 -18 -36 -26 -16 -8 21 3 49 16 41 5 -3 10 -15 10 -25z m-264 5 c3
-8 3 -19 -1 -25 -10 -16 -35 7 -28 26 7 18 22 18 29 -1z m184 -21 c0 -15 -6
-24 -15 -24 -15 0 -21 40 -9 53 12 11 24 -3 24 -29z m-102 -2 c2 -13 -3 -25
-13 -28 -22 -9 -27 -1 -19 30 7 31 28 29 32 -2z m-27 -172 c16 0 19 -7 19 -47
l-1 -48 -40 43 c-38 40 -44 70 -12 58 8 -3 23 -6 34 -6z m329 -21 c0 -14 10
-24 30 -32 35 -13 38 -26 10 -50 -12 -10 -20 -29 -20 -48 0 -20 -4 -29 -12
-26 -8 2 -13 22 -13 48 0 42 -3 45 -35 41 -5 -1 -10 -8 -10 -16 0 -29 -20 -26
-36 6 l-16 32 -15 -27 c-14 -28 -28 -34 -38 -17 -3 6 -13 10 -22 10 -12 0 -14
-8 -11 -35 4 -36 -14 -50 -26 -19 -9 24 -7 107 4 124 8 12 11 12 28 -3 24 -22
39 -22 52 2 10 19 11 19 41 3 30 -16 31 -16 47 5 22 28 42 29 42 2z m200 -120
c0 -10 -7 -19 -15 -19 -15 0 -21 31 -9 43 11 10 24 -3 24 -24z m60 6 c0 -14
-4 -25 -10 -25 -5 0 -10 11 -10 25 0 14 5 25 10 25 6 0 10 -11 10 -25z m144
-8 c12 -19 3 -32 -19 -24 -17 7 -21 51 -3 45 6 -2 16 -12 22 -21z m-755 -163
l31 -6 0 -130 0 -129 -31 23 c-33 24 -70 88 -87 150 -10 35 -9 37 8 28 10 -6
28 -10 39 -10 26 0 28 35 4 62 -17 20 -12 21 36 12z m188 -22 c-10 -10 -17
-28 -17 -40 0 -19 6 -22 40 -22 26 0 40 -5 40 -13 0 -7 -27 -39 -60 -72 l-60
-59 0 112 0 112 37 0 c34 0 35 -1 20 -18z m-299 -128 c5 -19 7 -34 4 -33 -15
1 -126 75 -129 85 -2 7 13 16 34 22 34 8 40 7 59 -15 12 -14 26 -40 32 -59z
m-568 21 c0 -28 -15 -34 -24 -9 -10 25 -7 34 9 34 9 0 15 -9 15 -25z m1040 -4
c0 -10 7 -24 15 -31 8 -7 15 -26 15 -43 l0 -30 -24 23 c-15 13 -32 20 -40 17
-18 -7 -21 -49 -5 -79 14 -27 0 -38 -17 -13 -36 54 -43 61 -53 46 -5 -7 -6
-40 -4 -72 5 -50 3 -59 -11 -59 -10 0 -16 8 -16 25 0 32 -33 51 -51 29 -10
-12 -10 -20 -1 -35 16 -24 15 -29 -3 -29 -21 0 -36 35 -29 67 12 49 75 124
138 164 68 43 86 48 86 20z m218 -19 c3 -17 -2 -22 -17 -22 -14 0 -21 6 -21
18 0 38 33 41 38 4z m-98 -22 c0 -16 0 -33 0 -37 0 -5 -4 -9 -10 -11 -12 -4
-24 43 -16 63 10 26 26 16 26 -15z m90 -45 c0 -28 -15 -34 -24 -9 -10 25 -7
34 9 34 9 0 15 -9 15 -25z m117 -19 c-10 -26 -35 -8 -29 20 4 23 6 24 20 11 8
-9 12 -22 9 -31z m77 8 c9 -23 8 -24 -14 -24 -19 0 -27 20 -13 33 11 11 20 8
27 -9z m-1135 -149 c17 -34 26 -62 20 -64 -28 -9 -100 24 -140 65 -41 42 -42
44 -19 45 14 0 41 6 60 13 19 7 38 10 42 7 3 -3 20 -33 37 -66z m-168 -9 l47
-42 -61 8 c-33 4 -80 18 -104 30 -47 24 -69 44 -36 34 11 -4 31 -2 44 3 43 17
63 11 110 -33z m-158 -28 l40 -12 -54 -13 c-30 -6 -60 -12 -66 -13 -19 0 -16
27 5 39 22 13 27 13 75 -1z m1467 -71 c0 -26 -31 -39 -120 -52 l-45 -6 75 39
c92 48 90 47 90 19z m-425 -63 c-16 -53 -65 -108 -142 -157 l-43 -27 0 115 0
115 27 6 c21 6 30 2 45 -20 29 -39 65 -35 84 10 13 32 17 35 30 22 12 -12 12
-20 -1 -64z m155 70 c0 -14 -43 -64 -84 -98 l-45 -37 14 42 c19 53 32 69 70
85 34 15 45 17 45 8z m130 -1 c-1 -11 -102 -73 -119 -73 -10 0 -8 7 8 24 35
37 112 71 111 49z m-1382 -285 c19 -19 15 -48 -8 -48 -16 0 -20 7 -20 30 0 32
9 37 28 18z m1620 -57 c4 -11 -7 -13 -58 -8 -91 8 -105 29 -16 25 49 -2 71 -7
74 -17z m-939 -116 l81 -70 0 -67 c0 -38 -3 -68 -8 -68 -12 0 -149 83 -227
137 -43 29 -73 58 -79 75 -13 37 -1 46 27 20 33 -31 58 -27 85 14 13 19 27 34
32 32 5 -2 45 -34 89 -73z m-303 9 c24 -19 44 -40 44 -45 0 -21 -170 6 -178
29 -5 17 18 15 39 -4 23 -21 39 -10 39 27 0 16 3 29 6 29 4 0 27 -16 50 -36z
m-1 -99 c82 -7 109 -21 271 -135 78 -56 114 -88 114 -101 0 -24 -11 -24 -59 1
-41 20 -51 18 -51 -11 0 -11 21 -31 55 -51 l56 -33 -3 -192 -3 -191 -54 39
c-103 73 -192 153 -216 193 -12 23 -32 71 -44 107 -12 36 -44 104 -71 150 -53
89 -104 189 -115 226 -6 21 -4 22 22 13 15 -4 59 -11 98 -15z m-156 -36 c13
-28 20 -53 18 -55 -2 -3 -43 16 -90 40 l-85 45 51 9 c84 15 83 16 106 -39z
m-169 1 l55 -30 -55 6 c-177 18 -238 37 -145 45 39 3 75 6 80 7 6 0 35 -12 65
-28z m983 -367 c4 -3 -3 -11 -16 -17 -14 -7 -22 -21 -22 -36 0 -22 4 -25 30
-22 26 3 32 -2 42 -27 13 -36 35 -39 65 -9 l22 22 33 -39 c36 -42 76 -136 71
-169 -4 -30 -37 -31 -104 -2 -58 24 -82 22 -71 -7 3 -8 37 -27 76 -42 39 -15
71 -31 71 -37 0 -16 -282 -289 -294 -285 -7 2 -12 64 -14 178 l-2 174 60 48
c33 27 60 55 60 62 0 26 -29 23 -66 -6 -20 -16 -41 -29 -45 -29 -5 0 -9 45 -9
99 l0 100 43 25 c43 27 59 31 70 19z m306 -187 l-32 -77 -29 68 c-15 37 -28
70 -28 74 0 4 17 5 38 2 30 -4 41 -1 57 17 33 36 30 2 -6 -84z m187 48 c19 7
17 -8 -3 -33 -16 -19 -163 -87 -163 -75 0 3 9 22 20 43 14 28 27 40 49 44 16
4 35 16 41 27 10 19 12 19 27 5 8 -9 22 -14 29 -11z m-1563 -83 c33 -30 34
-41 4 -41 -27 0 -127 48 -127 61 0 4 15 12 33 17 34 10 42 6 90 -37z m1621
-26 c18 -14 16 -18 -44 -82 -73 -78 -91 -90 -180 -114 -36 -9 -84 -24 -108
-33 l-43 -15 34 42 c19 23 44 60 55 83 26 52 31 55 132 98 93 39 125 43 154
21z m96 -31 c0 -24 -38 -72 -70 -89 -54 -28 -54 -14 0 54 40 51 70 66 70 35z
m126 -45 c10 -18 -9 -28 -61 -35 l-50 -5 40 25 c44 28 60 32 71 15z m152 -65
c-12 -12 -26 -15 -52 -10 -58 11 -53 26 11 26 53 0 56 -1 41 -16z m-1596 -55
c30 -16 5 -29 -58 -29 -38 0 -55 5 -69 20 -18 20 -17 20 44 20 34 0 72 -5 83
-11z m-148 -60 c-3 -5 -33 -9 -66 -9 -71 0 -71 8 -1 19 52 8 76 4 67 -10z
m1586 -1409 c0 -11 -4 -20 -10 -20 -5 0 -10 9 -10 20 0 11 5 20 10 20 6 0 10
-9 10 -20z m145 -156 c28 -13 23 -14 -70 -9 -55 3 -126 5 -157 5 -32 0 -58 4
-58 10 0 17 249 12 285 -6z m353 -69 c14 -14 -20 -17 -170 -16 -181 1 -280 9
-272 22 5 9 433 3 442 -6z"/>
<path d="M6275 5759 c-4 -6 -5 -13 -2 -16 7 -7 27 6 27 18 0 12 -17 12 -25 -2z"/>
<path d="M3837 3172 c-30 -3 -37 -7 -35 -20 5 -24 55 -29 61 -5 4 17 5 17 6 1
1 -15 11 -18 71 -18 63 0 70 2 70 20 0 11 -3 21 -7 21 -18 3 -131 4 -166 1z"/>
<path d="M2776 3163 c-11 -11 -6 -23 9 -23 8 0 15 4 15 9 0 13 -16 22 -24 14z"/>
<path d="M3190 3155 c0 -9 9 -15 21 -15 18 0 19 2 9 15 -7 8 -16 15 -21 15 -5
0 -9 -7 -9 -15z"/>
<path d="M3476 3163 c-3 -3 -3 -10 0 -14 7 -12 34 -11 34 0 0 11 -26 22 -34
14z"/>
<path d="M3605 3160 c-9 -15 -1 -23 21 -18 15 3 16 4 1 16 -11 9 -17 10 -22 2z"/>
<path d="M3674 3159 c-3 -6 -2 -14 2 -18 12 -11 104 -1 104 10 0 16 -29 22
-44 10 -10 -8 -16 -9 -21 -1 -8 13 -32 13 -41 -1z"/>
<path d="M6840 3155 c0 -8 7 -15 15 -15 8 0 15 7 15 15 0 8 -7 15 -15 15 -8 0
-15 -7 -15 -15z"/>
<path d="M6917 3164 c-10 -11 3 -24 24 -24 23 0 25 15 3 24 -19 7 -19 7 -27 0z"/>
<path d="M7136 3163 c-11 -11 -6 -23 8 -23 8 0 17 4 20 9 7 10 -19 23 -28 14z"/>
<path d="M7270 3156 c0 -9 5 -16 10 -16 6 0 10 4 10 9 0 6 -4 13 -10 16 -5 3
-10 -1 -10 -9z"/>
<path d="M7440 3156 c0 -9 5 -16 10 -16 6 0 10 4 10 9 0 6 -4 13 -10 16 -5 3
-10 -1 -10 -9z"/>
<path d="M2930 3150 c0 -5 6 -10 14 -10 8 0 18 5 21 10 3 6 -3 10 -14 10 -12
0 -21 -4 -21 -10z"/>
<path d="M3095 3150 c3 -5 13 -10 21 -10 8 0 12 5 9 10 -3 6 -13 10 -21 10 -8
0 -12 -4 -9 -10z"/>
<path d="M3342 3148 c6 -18 28 -21 28 -4 0 9 -7 16 -16 16 -9 0 -14 -5 -12
-12z"/>
<path d="M3400 3151 c0 -11 26 -22 34 -14 12 12 5 23 -14 23 -11 0 -20 -4 -20
-9z"/>
<path d="M7010 3146 c0 -9 7 -12 20 -9 11 3 20 9 20 14 0 5 -9 9 -20 9 -11 0
-20 -6 -20 -14z"/>
<path d="M3085 3010 c-4 -6 5 -10 19 -10 14 0 26 5 26 10 0 6 -9 10 -19 10
-11 0 -23 -4 -26 -10z"/>
<path d="M7075 3010 c-24 -6 -17 -8 33 -9 35 0 62 3 62 9 0 11 -50 11 -95 0z"/>
<path d="M3505 2950 c-4 -6 -3 -14 0 -20 9 -15 35 -12 35 4 0 17 -27 29 -35
16z"/>
<path d="M7068 2953 c-66 -6 -60 -23 7 -23 42 0 55 3 55 15 0 8 -3 14 -7 13
-5 -1 -29 -3 -55 -5z"/>
<path d="M3643 2868 c2 -7 7 -12 10 -10 4 1 15 2 25 2 14 0 15 2 2 10 -21 14
-42 12 -37 -2z"/>
<path d="M4057 2814 c-13 -13 -7 -24 14 -24 11 0 19 5 17 12 -5 14 -22 21 -31
12z"/>
</g>
</svg>
