<?xml version="1.0" standalone="no"?>
<!DOCTYPE svg PUBLIC "-//W3C//DTD SVG 20010904//EN"
 "http://www.w3.org/TR/2001/REC-SVG-20010904/DTD/svg10.dtd">
<svg version="1.0" xmlns="http://www.w3.org/2000/svg"
 width="1024.000000pt" height="1024.000000pt" viewBox="0 0 1024.000000 1024.000000"
 preserveAspectRatio="xMidYMid meet">
<metadata>
Created by potrace 1.16, written by Peter Selinger 2001-2019
</metadata>
<g transform="translate(0.000000,1024.000000) scale(0.100000,-0.100000)"
fill="#000000" stroke="none">
<path d="M4900 8218 c0 -57 -3 -201 -7 -321 l-6 -217 -306 2 -306 3 -3 43 c-3
42 -3 42 31 42 45 0 67 26 67 77 0 67 -14 73 -177 73 -159 0 -173 -6 -173 -73
0 -48 28 -77 75 -77 35 0 35 0 35 -45 l0 -45 -110 0 -110 0 0 -84 c0 -46 3
-98 6 -115 l7 -31 103 0 104 0 0 -55 c0 -55 0 -55 -30 -55 -69 0 -108 -97 -60
-148 19 -21 30 -22 154 -22 122 0 134 2 152 21 24 27 25 91 1 117 -10 11 -31
22 -48 26 -28 5 -29 7 -29 66 0 35 4 60 11 60 5 0 45 -37 87 -82 42 -45 167
-175 276 -290 110 -114 205 -217 213 -228 10 -14 12 -34 7 -70 l-7 -50 -293 0
-294 0 0 39 c0 37 1 39 40 45 45 7 60 27 60 79 0 46 -37 80 -87 81 -21 0 -80
-1 -130 -2 -108 -2 -133 -17 -133 -78 0 -58 14 -74 65 -74 l45 0 0 -45 0 -45
-110 0 -110 0 0 -77 c0 -43 3 -95 6 -115 l7 -38 103 0 104 0 0 -55 0 -55 -34
0 c-68 0 -102 -95 -55 -154 20 -26 22 -26 144 -26 l123 0 189 -192 c362 -371
323 -325 323 -380 l0 -48 -275 0 -275 0 0 45 c0 45 0 45 34 45 77 0 92 108 21
147 -13 8 -62 10 -145 6 -144 -6 -160 -14 -160 -75 0 -49 28 -78 75 -78 35 0
35 0 35 -45 l0 -45 -110 0 -110 0 0 -97 c0 -151 -6 -143 116 -143 l104 0 0
-50 c0 -48 -1 -50 -29 -50 -45 0 -72 -29 -78 -82 -5 -41 -2 -50 21 -73 26 -26
29 -26 137 -24 l110 3 78 -90 c43 -49 102 -111 132 -137 65 -58 201 -151 252
-172 32 -13 36 -19 32 -43 -2 -15 -9 -160 -15 -322 -5 -162 -14 -425 -20 -585
-35 -1001 -60 -1652 -66 -1742 l-6 -83 -185 0 -186 0 5 -50 c3 -28 1 -53 -4
-56 -5 -3 -81 -25 -169 -49 -88 -24 -163 -46 -166 -49 -4 -3 499 -6 1117 -6
618 0 1121 2 1118 5 -3 3 -72 23 -154 45 -82 23 -157 43 -166 46 -14 4 -18 17
-18 60 l0 54 -190 0 -190 0 0 28 c0 103 -36 937 -65 1507 -11 211 -45 1120
-44 1175 l0 55 82 40 c114 56 220 139 334 261 l97 104 95 0 c119 0 138 5 156
41 33 63 0 139 -60 139 -23 0 -25 3 -25 50 l0 50 105 0 105 0 0 120 0 120
-105 0 -105 0 0 45 c0 45 0 45 34 45 25 0 39 7 50 22 23 33 20 91 -5 114 -19
17 -35 19 -158 16 -123 -3 -138 -5 -153 -24 -21 -24 -23 -77 -5 -102 7 -9 32
-20 55 -23 l42 -6 0 -43 0 -44 -289 0 -290 0 -3 40 -3 41 265 270 265 269 118
0 c65 0 126 4 136 10 26 13 45 65 37 102 -9 43 -33 68 -68 68 -27 0 -28 1 -28
55 l0 55 105 0 105 0 0 115 0 115 -105 0 -105 0 0 39 c0 40 11 51 50 51 46 0
67 93 30 130 -18 18 -33 20 -155 20 -122 0 -137 -2 -155 -20 -25 -25 -27 -91
-4 -114 9 -9 32 -16 55 -16 35 0 39 -2 39 -26 0 -14 -5 -34 -10 -45 -10 -18
-24 -19 -305 -19 l-295 0 0 66 0 66 133 136 c238 247 344 356 382 400 28 31
45 42 66 42 28 0 29 -1 29 -54 l0 -53 -39 -7 c-25 -4 -46 -15 -55 -28 -23 -32
-20 -94 4 -118 18 -18 33 -20 154 -20 133 0 135 0 155 26 43 55 8 143 -56 144
-21 0 -23 5 -23 55 l0 55 105 0 105 0 0 115 0 115 -104 0 -104 0 -4 45 -3 45
37 0 c27 0 41 6 52 22 22 31 20 84 -4 108 -18 18 -33 20 -155 20 -122 0 -137
-2 -155 -20 -13 -13 -20 -33 -20 -59 0 -47 26 -71 77 -71 32 0 33 -1 33 -45
l0 -45 -314 0 -314 0 -6 103 c-3 56 -9 200 -12 320 l-7 217 -183 0 -184 0 0
-102z m-21 -895 c-1 -71 -4 -168 -8 -217 l-6 -90 -166 175 c-91 96 -183 193
-204 217 l-37 42 211 0 211 0 -1 -127z m801 90 c-60 -71 -365 -391 -372 -392
-5 -1 -8 72 -8 162 0 89 -3 186 -6 215 l-7 52 213 0 212 0 -32 -37z m-823
-917 c-3 -7 -9 -159 -13 -337 l-7 -324 -228 234 c-173 179 -230 244 -238 273
-13 41 -35 58 -75 58 -24 0 -26 3 -26 48 0 27 3 52 7 55 3 4 137 7 296 7 239
0 288 -2 284 -14z m1061 -38 l-3 -53 -37 -3 c-40 -3 -68 -30 -68 -67 0 -13
-89 -111 -239 -265 l-238 -245 -7 280 c-3 154 -8 308 -10 343 l-4 62 305 0
304 0 -3 -52z m-1108 -1155 c0 -93 -20 -506 -24 -511 -7 -6 -116 66 -190 127
-38 30 -101 94 -140 141 -39 47 -74 87 -78 88 -5 2 -8 21 -8 42 0 45 -26 70
-72 70 -27 0 -28 2 -28 50 l0 50 270 0 270 0 0 -57z m1110 7 l0 -50 -34 0
c-43 0 -76 -38 -76 -86 0 -30 -15 -49 -122 -158 -89 -89 -146 -137 -208 -175
-46 -28 -89 -51 -96 -51 -12 0 -20 90 -30 383 l-7 187 286 0 287 0 0 -50z
m-720 -620 c11 -195 22 -398 25 -450 3 -52 15 -315 25 -585 11 -269 25 -593
30 -720 11 -260 40 -981 40 -1007 0 -15 -10 -18 -64 -18 l-64 0 -6 123 c-20
394 -34 3367 -15 3117 4 -58 17 -265 29 -460z"/>
</g>
</svg>
