<?xml version="1.0" standalone="no"?>
<!DOCTYPE svg PUBLIC "-//W3C//DTD SVG 20010904//EN"
 "http://www.w3.org/TR/2001/REC-SVG-20010904/DTD/svg10.dtd">
<svg version="1.0" xmlns="http://www.w3.org/2000/svg"
 width="1024.000000pt" height="1024.000000pt" viewBox="0 0 1024.000000 1024.000000"
 preserveAspectRatio="xMidYMid meet">
<metadata>
Created by potrace 1.16, written by Peter Selinger 2001-2019
</metadata>
<g transform="translate(0.000000,1024.000000) scale(0.100000,-0.100000)"
fill="#000000" stroke="none">
<path d="M3495 8506 c-22 -7 -101 -41 -175 -76 -74 -34 -182 -84 -240 -110
-270 -123 -555 -261 -586 -285 -19 -14 -44 -45 -57 -68 l-22 -42 -3 -2763 c-2
-2691 -2 -2765 17 -2806 34 -79 126 -126 202 -106 23 6 191 77 373 157 522
229 541 237 623 241 l71 4 314 -125 c172 -69 367 -147 433 -172 66 -26 242
-97 390 -158 196 -80 281 -110 310 -109 39 0 115 29 490 184 272 113 721 296
832 338 172 67 177 66 573 -105 487 -211 599 -255 642 -255 54 0 119 38 150
87 l23 38 3 2755 c2 2537 1 2758 -14 2799 -29 77 -68 109 -214 179 -403 192
-856 392 -917 405 -84 18 -96 13 -593 -216 -267 -123 -294 -132 -345 -117 -22
7 -141 57 -265 112 -124 55 -258 113 -297 129 -93 37 -40 54 -621 -203 -131
-58 -139 -58 -259 -5 -43 19 -139 62 -213 95 -74 33 -200 89 -280 125 -200 89
-258 101 -345 73z m1791 -817 c311 -43 568 -224 708 -500 l51 -100 102 -2
c159 -3 161 -7 162 -357 1 -228 -3 -265 -29 -301 -17 -22 -27 -24 -122 -29
-119 -6 -115 -2 -103 -115 6 -60 6 -60 50 -78 53 -22 161 -100 228 -166 63
-60 146 -185 201 -302 70 -149 72 -132 -40 -335 l-98 -176 -17 98 c-58 343
-288 625 -642 788 -50 23 -104 48 -118 54 l-27 11 50 51 c121 125 178 265 185
450 6 145 -12 236 -67 346 -115 228 -330 367 -590 381 -129 7 -231 -15 -360
-79 -149 -73 -287 -236 -335 -394 -8 -26 -19 -89 -26 -140 -15 -111 -2 -230
36 -330 27 -72 94 -180 149 -238 20 -21 36 -42 36 -46 0 -4 -21 -15 -47 -25
-156 -57 -380 -207 -487 -326 -133 -148 -228 -354 -243 -526 -3 -40 -9 -73
-12 -73 -9 1 -179 291 -192 328 -10 28 -7 44 16 110 42 120 136 273 229 370
57 60 162 137 230 168 l56 25 0 85 0 84 -99 0 c-115 0 -127 3 -145 39 -18 34
-18 41 -17 338 1 251 1 252 25 280 24 27 27 28 136 30 l112 2 40 83 c116 242
316 409 576 483 152 44 291 55 438 34z m-73 -1813 c48 -20 79 -60 140 -176
136 -260 367 -708 557 -1080 114 -223 239 -466 278 -540 121 -231 113 -179
120 -806 l5 -542 -24 -15 c-28 -18 -243 -107 -259 -107 -7 0 -10 174 -10 570
l1 570 -62 132 c-83 180 -453 908 -460 908 -6 0 -324 -339 -345 -368 -10 -13
-14 -13 -31 -1 -21 14 -106 107 -248 267 -44 50 -85 93 -92 96 -7 3 -26 -20
-46 -57 -67 -119 -427 -848 -458 -924 l-31 -78 1 -557 c1 -307 -1 -558 -6
-558 -4 0 -69 25 -143 55 l-135 54 -3 508 c-2 351 1 530 9 578 9 55 30 106 99
240 530 1029 885 1713 904 1743 29 45 63 78 96 91 36 14 106 13 143 -3z
m-1847 -181 c50 -29 88 -85 229 -330 108 -186 166 -288 272 -470 38 -66 89
-156 113 -200 24 -44 52 -92 62 -107 10 -14 18 -29 18 -32 0 -3 -46 22 -102
55 -57 34 -224 128 -372 211 -148 82 -282 158 -298 168 l-30 18 -62 -38 c-145
-89 -659 -381 -663 -376 -3 3 4 17 14 33 24 33 159 274 298 528 54 99 124 225
155 280 31 55 67 119 79 142 29 57 79 113 116 129 50 22 123 17 171 -11z
m3721 9 c56 -27 80 -66 363 -589 261 -480 281 -518 278 -520 -2 -1 -328 182
-583 328 -33 19 -79 45 -102 57 l-43 23 -52 -28 c-29 -16 -174 -98 -323 -184
-148 -85 -295 -168 -325 -184 -30 -17 -63 -37 -72 -45 -25 -21 -22 -4 6 37 13
20 55 90 93 156 39 66 115 197 170 290 55 94 151 260 213 369 117 206 164 270
215 292 42 18 120 17 162 -2z"/>
</g>
</svg>
