<?xml version="1.0" standalone="no"?>
<!DOCTYPE svg PUBLIC "-//W3C//DTD SVG 20010904//EN"
 "http://www.w3.org/TR/2001/REC-SVG-20010904/DTD/svg10.dtd">
<svg version="1.0" xmlns="http://www.w3.org/2000/svg"
 width="1024.000000pt" height="1024.000000pt" viewBox="0 0 1024.000000 1024.000000"
 preserveAspectRatio="xMidYMid meet">
<metadata>
Created by potrace 1.16, written by Peter Selinger 2001-2019
</metadata>
<g transform="translate(0.000000,1024.000000) scale(0.100000,-0.100000)"
fill="#000000" stroke="none">
<path d="M2444 7901 c-109 -31 -183 -94 -231 -196 l-28 -60 0 -2680 0 -2680
27 -57 c53 -113 151 -191 274 -216 28 -6 104 -12 168 -13 79 -1 116 -5 116
-13 0 -7 3 -8 8 -1 4 6 16 11 27 11 11 0 23 -5 27 -11 5 -7 8 -7 8 1 0 6 21
10 49 10 41 0 49 -4 48 -18 -1 -21 -8 -23 -26 -5 -11 10 -13 10 -7 0 4 -7 2
-13 -3 -13 -6 0 -3 -8 7 -18 16 -17 18 -16 33 17 15 30 22 35 58 38 34 3 41 0
41 -14 0 -15 2 -15 9 -4 12 19 44 24 37 6 -3 -8 -1 -15 4 -17 5 -2 2 -14 -6
-28 -13 -23 -14 -23 -9 -3 4 13 2 31 -4 40 -9 15 -10 13 -9 -12 0 -16 3 -38 5
-48 5 -17 6 -17 17 -1 13 18 36 12 36 -9 0 -7 9 -13 20 -13 13 0 19 5 16 13
-3 7 2 13 10 13 8 0 12 5 9 10 -4 6 -11 7 -17 4 -7 -4 -8 -2 -4 4 4 7 14 12
22 12 8 0 13 -4 9 -9 -3 -5 -1 -12 5 -16 6 -3 13 0 16 8 2 7 11 14 19 14 22 0
18 -15 -5 -22 -22 -7 -26 -20 -10 -30 6 -3 10 1 10 9 0 9 7 16 16 16 15 0 15
-2 2 -23 -9 -12 -18 -20 -22 -17 -4 3 -11 -2 -16 -10 -8 -12 -10 -12 -11 5 -1
11 0 27 1 35 1 10 -7 6 -22 -10 -13 -14 -23 -27 -21 -29 1 -2 -3 -11 -9 -20
-7 -9 -8 -13 -4 -9 5 4 15 3 22 -3 9 -8 11 -5 7 9 -2 11 0 23 6 26 10 7 16 -7
12 -28 -1 -5 10 -1 24 8 14 9 31 14 38 10 7 -4 9 -3 4 1 -4 5 5 16 19 26 26
16 26 17 5 24 -11 3 -21 10 -21 15 0 5 13 1 29 -8 l30 -17 -21 -22 c-12 -13
-18 -26 -15 -30 4 -3 7 -1 7 6 0 8 6 11 16 7 8 -3 12 -2 9 4 -3 6 -2 10 4 10
8 0 6 63 -3 79 -2 3 0 15 5 26 l9 20 -1 -20 c-2 -40 1 -50 21 -63 24 -15 26
-9 4 12 -14 15 -14 16 0 16 10 0 16 9 17 23 l0 22 10 -23 c5 -13 14 -20 20
-16 8 4 9 0 4 -15 -4 -15 -2 -21 8 -21 11 0 13 -7 10 -22 -3 -13 -2 -20 2 -16
5 4 14 3 21 -3 10 -9 15 -7 20 4 3 9 3 21 -1 27 -3 5 1 10 10 10 11 0 15 -6
11 -18 -6 -17 28 -62 40 -54 14 8 25 0 20 -15 -6 -15 -4 -15 14 2 22 20 28 44
6 26 -9 -8 -16 -8 -20 -2 -4 6 2 14 11 20 23 11 58 -11 48 -31 -3 -7 -1 -6 7
2 7 9 21 14 31 12 13 -3 17 1 15 14 -2 9 2 19 9 21 15 5 9 -32 -9 -56 -12 -14
-11 -15 5 -2 14 11 23 11 42 3 14 -6 24 -8 24 -4 -1 4 -1 15 0 26 1 15 4 16
16 6 8 -7 15 -9 15 -4 0 4 5 3 12 -4 7 -7 15 -12 18 -12 12 0 8 44 -7 66 -9
15 -11 24 -4 24 6 0 11 8 12 18 0 14 2 14 8 -3 5 -11 4 -25 0 -31 -6 -8 -4
-14 5 -17 10 -4 13 1 11 19 -1 13 2 27 6 30 9 5 11 -2 13 -41 1 -11 7 -20 14
-21 6 -1 17 -2 22 -3 6 0 10 -6 10 -12 0 -5 -4 -8 -9 -5 -5 4 -12 0 -14 -6 -4
-10 -6 -10 -6 0 -1 8 -7 6 -19 -5 -11 -10 -17 -21 -15 -25 2 -5 -1 -8 -6 -8
-6 0 -11 -5 -11 -11 0 -6 6 -9 14 -6 8 3 17 1 20 -6 3 -7 2 1 -1 17 -4 18 -2
27 4 23 6 -4 18 0 29 7 16 12 22 11 43 -5 32 -25 35 -19 17 27 -8 22 -10 32
-4 23 11 -15 13 -15 29 4 14 19 20 20 43 9 14 -6 26 -20 26 -29 -1 -16 -2 -16
-13 -2 -20 25 -42 29 -55 8 -9 -14 -9 -21 1 -31 7 -7 12 -23 11 -35 -1 -12 2
-20 7 -18 4 3 7 13 7 23 0 9 3 26 7 37 5 16 5 17 -4 5 -6 -8 -11 -10 -11 -4 0
18 12 25 25 14 7 -6 11 -25 9 -43 -1 -17 0 -27 2 -20 3 7 12 9 20 6 13 -5 13
-8 -1 -29 -11 -18 -12 -23 -3 -22 7 2 16 12 19 23 3 11 11 19 17 18 7 -2 12 2
12 7 0 6 -6 10 -12 9 -27 -3 -38 2 -38 17 0 10 5 14 16 10 8 -3 12 -2 9 4 -3
6 1 10 10 10 11 0 15 -5 11 -15 -3 -9 0 -15 10 -15 8 0 13 4 10 9 -3 5 1 11 9
15 20 7 19 -3 -5 -41 -13 -22 -16 -34 -8 -39 7 -4 8 -3 4 4 -4 7 -2 12 3 12 6
0 11 7 11 15 0 8 5 15 10 15 6 0 10 10 11 23 0 12 3 16 6 10 2 -7 14 -13 25
-13 16 0 18 -3 9 -14 -9 -11 -7 -13 11 -11 13 1 29 3 36 4 7 0 10 6 7 12 -4 6
2 5 13 -2 12 -7 19 -17 16 -21 -3 -4 2 -5 10 -2 9 3 16 10 16 15 0 5 7 9 16 9
8 0 12 5 9 11 -5 7 -12 6 -23 -4 -10 -8 -23 -12 -30 -10 -8 3 -4 11 13 25 14
10 29 17 34 14 5 -3 12 9 16 27 6 31 7 32 16 8 6 -15 6 -28 0 -35 -6 -7 -6
-17 -1 -26 8 -13 10 -12 10 2 0 12 5 16 18 12 10 -4 13 -3 6 3 -6 4 -13 16
-17 26 -5 13 -1 17 14 17 13 0 18 4 13 12 -4 7 -3 8 4 4 13 -8 5 -36 -11 -36
-6 0 -7 -3 -4 -7 4 -3 16 2 27 12 19 18 20 17 20 -3 0 -14 -6 -22 -17 -23 -15
0 -15 -2 2 -9 11 -5 14 -9 8 -9 -8 -1 -6 -8 6 -20 17 -17 26 -18 53 -10 18 5
34 9 35 9 2 0 3 -8 3 -17 0 -9 3 -14 6 -10 3 3 16 2 29 -3 20 -8 22 -6 17 13
-3 12 -7 16 -10 9 -2 -8 -9 -9 -23 -2 -26 15 -24 28 7 36 16 4 23 11 20 21 -4
8 4 17 18 23 13 5 27 14 31 20 3 5 11 8 16 4 6 -3 4 -16 -6 -31 -9 -14 -15
-25 -13 -26 2 -1 15 -12 29 -25 l26 -22 -3 27 c-1 16 -5 38 -7 50 -4 16 0 24
14 28 11 4 16 11 13 17 -5 7 -2 8 6 3 8 -5 11 -3 8 6 -3 8 -11 13 -17 11 -6
-1 -14 5 -18 13 -5 14 -8 14 -25 -2 -16 -15 -18 -15 -13 -1 10 24 33 30 44 10
10 -16 10 -16 11 0 0 12 7 16 27 14 15 -2 29 -8 31 -14 3 -11 -16 -11 -35 1
-18 11 -16 -8 2 -23 13 -11 12 -15 -10 -34 -24 -21 -36 -54 -15 -41 6 4 8 9 6
13 -2 4 16 7 40 7 24 1 44 -3 44 -7 0 -4 -4 -8 -10 -8 -5 0 -10 -7 -10 -15 0
-8 5 -15 11 -15 5 0 7 5 4 10 -3 6 0 13 8 16 13 5 13 9 2 31 -8 15 -12 30 -10
34 7 10 55 17 55 8 0 -5 -4 -9 -10 -9 -5 0 -7 -8 -4 -17 5 -15 3 -15 -10 2
-16 19 -16 19 -13 -5 4 -20 10 -24 28 -22 13 1 29 9 35 17 6 8 14 12 17 8 13
-12 7 13 -6 27 -10 12 -9 12 5 1 14 -10 18 -9 28 6 10 16 11 16 6 1 -3 -10 -1
-18 4 -18 5 0 -7 -15 -27 -33 -24 -23 -32 -36 -25 -41 8 -4 16 2 21 16 6 13
10 17 11 8 0 -9 6 -6 15 10 7 14 17 25 22 25 4 0 7 6 7 12 -1 7 3 10 8 7 5 -3
7 -12 4 -19 -3 -9 2 -11 15 -8 15 4 18 2 13 -11 -7 -17 -34 -22 -34 -6 0 5 -7
7 -15 4 -8 -4 -15 -13 -15 -21 0 -12 3 -13 13 -4 16 13 28 5 20 -15 -3 -8 0
-14 6 -14 6 0 11 7 11 16 0 14 2 14 16 -1 13 -12 14 -18 4 -31 -11 -12 -10
-13 4 -8 18 7 22 29 6 39 -5 3 -10 14 -10 23 1 16 1 16 11 0 14 -25 24 -22 38
9 13 27 13 28 -8 9 -18 -17 -21 -17 -27 -3 -3 9 -1 24 5 34 8 14 10 15 11 3 0
-13 1 -13 10 0 6 10 10 11 10 3 0 -7 7 -13 16 -13 10 0 14 -6 10 -15 -7 -18 5
-20 22 -3 9 9 12 9 12 -3 0 -8 -5 -20 -12 -27 -9 -9 -9 -12 0 -12 7 0 12 -5
12 -11 0 -6 6 -17 14 -25 12 -12 16 -9 25 16 10 31 26 43 17 13 -4 -14 0 -18
20 -20 15 0 30 -7 35 -15 6 -9 9 -9 9 -1 0 6 -4 15 -10 18 -5 3 -10 11 -10 17
0 6 9 3 19 -6 13 -12 18 -27 16 -49 -3 -26 -2 -29 6 -14 6 10 7 32 4 49 -6 23
-4 29 6 26 8 -3 12 -14 11 -24 -3 -14 -1 -16 8 -8 7 7 8 19 1 36 -5 14 -7 29
-3 33 4 4 -3 4 -16 0 -12 -3 -21 -3 -20 2 1 4 -4 19 -11 32 -7 13 -8 21 -3 17
6 -3 13 2 15 11 3 10 5 5 4 -12 -2 -21 3 -30 16 -33 11 -2 17 3 17 15 0 15 2
16 10 3 6 -9 10 -10 10 -3 0 16 58 12 65 -5 3 -7 11 -10 17 -6 10 5 10 4 0 -7
-11 -12 -14 -12 -22 1 -8 12 -10 11 -10 -6 0 -11 3 -23 6 -27 8 -8 54 34 54
50 0 7 4 13 10 13 5 0 9 -3 7 -7 -3 -12 6 -15 26 -8 19 8 24 26 5 21 -7 -1
-10 -1 -5 1 4 3 7 12 8 21 0 11 2 12 6 4 2 -6 9 -10 14 -6 20 12 7 -18 -20
-47 -18 -18 -31 -25 -33 -18 -5 15 -48 -19 -48 -37 0 -6 -9 -14 -20 -17 -17
-4 -20 -2 -14 15 4 12 2 18 -4 14 -14 -9 -21 -53 -10 -68 7 -9 8 -8 4 6 -5 14
-2 17 10 12 10 -4 26 5 45 25 16 18 32 29 36 25 3 -3 1 -6 -6 -6 -7 0 -10 -4
-6 -9 7 -12 -45 -62 -57 -55 -4 3 -8 1 -8 -3 0 -5 9 -14 21 -21 17 -11 20 -11
17 4 -2 9 3 19 10 21 7 3 12 -4 12 -15 0 -11 7 -23 16 -26 13 -5 14 -3 7 6
-20 25 -24 55 -8 55 10 0 14 -6 10 -16 -5 -13 -4 -14 7 -3 11 11 10 15 -4 26
-12 9 -14 16 -6 30 8 15 12 16 20 5 7 -10 7 -7 3 9 -4 13 -2 22 4 22 6 0 11
-8 12 -17 0 -13 3 -11 11 7 6 14 10 32 9 40 -2 13 -1 13 9 0 9 -12 10 -9 6 13
-4 15 -3 27 2 27 4 0 8 -9 9 -21 2 -25 21 -49 39 -49 10 0 14 -13 14 -41 0
-22 4 -38 9 -35 4 3 6 17 3 32 -3 18 0 30 11 35 9 6 15 22 15 39 -1 30 -18 44
-18 14 0 -8 -4 -13 -10 -9 -15 9 1 35 22 35 15 0 19 -5 15 -20 -6 -25 8 -36
17 -14 4 9 9 14 13 11 3 -4 0 -14 -8 -23 -8 -10 -14 -33 -14 -53 0 -23 -4 -35
-12 -34 -7 2 -13 -2 -13 -8 0 -6 7 -8 16 -5 9 3 23 6 32 7 11 0 12 2 5 6 -18
7 -16 23 3 23 8 0 12 5 9 10 -4 6 -11 7 -17 4 -6 -4 -8 -2 -4 4 3 5 1 12 -6
14 -9 3 -9 6 0 12 7 4 12 2 12 -3 0 -6 7 -11 15 -11 18 0 20 17 3 23 -7 2 -10
8 -6 12 12 12 37 -14 33 -34 -4 -23 10 -47 19 -32 4 6 3 11 -3 11 -6 0 -8 7
-5 15 7 18 26 20 23 3 -3 -29 4 -41 10 -18 10 34 2 53 -20 47 -22 -6 -33 19
-18 41 10 16 10 16 5 0 -3 -10 -1 -20 4 -23 6 -4 10 1 10 9 0 8 4 18 10 21 5
3 7 0 4 -8 -4 -10 2 -14 20 -14 14 0 26 5 26 12 0 7 7 16 16 19 14 5 15 4 4
-9 -7 -8 -10 -15 -6 -15 3 0 -2 -9 -11 -20 -16 -19 -18 -19 -25 -3 -6 16 -7
15 -7 -3 -1 -23 15 -34 37 -27 6 3 12 11 12 19 0 8 5 14 12 14 6 0 8 3 5 6
-10 10 13 45 24 38 6 -3 3 -12 -8 -20 -11 -8 -13 -13 -5 -14 6 0 12 -5 12 -11
0 -5 -4 -8 -9 -5 -14 9 -21 -20 -8 -34 10 -10 7 -12 -10 -7 -13 3 -26 1 -29
-5 -4 -7 -9 -6 -14 2 -5 9 -9 9 -14 1 -4 -6 -3 -11 3 -11 5 0 12 -8 14 -17 4
-17 5 -17 6 0 1 18 10 21 34 11 9 -3 13 -13 9 -26 -3 -15 -1 -19 7 -14 6 4 9
12 6 17 -4 5 -2 9 3 9 6 0 8 10 4 22 -3 14 -2 19 6 14 7 -4 12 -2 12 3 0 6
-10 12 -22 12 -17 1 -19 2 -5 6 9 2 17 10 18 16 0 7 4 2 9 -10 5 -13 16 -23
24 -23 9 0 25 10 36 23 16 16 19 17 15 5 -7 -17 3 -23 28 -19 4 0 7 -8 7 -19
0 -23 6 -25 23 -7 17 16 15 35 -3 48 -12 8 -9 10 12 6 15 -2 29 1 32 7 3 8 5
7 5 -1 1 -6 -6 -18 -14 -26 -8 -8 -12 -17 -9 -20 9 -8 35 4 29 13 -3 5 0 12 6
16 7 4 9 3 6 -3 -10 -15 34 -24 51 -11 10 9 15 9 22 -1 5 -9 10 -10 14 -2 4 6
3 11 -3 11 -6 0 -8 7 -5 15 4 8 10 15 16 15 5 0 7 -4 4 -9 -4 -5 -1 -11 6 -13
7 -3 2 -13 -12 -26 -22 -20 -23 -24 -8 -38 15 -15 16 -15 15 1 -1 10 4 20 11
22 6 3 12 0 12 -7 0 -6 -4 -8 -10 -5 -6 4 -7 -1 -3 -11 6 -15 7 -15 15 0 6 11
16 15 29 11 11 -4 19 -2 19 4 0 6 7 11 15 11 9 0 12 -6 9 -17 -3 -10 2 -7 11
7 l16 25 -4 -27 c-2 -15 0 -25 4 -22 5 3 9 12 9 20 0 8 7 14 15 14 10 0 15 10
15 26 0 21 4 25 20 21 12 -3 18 -1 14 5 -4 6 -1 9 6 6 8 -2 16 -10 18 -18 3
-9 -2 -11 -17 -7 -32 8 -35 -10 -3 -21 23 -8 31 -6 40 7 10 13 11 12 2 -6 -10
-21 -50 -29 -50 -10 0 4 -5 5 -11 1 -8 -4 -7 -9 2 -15 7 -4 16 -6 20 -3 4 2
11 -1 15 -7 5 -8 8 -8 14 0 3 7 14 9 24 5 13 -5 14 -9 5 -20 -6 -8 -14 -12
-18 -9 -4 2 -7 -5 -6 -17 1 -20 32 -45 42 -34 4 3 1 6 -6 6 -7 0 -9 4 -6 10 3
6 -1 7 -10 4 -11 -5 -14 -2 -9 9 3 9 11 14 18 11 9 -3 13 3 13 18 1 39 3 48
11 48 5 0 9 -14 10 -31 1 -37 6 -43 27 -35 11 4 14 13 9 30 -3 14 -1 27 6 31
8 5 10 2 6 -11 -3 -11 -1 -26 4 -34 7 -12 10 -8 10 14 0 21 4 27 15 22 8 -3
14 -2 13 2 -1 4 2 15 6 25 10 22 0 50 -15 42 -6 -4 -8 -13 -6 -19 7 -17 -10
-43 -20 -32 -4 5 -3 11 3 13 7 2 10 13 7 23 -3 11 0 20 6 20 5 0 9 6 7 13 -1
6 -1 8 2 4 2 -5 18 -18 36 -29 17 -11 23 -18 14 -14 -13 4 -18 0 -18 -14 0
-11 -9 -29 -21 -41 -17 -17 -19 -25 -10 -43 11 -20 11 -20 5 3 -5 19 -3 23 10
18 9 -4 15 -3 14 1 -1 4 2 19 6 35 9 29 26 37 26 12 0 -8 4 -15 9 -15 6 0 8
15 5 32 -5 35 9 68 23 54 4 -5 2 -11 -4 -13 -15 -5 -18 -53 -4 -53 10 0 21
-48 12 -53 -3 -2 -1 -3 4 -2 6 2 9 9 7 16 -1 8 4 5 13 -5 13 -18 15 -18 15 -2
0 11 6 16 18 14 12 -2 16 3 15 19 -2 20 19 36 52 38 5 0 12 11 15 24 6 25 30
42 30 21 0 -6 5 -8 13 -3 16 10 37 13 38 5 1 -4 3 -17 4 -29 2 -23 24 -57 32
-49 3 2 0 14 -7 25 -9 17 -8 21 5 21 8 0 14 -3 14 -7 -4 -23 3 -30 26 -28 14
2 27 -1 31 -6 3 -5 0 -9 -5 -9 -8 0 -7 -7 1 -20 7 -10 9 -23 4 -27 -11 -12
-36 26 -29 45 4 10 2 14 -3 9 -5 -5 -9 -22 -9 -38 0 -22 5 -29 20 -29 35 0 49
15 36 39 -10 17 -9 22 3 27 8 3 17 13 20 21 5 13 4 13 -7 4 -8 -6 -27 -8 -45
-5 -30 6 -30 6 -13 35 21 37 54 40 45 4 -8 -33 4 -32 17 2 7 19 13 23 21 15 8
-8 8 -15 -2 -26 -10 -13 -10 -17 2 -21 18 -7 12 -54 -8 -62 -7 -2 -10 -11 -8
-18 3 -7 -4 -22 -16 -33 l-21 -19 25 4 c16 3 23 10 19 19 -3 8 0 14 6 14 6 0
10 3 10 8 -1 4 -1 14 0 22 1 12 4 12 12 -3 5 -9 7 -22 3 -29 -4 -7 -3 -8 5 -4
6 4 9 16 6 27 -4 10 -2 19 4 19 5 0 12 -8 14 -17 2 -10 3 2 2 27 -2 47 2 70
14 70 4 0 6 -16 5 -35 -2 -19 1 -35 6 -35 6 0 10 11 10 24 0 14 4 27 8 30 4 3
7 -9 6 -26 -1 -17 -8 -35 -16 -39 -7 -5 -8 -9 -3 -9 6 0 3 -5 -5 -10 -8 -5
-10 -10 -4 -10 16 0 31 20 43 60 l11 35 -5 -38 c-3 -27 0 -37 8 -34 7 2 11 11
9 20 -4 22 16 57 31 56 9 0 9 -2 0 -6 -7 -2 -12 -14 -12 -26 1 -17 2 -18 6 -4
7 25 19 21 18 -6 -2 -28 -14 -49 -25 -42 -9 6 -44 -44 -36 -52 3 -3 11 6 17
20 13 28 32 27 23 -1 -3 -9 1 -6 9 7 11 18 16 21 19 10 3 -8 3 -3 1 9 -2 16 0
21 8 17 8 -6 8 -2 0 14 -10 17 -9 21 4 21 8 0 15 7 15 16 0 8 -4 13 -9 9 -5
-3 -13 0 -17 6 -4 8 -3 9 4 5 8 -5 12 1 12 15 0 18 -2 19 -15 9 -12 -10 -15
-10 -15 2 0 8 10 14 25 14 17 0 24 -4 21 -13 -3 -7 -1 -15 5 -18 5 -4 7 -10 4
-15 -11 -17 -14 -70 -4 -70 5 0 9 9 9 19 0 11 5 23 10 26 6 4 7 11 4 17 -4 6
-2 8 3 5 6 -4 14 1 17 10 6 14 9 15 15 4 6 -8 11 -9 15 -3 3 6 2 13 -4 17 -16
10 -12 21 10 22 11 1 20 -2 20 -8 0 -5 -4 -9 -8 -9 -5 0 -9 -7 -9 -15 0 -10 6
-14 14 -10 8 3 17 5 19 5 2 0 4 7 4 15 0 8 4 15 10 15 5 0 8 -16 6 -35 -3 -38
-19 -64 -30 -47 -3 6 1 17 9 25 23 24 18 31 -9 13 -18 -11 -26 -12 -28 -4 -3
7 -10 -2 -16 -20 -11 -32 0 -47 12 -15 6 15 8 15 23 0 9 -9 13 -20 9 -24 -4
-4 -11 -1 -16 7 -8 13 -10 12 -10 -2 0 -10 6 -18 13 -18 6 0 22 -3 35 -6 14
-4 22 -2 22 6 0 7 -7 10 -15 6 -9 -3 -15 0 -15 10 0 8 4 13 9 9 9 -5 28 78 23
98 -1 4 2 7 7 7 10 0 8 -51 -3 -68 -7 -12 -1 -61 10 -71 3 -3 5 1 4 9 -5 35 0
42 17 25 14 -14 14 -18 2 -27 -12 -8 -12 -9 1 -5 9 2 14 14 14 33 -3 48 -4 50
-15 34 -9 -13 -10 -12 -5 2 3 10 1 20 -4 23 -16 10 8 44 30 42 11 -1 20 -5 20
-10 0 -5 -6 -7 -14 -4 -20 8 -28 -4 -13 -21 6 -8 11 -17 10 -19 -7 -9 -2 -23
7 -18 5 3 7 13 4 23 -5 16 -5 16 6 0 12 -19 40 -25 40 -9 0 5 3 16 6 25 10 25
-12 19 -23 -6 -10 -22 -10 -22 -10 5 -1 30 -2 29 45 31 17 1 32 -2 32 -7 0
-11 -30 -41 -30 -30 0 4 -6 -3 -13 -17 -8 -15 -20 -24 -30 -22 -22 4 -34 -25
-17 -41 9 -9 11 -8 8 8 -2 14 2 19 15 17 9 -2 17 2 17 8 0 5 7 10 15 10 8 0
15 5 15 10 0 6 5 10 10 10 6 0 10 -7 10 -15 0 -8 -4 -15 -10 -15 -5 0 -10 -5
-10 -11 0 -5 4 -8 9 -4 5 3 12 1 16 -5 4 -6 11 -8 16 -5 5 4 9 0 9 -7 0 -10 2
-10 9 1 5 8 7 21 3 29 -4 12 0 14 17 9 l22 -5 -19 32 c-13 22 -17 38 -11 47 6
10 9 8 9 -8 0 -13 5 -23 11 -23 6 0 8 9 4 20 -4 11 -2 20 4 20 6 0 11 -6 11
-14 0 -7 7 -19 15 -26 13 -11 12 -15 -5 -37 -11 -14 -20 -30 -20 -35 0 -11 25
12 29 27 2 6 7 15 13 22 5 7 7 17 3 23 -3 5 -2 10 3 10 16 0 21 -27 9 -39 -9
-9 -8 -11 6 -6 9 4 17 12 17 17 0 6 7 8 15 4 9 -3 23 6 36 24 l22 29 215 1
c118 0 235 5 259 11 140 31 264 148 294 277 5 20 9 1223 9 2674 0 2600 0 2637
-20 2700 -24 76 -78 150 -143 195 -101 68 147 63 -2996 62 -2673 0 -2850 -1
-2907 -18z m5597 -238 c53 -23 109 -78 136 -131 14 -28 19 -66 21 -161 4 -147
-9 -192 -73 -256 -78 -79 -45 -76 -881 -73 -739 3 -739 3 -780 25 -49 26 -100
82 -125 137 -27 59 -27 263 0 321 42 93 114 144 216 154 33 3 371 5 751 5 667
-1 692 -2 735 -21z m-5114 -72 c199 -102 186 -392 -21 -470 -31 -11 -74 -21
-95 -21 -198 0 -329 212 -234 381 31 56 97 110 157 129 45 14 149 4 193 -19z
m818 1 c159 -82 192 -283 66 -412 -70 -73 -164 -96 -267 -65 -142 42 -222 208
-165 341 28 64 83 119 147 144 63 26 161 22 219 -8z m735 -64 c95 -48 135
-161 90 -253 -69 -142 -275 -136 -341 10 -43 95 -2 201 96 246 54 25 102 24
155 -3z m3276 -698 l444 0 0 -110 0 -110 -2860 0 -2860 0 0 110 0 110 2358 3
c1296 2 2384 2 2416 0 32 -2 259 -3 502 -3z m446 -1630 c2 -608 1 -1111 -1
-1118 -2 -8 -113 97 -260 246 -278 283 -288 290 -376 273 -54 -10 -61 -15
-154 -99 l-81 -73 0 346 c0 216 -4 362 -11 389 -14 56 -62 114 -113 137 -39
18 -87 19 -936 19 -594 0 -908 -4 -933 -11 -49 -13 -105 -63 -128 -114 -17
-37 -19 -80 -19 -590 l0 -550 -267 267 c-279 277 -304 296 -370 283 -13 -3
-35 -8 -50 -11 -18 -3 -73 -51 -150 -126 l-122 -121 -511 509 c-281 280 -526
517 -545 527 -38 21 -117 24 -168 8 -24 -8 -107 -86 -278 -258 l-244 -246 -3
659 c-2 362 0 682 3 710 l6 50 2854 0 2854 -1 3 -1105z m-4597 -572 l506 -503
5 -499 c3 -311 1 -497 -4 -495 -6 2 -157 155 -337 339 -180 184 -430 439 -556
565 l-229 230 0 -902 c0 -497 -4 -903 -8 -903 -4 0 -44 39 -87 87 l-80 87 -5
480 -5 481 -155 -157 c-85 -87 -158 -158 -163 -158 -4 0 -7 222 -7 494 l0 494
295 289 295 289 0 135 c0 128 3 149 21 149 4 0 235 -226 514 -502z m3455 179
c0 -145 1 -345 3 -445 l3 -181 -81 -81 c-44 -44 -83 -80 -85 -80 -3 0 -4 198
-2 440 l2 440 -659 0 -659 0 -4 23 c-3 13 -3 51 0 85 l4 62 739 0 739 0 0
-263z m-1426 -249 c-43 -164 13 -355 144 -487 72 -73 135 -108 238 -135 77
-20 196 -21 259 -1 27 8 51 13 53 11 8 -9 -89 -81 -145 -108 -109 -52 -149
-58 -384 -58 l-216 0 -6 248 c-8 291 2 443 33 525 27 71 43 75 24 5z m-423
-898 c25 -56 44 -77 94 -104 37 -20 57 -21 303 -24 144 -2 262 -6 262 -8 0 -3
-7 -37 -15 -77 -8 -40 -24 -128 -35 -197 -41 -244 -59 -312 -91 -346 l-30 -31
-80 83 c-263 269 -461 459 -477 456 -13 -2 -14 -1 -4 6 10 7 10 12 -3 22 -15
12 -20 11 -37 -10 -16 -21 -17 -21 -9 -4 6 12 7 24 4 28 -3 3 -1 6 6 6 7 0 10
4 6 10 -8 13 -37 0 -31 -15 2 -7 -5 -16 -17 -19 -18 -5 -20 -8 -7 -16 12 -8
11 -10 -7 -10 -13 0 -23 -4 -23 -8 0 -5 -7 -9 -15 -9 -9 0 -14 5 -12 11 2 6 8
11 13 11 12 0 49 36 62 61 9 17 8 25 -7 38 -10 9 -21 13 -24 10 -4 -4 -13 -1
-22 6 -8 7 -15 8 -15 2 0 -5 7 -13 15 -16 12 -4 13 -11 7 -23 -5 -10 -7 -24
-5 -30 8 -22 -6 -14 -19 11 -11 20 -16 22 -28 12 -22 -17 -67 -70 -53 -62 6 3
14 2 18 -4 3 -5 1 -10 -4 -10 -14 0 -10 -19 8 -41 18 -22 43 -7 34 19 -4 15
-3 15 6 2 15 -20 14 -41 -1 -37 -7 1 -12 -5 -10 -13 2 -9 -10 -3 -30 15 -54
49 -59 57 -47 72 8 8 8 13 1 13 -6 0 -12 -6 -15 -12 -5 -14 -54 41 -49 55 1 5
-2 6 -7 3 -5 -3 -27 13 -48 37 -22 23 -45 43 -50 44 -7 1 -390 382 -463 460
-3 3 65 72 150 153 l155 148 313 -312 c233 -231 318 -322 333 -356z m2372 518
c-1 -79 -3 -393 -3 -698 l0 -555 -170 170 -170 170 0 -264 0 -264 -132 -130
-131 -129 -219 221 c-120 121 -222 221 -226 221 -4 0 -142 -135 -307 -300
l-299 -301 -103 103 c-57 56 -103 107 -103 113 0 6 183 185 408 400 577 552
1283 1227 1372 1312 41 40 77 73 80 73 3 0 4 -64 3 -142z m-1245 -669 c1 -7
-59 -75 -133 -149 -91 -91 -133 -126 -126 -107 6 15 8 27 5 27 -3 0 -2 5 2 12
4 7 9 23 10 37 2 13 9 28 16 32 9 6 9 9 1 9 -6 0 -9 8 -7 18 2 9 8 43 14 74
13 65 9 63 135 62 62 0 81 -3 83 -15z m-1274 -8 c3 -5 -1 -14 -9 -21 -8 -7
-12 -16 -9 -21 3 -5 1 -9 -4 -9 -17 0 -22 30 -7 36 8 4 12 10 9 15 -3 5 -1 9
5 9 5 0 12 -4 15 -9z m-74 -33 c0 -26 -13 -58 -22 -58 -5 0 -7 10 -4 23 3 12
3 16 0 10 -3 -7 -13 -13 -22 -13 -13 0 -11 5 8 24 28 28 40 32 40 14z m80 -72
c0 -2 -7 -9 -15 -16 -13 -11 -14 -10 -9 4 5 14 24 23 24 12z m70 -10 c0 -3 -4
-8 -10 -11 -5 -3 -10 -1 -10 4 0 6 5 11 10 11 6 0 10 -2 10 -4z m-95 -44 c-3
-3 -11 0 -18 7 -9 10 -8 11 6 5 10 -3 15 -9 12 -12z m-1895 -1352 c0 -5 -4
-10 -10 -10 -5 0 -10 5 -10 10 0 6 5 10 10 10 6 0 10 -4 10 -10z m26 -15 c1
-8 -2 -13 -7 -9 -5 3 -9 12 -9 21 0 19 13 9 16 -12z m90 13 c3 -5 12 -4 20 3
9 7 14 8 14 1 0 -18 -20 -24 -35 -12 -12 10 -16 9 -21 -4 -5 -13 -9 -14 -21
-4 -11 9 -16 9 -24 -3 -7 -12 -9 -11 -9 3 0 24 63 38 76 16z m261 -10 c-3 -8
-6 -5 -6 6 -1 11 2 17 5 13 3 -3 4 -12 1 -19z m35 -2 c4 -17 1 -23 -9 -19 -18
7 -17 -11 2 -27 15 -13 39 -5 30 11 -4 5 -1 9 5 9 7 0 10 -7 6 -15 -3 -9 0
-15 9 -15 8 0 15 -6 15 -12 0 -8 7 -5 15 6 8 11 18 17 22 13 3 -4 -1 -15 -10
-25 -10 -10 -15 -21 -12 -24 3 -2 -5 -4 -18 -2 -12 1 -26 3 -30 3 -5 1 -6 10
-2 21 6 19 6 19 -24 2 -17 -9 -31 -20 -31 -24 0 -5 -9 -8 -19 -8 -15 0 -19 7
-19 35 0 19 6 40 14 46 12 10 13 8 8 -7 -4 -14 -1 -13 15 6 11 14 21 31 21 38
0 20 7 14 12 -12z m118 12 c0 -6 -10 -8 -22 -5 -14 4 -26 0 -34 -11 -12 -16
-13 -16 -14 0 0 9 6 18 13 21 22 8 57 5 57 -5z m240 -8 c-8 -5 -17 -7 -19 -4
-3 3 1 9 9 14 8 5 17 7 19 4 3 -3 -1 -9 -9 -14z m32 -12 c-7 -7 -10 -5 -7 8 5
29 6 30 12 16 3 -8 1 -18 -5 -24z m127 16 c3 -2 -1 -10 -9 -17 -10 -9 -11 -9
-6 1 6 11 -11 17 -36 13 -5 0 -8 4 -8 10 0 10 48 5 59 -7z m441 8 c0 -5 -7 -9
-15 -9 -8 0 -12 4 -9 9 3 4 9 8 15 8 5 0 9 -4 9 -8z m50 -9 c0 -7 -4 -13 -10
-13 -5 0 -10 5 -10 11 0 5 -4 7 -10 4 -5 -3 -10 -2 -10 4 0 5 9 9 20 8 11 -1
20 -7 20 -14z m152 -5 c-7 -7 -12 -8 -12 -2 0 14 12 26 19 19 2 -3 -1 -11 -7
-17z m31 7 c-3 -9 -8 -14 -10 -11 -3 3 -2 9 2 15 9 16 15 13 8 -4z m47 -6 c0
-6 -4 -7 -10 -4 -5 3 -10 11 -10 16 0 6 5 7 10 4 6 -3 10 -11 10 -16z m118 6
c10 -10 -4 -14 -26 -8 -28 7 -29 23 -1 18 12 -3 24 -7 27 -10z m22 -15 c-17
-32 -29 -32 -17 -1 6 17 15 28 19 25 4 -3 4 -14 -2 -24z m44 15 c-4 -8 -10
-12 -15 -9 -14 8 -10 24 6 24 9 0 12 -6 9 -15z m94 1 c-7 -8 -15 -12 -17 -11
-5 6 10 25 20 25 5 0 4 -6 -3 -14z m42 4 c0 -5 -4 -10 -10 -10 -5 0 -10 5 -10
10 0 6 5 10 10 10 6 0 10 -4 10 -10z m30 0 c0 -5 -5 -10 -11 -10 -5 0 -7 5 -4
10 3 6 8 10 11 10 2 0 4 -4 4 -10z m79 1 c9 -6 10 -11 2 -15 -6 -4 -11 -3 -11
3 0 6 -7 7 -17 4 -11 -4 -14 -3 -9 5 8 14 16 15 35 3z m111 -6 c0 -8 -4 -15
-10 -15 -5 0 -7 7 -4 15 4 8 8 15 10 15 2 0 4 -7 4 -15z m160 -6 c0 -4 -9 -7
-20 -6 -11 1 -20 7 -20 13 0 7 8 10 20 7 11 -3 20 -9 20 -14z m113 0 c-9 -9
-53 -1 -53 10 0 4 14 6 31 3 17 -2 27 -8 22 -13z m217 -7 c1 -14 4 -13 20 6
18 22 19 22 17 2 -1 -11 -6 -20 -13 -20 -6 0 -19 -10 -27 -22 -13 -19 -16 -20
-16 -5 -1 9 3 17 8 17 5 0 7 9 4 19 -3 13 -11 18 -21 14 -14 -4 -15 -3 -2 5
17 13 30 6 30 -16z m70 7 c0 -6 -4 -7 -10 -4 -5 3 -10 11 -10 16 0 6 5 7 10 4
6 -3 10 -11 10 -16z m94 12 c3 -5 -1 -11 -9 -15 -8 -3 -17 0 -21 6 -4 7 -3 8
4 4 7 -4 12 -2 12 3 0 13 7 14 14 2z m101 -1 c3 -5 1 -10 -4 -10 -6 0 -11 5
-11 10 0 6 2 10 4 10 3 0 8 -4 11 -10z m35 -25 c0 -5 -5 -3 -10 5 -5 8 -10 20
-10 25 0 6 5 3 10 -5 5 -8 10 -19 10 -25z m20 19 c0 -8 -4 -12 -10 -9 -5 3
-10 10 -10 16 0 5 5 9 10 9 6 0 10 -7 10 -16z m60 3 c0 -7 4 -6 10 3 5 8 12
11 16 7 12 -12 -13 -30 -28 -21 -20 13 -38 13 -38 1 0 -5 -3 -8 -6 -4 -10 10
3 23 25 24 12 1 21 -4 21 -10z m68 -7 c-7 -11 -15 -15 -17 -9 -2 6 3 15 10 20
20 12 21 11 7 -11z m66 9 c3 -3 -6 -5 -19 -5 -14 0 -25 4 -25 8 0 8 36 6 44
-3z m97 2 c-8 -5 -11 -17 -7 -29 4 -12 1 -26 -9 -35 -8 -9 -15 -24 -16 -34 0
-16 -1 -16 -9 2 -12 27 -12 37 -1 31 10 -7 21 17 21 45 0 12 -5 17 -10 14 -6
-4 -8 -16 -5 -28 2 -12 2 -16 -1 -9 -6 13 -35 -17 -47 -48 -5 -13 -6 -13 -6 1
-1 9 8 26 19 39 11 13 20 29 20 36 0 13 11 19 44 22 15 1 17 -1 7 -7z m181
-23 c-8 -8 -9 -4 -5 13 4 13 8 18 11 10 2 -7 -1 -18 -6 -23z m208 22 c0 -5 -4
-10 -10 -10 -5 0 -10 5 -10 10 0 6 5 10 10 10 6 0 10 -4 10 -10z m164 -5 c-4
-8 -11 -12 -16 -9 -6 4 -5 10 3 15 19 12 19 11 13 -6z m56 -1 c0 -8 -4 -12
-10 -9 -5 3 -10 10 -10 16 0 5 5 9 10 9 6 0 10 -7 10 -16z m70 6 c0 -13 -28
-20 -34 -7 -2 7 -5 4 -5 -6 -1 -10 -6 -15 -11 -12 -15 10 4 30 29 32 12 1 21
-2 21 -7z m87 -10 c-1 -12 -5 -16 -10 -11 -5 5 -6 14 -3 20 11 16 15 13 13 -9z
m328 10 c3 -5 -1 -10 -10 -10 -9 0 -13 5 -10 10 3 6 8 10 10 10 2 0 7 -4 10
-10z m165 -7 c0 -15 -2 -16 -10 -3 -8 13 -10 12 -10 -4 0 -16 -2 -17 -17 -5
-15 12 -16 12 -8 -1 7 -12 5 -12 -11 1 -10 9 -25 14 -33 11 -8 -3 -11 0 -7 7
4 6 27 11 52 11 35 0 44 -3 44 -17z m-4572 -11 c10 -10 16 -26 13 -34 -5 -14
-8 -14 -19 -2 -8 9 -9 14 -2 14 7 0 4 7 -4 16 -9 8 -16 17 -16 20 0 9 11 3 28
-14z m222 14 c0 -3 -4 -8 -10 -11 -5 -3 -10 -1 -10 4 0 6 5 11 10 11 6 0 10
-2 10 -4z m50 -6 c0 -5 -2 -10 -4 -10 -3 0 -8 5 -11 10 -3 6 -1 10 4 10 6 0
11 -4 11 -10z m34 -26 c13 -12 36 5 36 28 0 10 2 10 9 -1 7 -11 9 -11 13 0 3
8 8 11 12 8 4 -4 0 -13 -9 -20 -9 -8 -24 -22 -33 -31 -17 -18 -41 -24 -43 -10
0 4 -2 21 -4 37 -2 17 -1 23 2 15 3 -8 11 -20 17 -26z m26 27 c0 -6 -4 -13
-10 -16 -5 -3 -10 1 -10 9 0 9 5 16 10 16 6 0 10 -4 10 -9z m237 -13 c-3 -8
-6 -5 -6 6 -1 11 2 17 5 13 3 -3 4 -12 1 -19z m29 7 c-3 -8 -2 -15 3 -15 4 0
8 -7 8 -16 0 -15 -2 -15 -13 1 -11 15 -9 45 3 45 3 0 3 -7 -1 -15z m134 10 c0
-7 -30 -13 -34 -7 -3 4 4 9 15 9 10 1 19 0 19 -2z m273 -10 c4 -8 3 -16 -1
-19 -4 -3 -9 4 -9 15 -2 23 3 25 10 4z m122 5 c-3 -5 5 -15 20 -22 l25 -11
-23 -26 c-13 -14 -27 -34 -31 -45 -5 -14 -14 -17 -41 -14 -31 4 -34 2 -30 -17
5 -18 5 -18 -5 -2 -6 9 -18 17 -25 17 -8 0 -15 3 -16 8 0 4 -2 15 -4 25 -2 9
1 15 6 11 5 -3 9 0 9 5 0 6 -2 11 -4 11 -2 0 -12 3 -21 7 -15 5 -16 1 -10 -28
4 -19 4 -30 -1 -26 -4 4 -9 14 -10 21 -1 7 -5 24 -9 36 -6 20 -5 22 11 15 11
-4 27 -7 37 -7 10 0 17 -7 17 -19 0 -10 7 -19 15 -19 8 0 15 -5 15 -11 0 -5 5
-7 10 -4 6 4 17 2 25 -5 8 -6 16 -7 19 -2 7 11 -16 33 -39 36 -15 2 -44 34
-45 50 0 5 6 3 14 -3 11 -9 15 -9 19 1 2 7 3 4 1 -8 -5 -28 54 -59 73 -38 14
14 6 47 -8 38 -5 -3 -7 -9 -5 -13 3 -3 -4 -7 -15 -7 -19 0 -20 1 -2 14 10 7
17 20 15 28 -2 8 2 14 8 14 6 0 8 -4 5 -10z m785 0 c0 -5 -2 -10 -4 -10 -3 0
-8 5 -11 10 -3 6 -1 10 4 10 6 0 11 -4 11 -10z m230 0 c0 -5 -2 -10 -4 -10 -3
0 -8 5 -11 10 -3 6 -1 10 4 10 6 0 11 -4 11 -10z m676 -17 c-10 -10 -19 5 -10
18 6 11 8 11 12 0 2 -7 1 -15 -2 -18z m84 17 c0 -5 -4 -10 -10 -10 -5 0 -10 5
-10 10 0 6 5 10 10 10 6 0 10 -4 10 -10z m34 -4 c-6 -17 -54 -51 -54 -39 0 5
9 14 20 21 12 7 18 17 15 22 -3 6 1 10 9 10 9 0 13 -6 10 -14z m316 4 c0 -5
-2 -10 -4 -10 -3 0 -8 5 -11 10 -3 6 -1 10 4 10 6 0 11 -4 11 -10z m150 6 c0
-3 -4 -8 -10 -11 -5 -3 -10 -1 -10 4 0 6 5 11 10 11 6 0 10 -2 10 -4z m130
-11 c0 -8 0 -17 0 -20 0 -3 -3 -6 -7 -7 -5 -2 -9 7 -9 20 -1 12 3 22 7 22 5 0
9 -7 9 -15z m33 -2 c-3 -7 -9 -10 -14 -7 -14 8 -11 21 5 21 8 0 12 -6 9 -14z
m-2704 -26 c0 -9 -2 -8 -6 1 -2 6 -10 9 -15 6 -7 -4 -8 -2 -4 5 9 13 26 5 25
-12z m44 2 c-4 -15 -8 -17 -14 -8 -6 11 4 28 18 29 0 0 -1 -9 -4 -21z m322 11
c3 -6 -1 -7 -9 -4 -18 7 -21 14 -7 14 6 0 13 -4 16 -10z m31 -5 c-3 -20 -16
-31 -16 -13 0 13 8 28 16 28 1 0 1 -7 0 -15z m58 7 c20 11 20 10 6 -8 -7 -10
-20 -24 -28 -31 -12 -10 -10 -12 8 -10 13 1 25 9 28 19 2 10 8 15 13 12 5 -3
4 -14 -2 -25 -16 -30 -22 -72 -9 -64 5 3 10 15 10 26 0 10 4 19 8 19 13 0 8
-36 -7 -54 -19 -23 -33 -20 -31 7 3 36 1 51 -7 43 -5 -4 -8 -20 -8 -34 0 -32
-18 -46 -23 -18 -3 11 0 16 7 12 6 -4 11 -2 11 3 0 6 -4 11 -9 11 -13 0 -11
54 3 63 8 6 8 10 -1 14 -7 2 -13 10 -13 16 0 8 3 8 12 -1 8 -8 16 -8 32 0z
m561 -2 c3 -5 1 -10 -4 -10 -6 0 -11 5 -11 10 0 6 2 10 4 10 3 0 8 -4 11 -10z
m120 -4 c12 17 13 16 11 -6 -1 -16 4 -24 12 -22 8 1 11 -2 7 -8 -3 -6 3 -14
13 -18 17 -6 18 -9 6 -20 -12 -11 -16 -9 -24 13 -6 14 -14 23 -20 20 -5 -3
-10 -1 -10 4 0 6 -4 11 -10 11 -19 0 -10 -22 10 -27 21 -6 23 -24 3 -30 -6 -2
-13 6 -16 19 -6 22 -6 22 -25 3 -11 -11 -18 -23 -15 -27 2 -5 -1 -8 -6 -8 -18
0 -12 24 9 43 21 18 27 47 10 47 -5 0 -9 -3 -9 -7 1 -5 1 -15 0 -23 -1 -13 -2
-13 -11 0 -15 23 -12 30 13 39 16 6 24 4 30 -6 7 -12 11 -12 22 3z m1104 -12
c4 3 7 -4 7 -15 0 -10 -4 -19 -8 -19 -4 0 -8 6 -8 13 0 8 -6 14 -12 15 -7 0
-22 3 -33 5 -11 2 -23 -1 -27 -7 -5 -7 -8 -4 -8 8 0 11 5 16 13 13 8 -3 20 -1
27 3 8 5 19 2 27 -6 8 -8 18 -12 22 -10z m99 1 c-3 -3 -9 2 -12 12 -6 14 -5
15 5 6 7 -7 10 -15 7 -18z m1196 -17 c14 -33 14 -36 -2 -34 -11 2 -16 10 -14
24 2 11 -2 23 -8 27 -6 3 -8 11 -4 16 8 13 10 10 28 -33z m19 22 c3 -11 3 -20
1 -20 -2 0 -8 9 -14 20 -6 11 -7 20 -2 20 6 0 12 -9 15 -20z m-4258 0 c-3 -5
-1 -10 6 -10 7 0 10 -3 6 -6 -9 -9 -28 6 -22 17 4 5 8 9 11 9 3 0 2 -4 -1 -10z
m350 0 c-3 -5 -12 -10 -18 -10 -7 0 -6 4 3 10 19 12 23 12 15 0z m57 -32 c3
-18 8 -41 13 -50 4 -11 3 -18 -3 -18 -6 0 -15 14 -21 30 -5 17 -7 30 -4 30 3
0 -2 10 -13 22 -10 12 -13 18 -6 14 6 -4 12 -2 12 4 0 24 18 -2 22 -32z m191
15 c7 -37 -2 -45 -33 -28 -14 8 -19 14 -11 15 11 0 11 3 1 15 -9 10 -9 15 -1
15 10 0 15 -14 12 -33 -1 -5 4 -5 10 -2 6 4 9 16 6 26 -3 11 -2 19 3 19 4 0
10 -12 13 -27z m53 4 c-3 -23 -31 -24 -40 -1 -5 14 -4 15 9 4 12 -10 15 -10
15 4 0 10 4 15 9 12 5 -4 8 -12 7 -19z m771 16 c-4 -3 -3 -11 3 -17 6 -8 1
-12 -16 -14 -22 -2 -23 0 -12 18 7 11 17 20 22 20 5 0 6 -3 3 -7z m793 -14 c0
-5 7 -5 17 -2 11 4 14 3 9 -5 -10 -16 -17 -15 -46 8 -24 19 -24 19 -2 13 12
-3 22 -9 22 -14z m392 -1 c-7 -7 -12 -8 -12 -2 0 14 12 26 19 19 2 -3 -1 -11
-7 -17z m468 18 c0 -3 -4 -8 -10 -11 -5 -3 -10 -1 -10 4 0 6 5 11 10 11 6 0
10 -2 10 -4z m213 -19 c-4 -8 -1 -7 9 1 14 11 17 10 23 -7 3 -11 14 -22 23
-24 10 -3 6 -5 -10 -6 -20 -1 -26 3 -22 13 3 9 -1 13 -12 13 -11 -1 -20 6 -22
17 -3 11 0 16 7 11 6 -3 8 -12 4 -18z m418 -9 c5 -19 3 -28 -8 -33 -13 -4 -14
0 -10 24 4 16 3 31 -1 34 -4 2 -3 3 2 2 6 -1 13 -13 17 -27z m-2935 -2 c-5
-19 -2 -25 14 -28 14 -2 17 -7 11 -17 -8 -12 -11 -12 -24 1 -16 15 -18 68 -3
68 4 0 5 -11 2 -24z m455 10 c5 3 18 2 29 -1 19 -6 19 -8 -11 -36 -18 -16 -35
-27 -38 -23 -3 3 8 17 24 30 31 25 28 32 -7 13 -24 -13 -31 -8 -21 17 4 11 8
13 11 6 2 -7 8 -10 13 -6z m281 -8 c-7 -7 -12 -8 -12 -2 0 14 12 26 19 19 2
-3 -1 -11 -7 -17z m1848 13 c0 -6 -4 -13 -10 -16 -5 -3 -10 1 -10 9 0 9 5 16
10 16 6 0 10 -4 10 -9z m-2610 -51 c0 -8 -7 -2 -15 14 -19 36 -19 45 0 20 8
-10 14 -26 15 -34z m2120 17 c0 -5 -7 -6 -16 -3 -9 3 -18 6 -20 6 -2 0 -4 7
-4 15 0 13 3 13 20 3 11 -7 20 -17 20 -21z m-2410 8 c0 4 7 2 15 -5 8 -7 15
-20 15 -28 0 -13 -3 -12 -15 4 -15 18 -15 18 -8 0 5 -15 3 -17 -8 -10 -8 5
-18 9 -23 9 -5 0 -11 7 -13 15 -4 13 -3 13 7 0 10 -12 11 -11 7 8 -5 19 -3 21
9 11 8 -6 14 -8 14 -4z m2440 5 c0 -5 -4 -10 -10 -10 -5 0 -10 5 -10 10 0 6 5
10 10 10 6 0 10 -4 10 -10z m-2910 -14 c0 -3 -4 -8 -10 -11 -5 -3 -10 -1 -10
4 0 6 5 11 10 11 6 0 10 -2 10 -4z m180 -6 c0 -5 -4 -10 -10 -10 -5 0 -10 5
-10 10 0 6 5 10 10 10 6 0 10 -4 10 -10z m455 -38 c-8 -8 -25 10 -19 20 4 6 9
5 15 -3 4 -7 6 -15 4 -17z m708 8 c3 -11 1 -20 -4 -20 -5 0 -9 2 -9 4 0 2 -3
11 -6 20 -3 9 -2 16 4 16 5 0 12 -9 15 -20z m1807 -10 c0 -5 -4 -10 -10 -10
-5 0 -10 5 -10 10 0 6 5 10 10 10 6 0 10 -4 10 -10z"/>
<path d="M6532 7474 c-20 -14 -22 -24 -22 -99 0 -46 4 -95 10 -109 l10 -26
214 0 c186 0 215 2 220 16 3 9 6 57 6 108 0 131 9 126 -226 126 -155 0 -194
-3 -212 -16z"/>
<path d="M7162 7474 c-20 -14 -22 -23 -22 -108 0 -58 5 -98 13 -109 11 -16 46
-17 432 -15 l420 3 3 106 c2 87 0 110 -13 123 -15 14 -62 16 -413 16 -344 0
-401 -2 -420 -16z"/>
<path d="M4788 3533 c7 -3 16 -2 19 1 4 3 -2 6 -13 5 -11 0 -14 -3 -6 -6z"/>
<path d="M4900 3521 c0 -5 7 -11 15 -15 8 -3 15 -1 15 3 0 5 -7 11 -15 15 -8
3 -15 1 -15 -3z"/>
<path d="M4958 3508 c-10 -10 -14 -18 -9 -18 10 0 36 29 30 34 -2 1 -12 -6
-21 -16z"/>
<path d="M4862 3504 c-7 -8 -8 -14 -3 -14 10 0 25 19 20 25 -2 1 -10 -3 -17
-11z"/>
<path d="M4890 3490 c0 -5 5 -10 11 -10 5 0 7 5 4 10 -3 6 -8 10 -11 10 -2 0
-4 -4 -4 -10z"/>
<path d="M4857 3465 c3 -8 9 -12 14 -9 12 7 11 11 -5 17 -10 4 -13 1 -9 -8z"/>
<path d="M5686 3083 c-6 -14 -5 -15 5 -6 7 7 10 15 7 18 -3 3 -9 -2 -12 -12z"/>
<path d="M5716 3053 c-6 -14 -5 -15 5 -6 7 7 10 15 7 18 -3 3 -9 -2 -12 -12z"/>
<path d="M5653 2961 c0 -11 5 -18 9 -15 4 3 5 11 1 19 -7 21 -12 19 -10 -4z"/>
<path d="M5730 2961 c0 -6 4 -13 10 -16 6 -3 7 1 4 9 -7 18 -14 21 -14 7z"/>
<path d="M3540 1922 c0 -6 -7 -9 -17 -5 -10 4 -14 2 -10 -4 4 -6 1 -13 -5 -16
-7 -2 -10 -8 -6 -12 4 -4 17 2 29 14 12 11 19 24 16 28 -4 3 -7 1 -7 -5z"/>
<path d="M3600 1894 c0 -8 5 -12 10 -9 6 4 8 11 5 16 -9 14 -15 11 -15 -7z"/>
<path d="M4140 1891 c0 -5 5 -13 10 -16 6 -3 10 -2 10 4 0 5 -4 13 -10 16 -5
3 -10 2 -10 -4z"/>
<path d="M6880 1970 c-9 -16 -8 -18 5 -14 8 4 15 12 15 20 0 20 -7 17 -20 -6z"/>
<path d="M7734 1945 c0 -46 9 -58 20 -29 3 8 11 12 17 8 8 -4 7 -9 -2 -15 -8
-5 -9 -9 -4 -9 20 1 45 28 39 43 -4 11 0 15 13 12 10 -1 17 -8 15 -15 -1 -6 2
-9 8 -5 6 3 8 11 5 16 -4 5 -2 9 4 9 5 0 12 -6 14 -12 3 -7 6 -3 6 9 1 17 -4
21 -21 20 -13 0 -26 -6 -30 -12 -5 -6 -8 -3 -8 8 0 9 -5 17 -11 17 -6 0 -9 -6
-6 -14 3 -8 -1 -22 -9 -33 -14 -17 -15 -15 -10 17 l6 35 -15 -32 c-19 -41 -23
-41 -17 -3 2 17 0 30 -5 30 -6 0 -10 -20 -9 -45z"/>
<path d="M7971 1974 c0 -11 3 -14 6 -6 3 7 2 16 -1 19 -3 4 -6 -2 -5 -13z"/>
<path d="M2866 1964 c-4 -9 -4 -19 -1 -22 2 -3 7 3 11 12 4 9 4 19 1 22 -2 3
-7 -3 -11 -12z"/>
<path d="M2966 1965 c7 -18 20 -19 28 -2 3 6 4 3 3 -8 -1 -15 4 -20 21 -19 17
0 21 -3 17 -15 -5 -12 -3 -13 5 -5 8 8 8 18 -1 37 -10 21 -19 27 -45 27 -26 0
-32 -4 -28 -15z m64 -15 c0 -5 -4 -10 -10 -10 -5 0 -10 5 -10 10 0 6 5 10 10
10 6 0 10 -4 10 -10z"/>
<path d="M6719 1960 c-4 -64 -3 -80 6 -77 6 2 10 10 10 18 0 8 5 17 10 21 6 4
2 8 -8 8 -14 0 -16 4 -7 19 13 25 13 31 0 31 -5 0 -11 -9 -11 -20z"/>
<path d="M6746 1964 c-4 -9 -4 -19 -1 -22 3 -3 5 0 5 6 0 20 20 13 30 -10 8
-21 9 -20 6 7 -3 33 -30 46 -40 19z"/>
<path d="M7910 1970 c0 -5 5 -10 11 -10 5 0 7 5 4 10 -3 6 -8 10 -11 10 -2 0
-4 -4 -4 -10z"/>
<path d="M7990 1970 c0 -5 5 -10 11 -10 5 0 7 5 4 10 -3 6 -8 10 -11 10 -2 0
-4 -4 -4 -10z"/>
<path d="M8090 1970 c-13 -8 -12 -10 3 -10 9 0 17 5 17 10 0 12 -1 12 -20 0z"/>
<path d="M7586 1951 c-4 -7 -5 -15 -2 -18 9 -9 19 4 14 18 -4 11 -6 11 -12 0z"/>
<path d="M2836 1935 c-3 -8 -1 -15 4 -15 6 0 10 7 10 15 0 8 -2 15 -4 15 -2 0
-6 -7 -10 -15z"/>
<path d="M3371 1920 c6 -16 15 -30 21 -30 5 0 7 6 4 13 -3 6 -9 20 -12 30 -4
9 -10 17 -15 17 -4 0 -3 -13 2 -30z"/>
<path d="M5254 1938 c3 -10 1 -20 -4 -23 -6 -4 -10 -1 -10 4 0 6 -4 11 -10 11
-19 0 -10 -26 10 -27 26 -2 34 12 20 34 -11 16 -11 16 -6 1z"/>
<path d="M6758 1928 c0 -13 -2 -29 -2 -36 -1 -8 -10 -20 -20 -28 -15 -10 -16
-14 -5 -14 18 0 51 37 40 44 -5 3 -6 17 -3 31 2 14 2 25 -2 25 -3 0 -7 -10 -8
-22z"/>
<path d="M7216 1926 c-19 -30 -20 -36 -5 -36 5 0 7 5 4 10 -3 6 -2 10 3 10 6
0 13 7 16 16 10 27 0 27 -18 0z"/>
<path d="M7700 1939 c0 -5 5 -7 10 -4 6 3 10 8 10 11 0 2 -4 4 -10 4 -5 0 -10
-5 -10 -11z"/>
<path d="M7887 1936 c-4 -10 -1 -13 8 -9 8 3 12 9 9 14 -7 12 -11 11 -17 -5z"/>
<path d="M7951 1936 c-9 -10 -8 -15 3 -19 10 -4 14 0 13 14 -2 23 -1 23 -16 5z"/>
<path d="M2886 1925 c-3 -9 -6 -22 -5 -28 0 -7 5 -1 10 12 5 13 8 26 5 28 -2
2 -6 -3 -10 -12z"/>
<path d="M2979 1938 c-6 -23 -3 -50 5 -55 6 -3 8 -3 4 2 -4 4 -3 16 2 26 7 12
7 20 0 24 -5 3 -10 5 -11 3z"/>
<path d="M5430 1919 c-9 -15 -9 -24 -1 -32 8 -8 11 -6 11 6 0 9 5 17 11 17 6
0 9 -6 6 -14 -3 -8 0 -17 8 -19 16 -7 25 1 24 22 0 12 -3 11 -9 -4 -8 -18 -9
-18 -9 -2 -1 10 -8 25 -16 33 -12 13 -15 12 -25 -7z"/>
<path d="M6672 1915 c-10 -22 -9 -25 8 -25 26 0 35 19 18 36 -13 13 -16 11
-26 -11z"/>
<path d="M6932 1920 c-10 -17 -10 -20 3 -20 8 0 15 9 15 20 0 11 -1 20 -3 20
-1 0 -8 -9 -15 -20z"/>
<path d="M3095 1910 c-3 -5 -1 -10 4 -10 6 0 11 5 11 10 0 6 -2 10 -4 10 -3 0
-8 -4 -11 -10z"/>
<path d="M5850 1910 c0 -6 -3 -9 -8 -6 -4 2 -18 -1 -31 -8 -15 -9 -20 -16 -12
-20 6 -4 11 -2 11 3 0 6 7 11 15 11 9 0 12 -6 9 -15 -4 -8 -1 -15 5 -15 6 0
11 8 12 18 0 14 2 14 9 -3 8 -18 9 -17 9 7 1 15 -3 30 -9 33 -5 3 -10 1 -10
-5z"/>
<path d="M7660 1908 c0 -4 4 -8 9 -8 6 0 12 4 15 8 3 5 -1 9 -9 9 -8 0 -15 -4
-15 -9z"/>
<path d="M7908 1913 c7 -3 16 -2 19 1 4 3 -2 6 -13 5 -11 0 -14 -3 -6 -6z"/>
<path d="M3028 1894 c-37 -19 -36 -25 2 -11 17 6 30 15 30 19 0 10 0 10 -32
-8z"/>
<path d="M3330 1901 c0 -5 5 -13 10 -16 6 -3 10 -2 10 4 0 5 -4 13 -10 16 -5
3 -10 2 -10 -4z"/>
<path d="M5980 1899 c0 -5 5 -7 12 -3 8 5 9 2 5 -10 -4 -10 -7 -20 -7 -22 0
-2 -4 -4 -10 -4 -5 0 -7 6 -4 14 3 8 1 17 -5 21 -7 3 -11 -3 -11 -15 0 -13 8
-24 19 -27 12 -3 17 -11 14 -19 -3 -8 0 -14 7 -14 8 0 9 10 5 31 -6 28 -5 30
8 18 8 -8 13 -17 11 -21 -3 -4 5 -5 16 -3 11 2 20 0 20 -6 0 -12 27 -12 35 1
3 6 -1 7 -9 4 -9 -4 -18 0 -22 9 -3 9 -12 13 -20 10 -8 -3 -14 0 -14 6 0 6 5
11 10 11 6 0 10 8 10 18 -1 16 -1 16 -14 0 -16 -22 -26 -23 -26 -3 0 8 -7 15
-15 15 -8 0 -15 -5 -15 -11z"/>
<path d="M7696 1902 c-3 -5 1 -9 9 -9 8 0 15 4 15 9 0 4 -4 8 -9 8 -6 0 -12
-4 -15 -8z"/>
<path d="M4773 1886 c3 -7 0 -19 -6 -26 -9 -10 -8 -12 6 -7 15 6 16 2 12 -26
-4 -22 -2 -28 4 -17 5 8 8 17 5 21 -9 15 14 18 26 4 9 -10 9 -15 1 -15 -6 0
-11 -4 -11 -10 0 -5 7 -7 15 -4 10 4 13 14 8 32 -4 17 -2 23 6 18 6 -4 11 0
11 10 0 16 -1 16 -18 1 -9 -9 -23 -13 -29 -9 -11 7 -13 12 -13 32 0 6 -5 10
-11 10 -6 0 -9 -6 -6 -14z"/>
<path d="M4982 1880 c-7 -11 -10 -20 -6 -20 7 0 34 27 34 34 0 13 -16 5 -28
-14z"/>
<path d="M5880 1867 c0 -20 4 -37 9 -37 4 0 7 14 5 32 -6 45 -14 48 -14 5z"/>
<path d="M5934 1885 c-3 -8 -3 -18 0 -24 4 -5 -2 -12 -11 -14 -17 -4 -17 -5 0
-6 12 -1 16 -5 11 -13 -5 -9 -2 -8 9 1 12 10 14 17 7 26 -6 7 -8 20 -4 29 3 9
3 16 0 16 -4 0 -9 -7 -12 -15z"/>
<path d="M6510 1885 c0 -9 6 -12 15 -9 8 4 12 10 9 15 -8 14 -24 10 -24 -6z"/>
<path d="M6820 1889 c0 -5 5 -7 10 -4 6 3 10 8 10 11 0 2 -4 4 -10 4 -5 0 -10
-5 -10 -11z"/>
<path d="M7823 1884 c1 -12 -4 -19 -15 -18 -25 2 -22 -13 3 -19 12 -3 18 -3
15 0 -3 4 -1 12 6 20 8 10 8 17 1 24 -8 8 -11 6 -10 -7z"/>
<path d="M3070 1881 c0 -5 -8 -12 -17 -14 -10 -3 -6 -4 9 -4 15 1 25 4 22 8
-2 4 2 10 8 12 8 3 6 6 -4 6 -10 1 -18 -3 -18 -8z"/>
<path d="M3800 1880 c0 -5 5 -10 11 -10 5 0 7 5 4 10 -3 6 -8 10 -11 10 -2 0
-4 -4 -4 -10z"/>
<path d="M4537 1865 c-3 -16 0 -24 7 -22 6 2 11 10 11 18 0 8 5 17 10 21 6 5
3 8 -6 8 -10 0 -19 -10 -22 -25z"/>
<path d="M4652 1870 c-16 -27 -16 -27 15 -26 21 1 27 -4 28 -21 1 -13 4 -26 8
-29 3 -3 4 7 2 22 -2 16 -4 33 -4 37 -1 5 -10 5 -21 2 -11 -4 -20 -2 -20 4 0
6 5 10 11 9 6 -2 14 3 16 10 8 20 -21 14 -35 -8z"/>
<path d="M5233 1857 c2 -20 6 -39 9 -43 3 -3 5 11 3 31 -2 20 -6 39 -9 42 -3
3 -4 -11 -3 -30z"/>
<path d="M5525 1880 c3 -5 8 -10 11 -10 2 0 4 5 4 10 0 6 -5 10 -11 10 -5 0
-7 -4 -4 -10z"/>
<path d="M6241 1874 c0 -11 3 -14 6 -6 3 7 2 16 -1 19 -3 4 -6 -2 -5 -13z"/>
<path d="M7443 1883 c-7 -2 -13 -12 -13 -21 1 -15 2 -15 11 1 6 9 14 15 20 12
5 -4 9 -1 9 4 0 12 -7 13 -27 4z"/>
<path d="M7605 1879 c-4 -6 -5 -12 -2 -15 2 -3 7 2 10 11 7 17 1 20 -8 4z"/>
<path d="M7730 1880 c0 -5 5 -10 11 -10 5 0 7 5 4 10 -3 6 -8 10 -11 10 -2 0
-4 -4 -4 -10z"/>
<path d="M7870 1881 c0 -6 4 -13 10 -16 6 -3 7 1 4 9 -7 18 -14 21 -14 7z"/>
<path d="M4740 1869 c0 -5 5 -7 10 -4 6 3 10 8 10 11 0 2 -4 4 -10 4 -5 0 -10
-5 -10 -11z"/>
<path d="M5402 1859 c-12 -19 -11 -20 9 -14 14 5 19 4 15 -4 -4 -6 -2 -11 3
-11 6 0 11 5 11 12 0 9 3 9 12 0 16 -16 25 -15 32 4 5 14 4 15 -9 4 -12 -10
-15 -9 -15 5 0 14 -3 15 -14 6 -11 -10 -16 -9 -23 3 -7 13 -10 13 -21 -5z"/>
<path d="M5607 1873 c-10 -9 -9 -23 1 -23 5 0 9 7 9 15 0 17 -1 18 -10 8z"/>
<path d="M6265 1870 c-8 -13 9 -20 24 -11 10 6 9 10 -3 14 -8 3 -18 2 -21 -3z"/>
<path d="M6650 1869 c0 -5 5 -7 10 -4 6 3 10 8 10 11 0 2 -4 4 -10 4 -5 0 -10
-5 -10 -11z"/>
<path d="M6686 1872 c-3 -5 1 -9 9 -9 8 0 12 4 9 9 -3 4 -7 8 -9 8 -2 0 -6 -4
-9 -8z"/>
<path d="M6833 1865 c-3 -9 -3 -18 -1 -21 3 -3 8 4 11 16 6 23 -1 27 -10 5z"/>
<path d="M7200 1871 c0 -5 5 -13 10 -16 6 -3 10 -2 10 4 0 5 -4 13 -10 16 -5
3 -10 2 -10 -4z"/>
<path d="M7233 1858 c-2 -16 1 -18 10 -9 7 7 8 14 1 21 -6 6 -10 2 -11 -12z"/>
<path d="M7490 1860 c0 -11 4 -20 9 -20 5 0 7 9 4 20 -3 11 -7 20 -9 20 -2 0
-4 -9 -4 -20z"/>
<path d="M3100 1860 c0 -5 5 -10 11 -10 5 0 7 5 4 10 -3 6 -8 10 -11 10 -2 0
-4 -4 -4 -10z"/>
<path d="M3328 1863 c6 -2 9 -10 6 -15 -4 -7 -2 -8 5 -4 13 9 5 26 -12 25 -9
0 -8 -2 1 -6z"/>
<path d="M3370 1855 c-7 -9 -11 -17 -9 -20 3 -2 10 5 17 15 14 24 10 26 -8 5z"/>
<path d="M3409 1853 c-13 -16 -12 -17 4 -4 16 13 21 21 13 21 -2 0 -10 -8 -17
-17z"/>
<path d="M3466 1850 c7 -28 12 -35 18 -29 2 2 -2 15 -10 29 l-15 25 7 -25z"/>
<path d="M6153 1858 c0 -7 -4 -22 -7 -33 -5 -13 -2 -12 8 5 17 29 20 40 8 40
-5 0 -9 -6 -9 -12z"/>
<path d="M6766 1853 c-6 -14 -5 -15 5 -6 7 7 10 15 7 18 -3 3 -9 -2 -12 -12z"/>
<path d="M7050 1855 c-11 -13 -10 -14 4 -9 9 3 16 10 16 15 0 13 -6 11 -20 -6z"/>
<path d="M7560 1860 c-9 -6 -10 -10 -3 -10 6 0 15 5 18 10 8 12 4 12 -15 0z"/>
<path d="M5016 1845 c4 -8 8 -15 10 -15 2 0 4 7 4 15 0 8 -4 15 -10 15 -5 0
-7 -7 -4 -15z"/>
<path d="M5630 1840 c-9 -16 -8 -18 5 -14 8 4 15 12 15 20 0 20 -7 17 -20 -6z"/>
<path d="M5670 1850 c0 -5 5 -10 10 -10 6 0 10 5 10 10 0 6 -4 10 -10 10 -5 0
-10 -4 -10 -10z"/>
<path d="M6115 1849 c-4 -6 -4 -13 -1 -16 3 -3 0 -13 -7 -21 -10 -13 -9 -14 3
-10 8 2 16 17 17 31 2 29 -2 34 -12 16z"/>
<path d="M6180 1850 c0 -5 5 -10 11 -10 5 0 7 5 4 10 -3 6 -8 10 -11 10 -2 0
-4 -4 -4 -10z"/>
<path d="M7165 1850 c3 -5 8 -10 11 -10 2 0 4 5 4 10 0 6 -5 10 -11 10 -5 0
-7 -4 -4 -10z"/>
<path d="M7460 1851 c0 -6 4 -13 10 -16 6 -3 7 1 4 9 -7 18 -14 21 -14 7z"/>
<path d="M3226 1834 c-5 -14 -4 -15 9 -4 17 14 19 20 6 20 -5 0 -12 -7 -15
-16z"/>
<path d="M3286 1842 c-3 -4 4 -9 15 -9 23 -2 25 3 4 10 -8 4 -16 3 -19 -1z"/>
<path d="M3436 1837 c3 -10 9 -15 12 -12 3 3 0 11 -7 18 -10 9 -11 8 -5 -6z"/>
<path d="M3612 1834 c-7 -8 -8 -14 -3 -14 10 0 25 19 20 25 -2 1 -10 -3 -17
-11z"/>
<path d="M3740 1839 c0 -5 5 -7 10 -4 6 3 10 8 10 11 0 2 -4 4 -10 4 -5 0 -10
-5 -10 -11z"/>
<path d="M4350 1841 c0 -7 -4 -10 -9 -6 -5 3 -13 0 -17 -6 -4 -8 -3 -9 4 -5 7
4 12 1 12 -6 0 -8 5 -6 11 5 6 10 8 21 5 24 -3 4 -6 1 -6 -6z"/>
<path d="M4895 1840 c3 -5 8 -10 11 -10 2 0 4 5 4 10 0 6 -5 10 -11 10 -5 0
-7 -4 -4 -10z"/>
<path d="M4965 1840 c-3 -5 -1 -10 4 -10 6 0 11 5 11 10 0 6 -2 10 -4 10 -3 0
-8 -4 -11 -10z"/>
<path d="M4993 1832 c1 -14 5 -18 11 -12 7 7 6 14 -1 21 -9 9 -12 7 -10 -9z"/>
<path d="M5832 1825 c26 -30 28 -31 28 -4 0 11 -4 18 -9 14 -5 -3 -12 -1 -16
5 -3 5 -10 10 -16 10 -5 0 1 -11 13 -25z"/>
<path d="M6215 1840 c3 -5 8 -10 11 -10 2 0 4 5 4 10 0 6 -5 10 -11 10 -5 0
-7 -4 -4 -10z"/>
<path d="M6299 1848 c-7 -15 -6 -57 1 -53 6 3 9 17 8 30 -2 22 -6 30 -9 23z"/>
<path d="M6626 1841 c-3 -5 5 -8 19 -7 14 0 25 4 25 9 0 10 -38 9 -44 -2z"/>
<path d="M6690 1839 c0 -5 5 -7 10 -4 6 3 10 8 10 11 0 2 -4 4 -10 4 -5 0 -10
-5 -10 -11z"/>
<path d="M7000 1835 c0 -8 4 -15 10 -15 5 0 7 7 4 15 -4 8 -8 15 -10 15 -2 0
-4 -7 -4 -15z"/>
<path d="M7300 1838 c0 -4 7 -8 15 -8 8 0 15 4 15 8 0 5 -7 9 -15 9 -8 0 -15
-4 -15 -9z"/>
<path d="M7580 1846 c0 -2 8 -10 18 -17 15 -13 16 -12 3 4 -13 16 -21 21 -21
13z"/>
<path d="M3260 1826 c0 -8 4 -17 9 -20 5 -4 7 3 4 14 -6 23 -13 26 -13 6z"/>
<path d="M3500 1829 c0 -5 5 -7 10 -4 6 3 10 8 10 11 0 2 -4 4 -10 4 -5 0 -10
-5 -10 -11z"/>
<path d="M3566 1823 c-6 -14 -5 -15 5 -6 7 7 10 15 7 18 -3 3 -9 -2 -12 -12z"/>
<path d="M3849 1832 c0 -4 -2 -15 -4 -25 -2 -9 1 -15 6 -11 5 3 9 12 9 20 0 8
4 13 9 9 5 -3 12 -2 15 3 2 4 -4 9 -15 9 -10 1 -19 -1 -20 -5z"/>
<path d="M4112 1816 c-10 -22 -9 -23 11 -18 12 3 16 7 10 9 -7 3 -9 11 -6 19
9 24 -3 16 -15 -10z"/>
<path d="M5573 1829 c-18 -5 -33 -12 -33 -15 0 -3 10 -2 22 2 21 6 22 5 8 -12
-8 -11 -3 -9 13 5 23 21 33 33 25 30 -2 0 -18 -5 -35 -10z"/>
<path d="M5715 1830 c-3 -5 -1 -10 4 -10 6 0 11 5 11 10 0 6 -2 10 -4 10 -3 0
-8 -4 -11 -10z"/>
<path d="M5773 1828 c0 -7 -4 -22 -8 -33 l-8 -20 16 20 c18 22 22 45 9 45 -5
0 -9 -6 -9 -12z"/>
<path d="M6426 1824 c-3 -8 -10 -12 -16 -9 -5 3 -10 2 -10 -3 0 -6 7 -12 15
-16 9 -3 15 0 15 9 0 8 5 15 10 15 6 0 10 5 10 10 0 16 -17 12 -24 -6z"/>
<path d="M6493 1825 c0 -8 4 -12 9 -9 4 3 8 9 8 15 0 5 -4 9 -8 9 -5 0 -9 -7
-9 -15z"/>
<path d="M6776 1823 c-6 -14 -5 -15 5 -6 7 7 10 15 7 18 -3 3 -9 -2 -12 -12z"/>
<path d="M7196 1825 c4 -8 8 -15 10 -15 2 0 4 7 4 15 0 8 -4 15 -10 15 -5 0
-7 -7 -4 -15z"/>
<path d="M7409 1823 c-13 -16 -12 -17 4 -4 16 13 21 21 13 21 -2 0 -10 -8 -17
-17z"/>
<path d="M7526 1825 c-3 -8 -11 -12 -19 -9 -7 2 -22 -5 -33 -17 l-19 -23 24
17 c19 13 28 14 38 5 11 -9 13 -8 11 3 -2 8 3 13 10 12 14 -3 16 13 3 21 -5 3
-11 -1 -15 -9z"/>
<path d="M3050 1821 c0 -6 4 -13 10 -16 6 -3 7 1 4 9 -7 18 -14 21 -14 7z"/>
<path d="M3336 1815 c-3 -8 -1 -15 4 -15 6 0 10 7 10 15 0 8 -2 15 -4 15 -2 0
-6 -7 -10 -15z"/>
<path d="M4285 1820 c-3 -5 -1 -10 4 -10 6 0 11 5 11 10 0 6 -2 10 -4 10 -3 0
-8 -4 -11 -10z"/>
<path d="M4540 1823 c0 -4 5 -15 10 -23 8 -13 10 -13 10 2 0 9 -4 20 -10 23
-5 3 -10 3 -10 -2z"/>
<path d="M4887 1819 c7 -9 10 -19 6 -22 -3 -4 -1 -7 5 -7 17 0 15 16 -5 31
-16 12 -17 12 -6 -2z"/>
<path d="M5036 1822 c-3 -4 4 -9 15 -9 23 -2 25 3 4 10 -8 4 -16 3 -19 -1z"/>
<path d="M5683 1815 c0 -8 4 -15 9 -15 4 0 8 7 8 15 0 8 -4 15 -8 15 -5 0 -9
-7 -9 -15z"/>
<path d="M5800 1819 c0 -5 5 -7 10 -4 6 3 10 8 10 11 0 2 -4 4 -10 4 -5 0 -10
-5 -10 -11z"/>
<path d="M5974 1813 c5 -7 5 -13 0 -13 -5 0 -1 -5 9 -11 14 -8 22 -8 30 1 9
10 9 11 -1 6 -7 -4 -20 0 -30 11 -9 11 -13 13 -8 6z"/>
<path d="M6030 1821 c0 -10 19 -25 25 -20 1 2 -3 10 -11 17 -8 7 -14 8 -14 3z"/>
<path d="M6173 1823 c-13 -5 -6 -33 8 -33 4 0 5 7 2 17 -4 10 -2 14 5 9 6 -3
13 -3 16 2 5 9 -11 11 -31 5z"/>
<path d="M6235 1820 c-3 -5 -1 -10 4 -10 6 0 11 5 11 10 0 6 -2 10 -4 10 -3 0
-8 -4 -11 -10z"/>
<path d="M6965 1820 c-3 -5 -1 -10 4 -10 6 0 11 5 11 10 0 6 -2 10 -4 10 -3 0
-8 -4 -11 -10z"/>
<path d="M7135 1820 c3 -5 8 -10 11 -10 2 0 4 5 4 10 0 6 -5 10 -11 10 -5 0
-7 -4 -4 -10z"/>
<path d="M7230 1820 c-9 -6 -10 -10 -3 -10 6 0 15 5 18 10 8 12 4 12 -15 0z"/>
<path d="M7335 1819 c-4 -6 -5 -12 -2 -15 2 -3 7 2 10 11 7 17 1 20 -8 4z"/>
<path d="M7436 1814 c-5 -14 -4 -15 9 -4 17 14 19 20 6 20 -5 0 -12 -7 -15
-16z"/>
<path d="M3685 1811 c-3 -5 -1 -12 5 -16 6 -4 8 -11 5 -16 -4 -5 -4 -9 -2 -9
3 0 13 12 22 28 10 15 12 21 4 15 -16 -15 -33 -17 -24 -3 3 6 4 10 1 10 -3 0
-7 -4 -11 -9z"/>
<path d="M3758 1813 c7 -3 16 -2 19 1 4 3 -2 6 -13 5 -11 0 -14 -3 -6 -6z"/>
<path d="M3900 1810 c8 -5 20 -10 25 -10 6 0 3 5 -5 10 -8 5 -19 10 -25 10 -5
0 -3 -5 5 -10z"/>
<path d="M4945 1810 c-3 -5 -2 -10 4 -10 5 0 13 5 16 10 3 6 2 10 -4 10 -5 0
-13 -4 -16 -10z"/>
<path d="M5130 1798 c-12 -22 -12 -22 6 -6 10 10 15 20 12 24 -4 3 -12 -5 -18
-18z"/>
<path d="M5391 1817 c2 -1 12 -9 22 -16 15 -12 17 -12 11 3 -3 9 -13 16 -22
16 -8 0 -13 -1 -11 -3z"/>
<path d="M5910 1810 c0 -5 5 -10 11 -10 5 0 7 5 4 10 -3 6 -8 10 -11 10 -2 0
-4 -4 -4 -10z"/>
<path d="M6260 1809 c0 -5 5 -7 10 -4 6 3 10 8 10 11 0 2 -4 4 -10 4 -5 0 -10
-5 -10 -11z"/>
<path d="M6685 1810 c-3 -5 -1 -10 4 -10 6 0 11 5 11 10 0 6 -2 10 -4 10 -3 0
-8 -4 -11 -10z"/>
<path d="M7100 1810 c-13 -8 -12 -10 3 -10 9 0 17 5 17 10 0 12 -1 12 -20 0z"/>
<path d="M7167 1813 c-11 -10 -8 -33 4 -33 5 0 7 5 3 11 -3 6 0 15 7 20 8 5 9
9 3 9 -6 0 -14 -3 -17 -7z"/>
<path d="M7628 1813 c7 -3 16 -2 19 1 4 3 -2 6 -13 5 -11 0 -14 -3 -6 -6z"/>
<path d="M3451 1794 c-10 -12 -11 -18 -1 -27 9 -9 11 -9 8 2 -2 7 3 16 11 19
10 3 12 0 8 -12 -4 -9 -2 -16 3 -16 11 0 13 11 4 34 -8 20 -15 20 -33 0z"/>
<path d="M3515 1799 c-4 -6 -5 -12 -2 -15 2 -3 7 2 10 11 7 17 1 20 -8 4z"/>
<path d="M3570 1800 c-9 -6 -10 -10 -3 -10 6 0 15 5 18 10 8 12 4 12 -15 0z"/>
<path d="M4316 1793 c2 -7 -2 -13 -8 -13 -6 0 -8 -3 -5 -6 4 -4 12 -2 19 3 21
16 54 21 74 11 18 -9 18 -9 1 5 -13 11 -27 13 -47 7 -16 -5 -31 -5 -33 -2 -2
4 -2 1 -1 -5z"/>
<path d="M4425 1801 c-3 -5 -2 -12 3 -15 5 -3 9 1 9 9 0 17 -3 19 -12 6z"/>
<path d="M5453 1795 c0 -8 4 -12 9 -9 4 3 8 9 8 15 0 5 -4 9 -8 9 -5 0 -9 -7
-9 -15z"/>
<path d="M5508 1803 c7 -3 16 -2 19 1 4 3 -2 6 -13 5 -11 0 -14 -3 -6 -6z"/>
<path d="M5705 1790 c-16 -17 -16 -20 -3 -15 9 4 19 13 22 21 7 19 2 18 -19
-6z"/>
<path d="M5825 1800 c3 -5 8 -10 11 -10 2 0 4 5 4 10 0 6 -5 10 -11 10 -5 0
-7 -4 -4 -10z"/>
<path d="M7285 1800 c-3 -6 1 -7 9 -4 18 7 21 14 7 14 -6 0 -13 -4 -16 -10z"/>
<path d="M3640 1796 c0 -2 9 -6 20 -9 11 -3 18 -1 14 4 -5 9 -34 13 -34 5z"/>
<path d="M3867 1780 c-3 -11 -4 -20 -3 -20 1 0 9 9 19 20 13 15 14 20 3 20 -7
0 -16 -9 -19 -20z"/>
<path d="M4230 1790 c0 -5 5 -10 10 -10 6 0 10 5 10 10 0 6 -4 10 -10 10 -5 0
-10 -4 -10 -10z"/>
<path d="M4610 1789 c0 -5 5 -7 10 -4 6 3 10 8 10 11 0 2 -4 4 -10 4 -5 0 -10
-5 -10 -11z"/>
<path d="M4761 1784 c0 -11 3 -14 6 -6 3 7 2 16 -1 19 -3 4 -6 -2 -5 -13z"/>
<path d="M4970 1786 c0 -8 4 -17 9 -20 5 -4 7 3 4 14 -6 23 -13 26 -13 6z"/>
<path d="M5030 1780 c6 -11 13 -20 16 -20 2 0 0 9 -6 20 -6 11 -13 20 -16 20
-2 0 0 -9 6 -20z"/>
<path d="M6620 1790 c-12 -7 -10 -9 7 -7 12 0 19 5 17 9 -6 10 -6 10 -24 -2z"/>
<path d="M6756 1784 c-5 -14 -4 -15 9 -4 17 14 19 20 6 20 -5 0 -12 -7 -15
-16z"/>
<path d="M3380 1780 c0 -5 5 -10 11 -10 5 0 7 5 4 10 -3 6 -8 10 -11 10 -2 0
-4 -4 -4 -10z"/>
<path d="M3723 1775 c0 -8 4 -12 9 -9 5 3 6 10 3 15 -9 13 -12 11 -12 -6z"/>
<path d="M3934 1774 c-18 -14 -18 -15 4 -4 12 6 22 13 22 15 0 8 -5 6 -26 -11z"/>
<path d="M6350 1780 c0 -5 5 -10 11 -10 5 0 7 5 4 10 -3 6 -8 10 -11 10 -2 0
-4 -4 -4 -10z"/>
<path d="M6386 1777 c3 -10 9 -15 12 -12 3 3 0 11 -7 18 -10 9 -11 8 -5 -6z"/>
<path d="M7400 1786 c0 -2 8 -10 18 -17 15 -13 16 -12 3 4 -13 16 -21 21 -21
13z"/>
<path d="M4085 1769 c-4 -6 -5 -12 -2 -15 2 -3 7 2 10 11 7 17 1 20 -8 4z"/>
<path d="M4480 1770 c0 -6 7 -10 15 -10 8 0 15 2 15 4 0 2 -7 6 -15 10 -8 3
-15 1 -15 -4z"/>
<path d="M4596 1767 c3 -10 9 -15 12 -12 3 3 0 11 -7 18 -10 9 -11 8 -5 -6z"/>
<path d="M4815 1770 c-3 -6 1 -7 9 -4 18 7 21 14 7 14 -6 0 -13 -4 -16 -10z"/>
<path d="M7257 1769 c7 -7 15 -10 18 -7 3 3 -2 9 -12 12 -14 6 -15 5 -6 -5z"/>
<path d="M3350 1761 c0 -6 4 -13 10 -16 6 -3 7 1 4 9 -7 18 -14 21 -14 7z"/>
<path d="M4536 1762 c-3 -5 1 -9 9 -9 8 0 12 4 9 9 -3 4 -7 8 -9 8 -2 0 -6 -4
-9 -8z"/>
<path d="M5385 1760 c-3 -6 1 -7 9 -4 18 7 21 14 7 14 -6 0 -13 -4 -16 -10z"/>
<path d="M6577 1759 c7 -7 15 -10 18 -7 3 3 -2 9 -12 12 -14 6 -15 5 -6 -5z"/>
<path d="M4310 1749 c0 -5 5 -7 10 -4 6 3 10 8 10 11 0 2 -4 4 -10 4 -5 0 -10
-5 -10 -11z"/>
<path d="M4866 1747 c3 -10 9 -15 12 -12 3 3 0 11 -7 18 -10 9 -11 8 -5 -6z"/>
<path d="M6200 1750 c8 -5 20 -10 25 -10 6 0 3 5 -5 10 -8 5 -19 10 -25 10 -5
0 -3 -5 5 -10z"/>
<path d="M6400 1739 c-22 -18 -22 -19 -3 -10 12 6 25 16 28 21 9 15 3 12 -25
-11z"/>
<path d="M6665 1750 c-3 -6 1 -7 9 -4 18 7 21 14 7 14 -6 0 -13 -4 -16 -10z"/>
<path d="M4940 1700 c0 -5 5 -10 11 -10 5 0 7 5 4 10 -3 6 -8 10 -11 10 -2 0
-4 -4 -4 -10z"/>
<path d="M6380 1700 c0 -5 5 -10 11 -10 5 0 7 5 4 10 -3 6 -8 10 -11 10 -2 0
-4 -4 -4 -10z"/>
</g>
</svg>
