<?xml version="1.0" standalone="no"?>
<!DOCTYPE svg PUBLIC "-//W3C//DTD SVG 20010904//EN"
 "http://www.w3.org/TR/2001/REC-SVG-20010904/DTD/svg10.dtd">
<svg version="1.0" xmlns="http://www.w3.org/2000/svg"
 width="1024.000000pt" height="1024.000000pt" viewBox="0 0 1024.000000 1024.000000"
 preserveAspectRatio="xMidYMid meet">
<metadata>
Created by potrace 1.16, written by Peter Selinger 2001-2019
</metadata>
<g transform="translate(0.000000,1024.000000) scale(0.100000,-0.100000)"
fill="#000000" stroke="none">
<path d="M5034 7715 c-41 -28 -45 -58 -42 -333 3 -255 4 -262 25 -284 31 -30
84 -30 118 2 l25 23 0 264 c0 287 -3 308 -55 331 -34 16 -46 15 -71 -3z"/>
<path d="M4638 7622 c-64 -33 -64 -108 1 -142 30 -15 43 -30 57 -65 19 -52 37
-65 87 -65 23 0 41 8 57 25 59 63 -27 223 -138 254 -22 7 -39 5 -64 -7z"/>
<path d="M5392 7600 c-54 -39 -95 -109 -96 -167 -1 -37 4 -49 27 -69 33 -28
47 -29 86 -10 18 10 34 31 45 61 14 34 27 50 56 65 59 30 68 79 22 123 -39 37
-86 36 -140 -3z"/>
<path d="M5586 7320 c-130 -23 -251 -176 -205 -259 30 -54 108 -53 137 1 9 17
29 45 44 62 24 29 31 31 93 31 61 0 69 3 91 28 31 37 30 70 -3 107 -32 34 -80
43 -157 30z"/>
<path d="M4410 7300 c-43 -43 -34 -110 20 -137 14 -7 51 -13 82 -13 62 0 77
-10 104 -63 27 -52 45 -67 81 -67 39 0 93 45 93 77 -1 62 -81 165 -155 199
-68 32 -195 34 -225 4z"/>
<path d="M4764 6866 c-62 -29 -72 -41 -214 -275 -272 -448 -612 -917 -1115
-1541 -237 -294 -527 -620 -787 -886 -165 -169 -178 -185 -178 -219 0 -27 8
-44 29 -66 l29 -29 575 0 c636 0 587 -5 587 65 0 68 50 230 104 340 88 176
158 259 428 508 130 119 190 191 235 282 71 139 98 308 73 452 -14 84 -66 197
-134 292 -31 45 -46 75 -46 97 0 67 80 120 137 90 73 -38 178 -195 225 -335
31 -92 32 -102 32 -256 0 -184 -15 -256 -84 -401 -77 -165 -148 -253 -345
-431 -253 -226 -344 -350 -390 -528 -18 -73 -20 -164 -2 -170 6 -3 619 -4
1360 -3 l1348 3 -32 45 c-139 191 -233 406 -304 694 -34 139 -93 283 -150 366
-66 97 -185 207 -310 285 -147 93 -214 144 -313 239 -92 89 -88 92 -55 -37 33
-136 99 -253 203 -358 34 -34 66 -74 71 -87 17 -45 -11 -94 -68 -119 -45 -18
-86 0 -159 69 -126 119 -221 287 -255 451 -23 112 -25 284 -5 390 23 117 54
163 117 173 47 8 77 -18 138 -119 107 -177 203 -268 446 -422 110 -70 216
-158 270 -221 151 -180 204 -292 285 -597 46 -173 61 -216 119 -342 66 -143
167 -295 260 -392 l22 -23 360 0 361 0 34 34 c33 33 42 67 26 94 -5 7 -107
112 -228 235 -290 294 -606 653 -881 1002 -488 619 -781 1034 -1039 1470 -69
118 -127 179 -180 194 -23 7 -144 11 -294 11 -248 0 -256 -1 -306 -24z m603
-278 c37 -57 84 -132 104 -167 l38 -64 -23 -31 c-13 -17 -34 -50 -47 -74 l-23
-43 -29 33 c-15 18 -64 78 -109 133 -44 55 -83 101 -87 103 -4 1 -31 -31 -60
-73 -28 -41 -53 -75 -54 -75 -2 0 -27 34 -57 75 -43 61 -56 73 -66 63 -6 -7
-58 -68 -114 -136 l-102 -124 -20 39 c-23 42 -58 95 -69 103 -4 3 12 37 36 75
24 39 70 114 102 167 l58 98 228 0 228 0 66 -102z"/>
<path d="M8515 1851 c-44 -4 -94 -15 -111 -24 -44 -23 -98 -89 -112 -135 -8
-25 -12 -179 -12 -474 -1 -482 -2 -479 63 -547 68 -72 58 -71 583 -71 505 0
515 1 584 52 17 12 41 45 55 73 l24 50 3 440 c2 410 1 443 -16 480 -29 64 -73
112 -124 137 -47 22 -51 23 -452 24 -223 1 -441 -1 -485 -5z m544 -387 l81
-66 -37 -27 c-21 -15 -89 -62 -151 -103 l-112 -77 150 -103 c82 -57 149 -106
150 -109 0 -3 -38 -35 -84 -71 -81 -64 -84 -65 -102 -48 -11 10 -107 84 -214
165 -107 82 -199 151 -203 155 -4 4 38 42 95 85 188 143 323 250 326 258 7 14
22 6 101 -59z"/>
<path d="M815 1836 c-94 -30 -152 -83 -197 -182 -23 -48 -23 -55 -23 -434 l0
-385 26 -56 c32 -68 82 -120 152 -157 l52 -27 348 -3 c299 -3 356 -1 404 13
100 29 164 88 210 190 16 36 18 78 18 425 l0 385 -27 55 c-33 66 -93 132 -151
162 -41 23 -50 23 -407 25 -276 2 -375 -1 -405 -11z m435 -263 c20 -26 21 -36
18 -210 l-3 -183 85 86 c47 47 93 90 102 95 34 19 88 -22 88 -66 0 -10 -61
-79 -135 -154 l-135 -137 0 -68 c0 -58 -3 -70 -25 -91 -30 -31 -52 -31 -82 -3
-20 19 -23 31 -23 92 l0 71 -135 135 c-107 106 -135 140 -135 162 0 28 40 68
69 68 8 0 57 -42 108 -94 l93 -94 0 189 c0 181 1 189 22 209 30 28 62 25 88
-7z"/>
</g>
</svg>
