<?xml version="1.0" standalone="no"?>
<!DOCTYPE svg PUBLIC "-//W3C//DTD SVG 20010904//EN"
 "http://www.w3.org/TR/2001/REC-SVG-20010904/DTD/svg10.dtd">
<svg version="1.0" xmlns="http://www.w3.org/2000/svg"
 width="1024.000000pt" height="1024.000000pt" viewBox="0 0 1024.000000 1024.000000"
 preserveAspectRatio="xMidYMid meet">
<metadata>
Created by potrace 1.16, written by Peter Selinger 2001-2019
</metadata>
<g transform="translate(0.000000,1024.000000) scale(0.100000,-0.100000)"
fill="#000000" stroke="none">
<path d="M2785 8913 c-146 -18 -378 -86 -527 -155 -357 -163 -657 -449 -837
-798 -112 -219 -163 -395 -181 -638 -13 -163 -12 -3836 0 -4050 14 -243 63
-419 180 -653 134 -265 327 -494 560 -660 170 -122 433 -236 648 -281 l107
-23 2370 0 2370 0 110 24 c562 120 986 454 1234 971 77 161 115 273 147 427
l25 125 -1 2092 c0 1177 -4 2116 -9 2147 -38 227 -118 443 -239 637 -174 280
-454 536 -725 662 -108 50 -253 103 -352 129 -200 53 -99 51 -2562 50 -1259
-1 -2301 -4 -2318 -6z m4685 -567 c306 -72 534 -207 707 -421 123 -153 204
-323 242 -512 21 -100 21 -126 21 -1647 l0 -1546 -765 0 -765 0 0 108 0 107
-135 -3 -135 -4 0 935 0 935 49 7 c27 4 69 5 93 4 23 -2 44 0 46 4 1 4 2 120
2 257 l0 250 -95 0 -95 0 0 287 0 286 100 -6 c136 -8 206 -46 261 -141 l29
-51 0 -541 0 -541 107 -6 c58 -4 128 -7 155 -7 l48 0 0 548 c0 341 -4 564 -11
592 -27 118 -124 251 -233 322 -94 61 -165 78 -322 78 l-134 0 0 133 0 134
-205 7 c-113 4 -210 4 -215 1 -6 -4 -10 -64 -10 -141 l0 -134 -260 0 -260 0 0
115 0 115 -150 0 -150 0 0 -115 0 -115 -280 0 -280 0 0 115 0 115 -157 0 -158
0 3 -115 3 -115 -265 0 -266 0 0 140 0 139 -212 -3 c-117 -2 -214 -4 -215 -5
-2 -1 -3 -62 -3 -136 l0 -135 -80 0 -80 0 0 -125 0 -125 80 0 80 0 0 -285 0
-286 -277 1 -276 1 0 -251 c0 -138 3 -254 7 -258 4 -4 129 -8 277 -10 l269 -3
0 -935 0 -934 -130 0 -130 0 0 -105 0 -105 -755 0 -755 0 2 1583 3 1582 27 98
c30 108 104 273 165 364 89 135 282 307 425 379 178 89 297 123 473 134 66 4
1108 6 2315 6 2057 -2 2200 -3 2270 -20z m-2952 -1238 l-3 -283 -262 -3 -263
-2 0 285 0 285 265 0 265 0 -2 -282z m872 -3 l0 -285 -280 0 -280 0 0 285 0
285 280 0 280 0 0 -285z m820 0 l0 -285 -260 0 -260 0 0 285 0 285 260 0 260
0 0 -285z m-1324 -823 c23 -17 22 -17 -142 -167 -91 -82 -185 -167 -208 -187
l-43 -38 -100 88 c-54 48 -159 139 -232 201 -94 81 -129 116 -119 122 7 5 195
6 417 3 359 -5 408 -7 427 -22z m1207 -42 c-78 -74 -146 -137 -285 -263 l-97
-89 -206 187 c-113 103 -205 191 -205 194 0 4 14 14 31 22 26 12 99 15 431 14
l399 0 -68 -65z m-787 -350 l193 -174 -42 -35 c-23 -20 -110 -98 -194 -174
-84 -76 -157 -137 -162 -135 -5 1 -58 46 -118 98 -59 52 -144 127 -188 166
-44 39 -80 76 -80 84 0 15 376 350 389 347 5 -2 96 -81 202 -177z m-1063 -137
c26 -24 47 -45 47 -47 0 -5 -289 -266 -295 -266 -3 0 -5 122 -5 271 l0 271
103 -93 c56 -51 123 -112 150 -136z m1969 -65 l-4 -258 -41 39 c-119 109 -205
186 -229 204 -16 11 -28 26 -27 31 1 19 294 265 299 253 3 -7 4 -128 2 -269z
m-1508 -327 c102 -91 186 -167 186 -171 0 -3 -134 -125 -297 -270 -164 -146
-349 -313 -413 -371 -127 -116 -144 -129 -172 -121 -17 4 -18 19 -16 325 l3
321 250 228 c138 125 255 226 261 225 6 -1 95 -76 198 -166z m1269 -80 l237
-212 0 -252 c0 -139 3 -282 7 -319 l6 -68 -35 0 c-24 0 -42 8 -59 26 -13 15
-157 144 -319 287 -351 310 -490 437 -490 447 0 4 44 45 97 91 54 46 138 121
187 166 88 81 91 82 111 64 11 -9 127 -113 258 -230z m-715 -403 c80 -73 236
-214 346 -312 111 -99 241 -217 289 -263 l88 -83 -882 0 -881 0 53 48 c30 26
119 106 200 179 492 444 625 562 633 563 4 0 74 -60 154 -132z m-2329 -1168
c144 -118 266 -176 430 -204 166 -28 342 -16 496 35 110 37 170 71 262 147 85
73 102 82 145 82 39 0 63 -15 134 -81 65 -61 161 -123 228 -148 99 -37 289
-52 357 -29 31 10 53 24 151 96 51 37 97 30 159 -23 28 -24 72 -54 98 -66 42
-20 57 -21 158 -16 192 10 313 54 424 154 117 106 127 113 172 113 38 0 50 -7
131 -80 266 -237 534 -242 784 -15 97 88 109 95 160 95 33 0 49 -8 88 -43 194
-172 444 -248 773 -234 94 4 170 14 246 31 60 14 111 26 112 26 2 0 3 -41 3
-90 0 -103 6 -97 -113 -124 -339 -79 -820 -4 -1022 159 -22 17 -52 40 -68 50
l-27 17 -69 -65 c-124 -116 -270 -171 -452 -170 -215 1 -367 61 -507 199 l-34
33 -71 -60 c-80 -67 -201 -131 -292 -154 -32 -8 -129 -20 -215 -27 -183 -13
-231 -4 -318 62 l-52 40 -48 -37 c-92 -70 -153 -81 -356 -63 -221 19 -317 56
-463 179 -40 34 -75 61 -78 61 -3 0 -24 -17 -46 -37 -109 -101 -257 -166 -449
-199 -153 -25 -411 -16 -539 20 -116 32 -234 91 -327 162 -39 30 -75 54 -79
54 -4 0 -32 -23 -63 -51 -72 -64 -228 -141 -347 -171 -78 -20 -114 -23 -270
-22 -160 1 -189 4 -260 25 l-80 24 -3 94 c-2 82 -1 93 13 87 9 -3 62 -16 118
-28 278 -59 540 -2 732 159 102 85 115 93 160 93 34 0 51 -9 114 -60z m-66
-391 c11 -7 57 -39 101 -73 140 -106 261 -150 458 -166 132 -10 325 1 408 24
137 37 189 64 301 156 77 63 122 80 158 60 12 -6 51 -37 86 -70 147 -133 312
-186 486 -155 99 17 168 49 241 114 90 78 111 77 210 -15 73 -66 144 -94 259
-101 163 -10 311 42 451 160 42 35 89 67 103 71 35 9 79 -14 160 -84 152 -133
345 -180 537 -131 114 29 161 57 303 176 65 54 105 54 170 0 116 -99 189 -138
322 -176 175 -49 514 -42 779 16 20 4 20 4 -4 -90 -23 -88 -27 -95 -56 -105
-120 -39 -466 -53 -651 -25 -179 27 -292 70 -412 159 l-63 46 -61 -50 c-82
-65 -184 -115 -294 -141 -75 -18 -109 -20 -205 -16 -184 9 -309 51 -432 145
-37 29 -69 52 -72 52 -3 0 -34 -22 -69 -49 -127 -96 -254 -140 -428 -148 -184
-9 -289 17 -397 98 l-53 40 -38 -31 c-54 -42 -136 -78 -218 -95 -88 -19 -249
-19 -337 0 -109 23 -242 92 -322 167 l-32 30 -58 -45 c-82 -63 -188 -114 -302
-144 -84 -22 -124 -26 -292 -30 -220 -5 -347 9 -476 52 -79 27 -191 87 -255
137 -20 15 -40 28 -43 28 -4 0 -30 -18 -59 -39 -98 -74 -232 -131 -382 -163
-82 -17 -361 -15 -445 3 l-64 15 -34 98 c-18 54 -32 99 -30 101 2 2 39 -6 83
-17 118 -31 396 -31 507 0 107 29 178 65 272 137 120 91 141 99 189 74z m70
-492 c40 -30 95 -66 122 -80 205 -102 671 -116 907 -27 53 20 112 56 222 135
64 46 87 42 185 -37 128 -103 231 -141 386 -141 148 0 249 39 353 137 45 43
60 51 92 51 34 0 47 -8 104 -63 80 -77 147 -109 257 -123 162 -21 326 28 471
140 38 28 79 56 93 61 34 13 71 -2 120 -50 59 -57 130 -97 220 -127 66 -21
100 -26 190 -26 174 -1 294 39 435 147 41 31 85 59 98 63 30 7 67 -12 157 -82
140 -110 313 -151 595 -141 91 3 186 9 213 12 26 4 47 3 47 -2 0 -5 -38 -49
-84 -99 l-83 -90 -194 0 c-180 0 -202 3 -302 29 -136 34 -183 55 -266 112 -42
30 -69 43 -77 38 -124 -89 -208 -127 -335 -154 -251 -53 -514 -2 -681 132
l-28 22 -52 -36 c-124 -84 -259 -127 -424 -135 -177 -9 -313 26 -421 108 l-53
40 -50 -40 c-97 -77 -259 -117 -434 -108 -171 8 -288 48 -405 136 l-54 41 -31
-25 c-132 -107 -364 -165 -663 -165 -321 0 -522 46 -690 158 l-53 35 -45 -32
c-124 -89 -325 -151 -488 -151 l-100 0 -41 43 c-23 23 -60 66 -84 94 l-43 52
153 -6 c135 -5 164 -3 243 16 102 25 204 73 285 134 30 23 63 48 75 55 35 21
82 6 158 -51z"/>
<path d="M7163 5848 c-29 -55 -120 -271 -139 -331 -14 -46 -15 -63 -6 -94 15
-50 62 -98 117 -119 42 -16 47 -16 102 2 73 24 123 83 123 145 0 62 -146 429
-170 429 -5 0 -17 -15 -27 -32z"/>
</g>
</svg>
