<?xml version="1.0" standalone="no"?>
<!DOCTYPE svg PUBLIC "-//W3C//DTD SVG 20010904//EN"
 "http://www.w3.org/TR/2001/REC-SVG-20010904/DTD/svg10.dtd">
<svg version="1.0" xmlns="http://www.w3.org/2000/svg"
 width="1024.000000pt" height="1024.000000pt" viewBox="0 0 1024.000000 1024.000000"
 preserveAspectRatio="xMidYMid meet">
<metadata>
Created by potrace 1.16, written by Peter Selinger 2001-2019
</metadata>
<g transform="translate(0.000000,1024.000000) scale(0.100000,-0.100000)"
fill="#000000" stroke="none">
<path d="M4152 7148 c-41 -11 -72 -50 -136 -171 -68 -129 -175 -321 -450 -806
-113 -200 -206 -374 -206 -386 0 -12 9 -30 19 -39 17 -16 64 -17 596 -16 l577
1 -53 -60 c-30 -32 -144 -155 -254 -272 -110 -118 -221 -239 -247 -269 l-48
-55 0 283 0 282 -120 0 -120 0 0 -1110 0 -1110 -354 0 c-342 0 -354 -1 -380
-21 -35 -28 -36 -80 -1 -114 l24 -25 2116 0 2117 0 29 29 c36 36 37 73 4 106
l-24 25 -349 0 -349 0 -6 502 c-4 277 -7 776 -7 1111 l0 607 -120 0 -120 0 0
-277 -1 -278 -92 97 c-312 329 -507 537 -507 542 0 3 258 6 574 6 l575 0 20
26 c12 15 21 30 21 33 0 4 -39 74 -86 157 -95 164 -150 261 -229 404 -29 52
-104 187 -167 300 -63 113 -145 263 -183 333 -43 80 -80 136 -98 149 -29 21
-33 21 -983 22 -525 1 -966 -2 -982 -6z m1261 -1470 c30 -29 102 -102 158
-163 57 -60 214 -224 349 -364 135 -140 250 -259 255 -265 6 -6 34 -37 63 -69
l52 -59 0 -669 0 -669 -1170 0 -1170 0 0 670 0 670 68 77 c110 125 496 534
736 781 l110 112 246 0 247 0 56 -52z"/>
<path d="M5311 5470 c-104 -22 -190 -89 -238 -188 -28 -56 -28 -60 -28 -245 0
-175 1 -190 19 -203 34 -24 106 -13 128 20 4 6 8 90 8 187 0 166 1 178 23 209
34 51 89 75 172 75 82 0 106 -13 197 -107 l56 -58 71 0 c39 0 71 4 71 8 0 11
-235 257 -269 281 -32 23 -145 34 -210 21z"/>
<path d="M4796 4788 c-8 -13 -41 -77 -73 -142 -65 -134 -73 -185 -36 -234 74
-101 210 -97 280 7 13 19 23 48 23 66 0 34 -122 304 -143 317 -21 13 -36 9
-51 -14z"/>
<path d="M5362 4648 c-21 -27 -80 -155 -82 -178 -5 -54 1 -73 34 -106 27 -27
42 -34 73 -34 50 0 95 29 117 75 17 35 17 39 1 84 -25 65 -61 136 -80 155 -20
19 -49 21 -63 4z"/>
<path d="M4165 4205 c-19 -18 -25 -35 -25 -70 0 -35 6 -52 25 -70 l24 -25 911
0 c974 0 963 -1 989 48 20 38 13 82 -18 113 l-29 29 -927 0 -926 0 -24 -25z"/>
<path d="M4363 3953 c-22 -4 -23 -9 -23 -94 l0 -89 119 0 119 0 7 75 c11 116
11 115 -103 114 -53 -1 -107 -4 -119 -6z"/>
<path d="M4676 3945 c-3 -9 -6 -52 -6 -96 l0 -79 120 0 121 0 -3 93 -3 92
-111 3 c-96 3 -112 1 -118 -13z"/>
<path d="M5028 3953 l-28 -4 0 -90 0 -89 195 0 195 0 0 89 0 88 -82 6 c-87 7
-234 7 -280 0z"/>
<path d="M5486 3952 c-3 -3 -6 -45 -6 -94 l0 -88 205 0 206 0 -3 93 -3 92
-197 2 c-108 0 -199 -1 -202 -5z"/>
<path d="M4672 3599 l3 -94 198 -3 197 -2 0 90 0 90 -154 0 c-84 0 -174 3
-200 6 l-47 7 3 -94z"/>
<path d="M5164 3681 c-2 -2 -4 -44 -4 -93 l0 -88 193 2 192 3 3 87 3 87 -191
3 c-106 2 -194 1 -196 -1z"/>
<path d="M5634 3681 c-2 -2 -4 -44 -4 -93 l0 -88 130 0 130 0 0 89 0 90 -126
3 c-69 2 -128 1 -130 -1z"/>
<path d="M4340 3590 l0 -91 123 3 122 3 -1 40 c-1 22 -2 61 -3 88 l-1 47 -120
0 -120 0 0 -90z"/>
<path d="M8494 4425 c0 -77 2 -107 3 -67 2 40 2 103 0 140 -2 37 -3 4 -3 -73z"/>
<path d="M8491 4070 c-1 -3 -4 -192 -7 -420 -5 -395 -7 -420 -31 -530 -34
-157 -74 -274 -135 -392 -177 -345 -522 -601 -908 -673 -76 -14 -318 -15
-2310 -13 l-2225 3 -115 31 c-63 17 -148 45 -189 63 -75 32 -103 40 -64 18 12
-7 23 -16 25 -22 6 -20 103 -94 178 -137 57 -32 156 -69 164 -61 3 4 6 2 6 -4
0 -6 6 -10 13 -10 22 1 77 -15 77 -23 0 -11 190 -35 355 -46 50 -3 119 -9 155
-14 76 -11 290 -19 510 -21 85 -1 159 -4 164 -7 5 -3 239 -7 520 -9 281 -2
543 -6 581 -8 39 -3 99 -7 135 -10 36 -2 101 -8 146 -14 44 -5 186 -10 315
-11 393 -1 869 -18 869 -31 0 -4 24 -8 53 -9 28 0 99 -2 157 -5 58 -2 119 -5
135 -5 26 -1 27 -3 10 -10 -14 -6 8 -9 65 -10 114 -2 375 -10 375 -11 0 -3 54
-10 77 -11 15 -1 25 -4 23 -8 -3 -4 16 -10 42 -14 25 -3 51 -10 57 -15 20 -17
96 -22 131 -10 32 12 39 20 37 40 -1 4 9 10 23 13 13 3 27 15 30 27 4 12 12
18 21 15 8 -3 14 -2 14 3 0 4 29 28 65 52 37 25 63 49 60 56 -2 8 4 13 16 13
11 0 17 4 14 10 -4 6 1 7 11 3 13 -5 16 -3 11 10 -4 11 -1 17 7 17 8 0 16 -5
18 -10 2 -6 9 -1 16 11 8 12 9 18 3 14 -6 -3 -11 -1 -11 4 0 6 4 11 10 11 17
0 62 52 64 76 2 13 6 27 11 32 4 4 5 0 1 -8 -4 -8 -1 -7 8 3 8 11 12 25 10 32
-3 7 2 20 11 29 9 8 18 33 20 53 7 66 17 108 26 111 5 2 9 12 9 22 0 11 4 29
9 42 9 24 19 69 46 223 9 50 22 113 30 140 8 28 21 120 30 205 9 85 18 169 21
185 12 64 17 1043 5 1015z"/>
<path d="M3318 4003 c-27 -31 -78 -154 -78 -190 0 -62 55 -133 104 -133 51 0
126 75 126 127 0 26 -64 170 -87 195 -20 23 -46 23 -65 1z"/>
<path d="M6849 4003 c-19 -22 -64 -126 -73 -168 -9 -41 29 -114 71 -138 27
-16 38 -17 66 -8 40 13 71 44 87 85 12 33 -3 91 -48 186 -23 47 -31 55 -58 58
-19 2 -35 -3 -45 -15z"/>
<path d="M3050 3757 c-38 -19 -47 -58 -25 -107 33 -74 138 -160 195 -160 28 0
70 43 70 73 0 49 -104 174 -163 196 -36 14 -46 14 -77 -2z"/>
<path d="M7105 3751 c-53 -24 -117 -95 -140 -155 -18 -46 -18 -48 2 -74 36
-48 70 -43 161 23 101 74 130 148 77 200 -29 30 -47 31 -100 6z"/>
<path d="M3473 3661 c-103 -81 -126 -133 -71 -159 44 -21 97 -1 152 58 51 55
58 88 26 120 -29 29 -52 25 -107 -19z"/>
<path d="M6652 3678 c-31 -31 9 -120 71 -161 39 -25 112 -23 131 4 17 25 12
44 -23 83 -67 74 -146 107 -179 74z"/>
</g>
</svg>
