<?xml version="1.0" standalone="no"?>
<!DOCTYPE svg PUBLIC "-//W3C//DTD SVG 20010904//EN"
 "http://www.w3.org/TR/2001/REC-SVG-20010904/DTD/svg10.dtd">
<svg version="1.0" xmlns="http://www.w3.org/2000/svg"
 width="1024.000000pt" height="1024.000000pt" viewBox="0 0 1024.000000 1024.000000"
 preserveAspectRatio="xMidYMid meet">
<metadata>
Created by potrace 1.16, written by Peter Selinger 2001-2019
</metadata>
<g transform="translate(0.000000,1024.000000) scale(0.100000,-0.100000)"
fill="#000000" stroke="none">
<path d="M4825 7880 c-83 -10 -138 -26 -220 -65 -120 -57 -258 -217 -297 -342
l-13 -43 -300 0 -301 0 -39 41 c-179 184 -479 148 -609 -74 -38 -64 -59 -160
-54 -239 10 -132 105 -270 226 -326 51 -24 69 -27 162 -27 128 0 175 19 263
107 l59 58 299 0 299 0 21 -42 c59 -117 175 -245 260 -288 l39 -20 0 -175 c0
-175 0 -175 -22 -176 -13 0 -62 -4 -111 -8 -72 -6 -92 -12 -113 -32 -30 -28
-39 -43 -48 -81 l-6 -28 595 0 596 0 -6 23 c-14 44 -41 82 -75 102 -29 16 -50
19 -121 17 l-86 -2 -6 67 c-9 86 -9 231 -1 271 5 23 20 40 63 68 85 57 166
146 208 230 l36 74 297 0 297 0 64 -64 c89 -88 148 -110 281 -104 78 4 107 10
151 32 150 73 246 252 219 410 -43 262 -290 408 -535 316 -38 -14 -73 -38
-110 -75 l-55 -55 -299 0 -298 0 -17 48 c-36 99 -141 230 -242 298 -118 81
-296 122 -451 104z m244 -312 c81 -39 145 -104 185 -188 28 -59 31 -74 31
-165 -1 -90 -3 -106 -30 -159 -64 -127 -173 -204 -305 -214 -207 -14 -376 112
-411 308 -54 306 254 549 530 418z"/>
<path d="M4835 7396 c-43 -18 -92 -78 -105 -127 -19 -68 4 -134 65 -187 42
-38 70 -46 135 -40 98 10 170 88 170 183 0 48 -25 108 -57 137 -49 45 -147 61
-208 34z"/>
<path d="M4086 5910 c-31 -10 -71 -43 -89 -75 -8 -13 -14 -111 -17 -285 l-5
-265 -320 -2 -320 -2 0 -605 c0 -332 4 -608 8 -613 5 -4 78 -8 163 -8 l155 0
162 165 c89 91 368 373 619 626 l458 462 31 -37 c18 -20 213 -223 434 -451
221 -228 476 -494 567 -590 l165 -174 167 3 166 3 0 -376 0 -376 536 0 535 0
-4 483 c-4 519 -5 521 -62 695 -126 379 -421 659 -803 764 -69 19 -112 22
-432 27 l-355 6 -5 267 -5 266 -31 39 c-17 21 -46 43 -65 50 -41 14 -1606 17
-1653 3z"/>
<path d="M2475 5706 c-41 -18 -92 -77 -105 -123 -8 -27 -10 -347 -8 -1075 l3
-1036 30 -44 c17 -23 49 -53 70 -66 39 -22 46 -22 292 -20 l251 3 44 30 c23
17 54 51 68 75 l25 45 3 1005 c2 729 0 1017 -8 1052 -15 62 -60 122 -109 148
-37 18 -58 20 -283 20 -178 -1 -251 -4 -273 -14z"/>
<path d="M5020 4584 l-145 -154 -30 32 c-186 204 -239 258 -250 258 -6 0 -29
-19 -51 -43 -21 -23 -109 -114 -194 -201 l-155 -158 40 -35 c22 -19 119 -96
215 -172 l176 -138 29 22 c17 12 138 100 270 195 323 234 418 305 434 324 11
14 1 29 -79 113 -51 54 -97 101 -104 105 -6 3 -71 -58 -156 -148z"/>
<path d="M5330 4249 c-624 -461 -570 -418 -559 -447 22 -59 161 -407 166 -414
2 -4 18 9 36 30 59 69 221 245 422 457 110 116 222 237 249 268 l49 57 -84 88
c-46 48 -88 88 -94 89 -5 1 -89 -57 -185 -128z"/>
<path d="M3908 4026 c-82 -84 -148 -156 -148 -162 0 -27 149 -234 225 -313 75
-77 203 -179 247 -196 10 -4 24 12 43 47 16 29 75 131 132 225 57 95 103 177
103 181 0 5 -80 71 -177 148 -98 76 -199 158 -226 182 -26 23 -49 41 -50 41
-1 -1 -68 -70 -149 -153z"/>
<path d="M5615 3829 c-336 -353 -462 -489 -526 -566 l-60 -73 33 0 c58 0 242
47 349 89 234 92 423 257 569 495 38 64 41 72 29 92 -17 27 -168 184 -178 184
-3 0 -100 -100 -216 -221z"/>
<path d="M4620 3634 c0 -6 -38 -76 -84 -157 -104 -183 -114 -206 -95 -218 49
-32 369 -91 369 -68 0 5 -36 100 -80 212 -72 183 -109 261 -110 231z"/>
<path d="M6408 2986 l3 -114 32 -4 c18 -3 264 -3 547 -1 l515 3 2 115 2 115
-552 0 -552 0 3 -114z"/>
<path d="M6466 2663 c-13 -13 -6 -368 9 -431 42 -176 170 -315 330 -356 242
-64 496 86 560 329 11 44 15 111 15 256 0 174 -2 198 -17 203 -21 8 -889 7
-897 -1z"/>
</g>
</svg>
