<?xml version="1.0" standalone="no"?>
<!DOCTYPE svg PUBLIC "-//W3C//DTD SVG 20010904//EN"
 "http://www.w3.org/TR/2001/REC-SVG-20010904/DTD/svg10.dtd">
<svg version="1.0" xmlns="http://www.w3.org/2000/svg"
 width="1024.000000pt" height="1024.000000pt" viewBox="0 0 1024.000000 1024.000000"
 preserveAspectRatio="xMidYMid meet">
<metadata>
Created by potrace 1.16, written by Peter Selinger 2001-2019
</metadata>
<g transform="translate(0.000000,1024.000000) scale(0.100000,-0.100000)"
fill="#000000" stroke="none">
<path d="M5028 8087 c-48 -28 -52 -34 -159 -234 -113 -207 -189 -329 -292
-463 -195 -254 -433 -438 -676 -524 -74 -25 -101 -30 -191 -30 -142 -1 -181
14 -286 115 -87 83 -110 94 -178 87 -77 -9 -136 -77 -136 -158 0 -65 157 -323
292 -480 120 -139 211 -189 363 -197 70 -4 109 -1 178 16 68 16 223 71 310
109 4 2 7 -276 7 -617 l0 -621 -173 0 c-202 0 -227 -8 -265 -81 -19 -35 -23
-56 -20 -102 5 -64 25 -98 78 -134 31 -22 43 -23 206 -23 l174 0 0 -355 0
-355 -116 0 c-87 0 -125 -4 -150 -16 -59 -28 -64 -49 -64 -269 l0 -195 -133 0
c-151 0 -187 -12 -219 -71 -15 -29 -18 -58 -18 -200 0 -96 5 -179 11 -198 23
-65 -80 -61 1543 -61 l1476 0 32 29 33 29 -1 190 c0 210 -4 224 -67 262 -27
17 -51 20 -164 20 l-133 0 0 185 c0 209 -7 241 -62 275 -28 17 -50 20 -150 20
l-118 0 0 355 0 355 173 0 c160 0 175 2 211 23 56 32 78 77 74 154 -4 70 -23
103 -78 141 -31 21 -43 22 -206 22 l-174 0 0 621 c0 493 3 620 13 616 6 -3 49
-21 93 -40 144 -62 226 -81 349 -82 142 0 214 23 306 99 95 78 247 286 338
461 49 95 52 103 43 143 -19 83 -74 132 -149 132 -63 0 -90 -14 -163 -89 -100
-103 -131 -116 -265 -115 -97 0 -121 4 -205 33 -186 63 -349 169 -511 330
-173 173 -313 371 -474 671 -42 80 -88 159 -101 176 -48 64 -139 82 -206 41z
m147 -1164 c108 -136 389 -403 424 -403 7 0 11 -22 11 -60 l0 -60 -204 0 -204
0 -4 101 c-3 96 -4 102 -31 125 -35 30 -85 31 -121 3 -25 -20 -26 -24 -26
-125 l0 -104 -210 0 -210 0 0 54 0 53 63 49 c122 95 181 151 293 277 63 70
120 136 126 147 7 11 17 20 23 19 5 0 37 -34 70 -76z m-161 -905 c3 -29 6 -67
6 -84 0 -31 -1 -31 -57 -38 -69 -8 -138 -37 -152 -64 -24 -46 -1 -97 52 -115
14 -5 17 -20 19 -84 2 -43 1 -100 0 -128 -4 -75 7 -134 29 -156 17 -17 35 -19
196 -19 237 0 223 -13 223 212 0 152 2 169 18 175 32 11 62 46 62 73 0 52 -62
93 -158 106 l-52 7 0 83 0 84 205 0 205 0 0 -490 0 -490 -505 0 -505 0 0 490
0 490 204 0 203 0 7 -52z m596 -1623 l0 -355 -505 0 -505 0 0 355 0 355 505 0
505 0 0 -355z"/>
<path d="M3285 3067 c-91 -65 -324 -271 -334 -296 -8 -19 -11 -93 -9 -234 l3
-207 28 -27 27 -28 2103 0 c1730 0 2106 2 2125 13 44 25 52 66 52 267 0 135
-4 195 -14 219 -9 23 -63 72 -179 164 -91 73 -169 136 -172 142 -18 29 -25 -4
-27 -137 l-3 -147 -1777 -4 -1778 -3 -1 83 c-1 46 -4 113 -8 150 l-6 67 -30
-22z"/>
</g>
</svg>
