<?xml version="1.0" encoding="UTF-8"?>
<svg width="700" height="700" version="1.1" viewBox="0 0 700 700" xmlns="http://www.w3.org/2000/svg" xmlns:xlink="http://www.w3.org/1999/xlink">
 <defs>
  <symbol id="l" overflow="visible">
   <path d="m29.312-1.75c-1.5117 0.78125-3.0898 1.3711-4.7344 1.7656-1.6367 0.40625-3.3398 0.60938-5.1094 0.60938-5.3125 0-9.5273-1.4844-12.641-4.4531-3.1055-2.9688-4.6562-7-4.6562-12.094s1.5508-9.125 4.6562-12.094c3.1133-2.9688 7.3281-4.4531 12.641-4.4531 1.7695 0 3.4727 0.19922 5.1094 0.59375 1.6445 0.39844 3.2227 0.99219 4.7344 1.7812v6.5938c-1.5312-1.0391-3.0391-1.8008-4.5156-2.2812-1.4805-0.48828-3.0391-0.73438-4.6719-0.73438-2.9375 0-5.2461 0.94531-6.9219 2.8281-1.6797 1.875-2.5156 4.4648-2.5156 7.7656 0 3.293 0.83594 5.8828 2.5156 7.7656 1.6758 1.875 3.9844 2.8125 6.9219 2.8125 1.6328 0 3.1914-0.23828 4.6719-0.71875 1.4766-0.48828 2.9844-1.2539 4.5156-2.2969z"/>
  </symbol>
  <symbol id="c" overflow="visible">
   <path d="m21.453-17.406c-0.67969-0.3125-1.3516-0.53906-2.0156-0.6875-0.65625-0.15625-1.3203-0.23438-1.9844-0.23438-1.9688 0-3.4844 0.63281-4.5469 1.8906-1.0547 1.2617-1.5781 3.0703-1.5781 5.4219v11.016h-7.6562v-23.922h7.6562v3.9219c0.97656-1.5625 2.1016-2.7031 3.375-3.4219 1.2812-0.71875 2.8125-1.0781 4.5938-1.0781 0.25 0 0.52344 0.011719 0.82812 0.03125 0.30078 0.023438 0.73438 0.070312 1.2969 0.14062z"/>
  </symbol>
  <symbol id="b" overflow="visible">
   <path d="m27.562-12.031v2.1875h-17.891c0.1875 1.793 0.83203 3.1367 1.9375 4.0312 1.1133 0.89844 2.6719 1.3438 4.6719 1.3438 1.6016 0 3.25-0.23438 4.9375-0.70312 1.6875-0.47656 3.4219-1.2031 5.2031-2.1719v5.8906c-1.8047 0.6875-3.6094 1.2031-5.4219 1.5469-1.8125 0.35156-3.6211 0.53125-5.4219 0.53125-4.3359 0-7.7031-1.0977-10.109-3.2969-2.3984-2.207-3.5938-5.2969-3.5938-9.2656 0-3.9062 1.1758-6.9727 3.5312-9.2031 2.3633-2.2383 5.6094-3.3594 9.7344-3.3594 3.7578 0 6.7695 1.1367 9.0312 3.4062 2.2578 2.2617 3.3906 5.2812 3.3906 9.0625zm-7.8594-2.5312c0-1.457-0.42969-2.6289-1.2812-3.5156-0.84375-0.89453-1.9492-1.3438-3.3125-1.3438-1.4922 0-2.6992 0.41797-3.625 1.25-0.91797 0.83594-1.4922 2.0391-1.7188 3.6094z"/>
  </symbol>
  <symbol id="a" overflow="visible">
   <path d="m14.391-10.766c-1.5938 0-2.793 0.27344-3.5938 0.8125-0.80469 0.54297-1.2031 1.3398-1.2031 2.3906 0 0.96875 0.32031 1.7305 0.96875 2.2812 0.64453 0.54297 1.5469 0.8125 2.7031 0.8125 1.4375 0 2.6445-0.51562 3.625-1.5469 0.98828-1.0312 1.4844-2.3203 1.4844-3.875v-0.875zm11.688-2.8906v13.656h-7.7031v-3.5469c-1.0312 1.4492-2.1875 2.5078-3.4688 3.1719s-2.8398 1-4.6719 1c-2.4805 0-4.4961-0.72266-6.0469-2.1719-1.543-1.4453-2.3125-3.3203-2.3125-5.625 0-2.8125 0.96094-4.8672 2.8906-6.1719 1.9375-1.3125 4.9688-1.9688 9.0938-1.9688h4.5156v-0.60938c0-1.207-0.48047-2.0938-1.4375-2.6562-0.94922-0.5625-2.4375-0.84375-4.4688-0.84375-1.6367 0-3.1562 0.16797-4.5625 0.5-1.4062 0.32422-2.7188 0.8125-3.9375 1.4688v-5.8281c1.6445-0.40625 3.2891-0.70703 4.9375-0.90625 1.6562-0.20703 3.3047-0.3125 4.9531-0.3125 4.3203 0 7.4375 0.85547 9.3438 2.5625 1.9141 1.6992 2.875 4.4609 2.875 8.2812z"/>
  </symbol>
  <symbol id="d" overflow="visible">
   <path d="m12.031-30.719v6.7969h7.875v5.4688h-7.875v10.141c0 1.1172 0.21875 1.8711 0.65625 2.2656 0.4375 0.38672 1.3125 0.57812 2.625 0.57812h3.9375v5.4688h-6.5625c-3.0234 0-5.1641-0.62891-6.4219-1.8906-1.2617-1.2578-1.8906-3.3984-1.8906-6.4219v-10.141h-3.7969v-5.4688h3.7969v-6.7969z"/>
  </symbol>
  <symbol id="h" overflow="visible">
   <path d="m19.953-20.422v-12.812h7.6875v33.234h-7.6875v-3.4531c-1.0547 1.4062-2.2148 2.4375-3.4844 3.0938-1.2734 0.65625-2.7422 0.98438-4.4062 0.98438-2.9492 0-5.3711-1.1719-7.2656-3.5156-1.8867-2.3438-2.8281-5.3594-2.8281-9.0469s0.94141-6.7031 2.8281-9.0469c1.8945-2.3438 4.3164-3.5156 7.2656-3.5156 1.6562 0 3.1172 0.33594 4.3906 1 1.2812 0.65625 2.4453 1.6836 3.5 3.0781zm-5.0469 15.484c1.6445 0 2.8945-0.59766 3.75-1.7969 0.86328-1.1953 1.2969-2.9297 1.2969-5.2031 0-2.2812-0.43359-4.0195-1.2969-5.2188-0.85547-1.1953-2.1055-1.7969-3.75-1.7969-1.625 0-2.8711 0.60156-3.7344 1.7969-0.85547 1.1992-1.2812 2.9375-1.2812 5.2188 0 2.2734 0.42578 4.0078 1.2812 5.2031 0.86328 1.1992 2.1094 1.7969 3.7344 1.7969z"/>
  </symbol>
  <symbol id="g" overflow="visible">
   <path d="m16.406-4.9375c1.6328 0 2.8828-0.59766 3.75-1.7969 0.86328-1.1953 1.2969-2.9297 1.2969-5.2031 0-2.2812-0.43359-4.0195-1.2969-5.2188-0.86719-1.1953-2.1172-1.7969-3.75-1.7969-1.6367 0-2.8906 0.60547-3.7656 1.8125-0.875 1.1992-1.3125 2.9336-1.3125 5.2031 0 2.2617 0.4375 3.9961 1.3125 5.2031 0.875 1.1992 2.1289 1.7969 3.7656 1.7969zm-5.0781-15.484c1.0508-1.3945 2.2188-2.4219 3.5-3.0781 1.2812-0.66406 2.7539-1 4.4219-1 2.9453 0 5.3672 1.1719 7.2656 3.5156 1.8945 2.3438 2.8438 5.3594 2.8438 9.0469s-0.94922 6.7031-2.8438 9.0469c-1.8984 2.3438-4.3203 3.5156-7.2656 3.5156-1.668 0-3.1406-0.33594-4.4219-1s-2.4492-1.6914-3.5-3.0781v3.4531h-7.6562v-33.234h7.6562z"/>
  </symbol>
  <symbol id="f" overflow="visible">
   <path d="m0.53125-23.922h7.6562l6.4219 16.234 5.4688-16.234h7.6562l-10.062 26.188c-1.0117 2.6641-2.1953 4.5234-3.5469 5.5781-1.3438 1.0625-3.1211 1.5938-5.3281 1.5938h-4.4219v-5.0156h2.3906c1.3008 0 2.2422-0.21094 2.8281-0.625 0.59375-0.40625 1.0547-1.1484 1.3906-2.2188l0.20312-0.65625z"/>
  </symbol>
  <symbol id="e" overflow="visible">
   <path d="m27.734-14.562v14.562h-7.7031v-11.156c0-2.0625-0.046875-3.4844-0.14062-4.2656-0.085937-0.78125-0.24219-1.3594-0.46875-1.7344-0.30469-0.5-0.71094-0.88281-1.2188-1.1562-0.51172-0.28125-1.0938-0.42188-1.75-0.42188-1.5938 0-2.8516 0.61719-3.7656 1.8438-0.90625 1.2305-1.3594 2.9375-1.3594 5.125v11.766h-7.6562v-23.922h7.6562v3.5c1.1445-1.3945 2.3633-2.4219 3.6562-3.0781 1.3008-0.66406 2.7383-1 4.3125-1 2.7578 0 4.8516 0.85156 6.2812 2.5469 1.4375 1.6875 2.1562 4.1523 2.1562 7.3906z"/>
  </symbol>
  <symbol id="k" overflow="visible">
   <path d="m3.6719-23.922h7.6562v23.5c0 3.1953-0.77344 5.6406-2.3125 7.3281-1.543 1.6875-3.7734 2.5312-6.6875 2.5312h-3.7812v-5.0156h1.3281c1.4453 0 2.4414-0.32812 2.9844-0.98438 0.53906-0.65625 0.8125-1.9453 0.8125-3.8594zm0-9.3125h7.6562v6.2344h-7.6562z"/>
  </symbol>
  <symbol id="j" overflow="visible">
   <path d="m3.6719-23.922h7.6562v23.922h-7.6562zm0-9.3125h7.6562v6.2344h-7.6562z"/>
  </symbol>
  <symbol id="i" overflow="visible">
   <path d="m3.6719-33.234h7.6562v18.094l8.7969-8.7812h8.8906l-11.688 10.969 12.594 12.953h-9.2656l-9.3281-9.9688v9.9688h-7.6562z"/>
  </symbol>
 </defs>
 <g>
  <path d="m612.5 236.25h-35v-8.75c-0.023438-5.4102-1.7148-10.68-4.8477-15.09-3.1328-4.4102-7.5508-7.7461-12.652-9.5508v-106.61c0-2.3203-0.92188-4.5469-2.5625-6.1875s-3.8672-2.5625-6.1875-2.5625h-35c-4.832 0-8.75 3.918-8.75 8.75v106.61c-5.1016 1.8047-9.5195 5.1406-12.652 9.5508-3.1328 4.4102-4.8242 9.6797-4.8477 15.09v8.75h-35v-218.75c0-2.3203-0.92188-4.5469-2.5625-6.1875s-3.8672-2.5625-6.1875-2.5625h-192.5c-4.832 0-8.75 3.918-8.75 8.75v218.75h-35v-8.75c-0.023438-5.4102-1.7148-10.68-4.8477-15.09-3.1328-4.4102-7.5508-7.7461-12.652-9.5508v-106.61c0-2.3203-0.92188-4.5469-2.5625-6.1875s-3.8672-2.5625-6.1875-2.5625h-35c-4.832 0-8.75 3.918-8.75 8.75v106.61c-5.1016 1.8047-9.5195 5.1406-12.652 9.5508-3.1328 4.4102-4.8242 9.6797-4.8477 15.09v8.75h-35c-4.832 0-8.75 3.918-8.75 8.75v17.5c0 6.9609 2.7656 13.641 7.6875 18.562s11.602 7.6875 18.562 7.6875h490c6.9609 0 13.641-2.7656 18.562-7.6875s7.6875-11.602 7.6875-18.562v-17.5c0-2.3203-0.92188-4.5469-2.5625-6.1875s-3.8672-2.5625-6.1875-2.5625zm-70-131.25v96.25h-17.5v-96.25zm-35 122.5c0-4.832 3.918-8.75 8.75-8.75h35c2.3203 0 4.5469 0.92188 6.1875 2.5625s2.5625 3.8672 2.5625 6.1875v8.75h-52.5zm-70-96.25-17.5-23.336v-55.414c0-2.3203-0.92188-4.5469-2.5625-6.1875s-3.8672-2.5625-6.1875-2.5625h-39.375l-13.125-17.5h78.75zm-87.5 17.5c6.9609 0 13.641 2.7656 18.562 7.6875s7.6875 11.602 7.6875 18.562v26.25h-52.5v-26.25c0-6.9609 2.7656-13.641 7.6875-18.562s11.602-7.6875 18.562-7.6875zm-17.5-35c0-4.6406 1.8438-9.0938 5.125-12.375s7.7344-5.125 12.375-5.125 9.0938 1.8438 12.375 5.125 5.125 7.7344 5.125 12.375-1.8438 9.0938-5.125 12.375-7.7344 5.125-12.375 5.125-9.0938-1.8438-12.375-5.125-5.125-7.7344-5.125-12.375zm41.938 24.98c6.6836-6.5156 10.484-15.43 10.562-24.762 0.078125-9.3359-3.5781-18.312-10.148-24.938-6.5742-6.6289-15.52-10.355-24.852-10.355s-18.277 3.7266-24.852 10.355c-6.5703 6.625-10.227 15.602-10.148 24.938 0.078125 9.332 3.8789 18.246 10.562 24.762-12.066 8.1289-19.305 21.723-19.312 36.27v26.25h-8.75v-140h65.625l39.375 52.5v87.5h-8.75v-26.25c-0.007812-14.547-7.2461-28.141-19.312-36.27zm10.562-77.48h17.5v23.336zm-122.5-35h74.375l13.125 17.5h-61.25c-4.832 0-8.75 3.918-8.75 8.75v157.5c0 2.3203 0.92188 4.5469 2.5625 6.1875s3.8672 2.5625 6.1875 2.5625h122.5c2.3203 0 4.5469-0.92188 6.1875-2.5625s2.5625-3.8672 2.5625-6.1875v-72.914l17.5 23.328v75.836h-175zm-87.5 78.75v96.25h-17.5v-96.25zm-35 122.5c0-4.832 3.918-8.75 8.75-8.75h35c2.3203 0 4.5469 0.92188 6.1875 2.5625s2.5625 3.8672 2.5625 6.1875v8.75h-52.5zm463.75 35c0 2.3203-0.92188 4.5469-2.5625 6.1875s-3.8672 2.5625-6.1875 2.5625h-490c-4.832 0-8.75-3.918-8.75-8.75v-8.75h507.5z"/>
  <path d="m166.25 78.75c6.9609 0 13.641-2.7656 18.562-7.6875s7.6875-11.602 7.6875-18.562v-3.457c0.015625-5.1797-1.5078-10.246-4.375-14.559l-14.559-21.875c-1.7188-2.2969-4.4141-3.6445-7.2812-3.6445-2.8672 0-5.5625 1.3477-7.2812 3.6445l-14.629 21.875c-2.8672 4.3125-4.3906 9.3789-4.375 14.559v3.457c0 6.9609 2.7656 13.641 7.6875 18.562s11.602 7.6875 18.562 7.6875zm-8.75-29.707c0-1.7266 0.51172-3.4141 1.4688-4.8477l7.2812-10.945 7.2812 10.922c0.96484 1.4414 1.4766 3.1367 1.4688 4.8711v3.457c0 4.832-3.918 8.75-8.75 8.75s-8.75-3.918-8.75-8.75z"/>
  <path d="m533.75 78.75c6.9609 0 13.641-2.7656 18.562-7.6875s7.6875-11.602 7.6875-18.562v-3.457c0.015625-5.1797-1.5078-10.246-4.375-14.559l-14.559-21.875c-1.7188-2.2969-4.4141-3.6445-7.2812-3.6445-2.8672 0-5.5625 1.3477-7.2812 3.6445l-14.629 21.875c-2.8672 4.3125-4.3906 9.3789-4.375 14.559v3.457c0 6.9609 2.7656 13.641 7.6875 18.562s11.602 7.6875 18.562 7.6875zm-8.75-29.707c0-1.7266 0.51172-3.4141 1.4688-4.8477l7.2812-10.945 7.2812 10.922c0.96484 1.4414 1.4766 3.1367 1.4688 4.8711v3.457c0 4.832-3.918 8.75-8.75 8.75s-8.75-3.918-8.75-8.75z"/>
  <path d="m612.5 481.25h-42.777c10.824-16.156 16.578-35.18 16.527-54.625-0.007812-3.0703-0.92969-6.0703-2.6562-8.6094-1.7227-2.5391-4.168-4.5078-7.0195-5.6445-0.80078-3.6797-2.2031-7.1992-4.1484-10.422-2.7891-3.7344-4.1914-8.3203-3.9727-12.977 0.19531-1.3164 0.29688-2.6445 0.29688-3.9727 0-6.6094-2.4922-12.977-6.9805-17.828s-10.641-7.8281-17.23-8.3438c-4.9414-5.6133-12.059-8.8281-19.539-8.8281s-14.598 3.2148-19.539 8.8281c-7.2773 0.57031-13.992 4.1406-18.527 9.8633s-6.4844 13.074-5.3789 20.289c0.21094 4.6523-1.1953 9.2344-3.9805 12.969-1.9453 3.2227-3.3477 6.7422-4.1484 10.422-2.8516 1.1367-5.2969 3.1055-7.0195 5.6445-1.7266 2.5391-2.6484 5.5391-2.6562 8.6094-0.050781 19.445 5.7031 38.469 16.527 54.625h-86.879c-0.75781-8.9375-4.6406-17.324-10.961-23.688-3.9492-3.9688-6.1719-9.3359-6.1875-14.934v-8.9961c25.621-7.8047 43.75-26.645 43.75-48.633v-8.75c0-2.3203-0.92188-4.5469-2.5625-6.1875s-3.8672-2.5625-6.1875-2.5625h-17.5v-61.25h-17.5v61.25h-17.5v-61.25h-17.5v61.25h-17.5v-61.25h-17.5v61.25h-17.5c-4.832 0-8.75 3.918-8.75 8.75v8.75c0 21.988 18.129 40.828 43.75 48.633v8.9961c-0.015625 5.5977-2.2383 10.965-6.1875 14.934-6.3203 6.3633-10.203 14.75-10.961 23.688h-86.879c10.824-16.156 16.578-35.18 16.527-54.625-0.007812-3.0703-0.92969-6.0703-2.6562-8.6094-1.7227-2.5391-4.168-4.5078-7.0195-5.6445-0.80078-3.6797-2.2031-7.1992-4.1484-10.422-2.7891-3.7344-4.1914-8.3203-3.9727-12.977 0.19531-1.3164 0.29688-2.6445 0.29688-3.9727 0-6.6094-2.4922-12.977-6.9805-17.828s-10.641-7.8281-17.23-8.3438c-4.9414-5.6133-12.059-8.8281-19.539-8.8281s-14.598 3.2148-19.539 8.8281c-7.2773 0.57031-13.992 4.1406-18.527 9.8633s-6.4844 13.074-5.3789 20.289c0.21094 4.6523-1.1953 9.2344-3.9805 12.969-1.9453 3.2227-3.3477 6.7422-4.1484 10.422-2.8516 1.1367-5.2969 3.1055-7.0195 5.6445-1.7266 2.5391-2.6484 5.5391-2.6562 8.6094-0.050781 19.445 5.7031 38.469 16.527 54.625h-42.777c-4.832 0-8.75 3.918-8.75 8.75v52.5c0 2.3203 0.92188 4.5469 2.5625 6.1875s3.8672 2.5625 6.1875 2.5625h525c2.3203 0 4.5469-0.92188 6.1875-2.5625s2.5625-3.8672 2.5625-6.1875v-52.5c0-2.3203-0.92188-4.5469-2.5625-6.1875s-3.8672-2.5625-6.1875-2.5625zm-113.64-94.922c-0.070313-0.4375-0.10547-0.88281-0.10547-1.3281 0-4.8125 3.8867-8.7227 8.6992-8.75l1.2344 0.15625h-0.003906c3.5312 0.4375 6.9805-1.2852 8.75-4.375 1.6133-2.6328 4.4805-4.2422 7.5703-4.2422s5.957 1.6094 7.5703 4.2422c1.75 3.1055 5.2109 4.8359 8.75 4.375l1.1797-0.15625c2.3203 0 4.5469 0.92188 6.1875 2.5625s2.5625 3.8672 2.5625 6.1875c0 0.44141-0.03125 0.88281-0.097656 1.3203-0.94922 8.7461 1.3047 17.543 6.3438 24.754 0 0.050781 0.042968 0.12109 0.078125 0.17578h-65.141c0-0.050781 0.042968-0.12109 0.078125-0.17578 5.0312-7.2109 7.2852-16 6.3438-24.746zm-17.605 42.422h87.5c-0.45703 19.492-7.9922 38.156-21.203 52.5h-45.07c-13.215-14.34-20.762-33.004-21.227-52.5zm-183.75-43.75h105c0 18.969-24.047 35-52.5 35s-52.5-16.031-52.5-35zm32.438 84.938c7.2695-7.2266 11.344-17.062 11.312-27.309v-5.582c2.8711 0.26953 5.7852 0.45312 8.75 0.45312s5.8789-0.18359 8.75-0.45312v5.582c-0.03125 10.246 4.043 20.082 11.312 27.309 3.0547 3.0859 5.0859 7.0352 5.8203 11.312h-51.766c0.73437-4.2773 2.7656-8.2266 5.8203-11.312zm-181.08-83.609c-0.070313-0.4375-0.10547-0.88281-0.10547-1.3281 0-4.8125 3.8867-8.7227 8.6992-8.75l1.2344 0.15625h-0.003906c3.5352 0.44141 6.9844-1.2852 8.75-4.375 1.6133-2.6328 4.4805-4.2422 7.5703-4.2422s5.957 1.6094 7.5703 4.2422c1.75 3.1055 5.2109 4.8359 8.75 4.375l1.1797-0.15625c2.3203 0 4.5469 0.92188 6.1875 2.5625s2.5625 3.8672 2.5625 6.1875c0 0.44141-0.03125 0.88281-0.097656 1.3203-0.94922 8.7461 1.3047 17.543 6.3438 24.754 0 0.050781 0 0.12109 0.078125 0.17578h-65.141c0-0.050781 0-0.12109 0.078125-0.17578 5.0312-7.2109 7.2852-16 6.3438-24.746zm-17.605 42.422h87.5c-0.45703 19.492-7.9922 38.156-21.203 52.5h-45.07c-13.215-14.34-20.762-33.004-21.227-52.5zm472.5 105h-507.5v-35h507.5z"/>
  <use x="70" y="691.25" xlink:href="#l"/>
  <use x="102.109375" y="691.25" xlink:href="#c"/>
  <use x="123.683594" y="691.25" xlink:href="#b"/>
  <use x="153.355469" y="691.25" xlink:href="#a"/>
  <use x="182.878906" y="691.25" xlink:href="#d"/>
  <use x="203.792969" y="691.25" xlink:href="#b"/>
  <use x="233.464844" y="691.25" xlink:href="#h"/>
  <use x="280.011719" y="691.25" xlink:href="#g"/>
  <use x="311.328125" y="691.25" xlink:href="#f"/>
  <use x="355.078125" y="691.25" xlink:href="#e"/>
  <use x="386.226562" y="691.25" xlink:href="#a"/>
  <use x="415.75" y="691.25" xlink:href="#c"/>
  <use x="437.324219" y="691.25" xlink:href="#b"/>
  <use x="466.996094" y="691.25" xlink:href="#b"/>
  <use x="496.667969" y="691.25" xlink:href="#c"/>
  <use x="518.246094" y="691.25" xlink:href="#a"/>
  <use x="547.769531" y="691.25" xlink:href="#d"/>
  <use x="583.914062" y="691.25" xlink:href="#k"/>
  <use x="598.910156" y="691.25" xlink:href="#a"/>
  <use x="628.433594" y="691.25" xlink:href="#j"/>
  <use x="643.429687" y="691.25" xlink:href="#i"/>
  <use x="672.523438" y="691.25" xlink:href="#a"/>
 </g>
</svg>
