<?xml version="1.0" standalone="no"?>
<!DOCTYPE svg PUBLIC "-//W3C//DTD SVG 20010904//EN"
 "http://www.w3.org/TR/2001/REC-SVG-20010904/DTD/svg10.dtd">
<svg version="1.0" xmlns="http://www.w3.org/2000/svg"
 width="1024.000000pt" height="1024.000000pt" viewBox="0 0 1024.000000 1024.000000"
 preserveAspectRatio="xMidYMid meet">
<metadata>
Created by potrace 1.16, written by Peter Selinger 2001-2019
</metadata>
<g transform="translate(0.000000,1024.000000) scale(0.100000,-0.100000)"
fill="#000000" stroke="none">
<path d="M5033 8246 c-27 -24 -28 -27 -31 -145 l-4 -121 336 0 336 0 0 124 c0
178 23 166 -331 166 l-278 0 -28 -24z"/>
<path d="M4910 7554 l0 -226 75 4 75 3 0 -259 c0 -442 -27 -560 -250 -1086
-81 -190 -150 -368 -150 -384 0 -7 32 -28 71 -45 145 -65 338 -93 505 -72 288
35 509 146 665 332 l39 47 -66 143 c-98 215 -132 301 -176 439 -65 207 -78
311 -78 615 l0 263 55 7 c30 3 64 4 75 0 20 -6 20 -2 20 219 l0 226 -430 0
-430 0 0 -226z m429 -1368 c43 -23 86 -78 100 -129 12 -40 11 -54 -4 -99 -25
-78 -153 -298 -174 -298 -14 0 -90 115 -142 217 -48 91 -51 101 -46 151 7 69
42 123 99 151 50 25 126 28 167 7z"/>
<path d="M5212 6057 c-27 -29 -28 -71 -2 -97 26 -26 60 -25 94 1 33 26 34 68
3 97 -30 28 -68 28 -95 -1z"/>
<path d="M4350 7050 c-429 -6 -476 -11 -601 -60 -121 -48 -194 -95 -280 -180
-127 -126 -191 -229 -242 -387 l-22 -68 -3 -1230 c-3 -1351 -5 -1302 57 -1455
44 -107 88 -174 174 -266 175 -186 382 -274 643 -274 l124 0 0 125 0 125 -84
0 c-268 0 -487 135 -595 364 -58 124 -56 71 -56 1346 0 1083 1 1180 17 1243
45 173 159 313 325 396 109 55 157 60 586 61 l387 1 0 134 c0 103 -3 134 -12
133 -7 -1 -195 -5 -418 -8z"/>
<path d="M5900 6923 l0 -133 388 0 c432 0 459 -3 592 -67 94 -45 230 -177 272
-265 61 -124 58 -63 58 -1363 0 -1312 3 -1238 -63 -1374 -23 -47 -57 -91 -117
-151 -134 -135 -237 -178 -447 -187 l-123 -6 0 -77 c0 -42 3 -98 6 -124 l7
-46 112 0 c326 0 586 133 750 381 56 85 86 150 123 268 l27 86 0 1225 0 1225
-23 79 c-92 317 -317 542 -627 628 -75 20 -108 22 -508 27 l-427 6 0 -132z"/>
<path d="M5965 5568 c-79 -69 -139 -110 -240 -161 -320 -160 -778 -180 -1073
-47 -78 36 -78 36 -85 8 -3 -13 -19 -75 -36 -138 -45 -167 -61 -309 -61 -547
l0 -206 118 6 c196 10 331 60 470 175 43 34 113 92 157 128 94 77 260 162 388
198 176 51 243 60 419 61 l168 0 0 32 c0 60 -115 480 -147 538 -7 12 -21 4
-78 -47z"/>
<path d="M5805 4814 c-114 -20 -208 -50 -298 -95 -102 -51 -146 -82 -263 -184
-118 -103 -181 -146 -274 -186 -116 -49 -221 -71 -368 -78 l-134 -6 2 -210 c0
-115 5 -214 9 -218 5 -5 74 -11 153 -14 303 -11 527 66 738 253 169 151 276
217 448 274 84 28 263 60 335 60 l35 0 5 63 c3 34 5 125 4 202 l-2 140 -40 7
c-66 12 -265 7 -350 -8z"/>
<path d="M6098 4189 c-115 -10 -235 -42 -334 -89 -87 -42 -136 -78 -281 -205
-162 -142 -316 -217 -545 -267 -81 -17 -137 -22 -258 -22 -85 0 -167 3 -182 7
l-28 7 0 -237 0 -238 859 0 858 0 6 170 c9 235 9 873 0 877 -5 2 -47 1 -95 -3z"/>
<path d="M1462 1269 c-130 -22 -238 -117 -282 -249 -31 -92 -26 -223 13 -301
34 -70 116 -152 187 -187 77 -38 200 -43 282 -12 220 82 320 298 238 513 -28
75 -110 164 -183 200 -46 22 -159 49 -192 46 -5 -1 -34 -5 -63 -10z m128 -190
c0 -57 6 -84 30 -139 27 -62 30 -78 30 -174 l0 -106 -108 0 -107 0 3 113 c3
90 9 123 28 169 18 43 24 76 24 133 l0 75 50 0 50 0 0 -71z"/>
<path d="M1520 1083 c0 -17 19 -35 29 -29 18 12 12 36 -9 36 -11 0 -20 -3 -20
-7z"/>
<path d="M1512 962 c-25 -45 -28 -75 -9 -90 17 -14 96 -36 103 -29 12 12 -18
95 -45 127 l-26 32 -23 -40z"/>
<path d="M1470 822 c0 -15 15 -24 65 -41 79 -25 75 -25 75 -3 0 12 -16 22 -58
35 -31 10 -63 20 -69 23 -8 4 -13 -2 -13 -14z"/>
<path d="M1472 728 c3 -21 9 -23 73 -26 80 -3 79 8 -4 32 -70 21 -73 20 -69
-6z"/>
<path d="M3960 1266 c-72 -15 -134 -52 -192 -114 -58 -62 -83 -111 -98 -192
-40 -222 106 -426 331 -461 75 -12 168 5 241 42 62 32 141 112 174 176 27 54
29 66 29 168 0 105 -2 114 -33 177 -56 114 -156 187 -284 208 -77 12 -97 12
-168 -4z m275 -220 l70 -64 -29 -31 c-35 -36 -42 -38 -51 -11 -3 11 -11 20
-17 20 -6 0 -75 -63 -153 -140 -110 -109 -144 -137 -153 -128 -7 7 -12 17 -12
23 0 6 63 75 141 154 77 78 139 147 136 154 -2 6 -17 15 -35 19 -17 5 -33 12
-36 17 -5 8 50 51 64 51 3 0 37 -29 75 -64z"/>
<path d="M6530 1269 c-124 -17 -234 -98 -286 -212 -26 -57 -29 -72 -28 -172 0
-120 12 -159 72 -242 92 -125 287 -179 444 -123 167 59 258 189 258 369 0 248
-203 415 -460 380z m203 -191 l77 2 0 -152 c0 -84 3 -177 7 -207 6 -54 6 -54
-18 -47 -13 3 -51 9 -85 12 -55 6 -63 4 -82 -16 -12 -13 -27 -20 -34 -16 -7 4
-24 13 -38 21 -32 19 -88 19 -134 0 l-36 -15 0 210 c0 203 1 210 20 210 14 0
20 -7 20 -24 0 -23 3 -25 75 -28 78 -3 85 0 85 44 0 17 4 19 33 12 17 -5 67
-7 110 -6z"/>
<path d="M6636 1022 c-9 -15 19 -22 81 -22 39 0 54 4 51 13 -5 14 -123 23
-132 9z"/>
<path d="M6440 965 c0 -12 14 -15 70 -15 75 0 94 13 33 24 -66 10 -103 7 -103
-9z"/>
<path d="M6635 960 c-11 -18 -1 -22 69 -27 57 -5 66 -3 66 11 0 12 -9 16 -34
16 -18 0 -47 3 -64 6 -18 4 -32 1 -37 -6z"/>
<path d="M6437 896 c-6 -14 4 -16 68 -16 43 0 75 4 75 10 0 6 -21 10 -47 10
-27 0 -58 3 -69 6 -14 4 -23 0 -27 -10z"/>
<path d="M6638 815 l3 -85 33 0 c19 0 48 -3 65 -6 l31 -6 0 80 c0 45 -3 83 -7
85 -5 2 -35 7 -68 11 l-60 6 3 -85z m90 -17 c3 -53 4 -52 -32 -38 -22 8 -26
16 -26 50 0 39 1 41 28 38 25 -3 27 -7 30 -50z"/>
<path d="M6508 832 c-38 -2 -68 -7 -68 -12 0 -7 128 -20 138 -14 2 2 2 8 0 16
-2 9 -21 12 -70 10z"/>
<path d="M6440 746 c0 -11 18 -15 70 -18 61 -3 70 -1 70 15 0 14 -10 17 -70
17 -54 0 -70 -3 -70 -14z"/>
<path d="M7770 1266 c-83 -19 -124 -40 -181 -93 -157 -146 -163 -393 -15 -551
86 -91 240 -144 357 -122 132 25 238 105 293 220 28 59 31 74 31 165 0 92 -3
106 -32 167 -59 126 -151 196 -284 217 -78 13 -99 13 -169 -3z m-90 -215 c7
-30 23 -37 40 -16 18 22 29 19 87 -21 l52 -36 43 36 c45 39 76 45 112 21 22
-15 24 -14 30 10 4 14 13 25 21 25 13 0 15 -27 15 -172 0 -95 3 -183 6 -195 6
-21 3 -21 -83 -21 -48 0 -112 0 -140 0 -29 0 -77 0 -105 1 -29 0 -69 -1 -88
-4 l-35 -4 -1 165 c-2 202 2 242 24 238 9 -2 19 -14 22 -27z"/>
<path d="M7706 949 c-25 -30 -35 -69 -17 -69 5 0 21 14 36 32 l27 32 22 -26
c11 -14 29 -35 38 -47 35 -43 113 -13 133 50 9 26 16 24 55 -16 27 -28 36 -32
42 -21 18 32 -31 96 -73 96 -10 0 -35 -20 -57 -45 -22 -25 -44 -45 -49 -45 -5
0 -29 20 -53 45 -24 25 -52 45 -61 45 -10 0 -29 -14 -43 -31z"/>
<path d="M7700 798 c-20 -33 -26 -68 -13 -68 4 0 22 15 40 32 l34 33 39 -43
c22 -23 42 -42 45 -42 15 0 62 30 84 54 31 33 38 33 78 -6 l33 -32 0 32 c0 71
-74 95 -126 41 -51 -53 -59 -54 -100 -9 -47 52 -85 55 -114 8z"/>
<path d="M9034 1265 c-81 -17 -117 -37 -182 -99 -121 -115 -153 -284 -82 -435
70 -147 202 -231 363 -232 174 -1 328 108 377 267 72 234 -68 465 -305 504
-75 12 -95 12 -171 -5z m194 -192 c40 -30 66 -100 58 -155 -7 -49 -133 -271
-151 -265 -15 5 -93 124 -126 192 -48 99 -33 183 41 233 29 20 45 23 93 20 37
-3 67 -11 85 -25z"/>
<path d="M9075 995 c-32 -31 -32 -66 1 -104 48 -58 134 -25 134 52 0 72 -84
104 -135 52z m89 -37 c15 -24 -13 -53 -43 -43 -23 7 -28 34 -9 53 16 16 38 12
52 -10z"/>
<path d="M2661 1254 c-95 -34 -168 -100 -218 -196 -25 -49 -28 -62 -28 -168 0
-108 2 -119 30 -173 43 -87 136 -169 220 -197 226 -75 452 64 497 308 30 160
-64 341 -212 411 -71 32 -219 40 -289 15z m179 -140 c0 -36 -1 -36 -31 -30
-17 3 -40 6 -50 6 -13 0 -19 7 -19 24 0 25 13 32 73 35 25 1 27 -2 27 -35z
m-5 -72 c-4 -20 4 -52 25 -104 26 -67 30 -88 30 -177 l0 -101 -89 0 c-49 0
-96 -3 -104 -6 -26 -9 -11 216 19 293 13 34 24 75 24 92 0 31 1 31 51 31 50 0
51 0 44 -28z"/>
<path d="M2751 939 c-12 -28 -20 -56 -18 -63 5 -13 105 -42 114 -33 18 18 -33
134 -63 144 -6 2 -21 -19 -33 -48z"/>
<path d="M2720 816 c0 -18 23 -31 70 -39 19 -3 43 -8 53 -12 12 -5 17 -2 17 9
0 17 -49 41 -105 52 -28 5 -35 3 -35 -10z"/>
<path d="M2722 723 c2 -10 7 -17 11 -15 4 1 19 2 35 2 26 1 26 1 8 15 -28 21
-58 19 -54 -2z"/>
<path d="M5189 1247 c-135 -57 -213 -155 -238 -297 -52 -307 260 -546 544
-416 106 48 178 140 211 267 43 167 -42 356 -192 430 -61 30 -78 34 -168 37
-88 2 -108 0 -157 -21z m329 -224 c2 -12 -8 -39 -22 -60 -30 -43 -32 -56 -11
-73 13 -11 13 -15 0 -33 -8 -12 -15 -41 -15 -64 0 -51 -14 -55 -38 -12 -9 17
-25 42 -35 55 l-19 24 -78 -67 c-71 -62 -79 -71 -79 -105 -1 -31 -5 -38 -21
-38 -14 0 -20 7 -20 24 0 29 -22 49 -44 40 -10 -4 -16 -1 -16 9 0 8 -7 17 -15
21 -8 3 -12 12 -9 21 7 16 50 20 72 6 15 -9 168 142 159 157 -4 4 -24 17 -47
27 -56 25 -50 48 15 56 36 4 52 2 58 -8 10 -17 26 -17 46 1 52 47 114 57 119
19z"/>
</g>
</svg>
