<?xml version="1.0" standalone="no"?>
<!DOCTYPE svg PUBLIC "-//W3C//DTD SVG 20010904//EN"
 "http://www.w3.org/TR/2001/REC-SVG-20010904/DTD/svg10.dtd">
<svg version="1.0" xmlns="http://www.w3.org/2000/svg"
 width="1024.000000pt" height="1024.000000pt" viewBox="0 0 1024.000000 1024.000000"
 preserveAspectRatio="xMidYMid meet">
<metadata>
Created by potrace 1.16, written by Peter Selinger 2001-2019
</metadata>
<g transform="translate(0.000000,1024.000000) scale(0.100000,-0.100000)"
fill="#000000" stroke="none">
<path d="M5269 9049 c-549 -39 -1065 -243 -1499 -592 -99 -80 -298 -281 -383
-387 -239 -298 -428 -673 -516 -1025 -53 -210 -65 -324 -65 -590 0 -347 30
-536 129 -812 52 -145 184 -418 275 -570 l61 -102 56 62 c63 70 154 164 530
552 144 149 271 282 282 296 l21 27 -39 83 c-89 194 -121 342 -128 584 -4 140
-2 201 11 274 56 323 193 589 417 811 203 202 459 335 752 391 97 19 135 21
282 16 241 -8 397 -47 600 -150 514 -262 830 -848 776 -1434 -10 -113 -17
-156 -46 -288 -5 -25 9 -14 92 75 160 171 948 972 994 1010 l41 35 -41 105
c-87 219 -228 459 -381 649 -96 119 -318 336 -427 419 -216 163 -517 329 -748
411 -128 45 -345 102 -485 126 -76 13 -384 37 -435 33 -11 0 -68 -4 -126 -9z
m2247 -1491 c74 -70 98 -110 90 -152 -11 -58 -65 -88 -113 -62 -38 20 -130
115 -141 146 -12 34 3 85 30 105 41 28 75 19 134 -37z m-260 -249 c110 -108
136 -146 128 -188 -8 -39 -47 -71 -86 -71 -24 0 -47 16 -106 73 -42 39 -81 77
-87 82 -32 31 -55 71 -55 100 0 47 39 85 86 85 32 0 46 -9 120 -81z m-3895
-1235 c35 -37 33 -98 -4 -130 -41 -35 -88 -32 -121 7 -15 17 -26 43 -26 59 0
16 11 42 26 59 34 41 89 43 125 5z m338 -158 c8 -6 20 -26 28 -43 11 -27 11
-38 1 -62 -16 -38 -203 -230 -235 -242 -30 -11 -87 11 -102 39 -28 52 -16 77
92 193 56 61 113 117 127 124 26 14 65 10 89 -9z"/>
<path d="M5250 7366 c-103 -22 -171 -52 -261 -114 -309 -214 -408 -628 -231
-967 77 -147 188 -254 337 -325 122 -58 199 -73 352 -68 110 4 140 9 216 35
118 41 188 85 272 168 234 231 288 579 138 885 -40 81 -61 109 -139 186 -73
73 -108 100 -175 133 -46 23 -109 48 -139 57 -79 21 -289 27 -370 10z"/>
<path d="M7872 6954 c-322 -323 -839 -851 -1060 -1084 l-252 -264 95 -97 c114
-115 138 -162 139 -264 1 -124 -2 -129 -454 -580 -861 -859 -915 -916 -929
-965 -18 -67 4 -114 85 -185 123 -108 161 -248 102 -376 -18 -39 -45 -73 -92
-115 -79 -70 -110 -115 -102 -148 3 -13 37 -55 75 -94 104 -107 111 -131 111
-393 0 -229 -5 -258 -55 -297 -33 -26 -65 -28 -105 -7 -52 27 -55 42 -51 262
l3 203 -82 85 c-101 105 -124 153 -124 255 0 107 28 162 138 270 47 46 86 89
86 96 0 6 -40 55 -89 108 -108 116 -131 166 -131 285 0 90 19 161 58 220 15
23 214 228 442 456 l413 415 -19 22 c-10 13 -50 56 -89 96 l-69 73 -121 -121
c-66 -66 -127 -120 -135 -120 -16 0 -160 134 -570 530 -461 444 -642 615 -653
618 -7 1 -191 -181 -409 -405 -218 -225 -453 -463 -521 -531 l-125 -123 92
-152 c51 -84 139 -228 196 -322 57 -93 169 -276 249 -405 79 -129 184 -298
231 -375 325 -528 455 -740 543 -880 105 -168 124 -198 392 -630 92 -148 177
-281 189 -293 55 -62 154 -79 233 -41 48 23 78 59 145 169 85 141 275 455 388
640 62 102 153 253 203 335 50 83 147 242 217 355 70 113 202 329 295 480 167
275 207 340 295 480 26 41 116 188 200 325 84 138 169 277 189 310 160 257
314 547 401 755 177 424 246 816 211 1205 -13 143 -42 300 -60 318 -8 8 -40
-19 -119 -99z m-3320 -1983 c106 -106 118 -122 118 -154 0 -52 -41 -97 -88
-97 -32 0 -47 11 -154 118 -141 140 -150 162 -95 217 26 26 44 35 68 35 30 0
48 -14 151 -119z"/>
<path d="M6238 5269 c-78 -83 -145 -155 -147 -161 -2 -6 38 -52 88 -102 l92
-92 149 151 c83 83 150 157 150 165 0 19 -158 190 -175 190 -7 0 -78 -68 -157
-151z"/>
<path d="M4095 1220 c-82 -3 -149 -10 -161 -17 -12 -7 -29 -30 -37 -52 -20
-48 -9 -96 29 -132 25 -23 31 -24 197 -27 167 -3 173 -2 207 20 22 15 40 38
49 64 12 36 12 44 -4 77 -31 67 -69 76 -280 67z"/>
<path d="M4828 1221 c-66 -5 -82 -10 -104 -32 -33 -34 -42 -94 -20 -137 34
-65 -16 -62 974 -62 l899 0 34 23 c19 12 42 39 52 60 18 36 18 38 0 74 -10 20
-31 46 -46 57 -28 21 -36 21 -870 22 -463 0 -877 -2 -919 -5z"/>
<path d="M7062 1220 c-97 -23 -120 -138 -41 -205 29 -24 36 -25 157 -25 145 0
179 12 209 75 15 32 16 40 3 77 -25 69 -52 82 -182 84 -62 1 -128 -1 -146 -6z"/>
</g>
</svg>
